<svg width="530" height="333" viewBox="0 0 530 333" fill="none" xmlns="http://www.w3.org/2000/svg">
<path d="M216.392 148.008L215.702 147.077L218.789 136.576L219.928 136.056C247.706 121.781 247.58 120.587 247.466 117.607L244.864 94.1322C244.623 93.0275 244.022 92.0349 243.156 91.3113C242.507 90.7803 240.115 88.8388 213.704 81.821L212.479 81.5469L207.081 71.7312L207.571 70.6862C216.602 40.7935 215.731 40.0911 213.544 38.3209L195.071 23.2861C192.896 21.5216 191.808 20.6366 164.987 36.4195L164.065 37.1161L153.587 34.0212L153.114 33.2732C144.475 17.2104 139.157 8.18838 137.198 6.59524C136.289 5.94806 135.214 5.57554 134.1 5.52173L110.65 7.77725C107.495 8.10273 106.317 8.22835 99.1187 38.5265L98.8453 39.7485L89.233 44.9447L88.1909 44.4537C57.9074 34.6493 57.2013 35.5173 55.2367 37.9155L40.6246 56.0168C38.6827 58.415 37.9766 59.2887 54.3256 86.3206L55.0203 87.2457L52.1104 97.524L50.9715 98.0436C23.1937 112.336 23.3474 113.518 23.4271 116.487L26.0694 139.968C26.3626 141.049 26.9549 142.025 27.7778 142.783C28.4326 143.314 30.8243 145.261 57.2355 152.279L58.4541 152.547L63.8582 162.363L63.3685 163.414C54.337 193.301 55.2082 194.009 57.5999 195.962L76.0843 210.997C78.476 212.944 79.3473 213.652 106.168 197.863L107.057 197.172L117.763 200.427L118.235 201.175C126.874 217.238 132.192 226.266 134.18 227.853C135.089 228.5 136.164 228.873 137.278 228.926L160.699 226.694C163.854 226.363 165.033 226.237 172.231 195.944L172.504 194.717L181.94 189.738L182.982 190.229C213.265 200.033 213.971 199.159 215.913 196.761L230.548 178.66C231.881 176.13 232.763 175.04 216.392 148.008ZM111.328 146.426C94.8136 132.984 92.0745 108.739 105.126 92.579C118.178 76.4192 142.414 74.1066 158.945 87.5483C175.476 100.99 178.198 125.235 165.147 141.39C152.095 157.544 127.87 159.885 111.345 146.426H111.328Z" fill="#81AA43"/>
<path d="M8.8563e-07 217.82C-0.00149516 208.173 1.89241 198.619 5.57354 189.706C9.25466 180.793 14.6509 172.694 21.454 165.872C28.2571 159.05 36.3338 153.639 45.2228 149.948C54.1118 146.256 63.6389 144.357 73.2599 144.359C77.9854 144.392 82.6998 144.822 87.3539 145.644C86.0107 140.529 85.3218 135.264 85.3039 129.975C85.3128 118.282 88.6489 106.835 94.9203 96.9773C101.192 87.1197 110.138 79.2612 120.709 74.3248C131.279 69.3884 143.035 67.579 154.595 69.1091C166.156 70.6392 177.04 75.4454 185.972 82.963C193.047 58.9791 207.676 37.9366 227.669 22.9821C247.663 8.02772 271.946 -0.0349371 296.889 -7.0496e-05C360.668 -7.0496e-05 412.676 51.8883 412.676 116.105C412.717 121.005 412.374 125.9 411.651 130.746C431.982 133.211 450.607 143.368 463.719 159.142C476.832 174.916 483.442 195.116 482.198 215.613C480.955 236.111 471.952 255.359 457.03 269.423C442.108 283.487 422.392 291.306 401.913 291.282H59.9405C26.8952 284.092 8.8563e-07 253.012 8.8563e-07 217.82Z" fill="#FFC77F"/>
<path d="M265.797 239.473L155.876 161.101H375.718L265.797 239.473Z" fill="#252728"/>
<path d="M269.425 85.0816L375.718 160.856H155.876L262.164 85.0816C263.224 84.3255 264.493 83.9192 265.794 83.9192C267.095 83.9192 268.364 84.3255 269.425 85.0816Z" fill="#33A79F"/>
<path d="M265.797 228.053L155.876 161.101V291.282H375.718V161.101L265.797 228.053Z" fill="#33A79F"/>
<g style="mix-blend-mode:multiply" opacity="0.4">
<path d="M265.797 206L375.718 291.281H155.876L265.797 206Z" fill="#4B4F54"/>
</g>
<path d="M265.797 228.053L341.671 181.852V126.069C341.671 123.192 340.531 120.432 338.502 118.398C336.473 116.363 333.721 115.22 330.851 115.22H202.861C199.992 115.22 197.24 116.363 195.211 118.398C193.182 120.432 192.042 123.192 192.042 126.069V183.131L265.797 228.053Z" fill="white"/>
<path d="M273.434 226.123L375.718 291.281H155.876L258.161 226.123C260.444 224.668 263.092 223.895 265.797 223.895C268.502 223.895 271.151 224.668 273.434 226.123Z" fill="#009187"/>
<path d="M281.844 136.844C271.594 136.844 263.286 142.098 258.981 149.823C259.817 150.531 260.605 151.294 261.338 152.108L262.665 153.598L261.31 155.065L255.843 160.958C255.843 161.375 255.843 161.786 255.843 162.203V162.34C255.808 168.062 257.727 173.624 261.281 178.1H244.551V178.032C238.543 178.032 234.699 173.241 234.699 167.279V167.131C234.699 161.392 238.612 156.533 244.118 156.533C248.03 156.533 250.49 158.2 252.956 160.821L259.698 153.558C256.071 149.487 251.51 147.014 244.198 147.014C232.313 147.014 223.84 156.15 223.84 167.279V167.428C223.774 172.671 225.782 177.727 229.425 181.489C233.067 185.252 238.047 187.415 243.275 187.505V187.545H282.71C297.276 187.054 307.766 175.845 307.766 162.215V162.077C307.754 148.128 296.923 136.844 281.844 136.844ZM296.508 162.334C296.508 170.74 290.494 177.592 281.844 177.592C273.194 177.592 267.039 170.591 267.039 162.175V162.043C267.039 153.638 273.046 146.769 281.696 146.769C290.346 146.769 296.502 153.775 296.502 162.186L296.508 162.334Z" fill="#74A2CE"/>
<path d="M514.141 236.864C514.142 236.839 514.137 236.815 514.129 236.793C514.12 236.77 514.106 236.75 514.089 236.733C514.072 236.715 514.052 236.702 514.029 236.693C514.007 236.684 513.983 236.68 513.959 236.681C511.259 230.177 512.518 222.588 517.563 217.706L499.91 200.004C497.478 202.435 494.375 204.079 491.002 204.723C487.629 205.368 484.14 204.983 480.987 203.619C480.963 203.62 480.939 203.616 480.917 203.607C480.894 203.598 480.874 203.584 480.857 203.567C480.84 203.55 480.826 203.53 480.817 203.507C480.809 203.485 480.804 203.46 480.805 203.436C477.645 202.142 474.934 199.945 473.01 197.117C471.086 194.289 470.034 190.956 469.986 187.533H444.93C444.93 190.968 443.897 194.322 441.967 197.159C440.037 199.996 437.299 202.184 434.11 203.436C434.086 203.435 434.063 203.439 434.041 203.448C434.019 203.457 433.999 203.469 433.982 203.486C433.965 203.502 433.951 203.522 433.942 203.544C433.933 203.566 433.928 203.589 433.928 203.613C427.442 206.326 419.874 205.058 415.005 199.999L397.352 217.7C399.776 220.139 401.416 223.25 402.058 226.633C402.701 230.015 402.317 233.514 400.957 236.675C400.957 236.699 400.952 236.722 400.943 236.744C400.933 236.766 400.92 236.786 400.903 236.802C400.886 236.819 400.866 236.832 400.844 236.84C400.822 236.849 400.798 236.853 400.774 236.852C399.486 240.021 397.295 242.74 394.476 244.669C391.657 246.599 388.334 247.653 384.921 247.701V272.826C388.346 272.826 391.691 273.861 394.52 275.797C397.349 277.732 399.531 280.478 400.78 283.676C400.779 283.699 400.783 283.722 400.792 283.744C400.801 283.766 400.814 283.786 400.83 283.802C400.847 283.819 400.866 283.832 400.888 283.841C400.91 283.849 400.933 283.853 400.957 283.853C403.662 290.362 402.403 297.951 397.358 302.827L415.011 320.529C417.443 318.093 420.549 316.446 423.927 315.802C427.304 315.157 430.796 315.545 433.951 316.914C433.974 316.914 433.998 316.918 434.02 316.926C434.042 316.935 434.062 316.948 434.079 316.964C434.096 316.981 434.11 317.001 434.119 317.022C434.128 317.044 434.133 317.068 434.133 317.091C437.293 318.385 440.005 320.583 441.928 323.411C443.852 326.239 444.904 329.571 444.952 332.994H470.008C470.008 329.56 471.041 326.206 472.971 323.369C474.901 320.532 477.639 318.344 480.828 317.091C480.852 317.092 480.876 317.088 480.899 317.079C480.921 317.07 480.941 317.057 480.959 317.04C480.976 317.023 480.989 317.002 480.998 316.98C481.007 316.957 481.011 316.933 481.01 316.909C487.496 314.202 495.064 315.464 499.933 320.523L517.586 302.822C515.162 300.383 513.522 297.271 512.88 293.889C512.237 290.506 512.621 287.008 513.981 283.847C513.981 283.823 513.985 283.799 513.993 283.777C514.002 283.755 514.015 283.735 514.031 283.718C514.048 283.701 514.067 283.687 514.089 283.678C514.111 283.669 514.134 283.664 514.158 283.664C515.45 280.496 517.642 277.778 520.461 275.849C523.281 273.92 526.604 272.865 530.017 272.815V247.69C526.598 247.671 523.262 246.631 520.434 244.702C517.606 242.774 515.416 240.045 514.141 236.864ZM457.378 292.88C450.927 292.88 444.62 290.962 439.256 287.368C433.892 283.774 429.711 278.666 427.243 272.689C424.774 266.713 424.128 260.136 425.386 253.791C426.645 247.447 429.752 241.619 434.313 237.045C438.875 232.47 444.687 229.355 451.014 228.093C457.342 226.831 463.9 227.479 469.86 229.954C475.821 232.43 480.915 236.622 484.499 242.001C488.083 247.38 489.996 253.703 489.996 260.172C489.998 264.468 489.156 268.723 487.518 272.692C485.879 276.661 483.477 280.268 480.447 283.305C477.418 286.343 473.821 288.752 469.863 290.395C465.905 292.038 461.662 292.883 457.378 292.88Z" fill="#D93963"/>
<path d="M457.463 281.911C469.386 281.911 479.051 272.219 479.051 260.264C479.051 248.308 469.386 238.617 457.463 238.617C445.541 238.617 435.875 248.308 435.875 260.264C435.875 272.219 445.541 281.911 457.463 281.911Z" fill="#D93963"/>
</svg>
