<svg id="Layer_1" data-name="Layer 1" xmlns="http://www.w3.org/2000/svg" viewBox="0 0 530.02 332.99"><defs><style>.cls-1{fill:#ffe07f;}.cls-2{fill:#005d91;}.cls-3{fill:#252728;}.cls-4{fill:#33a79f;}.cls-5{opacity:0.4;}.cls-6{fill:#4b4f54;}.cls-7{fill:#fff;}.cls-8{fill:#009187;}.cls-9{fill:#74a2ce;}.cls-10{fill:#d93963;}</style></defs><title>Newsletter_Illustration_blue</title><path class="cls-1" d="M216.39,148l-.69-.93,3.09-10.5,1.14-.52c27.78-14.28,27.65-15.47,27.54-18.45l-2.61-23.48a5.11,5.11,0,0,0-1.7-2.82c-.65-.53-3-2.47-29.46-9.49l-1.22-.27-5.4-9.82.49-1c9-29.9,8.16-30.6,6-32.37l-18.47-15c-2.17-1.77-3.26-2.65-30.08,13.13l-.92.7L153.59,34l-.48-.75c-8.63-16.06-14-25.08-15.91-26.67a5.88,5.88,0,0,0-3.1-1.08L110.65,7.78c-3.15.32-4.33.45-11.53,30.75l-.27,1.22-9.62,5.19-1-.49c-30.28-9.8-31-8.93-32.95-6.53L40.62,56c-1.94,2.4-2.64,3.27,13.71,30.3l.69.93L52.11,97.52,51,98c-27.78,14.3-27.62,15.48-27.54,18.45L26.07,140a5.86,5.86,0,0,0,1.71,2.81c.65.53,3,2.48,29.46,9.5l1.21.27,5.41,9.81-.49,1c-9,29.89-8.16,30.6-5.77,32.55l18.48,15c2.4,1.94,3.27,2.65,30.09-13.14l.89-.69,10.7,3.26.48.75c8.63,16.06,14,25.09,15.94,26.67a5.85,5.85,0,0,0,3.1,1.08l23.42-2.24c3.15-.33,4.33-.45,11.53-30.75l.27-1.22,9.44-5,1,.49c30.28,9.8,31,8.93,32.93,6.53l14.64-18.1C231.88,176.13,232.76,175,216.39,148Zm-105.06-1.58c-16.52-13.45-19.26-37.69-6.2-53.85s37.28-18.47,53.82-5,19.25,37.69,6.2,53.84-37.28,18.49-53.8,5Z" transform="translate(0 0)"/><path class="cls-2" d="M0,217.82a73.29,73.29,0,0,1,73.26-73.46,84.18,84.18,0,0,1,14.09,1.28,62.72,62.72,0,0,1-2-15.66A61.24,61.24,0,0,1,186,83,115.54,115.54,0,0,1,296.89,0c63.78,0,115.79,51.89,115.79,116.11a94.5,94.5,0,0,1-1,14.64,80.56,80.56,0,0,1-9.74,160.53h-342C26.9,284.09,0,253,0,217.82Z" transform="translate(0 0)"/><path class="cls-3" d="M265.8,239.47,155.88,161.1H375.72Z" transform="translate(0 0)"/><path class="cls-4" d="M269.42,85.08l106.3,75.78H155.88L262.16,85.08a6.26,6.26,0,0,1,7.26,0Z" transform="translate(0 0)"/><path class="cls-4" d="M265.8,228.05l-109.92-67V291.28H375.72V161.1Z" transform="translate(0 0)"/><g class="cls-5"><path class="cls-6" d="M265.8,206l109.92,85.28H155.88Z" transform="translate(0 0)"/></g><path class="cls-7" d="M265.8,228.05l75.87-46.2V126.07a10.84,10.84,0,0,0-10.82-10.85h-128A10.84,10.84,0,0,0,192,126.07v57.06Z" transform="translate(0 0)"/><path class="cls-8" d="M273.43,226.12l102.29,65.16H155.88l102.28-65.16a14.24,14.24,0,0,1,15.27,0Z" transform="translate(0 0)"/><path class="cls-9" d="M281.84,136.84a25.66,25.66,0,0,0-22.86,13,23.2,23.2,0,0,1,2.36,2.29l1.33,1.49-1.36,1.47L255.84,161v1.38a25.17,25.17,0,0,0,5.44,15.76H244.55V178c-6,0-9.85-4.79-9.85-10.75v-.15c0-5.74,3.91-10.6,9.42-10.6,3.91,0,6.37,1.67,8.84,4.29l6.74-7.26c-3.63-4.07-8.19-6.55-15.5-6.55a20,20,0,0,0-20.36,20.27v.15a19.82,19.82,0,0,0,19.43,20.08v0h39.44c14.57-.49,25.06-11.69,25.06-25.33v-.13C307.75,148.13,296.92,136.84,281.84,136.84Zm14.67,25.49c0,8.41-6,15.26-14.67,15.26s-14.8-7-14.8-15.41V162c0-8.4,6-15.27,14.66-15.27s14.8,7,14.8,15.42Z" transform="translate(0 0)"/><path class="cls-10" d="M514.14,236.86a.2.2,0,0,0,0-.07l0-.06-.06,0H514a17.2,17.2,0,0,1,3.6-19L499.91,200A17.14,17.14,0,0,1,481,203.62h-.07a.15.15,0,0,1-.06,0,.21.21,0,0,1,0-.06.19.19,0,0,1,0-.07A17.44,17.44,0,0,1,470,187.53H444.93a17.08,17.08,0,0,1-10.82,15.91.09.09,0,0,0-.07,0l-.06,0a.1.1,0,0,0,0,0,.2.2,0,0,0,0,.07A17,17,0,0,1,415,200l-17.66,17.7a17.25,17.25,0,0,1,3.61,19,.14.14,0,0,1,0,.06.18.18,0,0,1-.1.1h-.07a17.35,17.35,0,0,1-15.85,10.85v25.13a17,17,0,0,1,15.86,10.85.13.13,0,0,0,0,.06.09.09,0,0,0,0,.06l.06,0H401a17.21,17.21,0,0,1-3.6,19L415,320.53A17.13,17.13,0,0,1,434,316.91l.07,0,.06,0,0,.06a.17.17,0,0,1,0,.07A17.43,17.43,0,0,1,445,333H470a17.08,17.08,0,0,1,10.82-15.9h.07l.06,0,0-.06a.17.17,0,0,0,0-.07,17.07,17.07,0,0,1,18.92,3.61l17.66-17.7a17.24,17.24,0,0,1-3.61-19,.15.15,0,0,1,0-.07l0-.06.06,0,.07,0a17.46,17.46,0,0,1,6.3-7.81,17.28,17.28,0,0,1,9.56-3V247.69a17.21,17.21,0,0,1-15.88-10.83Zm-56.76,56a32.61,32.61,0,1,1,12.48-2.49A32.57,32.57,0,0,1,457.38,292.88Z" transform="translate(0 0)"/><path class="cls-10" d="M457.46,281.91a21.65,21.65,0,1,0-21.58-21.65A21.61,21.61,0,0,0,457.46,281.91Z" transform="translate(0 0)"/></svg>