<?xml version="1.0" encoding="utf-8"?>
<!-- Generator: Adobe Illustrator 25.0.0, SVG Export Plug-In . SVG Version: 6.00 Build 0)  -->
<svg version="1.1" id="Layer_1" xmlns="http://www.w3.org/2000/svg" xmlns:xlink="http://www.w3.org/1999/xlink" x="0px" y="0px"
	 viewBox="0 0 895.256 693.411" enable-background="new 0 0 895.256 693.411" xml:space="preserve">
<g>
	<path fill="#FFE07F" d="M370.447,117.093l-1.767,0.72l-1.603,0.627l-3.141,1.188c-2.082,0.778-4.147,1.518-6.214,2.249
		c-4.13,1.455-8.255,2.831-12.388,4.157c-8.264,2.651-16.564,5.067-24.914,7.283c-16.694,4.43-33.584,8.049-50.666,10.685
		c-17.077,2.629-34.345,4.286-51.7,4.63c-17.355,0.28-34.811-0.732-52.032-3.686c-17.194-3.019-34.182-7.9-50.017-15.405
		c-7.905-3.757-15.507-8.13-22.667-13.097c-1.764-1.284-3.579-2.481-5.286-3.833l-5.106-4.05l-4.883-4.3
		c-0.824-0.701-1.601-1.455-2.368-2.22l-2.313-2.273c-0.763-0.764-1.553-1.499-2.291-2.286l-2.183-2.389
		c-1.443-1.601-2.94-3.144-4.266-4.841c-1.354-1.669-2.737-3.309-4.057-4.995l-3.792-5.179c-0.646-0.85-1.237-1.739-1.813-2.638
		l-1.749-2.677l-1.743-2.673c-0.558-0.905-1.076-1.835-1.614-2.751c-1.054-1.845-2.159-3.654-3.163-5.519l-2.898-5.646
		c-3.69-7.599-6.988-15.349-9.6-23.31c-2.777-7.899-4.828-16.006-6.749-24.091c2.803,7.836,5.713,15.61,9.3,23.064
		c3.423,7.52,7.478,14.711,11.838,21.633l3.383,5.114c1.159,1.68,2.411,3.293,3.607,4.939c0.609,0.815,1.197,1.644,1.821,2.445
		l1.938,2.353l1.933,2.348c0.635,0.789,1.284,1.565,1.984,2.298l4.096,4.466c1.411,1.441,2.875,2.828,4.304,4.241
		c1.4,1.441,2.959,2.72,4.455,4.052l2.256,1.982c0.759,0.651,1.568,1.247,2.348,1.872l2.354,1.852
		c0.778,0.624,1.564,1.236,2.394,1.793l4.888,3.431l5.051,3.166c1.678,1.055,3.457,1.955,5.171,2.938
		c6.968,3.769,14.226,6.933,21.676,9.514c14.921,5.146,30.596,7.821,46.354,8.826c15.789,0.937,31.701,0.107,47.48-1.899
		c15.787-2.069,31.451-5.338,46.893-9.499c15.442-4.166,30.67-9.236,45.59-15.02c7.458-2.892,14.845-5.96,22.109-9.212
		c3.631-1.625,7.237-3.29,10.786-5.001c1.771-0.857,3.538-1.72,5.265-2.595l2.565-1.312l1.237-0.65
		c0.38-0.204,0.857-0.455,1.062-0.583L370.447,117.093z"/>
</g>
<g>
	<circle fill="#A1D3EF" cx="425.866" cy="346.705" r="346.705"/>
</g>
<g>
	<path fill="#009187" d="M27.466,441.094C57.762,233.429,130.051,21.135,259.993,21.135c133.981,0,283.754,351.886,346.204,489.914
		H130.051L27.466,441.094z"/>
</g>
<g>
	<defs>
		<circle id="SVGID_423_" cx="425.866" cy="346.705" r="346.705"/>
	</defs>
	<clipPath id="SVGID_4_">
		<use xlink:href="#SVGID_423_"  overflow="visible"/>
	</clipPath>
</g>
<g>
	<path fill="#FFE07F" d="M367.559,84.354c1.011-5.725,1.037-11.652-0.502-17.142c-1.51-5.488-4.645-10.39-8.841-14.024
		c-4.175-3.678-9.291-6.146-14.619-7.67c-5.347-1.522-10.946-2.105-16.508-1.995c-11.148,0.232-22.146,3.208-32.072,8.029
		c-9.938,4.844-18.832,11.603-26.097,19.704c-7.284,8.096-12.935,17.51-16.86,27.574c-3.942,10.068-6.192,20.768-7.049,31.608
		c-0.432,5.423-0.526,10.885-0.321,16.352c0.085,2.725,0.29,5.485,0.512,8.184c0.205,2.629,0.545,5.239,0.964,7.829
		c1.685,10.361,5.111,20.327,9.975,29.553c9.75,18.493,25.223,33.819,43.111,45.264c17.925,11.458,38.331,19.231,59.109,22.909
		c10.388,1.832,20.884,2.623,31.156,2.233c10.266-0.389,20.317-1.96,29.636-4.86c9.326-2.877,17.878-7.108,25.123-12.562
		c7.268-5.441,13.164-12.135,17.646-19.773l36.101,23.361c-8.17,11.906-18.824,22.23-30.812,29.891
		c-11.977,7.716-25.09,12.902-38.26,15.967c-13.193,3.086-26.478,4.135-39.483,3.72c-13.014-0.424-25.777-2.322-38.142-5.403
		c-12.365-3.088-24.347-7.355-35.796-12.721c-11.45-5.358-22.373-11.82-32.537-19.371c-10.158-7.55-19.556-16.216-27.769-25.988
		c-8.209-9.763-15.206-20.669-20.409-32.443c-5.195-11.767-8.552-24.389-9.717-37.144c-0.291-3.187-0.477-6.379-0.504-9.566
		c0-3.116,0.057-6.177,0.226-9.273c0.312-6.173,0.96-12.349,1.995-18.475c2.06-12.244,5.722-24.328,11.288-35.527
		c5.542-11.197,13.023-21.462,22.116-29.932c9.074-8.484,19.726-15.153,31.167-19.535c11.437-4.359,23.704-6.529,35.861-5.72
		c6.065,0.413,12.106,1.583,17.808,3.76c5.679,2.176,11.062,5.384,15.281,9.814c4.249,4.383,7.144,10.011,8.211,15.883
		C369.647,72.751,369.062,78.741,367.559,84.354z"/>
</g>
<g>
	<path fill="#006D65" d="M140.041,543.027L31.977,413.194c8.315-61.781,89.017-175.033,172.99-114.703
		c142.676,102.505,272.364-187.88,410.463-133.074s221.352,188.128,104.75,364.635c-9.914,15.007-9.914,15.007-9.914,15.007
		L140.041,543.027z"/>
</g>
<g>
	<path fill="#FFE07F" d="M469.588,450.676c-0.047,0.02,0.015,0.002,0.062-0.011l0.156-0.044l0.363-0.108l0.79-0.244l1.661-0.538
		c1.125-0.374,2.271-0.766,3.423-1.176c2.303-0.817,4.626-1.687,6.945-2.594c4.641-1.813,9.269-3.78,13.853-5.862
		c9.167-4.176,18.168-8.815,26.88-13.917c17.421-10.204,33.795-22.188,48.149-36.138c14.381-13.911,26.667-29.86,35.825-47.544
		c2.27-4.428,4.35-8.955,6.241-13.571c1.877-4.612,3.51-9.365,4.973-14.113c2.833-9.375,4.472-19.051,4.735-28.784
		c0.263-9.73-0.897-19.514-3.504-29c-2.608-9.484-6.667-18.651-11.938-27.186c-10.575-17.061-25.949-31.542-43.921-41.644
		c-8.991-5.035-18.648-9.008-28.707-11.456c-10.041-2.439-20.527-3.388-30.796-2.01c-10.242,1.341-20.26,5.24-28.336,11.97
		c-4.028,3.354-7.544,7.366-10.434,11.828c-2.896,4.461-5.166,9.355-6.885,14.451c1.29-5.219,3.156-10.335,5.73-15.133
		c2.567-4.796,5.853-9.26,9.787-13.133c3.938-3.867,8.512-7.125,13.464-9.671c4.951-2.556,10.275-4.388,15.726-5.591
		c10.927-2.404,22.292-2.324,33.309-0.602c11.039,1.731,21.789,5.134,31.982,9.774c20.359,9.325,38.655,23.695,52.372,42.149
		c6.829,9.23,12.471,19.487,16.501,30.457c4.032,10.964,6.433,22.616,7.1,34.378c0.674,11.764-0.336,23.616-2.775,35.077
		c-1.229,5.657-2.64,11.222-4.36,16.741c-1.729,5.505-3.694,10.944-5.894,16.293c-8.872,21.377-21.603,41.089-36.738,58.409
		c-15.123,17.382-32.538,32.496-51.195,45.639c-9.338,6.575-19.013,12.641-28.992,18.239c-4.995,2.795-10.064,5.472-15.249,8.019
		c-2.593,1.275-5.213,2.517-7.887,3.728c-1.336,0.606-2.689,1.202-4.071,1.795l-2.11,0.887l-1.103,0.448l-1.318,0.509
		L469.588,450.676z"/>
</g>
<g>
	<path fill="#051917" d="M118.242,506.659c14.325-107.892,128.48-215.922,184.788-140.839
		c48.704,64.944,67.031,103.097,118.358,64.944s193.049-19.071,219.269,76.887L118.242,506.659z"/>
</g>
<g>
	<path fill="#003028" d="M234.139,506.622l82.939,0.47c0.759-21.197-11.368-82.296-47.321-115.591
		c-35.132-32.535,22.489-102.919-48.242-145.598c-41.999-25.342-80.98-114.976-103.273-84.768
		c-20.03,27.14,10.05,41.99,2.408,123.993c-7.941,85.206,49.3,61.577,46.865,157.911
		C165.908,506.567,234.139,506.622,234.139,506.622z"/>
</g>
<g>
	<defs>
		<path id="SVGID_425_" d="M234.139,506.622l82.939,0.47c0.759-21.197-11.368-82.296-47.321-115.591
			c-35.132-32.535,22.489-102.919-48.242-145.598c-41.999-25.342-80.98-114.976-103.273-84.768
			c-20.03,27.14,10.05,41.99,2.408,123.993c-7.941,85.206,49.3,61.577,46.865,157.911
			C165.908,506.567,234.139,506.622,234.139,506.622z"/>
	</defs>
	<clipPath id="SVGID_6_">
		<use xlink:href="#SVGID_425_"  overflow="visible"/>
	</clipPath>
	<g clip-path="url(#SVGID_6_)">
		<path fill="#314943" d="M272.631,505.279c-16.601-103.852-154.744-353.042-156.138-355.548l3.496-1.944
			c1.396,2.511,139.88,252.317,156.591,356.861L272.631,505.279z"/>
	</g>
</g>
<g>
	<g>
		<path fill="#051917" d="M236.078,504.962l-3.42-0.416c1.645-13.536-0.861-43.357-8.832-74.163
			c-9-34.784-21.997-59.877-36.598-70.656l2.047-2.771C223.621,382.313,239.85,473.908,236.078,504.962z"/>
	</g>
	<g>
		<path fill="#051917" d="M191.206,362.912c2.506-9.612-0.539-17.51-4.781-14.426C182.184,351.57,191.206,362.912,191.206,362.912z"
			/>
	</g>
	<g>
		<path fill="#051917" d="M177.391,355.507c1.887-3.59,14.761,4.925,14.761,4.925S173.322,363.248,177.391,355.507z"/>
	</g>
	<g>
		<path fill="#051917" d="M199.023,369.339c0,0,9.358-13.237,2.51-15.198C197.667,353.034,194.19,361.031,199.023,369.339z"/>
	</g>
	<g>
		<path fill="#051917" d="M199.395,368.854c-4.796-4.249-15.813-7.995-17-3.408C181.209,370.033,199.395,368.854,199.395,368.854z"
			/>
	</g>
	<g>
		<path fill="#051917" d="M210.582,388.092c3.353-8.467,8.762-18.985,3.291-26.098c-5.471-7.114-10.273,6.94-5.163,22.591
			L210.582,388.092z"/>
	</g>
	<g>
		<path fill="#051917" d="M209.431,385.934c-5.542,0.386-29.691-2.764-27.516-10.88c2.176-8.115,19.678,3.059,24.85,4.888
			L209.431,385.934z"/>
	</g>
	<g>
		<path fill="#051917" d="M220.604,413.194c5.338-4.636,15.573-28.021,7.256-33.85c-8.317-5.829-10.506,24.58-10.506,24.58
			L220.604,413.194z"/>
	</g>
	<g>
		<path fill="#051917" d="M217.453,406.28c0,0-20.36-24.512-33.704-17.803c-9.923,4.99,19.014,21.015,36.256,23.009L217.453,406.28z
			"/>
	</g>
	<g>
		<path fill="#051917" d="M228.156,441.094c5.408-6.464,19.912-30.074,10.461-34.387c-9.45-4.314-12.297,26.519-12.297,26.519
			L228.156,441.094z"/>
	</g>
	<g>
		<path fill="#051917" d="M225.822,431.235c0,0-15.094-22.494-25.147-17.297c-10.053,5.197,27.106,25.547,27.106,25.547
			L225.822,431.235z"/>
	</g>
	<g>
		<path fill="#051917" d="M232.196,463.063c0,0,0.254-25.549,9.721-25.778s3.088,29.329-8.569,34.444L232.196,463.063z"/>
	</g>
	<g>
		<path fill="#051917" d="M231.424,464.975c0,0-4.456-18.997-16.274-18.444c-10.399,0.486,9.5,23.948,16.959,23.432L231.424,464.975
			z"/>
	</g>
	<g>
		<path fill="#051917" d="M234.295,498.419c3.505-11.683,10.886-38.67,21.893-36.901c11.007,1.769-3.548,37.97-22.197,44.362
			L234.295,498.419z"/>
	</g>
	<g>
		<path fill="#051917" d="M234.509,497.28c-3.831-8.442-12.166-27.697-24.031-26.688c-11.865,1.009-0.037,25.589,23.514,35.288
			L234.509,497.28z"/>
	</g>
</g>
<g>
	<g>
		<path fill="#003028" d="M378.33,505.365c-138.972-153.652-86.669-292.378-31.754-141.974
			C381.294,458.479,378.33,505.365,378.33,505.365z"/>
	</g>
	<g>
		<path fill="#003028" d="M378.302,505.352c-66.599-196.181,36.454-302.766,27.184-142.919
			C399.626,463.491,378.302,505.352,378.302,505.352z"/>
	</g>
	<g>
		<path fill="#003028" d="M378.294,505.348c30.669-204.895,171.099-252.431,89.634-114.589
			C416.424,477.906,378.294,505.348,378.294,505.348z"/>
	</g>
</g>
<g>
	<g>
		<g>
			<path fill="#809852" d="M314.824,507.675l-4.041-0.124c1.592-51.816-31.123-99.272-31.454-99.745l3.314-2.315
				C282.981,405.975,316.456,454.535,314.824,507.675z"/>
		</g>
	</g>
	<g>
		<path fill="#D93963" d="M281.526,390.173l4.415-5.999c1.375-1.868,4.334-0.976,4.448,1.341l0.364,7.44
			c0.071,1.459,1.389,2.536,2.833,2.317l7.364-1.12c2.293-0.349,3.755,2.374,2.197,4.093l-5.003,5.518
			c-0.981,1.082-0.811,2.776,0.365,3.641l5.999,4.415c1.868,1.375,0.976,4.334-1.341,4.448l-7.44,0.364
			c-1.459,0.071-2.536,1.389-2.317,2.833l1.12,7.364c0.349,2.293-2.374,3.755-4.093,2.197l-5.518-5.003
			c-1.082-0.981-2.776-0.811-3.641,0.365l-4.415,5.999c-1.375,1.868-4.334,0.976-4.448-1.341l-0.364-7.44
			c-0.071-1.459-1.389-2.536-2.833-2.317l-7.364,1.12c-2.293,0.349-3.755-2.374-2.197-4.093l5.003-5.518
			c0.981-1.082,0.811-2.776-0.365-3.641l-5.999-4.415c-1.868-1.375-0.976-4.334,1.341-4.448l7.44-0.364
			c1.459-0.071,2.536-1.389,2.317-2.833l-1.12-7.364c-0.349-2.293,2.374-3.755,4.093-2.197l5.518,5.003
			C278.967,391.519,280.66,391.349,281.526,390.173z"/>
	</g>
	<g>
		<g>
			<path fill="#809852" d="M312.146,507.675c-1.246-40.593,23.517-76.528,24.571-78.037l3.314,2.314
				c-0.251,0.359-25.05,36.374-23.845,75.599L312.146,507.675z"/>
		</g>
	</g>
	<g>
		<path fill="#D93963" d="M337.963,418.26l-3.359-4.564c-1.046-1.422-3.298-0.743-3.384,1.02l-0.277,5.66
			c-0.054,1.11-1.057,1.93-2.156,1.763l-5.603-0.852c-1.745-0.265-2.857,1.807-1.672,3.114l3.807,4.198
			c0.747,0.823,0.617,2.112-0.278,2.771l-4.564,3.359c-1.422,1.046-0.743,3.298,1.02,3.384l5.66,0.277
			c1.11,0.054,1.93,1.057,1.763,2.155l-0.852,5.603c-0.265,1.745,1.807,2.857,3.114,1.672l4.198-3.807
			c0.823-0.747,2.112-0.617,2.77,0.278l3.359,4.564c1.046,1.422,3.298,0.743,3.384-1.02l0.277-5.66
			c0.054-1.11,1.057-1.93,2.156-1.763l5.603,0.852c1.745,0.265,2.857-1.807,1.672-3.114l-3.807-4.198
			c-0.747-0.823-0.617-2.112,0.278-2.771l4.564-3.359c1.422-1.046,0.743-3.298-1.02-3.384l-5.66-0.277
			c-1.11-0.054-1.93-1.057-1.763-2.155l0.852-5.603c0.265-1.745-1.807-2.857-3.114-1.672l-4.198,3.807
			C339.91,419.284,338.622,419.155,337.963,418.26z"/>
	</g>
</g>
<g>
	<path fill="#004741" d="M713.36,540.552c-62.305,92.224-167.819,152.859-287.494,152.859
		c-118.617,0-223.322-59.568-285.832-150.422v-38.026H713.36V540.552z"/>
</g>
<g>
	<defs>
		<path id="SVGID_427_" d="M713.36,540.552c-62.305,92.224-167.819,152.859-287.494,152.859
			c-118.617,0-223.322-59.568-285.832-150.422v-38.026h93.957H713.36V540.552z"/>
	</defs>
	<clipPath id="SVGID_8_">
		<use xlink:href="#SVGID_427_"  overflow="visible"/>
	</clipPath>
</g>
<g>
	<defs>
		<path id="SVGID_429_" d="M713.36,540.552c-62.305,92.224-167.819,152.859-287.494,152.859
			c-118.617,0-223.322-59.568-285.832-150.422v-38.026h93.957H713.36V540.552z"/>
	</defs>
	<clipPath id="SVGID_9_">
		<use xlink:href="#SVGID_429_"  overflow="visible"/>
	</clipPath>
	<g clip-path="url(#SVGID_9_)">
		<path fill="#62B5E5" d="M154.483,504.754c-3.187,8.446-18.111,23.519-14.442,38.273c0,0,78.051,182.65,365.098,146.771
			C652.131,671.424,678.1,747.692,678.1,747.692c7.644-141.1-256.674-122.797-297.182-162.766
			c-44.384-43.794,54.881-79.962,54.881-79.962L154.483,504.754z"/>
	</g>
</g>
<g>
	<path fill="#66BDB7" d="M126.563,466.595c-4.048-14.024-9.299-29.98-16.117-47.887C71.413,316.194,35.9,368.131,80.941,459.185
		c-5.329-5.912-11.101-12.088-17.366-18.526c-98.086-100.788-90.131,29.169,76.456,102.347c0.002,0.002,0.004,0.005,0.007,0.007
		c0.001,0.004,0.002,0.009,0.003,0.013c0,0,0.002-0.005,0.003-0.006c0.002,0.002,0.003,0.004,0.005,0.006c0,0,0-0.009,0-0.011
		c0.009,0.004,0.017,0.008,0.026,0.011c0,0-0.005-0.014-0.014-0.037c0.709-1.245,20.847-37.23,30.613-124.032
		C183.9,301.409,118.489,345.392,126.563,466.595z"/>
</g>
<g>
	<g>
		<path fill="#051917" d="M586.078,497.376l-6.227-1.199c4.746-24.646,3.949-79.726-6.757-137.312
			c-12.089-65.021-32.754-112.757-58.189-134.413l4.111-4.828c35.808,30.488,53.157,99.599,60.312,138.082
			C589.06,410.046,591.836,467.48,586.078,497.376z"/>
	</g>
	<g>
		<path fill="#051917" d="M521.803,230.807c5.827-17.331,1.244-32.222-6.939-27.1C506.683,208.829,521.803,230.807,521.803,230.807z
			"/>
	</g>
	<g>
		<path fill="#051917" d="M497.38,215.448c3.923-6.352,26.477,10.928,26.477,10.928S488.921,229.143,497.38,215.448z"/>
	</g>
	<g>
		<path fill="#051917" d="M535.338,243.607c0,0,18.872-23.113,6.548-27.588C534.928,213.493,527.522,227.734,535.338,243.607z"/>
	</g>
	<g>
		<path fill="#051917" d="M536.082,242.763c-8.264-8.414-28.017-16.698-30.782-8.427
			C502.537,242.608,536.082,242.763,536.082,242.763z"/>
	</g>
	<g>
		<path fill="#051917" d="M554.172,279.517c7.236-15.121,18.512-33.744,9.373-47.504c-9.138-13.761-19.75,11.432-12.362,40.826
			L554.172,279.517z"/>
	</g>
	<g>
		<path fill="#051917" d="M552.333,275.409c-10.225,0.001-54.169-8.864-49.138-23.489s35.744,8.128,45.009,12.146L552.333,275.409z"
			/>
	</g>
	<g>
		<path fill="#051917" d="M569.372,326.89c10.393-7.832,32.171-49.468,17.642-61.234c-14.529-11.765-22.428,43.796-22.428,43.796
			L569.372,326.89z"/>
	</g>
	<g>
		<path fill="#051917" d="M564.468,313.792c0,0-34.259-47.609-59.619-36.991c-18.859,7.896,32.235,41.015,63.641,46.877
			L564.468,313.792z"/>
	</g>
	<g>
		<path fill="#051917" d="M579.68,379.086c10.756-11.18,40.4-52.684,23.597-61.811s-25.964,47.128-25.964,47.128L579.68,379.086z"/>
	</g>
	<g>
		<path fill="#051917" d="M576.652,360.685c0,0-24.848-43.231-43.971-34.971s46.516,50.369,46.516,50.369L576.652,360.685z"/>
	</g>
	<g>
		<path fill="#051917" d="M584.295,419.943c0,0,3.725-46.884,21.138-46.095c17.413,0.789,1.929,54.25-20.13,62.156L584.295,419.943z
			"/>
	</g>
	<g>
		<path fill="#051917" d="M582.635,423.355c0,0-5.759-35.452-27.531-35.946c-19.157-0.434,14.389,45.188,28.153,45.192
			L582.635,423.355z"/>
	</g>
	<g>
		<path fill="#051917" d="M583.639,485.135c7.927-21.007,24.923-69.621,44.909-64.969c19.986,4.652-11.36,69.271-46.419,78.629
			L583.639,485.135z"/>
	</g>
	<g>
		<path fill="#051917" d="M584.177,483.071c-5.958-15.991-18.808-52.412-40.723-52.073c-21.916,0.339-3.332,46.985,38.676,67.798
			L584.177,483.071z"/>
	</g>
</g>
<g>
	<path fill="#051917" d="M603.031,290.559c39.506-85.414-9.988-132.261,26.48-176.021c26.932-32.319,47.952,23.647,44.365,68.28
		c-6.926,86.184,34.528,90.191,26.063,156.368c-8.464,66.177,90.427,110.847-59.283,168.466
		C640.656,507.651,534.662,438.377,603.031,290.559z"/>
</g>
<g>
	<g>
		<g>
			<g>
				<path fill="#FFFFFF" d="M448.008,305.789l18.917,5.166l-1.607-22.678c-0.162-2.279-3.103-3.083-4.401-1.202L448.008,305.789z"/>
			</g>
			<g>
				<path fill="#005D90" d="M616.294,403.358c-22.438-19.417,23.1-93.765,67.095-60.196c30.156,23.009,36.3,91.563,62.434,72.574
					c0,0-36.001,48.962-81.927-24.311C639.941,353.208,616.294,403.358,616.294,403.358z"/>
			</g>
			<g>
				<path fill="#FFFFFF" d="M502.931,372.714c22.632-1.902,51.726,1.443,91.078-2.233c33.912-3.167,65.134,45.593,13.248,72.64
					s-146.294-1.28-138.974-59.058"/>
			</g>
			<g>
				<path fill="#005D90" d="M471.801,305.598c13.785-18.15,85.967-5.78,75.459,60.802c-10.795,68.404-107.594,36.564-84.53,0.209
					c0,0,2.901,18.758,25.871,14.555c22.541-4.124,10.844-32.271-4.917-45.631C467.088,321.464,471.801,305.598,471.801,305.598z"/>
			</g>
			<g>
				<path fill="#FFFFFF" d="M480.839,312.253c0,0,24.027,12.012,19.509,60.084l-31.891,21.658l0.784-47.671L480.839,312.253z"/>
			</g>
			<g>
				<path fill="#005D90" d="M459.3,375.481c-0.717,11.416,7.955,21.252,19.371,21.97c11.416,0.718,21.252-7.955,21.97-19.371
					c0.718-11.416-7.955-21.252-19.371-21.97C469.854,355.391,460.018,364.064,459.3,375.481z"/>
			</g>
			<g>
				<circle fill="#FFFFFF" cx="465.285" cy="325.968" r="20.738"/>
			</g>
			<g>
				<path fill="#FFFFFF" d="M417.512,337.984c4.713,5.345,12.867,5.858,18.212,1.145c5.345-4.713,5.858-12.867,1.145-18.212
					c-4.713-5.345-12.867-5.858-18.212-1.145S412.799,332.639,417.512,337.984z"/>
			</g>
			<g>
				<polygon fill="#FFFFFF" points="454.306,343.566 434.113,333.352 424.691,316.789 457.847,306.605 				"/>
			</g>
			<g>
				<path fill="#F9DE8B" d="M451.987,310.015l13.593-9.162l-30.332-32.599c-1.004-0.971-2.621,0.119-2.098,1.414L451.987,310.015z"
					/>
			</g>
			<g>
				<path fill="#005D90" d="M471.839,305.004c0,0-12.052-21.482-26.071-3.24c-5.992,7.797-8.651,2.933-8.651,2.933
					s-2.593,3.932-0.587,7.316c2.006,3.384,7.478,7.986,19.973-2.361C460.256,306.542,471.839,305.004,471.839,305.004z"/>
			</g>
			<g>
				<path fill="#4C4F54" d="M421.399,328.121c-0.121,1.925,0.682,3.541,1.795,3.611s2.112-1.434,2.233-3.358
					c0.121-1.925-0.682-3.541-1.795-3.611C422.519,324.693,421.52,326.196,421.399,328.121z"/>
			</g>
			<g>
				<path fill="#4C4F54" d="M456.413,320.5c-0.159,2.535,1.766,4.718,4.301,4.878c2.535,0.159,4.718-1.766,4.878-4.3
					c0.159-2.535-1.766-4.718-4.301-4.878C458.757,316.039,456.573,317.965,456.413,320.5z"/>
			</g>
			<g>
				<path fill="#FFFFFF" d="M461.958,312.041l18.46,6.616l0.156-22.735c0.015-2.285-2.855-3.314-4.294-1.539L461.958,312.041z"/>
			</g>
			<g>
				<path fill="#FFFFFF" d="M486.964,507.651h12.086c2.308,0,4.179-1.871,4.179-4.179v-90.719c0-2.308-1.871-4.179-4.179-4.179
					h-12.086c-2.308,0-4.179,1.871-4.179,4.179v90.719C482.784,505.78,484.656,507.651,486.964,507.651z"/>
			</g>
			<g>
				<path fill="#FFFFFF" d="M516.8,507.651h12.086c2.308,0,4.179-1.871,4.179-4.179v-90.719c0-2.308-1.871-4.179-4.179-4.179H516.8
					c-2.308,0-4.178,1.871-4.178,4.179v90.719C512.622,505.78,514.492,507.651,516.8,507.651z"/>
			</g>
			<g>
				<path fill="#FFFFFF" d="M575.139,507.651h12.086c2.308,0,4.178-1.871,4.178-4.179v-90.719c0-2.308-1.871-4.179-4.178-4.179
					h-12.086c-2.308,0-4.179,1.871-4.179,4.179v90.719C570.96,505.78,572.831,507.651,575.139,507.651z"/>
			</g>
			<g>
				<path fill="#FFFFFF" d="M604.976,507.651h12.086c2.308,0,4.178-1.871,4.178-4.179v-90.719c0-2.308-1.871-4.179-4.178-4.179
					h-12.086c-2.308,0-4.178,1.871-4.178,4.179v90.719C600.797,505.78,602.668,507.651,604.976,507.651z"/>
			</g>
		</g>
	</g>
	<g>
		<path fill="#C0E1F5" d="M476.496,330.997c0,1.905-1.544,3.449-3.449,3.449c-1.905,0-3.449-1.544-3.449-3.449
			c0-4.336,3.449-8.886,3.449-8.886S476.496,327.056,476.496,330.997z"/>
	</g>
	<g>
		<path fill="#4C4F54" d="M470.448,319.53c-0.052,0-0.104-0.006-0.156-0.019c-5.656-1.36-6.415-5.828-6.444-6.017
			c-0.057-0.363,0.191-0.703,0.555-0.76c0.371-0.056,0.702,0.19,0.76,0.552l0,0c0.025,0.154,0.679,3.787,5.44,4.931
			c0.357,0.086,0.577,0.445,0.491,0.802C471.02,319.325,470.748,319.53,470.448,319.53z"/>
	</g>
</g>
<g>
	<path fill="#003028" d="M636.473,542.986c0,0-101.232-64.25-19.198-140.219c42.792-39.627-27.391-125.356,58.76-177.34
		C727.189,194.56,776.165,7.242,819.964,79.415c20.656,34.038,22.546,130.565-11.581,224.895
		c-9.459,26.145-30.112,36.504-57.534,98.858c-9.253,21.04-29.195,75.245-32.293,92.383
		C704.787,571.719,703.213,526.318,636.473,542.986z"/>
</g>
<g>
	<path fill="#003028" d="M724.209,238.502c61.807,69.05,76.221,170.072-4.028,291.55c-9.914,15.007-9.914,15.007-9.914,15.007"/>
</g>
<g>
	<defs>
		<path id="SVGID_431_" d="M636.473,542.986c0,0-101.232-64.25-19.198-140.219c42.792-39.627-27.391-125.356,58.76-177.34
			C727.189,194.56,776.165,7.242,819.964,79.415c20.656,34.038,22.546,130.565-11.581,224.895
			c-9.459,26.145-30.112,36.504-57.534,98.858c-9.253,21.04-29.195,75.245-32.293,92.383
			C704.787,571.719,703.213,526.318,636.473,542.986z"/>
	</defs>
	<clipPath id="SVGID_10_">
		<use xlink:href="#SVGID_431_"  overflow="visible"/>
	</clipPath>
	<g clip-path="url(#SVGID_10_)">
		<path fill="#314943" d="M638.334,546.354l-3.723-1.465c12.841-32.62,28.064-69.078,44.183-107.676
			C738.006,295.414,805.12,134.696,805.12,46.479h4c0,89.019-67.277,250.13-126.635,392.276
			C666.375,477.333,651.158,513.773,638.334,546.354z"/>
	</g>
</g>
<g>
	<path fill="#009187" d="M712.648,516.389c-34.548-48.407-47.542-63.823-83.864-62.937c-39.568,0.965-83.455,73.355-91.67,92.169
		l173.153-0.59"/>
</g>
<g>
	<g>
		<path fill="#051917" d="M713.711,542.701l-7.607-0.491c2.356-36.528,22.982-102.514,50.158-160.464
			c19.981-42.608,61.101-117.765,111.999-142.393l3.32,6.863c-36.153,17.493-74.656,66.774-108.417,138.767
			C740.532,433.244,716.278,502.916,713.711,542.701z"/>
	</g>
	<g>
		<path fill="#051917" d="M861.63,251.52c-1.531-21.93,8.313-37.867,16.282-29.43C885.88,230.528,861.63,251.52,861.63,251.52z"/>
	</g>
	<g>
		<path fill="#051917" d="M894.699,241.048c-2.641-8.579-34.116,4.695-34.116,4.695S900.393,259.544,894.699,241.048z"/>
	</g>
	<g>
		<path fill="#051917" d="M842.005,262.314c0,0-14.958-32.608,0.737-34.082C851.603,227.399,855.906,246.213,842.005,262.314z"/>
	</g>
	<g>
		<path fill="#051917" d="M841.394,261.107c12.164-7.286,37.656-10.942,38.367-0.481
			C880.472,271.087,841.394,261.107,841.394,261.107z"/>
	</g>
	<g>
		<path fill="#051917" d="M809.215,298.391c-3.84-19.785-11.318-44.868,3.483-58.111c14.801-13.243,19.517,19.284,2.018,51.246
			L809.215,298.391z"/>
	</g>
	<g>
		<path fill="#051917" d="M812.598,294.168c11.897,3.098,65.711,6.094,64.288-12.446s-44.051-1.37-56.047,0.5L812.598,294.168z"/>
	</g>
	<g>
		<path fill="#051917" d="M777.18,348.907c-9.72-12.26-22.448-67.302-1.98-76.59s12.83,57.751,12.83,57.751L777.18,348.907z"/>
	</g>
	<g>
		<path fill="#051917" d="M786.853,335.152c0,0,54.282-45.018,80.572-24.982c19.551,14.9-49.929,37.959-88.246,35.266
			L786.853,335.152z"/>
	</g>
	<g>
		<path fill="#051917" d="M749.376,406.515c-9.129-16.266-31.049-73.536-8.734-79.065s15.935,62.698,15.935,62.698L749.376,406.515z
			"/>
	</g>
	<g>
		<path fill="#051917" d="M758.474,386.023c0,0,42.005-42.774,61.753-27.371c19.748,15.403-69.378,44.516-69.378,44.516
			L758.474,386.023z"/>
	</g>
	<g>
		<path fill="#051917" d="M731.632,452.655c0,0,9.866-55.678-10.633-60.035c-20.5-4.357-18.676,62.536,4.595,78.417L731.632,452.655
			z"/>
	</g>
	<g>
		<path fill="#051917" d="M732.53,457.128c0,0,17.439-39.505,42.921-33.484c22.421,5.297-30.429,48.218-46.444,44.054
			L732.53,457.128z"/>
	</g>
	<g>
		<path fill="#051917" d="M712.648,528.706c-2.86-26.843-7.911-88.554-32.575-89.195c-24.663-0.641-7.764,84.039,30.194,105.546
			L712.648,528.706z"/>
	</g>
	<g>
		<path fill="#051917" d="M712.648,526.142c11.776-16.801,37.758-55.286,63.155-48.253s-10.354,55.677-65.536,67.17L712.648,526.142
			z"/>
	</g>
</g>
<g>
	<polygon fill="#FFFFFF" points="516.961,107.232 524.561,104.932 522.361,112.632 524.561,120.232 516.961,118.032 
		509.361,120.232 511.561,112.632 509.361,104.932 	"/>
</g>
<g>
	<polygon fill="#FFFFFF" points="446.67,56.421 458.762,62.997 446.741,69.644 440.094,81.665 433.518,69.573 421.426,62.997 
		433.518,56.421 440.094,44.329 	"/>
</g>
<g>
	<g>
		<path fill="#809852" d="M610.437,566.181l-3.797-0.117c1.494-48.653-29.247-93.284-29.559-93.729l3.114-2.175
			C580.514,470.614,611.971,516.245,610.437,566.181z"/>
	</g>
</g>
<g>
	<path fill="#D93963" d="M579.147,455.765l4.148-5.637c1.292-1.756,4.073-0.917,4.18,1.26l0.342,6.991
		c0.067,1.371,1.305,2.383,2.662,2.177l6.92-1.053c2.155-0.328,3.529,2.231,2.065,3.846l-4.701,5.185
		c-0.922,1.017-0.762,2.608,0.343,3.422l5.637,4.149c1.756,1.292,0.917,4.073-1.26,4.18l-6.991,0.342
		c-1.371,0.067-2.383,1.305-2.177,2.662l1.053,6.92c0.328,2.155-2.231,3.529-3.846,2.065l-5.185-4.701
		c-1.017-0.922-2.608-0.762-3.422,0.343l-4.148,5.637c-1.292,1.756-4.073,0.917-4.18-1.26l-0.342-6.991
		c-0.067-1.371-1.305-2.383-2.662-2.177l-6.92,1.053c-2.155,0.328-3.529-2.231-2.065-3.846l4.701-5.185
		c0.922-1.017,0.762-2.608-0.343-3.422l-5.637-4.149c-1.756-1.292-0.917-4.073,1.26-4.18l6.991-0.342
		c1.371-0.067,2.383-1.305,2.177-2.662l-1.053-6.92c-0.328-2.155,2.231-3.529,3.846-2.065l5.185,4.701
		C576.743,457.03,578.334,456.87,579.147,455.765z"/>
</g>
<g>
	<g>
		<path fill="#809852" d="M606.738,566.181c-1.24-40.384,23.397-76.136,24.447-77.638l3.114,2.175
			c-0.25,0.358-24.966,36.249-23.765,75.346L606.738,566.181z"/>
	</g>
</g>
<g>
	<path fill="#D93963" d="M632.332,477.148l-3.345-4.545c-1.042-1.415-3.284-0.74-3.37,1.016l-0.276,5.636
		c-0.054,1.105-1.052,1.922-2.146,1.755l-5.579-0.849c-1.737-0.264-2.845,1.799-1.665,3.101l3.79,4.181
		c0.743,0.82,0.615,2.103-0.277,2.759l-4.545,3.345c-1.415,1.042-0.74,3.284,1.016,3.37l5.636,0.276
		c1.105,0.054,1.922,1.052,1.755,2.146l-0.849,5.579c-0.264,1.737,1.799,2.845,3.101,1.665l4.181-3.79
		c0.82-0.743,2.103-0.615,2.759,0.277l3.345,4.545c1.042,1.415,3.284,0.74,3.37-1.016l0.276-5.636
		c0.054-1.105,1.052-1.922,2.146-1.755l5.579,0.849c1.737,0.264,2.845-1.799,1.665-3.101l-3.79-4.181
		c-0.743-0.82-0.615-2.103,0.277-2.759l4.545-3.345c1.416-1.042,0.74-3.284-1.016-3.37l-5.636-0.276
		c-1.105-0.054-1.922-1.052-1.755-2.146l0.849-5.579c0.264-1.737-1.799-2.845-3.101-1.665l-4.181,3.79
		C634.271,478.168,632.988,478.039,632.332,477.148z"/>
</g>
<g>
	<g>
		<path fill="#809852" d="M429.295,505.316l-4.27-0.131c1.681-54.722-32.896-104.921-33.245-105.422l3.503-2.447
			C395.641,397.828,431.021,449.15,429.295,505.316z"/>
	</g>
</g>
<g>
	<path fill="#D93963" d="M394.104,381.126l4.666-6.341c1.453-1.975,4.581-1.032,4.701,1.417l0.385,7.863
		c0.076,1.542,1.468,2.681,2.994,2.448l7.783-1.184c2.424-0.369,3.969,2.51,2.322,4.326l-5.288,5.832
		c-1.037,1.144-0.858,2.934,0.386,3.849l6.341,4.666c1.975,1.453,1.032,4.581-1.417,4.701l-7.863,0.385
		c-1.542,0.076-2.681,1.468-2.448,2.994l1.184,7.783c0.369,2.424-2.51,3.969-4.326,2.322l-5.832-5.288
		c-1.144-1.037-2.933-0.858-3.849,0.386l-4.666,6.341c-1.453,1.975-4.581,1.032-4.701-1.417l-0.385-7.863
		c-0.076-1.542-1.468-2.681-2.994-2.448l-7.783,1.184c-2.424,0.369-3.969-2.51-2.322-4.326l5.288-5.832
		c1.037-1.144,0.858-2.934-0.386-3.849l-6.341-4.666c-1.975-1.453-1.032-4.581,1.417-4.701l7.863-0.385
		c1.542-0.076,2.681-1.468,2.448-2.994l-1.184-7.783c-0.369-2.424,2.51-3.969,4.326-2.322l5.832,5.288
		C391.399,382.549,393.189,382.369,394.104,381.126z"/>
</g>
<g>
	<defs>
		<path id="SVGID_433_" d="M126.563,466.595c-4.048-14.024-9.299-29.98-16.117-47.887C71.413,316.194,35.9,368.131,80.941,459.185
			c-5.329-5.912-11.101-12.088-17.366-18.526c-98.086-100.788-90.131,29.169,76.456,102.347c0.002,0.002,0.004,0.005,0.007,0.007
			c0.001,0.004,0.002,0.009,0.003,0.013c0,0,0.002-0.005,0.003-0.006c0.002,0.002,0.003,0.004,0.005,0.006c0,0,0-0.009,0-0.011
			c0.009,0.004,0.017,0.008,0.026,0.011c0,0-0.005-0.014-0.014-0.037c0.709-1.245,20.847-37.23,30.613-124.032
			C183.9,301.409,118.489,345.392,126.563,466.595z"/>
	</defs>
	<clipPath id="SVGID_12_">
		<use xlink:href="#SVGID_433_"  overflow="visible"/>
	</clipPath>
	<g clip-path="url(#SVGID_12_)">
		<polygon fill="#009187" points="135.837,530.639 -6.732,398.756 -5.374,397.288 134.392,526.577 160.652,340.702 162.632,340.982 
					"/>
	</g>
	<g clip-path="url(#SVGID_12_)">
		
			<rect x="98.697" y="348.399" transform="matrix(0.9256 -0.3785 0.3785 0.9256 -159.8564 70.6063)" fill="#009187" width="2" height="187.17"/>
	</g>
</g>
</svg>
