<?xml version="1.0" encoding="utf-8"?>
<!-- Generator: Adobe Illustrator 24.0.0, SVG Export Plug-In . SVG Version: 6.00 Build 0)  -->
<svg version="1.1" id="Layer_1" xmlns="http://www.w3.org/2000/svg" xmlns:xlink="http://www.w3.org/1999/xlink" x="0px" y="0px"
	 viewBox="0 0 511 346.7" style="enable-background:new 0 0 511 346.7;" xml:space="preserve">
<style type="text/css">
	.st0{fill:#002F49;}
	.st1{fill:url(#SVGID_1_);}
	.st2{fill-rule:evenodd;clip-rule:evenodd;fill:#FFE07F;}
	.st3{fill-rule:evenodd;clip-rule:evenodd;fill:#FFFFFF;}
	.st4{fill-rule:evenodd;clip-rule:evenodd;fill:#005D91;fill-opacity:0.5;}
	.st5{fill:#FFFFFF;}
	.st6{fill:#F7D7E0;}
	.st7{fill:#D93963;}
	.st8{fill:#E0F0FA;}
	.st9{fill:#62B5E5;}
	.st10{fill:#81AA43;}
	.st11{fill:#CDDDB4;}
	.st12{fill:#FFE07F;}
	.st13{fill:#FFF3CC;}
</style>
<g>
	<g>
		<polygon class="st0" points="123.1,100.5 148.1,109.5 133.8,148.9 95.9,175.1 		"/>
	</g>
	<linearGradient id="SVGID_1_" gradientUnits="userSpaceOnUse" x1="72.29" y1="161.734" x2="491.227" y2="161.734">
		<stop  offset="0" style="stop-color:#ECEEEE"/>
		<stop  offset="0.2246" style="stop-color:#EAECED"/>
		<stop  offset="0.4423" style="stop-color:#D8DBDC"/>
		<stop  offset="0.7114" style="stop-color:#C7CBCD"/>
		<stop  offset="1" style="stop-color:#C1C6C8"/>
	</linearGradient>
	<path class="st1" d="M491.2,224c0-35.2-28.5-63.7-63.7-63.7c-4.2,0-8.3,0.5-12.3,1.1c1.1-4.2,1.8-9,1.8-13.5
		c0-29.4-23.7-53.1-53.1-53.1c-13.2,0-25,4.7-34.3,12.5c-12.3-41.3-50.5-71.6-96-71.6c-55.4,0-100.6,45-100.6,100.6
		c0,4.2,0.2,8.4,0.9,12.7c-34.6,4-61.6,33.6-61.6,69.1c0,38.5,31.1,69.8,69.8,69.8h297.1C468.2,281.7,491.2,254.8,491.2,224z"/>
	<g>
		<polygon id="Fill-10_55_" class="st2" points="81.6,325.9 154.8,288.6 81.6,252.7 		"/>
		<polygon id="Fill-10_54_" class="st3" points="155.2,325.9 228.4,288.6 155.2,252.7 		"/>
		<polygon id="Fill-10_53_" class="st4" points="155.2,325.9 228.4,288.6 155.2,252.7 		"/>
	</g>
	<g>
		<rect x="214.7" y="110.7" class="st5" width="244.2" height="142.9"/>
		<rect x="214.7" y="90.8" class="st0" width="244.2" height="19.9"/>
		<g>
			<rect x="385.4" y="125.2" class="st6" width="47.9" height="47.9"/>
			<rect x="385.4" y="125.2" class="st7" width="47.9" height="7.5"/>
			<rect x="385.4" y="185.7" class="st8" width="47.9" height="47.9"/>
			<rect x="385.4" y="185.7" class="st9" width="47.9" height="7.5"/>
			<g>
				<rect x="240.3" y="185.7" class="st10" width="47.9" height="47.9"/>
				<rect x="288.2" y="185.7" class="st11" width="81.4" height="47.9"/>
				<g>
					<rect x="300.3" y="193" class="st10" width="57.1" height="5"/>
					<rect x="300.3" y="202.5" class="st10" width="41.6" height="5"/>
					<rect x="300.3" y="221.4" class="st10" width="41.6" height="5"/>
					<rect x="300.3" y="211.9" class="st10" width="48.6" height="5"/>
				</g>
				<path class="st5" d="M274.3,200.7c-3.2,0-6.2,1.5-8.6,4.3c-0.6,0.7-1,1.4-1.4,2c-1.7-2.5-5-6.3-9.9-6.3c-4.9,0-9,4-9,9s4,9,9,9
					c3.2,0,6.2-1.5,8.6-4.3c0.6-0.7,1-1.4,1.4-2c1.7,2.5,5,6.3,9.9,6.3c4.9,0,9-4,9-9C283.2,204.8,279.2,200.7,274.3,200.7z
					 M254.3,216.1c-3.5,0-6.4-2.9-6.4-6.4s2.9-6.4,6.4-6.4c4.6,0,7.6,4.7,8.6,6.4l0,0.1l0,0.1C262.1,211.4,259.3,216.1,254.3,216.1z
					 M274.3,216.1c-4.6,0-7.6-4.7-8.6-6.4l0-0.1l0-0.1c0.8-1.7,3.6-6.3,8.6-6.3c3.5,0,6.4,2.9,6.4,6.4
					C280.7,213.2,277.8,216.1,274.3,216.1z"/>
			</g>
			<g>
				<rect x="240.3" y="125.2" class="st12" width="47.9" height="47.9"/>
				<rect x="288.2" y="125.2" class="st13" width="81.4" height="47.9"/>
				<g>
					<rect x="300.3" y="132.6" class="st12" width="57.1" height="5"/>
					<rect x="300.3" y="142" class="st12" width="41.6" height="5"/>
					<rect x="300.3" y="160.9" class="st12" width="41.6" height="5"/>
					<rect x="300.3" y="151.4" class="st12" width="48.6" height="5"/>
				</g>
				<g>
					<g>
						<g>
							<path class="st5" d="M273.3,146.3l-0.1-0.1l-0.5-1.1l0.1-0.1c1.4-3.2,1.3-3.3,1.1-3.5l-1.9-1.9c-0.1-0.1-0.2-0.1-0.3-0.1
								c-0.1,0-0.4,0-3.2,1.3l-0.1,0.1l-1.2-0.5l-0.1-0.1c-1.3-3.3-1.4-3.3-1.8-3.3h-2.7c-0.3,0-0.5,0-1.7,3.3l-0.1,0.1l-1.2,0.5
								l-0.1-0.1c-1.9-0.8-3-1.2-3.3-1.2c-0.1,0-0.3,0.1-0.3,0.1l-1.9,1.9c-0.3,0.2-0.3,0.3,1.2,3.5l0.1,0.1l-0.5,1.1l-0.1,0.1
								c-3.3,1.3-3.3,1.4-3.3,1.7v2.6c0,0.3,0,0.5,3.3,1.7l0.1,0.1l0.5,1.1l-0.1,0.1c-1.4,3.2-1.3,3.3-1.1,3.5l1.9,1.9
								c0.1,0.1,0.2,0.1,0.3,0.1s0.4,0,3.2-1.3l0.1-0.1l1.2,0.5l0.1,0.1c1.3,3.3,1.4,3.3,1.8,3.3h2.7c0.3,0,0.5,0,1.7-3.3l0.1-0.1
								l1.2-0.5l0.1,0.1c1.9,0.8,3,1.2,3.3,1.2c0.1,0,0.3-0.1,0.3-0.1l1.9-1.9c0.3-0.3,0.3-0.3-1.2-3.5l-0.1-0.1l0.5-1.1l0.1-0.1
								c3.3-1.3,3.3-1.4,3.3-1.8v-2.6C276.7,147.6,276.7,147.4,273.3,146.3z M264.1,153.5c-2.4,0-4.3-1.9-4.3-4.2
								c0-2.3,1.9-4.2,4.3-4.2s4.3,1.9,4.3,4.2S266.5,153.5,264.1,153.5z"/>
						</g>
					</g>
				</g>
			</g>
		</g>
	</g>
	<g>
		<g>
			<path class="st0" d="M49.5,43.2c0,0-0.1,0-0.1,0c-9.3-3.3-19.5,1.5-22.8,10.7S28,73.4,37.3,76.7c0,0,0.1,0,0.1,0L49.5,43.2z"/>
		</g>
		<g>
			<polygon class="st12" points="117.6,115.6 21.3,117.1 62.7,1.8 136.1,64.3 			"/>
		</g>
		<g>
			<path class="st0" d="M117.6,115.6l26.9,9.7c14.2,5.1,29.8-2.3,34.9-16.4l0,0c5.1-14.2-2.3-29.8-16.4-34.9l-26.9-9.7L117.6,115.6z
				"/>
		</g>
		<g>
			<g>
				
					<rect x="-2.7" y="30.2" transform="matrix(0.3383 -0.941 0.941 0.3383 -41.5818 29.9024)" class="st0" width="6.3" height="28.7"/>
			</g>
			<g>
				<rect x="15.2" y="7" transform="matrix(0.9046 -0.4262 0.4262 0.9046 -7.3622 9.8521)" class="st0" width="6.3" height="28.7"/>
			</g>
			<g>
				
					<rect x="-14.8" y="70.6" transform="matrix(0.9047 -0.4261 0.4261 0.9047 -31.4613 6.8237)" class="st0" width="28.7" height="6.3"/>
			</g>
		</g>
	</g>
	<g>
		<polygon class="st0" points="123.1,100.5 148.1,109.5 133.8,148.9 114.4,136.8 		"/>
	</g>
</g>
</svg>
