<?xml version="1.0" encoding="utf-8"?>
<!-- Generator: Adobe Illustrator 24.1.2, SVG Export Plug-In . SVG Version: 6.00 Build 0)  -->
<svg version="1.1" id="Layer_1" xmlns="http://www.w3.org/2000/svg" xmlns:xlink="http://www.w3.org/1999/xlink" x="0px" y="0px"
	 viewBox="0 0 176.432 167.547" enable-background="new 0 0 176.432 167.547" xml:space="preserve">
<g>
	<circle fill="#FFFFFF" cx="92.955" cy="84.989" r="82.558"/>
	
		<radialGradient id="SVGID_2_" cx="92.9547" cy="-6308.416" r="82.558" gradientTransform="matrix(1 0 0 -1 0 -6223.4268)" gradientUnits="userSpaceOnUse">
		<stop  offset="0" style="stop-color:#B6DCF3;stop-opacity:0.25"/>
		<stop  offset="0.8162" style="stop-color:#79C0E9;stop-opacity:0.3265"/>
		<stop  offset="1" style="stop-color:#62B5E5;stop-opacity:0.4"/>
	</radialGradient>
	<circle fill="url(#SVGID_2_)" cx="92.955" cy="84.989" r="82.558"/>
	<g>
		<path fill="#005D91" d="M97.215,129.924H38.203c-1.105,0-2-0.895-2-2V16.463c0-1.105,0.895-2,2-2h59.012c1.105,0,2,0.895,2,2
			v111.46C99.215,129.028,98.319,129.924,97.215,129.924z"/>
		<rect x="39.446" y="24.442" fill="#FBFBFB" width="56.525" height="93.458"/>
		<radialGradient id="SVGID_4_" cx="67.7086" cy="47.8345" r="21.6542" gradientUnits="userSpaceOnUse">
			<stop  offset="0" style="stop-color:#B6DCF3;stop-opacity:0.25"/>
			<stop  offset="0.8162" style="stop-color:#79C0E9;stop-opacity:0.3265"/>
			<stop  offset="1" style="stop-color:#62B5E5;stop-opacity:0.4"/>
		</radialGradient>
		<rect x="43.258" y="29.396" fill="url(#SVGID_4_)" width="48.902" height="36.876"/>
		<g>
			<g>
				<path fill="#002F49" d="M28.958,18.653c-0.018-0.006-0.035-0.016-0.053-0.023c-4.174-1.5-8.774,0.667-10.275,4.841
					s0.667,8.774,4.841,10.275c0.018,0.006,0.037,0.01,0.056,0.017L28.958,18.653z"/>
			</g>
			<g>
				<polygon fill="#D93963" points="59.67,51.286 16.249,51.945 34.924,0 67.985,28.155 				"/>
			</g>
			<g>
				<polygon fill="#002F49" points="62.12,44.46 73.367,48.503 66.964,66.263 54.265,66.263 				"/>
			</g>
			<g>
				<path fill="#002F49" d="M59.67,51.286l12.124,4.359c6.387,2.296,13.427-1.02,15.724-7.408l0,0
					c2.296-6.387-1.02-13.427-7.408-15.724l-12.124-4.359L59.67,51.286z"/>
			</g>
			<g>
				<g>
					
						<rect x="5.472" y="12.781" transform="matrix(0.3383 -0.941 0.941 0.3383 -13.5594 19.2206)" fill="#002F49" width="2.832" height="12.942"/>
				</g>
				<g>
					
						<rect x="13.517" y="2.356" transform="matrix(0.9046 -0.4262 0.4262 0.9046 -2.3379 7.2064)" fill="#002F49" width="2.831" height="12.942"/>
				</g>
				<g>
					
						<rect x="-0.013" y="30.994" transform="matrix(0.9047 -0.4261 0.4261 0.9047 -13.1938 5.8411)" fill="#002F49" width="12.944" height="2.832"/>
				</g>
			</g>
		</g>
		<g>
			<rect x="43.258" y="72.299" fill="#62B5E5" width="45.585" height="3.964"/>
			<rect x="43.258" y="80.107" fill="#62B5E5" width="33.205" height="3.964"/>
			<rect x="43.258" y="95.721" fill="#62B5E5" width="33.205" height="3.964"/>
			<rect x="43.258" y="87.914" fill="#62B5E5" width="38.773" height="3.964"/>
			<rect x="43.258" y="103.528" fill="#62B5E5" width="38.773" height="3.964"/>
		</g>
	</g>
	<rect x="86.551" y="95.605" fill="#D3D3D3" width="89.881" height="53.078"/>
	<polygon fill="#FBFBFB" points="131.491,127.56 86.551,95.605 176.432,95.605 	"/>
	<g>
		<polygon id="Fill-10_59_" fill-rule="evenodd" clip-rule="evenodd" fill="#FFE07F" points="111.998,85.822 133.753,74.745 
			111.998,64.067 		"/>
		<polygon id="Fill-10_58_" fill-rule="evenodd" clip-rule="evenodd" fill="#FFFFFF" points="133.876,85.822 155.631,74.745 
			133.876,64.067 		"/>
		<polygon id="Fill-10_56_" fill-rule="evenodd" clip-rule="evenodd" fill="#005D91" fill-opacity="0.5" points="133.876,85.822 
			155.631,74.745 133.876,64.067 		"/>
	</g>
</g>
</svg>
