<svg xmlns="http://www.w3.org/2000/svg" viewBox="0 0 524.2 86"><defs><style>.cls-1{fill:#fff;}</style></defs><title>cO-logo-white</title><g id="Layer_2" data-name="Layer 2"><g id="Layer_1-2" data-name="Layer 1"><path class="cls-1" d="M123.8,43.2c0,14.3-10.2,25.9-25,25.9S73.6,57.2,73.6,42.9v-.2c0-14.3,10.2-25.9,25-25.9S123.8,28.7,123.8,43Zm19.1-.2v-.2C142.9,19.1,124.5,0,98.8,0,81.4,0,67.2,8.9,59.9,22a47.48,47.48,0,0,1,4,3.8l2.3,2.5-2.3,2.5-9.3,10c0,.7-.1,1.4-.1,2.1v.2a42.73,42.73,0,0,0,9.3,26.8H35.3v-.1c-10.2,0-16.8-8.1-16.8-18.3v-.2c0-9.7,6.7-18,16-18,6.7,0,10.9,2.8,15,7.3L61,28.3c-6.2-6.9-13.9-11.1-26.4-11.1C14.5,17.2,0,32.8,0,51.6v.2C0,70.2,13.9,85.2,33.1,85.9V86h67.1c24.9-.8,42.7-19.9,42.7-43m40.9.6v-.2c0-9.7,6.9-17.6,16.4-17.6,5.6,0,10.1,2.4,14.4,6.4l7.9-9.1c-5.2-5.2-11.6-8.7-22.3-8.7-17.4,0-29.5,13.2-29.5,29.2v.2c0,16.2,12.4,29.1,29,29.1,10.9,0,17.4-3.9,23.2-10.1l-7.9-8c-4.4,4-8.4,6.6-14.9,6.6-9.6,0-16.3-8.1-16.3-17.8m41.9,28.3H238v-59H225.7Zm50-21.4c0,6.4-4.2,11.8-11.2,11.8-6.8,0-11.4-5.6-11.4-12v-.2c0-6.4,4.2-11.8,11.2-11.8,6.8,0,11.4,5.6,11.4,11.9Zm12.1-.2v-.2c0-12.4-9.9-22.4-23.3-22.4S241,37.8,241,50.2v.2c0,12.4,9.9,22.4,23.3,22.4s23.5-10,23.5-22.5m29.4,21.6h12.3V28.6H317.2V52.7c0,5.8-3,8.8-7.7,8.8s-7.4-3-7.4-8.8V28.6H289.8v28c0,9.9,5.4,16.1,14.7,16.1,6.2,0,9.8-3.3,12.7-6.9v6.1Zm48.2-21.6c0,7.2-4.8,12-10.5,12s-10.6-4.8-10.6-12v-.2c0-7.3,4.8-12,10.6-12s10.5,4.8,10.5,12Zm-.1,21.6h12.3v-59H365.3V34.2a16.5,16.5,0,0,0-13.5-6.5c-10.2,0-19.7,7.9-19.7,22.4v.2c0,14.5,9.6,22.4,19.7,22.4,6.4,0,10.5-3,13.5-7Zm62.6-28.1c0,9.7-6.9,17.6-17,17.6s-17.1-8.1-17.1-17.8v-.2c0-9.7,6.9-17.6,17-17.6s17.1,8.1,17.1,17.8Zm13-.2v-.2c0-16.1-12.5-29.1-30-29.1s-30.1,13.2-30.1,29.2v.2c0,16.1,12.5,29.1,30,29.1s30.1-13.1,30.1-29.2m36.5,6.7c0,7.3-4.8,12-10.6,12s-10.5-4.8-10.5-12v-.2c0-7.2,4.8-12,10.5-12s10.6,4.8,10.6,12Zm12.3,0v-.2c0-14.5-9.6-22.4-19.7-22.4-6.4,0-10.5,3-13.5,7V28.5H444.2V84.7h12.3V66.1A16.5,16.5,0,0,0,470,72.6c10.2.1,19.7-7.8,19.7-22.3m12.4-9.7v-.2c0-1.7,1.5-3,4.5-3s7.4,1.5,11.7,4L523,33a29.64,29.64,0,0,0-16.1-5c-8.7,0-15.8,4.9-15.8,13.7v.2c0,8.4,6.9,11.2,12.9,13,4.8,1.4,9,2.3,9,5v.2c0,1.9-1.6,3.2-5.2,3.2-4,0-9-1.8-13.6-5.2L489,66.2a30.32,30.32,0,0,0,18.6,6.5c9.4,0,16.6-4.4,16.6-14v-.2c0-7.9-7-10.8-13.1-12.8-4.9-1.6-9-2.7-9-5.1"/></g></g></svg>