<?xml version="1.0" encoding="UTF-8"?>
<svg id="Layer_2" data-name="Layer 2" xmlns="http://www.w3.org/2000/svg" viewBox="0 0 799.2 203.97">
  <defs>
    <style>
      .cls-1, .cls-2 {
        isolation: isolate;
      }

      .cls-2 {
        font-family: Oswald-LightItalic, Oswald;
        font-size: 67px;
        font-style: italic;
        font-weight: 300;
      }

      .cls-3, .cls-4 {
        fill: #ffffff;
      }

      .cls-3, .cls-5 {
        letter-spacing: .02em;
      }

      .cls-6 {
        fill: #63b3e3;
      }

      .cls-4 {
        letter-spacing: .01em;
      }

      .cls-5 {
        fill: #ffffff;
      }
    </style>
  </defs>
  <g id="Layer_1-2" data-name="Layer 1">
    <path class="cls-6" d="m188.6,65.8c0,21.8-15.5,39.5-38.1,39.5s-38.4-18.1-38.4-39.9v-.3c0-21.8,15.5-39.5,38.1-39.5s38.4,18.1,38.4,39.9v.3Zm29.1-.3v-.3C217.7,29.1,189.7,0,150.5,0c-26.5,0-48.2,13.6-59.3,33.5,2.1,1.8,4.1,3.7,6.1,5.8l3.5,3.8-3.5,3.8-14.2,15.2c0,1.1-.2,2.1-.2,3.2v.3c0,15.4,5.2,29.6,14.2,40.9h-43.4v-.2c-15.5,0-25.6-12.3-25.6-27.9v-.3c0-14.8,10.2-27.4,24.4-27.4,10.2,0,16.6,4.3,22.9,11.1l17.5-18.8c-9.5-10.5-21.2-16.9-40.2-16.9C22.1,26.1,0,49.9,0,78.5v.3c0,28,21.2,50.9,50.5,52v.2h102.3c37.8-1.2,64.9-30.3,64.9-65.5m62.3.9v-.3c0-14.8,10.5-26.8,25-26.8,8.5,0,15.4,3.7,22,9.8l12-13.9c-7.9-7.9-17.7-13.3-34-13.3-26.5,0-45,20.1-45,44.5v.3c0,24.7,18.9,44.4,44.2,44.4,16.6,0,26.5-5.9,35.4-15.4l-12-12.2c-6.7,6.1-12.8,10.1-22.7,10.1-14.7,0-24.9-12.4-24.9-27.2m63.9,43.2h18.8V19.7h-18.8v89.9Zm76.2-32.7c0,9.8-6.4,18-17.1,18s-17.4-8.5-17.4-18.3v-.3c0-9.8,6.4-18,17.1-18s17.4,8.5,17.4,18.1v.5Zm18.5-.3v-.3c0-18.9-15.1-34.1-35.5-34.1s-35.8,15.4-35.8,34.3v.3c0,18.9,15.1,34.1,35.5,34.1s35.8-15.2,35.8-34.3m44.8,33h18.8V43.6h-18.8v36.7c0,8.8-4.6,13.4-11.7,13.4s-11.3-4.6-11.3-13.4v-36.7h-18.8v42.7c0,15.1,8.2,24.5,22.4,24.5,9.5,0,14.9-5,19.4-10.5v9.3h0Zm73.5-33c0,11-7.3,18.3-16,18.3s-16.2-7.3-16.2-18.3v-.3c0-11.1,7.3-18.3,16.2-18.3s16,7.3,16,18.3v.3Zm-.2,33h18.8V19.7h-18.8v32.5c-4.4-5.3-10.5-9.9-20.6-9.9-15.5,0-30,12-30,34.1v.3c0,22.1,14.6,34.1,30,34.1,9.8,0,16-4.6,20.6-10.7v9.5Zm95.4-42.9c0,14.8-10.5,26.8-25.9,26.8s-26.1-12.3-26.1-27.1v-.3c0-14.8,10.5-26.8,25.9-26.8s26.1,12.3,26.1,27.1v.3Zm19.9-.3v-.3c0-24.5-19.1-44.4-45.7-44.4s-45.9,20.1-45.9,44.5v.3c0,24.5,19.1,44.4,45.7,44.4s45.9-19.9,45.9-44.5m55.6,10.2c0,11.1-7.3,18.3-16.2,18.3s-16-7.3-16-18.3v-.3c0-11,7.3-18.3,16-18.3s16.2,7.3,16.2,18.3v.3Zm18.8,0v-.3c0-22.1-14.6-34.1-30-34.1-9.8,0-16,4.6-20.6,10.7v-9.5h-18.8v85.7h18.8v-28.4c4.4,5.3,10.5,9.9,20.6,9.9,15.5.2,30-11.9,30-34m18.9-14.7v-.3c0-2.6,2.3-4.6,6.9-4.6s11.3,2.3,17.8,6.1l7.2-12.8c-7.2-4.9-16.3-7.6-24.5-7.6-13.3,0-24.1,7.5-24.1,20.9v.3c0,12.8,10.5,17.1,19.7,19.8,7.3,2.1,13.7,3.5,13.7,7.6v.3c0,2.9-2.4,4.9-7.9,4.9-6.1,0-13.7-2.7-20.7-7.9l-7.9,12.3c8.7,6.9,19.1,9.9,28.4,9.9,14.3,0,25.3-6.7,25.3-21.3v-.3c0-12-10.7-16.5-20-19.5-7.7-2.5-13.9-4.2-13.9-7.8"/>
    <g class="cls-1">
      <text class="cls-2" transform="translate(442.75 186.04)"><tspan class="cls-4" x="0" y="0">b</tspan><tspan class="cls-3" x="28.76" y="0">y </tspan><tspan class="cls-5" x="70.76" y="0">Aptum</tspan></text>
    </g>
  </g>
</svg>
