<?xml version="1.0" encoding="utf-8"?>
<!-- Generator: Adobe Illustrator 23.0.4, SVG Export Plug-In . SVG Version: 6.00 Build 0)  -->
<svg version="1.1" id="Layer_1" xmlns="http://www.w3.org/2000/svg" xmlns:xlink="http://www.w3.org/1999/xlink" x="0px" y="0px"
	 viewBox="0 0 576 216" style="enable-background:new 0 0 576 216;" xml:space="preserve">
<style type="text/css">
	.st0{fill:#63B3E3;}
</style>
<path class="st0" d="M149.8,108.2c0,14.3-10.2,25.9-25,25.9c-14.7,0-25.2-11.9-25.2-26.2v-0.2c0-14.3,10.2-25.9,25-25.9
	c14.7,0,25.2,11.9,25.2,26.2V108.2z M168.9,108v-0.2c0-23.7-18.4-42.8-44.1-42.8c-17.4,0-31.6,8.9-38.9,22c1.4,1.2,2.7,2.4,4,3.8
	l2.3,2.5l-2.3,2.5l-9.3,10c0,0.7-0.1,1.4-0.1,2.1v0.2c0,10.1,3.4,19.4,9.3,26.8H61.3v-0.1c-10.2,0-16.8-8.1-16.8-18.3v-0.2
	c0-9.7,6.7-18,16-18c6.7,0,10.9,2.8,15,7.3l11.5-12.3c-6.2-6.9-13.9-11.1-26.4-11.1C40.5,82.2,26,97.8,26,116.6v0.2
	c0,18.4,13.9,33.4,33.1,34.1v0.1h67.1l0,0C151.1,150.2,168.9,131.1,168.9,108 M209.8,108.6v-0.2c0-9.7,6.9-17.6,16.4-17.6
	c5.6,0,10.1,2.4,14.4,6.4l7.9-9.1c-5.2-5.2-11.6-8.7-22.3-8.7c-17.4,0-29.5,13.2-29.5,29.2v0.2c0,16.2,12.4,29.1,29,29.1
	c10.9,0,17.4-3.9,23.2-10.1l-7.9-8c-4.4,4-8.4,6.6-14.9,6.6C216.5,126.4,209.8,118.3,209.8,108.6 M251.7,136.9H264V77.9h-12.3V136.9
	z M301.7,115.5c0,6.4-4.2,11.8-11.2,11.8c-6.8,0-11.4-5.6-11.4-12v-0.2c0-6.4,4.2-11.8,11.2-11.8c6.8,0,11.4,5.6,11.4,11.9V115.5z
	 M313.8,115.3v-0.2c0-12.4-9.9-22.4-23.3-22.4c-13.5,0-23.5,10.1-23.5,22.5v0.2c0,12.4,9.9,22.4,23.3,22.4
	C303.8,137.8,313.8,127.8,313.8,115.3 M343.2,136.9h12.3V93.6h-12.3v24.1c0,5.8-3,8.8-7.7,8.8c-4.7,0-7.4-3-7.4-8.8V93.6h-12.3v28
	c0,9.9,5.4,16.1,14.7,16.1c6.2,0,9.8-3.3,12.7-6.9V136.9z M391.4,115.3c0,7.2-4.8,12-10.5,12c-5.7,0-10.6-4.8-10.6-12v-0.2
	c0-7.3,4.8-12,10.6-12c5.7,0,10.5,4.8,10.5,12V115.3z M391.3,136.9h12.3V77.9h-12.3v21.3c-2.9-3.5-6.9-6.5-13.5-6.5
	c-10.2,0-19.7,7.9-19.7,22.4v0.2c0,14.5,9.6,22.4,19.7,22.4c6.4,0,10.5-3,13.5-7V136.9z M453.9,108.8c0,9.7-6.9,17.6-17,17.6
	c-10,0-17.1-8.1-17.1-17.8v-0.2c0-9.7,6.9-17.6,17-17.6c10,0,17.1,8.1,17.1,17.8V108.8z M466.9,108.6v-0.2c0-16.1-12.5-29.1-30-29.1
	c-17.4,0-30.1,13.2-30.1,29.2v0.2c0,16.1,12.5,29.1,30,29.1C454.2,137.8,466.9,124.7,466.9,108.6 M503.4,115.3c0,7.3-4.8,12-10.6,12
	c-5.7,0-10.5-4.8-10.5-12v-0.2c0-7.2,4.8-12,10.5-12c5.7,0,10.6,4.8,10.6,12V115.3z M515.7,115.3v-0.2c0-14.5-9.6-22.4-19.7-22.4
	c-6.4,0-10.5,3-13.5,7v-6.2h-12.3v56.2h12.3v-18.6c2.9,3.5,6.9,6.5,13.5,6.5C506.2,137.7,515.7,129.8,515.7,115.3 M528.1,105.6v-0.2
	c0-1.7,1.5-3,4.5-3c3.1,0,7.4,1.5,11.7,4L549,98c-4.7-3.2-10.7-5-16.1-5c-8.7,0-15.8,4.9-15.8,13.7v0.2c0,8.4,6.9,11.2,12.9,13
	c4.8,1.4,9,2.3,9,5v0.2c0,1.9-1.6,3.2-5.2,3.2c-4,0-9-1.8-13.6-5.2l-5.2,8.1c5.7,4.5,12.5,6.5,18.6,6.5c9.4,0,16.6-4.4,16.6-14v-0.2
	c0-7.9-7-10.8-13.1-12.8C532.2,109.1,528.1,108,528.1,105.6"/>
</svg>
