<?xml version="1.0" encoding="utf-8"?>
<!-- Generator: Adobe Illustrator 24.1.2, SVG Export Plug-In . SVG Version: 6.00 Build 0)  -->
<svg version="1.1" id="Layer_1" xmlns="http://www.w3.org/2000/svg" xmlns:xlink="http://www.w3.org/1999/xlink" x="0px" y="0px"
	 viewBox="0 0 185.47 168.677" enable-background="new 0 0 185.47 168.677" xml:space="preserve">
<g>
	<g>
		<circle fill="#FFFFFF" cx="91.61" cy="86.119" r="82.558"/>
		
			<radialGradient id="SVGID_2_" cx="91.6104" cy="-6308.416" r="82.558" gradientTransform="matrix(1 0 0 -1 0 -6222.2974)" gradientUnits="userSpaceOnUse">
			<stop  offset="0" style="stop-color:#FFFFFF;stop-opacity:0"/>
			<stop  offset="0.4292" style="stop-color:#B6DCF3;stop-opacity:0.1717"/>
			<stop  offset="0.8162" style="stop-color:#79C0E9;stop-opacity:0.3265"/>
			<stop  offset="1" style="stop-color:#62B5E5;stop-opacity:0.4"/>
		</radialGradient>
		<circle fill="url(#SVGID_2_)" cx="91.61" cy="86.119" r="82.558"/>
		<path fill="#62B5E5" d="M63.141,0C52.009,0,42.938,5.698,38.252,14.094c0.881,0.75,1.743,1.556,2.549,2.455l1.443,1.612
			l-1.481,1.593l-5.941,6.41c-0.019,0.45-0.037,0.9-0.037,1.368v0.15c0,6.485,2.174,12.426,5.922,17.093H22.546
			c0-0.019,0-0.037,0-0.075c-6.541,0-10.72-5.21-10.72-11.676v-0.169c0-6.222,4.254-11.508,10.252-11.508
			c4.254,0,6.934,1.818,9.615,4.648l7.328-7.89c-3.936-4.423-8.902-7.103-16.868-7.103C9.221,11.001,0,20.935,0,33.004v0.15
			c0,11.789,8.902,21.384,21.16,21.797v0.037h42.919V54.97c15.856-0.544,27.269-12.707,27.269-27.494v-0.112
			C91.348,12.238,79.559,0,63.141,0z M79.11,27.663c0,9.127-6.541,16.568-15.968,16.568s-16.118-7.59-16.118-16.718v-0.15
			c0-9.127,6.541-16.568,15.968-16.568S79.11,18.405,79.11,27.513V27.663z"/>
		<path fill="#62B5E5" d="M149.598,41.288c-14.169,0-25.695,7.253-31.655,17.917c1.125,0.956,2.212,1.968,3.261,3.13l1.837,2.062
			l-1.874,2.024l-7.572,8.134c-0.037,0.581-0.037,1.143-0.037,1.724v0.187c0,8.228,2.755,15.799,7.534,21.759H97.964
			c0-0.037,0-0.056,0-0.094c-8.321,0-13.644-6.616-13.644-14.844v-0.206c0-7.928,5.416-14.637,13.044-14.637
			c5.416,0,8.827,2.305,12.238,5.922l9.333-10.027c-5.023-5.623-11.339-9.034-21.459-9.034c-16.455,0-28.188,12.632-28.188,27.982
			v0.206c0,14.994,11.32,27.194,26.913,27.719v0.056h54.595v-0.037c20.166-0.675,34.673-16.156,34.673-34.972v-0.187
			C185.47,56.863,170.476,41.288,149.598,41.288z M169.895,76.486c0,11.601-8.321,21.066-20.297,21.066
			c-11.995,0-20.504-9.671-20.504-21.272v-0.187c0-11.601,8.321-21.085,20.297-21.085c11.995,0,20.504,9.671,20.504,21.272V76.486z"
			/>
		<g>
			<g>
				<g>
					<polygon fill="#FFFFFF" points="134.848,41.495 149.748,15.799 103.474,13.813 					"/>
				</g>
			</g>
			<polygon fill="#62B5E5" points="107.391,15.012 145.212,23.634 145.418,35.666 142.813,27.775 			"/>
			<polygon fill="#005D91" points="145.418,35.666 139.571,33.361 142.813,27.775 			"/>
		</g>
		<path fill="#005D91" d="M164.535,152.297H18.667c-5.304,0-9.615-4.311-9.615-9.615v-2.793c0-5.304,4.311-9.615,9.615-9.615
			h145.887c5.304,0,9.615,4.311,9.615,9.615v2.793C174.15,147.986,169.858,152.297,164.535,152.297z"/>
		<path fill="none" stroke="#005D91" stroke-width="1.3119" stroke-miterlimit="10" d="M20.016,110.015
			c0,0,13.138,3.224,13.138,31.149"/>
		<path fill="#D93963" d="M22.097,105.048c0,0,0-0.019-0.019-0.019c-0.281-0.675-0.15-1.462,0.375-1.968l-1.837-1.837
			c-0.525,0.525-1.293,0.656-1.968,0.375c0,0-0.019,0-0.019-0.019c-0.675-0.281-1.125-0.937-1.125-1.649H14.9
			c0,0.731-0.45,1.387-1.125,1.649c0,0-0.019,0-0.019,0.019c-0.675,0.281-1.462,0.15-1.968-0.375l-1.837,1.837
			c0.525,0.525,0.656,1.293,0.375,1.968c0,0,0,0.019-0.019,0.019c-0.281,0.675-0.937,1.125-1.649,1.125v2.605
			c0.731,0,1.387,0.45,1.649,1.125c0,0,0,0.019,0.019,0.019c0.281,0.675,0.15,1.462-0.375,1.968l1.837,1.837
			c0.525-0.525,1.293-0.656,1.968-0.375c0,0,0.019,0,0.019,0.019c0.675,0.281,1.125,0.937,1.125,1.649h2.605
			c0-0.731,0.45-1.387,1.125-1.649c0,0,0.019,0,0.019-0.019c0.675-0.281,1.462-0.15,1.968,0.375l1.837-1.837
			c-0.525-0.525-0.656-1.293-0.375-1.968c0,0,0-0.019,0.019-0.019c0.281-0.675,0.937-1.125,1.649-1.125v-2.605
			C23.015,106.173,22.378,105.723,22.097,105.048z M16.193,110.858c-1.874,0-3.392-1.518-3.392-3.392
			c0-1.874,1.518-3.392,3.392-3.392s3.392,1.518,3.392,3.392C19.585,109.34,18.067,110.858,16.193,110.858z"/>
		<path fill="none" stroke="#005D91" stroke-width="1.3119" stroke-miterlimit="10" d="M140.883,119.611
			c0,0,6.691,1.649,6.691,15.837"/>
		<path fill="#D93963" d="M141.951,117.081C141.951,117.062,141.951,117.062,141.951,117.081c-0.15-0.356-0.075-0.75,0.187-1.012
			l-0.937-0.937c-0.262,0.262-0.656,0.337-1.012,0.187c0,0,0,0-0.019,0c-0.337-0.15-0.562-0.469-0.562-0.843h-1.331
			c0,0.375-0.225,0.693-0.562,0.843c0,0,0,0-0.019,0c-0.337,0.15-0.731,0.075-1.012-0.187l-0.937,0.937
			c0.262,0.262,0.337,0.656,0.187,1.012c0,0,0,0,0,0.019c-0.15,0.337-0.469,0.562-0.843,0.562v1.331
			c0.375,0,0.693,0.225,0.843,0.562c0,0,0,0,0,0.019c0.15,0.337,0.075,0.731-0.187,1.012l0.937,0.937
			c0.262-0.262,0.656-0.337,1.012-0.187c0,0,0,0,0.019,0c0.337,0.15,0.562,0.469,0.562,0.843h1.331c0-0.375,0.225-0.693,0.562-0.843
			c0,0,0,0,0.019,0c0.337-0.15,0.731-0.075,1.012,0.187l0.937-0.937c-0.262-0.262-0.337-0.656-0.187-1.012c0,0,0,0,0-0.019
			c0.15-0.337,0.469-0.562,0.843-0.562v-1.331C142.42,117.643,142.082,117.418,141.951,117.081z M138.952,120.023
			c-0.956,0-1.724-0.768-1.724-1.724s0.768-1.724,1.724-1.724c0.956,0,1.724,0.768,1.724,1.724S139.908,120.023,138.952,120.023z"/>
		<path fill="none" stroke="#005D91" stroke-width="1.3119" stroke-miterlimit="10" d="M41.251,113.426
			c0,0-8.977,2.212-8.977,21.291"/>
		<path fill="#D93963" d="M38.702,110.802v1.78c0.506,0,0.937,0.3,1.125,0.768v0.019c0.187,0.469,0.094,0.993-0.262,1.349
			l1.256,1.256c0.356-0.356,0.881-0.45,1.349-0.262h0.019c0.469,0.187,0.768,0.637,0.768,1.125h1.78c0-0.506,0.3-0.937,0.768-1.125
			h0.019c0.469-0.187,0.993-0.094,1.349,0.262l1.256-1.256c-0.356-0.356-0.45-0.881-0.262-1.349v-0.019
			c0.187-0.469,0.637-0.768,1.125-0.768v-1.78c-0.506,0-0.937-0.3-1.125-0.768v-0.019c-0.187-0.469-0.094-0.993,0.262-1.349
			l-1.256-1.256c-0.356,0.356-0.881,0.45-1.349,0.262h-0.019c-0.469-0.187-0.768-0.637-0.768-1.125h-1.78
			c0,0.506-0.3,0.937-0.768,1.125h-0.019c-0.469,0.187-0.993,0.094-1.349-0.262l-1.256,1.256c0.356,0.356,0.45,0.881,0.262,1.349
			v0.019C39.639,110.502,39.189,110.802,38.702,110.802z M41.532,111.683c0-1.274,1.031-2.324,2.324-2.324s2.324,1.031,2.324,2.324
			s-1.031,2.324-2.324,2.324S41.532,112.976,41.532,111.683z"/>
		<path fill="none" stroke="#005D91" stroke-width="1.3119" stroke-miterlimit="10" d="M153.908,111.233
			c-2.736,3.149-6.072,9.446-6.072,21.459"/>
		<g>
			<g>
				<g>
					<path fill="#FFFFFF" d="M51.671,89.924H16.493c-2.586,0-4.685-2.099-4.685-4.685V22.322c0-2.062,1.687-3.748,3.748-3.748
						h37.053c2.062,0,3.748,1.687,3.748,3.748v62.898C56.357,87.824,54.258,89.924,51.671,89.924z"/>
				</g>
			</g>
			<path fill="#005D91" d="M52.608,95.752H15.556c-2.062,0-3.748-1.687-3.748-3.748V51.821h44.549v40.164
				C56.357,94.066,54.67,95.752,52.608,95.752z"/>
			<g>
				
					<line fill="none" stroke="#FFFFFF" stroke-width="0.2149" stroke-miterlimit="10" x1="16.943" y1="61.848" x2="50.097" y2="61.848"/>
				<g>
					<text transform="matrix(1 0 0 1 17.0547 60.2698)" fill="#FFFFFF" font-family="'SFUIText-Heavy'" font-size="2.5707px">S</text>
					<text transform="matrix(1 0 0 1 22.0508 60.2698)" fill="#FFFFFF" font-family="'SFUIText-Heavy'" font-size="2.5707px">M</text>
					<text transform="matrix(1 0 0 1 27.8027 60.2698)" fill="#FFFFFF" font-family="'SFUIText-Heavy'" font-size="2.5707px">T</text>
					<text transform="matrix(1 0 0 1 32.7558 60.2698)" fill="#FFFFFF" font-family="'SFUIText-Heavy'" font-size="2.5707px">W</text>
					<text transform="matrix(1 0 0 1 38.6289 60.2698)" fill="#FFFFFF" font-family="'SFUIText-Heavy'" font-size="2.5707px">T</text>
					<text transform="matrix(1 0 0 1 44.1211 60.2698)" fill="#FFFFFF" font-family="'SFUIText-Heavy'" font-size="2.5707px">F</text>
					<text transform="matrix(1 0 0 1 49.3242 60.2698)" fill="#FFFFFF" font-family="'SFUIText-Heavy'" font-size="2.5707px">S</text>
				</g>
				<g>
					<text transform="matrix(1 0 0 1 17.0547 66.0584)" fill="#FFFFFF" font-family="'SFUIText-Light'" font-size="2.1423px">1</text>
					<text transform="matrix(1 0 0 1 22.6172 66.0584)" fill="#FFFFFF" font-family="'SFUIText-Light'" font-size="2.1423px">2</text>
					<text transform="matrix(1 0 0 1 28.0098 66.0584)" fill="#FFFFFF" font-family="'SFUIText-Light'" font-size="2.1423px">3</text>
					<text transform="matrix(1 0 0 1 33.3965 66.0584)" fill="#FFFFFF" font-family="'SFUIText-Light'" font-size="2.1423px">4</text>
					<text transform="matrix(1 0 0 1 38.8379 66.0584)" fill="#FFFFFF" font-family="'SFUIText-Light'" font-size="2.1423px">5</text>
					<text transform="matrix(1 0 0 1 44.2344 66.0584)" fill="#FFFFFF" font-family="'SFUIText-Light'" font-size="2.1423px">6</text>
					<text transform="matrix(1 0 0 1 49.8945 66.0584)" fill="#FFFFFF" font-family="'SFUIText-Light'" font-size="2.1423px">7</text>
				</g>
				<g>
					<text transform="matrix(1 0 0 1 17.0547 70.8914)" fill="#FFFFFF" font-family="'SFUIText-Light'" font-size="2.1423px">8</text>
					<text transform="matrix(1 0 0 1 22.584 70.8914)" fill="#FFFFFF" font-family="'SFUIText-Light'" font-size="2.1423px">9</text>
					<text transform="matrix(1 0 0 1 27.5234 70.8914)" fill="#FFFFFF" font-family="'SFUIText-Light'" font-size="2.1423px">10</text>
					<text transform="matrix(1 0 0 1 33.1269 70.8914)" fill="#FFFFFF" font-family="'SFUIText-Light'" font-size="2.1423px">11</text>
					<text transform="matrix(1 0 0 1 38.3769 70.8914)" fill="#FFFFFF" font-family="'SFUIText-Light'" font-size="2.1423px">12</text>
					<text transform="matrix(1 0 0 1 43.7695 70.8914)" fill="#FFFFFF" font-family="'SFUIText-Light'" font-size="2.1423px">13</text>
					<text transform="matrix(1 0 0 1 48.7812 70.8914)" fill="#FFFFFF" font-family="'SFUIText-Light'" font-size="2.1423px">14</text>
				</g>
				<g>
					<text transform="matrix(1 0 0 1 17.0547 75.7249)" fill="#FFFFFF" font-family="'SFUIText-Light'" font-size="2.1423px">15</text>
					<text transform="matrix(1 0 0 1 22.1055 75.7249)" fill="#FFFFFF" font-family="'SFUIText-Light'" font-size="2.1423px">16</text>
					<text transform="matrix(1 0 0 1 27.5859 75.7249)" fill="#FFFFFF" font-family="'SFUIText-Light'" font-size="2.1423px">17</text>
					<text transform="matrix(1 0 0 1 32.9258 75.7249)" fill="#FFFFFF" font-family="'SFUIText-Light'" font-size="2.1423px">18</text>
					<text transform="matrix(1 0 0 1 38.3437 75.7249)" fill="#FFFFFF" font-family="'SFUIText-Light'" font-size="2.1423px">19</text>
					<text transform="matrix(1 0 0 1 43.5976 75.7249)" fill="#FFFFFF" font-family="'SFUIText-Light'" font-size="2.1423px">20</text>
					<text transform="matrix(1 0 0 1 48.875 75.7249)" fill="#FFFFFF" font-family="'SFUIText-Light'" font-size="2.1423px">21</text>
				</g>
				<g>
					<text transform="matrix(1 0 0 1 17.0547 80.5589)" fill="#FFFFFF" font-family="'SFUIText-Light'" font-size="2.1423px">22</text>
					<text transform="matrix(1 0 0 1 21.957 80.5589)" fill="#FFFFFF" font-family="'SFUIText-Light'" font-size="2.1423px">23</text>
					<text transform="matrix(1 0 0 1 27.3437 80.5589)" fill="#FFFFFF" font-family="'SFUIText-Light'" font-size="2.1423px">24</text>
					<text transform="matrix(1 0 0 1 32.7851 80.5589)" fill="#FFFFFF" font-family="'SFUIText-Light'" font-size="2.1423px">25</text>
					<text transform="matrix(1 0 0 1 38.1816 80.5589)" fill="#FFFFFF" font-family="'SFUIText-Light'" font-size="2.1423px">26</text>
					<text transform="matrix(1 0 0 1 43.6601 80.5589)" fill="#FFFFFF" font-family="'SFUIText-Light'" font-size="2.1423px">27</text>
					<text transform="matrix(1 0 0 1 48.4785 80.5589)" fill="#FFFFFF" font-family="'SFUIText-Light'" font-size="2.1423px">28</text>
				</g>
				<g>
					<text transform="matrix(1 0 0 1 17.0547 85.3919)" fill="#FFFFFF" font-family="'SFUIText-Light'" font-size="2.1423px">29</text>
					<text transform="matrix(1 0 0 1 21.9297 85.3919)" fill="#FFFFFF" font-family="'SFUIText-Light'" font-size="2.1423px">30</text>
					<text transform="matrix(1 0 0 1 27.5332 85.3919)" fill="#FFFFFF" font-family="'SFUIText-Light'" font-size="2.1423px">31</text>
				</g>
			</g>
			<g>
				<g>
					<path fill="#005D91" d="M28.956,29.2c2.043,0,3.561,1.293,3.561,3.074c0,1.143-0.562,2.08-2.361,3.917l-2.399,2.436v0.131
						h4.929v1.499h-7.272v-1.218l3.655-3.805c1.443-1.499,1.799-2.08,1.799-2.868c0-0.993-0.843-1.724-1.968-1.724
						c-1.181,0-1.987,0.787-1.987,1.93v0.019H25.32v-0.019C25.339,30.587,26.838,29.2,28.956,29.2z"/>
					<path fill="#005D91" d="M34.71,37.353c0-1.368,0.9-2.474,2.287-2.755v-0.112c-1.125-0.281-1.855-1.218-1.855-2.38
						c0-1.706,1.499-2.905,3.617-2.905s3.617,1.199,3.617,2.905c0,1.162-0.712,2.08-1.855,2.38v0.131
						c1.387,0.262,2.305,1.349,2.305,2.755c0,1.874-1.668,3.149-4.067,3.149C36.359,40.52,34.71,39.227,34.71,37.353z M41.12,37.221
						c0-1.125-0.956-1.912-2.343-1.912c-1.387,0-2.343,0.787-2.343,1.912c0,1.125,0.956,1.893,2.343,1.893
						C40.164,39.114,41.12,38.346,41.12,37.221z M40.745,32.274c0-1.012-0.787-1.706-1.968-1.706s-1.968,0.693-1.968,1.706
						c0,0.993,0.787,1.668,1.968,1.668C39.939,33.942,40.745,33.267,40.745,32.274z"/>
				</g>
				<rect x="25.339" y="44.943" fill="#005D91" width="17.505" height="1.912"/>
				<g>
					<polygon fill="#62B5E5" points="49.535,47.586 49.535,44.231 51.222,45.899 					"/>
					<polygon fill="#62B5E5" points="18.629,44.231 18.629,47.586 16.943,45.899 					"/>
				</g>
			</g>
		</g>
		<path fill="#D93963" d="M151.716,106.416v2.099c0.581,0,1.106,0.356,1.331,0.9v0.019c0.225,0.544,0.112,1.181-0.3,1.593
			l1.481,1.481c0.412-0.412,1.05-0.525,1.593-0.3h0.019c0.544,0.225,0.9,0.75,0.9,1.331h2.099c0-0.581,0.356-1.106,0.9-1.331h0.019
			c0.544-0.225,1.181-0.112,1.593,0.3l1.481-1.481c-0.412-0.412-0.525-1.05-0.3-1.593v-0.019c0.225-0.544,0.75-0.9,1.331-0.9v-2.099
			c-0.581,0-1.106-0.356-1.331-0.9v-0.019c-0.225-0.544-0.112-1.181,0.3-1.593l-1.481-1.481c-0.412,0.412-1.05,0.525-1.593,0.3
			h-0.019c-0.544-0.225-0.9-0.75-0.9-1.331h-2.099c0,0.581-0.356,1.106-0.9,1.331h-0.019c-0.544,0.225-1.181,0.112-1.593-0.3
			l-1.481,1.481c0.412,0.412,0.525,1.05,0.3,1.593v0.019C152.821,106.042,152.297,106.416,151.716,106.416z M154.883,107.466
			c0-1.424,1.162-2.568,2.568-2.568c1.406,0,2.568,1.162,2.568,2.568s-1.162,2.568-2.568,2.568
			C156.045,110.034,154.883,108.872,154.883,107.466z"/>
		<g>
			<path fill="#4B4F54" d="M52.571,85.107c0,0,1.031,7.89,0.45,19.96c-0.6,12.07,2.568,37.109,2.568,37.109h7.159l5.21-62.785
				L52.571,85.107z"/>
			<path fill="#4B4F54" d="M78.21,85.107c0,0-0.319,7.89,0.262,19.96c0.581,12.07-0.918,37.109-0.918,37.109h-7.159l-6.86-62.785
				L78.21,85.107z"/>
			<path fill="#C1C6C8" d="M72.419,142.363c0-2.155,1.743-3.898,3.898-3.898s3.898,1.743,3.898,3.898H72.419z"/>
			<path fill="#C1C6C8" d="M57.819,142.363c0-2.155,1.743-3.898,3.898-3.898s3.898,1.743,3.898,3.898H57.819z"/>
			<path fill="#E16182" d="M65.203,45.393c0.319-0.019,0.637,0.037,0.918,0.169c5.416,2.511,10.196,4.273,11.32,6.391
				c1.162,2.174,3.505,23.596,2.905,30.381l-0.431,4.76c-0.094,1.106-1.106,1.893-2.193,1.724c0,0,1.068,2.174-2.942,4.985
				c-1.387,0.975-16.024,3.73-21.984-0.956c-0.487-0.394-0.768-0.975-0.75-1.612c0.281-5.997,1.893-40.126,1.556-41.607
				c-0.319-1.406,3.861-3.261,5.042-3.767c0.206-0.075,0.412-0.131,0.618-0.15L65.203,45.393z"/>
			<g>
				<path fill="#4B4F54" d="M60.311,31.899c-0.562,0.806-1.78,6.185,0.731,8.79c2.511,2.605,2.511,0.637,2.511,0.637l-0.618-6.541
					L60.311,31.899z"/>
				<path fill="#FFFFFF" d="M63.516,38.964c-0.787-1.687-1.799-3.336-2.511-2.155c-0.693,1.181,0.918,4.498,2.005,3.973
					C64.097,40.276,63.516,38.964,63.516,38.964z"/>
				<path fill="#FFFFFF" d="M72.737,33.848c0.281,2.718,1.874,13.176-2.568,11.957c-4.423-1.199-6.466-0.937-7.403-6.222
					s1.499-8.303,4.311-8.04C69.889,31.786,72.737,33.848,72.737,33.848z"/>
				<path fill="#FFFFFF" d="M70.282,43.762l0.431,4.236c0.075,0.825-0.169,1.649-0.693,2.287l0,0
					c-0.675,0.825-1.93,0.918-2.699,0.169l-5.117-4.873c0,0,0.506-1.593,0.562-5.997C62.842,35.179,70.282,43.762,70.282,43.762z"/>
				<path fill="#4B4F54" d="M66.421,34.391c2.586,0.675,6.204,1.162,6.953-0.825c0.75-1.987-0.506-2.193-2.23-3.936
					s-4.611-1.499-5.941-0.956c-1.312,0.562-2.718-1.574-4.704,1.874c-1.499,2.605,2.062,6.635,2.062,6.635s0.937,3.205,0.937,1.762
					C63.516,37.521,63.591,33.66,66.421,34.391z"/>
			</g>
			<g>
				<path fill="#4B4F54" d="M97.383,83.439c0,0,1.068,8.115,0.45,20.541c-0.618,12.426,2.643,38.196,2.643,38.196h7.366l5.36-64.603
					L97.383,83.439z"/>
				<path fill="#4B4F54" d="M123.771,83.439c0,0-0.337,8.115,0.281,20.541s-0.956,38.196-0.956,38.196h-7.366l-7.066-64.622
					L123.771,83.439z"/>
				<polygon fill="#F3C0CD" points="102.293,82.127 119.573,82.127 116.856,48.373 111.702,45.843 107.054,46.742 101.993,81.415 
									"/>
				<path fill="#E16182" d="M110.465,43.687c0,0,9.708,2.811,12.351,4.554c2.661,1.743,3.711,5.679,4.254,11.151
					c0.544,5.473,2.343,21.534-4.854,29.256l-5.454-4.479l1.218-1.968c0,0-2.043-11.076-2.586-19.567
					C114.85,54.145,116.368,46.724,110.465,43.687z"/>
				<path fill="#FFFFFF" d="M107.129,45.73l0.525,4.404c0,0,0.675,2.493,2.043,2.268c1.368-0.225,4.142-3.411,4.067-5.454
					l-1.481-4.779L107.129,45.73z"/>
				<path fill="#E16182" d="M111.439,43.687c0,0-9.708,2.811-12.351,4.554c-2.661,1.743-3.711,5.679-4.254,11.151
					s-2.343,21.516,4.854,29.256l5.454-4.479l-1.218-1.968c0,0,2.043-11.076,2.586-19.567
					C107.054,54.145,105.517,46.724,111.439,43.687z"/>
				<path fill="#FFFFFF" d="M106.042,32.798c-1.556,1.649-1.912,5.36-1.612,9.408c0.3,4.048,1.087,5.96,4.123,5.866
					c3.036-0.094,5.173-2.624,6.297-7.684C115.937,35.328,110.896,27.644,106.042,32.798z"/>
				<path fill="#4B4F54" d="M109.321,37.596c2.868,0.843,4.442-0.918,4.742,0.562c0.3,1.462-0.225,5.341-0.225,5.341
					s2.38-0.469,2.605-7.066c0.112-3.542-0.806-6.972-4.742-6.916c-3.936,0.056-7.572,2.474-7.684,5.06
					c-0.094,2.586,0.375,3.167,0.375,3.167s0.581-2.961,2.099-2.305C108.009,36.078,107.597,37.09,109.321,37.596z"/>
				<path fill="#FFFFFF" d="M113.257,40.932c0.525-1.406,2.23-2.961,2.268-1.518c0.037,1.443-0.881,4.292-2.005,3.111
					C112.395,41.345,113.257,40.932,113.257,40.932z"/>
				<ellipse fill="#FFFFFF" cx="103.043" cy="87.094" rx="3.449" ry="4.273"/>
				<polygon fill="#4B4F54" points="99.688,88.649 106.641,84.245 108.459,87.993 101.487,93.353 				"/>
				<ellipse fill="#FFFFFF" cx="119.161" cy="87.094" rx="3.449" ry="4.273"/>
				<polygon fill="#4B4F54" points="122.516,88.649 115.544,84.245 113.726,87.993 120.698,93.353 				"/>
				<path fill="#C1C6C8" d="M115.469,142.363c0-2.212,1.799-4.011,4.011-4.011c2.212,0,4.011,1.799,4.011,4.011H115.469z"/>
				<path fill="#C1C6C8" d="M100.438,142.363c0-2.212,1.799-4.011,4.011-4.011c2.212,0,4.011,1.799,4.011,4.011H100.438z"/>
			</g>
			<g>
				<path fill="#4B4F54" d="M77.404,83.907c-2.268,14.094,2.38,16.249,3.411,26.838c1.481,15.181,0.918,31.618,0.918,31.618h15.462
					c0,0,6.297-37.371-0.825-57.013L77.404,83.907z"/>
				<path fill="#4B4F54" d="M80.29,61.323c-0.075-2.343-0.993-20.616,8.04-20.016c0,0,3.017-1.687,5.079,1.443
					c4.704,7.122,2.418,23.727,2.418,23.727L80.29,61.323z"/>
				<path fill="#F3C0CD" d="M89.08,59.187c1.218,0.525,7.74,2.118,9.09,7.74c1.368,5.604-0.281,23.727-0.281,23.727l-21.197,0.506
					l-0.881-18.236l10.533-14.787L89.08,59.187z"/>
				<path fill="#4B4F54" d="M94.347,67.996h15.012c0.169,0,0.281,0.169,0.206,0.319l-7.309,15.724
					c-0.037,0.075-0.112,0.131-0.206,0.131H86.981c-0.169,0-0.281-0.169-0.206-0.319l7.366-15.724
					C94.178,68.033,94.272,67.996,94.347,67.996z"/>
				<path fill="#FFFFFF" d="M88.331,76.486c1.743-1.968,3.861-4.142,6.335-4.554c2.474-0.412,0.712,0.806,1.012,1.574
					c0.3,0.768,2.08,2.418-0.506,4.048c-2.586,1.631-4.648,1.574-5.604,3.748C88.612,83.476,88.331,76.486,88.331,76.486z"/>
				<path fill="#F3C0CD" d="M86.344,58.137c-4.479,0.675-10.008,1.593-12.051,6.072c-2.043,4.479-3.336,20.091-1.518,21.16
					s7.347,2.961,18.573-4.011c0,0-3.111-1.893-3.036-4.854c0,0-7.665,1.218-10.383,3.111L86.344,58.137z"/>
				<path fill="#FFFFFF" d="M85.519,47.436c0.806-2.511,6.447-4.011,7.815-1.593s1.443,6.747,0.3,9.558
					c-0.618,1.556-2.193,5.379-4.554,3.786C86.737,57.594,83.251,54.576,85.519,47.436z"/>
				<path fill="#FFFFFF" d="M89.83,57.837c0,0,0.45,5.154,1.143,7.197c0.675,2.043-3.505,0.581-5.098-3.055
					c-1.593-3.636-0.825-8.003-0.825-8.003L89.83,57.837z"/>
				<path fill="#4B4F54" d="M85.051,53.977c0,2.961,1.274,12.988,3.167,17.467c1.893,4.479-6.447,5.754-7.197-0.825
					c-0.75-6.578-0.787-11.133-0.787-11.133L85.051,53.977z"/>
				<path fill="#FFFFFF" d="M85.313,50.903c-0.562-1.612-2.08-1.762-1.687,0.862c0.45,3.074,2.005,2.08,2.005,2.08L85.313,50.903z"
					/>
				<path fill="#C1C6C8" d="M82.221,142.363c0-2.212,6.354-4.011,8.565-4.011s4.011,1.799,4.011,4.011H82.221z"/>
				<path fill="#C1C6C8" d="M90.261,142.363c0-2.212,6.354-4.011,8.565-4.011s4.011,1.799,4.011,4.011H90.261z"/>
			</g>
			<path fill="#FFFFFF" d="M59.674,70.376c2.005-1.78,5.772-2.999,6.766-1.387c0.656,1.068-1.518,0.506-1.612,0.825
				c-0.244,0.993,1.593,1.649,3.786,0.956c2.212-0.693,3.636-0.506,1.012,2.043s-3.973,1.574-7.778,1.499s-3.092-0.394-3.092-0.394
				L59.674,70.376z"/>
			<path fill="#E16182" d="M60.049,68.97c0,0-0.637,4.892-0.112,6.466c0.525,1.574-5.716-0.806-10.121-1.631
				c-4.404-0.825,0.356-18.704,1.312-22.19c0.956-3.486,7.815-5.847,7.815-5.847L60.049,68.97z"/>
			<path fill="#4B4F54" d="M70.226,70.826c0.412-1.031,1.237-2.399-1.499-1.743c-2.736,0.637-4.254-0.037-3.861,1.368
				C65.241,71.838,70.226,70.826,70.226,70.826z"/>
		</g>
	</g>
	<g>
		<g>
			<g>
				<polygon fill="#FFFFFF" points="134.848,41.495 149.748,15.799 103.474,13.813 				"/>
			</g>
		</g>
		<polygon fill="#62B5E5" points="107.391,15.012 145.212,23.634 145.418,35.666 142.813,27.775 		"/>
		<polygon fill="#005D91" points="145.418,35.666 139.571,33.361 142.813,27.775 		"/>
	</g>
</g>
</svg>
