<?xml version="1.0" encoding="utf-8"?>
<!-- Generator: Adobe Illustrator 24.0.0, SVG Export Plug-In . SVG Version: 6.00 Build 0)  -->
<svg version="1.1" id="Layer_1" xmlns="http://www.w3.org/2000/svg" xmlns:xlink="http://www.w3.org/1999/xlink" x="0px" y="0px"
	 viewBox="0 0 1200 900" style="enable-background:new 0 0 1200 900;" xml:space="preserve">
<style type="text/css">
	.st0{fill:#62B5E5;}
	.st1{fill:url(#SVGID_1_);}
	.st2{fill:#A1D3EF;}
	.st3{fill:#FFFFFF;}
	.st4{fill:#005D91;}
	.st5{fill:none;stroke:#005D91;stroke-width:12;stroke-miterlimit:10;}
	.st6{fill:#D93963;}
	.st7{fill:none;stroke:#005D91;stroke-width:9.8034;stroke-miterlimit:10;}
	.st8{fill:none;stroke:#FFFFFF;stroke-width:1.364;stroke-miterlimit:10;}
	.st9{fill:#4B4F54;}
	.st10{fill:#E16182;}
	.st11{fill:#F3C0CD;}
	.st12{fill:#C1C6C8;}
	.st13{fill:#FFE07F;}
	.st14{fill:url(#SVGID_2_);}
	.st15{fill:none;stroke:#005D91;stroke-width:10.0882;stroke-miterlimit:10;}
	.st16{fill:none;stroke:#005D91;stroke-width:8.2415;stroke-miterlimit:10;}
	.st17{fill:none;stroke:#FFFFFF;stroke-width:1.1467;stroke-miterlimit:10;}
	.st18{fill:url(#SVGID_3_);}
	.st19{fill:none;stroke:#005D91;stroke-width:7;stroke-miterlimit:10;}
	.st20{font-family:'SFUIText-Heavy';}
	.st21{font-size:13.7164px;}
	.st22{font-family:'SFUIText-Light';}
	.st23{font-size:11.4303px;}
	.st24{fill:url(#SVGID_4_);}
	.st25{fill:none;stroke:#005D91;stroke-width:3.0606;stroke-miterlimit:10;}
	.st26{fill:none;stroke:#FFFFFF;stroke-width:0.5014;stroke-miterlimit:10;}
	.st27{fill:url(#SVGID_5_);}
	.st28{fill:url(#SVGID_6_);}
	.st29{fill:none;stroke:#005D91;stroke-width:3.0719;stroke-miterlimit:10;}
	.st30{fill:none;stroke:#FFFFFF;stroke-width:0.5032;stroke-miterlimit:10;}
</style>
<g>
	<radialGradient id="SVGID_1_" cx="593.9576" cy="459.5207" r="440.4793" gradientUnits="userSpaceOnUse">
		<stop  offset="0" style="stop-color:#FFFFFF;stop-opacity:0"/>
		<stop  offset="0.4292" style="stop-color:#B6DCF3;stop-opacity:0.1717"/>
		<stop  offset="0.8162" style="stop-color:#79C0E9;stop-opacity:0.3265"/>
		<stop  offset="1" style="stop-color:#62B5E5;stop-opacity:0.4"/>
	</radialGradient>
	<circle class="st1" cx="594" cy="459.5" r="440.5"/>
	<path class="st0" d="M442.1,0c-59.4,0-107.8,30.4-132.8,75.2c4.7,4,9.3,8.3,13.6,13.1l7.7,8.6l-7.9,8.5L291,139.6
		c-0.1,2.4-0.2,4.8-0.2,7.3v0.8c0,34.6,11.6,66.3,31.6,91.2h-96.9c0-0.1,0-0.2,0-0.4c-34.9,0-57.2-27.8-57.2-62.3v-0.9
		c0-33.2,22.7-61.4,54.7-61.4c22.7,0,37,9.7,51.3,24.8l39.1-42.1c-21-23.6-47.5-37.9-90-37.9c-69,0-118.2,53-118.2,117.4v0.8
		c0,62.9,47.5,114.1,112.9,116.3v0.2h229l0-0.1c84.6-2.9,145.5-67.8,145.5-146.7V146C592.6,65.3,529.7,0,442.1,0z M527.3,147.6
		c0,48.7-34.9,88.4-85.2,88.4c-50.3,0-86-40.5-86-89.2V146c0-48.7,34.9-88.4,85.2-88.4c50.3,0,86,40.6,86,89.2V147.6z"/>
	<path class="st0" d="M903.4,220.3c-75.6,0-137.1,38.7-168.9,95.6c6,5.1,11.8,10.5,17.4,16.7l9.8,11l-10,10.8l-40.4,43.4
		c-0.2,3.1-0.2,6.1-0.2,9.2v1c0,43.9,14.7,84.3,40.2,116.1H627.9c0-0.2,0-0.3,0-0.5c-44.4,0-72.8-35.3-72.8-79.2v-1.1
		c0-42.3,28.9-78.1,69.6-78.1c28.9,0,47.1,12.3,65.3,31.6l49.8-53.5c-26.8-30-60.5-48.2-114.5-48.2c-87.8,0-150.4,67.4-150.4,149.3
		v1.1c0,80,60.4,145.1,143.6,147.9v0.3h291.3l0-0.2c107.6-3.6,185-86.2,185-186.6v-1C1094.8,303.4,1014.8,220.3,903.4,220.3z
		 M1011.7,408.1c0,61.9-44.4,112.4-108.3,112.4c-64,0-109.4-51.6-109.4-113.5v-1c0-61.9,44.4-112.5,108.3-112.5
		c64,0,109.4,51.6,109.4,113.5V408.1z"/>
	<g>
		<g>
			
				<image style="overflow:visible;opacity:0.1;" width="1164" height="750" xlink:href="EFD8D8B89106CCB7.png"  transform="matrix(0.24 0 0 0.24 641.1321 57.5979)">
			</image>
			<g>
				<polygon class="st3" points="824.7,221.4 904.2,84.3 657.3,73.7 				"/>
			</g>
		</g>
		<polygon class="st0" points="678.2,80.1 880,126.1 881.1,190.3 867.2,148.2 		"/>
		<polygon class="st4" points="881.1,190.3 849.9,178 867.2,148.2 		"/>
	</g>
	<path class="st4" d="M983.1,812.6H204.8c-28.3,0-51.3-23-51.3-51.3v-14.9c0-28.3,23-51.3,51.3-51.3h778.4c28.3,0,51.3,23,51.3,51.3
		v14.9C1034.4,789.6,1011.5,812.6,983.1,812.6z"/>
	<path class="st19" d="M212,587c0,0,70.1,17.2,70.1,166.2"/>
	<path class="st6" d="M223.1,560.5c0,0,0-0.1-0.1-0.1c-1.5-3.6-0.8-7.8,2-10.5l-9.8-9.8c-2.8,2.8-6.9,3.5-10.5,2c0,0-0.1,0-0.1-0.1
		c-3.6-1.5-6-5-6-8.8l-13.9,0c0,3.9-2.4,7.4-6,8.8c0,0-0.1,0-0.1,0.1c-3.6,1.5-7.8,0.8-10.5-2l-9.8,9.8c2.8,2.8,3.5,6.9,2,10.5
		c0,0,0,0.1-0.1,0.1c-1.5,3.6-5,6-8.8,6v13.9c3.9,0,7.4,2.4,8.8,6c0,0,0,0.1,0.1,0.1c1.5,3.6,0.8,7.8-2,10.5l9.8,9.8
		c2.8-2.8,6.9-3.5,10.5-2c0,0,0.1,0,0.1,0.1c3.6,1.5,6,5,6,8.8h13.9c0-3.9,2.4-7.4,6-8.8c0,0,0.1,0,0.1-0.1c3.6-1.5,7.8-0.8,10.5,2
		l9.8-9.8c-2.8-2.8-3.5-6.9-2-10.5c0,0,0-0.1,0.1-0.1c1.5-3.6,5-6,8.8-6v-13.9C228,566.5,224.6,564.1,223.1,560.5z M191.6,591.5
		c-10,0-18.1-8.1-18.1-18.1c0-10,8.1-18.1,18.1-18.1c10,0,18.1,8.1,18.1,18.1C209.7,583.4,201.6,591.5,191.6,591.5z"/>
	<path class="st19" d="M856.9,638.2c0,0,35.7,8.8,35.7,84.5"/>
	<path class="st6" d="M862.6,624.7C862.6,624.6,862.6,624.6,862.6,624.7c-0.8-1.9-0.4-4,1-5.4l-5-5c-1.4,1.4-3.5,1.8-5.4,1
		c0,0,0,0-0.1,0c-1.8-0.8-3-2.5-3-4.5l-7.1,0c0,2-1.2,3.7-3,4.5c0,0,0,0-0.1,0c-1.8,0.8-3.9,0.4-5.4-1l-5,5c1.4,1.4,1.8,3.5,1,5.4
		c0,0,0,0,0,0.1c-0.8,1.8-2.5,3-4.5,3v7.1c2,0,3.7,1.2,4.5,3c0,0,0,0,0,0.1c0.8,1.8,0.4,3.9-1,5.4l5,5c1.4-1.4,3.5-1.8,5.4-1
		c0,0,0,0,0.1,0c1.8,0.8,3,2.5,3,4.5h7.1c0-2,1.2-3.7,3-4.5c0,0,0,0,0.1,0c1.8-0.8,3.9-0.4,5.4,1l5-5c-1.4-1.4-1.8-3.5-1-5.4
		c0,0,0,0,0-0.1c0.8-1.8,2.5-3,4.5-3v-7.1C865.1,627.7,863.3,626.5,862.6,624.7z M846.6,640.4c-5.1,0-9.2-4.1-9.2-9.2
		s4.1-9.2,9.2-9.2s9.2,4.1,9.2,9.2S851.7,640.4,846.6,640.4z"/>
	<path class="st19" d="M325.3,605.2c0,0-47.9,11.8-47.9,113.6"/>
	<path class="st6" d="M311.7,591.2v9.5c2.7,0,5,1.6,6,4.1c0,0,0,0.1,0,0.1c1,2.5,0.5,5.3-1.4,7.2l6.7,6.7c1.9-1.9,4.7-2.4,7.2-1.4
		c0,0,0.1,0,0.1,0c2.5,1,4.1,3.4,4.1,6h9.5c0-2.7,1.6-5,4.1-6c0,0,0.1,0,0.1,0c2.5-1,5.3-0.5,7.2,1.4l6.7-6.7
		c-1.9-1.9-2.4-4.7-1.4-7.2c0,0,0-0.1,0-0.1c1-2.5,3.4-4.1,6-4.1v-9.5c-2.7,0-5-1.6-6-4.1c0,0,0-0.1,0-0.1c-1-2.5-0.5-5.3,1.4-7.2
		l-6.7-6.7c-1.9,1.9-4.7,2.4-7.2,1.4c0,0-0.1,0-0.1,0c-2.5-1-4.1-3.4-4.1-6l-9.5,0c0,2.7-1.6,5-4.1,6c0,0-0.1,0-0.1,0
		c-2.5,1-5.3,0.5-7.2-1.4l-6.7,6.7c1.9,1.9,2.4,4.7,1.4,7.2c0,0,0,0.1,0,0.1C316.7,589.6,314.3,591.2,311.7,591.2z M326.8,595.9
		c0-6.8,5.5-12.4,12.4-12.4s12.4,5.5,12.4,12.4s-5.5,12.4-12.4,12.4S326.8,602.8,326.8,595.9z"/>
	<path class="st19" d="M926.4,593.5c-14.6,16.8-32.4,50.4-32.4,114.5"/>
	<g>
		<g>
			
				<image style="overflow:visible;opacity:0.1;" width="1104" height="1699" xlink:href="EFD8D8B89106CCB5.png"  transform="matrix(0.24 0 0 0.24 154.581 85.6068)">
			</image>
			<g>
				<path class="st3" d="M380.9,479.8H193.2c-13.8,0-25-11.2-25-25V119.1c0-11,9-20,20-20h197.7c11,0,20,9,20,20v335.6
					C405.9,468.6,394.7,479.8,380.9,479.8z"/>
			</g>
		</g>
		<path class="st4" d="M385.9,510.9H188.2c-11,0-20-9-20-20V276.5h237.7v214.3C405.9,501.9,396.9,510.9,385.9,510.9z"/>
		<g>
			<line class="st17" x1="195.6" y1="330" x2="372.5" y2="330"/>
			<g>
				<text transform="matrix(1 0 0 1 196.1929 321.5816)" class="st3 st20 st21">S</text>
				<text transform="matrix(1 0 0 1 222.8487 321.5816)" class="st3 st20 st21">M</text>
				<text transform="matrix(1 0 0 1 253.5469 321.5816)" class="st3 st20 st21">T</text>
				<text transform="matrix(1 0 0 1 279.9776 321.5816)" class="st3 st20 st21">W</text>
				<text transform="matrix(1 0 0 1 311.3047 321.5816)" class="st3 st20 st21">T</text>
				<text transform="matrix(1 0 0 1 340.6197 321.5816)" class="st3 st20 st21">F</text>
				<text transform="matrix(1 0 0 1 368.3765 321.5816)" class="st3 st20 st21">S</text>
			</g>
			<g>
				<text transform="matrix(1 0 0 1 196.1929 352.4654)" class="st3 st22 st23">1</text>
				<text transform="matrix(1 0 0 1 225.8814 352.4654)" class="st3 st22 st23">2</text>
				<text transform="matrix(1 0 0 1 254.6553 352.4654)" class="st3 st22 st23">3</text>
				<text transform="matrix(1 0 0 1 283.3892 352.4654)" class="st3 st22 st23">4</text>
				<text transform="matrix(1 0 0 1 312.4244 352.4654)" class="st3 st22 st23">5</text>
				<text transform="matrix(1 0 0 1 341.2149 352.4654)" class="st3 st22 st23">6</text>
				<text transform="matrix(1 0 0 1 371.4268 352.4654)" class="st3 st22 st23">7</text>
			</g>
			<g>
				<text transform="matrix(1 0 0 1 196.1929 378.2525)" class="st3 st22 st23">8</text>
				<text transform="matrix(1 0 0 1 225.6973 378.2525)" class="st3 st22 st23">9</text>
				<text transform="matrix(1 0 0 1 252.046 378.2525)" class="st3 st22 st23">10</text>
				<text transform="matrix(1 0 0 1 281.9547 378.2525)" class="st3 st22 st23">11</text>
				<text transform="matrix(1 0 0 1 309.9713 378.2525)" class="st3 st22 st23">12</text>
				<text transform="matrix(1 0 0 1 338.7452 378.2525)" class="st3 st22 st23">13</text>
				<text transform="matrix(1 0 0 1 365.4886 378.2525)" class="st3 st22 st23">14</text>
			</g>
			<g>
				<text transform="matrix(1 0 0 1 196.1929 404.0425)" class="st3 st22 st23">15</text>
				<text transform="matrix(1 0 0 1 223.1495 404.0425)" class="st3 st22 st23">16</text>
				<text transform="matrix(1 0 0 1 252.3839 404.0425)" class="st3 st22 st23">17</text>
				<text transform="matrix(1 0 0 1 280.8917 404.0425)" class="st3 st22 st23">18</text>
				<text transform="matrix(1 0 0 1 309.7872 404.0425)" class="st3 st22 st23">19</text>
				<text transform="matrix(1 0 0 1 337.8214 404.0425)" class="st3 st22 st23">20</text>
				<text transform="matrix(1 0 0 1 365.9908 404.0425)" class="st3 st22 st23">21</text>
			</g>
			<g>
				<text transform="matrix(1 0 0 1 196.1929 429.8345)" class="st3 st22 st23">22</text>
				<text transform="matrix(1 0 0 1 222.3653 429.8345)" class="st3 st22 st23">23</text>
				<text transform="matrix(1 0 0 1 251.1002 429.8345)" class="st3 st22 st23">24</text>
				<text transform="matrix(1 0 0 1 280.1353 429.8345)" class="st3 st22 st23">25</text>
				<text transform="matrix(1 0 0 1 308.9249 429.8345)" class="st3 st22 st23">26</text>
				<text transform="matrix(1 0 0 1 338.1592 429.8345)" class="st3 st22 st23">27</text>
				<text transform="matrix(1 0 0 1 363.8643 429.8345)" class="st3 st22 st23">28</text>
			</g>
			<g>
				<text transform="matrix(1 0 0 1 196.1929 455.6226)" class="st3 st22 st23">29</text>
				<text transform="matrix(1 0 0 1 222.2017 455.6226)" class="st3 st22 st23">30</text>
				<text transform="matrix(1 0 0 1 252.1094 455.6226)" class="st3 st22 st23">31</text>
			</g>
		</g>
		<g>
			<g>
				<path class="st4" d="M259.7,155.8c10.9,0,19,6.9,19,16.4c0,6.1-3,11.1-12.6,20.9l-12.8,13v0.7h26.3v8h-38.8v-6.5l19.5-20.3
					c7.7-8,9.6-11.1,9.6-15.3c0-5.3-4.5-9.2-10.5-9.2c-6.3,0-10.6,4.2-10.6,10.3v0.1h-8.5v-0.1C240.4,163.2,248.4,155.8,259.7,155.8
					z"/>
				<path class="st4" d="M290.4,199.3c0-7.3,4.8-13.2,12.2-14.7V184c-6-1.5-9.9-6.5-9.9-12.7c0-9.1,8-15.5,19.3-15.5
					c11.3,0,19.3,6.4,19.3,15.5c0,6.2-3.8,11.1-9.9,12.7v0.7c7.4,1.4,12.3,7.2,12.3,14.7c0,10-8.9,16.8-21.7,16.8
					C299.2,216.2,290.4,209.3,290.4,199.3z M324.6,198.6c0-6-5.1-10.2-12.5-10.2s-12.5,4.2-12.5,10.2c0,6,5.1,10.1,12.5,10.1
					S324.6,204.6,324.6,198.6z M322.6,172.2c0-5.4-4.2-9.1-10.5-9.1c-6.3,0-10.5,3.7-10.5,9.1c0,5.3,4.2,8.9,10.5,8.9
					C318.3,181.1,322.6,177.5,322.6,172.2z"/>
			</g>
			<rect x="240.4" y="239.8" class="st4" width="93.4" height="10.2"/>
			<g>
				<polygon class="st0" points="369.5,253.9 369.5,236 378.5,244.9 				"/>
				<polygon class="st0" points="204.6,236 204.6,253.9 195.6,244.9 				"/>
			</g>
		</g>
	</g>
	<path class="st6" d="M914.7,567.8v11.2c3.1,0,5.9,1.9,7.1,4.8c0,0,0,0.1,0,0.1c1.2,2.9,0.6,6.3-1.6,8.5l7.9,7.9
		c2.2-2.2,5.6-2.8,8.5-1.6c0,0,0.1,0,0.1,0c2.9,1.2,4.8,4,4.8,7.1h11.2c0-3.1,1.9-5.9,4.8-7.1c0,0,0.1,0,0.1,0
		c2.9-1.2,6.3-0.6,8.5,1.6l7.9-7.9c-2.2-2.2-2.8-5.6-1.6-8.5c0,0,0-0.1,0-0.1c1.2-2.9,4-4.8,7.1-4.8v-11.2c-3.1,0-5.9-1.9-7.1-4.8
		c0,0,0-0.1,0-0.1c-1.2-2.9-0.6-6.3,1.6-8.5l-7.9-7.9c-2.2,2.2-5.6,2.8-8.5,1.6c0,0-0.1,0-0.1,0c-2.9-1.2-4.8-4-4.8-7.1l-11.2,0
		c0,3.1-1.9,5.9-4.8,7.1c0,0-0.1,0-0.1,0c-2.9,1.2-6.3,0.6-8.5-1.6l-7.9,7.9c2.2,2.2,2.8,5.6,1.6,8.5c0,0,0,0.1,0,0.1
		C920.6,565.8,917.8,567.8,914.7,567.8z M931.6,573.4c0-7.6,6.2-13.7,13.7-13.7s13.7,6.2,13.7,13.7s-6.2,13.7-13.7,13.7
		S931.6,580.9,931.6,573.4z"/>
	<g>
		<path class="st9" d="M385.7,454.1c0,0,5.5,42.1,2.4,106.5c-3.2,64.4,13.7,198,13.7,198H440l27.8-335L385.7,454.1z"/>
		<path class="st9" d="M522.5,454.1c0,0-1.7,42.1,1.4,106.5s-4.9,198-4.9,198h-38.2l-36.6-335L522.5,454.1z"/>
		<path class="st12" d="M491.6,759.6c0-11.5,9.3-20.8,20.8-20.8c11.5,0,20.8,9.3,20.8,20.8H491.6z"/>
		<path class="st12" d="M413.7,759.6c0-11.5,9.3-20.8,20.8-20.8c11.5,0,20.8,9.3,20.8,20.8H413.7z"/>
		<path class="st10" d="M453.1,242.2c1.7-0.1,3.4,0.2,4.9,0.9c28.9,13.4,54.4,22.8,60.4,34.1c6.2,11.6,18.7,125.9,15.5,162.1
			l-2.3,25.4c-0.5,5.9-5.9,10.1-11.7,9.2c0,0,5.7,11.6-15.7,26.6c-7.4,5.2-85.5,19.9-117.3-5.1c-2.6-2.1-4.1-5.2-4-8.6
			c1.5-32,10.1-214.1,8.3-222c-1.7-7.5,20.6-17.4,26.9-20.1c1.1-0.4,2.2-0.7,3.3-0.8L453.1,242.2z"/>
		<g>
			<path class="st9" d="M427,170.2c-3,4.3-9.5,33,3.9,46.9c13.4,13.9,13.4,3.4,13.4,3.4l-3.3-34.9L427,170.2z"/>
			<path class="st3" d="M444.1,207.9c-4.2-9-9.6-17.8-13.4-11.5c-3.7,6.3,4.9,24,10.7,21.2C447.2,214.9,444.1,207.9,444.1,207.9z"/>
			<path class="st3" d="M493.3,180.6c1.5,14.5,10,70.3-13.7,63.8c-23.6-6.4-34.5-5-39.5-33.2s8-44.3,23-42.9
				C478.1,169.6,493.3,180.6,493.3,180.6z"/>
			<path class="st3" d="M480.2,233.5l2.3,22.6c0.4,4.4-0.9,8.8-3.7,12.2l0,0c-3.6,4.4-10.3,4.9-14.4,0.9l-27.3-26c0,0,2.7-8.5,3-32
				C440.5,187.7,480.2,233.5,480.2,233.5z"/>
			<path class="st9" d="M459.6,183.5c13.8,3.6,33.1,6.2,37.1-4.4c4-10.6-2.7-11.7-11.9-21s-24.6-8-31.7-5.1c-7,3-14.5-8.4-25.1,10
				c-8,13.9,11,35.4,11,35.4s5,17.1,5,9.4C444.1,200.2,444.5,179.6,459.6,183.5z"/>
		</g>
		<g>
			<path class="st9" d="M624.8,445.2c0,0,5.7,43.3,2.4,109.6s14.1,203.8,14.1,203.8h39.3l28.6-344.7L624.8,445.2z"/>
			<path class="st9" d="M765.6,445.2c0,0-1.8,43.3,1.5,109.6S762,758.6,762,758.6h-39.3L685,413.8L765.6,445.2z"/>
			<polygon class="st11" points="651,438.2 743.2,438.2 728.7,258.1 701.2,244.6 676.4,249.4 649.4,434.4 			"/>
			<path class="st10" d="M694.6,233.1c0,0,51.8,15,65.9,24.3c14.2,9.3,19.8,30.3,22.7,59.5s12.5,114.9-25.9,156.1l-29.1-23.9
				l6.5-10.5c0,0-10.9-59.1-13.8-104.4S726.1,249.3,694.6,233.1z"/>
			<path class="st3" d="M676.8,244l2.8,23.5c0,0,3.6,13.3,10.9,12.1c7.3-1.2,22.1-18.2,21.7-29.1l-7.9-25.5L676.8,244z"/>
			<path class="st10" d="M699.8,233.1c0,0-51.8,15-65.9,24.3c-14.2,9.3-19.8,30.3-22.7,59.5S598.7,431.7,637.1,473l29.1-23.9
				l-6.5-10.5c0,0,10.9-59.1,13.8-104.4S668.2,249.3,699.8,233.1z"/>
			<path class="st3" d="M671,175c-8.3,8.8-10.2,28.6-8.6,50.2c1.6,21.6,5.8,31.8,22,31.3c16.2-0.5,27.6-14,33.6-41
				C723.8,188.5,696.9,147.5,671,175z"/>
			<path class="st9" d="M688.5,200.6c15.3,4.5,23.7-4.9,25.3,3c1.6,7.8-1.2,28.5-1.2,28.5s12.7-2.5,13.9-37.7
				c0.6-18.9-4.3-37.2-25.3-36.9c-21,0.3-40.4,13.2-41,27c-0.5,13.8,2,16.9,2,16.9s3.1-15.8,11.2-12.3
				C681.5,192.5,679.3,197.9,688.5,200.6z"/>
			<path class="st3" d="M709.5,218.4c2.8-7.5,11.9-15.8,12.1-8.1c0.2,7.7-4.7,22.9-10.7,16.6C704.9,220.6,709.5,218.4,709.5,218.4z"
				/>
			<ellipse class="st3" cx="655" cy="464.7" rx="18.4" ry="22.8"/>
			<polygon class="st9" points="637.1,473 674.2,449.5 683.9,469.5 646.7,498.1 			"/>
			<ellipse class="st3" cx="741" cy="464.7" rx="18.4" ry="22.8"/>
			<polygon class="st9" points="758.9,473 721.7,449.5 712,469.5 749.2,498.1 			"/>
			<path class="st12" d="M721.3,759.6c0-11.8,9.6-21.4,21.4-21.4c11.8,0,21.4,9.6,21.4,21.4H721.3z"/>
			<path class="st12" d="M641.1,759.6c0-11.8,9.6-21.4,21.4-21.4c11.8,0,21.4,9.6,21.4,21.4H641.1z"/>
		</g>
		<g>
			<path class="st9" d="M518.2,447.7c-12.1,75.2,12.7,86.7,18.2,143.2c7.9,81,4.9,168.7,4.9,168.7h82.5c0,0,33.6-199.4-4.4-304.2
				L518.2,447.7z"/>
			<path class="st9" d="M533.6,327.2c-0.4-12.5-5.3-110,42.9-106.8c0,0,16.1-9,27.1,7.7c25.1,38,12.9,126.6,12.9,126.6L533.6,327.2z
				"/>
			<path class="st11" d="M580.5,315.8c6.5,2.8,41.3,11.3,48.5,41.3c7.3,29.9-1.5,126.6-1.5,126.6l-113.1,2.7l-4.7-97.3l56.2-78.9
				L580.5,315.8z"/>
			<path class="st9" d="M608.6,362.8h80.1c0.9,0,1.5,0.9,1.1,1.7l-39,83.9c-0.2,0.4-0.6,0.7-1.1,0.7h-80.4c-0.9,0-1.5-0.9-1.1-1.7
				l39.3-83.9C607.7,363,608.2,362.8,608.6,362.8z"/>
			<path class="st3" d="M576.5,408.1c9.3-10.5,20.6-22.1,33.8-24.3s3.8,4.3,5.4,8.4s11.1,12.9-2.7,21.6s-24.8,8.4-29.9,20
				S576.5,408.1,576.5,408.1z"/>
			<path class="st11" d="M565.9,310.2c-23.9,3.6-53.4,8.5-64.3,32.4c-10.9,23.9-17.8,107.2-8.1,112.9c9.7,5.7,39.2,15.8,99.1-21.4
				c0,0-16.6-10.1-16.2-25.9c0,0-40.9,6.5-55.4,16.6L565.9,310.2z"/>
			<path class="st3" d="M561.5,253.1c4.3-13.4,34.4-21.4,41.7-8.5c7.3,12.9,7.7,36,1.6,51c-3.3,8.3-11.7,28.7-24.3,20.2
				C568,307.3,549.4,291.2,561.5,253.1z"/>
			<path class="st3" d="M584.5,308.6c0,0,2.4,27.5,6.1,38.4c3.6,10.9-18.7,3.1-27.2-16.3c-8.5-19.4-4.4-42.7-4.4-42.7L584.5,308.6z"
				/>
			<path class="st9" d="M559,288c0,15.8,6.8,69.3,16.9,93.2c10.1,23.9-34.4,30.7-38.4-4.4s-4.2-59.4-4.2-59.4L559,288z"/>
			<path class="st3" d="M560.4,271.6c-3-8.6-11.1-9.4-9,4.6c2.4,16.4,10.7,11.1,10.7,11.1L560.4,271.6z"/>
			<path class="st12" d="M543.9,759.6c0-11.8,33.9-21.4,45.7-21.4c11.8,0,21.4,9.6,21.4,21.4H543.9z"/>
			<path class="st12" d="M586.8,759.6c0-11.8,33.9-21.4,45.7-21.4c11.8,0,21.4,9.6,21.4,21.4H586.8z"/>
		</g>
		<path class="st3" d="M423.6,375.5c10.7-9.5,30.8-16,36.1-7.4c3.5,5.7-8.1,2.7-8.6,4.4c-1.3,5.3,8.5,8.8,20.2,5.1
			c11.8-3.7,19.4-2.7,5.4,10.9c-14,13.6-21.2,8.4-41.5,8c-20.3-0.4-16.5-2.1-16.5-2.1L423.6,375.5z"/>
		<path class="st10" d="M425.6,368c0,0-3.4,26.1-0.6,34.5c2.8,8.4-30.5-4.3-54-8.7c-23.5-4.4,1.9-99.8,7-118.4
			c5.1-18.6,41.7-31.2,41.7-31.2L425.6,368z"/>
		<path class="st9" d="M479.9,377.9c2.2-5.5,6.6-12.8-8-9.3c-14.6,3.4-22.7-0.2-20.6,7.3C453.3,383.3,479.9,377.9,479.9,377.9z"/>
	</g>
</g>
</svg>
