<?xml version="1.0" encoding="utf-8"?>
<!-- Generator: Adobe Illustrator 24.1.2, SVG Export Plug-In . SVG Version: 6.00 Build 0)  -->
<svg version="1.1" id="Layer_1" xmlns="http://www.w3.org/2000/svg" xmlns:xlink="http://www.w3.org/1999/xlink" x="0px" y="0px"
	 viewBox="0 0 399.184 331.522" enable-background="new 0 0 399.184 331.522" xml:space="preserve">
<g>
	<g>
		<circle fill-rule="evenodd" clip-rule="evenodd" fill="#00466D" cx="132.232" cy="136.355" r="132.232"/>
		<g>
			<defs>
				<circle id="SVGID_13_" cx="132.232" cy="136.355" r="132.232"/>
			</defs>
			<clipPath id="SVGID_2_">
				<use xlink:href="#SVGID_13_"  overflow="visible"/>
			</clipPath>
			<g clip-path="url(#SVGID_2_)">
				<path fill="#62B5E5" d="M172.456,148.979c15.831,4.724,61.591,79.302,65.228,119.608h-39.699L172.456,148.979z"/>
				<path fill="#62B5E5" d="M65.921,268.586H26.221c3.637-40.305,49.397-114.884,65.228-119.608L65.921,268.586z"/>
				<polygon fill-rule="evenodd" clip-rule="evenodd" fill="#85684D" points="155.924,172.599 107.785,172.829 112.776,90.508 
					150.146,90.329 				"/>
				<path fill-rule="evenodd" clip-rule="evenodd" fill="#62B5E5" d="M91.268,148.979h81.188c0,0,12.606,6.208,42.755,119.608H57.77
					C57.77,268.586,53.532,220.639,91.268,148.979z"/>
			</g>
		</g>
		<g>
			<g>
				<path fill="#252728" d="M88.996,78.957c0,0,1.239-12.943-2.36-16.707c-13.693-14.318,1.848-20.468-3.534-30.693
					c-4.053-7.701-1.383-18.21,8.485-25.158c19.862-13.984,31.322-0.275,45.83-3.013c8.354-1.577,24.578-6.543,36.467,3.394
					s0.397,22.15,4.49,30.176c4.093,8.026,7.752,15.737-0.995,22.892c-5.25,4.295-3.583,19.707-3.583,19.707L88.996,78.957z"/>
				<g>
					<g>
						<g>
							<g>
								<g>
									<path fill-rule="evenodd" clip-rule="evenodd" fill="#B28B67" d="M94.395,49.583c-1.009,31.067,16.616,71.698,38.67,70.387
										c22.64-1.346,37.142-33.533,33.636-71.269C162.2,0.257,95.782,6.85,94.395,49.583z"/>
									<g>
										<circle fill-rule="evenodd" clip-rule="evenodd" fill="#B28B67" cx="166.338" cy="79.117" r="11.117"/>
									</g>
									<g>
										<circle fill-rule="evenodd" clip-rule="evenodd" fill="#B28B67" cx="95.785" cy="80.061" r="11.117"/>
									</g>
								</g>
							</g>
						</g>
					</g>
				</g>
				<path fill="#252728" d="M95.453,40.656c0,0,4.185-16.193,19.323-6.894c9.037,5.551,29.533,19.982,51.987,5.324
					c0,0-12.328-30.645-41.44-30.648C87.306,8.434,95.453,40.656,95.453,40.656z"/>
				<path fill-rule="evenodd" clip-rule="evenodd" fill="#252728" d="M168.226,86.58c-1.727-4.125-18.647-1.558-35.567-1.558
					c-16.92,0-33.84-2.567-35.567,1.558c-3.45,8.242,4.419,45.801,35.567,45.801S171.676,94.822,168.226,86.58z"/>
				<path fill-rule="evenodd" clip-rule="evenodd" fill="#B28B67" d="M149.484,97.355c-2.54-3.476-11.628-0.754-17.515-0.749
					c-5.887-0.006-14.976-2.728-17.515,0.749c-2.54,3.476,7.078,11.494,17.505,11.505v0.001c0.003,0,0.007,0,0.01,0
					c0.003,0,0.006,0,0.01,0v-0.001C142.406,108.849,152.024,100.831,149.484,97.355z"/>
			</g>
		</g>
	</g>
	<rect x="163.885" y="192.569" fill="#DDDDDD" width="235.299" height="138.953"/>
	<polygon fill="#FBFBFB" points="281.534,276.222 163.885,192.569 399.184,192.569 	"/>
</g>
<g>
	<polygon id="Fill-10_29_" fill-rule="evenodd" clip-rule="evenodd" fill="#FFE07F" points="234.556,165.356 316.87,123.426 
		234.556,82.961 	"/>
	<polygon id="Fill-10_24_" fill-rule="evenodd" clip-rule="evenodd" fill="#A1D3EF" points="316.87,165.356 399.184,123.426 
		316.87,82.961 	"/>
</g>
</svg>
