<?xml version="1.0" encoding="utf-8"?>
<!-- Generator: Adobe Illustrator 24.2.3, SVG Export Plug-In . SVG Version: 6.00 Build 0)  -->
<svg version="1.1" id="Layer_1" xmlns="http://www.w3.org/2000/svg" xmlns:xlink="http://www.w3.org/1999/xlink" x="0px" y="0px"
	 viewBox="0 0 590.6 1107.6" style="enable-background:new 0 0 590.6 1107.6;" xml:space="preserve">
<style type="text/css">
	.st0{fill:none;}
	.st1{fill:none;stroke:#231F20;stroke-width:2.88;}
	.st2{fill:#FBFBFB;}
	.st3{opacity:0.15;fill-rule:evenodd;clip-rule:evenodd;fill:url(#SVGID_2_);enable-background:new    ;}
	.st4{fill-rule:evenodd;clip-rule:evenodd;fill:#005D91;}
	.st5{opacity:0.35;fill-rule:evenodd;clip-rule:evenodd;fill:url(#SVGID_3_);enable-background:new    ;}
	.st6{enable-background:new    ;}
	.st7{fill:#FFFFFF;}
	.st8{opacity:0.5;clip-path:url(#SVGID_5_);fill:#C4C4C4;enable-background:new    ;}
	.st9{opacity:0.25;clip-path:url(#SVGID_7_);}
	.st10{fill:none;stroke:#FFFFFF;stroke-width:61.7131;stroke-miterlimit:10;stroke-dasharray:8.9668,8.9668;}
	.st11{fill:#D93963;}
	.st12{opacity:0.5;clip-path:url(#SVGID_9_);fill:#C4C4C4;enable-background:new    ;}
	.st13{opacity:0.25;clip-path:url(#SVGID_11_);}
	.st14{fill:none;stroke:#FFFFFF;stroke-width:61.558;stroke-miterlimit:10;stroke-dasharray:8.9443,8.9443;}
	.st15{fill:#81AA43;}
	.st16{fill:#4B4F54;}
	.st17{opacity:0.5;clip-path:url(#SVGID_13_);fill:#C4C4C4;enable-background:new    ;}
	.st18{opacity:0.25;clip-path:url(#SVGID_15_);}
	.st19{fill:none;stroke:#FFFFFF;stroke-width:61.7141;stroke-miterlimit:10.0002;stroke-dasharray:8.967,8.967;}
	.st20{fill:#FFFFFF;stroke:#4B4F54;stroke-width:5.0504;stroke-miterlimit:10;}
	.st21{fill:none;stroke:#4B4F54;stroke-width:5.4772;stroke-miterlimit:10;}
	.st22{fill:none;stroke:#62B5E5;stroke-width:9.1286;stroke-miterlimit:10;}
	.st23{fill-rule:evenodd;clip-rule:evenodd;fill:#FFE07F;}
	.st24{fill-rule:evenodd;clip-rule:evenodd;fill:#005D91;fill-opacity:0.5;}
	.st25{opacity:0.5;clip-path:url(#SVGID_17_);fill:#C4C4C4;enable-background:new    ;}
	.st26{opacity:0.25;clip-path:url(#SVGID_19_);}
	.st27{fill:#81C4EA;}
	.st28{fill:#4A8097;}
	.st29{fill:#D1D1D1;}
	.st30{fill:#62B5E5;}
	.st31{fill:none;stroke:#C1C6C8;stroke-width:1.4391;stroke-miterlimit:10;}
	.st32{fill-rule:evenodd;clip-rule:evenodd;fill:#55A2C9;}
	.st33{opacity:0.3;fill-rule:evenodd;clip-rule:evenodd;fill:url(#SVGID_20_);enable-background:new    ;}
	.st34{fill:#005D81;}
	.st35{fill:#C93963;}
</style>
<pattern  x="-16.9" y="1124.4" width="72" height="72" patternUnits="userSpaceOnUse" id="SVGID_1_" viewBox="72.2 -72 72 72" style="overflow:visible;">
	<g>
		<rect x="72.2" y="-72" class="st0" width="72" height="72"/>
		<g>
			<rect x="72.2" y="-72" class="st0" width="72" height="72"/>
			<g>
				<rect x="72.2" y="-72" class="st0" width="72" height="72"/>
				<g>
					<rect x="72.2" y="-72" class="st0" width="72" height="72"/>
					<g>
						<rect x="72.2" y="-72" class="st0" width="72" height="72"/>
						<g>
							<rect x="72.2" y="-72" class="st0" width="72" height="72"/>
							<g>
								<line class="st1" x1="144" y1="-68.4" x2="216.5" y2="-68.4"/>
								<line class="st1" x1="144" y1="-54" x2="216.5" y2="-54"/>
								<line class="st1" x1="144" y1="-39.6" x2="216.5" y2="-39.6"/>
								<line class="st1" x1="144" y1="-25.2" x2="216.5" y2="-25.2"/>
								<line class="st1" x1="144" y1="-10.8" x2="216.5" y2="-10.8"/>
								<line class="st1" x1="144" y1="-61.2" x2="216.5" y2="-61.2"/>
								<line class="st1" x1="144" y1="-46.8" x2="216.5" y2="-46.8"/>
								<line class="st1" x1="144" y1="-32.4" x2="216.5" y2="-32.4"/>
								<line class="st1" x1="144" y1="-18" x2="216.5" y2="-18"/>
								<line class="st1" x1="144" y1="-3.6" x2="216.5" y2="-3.6"/>
							</g>
							<g>
								<line class="st1" x1="72" y1="-68.4" x2="144.5" y2="-68.4"/>
								<line class="st1" x1="72" y1="-54" x2="144.5" y2="-54"/>
								<line class="st1" x1="72" y1="-39.6" x2="144.5" y2="-39.6"/>
								<line class="st1" x1="72" y1="-25.2" x2="144.5" y2="-25.2"/>
								<line class="st1" x1="72" y1="-10.8" x2="144.5" y2="-10.8"/>
								<line class="st1" x1="72" y1="-61.2" x2="144.5" y2="-61.2"/>
								<line class="st1" x1="72" y1="-46.8" x2="144.5" y2="-46.8"/>
								<line class="st1" x1="72" y1="-32.4" x2="144.5" y2="-32.4"/>
								<line class="st1" x1="72" y1="-18" x2="144.5" y2="-18"/>
								<line class="st1" x1="72" y1="-3.6" x2="144.5" y2="-3.6"/>
							</g>
							<g>
								<line class="st1" x1="0" y1="-68.4" x2="72.5" y2="-68.4"/>
								<line class="st1" x1="0" y1="-54" x2="72.5" y2="-54"/>
								<line class="st1" x1="0" y1="-39.6" x2="72.5" y2="-39.6"/>
								<line class="st1" x1="0" y1="-25.2" x2="72.5" y2="-25.2"/>
								<line class="st1" x1="0" y1="-10.8" x2="72.5" y2="-10.8"/>
								<line class="st1" x1="0" y1="-61.2" x2="72.5" y2="-61.2"/>
								<line class="st1" x1="0" y1="-46.8" x2="72.5" y2="-46.8"/>
								<line class="st1" x1="0" y1="-32.4" x2="72.5" y2="-32.4"/>
								<line class="st1" x1="0" y1="-18" x2="72.5" y2="-18"/>
								<line class="st1" x1="0" y1="-3.6" x2="72.5" y2="-3.6"/>
							</g>
						</g>
					</g>
				</g>
			</g>
		</g>
	</g>
</pattern>
<pattern  x="-16.9" y="1124.4" width="72" height="72" patternUnits="userSpaceOnUse" id="SVGID_21_" viewBox="72.2 -72 72 72" style="overflow:visible;">
	<g>
		<rect x="72.2" y="-72" class="st0" width="72" height="72"/>
		<g>
			<rect x="72.2" y="-72" class="st0" width="72" height="72"/>
			<g>
				<rect x="72.2" y="-72" class="st0" width="72" height="72"/>
				<g>
					<rect x="72.2" y="-72" class="st0" width="72" height="72"/>
					<g>
						<rect x="72.2" y="-72" class="st0" width="72" height="72"/>
						<g>
							<rect x="72.2" y="-72" class="st0" width="72" height="72"/>
							<g>
								<line class="st1" x1="144" y1="-68.4" x2="216.5" y2="-68.4"/>
								<line class="st1" x1="144" y1="-54" x2="216.5" y2="-54"/>
								<line class="st1" x1="144" y1="-39.6" x2="216.5" y2="-39.6"/>
								<line class="st1" x1="144" y1="-25.2" x2="216.5" y2="-25.2"/>
								<line class="st1" x1="144" y1="-10.8" x2="216.5" y2="-10.8"/>
								<line class="st1" x1="144" y1="-61.2" x2="216.5" y2="-61.2"/>
								<line class="st1" x1="144" y1="-46.8" x2="216.5" y2="-46.8"/>
								<line class="st1" x1="144" y1="-32.4" x2="216.5" y2="-32.4"/>
								<line class="st1" x1="144" y1="-18" x2="216.5" y2="-18"/>
								<line class="st1" x1="144" y1="-3.6" x2="216.5" y2="-3.6"/>
							</g>
							<g>
								<line class="st1" x1="72" y1="-68.4" x2="144.5" y2="-68.4"/>
								<line class="st1" x1="72" y1="-54" x2="144.5" y2="-54"/>
								<line class="st1" x1="72" y1="-39.6" x2="144.5" y2="-39.6"/>
								<line class="st1" x1="72" y1="-25.2" x2="144.5" y2="-25.2"/>
								<line class="st1" x1="72" y1="-10.8" x2="144.5" y2="-10.8"/>
								<line class="st1" x1="72" y1="-61.2" x2="144.5" y2="-61.2"/>
								<line class="st1" x1="72" y1="-46.8" x2="144.5" y2="-46.8"/>
								<line class="st1" x1="72" y1="-32.4" x2="144.5" y2="-32.4"/>
								<line class="st1" x1="72" y1="-18" x2="144.5" y2="-18"/>
								<line class="st1" x1="72" y1="-3.6" x2="144.5" y2="-3.6"/>
							</g>
							<g>
								<line class="st1" x1="0" y1="-68.4" x2="72.5" y2="-68.4"/>
								<line class="st1" x1="0" y1="-54" x2="72.5" y2="-54"/>
								<line class="st1" x1="0" y1="-39.6" x2="72.5" y2="-39.6"/>
								<line class="st1" x1="0" y1="-25.2" x2="72.5" y2="-25.2"/>
								<line class="st1" x1="0" y1="-10.8" x2="72.5" y2="-10.8"/>
								<line class="st1" x1="0" y1="-61.2" x2="72.5" y2="-61.2"/>
								<line class="st1" x1="0" y1="-46.8" x2="72.5" y2="-46.8"/>
								<line class="st1" x1="0" y1="-32.4" x2="72.5" y2="-32.4"/>
								<line class="st1" x1="0" y1="-18" x2="72.5" y2="-18"/>
								<line class="st1" x1="0" y1="-3.6" x2="72.5" y2="-3.6"/>
							</g>
						</g>
					</g>
				</g>
			</g>
		</g>
	</g>
</pattern>
<pattern  x="-16.9" y="1124.4" width="72" height="72" patternUnits="userSpaceOnUse" id="SVGID_22_" viewBox="72.2 -72 72 72" style="overflow:visible;">
	<g>
		<rect x="72.2" y="-72" class="st0" width="72" height="72"/>
		<g>
			<rect x="72.2" y="-72" class="st0" width="72" height="72"/>
			<g>
				<rect x="72.2" y="-72" class="st0" width="72" height="72"/>
				<g>
					<rect x="72.2" y="-72" class="st0" width="72" height="72"/>
					<g>
						<rect x="72.2" y="-72" class="st0" width="72" height="72"/>
						<g>
							<rect x="72.2" y="-72" class="st0" width="72" height="72"/>
							<g>
								<line class="st1" x1="144" y1="-68.4" x2="216.5" y2="-68.4"/>
								<line class="st1" x1="144" y1="-54" x2="216.5" y2="-54"/>
								<line class="st1" x1="144" y1="-39.6" x2="216.5" y2="-39.6"/>
								<line class="st1" x1="144" y1="-25.2" x2="216.5" y2="-25.2"/>
								<line class="st1" x1="144" y1="-10.8" x2="216.5" y2="-10.8"/>
								<line class="st1" x1="144" y1="-61.2" x2="216.5" y2="-61.2"/>
								<line class="st1" x1="144" y1="-46.8" x2="216.5" y2="-46.8"/>
								<line class="st1" x1="144" y1="-32.4" x2="216.5" y2="-32.4"/>
								<line class="st1" x1="144" y1="-18" x2="216.5" y2="-18"/>
								<line class="st1" x1="144" y1="-3.6" x2="216.5" y2="-3.6"/>
							</g>
							<g>
								<line class="st1" x1="72" y1="-68.4" x2="144.5" y2="-68.4"/>
								<line class="st1" x1="72" y1="-54" x2="144.5" y2="-54"/>
								<line class="st1" x1="72" y1="-39.6" x2="144.5" y2="-39.6"/>
								<line class="st1" x1="72" y1="-25.2" x2="144.5" y2="-25.2"/>
								<line class="st1" x1="72" y1="-10.8" x2="144.5" y2="-10.8"/>
								<line class="st1" x1="72" y1="-61.2" x2="144.5" y2="-61.2"/>
								<line class="st1" x1="72" y1="-46.8" x2="144.5" y2="-46.8"/>
								<line class="st1" x1="72" y1="-32.4" x2="144.5" y2="-32.4"/>
								<line class="st1" x1="72" y1="-18" x2="144.5" y2="-18"/>
								<line class="st1" x1="72" y1="-3.6" x2="144.5" y2="-3.6"/>
							</g>
							<g>
								<line class="st1" x1="0" y1="-68.4" x2="72.5" y2="-68.4"/>
								<line class="st1" x1="0" y1="-54" x2="72.5" y2="-54"/>
								<line class="st1" x1="0" y1="-39.6" x2="72.5" y2="-39.6"/>
								<line class="st1" x1="0" y1="-25.2" x2="72.5" y2="-25.2"/>
								<line class="st1" x1="0" y1="-10.8" x2="72.5" y2="-10.8"/>
								<line class="st1" x1="0" y1="-61.2" x2="72.5" y2="-61.2"/>
								<line class="st1" x1="0" y1="-46.8" x2="72.5" y2="-46.8"/>
								<line class="st1" x1="0" y1="-32.4" x2="72.5" y2="-32.4"/>
								<line class="st1" x1="0" y1="-18" x2="72.5" y2="-18"/>
								<line class="st1" x1="0" y1="-3.6" x2="72.5" y2="-3.6"/>
							</g>
						</g>
					</g>
				</g>
			</g>
		</g>
	</g>
</pattern>
<g>
	<g>
		<g>
			<rect class="st2" width="590.6" height="1107.6"/>
		</g>
	</g>
</g>
<pattern  id="SVGID_2_" xlink:href="#SVGID_21_" patternTransform="matrix(0.846 0.8976 0.846 -0.8976 -36016.1484 -15011.8252)">
</pattern>
<rect x="449.4" y="302.5" class="st3" width="62.3" height="177.7"/>
<g>
	<rect x="271.1" y="548.4" class="st4" width="240.6" height="177.7"/>
	<pattern  id="SVGID_3_" xlink:href="#SVGID_1_" patternTransform="matrix(0.846 0.8976 0.846 -0.8976 -36016.1484 -15048.9121)">
	</pattern>
	<rect x="271.1" y="548.4" class="st5" width="240.6" height="177.7"/>
	<g class="st6">
		<path class="st7" d="M355.9,641.3c0,1.5-0.5,2.6-1.6,3.5c-1.1,0.8-2.5,1.3-4.4,1.3c-1.7,0-3.3-0.3-4.6-1v-3.2c1.1,0.5,2,0.8,2.8,1
			s1.5,0.3,2.1,0.3c0.8,0,1.3-0.1,1.7-0.4s0.6-0.7,0.6-1.3c0-0.3-0.1-0.6-0.3-0.9s-0.4-0.5-0.8-0.7c-0.3-0.2-1.1-0.6-2.1-1.1
			s-1.7-0.9-2.2-1.3c-0.5-0.4-0.9-0.9-1.2-1.5c-0.3-0.6-0.4-1.2-0.4-2c0-1.4,0.5-2.6,1.5-3.4s2.3-1.2,4.1-1.2c0.8,0,1.7,0.1,2.4,0.3
			c0.8,0.2,1.6,0.5,2.4,0.8l-1.1,2.7c-0.9-0.4-1.6-0.6-2.2-0.7c-0.6-0.1-1.1-0.2-1.7-0.2c-0.7,0-1.2,0.2-1.5,0.5s-0.5,0.7-0.5,1.2
			c0,0.3,0.1,0.6,0.2,0.8s0.4,0.4,0.7,0.7c0.3,0.3,1,0.6,2.2,1.1c1.5,0.7,2.6,1.5,3.1,2.2S355.9,640.2,355.9,641.3z"/>
		<path class="st7" d="M369.9,639.6c0,2-0.5,3.6-1.6,4.8c-1.1,1.1-2.6,1.7-4.5,1.7c-1.2,0-2.3-0.3-3.2-0.8s-1.6-1.3-2.1-2.3
			s-0.7-2.1-0.7-3.4c0-2,0.5-3.6,1.6-4.8c1.1-1.1,2.6-1.7,4.5-1.7c1.2,0,2.3,0.3,3.2,0.8s1.6,1.3,2.1,2.2
			C369.7,637.1,369.9,638.3,369.9,639.6z M361.3,639.6c0,1.2,0.2,2.2,0.6,2.8s1.1,0.9,2,0.9s1.6-0.3,2-0.9c0.4-0.6,0.6-1.6,0.6-2.8
			s-0.2-2.2-0.6-2.8s-1.1-0.9-2-0.9s-1.6,0.3-2,0.9C361.5,637.4,361.3,638.3,361.3,639.6z"/>
		<path class="st7" d="M376.1,645.8h-3.4v-17.4h3.4V645.8z"/>
		<path class="st7" d="M388.5,645.8l-0.5-1.6h-0.2c-0.4,0.6-0.9,1-1.6,1.3s-1.4,0.5-2.3,0.5c-1.5,0-2.6-0.4-3.3-1.2
			s-1.1-1.9-1.1-3.4v-8.1h3.4v7.3c0,0.9,0.2,1.6,0.5,2c0.3,0.5,0.8,0.7,1.5,0.7c1,0,1.6-0.3,2.1-1c0.4-0.6,0.6-1.7,0.6-3.2v-5.9h3.4
			v12.5L388.5,645.8L388.5,645.8L388.5,645.8z"/>
		<path class="st7" d="M400,643.3c0.6,0,1.3-0.1,2.1-0.4v2.5c-0.8,0.4-1.9,0.6-3.1,0.6c-1.4,0-2.4-0.3-3-1s-0.9-1.7-0.9-3.1v-6h-1.6
			v-1.4l1.9-1.1l1-2.6h2.2v2.7h3.5v2.6h-3.5v6c0,0.5,0.1,0.8,0.4,1.1C399.3,643.5,399.5,643.3,400,643.3z"/>
		<path class="st7" d="M404.5,630.1c0-1.1,0.6-1.7,1.9-1.7c1.2,0,1.9,0.6,1.9,1.7c0,0.5-0.2,0.9-0.5,1.2s-0.8,0.4-1.4,0.4
			C405.1,631.8,404.5,631.3,404.5,630.1z M408,645.8h-3.4v-12.5h3.4V645.8z"/>
		<path class="st7" d="M423,639.6c0,2-0.5,3.6-1.6,4.8c-1.1,1.1-2.6,1.7-4.5,1.7c-1.2,0-2.3-0.3-3.2-0.8s-1.6-1.3-2.1-2.3
			s-0.7-2.1-0.7-3.4c0-2,0.5-3.6,1.6-4.8c1.1-1.1,2.6-1.7,4.5-1.7c1.2,0,2.3,0.3,3.2,0.8s1.6,1.3,2.1,2.2
			C422.7,637.1,423,638.3,423,639.6z M414.3,639.6c0,1.2,0.2,2.2,0.6,2.8s1.1,0.9,2,0.9s1.6-0.3,2-0.9c0.4-0.6,0.6-1.6,0.6-2.8
			s-0.2-2.2-0.6-2.8s-1.1-0.9-2-0.9s-1.6,0.3-2,0.9C414.5,637.4,414.3,638.3,414.3,639.6z"/>
		<path class="st7" d="M437.3,645.8h-3.4v-7.3c0-0.9-0.2-1.6-0.5-2c-0.3-0.5-0.8-0.7-1.5-0.7c-1,0-1.6,0.3-2.1,1s-0.6,1.7-0.6,3.2
			v5.9h-3.4v-12.5h2.6l0.5,1.6h0.2c0.4-0.6,0.9-1.1,1.6-1.4c0.7-0.3,1.4-0.5,2.3-0.5c1.5,0,2.6,0.4,3.3,1.2c0.8,0.8,1.1,1.9,1.1,3.4
			L437.3,645.8L437.3,645.8L437.3,645.8z"/>
	</g>
</g>
<g>
	<circle class="st7" cx="135.3" cy="639.9" r="52.5"/>
	<g>
		<g>
			<g>
				<g>
					<g>
						<g>
							<g>
								<g>
									<g>
										<g>
											<g>
												<g>
													<defs>
														<circle id="SVGID_4_" cx="135.3" cy="639.9" r="52.5"/>
													</defs>
													<clipPath id="SVGID_5_">
														<use xlink:href="#SVGID_4_"  style="overflow:visible;"/>
													</clipPath>
													<circle class="st8" cx="135.3" cy="639.9" r="52.5"/>
												</g>
											</g>
										</g>
									</g>
								</g>
							</g>
						</g>
					</g>
				</g>
				<g>
					<g>
						<g>
							<g>
								<g>
									<g>
										<g>
											<g>
												<g>
													<defs>
														<circle id="SVGID_6_" cx="135.3" cy="639.9" r="52.5"/>
													</defs>
													<clipPath id="SVGID_7_">
														<use xlink:href="#SVGID_6_"  style="overflow:visible;"/>
													</clipPath>
													<g class="st9">
														<circle class="st10" cx="135.3" cy="639.9" r="35.8"/>
													</g>
												</g>
											</g>
										</g>
									</g>
								</g>
							</g>
						</g>
					</g>
				</g>
			</g>
		</g>
		<g>
			<g>
				<path class="st7" d="M182,646.3c0-7.6-6.1-13.8-13.8-13.8c-0.9,0-1.8,0.1-2.6,0.3c0.3-0.9,0.4-1.9,0.4-3
					c0-6.4-5.2-11.5-11.5-11.5c-2.8,0-5.4,1-7.4,2.7c-2.7-9-11-15.5-20.8-15.5c-12,0-21.7,9.7-21.7,21.7c0,0.9,0.1,1.9,0.2,2.7
					c-7.5,0.9-13.3,7.2-13.3,15c0,8.3,6.8,15.1,15.1,15.1h64.3C177,658.7,182,652.9,182,646.3z"/>
			</g>
		</g>
		<g>
			<g>
				<g>
					<path class="st11" d="M153.3,644.6l-0.2-0.1l-0.9-2.1l0.1-0.2c2.8-6.3,2.6-6.5,2.1-6.9l-3.7-3.6c-0.1-0.1-0.4-0.3-0.7-0.3
						c-0.2,0-0.8,0-6.3,2.5l-0.2,0.1l-2.2-0.9l-0.1-0.2c-2.6-6.4-2.8-6.4-3.5-6.4h-5.2c-0.6,0-0.9,0-3.3,6.4l-0.1,0.2l-2.2,0.9
						l-0.2-0.1c-3.7-1.5-5.9-2.4-6.4-2.4c-0.2,0-0.5,0.1-0.7,0.3l-3.7,3.6c-0.5,0.4-0.7,0.7,2.2,6.8l0.1,0.2l-0.9,2.1l-0.2,0.1
						c-6.5,2.5-6.5,2.8-6.5,3.4v5.1c0,0.7,0,0.9,6.5,3.2l0.2,0.1l0.9,2.1l-0.1,0.2c-2.8,6.3-2.6,6.4-2.1,6.9l3.7,3.6
						c0.2,0.1,0.4,0.3,0.7,0.3s0.8,0,6.3-2.5l0.2-0.1l2.2,0.9l0.1,0.2c2.6,6.4,2.8,6.4,3.5,6.4h5.2c0.7,0,0.9,0,3.3-6.4l0.1-0.2
						l2.2-0.9l0.2,0.1c3.7,1.5,5.9,2.4,6.4,2.4c0.2,0,0.5-0.1,0.7-0.3l3.7-3.6c0.5-0.5,0.7-0.7-2.2-6.8l-0.1-0.2l0.9-2.1l0.2-0.1
						c6.5-2.5,6.5-2.8,6.5-3.5v-5.1C159.8,647.2,159.8,646.9,153.3,644.6z M135.3,658.7c-4.7,0-8.4-3.7-8.4-8.3s3.8-8.3,8.4-8.3
						c4.7,0,8.4,3.7,8.4,8.3C143.7,655.1,140,658.7,135.3,658.7z"/>
				</g>
			</g>
		</g>
	</g>
</g>
<g>
	<circle class="st7" cx="135.3" cy="919.5" r="52.5"/>
	<g>
		<g>
			<g>
				<g>
					<g>
						<g>
							<g>
								<g>
									<g>
										<g>
											<g>
												<defs>
													
														<ellipse id="SVGID_8_" transform="matrix(0.9985 -5.530040e-02 5.530040e-02 0.9985 -50.6472 8.8893)" cx="135.3" cy="919.6" rx="52.4" ry="52.4"/>
												</defs>
												<clipPath id="SVGID_9_">
													<use xlink:href="#SVGID_8_"  style="overflow:visible;"/>
												</clipPath>
												
													<ellipse transform="matrix(0.9985 -5.530040e-02 5.530040e-02 0.9985 -50.6472 8.8893)" class="st12" cx="135.3" cy="919.6" rx="52.4" ry="52.4"/>
											</g>
										</g>
									</g>
								</g>
							</g>
						</g>
					</g>
				</g>
				<g>
					<g>
						<g>
							<g>
								<g>
									<g>
										<g>
											<g>
												<defs>
													
														<ellipse id="SVGID_10_" transform="matrix(0.9985 -5.530040e-02 5.530040e-02 0.9985 -50.6472 8.8893)" cx="135.3" cy="919.6" rx="52.4" ry="52.4"/>
												</defs>
												<clipPath id="SVGID_11_">
													<use xlink:href="#SVGID_10_"  style="overflow:visible;"/>
												</clipPath>
												<g class="st13">
													
														<ellipse transform="matrix(0.9985 -5.530037e-02 5.530037e-02 0.9985 -50.6472 8.8893)" class="st14" cx="135.3" cy="919.6" rx="35.6" ry="35.6"/>
												</g>
											</g>
										</g>
									</g>
								</g>
							</g>
						</g>
					</g>
				</g>
			</g>
			<g>
				<g>
					<g>
						<path class="st7" d="M181.9,925.8c0-7.6-6.1-13.7-13.7-13.7c-0.9,0-1.8,0.1-2.6,0.3c0.3-0.9,0.4-1.9,0.4-3
							c0-6.3-5.2-11.5-11.5-11.5c-2.8,0-5.4,1-7.4,2.7c-2.7-9-11-15.5-20.8-15.5c-12,0-21.7,9.7-21.7,21.7c0,0.9,0.1,1.9,0.2,2.7
							c-7.5,0.9-13.3,7.2-13.3,15c0,8.3,6.7,15.1,15.1,15.1h64.1C176.8,938.2,181.9,932.5,181.9,925.8z"/>
					</g>
				</g>
			</g>
		</g>
		<g>
			<polygon class="st15" points="168.3,960.3 200.2,939.5 168.3,918.8 168.3,931.9 122,923.8 122,955.3 168.3,947.7 			"/>
		</g>
	</g>
</g>
<g>
	<path class="st16" d="M511.7,234.4V229h-0.5v5.4H511.7L511.7,234.4z M511.7,223.7v-5.4h-0.5v5.4H511.7L511.7,223.7z M511.7,213
		v-5.4h-0.5v5.4H511.7L511.7,213z M511.7,202.2v-5.4h-0.5v5.4H511.7L511.7,202.2z M511.7,191.5v-5.4h-0.5v5.4H511.7L511.7,191.5z
		 M511.7,180.7v-5.4h-0.5v5.4H511.7L511.7,180.7z M511.7,170v-5.4h-0.5v5.4H511.7L511.7,170z M511.7,159.3v-5.4h-0.5v5.4H511.7
		L511.7,159.3z M511.7,148.5v-5.4h-0.5v5.4H511.7L511.7,148.5z M511.7,137.8v-5.4h-0.5v5.4H511.7L511.7,137.8z M511.7,127v-5.4h-0.5
		v5.4H511.7L511.7,127z M511.7,116.3v-5.4h-0.5v5.4H511.7L511.7,116.3z M511.7,105.6v-5.4h-0.5v5.4H511.7L511.7,105.6z M511.7,94.8
		v-5.4h-0.5v5.4H511.7L511.7,94.8z M511.7,84.1v-5.4h-0.5v5.4H511.7L511.7,84.1z M511.7,73.3V68h-0.5v5.4L511.7,73.3L511.7,73.3z
		 M511.7,62.6v-5.4h-0.5v5.4H511.7L511.7,62.6z M506.9,57.2v-0.5h-5.4v0.5H506.9L506.9,57.2z M496.2,57.2v-0.5h-5.4v0.5H496.2
		L496.2,57.2z M485.4,57.2v-0.5H480v0.5H485.4L485.4,57.2z M474.7,57.2v-0.5h-5.4v0.5H474.7L474.7,57.2z M463.9,57.2v-0.5h-5.4v0.5
		H463.9L463.9,57.2z M453.2,57.2v-0.5h-3.7v0.5l0,0l0,0l0,0l0,0c0,0.5,0,1.1,0,1.1h0.5v-1.1H453.2L453.2,57.2z M450,69.1v-5.4h-0.5
		v5.4H450L450,69.1z M450,79.8v-5.4h-0.5v5.4H450L450,79.8z M450,90.5v-5.4h-0.5v5.4H450L450,90.5z M450,101.3v-5.4h-0.5v5.4H450
		L450,101.3z M450,112v-5.4h-0.5v5.4H450L450,112z M450,122.8v-5.4h-0.5v5.4H450L450,122.8z M450,133.5v-5.4h-0.5v5.4H450L450,133.5
		z M450,144.2v-5.4h-0.5v5.4H450L450,144.2z M450,155v-5.4h-0.5v5.4H450L450,155z M450,165.7v-5.4h-0.5v5.4H450L450,165.7z
		 M450,176.5v-5.4h-0.5v5.4H450L450,176.5z M450,187.2v-5.4h-0.5v5.4H450L450,187.2z M450,197.9v-5.4h-0.5v5.4H450L450,197.9z
		 M450,208.7v-5.4h-0.5v5.4H450L450,208.7z M450,219.4V214h-0.5v5.4H450L450,219.4z M450,230.2v-5.4h-0.5v5.4H450L450,230.2z
		 M455.9,234.4v-0.5h-5.4v0.5H455.9L455.9,234.4z M466.7,234.4v-0.5h-5.4v0.5H466.7L466.7,234.4z M477.4,234.4v-0.5H472v0.5H477.4
		L477.4,234.4z M488.1,234.4v-0.5h-5.4v0.5H488.1L488.1,234.4z M498.9,234.4v-0.5h-5.4v0.5H498.9L498.9,234.4z M509.6,234.4v-0.5
		h-5.4v0.5H509.6L509.6,234.4z"/>
</g>
<rect x="271" y="56.7" class="st4" width="168.5" height="177.7"/>
<g>
	<g>
		<circle class="st7" cx="135.3" cy="137.6" r="52.5"/>
		<g>
			<g>
				<g>
					<g>
						<g>
							<g>
								<g>
									<g>
										<g>
											<g>
												<defs>
													<circle id="SVGID_12_" cx="135.3" cy="137.6" r="52.5"/>
												</defs>
												<clipPath id="SVGID_13_">
													<use xlink:href="#SVGID_12_"  style="overflow:visible;"/>
												</clipPath>
												<circle class="st17" cx="135.3" cy="137.6" r="52.5"/>
											</g>
										</g>
									</g>
								</g>
							</g>
						</g>
					</g>
				</g>
				<g>
					<g>
						<g>
							<g>
								<g>
									<g>
										<g>
											<g>
												<defs>
													<circle id="SVGID_14_" cx="135.3" cy="137.6" r="52.5"/>
												</defs>
												<clipPath id="SVGID_15_">
													<use xlink:href="#SVGID_14_"  style="overflow:visible;"/>
												</clipPath>
												<g class="st18">
													<ellipse class="st19" cx="135.3" cy="137.6" rx="35.8" ry="35.8"/>
												</g>
											</g>
										</g>
									</g>
								</g>
							</g>
						</g>
					</g>
				</g>
			</g>
		</g>
	</g>
	<g>
		<circle class="st20" cx="144.4" cy="128.6" r="21.9"/>
		<line class="st21" x1="127.5" y1="145.5" x2="106.3" y2="166.7"/>
		<line class="st22" x1="122.8" y1="150.2" x2="104.1" y2="168.9"/>
	</g>
</g>
<g>
	<polygon id="Fill-10_72_" class="st23" points="117.3,209.9 135.6,245.9 153.2,209.9 	"/>
	<polygon id="Fill-10_70_" class="st24" points="117.3,245.9 135.6,281.8 153.2,245.9 	"/>
</g>
<g>
	<polygon id="Fill-10_69_" class="st23" points="117.3,466.4 135.6,502.4 153.2,466.4 	"/>
	<polygon id="Fill-10_67_" class="st24" points="117.3,502.4 135.6,538.3 153.2,502.4 	"/>
</g>
<g>
	<polygon id="Fill-10_41_" class="st23" points="117.3,712.4 135.6,748.3 153.2,712.4 	"/>
	<polygon id="Fill-10_22_" class="st24" points="117.3,748.3 135.6,784.3 153.2,748.3 	"/>
</g>
<g>
	<circle class="st7" cx="135.3" cy="394.4" r="52.5"/>
	<g>
		<g>
			<g>
				<g>
					<g>
						<g>
							<g>
								<g>
									<g>
										<g>
											<defs>
												<circle id="SVGID_16_" cx="135.3" cy="394.4" r="52.5"/>
											</defs>
											<clipPath id="SVGID_17_">
												<use xlink:href="#SVGID_16_"  style="overflow:visible;"/>
											</clipPath>
											<circle class="st25" cx="135.3" cy="394.4" r="52.5"/>
										</g>
									</g>
								</g>
							</g>
						</g>
					</g>
				</g>
			</g>
			<g>
				<g>
					<g>
						<g>
							<g>
								<g>
									<g>
										<g>
											<defs>
												<circle id="SVGID_18_" cx="135.3" cy="394.4" r="52.5"/>
											</defs>
											<clipPath id="SVGID_19_">
												<use xlink:href="#SVGID_18_"  style="overflow:visible;"/>
											</clipPath>
											<g class="st26">
												<ellipse class="st19" cx="135.3" cy="394.4" rx="35.8" ry="35.8"/>
											</g>
										</g>
									</g>
								</g>
							</g>
						</g>
					</g>
				</g>
			</g>
		</g>
		<g>
			<g>
				<rect x="126.9" y="361" class="st16" width="18.1" height="4.1"/>
				<path class="st16" d="M126.9,361v15.2h-4.1V365C122.8,362.8,124.6,361,126.9,361L126.9,361z"/>
				<path class="st16" d="M149.2,365.1v11.2h-4.1v-15.2l0,0C147.3,361,149.2,362.8,149.2,365.1z"/>
				<path class="st27" d="M97.6,386.3v-14.1c0-1.9,1.6-3.5,3.5-3.5H170c1.9,0,3.5,1.6,3.5,3.5v13.1"/>
				<rect x="97.6" y="377.5" class="st28" width="76" height="17.2"/>
				<path class="st7" d="M140.7,380.9h-10.1c-0.8,0-1.5-0.7-1.5-1.5v-3.6c0-0.8,0.7-1.5,1.5-1.5h10.1c0.8,0,1.5,0.7,1.5,1.5v3.6
					C142.2,380.3,141.5,380.9,140.7,380.9z"/>
				<circle class="st28" cx="136.5" cy="400" r="2.1"/>
				<g>
					<path class="st29" d="M172.4,378.9c3.2-3.2,4.2-7.7,3.2-11.7c-0.1-0.4-0.6-0.5-0.9-0.2l-6.6,6.6c-0.9,0.9-2.4,0.9-3.3,0
						l-4.2-4.2c-0.9-0.9-0.9-2.4,0-3.3l6.6-6.6c0.3-0.3,0.2-0.8-0.2-0.9c-4.2-1.1-8.8,0.1-12,3.5c-3.2,3.5-4.1,8.5-2.4,12.7
						L126,397.4c-3.4,2.9-3.6,8.1-0.4,11.2c3.2,3.1,8.3,3,11.2-0.4l22.6-26.6C163.8,383.3,168.9,382.4,172.4,378.9z"/>
				</g>
				<path class="st30" d="M173.6,394.7v25.4c0,1.9-1.6,3.5-3.5,3.5h-68.9c-1.9,0-3.5-1.6-3.5-3.5v-25.4"/>
			</g>
		</g>
	</g>
</g>
<rect x="271" y="302.5" class="st4" width="168.5" height="177.7"/>
<g>
	<polyline class="st31" points="525.2,794.3 536.1,794.3 536.1,972 525.2,972 	"/>
</g>
<g>
	<rect x="271.1" y="794.3" class="st32" width="240.6" height="177.7"/>
	<pattern  id="SVGID_20_" xlink:href="#SVGID_22_" patternTransform="matrix(0.846 0.8976 0.846 -0.8976 -36016.1484 -15165.5068)">
	</pattern>
	<rect x="271.1" y="794.3" class="st33" width="240.6" height="177.7"/>
	<g class="st6">
		<path class="st7" d="M355.9,887.2c0,1.5-0.5,2.6-1.6,3.5c-1.1,0.8-2.5,1.3-4.4,1.3c-1.7,0-3.3-0.3-4.6-1v-3.2c1.1,0.5,2,0.8,2.8,1
			s1.5,0.3,2.1,0.3c0.8,0,1.3-0.1,1.7-0.4s0.6-0.7,0.6-1.3c0-0.3-0.1-0.6-0.3-0.9s-0.4-0.5-0.8-0.7c-0.3-0.2-1.1-0.6-2.1-1.1
			s-1.7-0.9-2.2-1.3c-0.5-0.4-0.9-0.9-1.2-1.5c-0.3-0.6-0.4-1.2-0.4-2c0-1.4,0.5-2.6,1.5-3.4s2.3-1.2,4.1-1.2c0.8,0,1.7,0.1,2.4,0.3
			c0.8,0.2,1.6,0.5,2.4,0.8l-1.1,2.7c-0.9-0.4-1.6-0.6-2.2-0.7c-0.6-0.1-1.1-0.2-1.7-0.2c-0.7,0-1.2,0.2-1.5,0.5s-0.5,0.7-0.5,1.2
			c0,0.3,0.1,0.6,0.2,0.8s0.4,0.4,0.7,0.7c0.3,0.3,1,0.6,2.2,1.1c1.5,0.7,2.6,1.5,3.1,2.2S355.9,886.1,355.9,887.2z"/>
		<path class="st7" d="M369.9,885.5c0,2-0.5,3.6-1.6,4.8c-1.1,1.1-2.6,1.7-4.5,1.7c-1.2,0-2.3-0.3-3.2-0.8s-1.6-1.3-2.1-2.3
			s-0.7-2.1-0.7-3.4c0-2,0.5-3.6,1.6-4.8c1.1-1.1,2.6-1.7,4.5-1.7c1.2,0,2.3,0.3,3.2,0.8s1.6,1.3,2.1,2.2
			C369.7,883,369.9,884.2,369.9,885.5z M361.3,885.5c0,1.2,0.2,2.2,0.6,2.8s1.1,0.9,2,0.9s1.6-0.3,2-0.9c0.4-0.6,0.6-1.6,0.6-2.8
			s-0.2-2.2-0.6-2.8s-1.1-0.9-2-0.9s-1.6,0.3-2,0.9C361.5,883.3,361.3,884.2,361.3,885.5z"/>
		<path class="st7" d="M376.1,891.7h-3.4v-17.4h3.4V891.7z"/>
		<path class="st7" d="M388.5,891.7l-0.5-1.6h-0.2c-0.4,0.6-0.9,1-1.6,1.3s-1.4,0.5-2.3,0.5c-1.5,0-2.6-0.4-3.3-1.2
			c-0.7-0.8-1.1-1.9-1.1-3.4v-8.1h3.4v7.3c0,0.9,0.2,1.6,0.5,2c0.3,0.5,0.8,0.7,1.5,0.7c1,0,1.6-0.3,2.1-1c0.4-0.6,0.6-1.7,0.6-3.2
			v-5.9h3.4v12.5h-2.5V891.7L388.5,891.7z"/>
		<path class="st7" d="M400,889.2c0.6,0,1.3-0.1,2.1-0.4v2.5c-0.8,0.4-1.9,0.6-3.1,0.6c-1.4,0-2.4-0.3-3-1s-0.9-1.7-0.9-3.1v-6h-1.6
			v-1.4l1.9-1.1l1-2.6h2.2v2.7h3.5v2.6h-3.5v6c0,0.5,0.1,0.8,0.4,1.1C399.3,889.4,399.5,889.2,400,889.2z"/>
		<path class="st7" d="M404.5,876c0-1.1,0.6-1.7,1.9-1.7c1.2,0,1.9,0.6,1.9,1.7c0,0.5-0.2,0.9-0.5,1.2s-0.8,0.4-1.4,0.4
			C405.1,877.7,404.5,877.2,404.5,876z M408,891.7h-3.4v-12.5h3.4V891.7z"/>
		<path class="st7" d="M423,885.5c0,2-0.5,3.6-1.6,4.8c-1.1,1.1-2.6,1.7-4.5,1.7c-1.2,0-2.3-0.3-3.2-0.8s-1.6-1.3-2.1-2.3
			s-0.7-2.1-0.7-3.4c0-2,0.5-3.6,1.6-4.8c1.1-1.1,2.6-1.7,4.5-1.7c1.2,0,2.3,0.3,3.2,0.8s1.6,1.3,2.1,2.2
			C422.7,883,423,884.2,423,885.5z M414.3,885.5c0,1.2,0.2,2.2,0.6,2.8s1.1,0.9,2,0.9s1.6-0.3,2-0.9c0.4-0.6,0.6-1.6,0.6-2.8
			s-0.2-2.2-0.6-2.8s-1.1-0.9-2-0.9s-1.6,0.3-2,0.9C414.5,883.3,414.3,884.2,414.3,885.5z"/>
		<path class="st7" d="M437.3,891.7h-3.4v-7.3c0-0.9-0.2-1.6-0.5-2c-0.3-0.5-0.8-0.7-1.5-0.7c-1,0-1.6,0.3-2.1,1s-0.6,1.7-0.6,3.2
			v5.9h-3.4v-12.5h2.6l0.5,1.6h0.2c0.4-0.6,0.9-1.1,1.6-1.4c0.7-0.3,1.4-0.5,2.3-0.5c1.5,0,2.6,0.4,3.3,1.2c0.8,0.8,1.1,1.9,1.1,3.4
			L437.3,891.7L437.3,891.7L437.3,891.7z"/>
	</g>
</g>
<g class="st6">
	<path class="st34" d="M132.9,1042.9c0,2.7-0.8,4.7-2.3,6.2c-1.5,1.4-3.7,2.1-6.6,2.1h-4.6v-16.3h5.1c2.7,0,4.7,0.7,6.2,2.1
		C132.2,1038.4,132.9,1040.4,132.9,1042.9z M129.3,1043c0-3.5-1.5-5.3-4.6-5.3h-1.8v10.6h1.5C127.6,1048.4,129.3,1046.6,129.3,1043z
		"/>
	<path class="st34" d="M141.7,1051.4c-2,0-3.6-0.6-4.7-1.7c-1.1-1.1-1.7-2.7-1.7-4.7c0-2.1,0.5-3.7,1.6-4.8c1-1.1,2.5-1.7,4.3-1.7
		s3.1,0.5,4.1,1.5s1.5,2.4,1.5,4.2v1.7h-8c0,1,0.3,1.7,0.9,2.3c0.5,0.5,1.3,0.8,2.3,0.8c0.8,0,1.5-0.1,2.1-0.2
		c0.7-0.2,1.4-0.4,2.1-0.7v2.6c-0.6,0.3-1.2,0.5-1.9,0.7C143.5,1051.4,142.6,1051.4,141.7,1051.4z M141.2,1040.9
		c-0.7,0-1.3,0.2-1.7,0.7s-0.6,1.1-0.7,1.9h4.8c0-0.8-0.2-1.5-0.7-1.9C142.5,1041.2,141.9,1040.9,141.2,1040.9z M139.2,1037.4v-0.3
		c1.3-1.5,2.2-2.6,2.6-3.4h3.8v0.2c-0.4,0.4-1,1-2,1.7c-0.9,0.8-1.7,1.3-2.2,1.7h-2.2V1037.4z"/>
	<path class="st34" d="M156.4,1041.3h-2.9v9.9h-3.4v-9.9h-1.9v-1.6l1.9-0.9v-0.9c0-1.4,0.3-2.5,1-3.1c0.7-0.7,1.8-1,3.4-1
		c1.2,0,2.2,0.2,3.1,0.5l-0.9,2.5c-0.7-0.2-1.3-0.3-1.9-0.3c-0.5,0-0.8,0.1-1,0.4s-0.3,0.7-0.3,1.1v0.8h2.9V1041.3z"/>
	<path class="st34" d="M166.3,1051.2l-0.7-1.7h-0.1c-0.6,0.7-1.2,1.2-1.8,1.5s-1.4,0.4-2.4,0.4c-1.2,0-2.1-0.3-2.8-1s-1-1.7-1-2.9
		c0-1.3,0.5-2.3,1.4-2.9s2.3-1,4.2-1l2.2-0.1v-0.5c0-1.3-0.6-1.9-1.9-1.9c-1,0-2.2,0.3-3.5,0.9l-1.1-2.3c1.4-0.8,3-1.1,4.8-1.1
		c1.7,0,3,0.4,3.8,1.1c0.9,0.7,1.3,1.8,1.3,3.3v8.3L166.3,1051.2L166.3,1051.2z M165.3,1045.4H164c-1,0-1.7,0.2-2.2,0.5
		s-0.7,0.8-0.7,1.5c0,1,0.6,1.4,1.7,1.4c0.8,0,1.4-0.2,1.9-0.7s0.7-1.1,0.7-1.8L165.3,1045.4L165.3,1045.4z"/>
	<path class="st34" d="M181,1051.2l-0.5-1.6h-0.2c-0.4,0.6-0.9,1-1.6,1.3c-0.7,0.3-1.4,0.5-2.3,0.5c-1.5,0-2.6-0.4-3.3-1.2
		c-0.7-0.8-1.1-1.9-1.1-3.4v-8.1h3.4v7.3c0,0.9,0.2,1.6,0.5,2s0.8,0.7,1.5,0.7c1,0,1.6-0.3,2.1-1c0.4-0.6,0.6-1.7,0.6-3.2v-5.9h3.4
		v12.5L181,1051.2L181,1051.2z"/>
	<path class="st34" d="M192.4,1048.7c0.6,0,1.3-0.1,2.1-0.4v2.5c-0.8,0.4-1.9,0.6-3.1,0.6c-1.4,0-2.4-0.3-3-1s-0.9-1.7-0.9-3.1v-6
		h-1.6v-1.4l1.9-1.1l1-2.6h2.2v2.7h3.5v2.6H191v6c0,0.5,0.1,0.8,0.4,1.1S192,1048.7,192.4,1048.7z"/>
	<path class="st34" d="M205.8,1047.5c0,1.3-0.4,2.3-1.3,2.9c-0.9,0.7-2.2,1-4,1c-0.9,0-1.7-0.1-2.3-0.2s-1.2-0.3-1.8-0.5v-2.8
		c0.6,0.3,1.3,0.5,2.1,0.7s1.5,0.3,2.1,0.3c1.2,0,1.9-0.4,1.9-1.1c0-0.3-0.1-0.5-0.2-0.7c-0.2-0.2-0.4-0.4-0.8-0.6
		c-0.4-0.2-0.9-0.5-1.6-0.7c-1-0.4-1.7-0.8-2.1-1.1c-0.4-0.3-0.8-0.7-1-1.2c-0.2-0.4-0.3-1-0.3-1.6c0-1.1,0.4-2,1.3-2.6
		c0.9-0.6,2.1-0.9,3.7-0.9c1.5,0,3,0.3,4.4,1l-1,2.5c-0.6-0.3-1.2-0.5-1.8-0.7c-0.5-0.2-1.1-0.3-1.7-0.3c-1,0-1.5,0.3-1.5,0.8
		c0,0.3,0.2,0.6,0.5,0.8c0.3,0.2,1,0.6,2.1,1c1,0.4,1.7,0.8,2.1,1.1c0.5,0.3,0.8,0.7,1,1.2C205.7,1046.4,205.8,1046.9,205.8,1047.5z
		"/>
	<path class="st16" d="M213.9,1041.7v-1.5h10.4v1.5H213.9z M213.9,1046.2v-1.5h10.4v1.5H213.9z"/>
	<path class="st16" d="M243.6,1039v1.2l-2.3,0.3c0.2,0.3,0.4,0.6,0.6,1s0.2,0.9,0.2,1.4c0,1.2-0.4,2.2-1.2,2.9s-1.9,1.1-3.4,1.1
		c-0.4,0-0.7,0-1-0.1c-0.8,0.4-1.2,0.9-1.2,1.6c0,0.3,0.1,0.6,0.4,0.7c0.3,0.2,0.7,0.2,1.4,0.2h2.2c1.3,0,2.3,0.3,3.1,0.8
		c0.7,0.6,1.1,1.4,1.1,2.4c0,1.4-0.5,2.4-1.6,3.1s-2.7,1.1-4.8,1.1c-1.6,0-2.8-0.3-3.7-0.9s-1.3-1.4-1.3-2.5c0-0.7,0.2-1.4,0.7-1.9
		s1.1-0.9,2-1.1c-0.3-0.1-0.6-0.4-0.8-0.7c-0.2-0.3-0.3-0.6-0.3-1s0.1-0.8,0.4-1.2c0.2-0.3,0.6-0.7,1.1-1c-0.6-0.3-1.1-0.7-1.5-1.3
		c-0.4-0.6-0.6-1.3-0.6-2.1c0-1.3,0.4-2.4,1.2-3.1s1.9-1.1,3.4-1.1c0.6,0,1.2,0.1,1.7,0.2H243.6L243.6,1039z M233.8,1053.3
		c0,0.7,0.3,1.2,0.8,1.5c0.6,0.3,1.4,0.5,2.4,0.5c1.6,0,2.7-0.2,3.5-0.7c0.7-0.5,1.1-1.1,1.1-1.9c0-0.7-0.2-1.1-0.6-1.4
		s-1.2-0.4-2.3-0.4h-2.2c-0.8,0-1.5,0.2-2,0.6C234.1,1051.9,233.8,1052.5,233.8,1053.3z M234.8,1042.9c0,0.9,0.2,1.5,0.7,1.9
		s1.2,0.7,2,0.7c1.8,0,2.7-0.9,2.7-2.6c0-1.8-0.9-2.8-2.7-2.8c-0.9,0-1.5,0.2-2,0.7C235.1,1041.3,234.8,1042,234.8,1042.9z"/>
	<path class="st16" d="M253.6,1051.2l-0.4-1.7h-0.1c-0.6,0.8-1.2,1.3-1.8,1.6c-0.6,0.3-1.4,0.4-2.3,0.4c-1.2,0-2.2-0.3-2.9-0.9
		c-0.7-0.6-1-1.5-1-2.7c0-2.5,2-3.8,5.9-3.9l2.1-0.1v-0.8c0-1-0.2-1.7-0.6-2.1c-0.4-0.5-1.1-0.7-2-0.7c-1,0-2.2,0.3-3.5,0.9
		l-0.6-1.4c0.6-0.3,1.3-0.6,2-0.8c0.7-0.2,1.4-0.3,2.2-0.3c1.5,0,2.5,0.3,3.2,1s1.1,1.7,1.1,3.1v8.3L253.6,1051.2L253.6,1051.2z
		 M249.4,1049.9c1.2,0,2.1-0.3,2.7-0.9c0.7-0.6,1-1.5,1-2.7v-1.1l-1.9,0.1c-1.5,0.1-2.5,0.3-3.2,0.7c-0.6,0.4-1,1-1,1.9
		c0,0.7,0.2,1.2,0.6,1.5C248.1,1049.7,248.7,1049.9,249.4,1049.9z"/>
	<path class="st16" d="M258.6,1035.7c0-0.4,0.1-0.7,0.3-0.9c0.2-0.2,0.5-0.3,0.8-0.3s0.6,0.1,0.8,0.3c0.2,0.2,0.3,0.5,0.3,0.9
		s-0.1,0.7-0.3,0.9c-0.2,0.2-0.5,0.3-0.8,0.3s-0.6-0.1-0.8-0.3S258.6,1036.1,258.6,1035.7z M260.6,1051.2h-1.9V1039h1.9V1051.2z"/>
	<path class="st16" d="M272.9,1051.2v-7.9c0-1-0.2-1.7-0.7-2.2s-1.2-0.7-2.1-0.7c-1.3,0-2.2,0.3-2.8,1s-0.9,1.8-0.9,3.4v6.4h-1.9
		V1039h1.5l0.3,1.7h0.1c0.4-0.6,0.9-1.1,1.6-1.4s1.4-0.5,2.3-0.5c1.5,0,2.6,0.4,3.3,1.1c0.7,0.7,1.1,1.8,1.1,3.4v8L272.9,1051.2
		L272.9,1051.2L272.9,1051.2z"/>
	<path class="st16" d="M286.5,1047.9c0,1.1-0.4,2-1.3,2.6c-0.8,0.6-2,0.9-3.6,0.9s-2.9-0.3-3.8-0.8v-1.7c0.6,0.3,1.2,0.5,1.9,0.7
		c0.7,0.2,1.3,0.3,1.9,0.3c1,0,1.7-0.2,2.2-0.5s0.8-0.8,0.8-1.4c0-0.5-0.2-0.9-0.6-1.2c-0.4-0.3-1.2-0.7-2.4-1.2
		c-1.1-0.4-1.9-0.8-2.4-1.1c-0.5-0.3-0.8-0.7-1.1-1.1c-0.2-0.4-0.4-0.9-0.4-1.4c0-1,0.4-1.8,1.2-2.4s1.9-0.9,3.3-0.9
		c1.3,0,2.6,0.3,3.9,0.8l-0.7,1.5c-1.2-0.5-2.3-0.8-3.3-0.8c-0.9,0-1.5,0.1-2,0.4c-0.4,0.3-0.7,0.7-0.7,1.1c0,0.3,0.1,0.6,0.3,0.8
		c0.2,0.2,0.4,0.5,0.8,0.7s1.1,0.5,2.1,0.9c1.4,0.5,2.4,1.1,2.9,1.6C286.2,1046.4,286.5,1047.1,286.5,1047.9z"/>
	<path class="st16" d="M300.6,1051.4c-1.8,0-3.2-0.5-4.3-1.7c-1-1.1-1.6-2.6-1.6-4.6s0.5-3.5,1.5-4.7s2.3-1.7,3.9-1.7
		c1.5,0,2.7,0.5,3.6,1.5s1.3,2.3,1.3,4v1.2h-8.4c0,1.4,0.4,2.5,1.1,3.3c0.7,0.7,1.7,1.1,2.9,1.1c1.3,0,2.6-0.3,3.9-0.8v1.7
		c-0.7,0.3-1.3,0.5-1.9,0.6C302.1,1051.4,301.4,1051.4,300.6,1051.4z M300.1,1040.3c-1,0-1.8,0.3-2.3,1c-0.6,0.6-0.9,1.5-1,2.7h6.4
		c0-1.2-0.3-2.1-0.8-2.7C301.8,1040.6,301.1,1040.3,300.1,1040.3z"/>
	<path class="st16" d="M316.6,1051.2v-7.9c0-1-0.2-1.7-0.7-2.2s-1.2-0.7-2.1-0.7c-1.3,0-2.2,0.3-2.8,1s-0.9,1.8-0.9,3.4v6.4h-1.9
		V1039h1.5l0.3,1.7h0.1c0.4-0.6,0.9-1.1,1.6-1.4s1.4-0.5,2.3-0.5c1.5,0,2.6,0.4,3.3,1.1c0.7,0.7,1.1,1.8,1.1,3.4v8L316.6,1051.2
		L316.6,1051.2L316.6,1051.2z"/>
	<path class="st16" d="M333.4,1051.4c-1.8,0-3.2-0.5-4.3-1.7c-1-1.1-1.6-2.6-1.6-4.6s0.5-3.5,1.5-4.7s2.3-1.7,3.9-1.7
		c1.5,0,2.7,0.5,3.6,1.5s1.3,2.3,1.3,4v1.2h-8.4c0,1.4,0.4,2.5,1.1,3.3c0.7,0.7,1.7,1.1,2.9,1.1c1.3,0,2.6-0.3,3.9-0.8v1.7
		c-0.7,0.3-1.3,0.5-1.9,0.6C334.9,1051.4,334.2,1051.4,333.4,1051.4z M332.9,1040.3c-1,0-1.8,0.3-2.3,1s-0.9,1.5-1,2.7h6.4
		c0-1.2-0.3-2.1-0.8-2.7C334.6,1040.6,333.8,1040.3,332.9,1040.3z"/>
	<path class="st16" d="M346.5,1040.4h-3.1v10.8h-1.9v-10.8h-2.2v-0.8l2.2-0.7v-0.7c0-3,1.3-4.5,3.9-4.5c0.6,0,1.4,0.1,2.3,0.4
		l-0.5,1.5c-0.7-0.2-1.3-0.3-1.8-0.3c-0.7,0-1.2,0.2-1.6,0.7c-0.3,0.5-0.5,1.2-0.5,2.2v0.8h3.1L346.5,1040.4L346.5,1040.4z
		 M354.2,1040.4h-3.1v10.8h-1.9v-10.8h-2.1v-0.8l2.2-0.7v-0.7c0-3,1.3-4.5,3.9-4.5c0.6,0,1.4,0.1,2.3,0.4l-0.5,1.5
		c-0.7-0.2-1.3-0.3-1.8-0.3c-0.7,0-1.2,0.2-1.6,0.7c-0.3,0.5-0.5,1.2-0.5,2.2v0.8h3.1V1040.4L354.2,1040.4z M356.4,1035.7
		c0-0.4,0.1-0.7,0.3-0.9c0.2-0.2,0.5-0.3,0.8-0.3s0.6,0.1,0.8,0.3c0.2,0.2,0.3,0.5,0.3,0.9s-0.1,0.7-0.3,0.9
		c-0.2,0.2-0.5,0.3-0.8,0.3s-0.6-0.1-0.8-0.3S356.4,1036.1,356.4,1035.7z M358.4,1051.2h-1.9V1039h1.9V1051.2z"/>
	<path class="st16" d="M367.2,1051.4c-1.8,0-3.1-0.5-4.1-1.6s-1.5-2.6-1.5-4.6s0.5-3.6,1.5-4.7s2.4-1.7,4.2-1.7
		c0.6,0,1.2,0.1,1.8,0.2c0.6,0.1,1,0.3,1.4,0.4l-0.6,1.6c-0.4-0.2-0.9-0.3-1.3-0.4c-0.5-0.1-0.9-0.2-1.3-0.2c-2.5,0-3.7,1.6-3.7,4.8
		c0,1.5,0.3,2.7,0.9,3.5s1.5,1.2,2.7,1.2c1,0,2.1-0.2,3.1-0.7v1.6C369.5,1051.2,368.4,1051.4,367.2,1051.4z"/>
	<path class="st16" d="M380.7,1051.2l-0.4-1.7h-0.1c-0.6,0.8-1.2,1.3-1.8,1.6c-0.6,0.3-1.4,0.4-2.3,0.4c-1.2,0-2.2-0.3-2.9-0.9
		c-0.7-0.6-1-1.5-1-2.7c0-2.5,2-3.8,5.9-3.9l2.1-0.1v-0.8c0-1-0.2-1.7-0.6-2.1c-0.4-0.5-1.1-0.7-2-0.7c-1,0-2.2,0.3-3.5,0.9
		l-0.6-1.4c0.6-0.3,1.3-0.6,2-0.8c0.7-0.2,1.4-0.3,2.2-0.3c1.5,0,2.5,0.3,3.2,1s1.1,1.7,1.1,3.1v8.3L380.7,1051.2L380.7,1051.2z
		 M376.5,1049.9c1.2,0,2.1-0.3,2.7-0.9c0.7-0.6,1-1.5,1-2.7v-1.1l-1.9,0.1c-1.5,0.1-2.5,0.3-3.2,0.7c-0.6,0.4-1,1-1,1.9
		c0,0.7,0.2,1.2,0.6,1.5C375.2,1049.7,375.8,1049.9,376.5,1049.9z"/>
	<path class="st16" d="M390.8,1051.4c-1.8,0-3.1-0.5-4.1-1.6s-1.5-2.6-1.5-4.6s0.5-3.6,1.5-4.7s2.4-1.7,4.2-1.7
		c0.6,0,1.2,0.1,1.8,0.2c0.6,0.1,1,0.3,1.4,0.4l-0.6,1.6c-0.4-0.2-0.9-0.3-1.3-0.4c-0.5-0.1-0.9-0.2-1.3-0.2c-2.5,0-3.7,1.6-3.7,4.8
		c0,1.5,0.3,2.7,0.9,3.5s1.5,1.2,2.7,1.2c1,0,2.1-0.2,3.1-0.7v1.6C393.1,1051.2,392,1051.4,390.8,1051.4z"/>
	<path class="st16" d="M396.6,1035.7c0-0.4,0.1-0.7,0.3-0.9c0.2-0.2,0.5-0.3,0.8-0.3s0.6,0.1,0.8,0.3c0.2,0.2,0.3,0.5,0.3,0.9
		s-0.1,0.7-0.3,0.9c-0.2,0.2-0.5,0.3-0.8,0.3s-0.6-0.1-0.8-0.3S396.6,1036.1,396.6,1035.7z M398.6,1051.2h-1.9V1039h1.9V1051.2z"/>
	<path class="st16" d="M406.5,1049.9c0.3,0,0.6,0,0.9-0.1c0.3,0,0.5-0.1,0.7-0.2v1.4c-0.2,0.1-0.5,0.2-0.9,0.2
		c-0.4,0.1-0.7,0.1-1.1,0.1c-2.4,0-3.5-1.2-3.5-3.7v-7.3h-1.8v-0.9l1.8-0.8l0.8-2.6h1.1v2.8h3.5v1.4h-3.5v7.2c0,0.7,0.2,1.3,0.5,1.7
		C405.4,1049.7,405.9,1049.9,406.5,1049.9z"/>
	<path class="st16" d="M415.8,1051.4c-1.8,0-3.2-0.5-4.3-1.7c-1-1.1-1.6-2.6-1.6-4.6s0.5-3.5,1.5-4.7s2.3-1.7,3.9-1.7
		c1.5,0,2.7,0.5,3.6,1.5s1.3,2.3,1.3,4v1.2h-8.4c0,1.4,0.4,2.5,1.1,3.3c0.7,0.7,1.7,1.1,2.9,1.1c1.3,0,2.6-0.3,3.9-0.8v1.7
		c-0.7,0.3-1.3,0.5-1.9,0.6C417.3,1051.4,416.6,1051.4,415.8,1051.4z M415.3,1040.3c-1,0-1.8,0.3-2.3,1s-0.9,1.5-1,2.7h6.4
		c0-1.2-0.3-2.1-0.8-2.7C417,1040.6,416.3,1040.3,415.3,1040.3z M413.9,1037.1c0.4-0.5,0.7-1,1.2-1.7c0.4-0.7,0.7-1.2,1-1.7h2.3v0.2
		c-0.3,0.5-0.8,1.1-1.5,1.8c-0.6,0.7-1.2,1.3-1.7,1.6H414L413.9,1037.1L413.9,1037.1z"/>
	<path class="st16" d="M430.6,1051.2l6.8-14.6h-8.9v-1.7h10.9v1.5l-6.7,14.8L430.6,1051.2L430.6,1051.2z"/>
	<path class="st16" d="M452.4,1043c0,2.8-0.4,4.9-1.3,6.3s-2.2,2.1-4.1,2.1c-1.8,0-3.1-0.7-4-2.1s-1.4-3.5-1.4-6.3s0.4-4.9,1.3-6.3
		s2.2-2.1,4-2.1s3.1,0.7,4,2.2C452,1038.2,452.4,1040.3,452.4,1043z M443.5,1043c0,2.4,0.3,4.1,0.8,5.2c0.6,1.1,1.4,1.6,2.7,1.6
		c1.2,0,2.1-0.5,2.7-1.6s0.8-2.8,0.8-5.2s-0.3-4.1-0.8-5.1c-0.6-1.1-1.4-1.6-2.7-1.6c-1.2,0-2.1,0.5-2.7,1.6
		C443.8,1039,443.5,1040.7,443.5,1043z"/>
	<path class="st16" d="M461.4,1039.8c0,1.7-0.3,3-0.9,3.8c-0.6,0.9-1.4,1.3-2.5,1.3c-1,0-1.9-0.4-2.4-1.3c-0.6-0.9-0.9-2.2-0.9-3.8
		c0-1.7,0.3-3,0.8-3.8s1.4-1.3,2.5-1.3s1.9,0.4,2.5,1.3S461.4,1038.1,461.4,1039.8z M456.2,1039.8c0,1.3,0.1,2.2,0.4,2.8
		s0.7,0.9,1.3,0.9c1.2,0,1.8-1.3,1.8-3.8s-0.6-3.8-1.8-3.8c-0.6,0-1.1,0.3-1.3,0.9S456.2,1038.5,456.2,1039.8z M468.3,1034.9
		l-9,16.3h-1.6l9-16.3H468.3z M471.2,1046.3c0,1.7-0.3,3-0.9,3.8c-0.6,0.9-1.4,1.3-2.5,1.3s-1.9-0.4-2.4-1.3s-0.9-2.2-0.9-3.8
		c0-1.7,0.3-3,0.8-3.8c0.6-0.9,1.4-1.3,2.5-1.3s1.9,0.4,2.5,1.3C470.9,1043.4,471.2,1044.7,471.2,1046.3z M466.1,1046.3
		c0,1.3,0.1,2.2,0.4,2.9c0.3,0.6,0.7,0.9,1.4,0.9s1.1-0.3,1.4-0.9s0.4-1.6,0.4-2.9s-0.1-2.2-0.4-2.8c-0.3-0.6-0.8-0.9-1.4-0.9
		s-1.1,0.3-1.4,0.9S466.1,1045,466.1,1046.3z"/>
</g>
<g class="st6">
	<path class="st34" d="M28,853.1l-2.9-9.5H25c0.1,1.9,0.2,3.2,0.2,3.9v5.6h-2.3v-12.2h3.5l2.9,9.3l0,0l3-9.3h3.5V853h-2.4v-5.7
		c0-0.3,0-0.6,0-0.9c0-0.4,0-1.3,0.1-2.8h-0.1l-3.1,9.5L28,853.1L28,853.1z"/>
	<path class="st34" d="M46.3,853.1l-0.9-2.9H41l-0.9,2.9h-2.8l4.3-12.2h3.1l4.3,12.2H46.3z M44.8,848c-0.8-2.6-1.3-4.1-1.4-4.4
		c-0.1-0.3-0.2-0.6-0.2-0.8c-0.2,0.7-0.7,2.5-1.6,5.3L44.8,848L44.8,848z"/>
	<path class="st34" d="M50.6,853.1v-12.2h2.6V853L50.6,853.1L50.6,853.1z"/>
	<path class="st34" d="M67,853.1h-3.3l-5.3-9.2h-0.1c0.1,1.6,0.2,2.8,0.2,3.5v5.7h-2.3v-12.2h3.2l5.3,9.1h0.1
		c-0.1-1.6-0.1-2.7-0.1-3.3v-5.8H67L67,853.1L67,853.1z"/>
	<path class="st34" d="M74.7,853.1h-2.6v-10h-3.3v-2.2H78v2.1h-3.3C74.7,843,74.7,853.1,74.7,853.1z"/>
	<path class="st34" d="M86.9,853.1h-7v-12.2h7v2.1h-4.4v2.7h4.1v2.1h-4.1v3.1h4.4V853.1z"/>
	<path class="st34" d="M100.2,853.1h-3.3l-5.3-9.2h-0.1c0.1,1.6,0.2,2.8,0.2,3.5v5.7h-2.3v-12.2h3.2l5.3,9.1H98
		c-0.1-1.6-0.1-2.7-0.1-3.3v-5.8h2.3L100.2,853.1L100.2,853.1z"/>
	<path class="st34" d="M110.6,853.1l-0.9-2.9h-4.4l-0.9,2.9h-2.8l4.3-12.2h3.1l4.3,12.2H110.6z M109.2,848c-0.8-2.6-1.3-4.1-1.4-4.4
		c-0.1-0.3-0.2-0.6-0.2-0.8c-0.2,0.7-0.7,2.5-1.6,5.3L109.2,848L109.2,848z"/>
	<path class="st34" d="M125.7,853.1h-3.3l-5.3-9.2l0,0c0.1,1.6,0.2,2.8,0.2,3.5v5.7H115v-12.2h3.2l5.3,9.1h0.1
		c-0.1-1.6-0.1-2.7-0.1-3.3v-5.8h2.3L125.7,853.1L125.7,853.1z"/>
	<path class="st34" d="M133.9,842.9c-1,0-1.7,0.4-2.2,1.1c-0.5,0.7-0.8,1.7-0.8,3c0,2.7,1,4.1,3,4.1c0.9,0,1.9-0.2,3.1-0.6v2.2
		c-1,0.4-2.1,0.6-3.3,0.6c-1.8,0-3.1-0.5-4.1-1.6c-0.9-1.1-1.4-2.6-1.4-4.6c0-1.3,0.2-2.4,0.7-3.3c0.5-0.9,1.1-1.7,2-2.2
		s1.9-0.8,3-0.8c1.2,0,2.4,0.3,3.6,0.9l-0.8,2.1c-0.5-0.2-0.9-0.4-1.4-0.6C134.8,843,134.4,842.9,133.9,842.9z"/>
	<path class="st34" d="M146.6,853.1h-7v-12.2h7v2.1h-4.4v2.7h4.1v2.1h-4.1v3.1h4.4V853.1z"/>
	<path class="st34" d="M154.5,840.9L150,853h-2.3l4.5-12.1C152.2,840.9,154.5,840.9,154.5,840.9z"/>
	<path class="st34" d="M160.8,853.1h-2.6v-10h-3.3v-2.2h9.2v2.1h-3.3L160.8,853.1L160.8,853.1z"/>
	<path class="st34" d="M168.6,848.4v4.7H166v-12.2h3.5c1.6,0,2.9,0.3,3.7,0.9c0.8,0.6,1.2,1.5,1.2,2.7c0,0.7-0.2,1.3-0.6,1.9
		c-0.4,0.6-0.9,1-1.7,1.3c1.8,2.7,3,4.5,3.6,5.3h-2.9l-2.9-4.7L168.6,848.4L168.6,848.4z M168.6,846.3h0.8c0.8,0,1.4-0.1,1.8-0.4
		c0.4-0.3,0.6-0.7,0.6-1.3s-0.2-1-0.6-1.2s-1-0.4-1.8-0.4h-0.8V846.3z"/>
	<path class="st34" d="M184.6,853.1l-0.9-2.9h-4.4l-0.9,2.9h-2.8l4.3-12.2h3.1l4.3,12.2H184.6z M183.1,848c-0.8-2.6-1.3-4.1-1.4-4.4
		c-0.1-0.3-0.2-0.6-0.2-0.8c-0.2,0.7-0.7,2.5-1.6,5.3L183.1,848L183.1,848z"/>
	<path class="st34" d="M196.1,849.7c0,1.1-0.4,2-1.2,2.6s-1.9,0.9-3.3,0.9c-1.3,0-2.4-0.2-3.4-0.7v-2.4c0.8,0.4,1.5,0.6,2.1,0.8
		c0.6,0.1,1.1,0.2,1.6,0.2c0.6,0,1-0.1,1.3-0.3s0.5-0.5,0.5-1c0-0.2-0.1-0.4-0.2-0.6c-0.1-0.2-0.3-0.4-0.6-0.5
		c-0.3-0.2-0.8-0.4-1.6-0.8c-0.7-0.3-1.3-0.7-1.7-1s-0.7-0.7-0.9-1.1c-0.2-0.4-0.3-0.9-0.3-1.5c0-1.1,0.4-1.9,1.1-2.5s1.7-0.9,3-0.9
		c0.6,0,1.2,0.1,1.8,0.2c0.6,0.1,1.2,0.4,1.8,0.6l-0.8,2c-0.6-0.3-1.2-0.5-1.6-0.6c-0.4-0.1-0.8-0.2-1.2-0.2c-0.5,0-0.9,0.1-1.1,0.3
		c-0.3,0.2-0.4,0.5-0.4,0.9c0,0.2,0.1,0.4,0.2,0.6c0.1,0.2,0.3,0.3,0.5,0.5s0.8,0.4,1.6,0.9c1.1,0.5,1.9,1.1,2.3,1.6
		C195.9,848.2,196.1,848.9,196.1,849.7z"/>
	<path class="st34" d="M209.1,853.1h-3.3l-5.3-9.2h-0.1c0.1,1.6,0.2,2.8,0.2,3.5v5.7h-2.3v-12.2h3.2l5.3,9.1h0.1
		c-0.1-1.6-0.1-2.7-0.1-3.3v-5.8h2.3L209.1,853.1L209.1,853.1z"/>
	<path class="st34" d="M214.7,853.1h-2.6v-12.2h7v2.1h-4.4v3.1h4.1v2.1h-4.1V853.1z"/>
	<path class="st34" d="M228.4,853.1h-7v-12.2h7v2.1H224v2.7h4.1v2.1H224v3.1h4.4V853.1z"/>
	<path class="st34" d="M233.5,848.4v4.7h-2.6v-12.2h3.5c1.6,0,2.9,0.3,3.7,0.9c0.8,0.6,1.2,1.5,1.2,2.7c0,0.7-0.2,1.3-0.6,1.9
		c-0.4,0.6-0.9,1-1.7,1.3c1.8,2.7,3,4.5,3.6,5.3h-2.9l-2.9-4.7L233.5,848.4L233.5,848.4z M233.5,846.3h0.8c0.8,0,1.4-0.1,1.8-0.4
		c0.4-0.3,0.6-0.7,0.6-1.3s-0.2-1-0.6-1.2s-1-0.4-1.8-0.4h-0.8V846.3z"/>
	<path class="st34" d="M246.9,853.1h-2.6v-10H241v-2.2h9.2v2.1h-3.3L246.9,853.1L246.9,853.1z"/>
</g>
<g class="st6">
	<path class="st35" d="M109.1,824.6c0,1.8-0.4,3.2-1.3,4.2s-2.2,1.5-3.8,1.5s-2.9-0.5-3.8-1.5s-1.3-2.4-1.3-4.2s0.4-3.2,1.3-4.1
		c0.9-1,2.2-1.4,3.8-1.4s2.9,0.5,3.8,1.4C108.6,821.4,109.1,822.8,109.1,824.6z M101.1,824.6c0,1.2,0.2,2.1,0.7,2.7
		c0.5,0.6,1.2,0.9,2.1,0.9c1.8,0,2.8-1.2,2.8-3.7c0-2.4-0.9-3.7-2.7-3.7c-0.9,0-1.6,0.3-2.1,0.9
		C101.4,822.5,101.1,823.4,101.1,824.6z"/>
	<path class="st35" d="M115.7,830.2c-1,0-1.7-0.4-2.3-1.1h-0.1c0.1,0.7,0.1,1.1,0.1,1.2v3.4h-2.3v-12h1.8l0.3,1.1h0.1
		c0.5-0.8,1.3-1.2,2.4-1.2c1,0,1.8,0.4,2.3,1.1c0.6,0.8,0.8,1.8,0.8,3.2c0,0.9-0.1,1.7-0.4,2.3s-0.6,1.2-1.1,1.5
		C116.9,830,116.4,830.2,115.7,830.2z M115.1,823.4c-0.6,0-1,0.2-1.2,0.5c-0.3,0.3-0.4,0.9-0.4,1.7v0.2c0,0.9,0.1,1.5,0.4,1.9
		s0.7,0.6,1.3,0.6c1,0,1.5-0.8,1.5-2.5c0-0.8-0.1-1.4-0.4-1.8C116,823.6,115.6,823.4,115.1,823.4z"/>
	<path class="st35" d="M124.3,828.4c0.4,0,0.9-0.1,1.4-0.3v1.7c-0.6,0.3-1.3,0.4-2.1,0.4c-0.9,0-1.6-0.2-2-0.7s-0.6-1.1-0.6-2.1v-4
		h-1.1v-1l1.2-0.8l0.7-1.8h1.5v1.8h2.3v1.7h-2.3v4c0,0.3,0.1,0.6,0.3,0.7C123.8,828.3,124,828.4,124.3,828.4z"/>
	<path class="st35" d="M127.3,819.6c0-0.7,0.4-1.1,1.2-1.1c0.8,0,1.2,0.4,1.2,1.1c0,0.4-0.1,0.6-0.3,0.8s-0.5,0.3-0.9,0.3
		C127.7,820.7,127.3,820.3,127.3,819.6z M129.7,830.1h-2.3v-8.3h2.3V830.1z"/>
	<path class="st35" d="M139.6,825.9c0,1.4-0.4,2.4-1.1,3.2c-0.7,0.8-1.7,1.1-3,1.1c-0.8,0-1.5-0.2-2.1-0.5s-1.1-0.9-1.4-1.5
		s-0.5-1.4-0.5-2.3c0-1.4,0.4-2.4,1.1-3.2c0.7-0.8,1.7-1.1,3-1.1c0.8,0,1.5,0.2,2.1,0.5s1.1,0.8,1.4,1.5
		C139.5,824.3,139.6,825,139.6,825.9z M133.9,825.9c0,0.8,0.1,1.4,0.4,1.9c0.3,0.4,0.7,0.6,1.3,0.6s1-0.2,1.3-0.6
		c0.3-0.4,0.4-1,0.4-1.9c0-0.8-0.1-1.4-0.4-1.9s-0.7-0.6-1.3-0.6s-1,0.2-1.3,0.6S133.9,825.1,133.9,825.9z"/>
	<path class="st35" d="M149.2,830.1h-2.3v-4.9c0-0.6-0.1-1-0.3-1.4c-0.2-0.3-0.6-0.4-1-0.4c-0.6,0-1.1,0.2-1.4,0.6
		c-0.3,0.4-0.4,1.1-0.4,2.1v3.9h-2.3v-8.3h1.7l0.3,1.1h0.1c0.3-0.4,0.6-0.7,1-0.9s0.9-0.3,1.5-0.3c1,0,1.7,0.3,2.2,0.8
		s0.8,1.3,0.8,2.3L149.2,830.1L149.2,830.1z"/>
	<path class="st35" d="M159.2,830.1h-2.3v-4.9c0-0.6-0.1-1-0.3-1.4c-0.2-0.3-0.6-0.4-1-0.4c-0.6,0-1.1,0.2-1.4,0.6
		c-0.3,0.4-0.4,1.1-0.4,2.1v3.9h-2.3v-8.3h1.7l0.3,1.1h0.1c0.3-0.4,0.6-0.7,1-0.9s0.9-0.3,1.5-0.3c1,0,1.7,0.3,2.2,0.8
		s0.8,1.3,0.8,2.3L159.2,830.1L159.2,830.1z"/>
	<path class="st35" d="M165.3,830.2c-1.3,0-2.4-0.4-3.1-1.1c-0.8-0.7-1.1-1.8-1.1-3.1c0-1.4,0.3-2.5,1-3.2c0.7-0.8,1.7-1.1,2.9-1.1
		s2.1,0.3,2.7,1c0.7,0.7,1,1.6,1,2.8v1.1h-5.4c0,0.6,0.2,1.1,0.6,1.5c0.4,0.4,0.9,0.5,1.5,0.5c0.5,0,1-0.1,1.4-0.2
		c0.4-0.1,0.9-0.3,1.4-0.5v1.8c-0.4,0.2-0.8,0.3-1.3,0.4S165.9,830.2,165.3,830.2z M165,823.2c-0.5,0-0.9,0.2-1.1,0.5
		c-0.3,0.3-0.4,0.7-0.5,1.3h3.2c0-0.6-0.2-1-0.4-1.3C165.8,823.4,165.4,823.2,165,823.2z"/>
	<path class="st35" d="M172.8,830.1h-2.3v-11.6h2.3V830.1z"/>
</g>
<g class="st6">
	<path class="st34" d="M99,566.1c0,2-0.5,3.6-1.5,4.6c-1,1.1-2.4,1.6-4.3,1.6s-3.3-0.5-4.3-1.6s-1.5-2.6-1.5-4.6s0.5-3.6,1.5-4.6
		s2.4-1.6,4.3-1.6s3.3,0.5,4.3,1.6C98.5,562.5,99,564.1,99,566.1z M90.2,566.1c0,1.4,0.3,2.4,0.8,3.1c0.5,0.7,1.3,1,2.3,1
		c2.1,0,3.1-1.4,3.1-4.1c0-2.7-1-4.1-3.1-4.1c-1,0-1.8,0.3-2.3,1C90.4,563.7,90.2,564.7,90.2,566.1z"/>
	<path class="st34" d="M109.9,563.8c0,1.3-0.4,2.3-1.2,3c-0.8,0.7-2,1-3.5,1h-1.1v4.3h-2.6V560h3.9c1.5,0,2.6,0.3,3.4,1
		S109.9,562.6,109.9,563.8z M104.1,565.8h0.8c0.8,0,1.4-0.2,1.8-0.5s0.6-0.8,0.6-1.4c0-0.6-0.2-1-0.5-1.3s-0.8-0.4-1.5-0.4h-1.2
		V565.8z"/>
	<path class="st34" d="M119.2,572.2h-7v-12.1h7v2.1h-4.4v2.7h4.1v2.1h-4.1v3.1h4.4V572.2z M114.2,559.1v-0.2c1-1.1,1.6-1.9,2-2.5
		h2.8v0.2c-0.3,0.3-0.8,0.7-1.5,1.3s-1.2,1-1.6,1.3L114.2,559.1L114.2,559.1z"/>
	<path class="st34" d="M124.3,567.5v4.7h-2.6v-12.1h3.5c1.6,0,2.9,0.3,3.7,0.9c0.8,0.6,1.2,1.5,1.2,2.7c0,0.7-0.2,1.3-0.6,1.9
		c-0.4,0.6-0.9,1-1.7,1.3c1.8,2.7,3,4.5,3.6,5.3h-2.9l-2.9-4.7L124.3,567.5L124.3,567.5z M124.3,565.4h0.8c0.8,0,1.4-0.1,1.8-0.4
		c0.4-0.3,0.6-0.7,0.6-1.3s-0.2-1-0.6-1.2c-0.4-0.2-1-0.4-1.8-0.4h-0.8V565.4z"/>
	<path class="st34" d="M140.4,572.2l-0.9-2.9h-4.4l-0.9,2.9h-2.8l4.3-12.2h3.1l4.3,12.2H140.4z M138.9,567.1
		c-0.8-2.6-1.3-4.1-1.4-4.4s-0.2-0.6-0.2-0.8c-0.2,0.7-0.7,2.5-1.6,5.3L138.9,567.1L138.9,567.1z"/>
	<path class="st34" d="M149.4,572.2h-2.6v-10h-3.3v-2.1h9.2v2.1h-3.3L149.4,572.2L149.4,572.2z"/>
	<path class="st34" d="M154.5,572.2v-12.1h2.6v12.1H154.5z"/>
	<path class="st34" d="M171.2,566.1c0,2-0.5,3.6-1.5,4.6c-1,1.1-2.4,1.6-4.3,1.6s-3.3-0.5-4.3-1.6s-1.5-2.6-1.5-4.6s0.5-3.6,1.5-4.6
		s2.4-1.6,4.3-1.6c1.9,0,3.3,0.5,4.3,1.6C170.7,562.5,171.2,564.1,171.2,566.1z M162.3,566.1c0,1.4,0.3,2.4,0.8,3.1
		c0.5,0.7,1.3,1,2.3,1c2.1,0,3.1-1.4,3.1-4.1c0-2.7-1-4.1-3.1-4.1c-1,0-1.8,0.3-2.3,1C162.6,563.7,162.3,564.7,162.3,566.1z"/>
	<path class="st34" d="M184.4,572.2h-3.3l-5.3-9.2h-0.1c0.1,1.6,0.2,2.8,0.2,3.5v5.7h-2.3v-12.1h3.2l5.3,9.1h0.1
		c-0.1-1.6-0.1-2.7-0.1-3.3v-5.7h2.3L184.4,572.2L184.4,572.2z"/>
</g>
<g class="st6">
	<path class="st34" d="M89.4,71.4h-7V59.3h7v2.1H85v2.7h4.1v2.1H85v3.1h4.4V71.4z M84.4,58.3v-0.2c1-1.1,1.6-1.9,2-2.5h2.8v0.2
		c-0.3,0.3-0.8,0.7-1.5,1.3s-1.2,1-1.6,1.3h-1.7V58.3z"/>
	<path class="st34" d="M98.9,59.3h2.6l-4.1,12.1h-2.8l-4.1-12.1h2.6l2.3,7.2c0.1,0.4,0.3,0.9,0.4,1.5s0.2,1,0.3,1.2
		c0.1-0.5,0.3-1.4,0.6-2.7L98.9,59.3z"/>
	<path class="st34" d="M110.4,71.4l-0.9-2.9h-4.4l-0.9,2.9h-2.8l4.3-12.2h3.1l4.3,12.2H110.4z M108.9,66.4c-0.8-2.6-1.3-4.1-1.4-4.4
		s-0.2-0.6-0.2-0.8c-0.2,0.7-0.7,2.5-1.6,5.3L108.9,66.4L108.9,66.4z"/>
	<path class="st34" d="M114.7,71.4V59.3h2.6v10h4.9v2.1H114.7L114.7,71.4z"/>
	<path class="st34" d="M134.2,59.3v7.9c0,0.9-0.2,1.7-0.6,2.4s-1,1.2-1.7,1.6c-0.8,0.4-1.7,0.5-2.7,0.5c-1.6,0-2.8-0.4-3.6-1.2
		s-1.3-1.9-1.3-3.3v-7.8h2.6v7.4c0,0.9,0.2,1.6,0.6,2.1c0.4,0.4,1,0.7,1.9,0.7c0.8,0,1.5-0.2,1.8-0.7c0.4-0.4,0.6-1.1,0.6-2.1v-7.4
		L134.2,59.3L134.2,59.3z"/>
	<path class="st34" d="M144.6,71.4l-0.9-2.9h-4.4l-0.9,2.9h-2.8l4.3-12.2h3.1l4.3,12.2H144.6z M143.1,66.4c-0.8-2.6-1.3-4.1-1.4-4.4
		s-0.2-0.6-0.2-0.8c-0.2,0.7-0.7,2.5-1.6,5.3L143.1,66.4L143.1,66.4z"/>
	<path class="st34" d="M153.6,71.4H151v-10h-3.3v-2.1h9.2v2.1h-3.3L153.6,71.4L153.6,71.4z"/>
	<path class="st34" d="M158.7,71.4V59.3h2.6v12.1H158.7L158.7,71.4z"/>
	<path class="st34" d="M175.4,65.3c0,2-0.5,3.6-1.5,4.6c-1,1.1-2.4,1.6-4.3,1.6s-3.3-0.5-4.3-1.6s-1.5-2.6-1.5-4.6s0.5-3.6,1.5-4.6
		s2.4-1.6,4.3-1.6c1.9,0,3.3,0.5,4.3,1.6S175.4,63.3,175.4,65.3z M166.5,65.3c0,1.4,0.3,2.4,0.8,3.1s1.3,1,2.3,1
		c2.1,0,3.1-1.4,3.1-4.1s-1-4.1-3.1-4.1c-1,0-1.8,0.3-2.3,1S166.5,64,166.5,65.3z"/>
	<path class="st34" d="M188.7,71.4h-3.3l-5.3-9.2H180c0.1,1.6,0.2,2.8,0.2,3.5v5.7h-2.3V59.3h3.2l5.3,9.1h0.1
		c-0.1-1.6-0.1-2.7-0.1-3.3v-5.7h2.3L188.7,71.4L188.7,71.4z"/>
</g>
<g class="st6">
	<path class="st7" d="M331.2,145.8c0,2.7-0.8,4.7-2.3,6.2c-1.5,1.4-3.7,2.1-6.6,2.1h-4.6v-16.3h5.1c2.7,0,4.7,0.7,6.2,2.1
		S331.2,143.3,331.2,145.8z M327.6,145.9c0-3.5-1.5-5.3-4.6-5.3h-1.9v10.6h1.5C325.9,151.3,327.6,149.5,327.6,145.9z"/>
	<path class="st7" d="M339.9,154.4c-2,0-3.6-0.6-4.7-1.7c-1.1-1.1-1.7-2.7-1.7-4.7c0-2.1,0.5-3.7,1.6-4.8c1-1.1,2.5-1.7,4.3-1.7
		s3.1,0.5,4.1,1.5s1.5,2.4,1.5,4.2v1.7h-8c0,1,0.3,1.7,0.9,2.3c0.5,0.5,1.3,0.8,2.3,0.8c0.8,0,1.5-0.1,2.1-0.2
		c0.7-0.2,1.4-0.4,2.1-0.7v2.6c-0.6,0.3-1.2,0.5-1.9,0.7C341.7,154.3,340.9,154.4,339.9,154.4z M339.5,143.9c-0.7,0-1.3,0.2-1.7,0.7
		c-0.4,0.5-0.6,1.1-0.7,1.9h4.8c0-0.8-0.2-1.5-0.7-1.9C340.7,144.1,340.2,143.9,339.5,143.9z M337.5,140.3V140
		c1.3-1.5,2.2-2.6,2.6-3.4h3.8v0.2c-0.4,0.4-1,1-2,1.7c-0.9,0.8-1.7,1.3-2.2,1.7h-2.2V140.3z"/>
	<path class="st7" d="M354.7,144.2h-2.9v9.9h-3.4v-9.9h-1.9v-1.6l1.9-0.9v-0.9c0-1.4,0.4-2.5,1-3.1c0.7-0.7,1.8-1,3.4-1
		c1.2,0,2.2,0.2,3.1,0.5l-0.9,2.5c-0.7-0.2-1.3-0.3-1.9-0.3c-0.5,0-0.8,0.1-1,0.4s-0.3,0.7-0.3,1.1v0.8h2.9L354.7,144.2L354.7,144.2
		L354.7,144.2z"/>
	<path class="st7" d="M364.6,154.1l-0.7-1.7h-0.1c-0.6,0.7-1.2,1.2-1.8,1.5s-1.4,0.4-2.4,0.4c-1.2,0-2.1-0.3-2.8-1s-1-1.7-1-2.9
		c0-1.3,0.5-2.3,1.4-2.9c0.9-0.6,2.3-1,4.2-1l2.2-0.1v-0.5c0-1.3-0.6-1.9-1.9-1.9c-1,0-2.2,0.3-3.5,0.9l-1.1-2.3
		c1.4-0.8,3-1.1,4.8-1.1c1.7,0,3,0.4,3.8,1.1c0.9,0.7,1.3,1.8,1.3,3.3v8.3L364.6,154.1L364.6,154.1L364.6,154.1z M363.6,148.4h-1.3
		c-1,0-1.7,0.2-2.2,0.5s-0.7,0.8-0.7,1.5c0,1,0.6,1.4,1.7,1.4c0.8,0,1.4-0.2,1.9-0.7s0.7-1.1,0.7-1.8L363.6,148.4L363.6,148.4z"/>
	<path class="st7" d="M379.3,154.1l-0.5-1.6h-0.2c-0.4,0.6-0.9,1-1.6,1.3s-1.4,0.5-2.3,0.5c-1.5,0-2.6-0.4-3.3-1.2
		c-0.7-0.8-1.1-1.9-1.1-3.4v-8.1h3.4v7.3c0,0.9,0.2,1.6,0.5,2c0.3,0.5,0.8,0.7,1.5,0.7c1,0,1.6-0.3,2.1-1c0.4-0.6,0.6-1.7,0.6-3.2
		v-5.9h3.4V154L379.3,154.1L379.3,154.1z"/>
	<path class="st7" d="M390.7,151.7c0.6,0,1.3-0.1,2.1-0.4v2.5c-0.8,0.4-1.9,0.6-3.1,0.6c-1.4,0-2.4-0.3-3-1s-0.9-1.7-0.9-3.1v-6
		h-1.6v-1.4l1.9-1.1l1-2.6h2.2v2.7h3.5v2.6h-3.5v6c0,0.5,0.1,0.8,0.4,1.1S390.3,151.7,390.7,151.7z"/>
</g>
<g class="st6">
	<path class="st7" d="M331.2,391.7c0,2.7-0.8,4.7-2.3,6.2c-1.5,1.4-3.7,2.1-6.6,2.1h-4.6v-16.3h5.1c2.7,0,4.7,0.7,6.2,2.1
		S331.2,389.2,331.2,391.7z M327.6,391.8c0-3.5-1.5-5.3-4.6-5.3h-1.9v10.6h1.5C325.9,397.2,327.6,395.4,327.6,391.8z"/>
	<path class="st7" d="M339.9,400.2c-2,0-3.6-0.6-4.7-1.7s-1.7-2.7-1.7-4.7c0-2.1,0.5-3.7,1.6-4.8c1-1.1,2.5-1.7,4.3-1.7
		s3.1,0.5,4.1,1.5s1.5,2.4,1.5,4.2v1.7h-8c0,1,0.3,1.7,0.9,2.3c0.5,0.5,1.3,0.8,2.3,0.8c0.8,0,1.5-0.1,2.1-0.2
		c0.7-0.2,1.4-0.4,2.1-0.7v2.6c-0.6,0.3-1.2,0.5-1.9,0.7C341.7,400.2,340.9,400.2,339.9,400.2z M339.5,389.7c-0.7,0-1.3,0.2-1.7,0.7
		c-0.4,0.5-0.6,1.1-0.7,1.9h4.8c0-0.8-0.2-1.5-0.7-1.9C340.7,390,340.2,389.7,339.5,389.7z M337.5,386.2v-0.3
		c1.3-1.5,2.2-2.6,2.6-3.4h3.8v0.2c-0.4,0.4-1,1-2,1.7c-0.9,0.8-1.7,1.3-2.2,1.7L337.5,386.2L337.5,386.2z"/>
	<path class="st7" d="M354.7,390.1h-2.9v9.9h-3.4v-9.9h-1.9v-1.6l1.9-0.9v-0.9c0-1.4,0.4-2.5,1-3.1c0.7-0.7,1.8-1,3.4-1
		c1.2,0,2.2,0.2,3.1,0.5l-0.9,2.5c-0.7-0.2-1.3-0.3-1.9-0.3c-0.5,0-0.8,0.1-1,0.4s-0.3,0.7-0.3,1.1v0.8h2.9L354.7,390.1L354.7,390.1
		L354.7,390.1z"/>
	<path class="st7" d="M364.6,400l-0.7-1.7h-0.1c-0.6,0.7-1.2,1.2-1.8,1.5s-1.4,0.4-2.4,0.4c-1.2,0-2.1-0.3-2.8-1s-1-1.7-1-2.9
		c0-1.3,0.5-2.3,1.4-2.9s2.3-1,4.2-1l2.2-0.1v-0.5c0-1.3-0.6-1.9-1.9-1.9c-1,0-2.2,0.3-3.5,0.9l-1.1-2.3c1.4-0.8,3-1.1,4.8-1.1
		c1.7,0,3,0.4,3.8,1.1c0.9,0.7,1.3,1.8,1.3,3.3v8.3L364.6,400L364.6,400L364.6,400z M363.6,394.2h-1.3c-1,0-1.7,0.2-2.2,0.5
		s-0.7,0.8-0.7,1.5c0,1,0.6,1.4,1.7,1.4c0.8,0,1.4-0.2,1.9-0.7s0.7-1.1,0.7-1.8L363.6,394.2L363.6,394.2z"/>
	<path class="st7" d="M379.3,400l-0.5-1.6h-0.2c-0.4,0.6-0.9,1-1.6,1.3s-1.4,0.5-2.3,0.5c-1.5,0-2.6-0.4-3.3-1.2
		c-0.7-0.8-1.1-1.9-1.1-3.4v-8.1h3.4v7.3c0,0.9,0.2,1.6,0.5,2c0.3,0.5,0.8,0.7,1.5,0.7c1,0,1.6-0.3,2.1-1c0.4-0.6,0.6-1.7,0.6-3.2
		v-5.9h3.4v12.5L379.3,400L379.3,400z"/>
	<path class="st7" d="M390.7,397.5c0.6,0,1.3-0.1,2.1-0.4v2.5c-0.8,0.4-1.9,0.6-3.1,0.6c-1.4,0-2.4-0.3-3-1s-0.9-1.7-0.9-3.1v-6
		h-1.6v-1.4l1.9-1.1l1-2.6h2.2v2.7h3.5v2.6h-3.5v6c0,0.5,0.1,0.8,0.4,1.1S390.3,397.5,390.7,397.5z"/>
</g>
<g class="st6">
	<path class="st34" d="M100.6,317.2c-1,0-1.7,0.4-2.2,1.1s-0.8,1.7-0.8,3c0,2.7,1,4.1,3,4.1c0.9,0,1.9-0.2,3.1-0.6v2.2
		c-1,0.4-2.1,0.6-3.3,0.6c-1.8,0-3.1-0.5-4.1-1.6c-0.9-1.1-1.4-2.6-1.4-4.6c0-1.3,0.2-2.4,0.7-3.3s1.1-1.7,2-2.2s1.9-0.8,3-0.8
		c1.2,0,2.4,0.3,3.6,0.9l-0.8,2.1c-0.5-0.2-0.9-0.4-1.4-0.6S101.1,317.2,100.6,317.2z"/>
	<path class="st34" d="M108.9,322.7v4.7h-2.6v-12.1h3.5c1.6,0,2.9,0.3,3.7,0.9s1.2,1.5,1.2,2.7c0,0.7-0.2,1.3-0.6,1.9
		c-0.4,0.6-0.9,1-1.7,1.3c1.8,2.7,3,4.5,3.6,5.3h-2.9l-2.9-4.7C110.3,322.7,108.9,322.7,108.9,322.7z M108.9,320.6h0.8
		c0.8,0,1.4-0.1,1.8-0.4c0.4-0.3,0.6-0.7,0.6-1.3c0-0.6-0.2-1-0.6-1.2c-0.4-0.2-1-0.4-1.8-0.4h-0.8V320.6z"/>
	<path class="st34" d="M124.5,327.3h-7v-12.1h7v2.1h-4.4v2.7h4.1v2.1h-4.1v3.1h4.4V327.3z M119.5,314.2V314c1-1.1,1.6-1.9,2-2.5h2.8
		v0.2c-0.3,0.3-0.8,0.7-1.5,1.3c-0.7,0.6-1.2,1-1.6,1.3L119.5,314.2L119.5,314.2z"/>
	<path class="st34" d="M134.5,327.3l-0.9-2.9h-4.4l-0.9,2.9h-2.8l4.3-12.2h3.1l4.3,12.2H134.5z M133,322.3c-0.8-2.6-1.3-4.1-1.4-4.4
		c-0.1-0.3-0.2-0.6-0.2-0.8c-0.2,0.7-0.7,2.5-1.6,5.3L133,322.3L133,322.3z"/>
	<path class="st34" d="M143.5,327.3h-2.6v-10h-3.3v-2.1h9.2v2.1h-3.3L143.5,327.3L143.5,327.3z"/>
	<path class="st34" d="M148.6,327.3v-12.1h2.6v12.1H148.6L148.6,327.3z"/>
	<path class="st34" d="M165.3,321.2c0,2-0.5,3.6-1.5,4.6c-1,1.1-2.4,1.6-4.3,1.6s-3.3-0.5-4.3-1.6s-1.5-2.6-1.5-4.6s0.5-3.6,1.5-4.6
		s2.4-1.6,4.3-1.6c1.9,0,3.3,0.5,4.3,1.6S165.3,319.2,165.3,321.2z M156.4,321.2c0,1.4,0.3,2.4,0.8,3.1s1.3,1,2.3,1
		c2.1,0,3.1-1.4,3.1-4.1s-1-4.1-3.1-4.1c-1,0-1.8,0.3-2.3,1C156.7,318.9,156.4,319.9,156.4,321.2z"/>
	<path class="st34" d="M178.6,327.3h-3.3l-5.3-9.2h-0.1c0.1,1.6,0.2,2.8,0.2,3.5v5.7h-2.3v-12.1h3.2l5.3,9.1h0.1
		c-0.1-1.6-0.1-2.7-0.1-3.3v-5.7h2.3L178.6,327.3L178.6,327.3z"/>
</g>
<g class="st6">
	<path class="st16" d="M550.7,836.6c-1,0-1.7-0.3-2.2-1s-0.8-1.6-0.8-2.8c0-1.3,0.2-2.3,0.5-3h1.2c-0.2,0.4-0.3,0.9-0.4,1.5
		c-0.1,0.5-0.2,1-0.2,1.6c0,0.8,0.2,1.5,0.5,1.9s0.8,0.6,1.3,0.6c0.4,0,0.7-0.1,0.9-0.2s0.5-0.4,0.7-0.8c0.2-0.4,0.4-0.9,0.7-1.6
		c0.4-1,0.8-1.7,1.3-2.2c0.5-0.4,1.1-0.7,1.9-0.7c0.8,0,1.5,0.3,2,0.9s0.7,1.5,0.7,2.5c0,1.1-0.2,2.1-0.6,3l-1.1-0.4
		c0.4-0.9,0.6-1.8,0.6-2.6c0-0.7-0.1-1.2-0.4-1.6c-0.3-0.4-0.7-0.6-1.2-0.6c-0.4,0-0.7,0.1-0.9,0.2c-0.2,0.1-0.5,0.4-0.7,0.7
		s-0.4,0.8-0.7,1.5c-0.4,1.1-0.8,1.9-1.3,2.4S551.4,836.6,550.7,836.6z"/>
	<path class="st16" d="M551.9,845.6c-1.3,0-2.4-0.3-3.1-1c-0.7-0.7-1.1-1.6-1.1-2.8c0-0.7,0.2-1.4,0.5-1.9c0.3-0.6,0.8-1,1.5-1.3
		s1.4-0.5,2.2-0.5c1.3,0,2.4,0.3,3.1,1c0.7,0.7,1.1,1.6,1.1,2.8c0,1.1-0.4,2-1.1,2.7S553.2,845.6,551.9,845.6z M551.9,839.4
		c-1,0-1.8,0.2-2.4,0.6c-0.5,0.4-0.8,1-0.8,1.8s0.3,1.4,0.8,1.8s1.3,0.6,2.4,0.6c1,0,1.8-0.2,2.4-0.6c0.5-0.4,0.8-1,0.8-1.9
		c0-0.8-0.3-1.4-0.8-1.8C553.7,839.6,552.9,839.4,551.9,839.4z"/>
	<path class="st16" d="M547.8,849v-1.2h11.6v1.2H547.8z"/>
	<path class="st16" d="M555.9,852.8h-5.3c-0.7,0-1.2,0.1-1.5,0.5c-0.3,0.3-0.5,0.8-0.5,1.4c0,0.9,0.2,1.5,0.7,1.9s1.2,0.6,2.3,0.6
		h4.3v1.2h-8.2v-1l1.1-0.2v-0.1c-0.4-0.3-0.7-0.6-0.9-1.1c-0.2-0.4-0.3-1-0.3-1.5c0-1,0.2-1.7,0.7-2.2s1.2-0.7,2.3-0.7h5.3
		L555.9,852.8L555.9,852.8z"/>
	<path class="st16" d="M548.7,863.6c0,0.2,0,0.4,0,0.6s0.1,0.4,0.1,0.5h-0.9c-0.1-0.1-0.1-0.3-0.2-0.6c0-0.3-0.1-0.5-0.1-0.7
		c0-1.6,0.8-2.4,2.5-2.4h4.8v-1.1h0.6l0.5,1.2l1.7,0.5v0.7h-1.9v2.4h-1v-2.4H550c-0.5,0-0.9,0.1-1.1,0.4S548.7,863.2,548.7,863.6z"
		/>
	<path class="st16" d="M547.8,867.6v-1.2h8.2v1.2H547.8z M558.1,866.3c0.3,0,0.5,0.1,0.6,0.2c0.1,0.1,0.2,0.3,0.2,0.5
		s-0.1,0.4-0.2,0.5c-0.1,0.1-0.3,0.2-0.6,0.2s-0.5-0.1-0.6-0.2c-0.1-0.1-0.2-0.3-0.2-0.5s0.1-0.4,0.2-0.5
		C557.7,866.3,557.9,866.3,558.1,866.3z"/>
	<path class="st16" d="M551.9,877.3c-1.3,0-2.4-0.3-3.1-1c-0.7-0.7-1.1-1.6-1.1-2.8c0-0.7,0.2-1.4,0.5-1.9c0.3-0.6,0.8-1,1.5-1.3
		s1.4-0.5,2.2-0.5c1.3,0,2.4,0.3,3.1,1c0.7,0.7,1.1,1.6,1.1,2.8c0,1.1-0.4,2-1.1,2.7S553.2,877.3,551.9,877.3z M551.9,871.1
		c-1,0-1.8,0.2-2.4,0.6c-0.5,0.4-0.8,1-0.8,1.8s0.3,1.4,0.8,1.8s1.3,0.6,2.4,0.6c1,0,1.8-0.2,2.4-0.6c0.5-0.4,0.8-1,0.8-1.9
		c0-0.8-0.3-1.4-0.8-1.8C553.7,871.3,552.9,871.1,551.9,871.1z"/>
	<path class="st16" d="M547.8,885h5.3c0.7,0,1.2-0.2,1.5-0.5s0.5-0.8,0.5-1.4c0-0.9-0.2-1.5-0.7-1.9s-1.2-0.6-2.3-0.6h-4.3v-1.2h8.2
		v1l-1.1,0.2v0.1c0.4,0.3,0.7,0.6,0.9,1.1s0.3,1,0.3,1.5c0,1-0.2,1.7-0.7,2.2s-1.2,0.7-2.3,0.7h-5.3L547.8,885L547.8,885z"/>
	<path class="st16" d="M550,894c-0.8,0-1.3-0.3-1.8-0.8c-0.4-0.6-0.6-1.4-0.6-2.4c0-1.1,0.2-1.9,0.5-2.5h1.1
		c-0.2,0.4-0.4,0.8-0.5,1.3c-0.1,0.4-0.2,0.9-0.2,1.3c0,0.6,0.1,1.1,0.3,1.5c0.2,0.3,0.5,0.5,0.9,0.5c0.3,0,0.6-0.1,0.8-0.4
		c0.2-0.3,0.5-0.8,0.8-1.6s0.5-1.3,0.7-1.6s0.5-0.6,0.7-0.7c0.3-0.2,0.6-0.2,1-0.2c0.7,0,1.2,0.3,1.6,0.8c0.4,0.5,0.6,1.3,0.6,2.2
		s-0.2,1.7-0.5,2.6l-1-0.4c0.3-0.8,0.5-1.6,0.5-2.2c0-0.6-0.1-1-0.3-1.3s-0.4-0.4-0.8-0.4c-0.2,0-0.4,0.1-0.6,0.2
		c-0.2,0.1-0.3,0.3-0.4,0.5c-0.1,0.2-0.3,0.7-0.6,1.4c-0.4,1-0.7,1.6-1.1,2C551,893.9,550.5,894,550,894z"/>
	<path class="st16" d="M547.6,903.3c0-1.2,0.4-2.1,1.1-2.7c0.7-0.6,1.8-1,3.1-1c1.4,0,2.4,0.3,3.2,1c0.7,0.7,1.1,1.6,1.1,2.8
		c0,0.4,0,0.8-0.1,1.2s-0.2,0.7-0.3,0.9l-1-0.4c0.1-0.3,0.2-0.6,0.3-0.9c0.1-0.3,0.1-0.6,0.1-0.9c0-1.7-1.1-2.5-3.2-2.5
		c-1,0-1.8,0.2-2.3,0.6c-0.5,0.4-0.8,1-0.8,1.8c0,0.7,0.1,1.4,0.4,2.1h-1.1C547.8,904.8,547.6,904.1,547.6,903.3z"/>
	<path class="st16" d="M547.8,908.5v-1.2h11.6v1.2H547.8z"/>
	<path class="st16" d="M547.8,912.3v-1.2h8.2v1.2H547.8z M558.1,911c0.3,0,0.5,0.1,0.6,0.2c0.1,0.1,0.2,0.3,0.2,0.5
		s-0.1,0.4-0.2,0.5c-0.1,0.1-0.3,0.2-0.6,0.2s-0.5-0.1-0.6-0.2c-0.1-0.1-0.2-0.3-0.2-0.5s0.1-0.4,0.2-0.5
		C557.7,911.1,557.9,911,558.1,911z"/>
	<path class="st16" d="M547.6,918.4c0-1.2,0.4-2.2,1.1-2.9c0.7-0.7,1.8-1,3.1-1s2.4,0.3,3.1,1c0.8,0.6,1.2,1.5,1.2,2.6
		c0,1-0.3,1.8-1,2.4c-0.7,0.6-1.6,0.9-2.7,0.9h-0.8v-5.6c-1,0-1.7,0.3-2.2,0.7c-0.5,0.5-0.7,1.1-0.7,1.9c0,0.9,0.2,1.7,0.6,2.6h-1.1
		c-0.2-0.4-0.3-0.9-0.4-1.2C547.7,919.4,547.6,919,547.6,918.4z M555,918.1c0-0.7-0.2-1.2-0.6-1.6c-0.4-0.4-1-0.6-1.8-0.7v4.3
		c0.8,0,1.4-0.2,1.8-0.5C554.8,919.2,555,918.7,555,918.1z"/>
	<path class="st16" d="M547.8,929.1h5.3c0.7,0,1.2-0.2,1.5-0.5s0.5-0.8,0.5-1.4c0-0.9-0.2-1.5-0.7-1.9s-1.2-0.6-2.3-0.6h-4.3v-1.2
		h8.2v1l-1.1,0.2v0.1c0.4,0.3,0.7,0.6,0.9,1.1s0.3,1,0.3,1.5c0,1-0.2,1.7-0.7,2.2s-1.2,0.7-2.3,0.7h-5.3L547.8,929.1L547.8,929.1z"
		/>
	<path class="st16" d="M548.7,935.5c0,0.2,0,0.4,0,0.6s0.1,0.4,0.1,0.5h-0.9c-0.1-0.1-0.1-0.3-0.2-0.6c0-0.3-0.1-0.5-0.1-0.7
		c0-1.6,0.8-2.4,2.5-2.4h4.8v-1.2h0.6l0.5,1.2l1.7,0.5v0.7h-1.9v2.4h-1v-2.4H550c-0.5,0-0.9,0.1-1.1,0.4S548.7,935.1,548.7,935.5z"
		/>
</g>
<g>
	<g>
		<path class="st16" d="M479.9,92.3c-1.5,0-2.7-0.5-3.5-1.6c-0.9-1.1-1.3-2.6-1.3-4.5c0-1.8,0.3-3.3,1-4.6h3.2c-0.5,1.1-0.8,2-1,2.8
			c-0.2,0.8-0.3,1.5-0.3,2.1c0,0.8,0.1,1.3,0.4,1.8c0.3,0.4,0.7,0.6,1.3,0.6c0.3,0,0.6-0.1,0.9-0.3c0.3-0.2,0.5-0.4,0.7-0.8
			c0.2-0.3,0.6-1.1,1.1-2.1c0.5-1,0.9-1.8,1.4-2.3s0.9-0.9,1.5-1.2c0.6-0.3,1.3-0.4,2-0.4c1.5,0,2.6,0.5,3.4,1.5s1.2,2.3,1.2,4.1
			c0,0.9-0.1,1.7-0.3,2.4c-0.2,0.8-0.5,1.6-0.9,2.4l-2.7-1.1c0.4-0.9,0.6-1.6,0.8-2.2c0.1-0.6,0.2-1.1,0.2-1.7
			c0-0.7-0.2-1.2-0.5-1.5c-0.3-0.4-0.7-0.5-1.2-0.5c-0.3,0-0.6,0.1-0.8,0.2c-0.2,0.1-0.4,0.4-0.7,0.7c-0.2,0.3-0.6,1-1.2,2.2
			c-0.7,1.5-1.5,2.6-2.2,3.2C481.9,92,481,92.3,479.9,92.3z"/>
		<path class="st16" d="M475.3,103.8l1.6-0.5v-0.2c-0.6-0.4-1-0.9-1.4-1.6c-0.3-0.7-0.5-1.4-0.5-2.3c0-1.5,0.4-2.6,1.2-3.3
			s1.9-1.1,3.4-1.1h8.2v3.4h-7.3c-0.9,0-1.6,0.2-2,0.5s-0.7,0.8-0.7,1.5c0,1,0.3,1.7,1,2.1c0.6,0.4,1.7,0.6,3.2,0.6h5.9v3.4h-12.6
			V103.8z"/>
		<path class="st16" d="M488.1,116.9c0,0.5,0,0.8-0.1,1.2l-3.2-0.3c0.1-0.3,0.1-0.6,0.1-1c0-1.1-0.3-1.9-0.8-2.6
			c-0.6-0.6-1.3-0.9-2.4-0.9h-6.4v-3.4h12.6v2.6l-2.1,0.5v0.2c0.7,0.4,1.3,0.9,1.7,1.6C487.9,115.4,488.1,116.1,488.1,116.9z"/>
		<path class="st16" d="M475.3,137.3v-3.4h7.3c0.9,0,1.6-0.2,2-0.5c0.5-0.3,0.7-0.8,0.7-1.4c0-0.9-0.3-1.5-1-1.9
			c-0.6-0.4-1.7-0.6-3.2-0.6h-5.9v-3.4h12.6v2.6l-1.6,0.5v0.2c0.6,0.3,1,0.8,1.4,1.5c0.3,0.6,0.5,1.4,0.5,2.2c0,1.9-0.6,3.2-1.8,3.8
			v0.3c0.6,0.3,1,0.8,1.4,1.5s0.5,1.4,0.5,2.2c0,1.4-0.4,2.5-1.1,3.2c-0.7,0.7-1.9,1.1-3.5,1.1h-8.2v-3.4h7.3c0.9,0,1.6-0.2,2-0.5
			c0.5-0.3,0.7-0.8,0.7-1.4c0-0.8-0.3-1.5-0.9-1.9c-0.6-0.4-1.5-0.6-2.9-0.6H475.3z"/>
		<path class="st16" d="M475.1,154.2c0-2,0.6-3.6,1.7-4.7c1.1-1.1,2.7-1.7,4.7-1.7c2.1,0,3.7,0.5,4.9,1.6s1.7,2.5,1.7,4.4
			c0,1.8-0.5,3.2-1.5,4.1s-2.4,1.5-4.2,1.5h-1.7v-8.1c-1,0-1.7,0.3-2.3,0.9s-0.8,1.3-0.8,2.3c0,0.8,0.1,1.5,0.2,2.1s0.4,1.4,0.8,2.1
			H476c-0.3-0.6-0.5-1.2-0.7-1.9C475.2,156.1,475.1,155.2,475.1,154.2z M485.7,153.8c0-0.7-0.2-1.3-0.7-1.7c-0.5-0.4-1.1-0.6-2-0.7
			v4.8c0.8,0,1.5-0.2,2-0.7C485.4,155.1,485.7,154.5,485.7,153.8z"/>
		<path class="st16" d="M479.1,170.8c-1.3,0-2.3-0.4-2.9-1.3s-1-2.2-1-4c0-0.9,0.1-1.7,0.2-2.3c0.1-0.6,0.3-1.2,0.5-1.8h2.8
			c-0.3,0.6-0.6,1.4-0.8,2.2c-0.2,0.8-0.3,1.5-0.3,2.1c0,1.2,0.4,1.9,1.1,1.9c0.3,0,0.5-0.1,0.7-0.2c0.2-0.2,0.4-0.4,0.6-0.9
			c0.2-0.4,0.5-0.9,0.7-1.6c0.4-1,0.8-1.7,1.1-2.1c0.3-0.5,0.7-0.8,1.2-1s1-0.3,1.6-0.3c1.1,0,2,0.4,2.6,1.3
			c0.6,0.9,0.9,2.1,0.9,3.7c0,1.5-0.3,3-1,4.4l-2.5-1c0.3-0.6,0.5-1.2,0.7-1.8c0.2-0.5,0.3-1.1,0.3-1.7c0-1-0.3-1.5-0.8-1.5
			c-0.3,0-0.6,0.2-0.8,0.5c-0.2,0.3-0.6,1-1,2.1c-0.4,1-0.8,1.7-1.1,2.2c-0.3,0.5-0.7,0.8-1.2,1
			C480.2,170.7,479.7,170.8,479.1,170.8z"/>
		<path class="st16" d="M475.3,182.2l1.6-0.5v-0.2c-0.6-0.4-1-0.9-1.4-1.6c-0.3-0.7-0.5-1.4-0.5-2.3c0-1.5,0.4-2.6,1.2-3.3
			s1.9-1.1,3.4-1.1h8.2v3.4h-7.3c-0.9,0-1.6,0.2-2,0.5s-0.7,0.8-0.7,1.5c0,1,0.3,1.7,1,2.1c0.6,0.4,1.7,0.6,3.2,0.6h5.9v3.4h-12.6
			V182.2z"/>
		<path class="st16" d="M488.1,195.4c0,0.5,0,0.8-0.1,1.2l-3.2-0.3c0.1-0.3,0.1-0.6,0.1-1c0-1.1-0.3-1.9-0.8-2.6
			c-0.6-0.6-1.3-0.9-2.4-0.9h-6.4v-3.4h12.6v2.6l-2.1,0.5v0.2c0.7,0.4,1.3,0.9,1.7,1.6C487.9,193.9,488.1,194.6,488.1,195.4z"/>
		<path class="st16" d="M475.1,204.4c0-2,0.6-3.6,1.7-4.7c1.1-1.1,2.7-1.7,4.7-1.7c2.1,0,3.7,0.5,4.9,1.6s1.7,2.5,1.7,4.4
			c0,1.8-0.5,3.2-1.5,4.1s-2.4,1.5-4.2,1.5h-1.7v-8.1c-1,0-1.7,0.3-2.3,0.9s-0.8,1.3-0.8,2.3c0,0.8,0.1,1.5,0.2,2.1s0.4,1.4,0.8,2.1
			H476c-0.3-0.6-0.5-1.2-0.7-1.9C475.2,206.2,475.1,205.3,475.1,204.4z M485.7,203.9c0-0.7-0.2-1.3-0.7-1.7c-0.5-0.4-1.1-0.6-2-0.7
			v4.8c0.8,0,1.5-0.2,2-0.7C485.4,205.2,485.7,204.6,485.7,203.9z"/>
	</g>
</g>
<g>
	<g>
		<path class="st16" d="M479.9,338.1c-1.5,0-2.7-0.5-3.5-1.6c-0.9-1.1-1.3-2.6-1.3-4.5c0-1.8,0.3-3.3,1-4.6h3.2
			c-0.5,1.1-0.8,2-1,2.8c-0.2,0.8-0.3,1.5-0.3,2.1c0,0.8,0.1,1.3,0.4,1.8c0.3,0.4,0.7,0.6,1.3,0.6c0.3,0,0.6-0.1,0.9-0.3
			c0.3-0.2,0.5-0.4,0.7-0.8c0.2-0.3,0.6-1.1,1.1-2.1c0.5-1,0.9-1.8,1.4-2.3s0.9-0.9,1.5-1.2c0.6-0.3,1.3-0.4,2-0.4
			c1.5,0,2.6,0.5,3.4,1.5s1.2,2.3,1.2,4.1c0,0.9-0.1,1.7-0.3,2.4c-0.2,0.8-0.5,1.6-0.9,2.4l-2.7-1.1c0.4-0.9,0.6-1.6,0.8-2.2
			c0.1-0.6,0.2-1.1,0.2-1.7c0-0.7-0.2-1.2-0.5-1.5c-0.3-0.4-0.7-0.5-1.2-0.5c-0.3,0-0.6,0.1-0.8,0.2c-0.2,0.1-0.4,0.4-0.7,0.7
			c-0.2,0.3-0.6,1-1.2,2.2c-0.7,1.5-1.5,2.6-2.2,3.2C481.9,337.8,481,338.1,479.9,338.1z"/>
		<path class="st16" d="M475.3,349.6l1.6-0.5V349c-0.6-0.4-1-0.9-1.4-1.6c-0.3-0.7-0.5-1.4-0.5-2.3c0-1.5,0.4-2.6,1.2-3.3
			s1.9-1.1,3.4-1.1h8.2v3.4h-7.3c-0.9,0-1.6,0.2-2,0.5s-0.7,0.8-0.7,1.5c0,1,0.3,1.7,1,2.1c0.6,0.4,1.7,0.6,3.2,0.6h5.9v3.4h-12.6
			V349.6z"/>
		<path class="st16" d="M488.1,362.7c0,0.5,0,0.8-0.1,1.2l-3.2-0.3c0.1-0.3,0.1-0.6,0.1-1c0-1.1-0.3-1.9-0.8-2.6
			c-0.6-0.6-1.3-0.9-2.4-0.9h-6.4v-3.4h12.6v2.6l-2.1,0.5v0.2c0.7,0.4,1.3,0.9,1.7,1.6C487.9,361.2,488.1,361.9,488.1,362.7z"/>
		<path class="st16" d="M475.3,383.1v-3.4h7.3c0.9,0,1.6-0.2,2-0.5c0.5-0.3,0.7-0.8,0.7-1.4c0-0.9-0.3-1.5-1-1.9
			c-0.6-0.4-1.7-0.6-3.2-0.6h-5.9v-3.4h12.6v2.6l-1.6,0.5v0.2c0.6,0.3,1,0.8,1.4,1.5c0.3,0.6,0.5,1.4,0.5,2.2c0,1.9-0.6,3.2-1.8,3.8
			v0.3c0.6,0.3,1,0.8,1.4,1.5s0.5,1.4,0.5,2.2c0,1.4-0.4,2.5-1.1,3.2c-0.7,0.7-1.9,1.1-3.5,1.1h-8.2v-3.4h7.3c0.9,0,1.6-0.2,2-0.5
			c0.5-0.3,0.7-0.8,0.7-1.4c0-0.8-0.3-1.5-0.9-1.9c-0.6-0.4-1.5-0.6-2.9-0.6H475.3z"/>
		<path class="st16" d="M475.1,400c0-2,0.6-3.6,1.7-4.7c1.1-1.1,2.7-1.7,4.7-1.7c2.1,0,3.7,0.5,4.9,1.6s1.7,2.5,1.7,4.4
			c0,1.8-0.5,3.2-1.5,4.1s-2.4,1.5-4.2,1.5h-1.7v-8.1c-1,0-1.7,0.3-2.3,0.9s-0.8,1.3-0.8,2.3c0,0.8,0.1,1.5,0.2,2.1s0.4,1.4,0.8,2.1
			H476c-0.3-0.6-0.5-1.2-0.7-1.9C475.2,401.9,475.1,401,475.1,400z M485.7,399.6c0-0.7-0.2-1.3-0.7-1.7c-0.5-0.4-1.1-0.6-2-0.7v4.8
			c0.8,0,1.5-0.2,2-0.7C485.4,400.9,485.7,400.3,485.7,399.6z"/>
		<path class="st16" d="M479.1,416.6c-1.3,0-2.3-0.4-2.9-1.3s-1-2.2-1-4c0-0.9,0.1-1.7,0.2-2.3c0.1-0.6,0.3-1.2,0.5-1.8h2.8
			c-0.3,0.6-0.6,1.4-0.8,2.2c-0.2,0.8-0.3,1.5-0.3,2.1c0,1.2,0.4,1.9,1.1,1.9c0.3,0,0.5-0.1,0.7-0.2c0.2-0.2,0.4-0.4,0.6-0.9
			c0.2-0.4,0.5-0.9,0.7-1.6c0.4-1,0.8-1.7,1.1-2.1c0.3-0.5,0.7-0.8,1.2-1s1-0.3,1.6-0.3c1.1,0,2,0.4,2.6,1.3
			c0.6,0.9,0.9,2.1,0.9,3.7c0,1.5-0.3,3-1,4.4l-2.5-1c0.3-0.6,0.5-1.2,0.7-1.8c0.2-0.5,0.3-1.1,0.3-1.7c0-1-0.3-1.5-0.8-1.5
			c-0.3,0-0.6,0.2-0.8,0.5c-0.2,0.3-0.6,1-1,2.1c-0.4,1-0.8,1.7-1.1,2.2c-0.3,0.5-0.7,0.8-1.2,1
			C480.2,416.5,479.7,416.6,479.1,416.6z"/>
		<path class="st16" d="M475.3,428l1.6-0.5v-0.2c-0.6-0.4-1-0.9-1.4-1.6c-0.3-0.7-0.5-1.4-0.5-2.3c0-1.5,0.4-2.6,1.2-3.3
			s1.9-1.1,3.4-1.1h8.2v3.4h-7.3c-0.9,0-1.6,0.2-2,0.5s-0.7,0.8-0.7,1.5c0,1,0.3,1.7,1,2.1c0.6,0.4,1.7,0.6,3.2,0.6h5.9v3.4h-12.6
			V428z"/>
		<path class="st16" d="M488.1,441.2c0,0.5,0,0.8-0.1,1.2l-3.2-0.3c0.1-0.3,0.1-0.6,0.1-1c0-1.1-0.3-1.9-0.8-2.6
			c-0.6-0.6-1.3-0.9-2.4-0.9h-6.4v-3.4h12.6v2.6l-2.1,0.5v0.2c0.7,0.4,1.3,0.9,1.7,1.6C487.9,439.7,488.1,440.4,488.1,441.2z"/>
		<path class="st16" d="M475.1,450.2c0-2,0.6-3.6,1.7-4.7c1.1-1.1,2.7-1.7,4.7-1.7c2.1,0,3.7,0.5,4.9,1.6s1.7,2.5,1.7,4.4
			c0,1.8-0.5,3.2-1.5,4.1s-2.4,1.5-4.2,1.5h-1.7v-8.1c-1,0-1.7,0.3-2.3,0.9s-0.8,1.3-0.8,2.3c0,0.8,0.1,1.5,0.2,2.1s0.4,1.4,0.8,2.1
			H476c-0.3-0.6-0.5-1.2-0.7-1.9C475.2,452,475.1,451.1,475.1,450.2z M485.7,449.7c0-0.7-0.2-1.3-0.7-1.7c-0.5-0.4-1.1-0.6-2-0.7
			v4.8c0.8,0,1.5-0.2,2-0.7C485.4,451,485.7,450.4,485.7,449.7z"/>
	</g>
</g>
</svg>
