<?xml version="1.0" encoding="utf-8"?>
<!-- Generator: Adobe Illustrator 24.2.3, SVG Export Plug-In . SVG Version: 6.00 Build 0)  -->
<svg version="1.1" id="Layer_1" xmlns="http://www.w3.org/2000/svg" xmlns:xlink="http://www.w3.org/1999/xlink" x="0px" y="0px"
	 viewBox="0 0 1018 556" style="enable-background:new 0 0 1018 556;" xml:space="preserve">
<style type="text/css">
	.st0{fill:none;}
	.st1{fill:none;stroke:#231F20;stroke-width:2.88;}
	.st2{fill:#FBFBFB;}
	.st3{enable-background:new    ;}
	.st4{fill:#005D81;}
	.st5{fill:#4B4F54;}
	.st6{fill:#C93963;}
	.st7{fill-rule:evenodd;clip-rule:evenodd;fill:#005D81;}
	.st8{opacity:0.35;fill-rule:evenodd;clip-rule:evenodd;fill:url(#SVGID_2_);enable-background:new    ;}
	.st9{fill:#FFFFFF;}
	.st10{opacity:0.5;clip-path:url(#SVGID_4_);fill:#B4B4B4;enable-background:new    ;}
	.st11{opacity:0.25;clip-path:url(#SVGID_7_);}
	.st12{fill:none;stroke:#FFFFFF;stroke-width:61.7131;stroke-miterlimit:10;stroke-dasharray:8.9668,8.9668;}
	.st13{fill-rule:evenodd;clip-rule:evenodd;fill:#5592B9;}
	.st14{opacity:0.3;fill-rule:evenodd;clip-rule:evenodd;fill:url(#SVGID_8_);enable-background:new    ;}
	.st15{opacity:0.5;clip-path:url(#SVGID_10_);fill:#B4B4B4;enable-background:new    ;}
	.st16{opacity:0.25;clip-path:url(#SVGID_12_);}
	.st17{fill:none;stroke:#FFFFFF;stroke-width:61.558;stroke-miterlimit:10;stroke-dasharray:8.9443,8.9443;}
	.st18{fill:#809A43;}
	.st19{opacity:0.5;clip-path:url(#SVGID_14_);fill:#B4B4B4;enable-background:new    ;}
	.st20{opacity:0.25;clip-path:url(#SVGID_16_);}
	.st21{fill:none;stroke:#FFFFFF;stroke-width:61.7141;stroke-miterlimit:10.0002;stroke-dasharray:8.967,8.967;}
	.st22{fill:#FFFFFF;stroke:#4B4F54;stroke-width:5.0504;stroke-miterlimit:10;}
	.st23{fill:none;stroke:#4B4F54;stroke-width:5.4772;stroke-miterlimit:10;}
	.st24{fill:none;stroke:#62A5D5;stroke-width:9.1286;stroke-miterlimit:10;}
	.st25{fill-rule:evenodd;clip-rule:evenodd;fill:#FFD07F;}
	.st26{fill-rule:evenodd;clip-rule:evenodd;fill:#005D81;fill-opacity:0.5;}
	.st27{opacity:0.15;fill-rule:evenodd;clip-rule:evenodd;fill:url(#SVGID_18_);enable-background:new    ;}
	.st28{opacity:0.5;clip-path:url(#SVGID_20_);fill:#B4B4B4;enable-background:new    ;}
	.st29{opacity:0.25;clip-path:url(#SVGID_22_);}
	.st30{fill:#80B4DA;}
	.st31{fill:#4A8087;}
	.st32{fill:#C1C1C1;}
	.st33{fill:#62A5D5;}
	.st34{fill:none;stroke:#B1B6B8;stroke-width:1.6749;stroke-miterlimit:10;}
</style>
<pattern  y="556" width="72" height="72" patternUnits="userSpaceOnUse" id="SVGID_1_" viewBox="72.2 -72 72 72" style="overflow:visible;">
	<g>
		<rect x="72.2" y="-72" class="st0" width="72" height="72"/>
		<g>
			<rect x="72.2" y="-72" class="st0" width="72" height="72"/>
			<g>
				<rect x="72.2" y="-72" class="st0" width="72" height="72"/>
				<g>
					<rect x="72.2" y="-72" class="st0" width="72" height="72"/>
					<g>
						<line class="st1" x1="144" y1="-68.4" x2="216.5" y2="-68.4"/>
						<line class="st1" x1="144" y1="-54" x2="216.5" y2="-54"/>
						<line class="st1" x1="144" y1="-39.6" x2="216.5" y2="-39.6"/>
						<line class="st1" x1="144" y1="-25.2" x2="216.5" y2="-25.2"/>
						<line class="st1" x1="144" y1="-10.8" x2="216.5" y2="-10.8"/>
						<line class="st1" x1="144" y1="-61.2" x2="216.5" y2="-61.2"/>
						<line class="st1" x1="144" y1="-46.8" x2="216.5" y2="-46.8"/>
						<line class="st1" x1="144" y1="-32.4" x2="216.5" y2="-32.4"/>
						<line class="st1" x1="144" y1="-18" x2="216.5" y2="-18"/>
						<line class="st1" x1="144" y1="-3.6" x2="216.5" y2="-3.6"/>
					</g>
					<g>
						<line class="st1" x1="72" y1="-68.4" x2="144.5" y2="-68.4"/>
						<line class="st1" x1="72" y1="-54" x2="144.5" y2="-54"/>
						<line class="st1" x1="72" y1="-39.6" x2="144.5" y2="-39.6"/>
						<line class="st1" x1="72" y1="-25.2" x2="144.5" y2="-25.2"/>
						<line class="st1" x1="72" y1="-10.8" x2="144.5" y2="-10.8"/>
						<line class="st1" x1="72" y1="-61.2" x2="144.5" y2="-61.2"/>
						<line class="st1" x1="72" y1="-46.8" x2="144.5" y2="-46.8"/>
						<line class="st1" x1="72" y1="-32.4" x2="144.5" y2="-32.4"/>
						<line class="st1" x1="72" y1="-18" x2="144.5" y2="-18"/>
						<line class="st1" x1="72" y1="-3.6" x2="144.5" y2="-3.6"/>
					</g>
					<g>
						<line class="st1" x1="0" y1="-68.4" x2="72.5" y2="-68.4"/>
						<line class="st1" x1="0" y1="-54" x2="72.5" y2="-54"/>
						<line class="st1" x1="0" y1="-39.6" x2="72.5" y2="-39.6"/>
						<line class="st1" x1="0" y1="-25.2" x2="72.5" y2="-25.2"/>
						<line class="st1" x1="0" y1="-10.8" x2="72.5" y2="-10.8"/>
						<line class="st1" x1="0" y1="-61.2" x2="72.5" y2="-61.2"/>
						<line class="st1" x1="0" y1="-46.8" x2="72.5" y2="-46.8"/>
						<line class="st1" x1="0" y1="-32.4" x2="72.5" y2="-32.4"/>
						<line class="st1" x1="0" y1="-18" x2="72.5" y2="-18"/>
						<line class="st1" x1="0" y1="-3.6" x2="72.5" y2="-3.6"/>
					</g>
				</g>
			</g>
		</g>
	</g>
</pattern>
<pattern  y="556" width="72" height="72" patternUnits="userSpaceOnUse" id="SVGID_17_" viewBox="72.2 -72 72 72" style="overflow:visible;">
	<g>
		<rect x="72.2" y="-72" class="st0" width="72" height="72"/>
		<g>
			<rect x="72.2" y="-72" class="st0" width="72" height="72"/>
			<g>
				<rect x="72.2" y="-72" class="st0" width="72" height="72"/>
				<g>
					<rect x="72.2" y="-72" class="st0" width="72" height="72"/>
					<g>
						<line class="st1" x1="144" y1="-68.4" x2="216.5" y2="-68.4"/>
						<line class="st1" x1="144" y1="-54" x2="216.5" y2="-54"/>
						<line class="st1" x1="144" y1="-39.6" x2="216.5" y2="-39.6"/>
						<line class="st1" x1="144" y1="-25.2" x2="216.5" y2="-25.2"/>
						<line class="st1" x1="144" y1="-10.8" x2="216.5" y2="-10.8"/>
						<line class="st1" x1="144" y1="-61.2" x2="216.5" y2="-61.2"/>
						<line class="st1" x1="144" y1="-46.8" x2="216.5" y2="-46.8"/>
						<line class="st1" x1="144" y1="-32.4" x2="216.5" y2="-32.4"/>
						<line class="st1" x1="144" y1="-18" x2="216.5" y2="-18"/>
						<line class="st1" x1="144" y1="-3.6" x2="216.5" y2="-3.6"/>
					</g>
					<g>
						<line class="st1" x1="72" y1="-68.4" x2="144.5" y2="-68.4"/>
						<line class="st1" x1="72" y1="-54" x2="144.5" y2="-54"/>
						<line class="st1" x1="72" y1="-39.6" x2="144.5" y2="-39.6"/>
						<line class="st1" x1="72" y1="-25.2" x2="144.5" y2="-25.2"/>
						<line class="st1" x1="72" y1="-10.8" x2="144.5" y2="-10.8"/>
						<line class="st1" x1="72" y1="-61.2" x2="144.5" y2="-61.2"/>
						<line class="st1" x1="72" y1="-46.8" x2="144.5" y2="-46.8"/>
						<line class="st1" x1="72" y1="-32.4" x2="144.5" y2="-32.4"/>
						<line class="st1" x1="72" y1="-18" x2="144.5" y2="-18"/>
						<line class="st1" x1="72" y1="-3.6" x2="144.5" y2="-3.6"/>
					</g>
					<g>
						<line class="st1" x1="0" y1="-68.4" x2="72.5" y2="-68.4"/>
						<line class="st1" x1="0" y1="-54" x2="72.5" y2="-54"/>
						<line class="st1" x1="0" y1="-39.6" x2="72.5" y2="-39.6"/>
						<line class="st1" x1="0" y1="-25.2" x2="72.5" y2="-25.2"/>
						<line class="st1" x1="0" y1="-10.8" x2="72.5" y2="-10.8"/>
						<line class="st1" x1="0" y1="-61.2" x2="72.5" y2="-61.2"/>
						<line class="st1" x1="0" y1="-46.8" x2="72.5" y2="-46.8"/>
						<line class="st1" x1="0" y1="-32.4" x2="72.5" y2="-32.4"/>
						<line class="st1" x1="0" y1="-18" x2="72.5" y2="-18"/>
						<line class="st1" x1="0" y1="-3.6" x2="72.5" y2="-3.6"/>
					</g>
				</g>
			</g>
		</g>
	</g>
</pattern>
<pattern  y="556" width="72" height="72" patternUnits="userSpaceOnUse" id="SVGID_6_" viewBox="72.2 -72 72 72" style="overflow:visible;">
	<g>
		<rect x="72.2" y="-72" class="st0" width="72" height="72"/>
		<g>
			<rect x="72.2" y="-72" class="st0" width="72" height="72"/>
			<g>
				<rect x="72.2" y="-72" class="st0" width="72" height="72"/>
				<g>
					<rect x="72.2" y="-72" class="st0" width="72" height="72"/>
					<g>
						<line class="st1" x1="144" y1="-68.4" x2="216.5" y2="-68.4"/>
						<line class="st1" x1="144" y1="-54" x2="216.5" y2="-54"/>
						<line class="st1" x1="144" y1="-39.6" x2="216.5" y2="-39.6"/>
						<line class="st1" x1="144" y1="-25.2" x2="216.5" y2="-25.2"/>
						<line class="st1" x1="144" y1="-10.8" x2="216.5" y2="-10.8"/>
						<line class="st1" x1="144" y1="-61.2" x2="216.5" y2="-61.2"/>
						<line class="st1" x1="144" y1="-46.8" x2="216.5" y2="-46.8"/>
						<line class="st1" x1="144" y1="-32.4" x2="216.5" y2="-32.4"/>
						<line class="st1" x1="144" y1="-18" x2="216.5" y2="-18"/>
						<line class="st1" x1="144" y1="-3.6" x2="216.5" y2="-3.6"/>
					</g>
					<g>
						<line class="st1" x1="72" y1="-68.4" x2="144.5" y2="-68.4"/>
						<line class="st1" x1="72" y1="-54" x2="144.5" y2="-54"/>
						<line class="st1" x1="72" y1="-39.6" x2="144.5" y2="-39.6"/>
						<line class="st1" x1="72" y1="-25.2" x2="144.5" y2="-25.2"/>
						<line class="st1" x1="72" y1="-10.8" x2="144.5" y2="-10.8"/>
						<line class="st1" x1="72" y1="-61.2" x2="144.5" y2="-61.2"/>
						<line class="st1" x1="72" y1="-46.8" x2="144.5" y2="-46.8"/>
						<line class="st1" x1="72" y1="-32.4" x2="144.5" y2="-32.4"/>
						<line class="st1" x1="72" y1="-18" x2="144.5" y2="-18"/>
						<line class="st1" x1="72" y1="-3.6" x2="144.5" y2="-3.6"/>
					</g>
					<g>
						<line class="st1" x1="0" y1="-68.4" x2="72.5" y2="-68.4"/>
						<line class="st1" x1="0" y1="-54" x2="72.5" y2="-54"/>
						<line class="st1" x1="0" y1="-39.6" x2="72.5" y2="-39.6"/>
						<line class="st1" x1="0" y1="-25.2" x2="72.5" y2="-25.2"/>
						<line class="st1" x1="0" y1="-10.8" x2="72.5" y2="-10.8"/>
						<line class="st1" x1="0" y1="-61.2" x2="72.5" y2="-61.2"/>
						<line class="st1" x1="0" y1="-46.8" x2="72.5" y2="-46.8"/>
						<line class="st1" x1="0" y1="-32.4" x2="72.5" y2="-32.4"/>
						<line class="st1" x1="0" y1="-18" x2="72.5" y2="-18"/>
						<line class="st1" x1="0" y1="-3.6" x2="72.5" y2="-3.6"/>
					</g>
				</g>
			</g>
		</g>
	</g>
</pattern>
<g>
	
		<image style="overflow:visible;opacity:0.25;enable-background:new    ;" width="1018" height="556" xlink:href="5CA89352DDADE30F.png"  transform="matrix(0.9982 0 0 0.9982 0.5829 0.7953)">
	</image>
	<g>
		<rect x="13.7" y="14.1" class="st2" width="989.9" height="527.8"/>
	</g>
</g>
<g class="st3">
	<path class="st4" d="M78,503.4c0,2.7-0.8,4.7-2.3,6.2c-1.5,1.4-3.7,2.1-6.6,2.1h-4.6v-16.3h5.1c2.7,0,4.7,0.7,6.2,2.1
		S78,500.9,78,503.4z M74.4,503.5c0-3.5-1.5-5.3-4.6-5.3h-1.8v10.6h1.5C72.7,508.9,74.4,507.1,74.4,503.5z"/>
	<path class="st4" d="M86.7,512c-2,0-3.6-0.6-4.7-1.7c-1.1-1.1-1.7-2.7-1.7-4.7c0-2.1,0.5-3.7,1.6-4.8c1-1.1,2.5-1.7,4.3-1.7
		c1.8,0,3.1,0.5,4.1,1.5s1.5,2.4,1.5,4.2v1.7h-8c0,1,0.3,1.7,0.9,2.3c0.5,0.5,1.3,0.8,2.3,0.8c0.8,0,1.5-0.1,2.1-0.2
		c0.7-0.2,1.4-0.4,2.1-0.7v2.6c-0.6,0.3-1.2,0.5-1.9,0.7C88.5,511.9,87.7,512,86.7,512z M86.2,501.5c-0.7,0-1.3,0.2-1.7,0.7
		c-0.4,0.5-0.6,1.1-0.7,1.9h4.8c0-0.8-0.2-1.5-0.7-1.9C87.5,501.7,87,501.5,86.2,501.5z M84.3,497.9v-0.3c1.3-1.5,2.2-2.6,2.6-3.4
		h3.8v0.2c-0.4,0.4-1,1-2,1.7c-0.9,0.8-1.7,1.3-2.2,1.7H84.3z"/>
	<path class="st4" d="M101.5,501.8h-2.9v9.9h-3.4v-9.9h-1.9v-1.6l1.9-0.9v-0.9c0-1.4,0.3-2.5,1-3.1c0.7-0.7,1.8-1,3.4-1
		c1.2,0,2.2,0.2,3.1,0.5l-0.9,2.5c-0.7-0.2-1.3-0.3-1.9-0.3c-0.5,0-0.8,0.1-1,0.4s-0.3,0.7-0.3,1.1v0.8h2.9V501.8z"/>
	<path class="st4" d="M111.3,511.7l-0.7-1.7h-0.1c-0.6,0.7-1.2,1.2-1.8,1.5s-1.4,0.4-2.4,0.4c-1.2,0-2.1-0.3-2.8-1s-1-1.7-1-2.9
		c0-1.3,0.5-2.3,1.4-2.9c0.9-0.6,2.3-1,4.2-1l2.2-0.1v-0.5c0-1.3-0.6-1.9-1.9-1.9c-1,0-2.2,0.3-3.5,0.9l-1.1-2.3
		c1.4-0.8,3-1.1,4.8-1.1c1.7,0,3,0.4,3.8,1.1c0.9,0.7,1.3,1.8,1.3,3.3v8.3L111.3,511.7C111.3,511.7,111.3,511.7,111.3,511.7z
		 M110.3,506l-1.3,0c-1,0-1.7,0.2-2.2,0.5c-0.5,0.3-0.7,0.8-0.7,1.5c0,1,0.6,1.4,1.7,1.4c0.8,0,1.4-0.2,1.9-0.7
		c0.5-0.5,0.7-1.1,0.7-1.8V506z"/>
	<path class="st4" d="M126,511.7l-0.5-1.6h-0.2c-0.4,0.6-0.9,1-1.6,1.3c-0.7,0.3-1.4,0.5-2.3,0.5c-1.5,0-2.6-0.4-3.3-1.2
		c-0.7-0.8-1.1-1.9-1.1-3.4v-8.1h3.4v7.3c0,0.9,0.2,1.6,0.5,2c0.3,0.5,0.8,0.7,1.5,0.7c1,0,1.6-0.3,2.1-1c0.4-0.6,0.6-1.7,0.6-3.2
		v-5.9h3.4v12.5L126,511.7L126,511.7z"/>
	<path class="st4" d="M137.5,509.3c0.6,0,1.3-0.1,2.1-0.4v2.5c-0.8,0.4-1.9,0.6-3.1,0.6c-1.4,0-2.4-0.3-3-1
		c-0.6-0.7-0.9-1.7-0.9-3.1v-6H131v-1.4l1.9-1.1l1-2.6h2.2v2.7h3.5v2.6H136v6c0,0.5,0.1,0.8,0.4,1.1S137,509.3,137.5,509.3z"/>
	<path class="st4" d="M150.8,508c0,1.3-0.4,2.3-1.3,2.9c-0.9,0.7-2.2,1-4,1c-0.9,0-1.7-0.1-2.3-0.2s-1.2-0.3-1.8-0.5v-2.8
		c0.6,0.3,1.3,0.5,2.1,0.7c0.8,0.2,1.5,0.3,2.1,0.3c1.2,0,1.9-0.4,1.9-1.1c0-0.3-0.1-0.5-0.2-0.7c-0.2-0.2-0.4-0.4-0.8-0.6
		c-0.4-0.2-0.9-0.5-1.6-0.7c-1-0.4-1.7-0.8-2.1-1.1c-0.4-0.3-0.8-0.7-1-1.2c-0.2-0.4-0.3-1-0.3-1.6c0-1.1,0.4-2,1.3-2.6
		c0.9-0.6,2.1-0.9,3.7-0.9c1.5,0,3,0.3,4.4,1l-1,2.5c-0.6-0.3-1.2-0.5-1.8-0.7c-0.5-0.2-1.1-0.3-1.7-0.3c-1,0-1.5,0.3-1.5,0.8
		c0,0.3,0.2,0.6,0.5,0.8c0.3,0.2,1,0.6,2.1,1c1,0.4,1.7,0.8,2.1,1.1s0.8,0.7,1,1.2C150.7,506.9,150.8,507.4,150.8,508z"/>
	<path class="st5" d="M159,502.2v-1.5h10.4v1.5H159z M159,506.7v-1.5h10.4v1.5H159z"/>
	<path class="st5" d="M188.6,499.5v1.2l-2.3,0.3c0.2,0.3,0.4,0.6,0.6,1c0.2,0.4,0.2,0.9,0.2,1.4c0,1.2-0.4,2.2-1.2,2.9
		s-1.9,1.1-3.4,1.1c-0.4,0-0.7,0-1-0.1c-0.8,0.4-1.2,0.9-1.2,1.6c0,0.3,0.1,0.6,0.4,0.7c0.3,0.2,0.7,0.2,1.4,0.2h2.2
		c1.3,0,2.3,0.3,3.1,0.8s1.1,1.4,1.1,2.4c0,1.4-0.5,2.4-1.6,3.1c-1.1,0.7-2.7,1.1-4.8,1.1c-1.6,0-2.8-0.3-3.7-0.9
		c-0.9-0.6-1.3-1.4-1.3-2.5c0-0.7,0.2-1.4,0.7-1.9c0.5-0.5,1.1-0.9,2-1.1c-0.3-0.1-0.6-0.4-0.8-0.7c-0.2-0.3-0.3-0.6-0.3-1
		c0-0.4,0.1-0.8,0.4-1.2c0.2-0.3,0.6-0.7,1.1-1c-0.6-0.3-1.1-0.7-1.5-1.3c-0.4-0.6-0.6-1.3-0.6-2.1c0-1.3,0.4-2.4,1.2-3.1
		c0.8-0.7,1.9-1.1,3.4-1.1c0.6,0,1.2,0.1,1.7,0.2L188.6,499.5L188.6,499.5z M178.9,513.8c0,0.7,0.3,1.2,0.8,1.5
		c0.6,0.3,1.4,0.5,2.4,0.5c1.6,0,2.7-0.2,3.5-0.7c0.7-0.5,1.1-1.1,1.1-1.9c0-0.7-0.2-1.1-0.6-1.4c-0.4-0.3-1.2-0.4-2.3-0.4h-2.2
		c-0.8,0-1.5,0.2-2,0.6C179.1,512.5,178.9,513,178.9,513.8z M179.9,503.4c0,0.9,0.2,1.5,0.7,1.9s1.2,0.7,2,0.7
		c1.8,0,2.7-0.9,2.7-2.6c0-1.8-0.9-2.8-2.7-2.8c-0.9,0-1.5,0.2-2,0.7C180.1,501.8,179.9,502.5,179.9,503.4z"/>
	<path class="st5" d="M198.7,511.7l-0.4-1.7h-0.1c-0.6,0.8-1.2,1.3-1.8,1.6c-0.6,0.3-1.4,0.4-2.3,0.4c-1.2,0-2.2-0.3-2.9-0.9
		s-1-1.5-1-2.7c0-2.5,2-3.8,5.9-3.9l2.1-0.1v-0.8c0-1-0.2-1.7-0.6-2.1c-0.4-0.5-1.1-0.7-2-0.7c-1,0-2.2,0.3-3.5,0.9l-0.6-1.4
		c0.6-0.3,1.3-0.6,2-0.8c0.7-0.2,1.4-0.3,2.2-0.3c1.5,0,2.5,0.3,3.2,1s1.1,1.7,1.1,3.1v8.3L198.7,511.7L198.7,511.7z M194.5,510.4
		c1.2,0,2.1-0.3,2.7-0.9c0.7-0.6,1-1.5,1-2.7v-1.1l-1.9,0.1c-1.5,0.1-2.5,0.3-3.2,0.7c-0.6,0.4-1,1-1,1.9c0,0.7,0.2,1.2,0.6,1.5
		C193.2,510.3,193.7,510.4,194.5,510.4z"/>
	<path class="st5" d="M203.7,496.2c0-0.4,0.1-0.7,0.3-0.9c0.2-0.2,0.5-0.3,0.8-0.3c0.3,0,0.6,0.1,0.8,0.3c0.2,0.2,0.3,0.5,0.3,0.9
		c0,0.4-0.1,0.7-0.3,0.9c-0.2,0.2-0.5,0.3-0.8,0.3c-0.3,0-0.6-0.1-0.8-0.3C203.8,496.9,203.7,496.6,203.7,496.2z M205.7,511.7h-1.9
		v-12.2h1.9V511.7z"/>
	<path class="st5" d="M218,511.7v-7.9c0-1-0.2-1.7-0.7-2.2c-0.5-0.5-1.2-0.7-2.1-0.7c-1.3,0-2.2,0.3-2.8,1s-0.9,1.8-0.9,3.4v6.4
		h-1.9v-12.2h1.5l0.3,1.7h0.1c0.4-0.6,0.9-1.1,1.6-1.4c0.7-0.3,1.4-0.5,2.3-0.5c1.5,0,2.6,0.4,3.3,1.1c0.7,0.7,1.1,1.8,1.1,3.4v8
		L218,511.7L218,511.7L218,511.7z"/>
	<path class="st5" d="M231.5,508.4c0,1.1-0.4,2-1.3,2.6c-0.8,0.6-2,0.9-3.6,0.9c-1.6,0-2.9-0.3-3.8-0.8v-1.7
		c0.6,0.3,1.2,0.5,1.9,0.7c0.7,0.2,1.3,0.3,1.9,0.3c1,0,1.7-0.2,2.2-0.5s0.8-0.8,0.8-1.4c0-0.5-0.2-0.9-0.6-1.2
		c-0.4-0.3-1.2-0.7-2.4-1.2c-1.1-0.4-1.9-0.8-2.4-1.1c-0.5-0.3-0.8-0.7-1.1-1.1s-0.4-0.9-0.4-1.4c0-1,0.4-1.8,1.2-2.4
		s1.9-0.9,3.3-0.9c1.3,0,2.6,0.3,3.9,0.8l-0.7,1.5c-1.2-0.5-2.3-0.8-3.3-0.8c-0.9,0-1.5,0.1-2,0.4c-0.4,0.3-0.7,0.7-0.7,1.1
		c0,0.3,0.1,0.6,0.3,0.8s0.4,0.5,0.8,0.7c0.4,0.2,1.1,0.5,2.1,0.9c1.4,0.5,2.4,1.1,2.9,1.6C231.3,506.9,231.5,507.6,231.5,508.4z"/>
	<path class="st5" d="M245.6,512c-1.8,0-3.2-0.5-4.3-1.6s-1.6-2.6-1.6-4.6c0-2,0.5-3.5,1.5-4.7s2.3-1.7,3.9-1.7
		c1.5,0,2.7,0.5,3.6,1.5s1.3,2.3,1.3,4v1.2h-8.4c0,1.4,0.4,2.5,1.1,3.3c0.7,0.7,1.7,1.1,2.9,1.1c1.3,0,2.6-0.3,3.9-0.8v1.6
		c-0.7,0.3-1.3,0.5-1.9,0.6S246.5,512,245.6,512z M245.1,500.8c-1,0-1.8,0.3-2.3,1s-0.9,1.5-1,2.7h6.4c0-1.2-0.3-2.1-0.8-2.7
		S246.1,500.8,245.1,500.8z"/>
	<path class="st5" d="M261.7,511.7v-7.9c0-1-0.2-1.7-0.7-2.2c-0.5-0.5-1.2-0.7-2.1-0.7c-1.3,0-2.2,0.3-2.8,1s-0.9,1.8-0.9,3.4v6.4
		h-1.9v-12.2h1.5l0.3,1.7h0.1c0.4-0.6,0.9-1.1,1.6-1.4c0.7-0.3,1.4-0.5,2.3-0.5c1.5,0,2.6,0.4,3.3,1.1c0.7,0.7,1.1,1.8,1.1,3.4v8
		L261.7,511.7L261.7,511.7L261.7,511.7z"/>
	<path class="st5" d="M278.4,512c-1.8,0-3.2-0.5-4.3-1.6s-1.6-2.6-1.6-4.6c0-2,0.5-3.5,1.5-4.7s2.3-1.7,3.9-1.7
		c1.5,0,2.7,0.5,3.6,1.5s1.3,2.3,1.3,4v1.2h-8.4c0,1.4,0.4,2.5,1.1,3.3c0.7,0.7,1.7,1.1,2.9,1.1c1.3,0,2.6-0.3,3.9-0.8v1.6
		c-0.7,0.3-1.3,0.5-1.9,0.6S279.2,512,278.4,512z M277.9,500.8c-1,0-1.8,0.3-2.3,1s-0.9,1.5-1,2.7h6.4c0-1.2-0.3-2.1-0.8-2.7
		S278.9,500.8,277.9,500.8z"/>
	<path class="st5" d="M291.6,501h-3.1v10.8h-1.9V501h-2.2v-0.8l2.2-0.7v-0.7c0-3,1.3-4.5,3.9-4.5c0.6,0,1.4,0.1,2.3,0.4l-0.5,1.5
		c-0.7-0.2-1.3-0.3-1.8-0.3c-0.7,0-1.2,0.2-1.6,0.7c-0.3,0.5-0.5,1.2-0.5,2.2v0.8h3.1L291.6,501L291.6,501z M299.3,501h-3.1v10.8
		h-1.9V501h-2.2v-0.8l2.2-0.7v-0.7c0-3,1.3-4.5,3.9-4.5c0.6,0,1.4,0.1,2.3,0.4l-0.5,1.5c-0.7-0.2-1.3-0.3-1.8-0.3
		c-0.7,0-1.2,0.2-1.6,0.7c-0.3,0.5-0.5,1.2-0.5,2.2v0.8h3.1L299.3,501L299.3,501z M301.4,496.2c0-0.4,0.1-0.7,0.3-0.9
		c0.2-0.2,0.5-0.3,0.8-0.3c0.3,0,0.6,0.1,0.8,0.3s0.3,0.5,0.3,0.9c0,0.4-0.1,0.7-0.3,0.9c-0.2,0.2-0.5,0.3-0.8,0.3
		c-0.3,0-0.6-0.1-0.8-0.3C301.5,496.9,301.4,496.6,301.4,496.2z M303.4,511.7h-1.9v-12.2h1.9V511.7z"/>
	<path class="st5" d="M312.3,512c-1.8,0-3.1-0.5-4.1-1.6s-1.5-2.6-1.5-4.6c0-2,0.5-3.6,1.5-4.7c1-1.1,2.4-1.7,4.2-1.7
		c0.6,0,1.2,0.1,1.8,0.2c0.6,0.1,1,0.3,1.4,0.4l-0.6,1.6c-0.4-0.2-0.9-0.3-1.3-0.4c-0.5-0.1-0.9-0.2-1.3-0.2c-2.5,0-3.7,1.6-3.7,4.8
		c0,1.5,0.3,2.7,0.9,3.5c0.6,0.8,1.5,1.2,2.7,1.2c1,0,2.1-0.2,3.1-0.7v1.6C314.5,511.8,313.5,512,312.3,512z"/>
	<path class="st5" d="M325.8,511.7l-0.4-1.7h-0.1c-0.6,0.8-1.2,1.3-1.8,1.6c-0.6,0.3-1.4,0.4-2.3,0.4c-1.2,0-2.2-0.3-2.9-0.9
		c-0.7-0.6-1-1.5-1-2.7c0-2.5,2-3.8,5.9-3.9l2.1-0.1v-0.8c0-1-0.2-1.7-0.6-2.1c-0.4-0.5-1.1-0.7-2-0.7c-1,0-2.2,0.3-3.5,0.9
		l-0.6-1.4c0.6-0.3,1.3-0.6,2-0.8c0.7-0.2,1.4-0.3,2.2-0.3c1.5,0,2.5,0.3,3.2,1s1.1,1.7,1.1,3.1v8.3L325.8,511.7L325.8,511.7z
		 M321.6,510.4c1.2,0,2.1-0.3,2.7-0.9c0.7-0.6,1-1.5,1-2.7v-1.1l-1.9,0.1c-1.5,0.1-2.5,0.3-3.2,0.7c-0.6,0.4-1,1-1,1.9
		c0,0.7,0.2,1.2,0.6,1.5C320.3,510.3,320.9,510.4,321.6,510.4z"/>
	<path class="st5" d="M335.8,512c-1.8,0-3.1-0.5-4.1-1.6s-1.5-2.6-1.5-4.6c0-2,0.5-3.6,1.5-4.7c1-1.1,2.4-1.7,4.2-1.7
		c0.6,0,1.2,0.1,1.8,0.2c0.6,0.1,1,0.3,1.4,0.4l-0.6,1.6c-0.4-0.2-0.9-0.3-1.3-0.4c-0.5-0.1-0.9-0.2-1.3-0.2c-2.5,0-3.7,1.6-3.7,4.8
		c0,1.5,0.3,2.7,0.9,3.5c0.6,0.8,1.5,1.2,2.7,1.2c1,0,2.1-0.2,3.1-0.7v1.6C338.1,511.8,337.1,512,335.8,512z"/>
	<path class="st5" d="M341.7,496.2c0-0.4,0.1-0.7,0.3-0.9c0.2-0.2,0.5-0.3,0.8-0.3c0.3,0,0.6,0.1,0.8,0.3c0.2,0.2,0.3,0.5,0.3,0.9
		c0,0.4-0.1,0.7-0.3,0.9c-0.2,0.2-0.5,0.3-0.8,0.3c-0.3,0-0.6-0.1-0.8-0.3C341.8,496.9,341.7,496.6,341.7,496.2z M343.7,511.7h-1.9
		v-12.2h1.9V511.7z"/>
	<path class="st5" d="M351.6,510.4c0.3,0,0.6,0,0.9-0.1c0.3,0,0.5-0.1,0.7-0.1v1.4c-0.2,0.1-0.5,0.2-0.9,0.2
		c-0.4,0.1-0.7,0.1-1.1,0.1c-2.4,0-3.5-1.2-3.5-3.7V501H346v-0.9l1.8-0.8l0.8-2.6h1.1v2.8h3.5v1.4h-3.5v7.2c0,0.7,0.2,1.3,0.5,1.7
		S351,510.4,351.6,510.4z"/>
	<path class="st5" d="M360.8,512c-1.8,0-3.2-0.5-4.3-1.6s-1.6-2.6-1.6-4.6c0-2,0.5-3.5,1.5-4.7s2.3-1.7,3.9-1.7
		c1.5,0,2.7,0.5,3.6,1.5s1.3,2.3,1.3,4v1.2h-8.4c0,1.4,0.4,2.5,1.1,3.3c0.7,0.7,1.7,1.1,2.9,1.1c1.3,0,2.6-0.3,3.9-0.8v1.6
		c-0.7,0.3-1.3,0.5-1.9,0.6S361.7,512,360.8,512z M360.3,500.8c-1,0-1.8,0.3-2.3,1s-0.9,1.5-1,2.7h6.4c0-1.2-0.3-2.1-0.8-2.7
		S361.3,500.8,360.3,500.8z M359,497.6c0.4-0.5,0.7-1,1.2-1.7c0.4-0.7,0.7-1.2,1-1.7h2.3v0.2c-0.3,0.5-0.8,1.1-1.5,1.8
		c-0.6,0.7-1.2,1.3-1.7,1.6H359L359,497.6L359,497.6z"/>
	<path class="st5" d="M375.6,511.7l6.8-14.6h-8.9v-1.7h10.9v1.5l-6.7,14.8L375.6,511.7L375.6,511.7z"/>
	<path class="st5" d="M397.5,503.6c0,2.8-0.4,4.9-1.3,6.3s-2.2,2.1-4.1,2.1c-1.8,0-3.1-0.7-4-2.1c-0.9-1.4-1.4-3.5-1.4-6.3
		c0-2.8,0.4-4.9,1.3-6.3c0.9-1.4,2.2-2.1,4-2.1c1.8,0,3.1,0.7,4,2.2C397,498.8,397.5,500.8,397.5,503.6z M388.5,503.6
		c0,2.4,0.3,4.1,0.8,5.2c0.6,1.1,1.4,1.6,2.7,1.6c1.2,0,2.1-0.5,2.7-1.6c0.6-1.1,0.8-2.8,0.8-5.2s-0.3-4.1-0.8-5.1
		c-0.6-1.1-1.4-1.6-2.7-1.6c-1.2,0-2.1,0.5-2.7,1.6C388.8,499.5,388.5,501.2,388.5,503.6z"/>
	<path class="st5" d="M406.4,500.3c0,1.7-0.3,3-0.9,3.8c-0.6,0.9-1.4,1.3-2.5,1.3c-1,0-1.9-0.4-2.4-1.3c-0.6-0.9-0.9-2.2-0.9-3.8
		c0-1.7,0.3-3,0.8-3.8s1.4-1.3,2.5-1.3c1.1,0,1.9,0.4,2.5,1.3C406.1,497.4,406.4,498.7,406.4,500.3z M401.3,500.3
		c0,1.3,0.1,2.2,0.4,2.8s0.7,0.9,1.3,0.9c1.2,0,1.8-1.3,1.8-3.8c0-2.5-0.6-3.8-1.8-3.8c-0.6,0-1.1,0.3-1.3,0.9
		S401.3,499,401.3,500.3z M413.4,495.4l-9,16.3h-1.6l9-16.3H413.4z M416.2,506.8c0,1.7-0.3,3-0.9,3.8c-0.6,0.9-1.4,1.3-2.5,1.3
		c-1.1,0-1.9-0.4-2.4-1.3s-0.9-2.2-0.9-3.8c0-1.7,0.3-3,0.8-3.8c0.6-0.9,1.4-1.3,2.5-1.3c1.1,0,1.9,0.4,2.5,1.3
		C415.9,503.9,416.2,505.2,416.2,506.8z M411.1,506.8c0,1.3,0.1,2.2,0.4,2.9c0.3,0.6,0.7,0.9,1.4,0.9s1.1-0.3,1.4-0.9
		c0.3-0.6,0.4-1.6,0.4-2.9c0-1.3-0.1-2.2-0.4-2.8c-0.3-0.6-0.8-0.9-1.4-0.9s-1.1,0.3-1.4,0.9C411.3,504.6,411.1,505.6,411.1,506.8z"
		/>
</g>
<g class="st3">
	<path class="st4" d="M706.2,75.6l-2.9-9.5h-0.1c0.1,1.9,0.2,3.2,0.2,3.9v5.6H701V63.5h3.5l2.9,9.3h0l3-9.3h3.5v12.1h-2.4v-5.7
		c0-0.3,0-0.6,0-0.9c0-0.4,0-1.3,0.1-2.8h-0.1l-3.1,9.5L706.2,75.6L706.2,75.6z"/>
	<path class="st4" d="M724.5,75.6l-0.9-2.9h-4.4l-0.9,2.9h-2.8l4.3-12.2h3.1l4.3,12.2H724.5z M723,70.6c-0.8-2.6-1.3-4.1-1.4-4.4
		s-0.2-0.6-0.2-0.8c-0.2,0.7-0.7,2.5-1.6,5.3L723,70.6L723,70.6z"/>
	<path class="st4" d="M728.8,75.6V63.5h2.6v12.1L728.8,75.6L728.8,75.6z"/>
	<path class="st4" d="M745.2,75.6h-3.3l-5.3-9.2h-0.1c0.1,1.6,0.2,2.8,0.2,3.5v5.7h-2.3V63.5h3.2l5.3,9.1h0.1
		c-0.1-1.6-0.1-2.7-0.1-3.3v-5.7h2.3L745.2,75.6L745.2,75.6z"/>
	<path class="st4" d="M752.9,75.6h-2.6v-10H747v-2.1h9.2v2.1h-3.3V75.6z"/>
	<path class="st4" d="M765.1,75.6h-7V63.5h7v2.1h-4.4v2.7h4.1v2.1h-4.1v3.1h4.4V75.6z"/>
	<path class="st4" d="M778.4,75.6h-3.3l-5.3-9.2h-0.1c0.1,1.6,0.2,2.8,0.2,3.5v5.7h-2.3V63.5h3.2l5.3,9.1h0.1
		c-0.1-1.6-0.1-2.7-0.1-3.3v-5.7h2.3L778.4,75.6L778.4,75.6z"/>
	<path class="st4" d="M788.9,75.6l-0.9-2.9h-4.4l-0.9,2.9h-2.8l4.3-12.2h3.1l4.3,12.2H788.9z M787.4,70.6c-0.8-2.6-1.3-4.1-1.4-4.4
		s-0.2-0.6-0.2-0.8c-0.2,0.7-0.7,2.5-1.6,5.3L787.4,70.6L787.4,70.6z"/>
	<path class="st4" d="M803.9,75.6h-3.3l-5.3-9.2h-0.1c0.1,1.6,0.2,2.8,0.2,3.5v5.7h-2.3V63.5h3.2l5.3,9.1h0.1
		c-0.1-1.6-0.1-2.7-0.1-3.3v-5.7h2.3L803.9,75.6L803.9,75.6z"/>
	<path class="st4" d="M812.1,65.4c-1,0-1.7,0.4-2.2,1.1s-0.8,1.7-0.8,3c0,2.7,1,4.1,3,4.1c0.9,0,1.9-0.2,3.1-0.6v2.2
		c-1,0.4-2.1,0.6-3.3,0.6c-1.8,0-3.1-0.5-4.1-1.6c-0.9-1.1-1.4-2.6-1.4-4.6c0-1.3,0.2-2.4,0.7-3.3s1.1-1.7,2-2.2
		c0.9-0.5,1.9-0.8,3-0.8c1.2,0,2.4,0.3,3.6,0.9l-0.8,2.1c-0.5-0.2-0.9-0.4-1.4-0.6S812.6,65.4,812.1,65.4z"/>
	<path class="st4" d="M824.8,75.6h-7V63.5h7v2.1h-4.4v2.7h4.1v2.1h-4.1v3.1h4.4V75.6z"/>
	<path class="st4" d="M832.7,63.5l-4.5,12.1h-2.3l4.5-12.1C830.4,63.5,832.7,63.5,832.7,63.5z"/>
	<path class="st4" d="M839,75.6h-2.6v-10h-3.3v-2.1h9.2v2.1H839V75.6z"/>
	<path class="st4" d="M846.8,71v4.7h-2.6V63.5h3.5c1.6,0,2.9,0.3,3.7,0.9c0.8,0.6,1.2,1.5,1.2,2.7c0,0.7-0.2,1.3-0.6,1.9
		c-0.4,0.6-0.9,1-1.7,1.3c1.8,2.7,3,4.5,3.6,5.3H851l-2.9-4.7H846.8z M846.8,68.9h0.8c0.8,0,1.4-0.1,1.8-0.4
		c0.4-0.3,0.6-0.7,0.6-1.3c0-0.6-0.2-1-0.6-1.2s-1-0.4-1.8-0.4h-0.8V68.9z"/>
	<path class="st4" d="M862.8,75.6l-0.9-2.9h-4.4l-0.9,2.9h-2.8l4.3-12.2h3.1l4.3,12.2H862.8z M861.4,70.6c-0.8-2.6-1.3-4.1-1.4-4.4
		s-0.2-0.6-0.2-0.8c-0.2,0.7-0.7,2.5-1.6,5.3L861.4,70.6L861.4,70.6z"/>
	<path class="st4" d="M874.3,72.2c0,1.1-0.4,2-1.2,2.6c-0.8,0.6-1.9,0.9-3.3,0.9c-1.3,0-2.4-0.2-3.4-0.7v-2.4
		c0.8,0.4,1.5,0.6,2.1,0.8c0.6,0.2,1.1,0.2,1.6,0.2c0.6,0,1-0.1,1.3-0.3c0.3-0.2,0.5-0.5,0.5-1c0-0.2-0.1-0.4-0.2-0.6
		s-0.3-0.4-0.6-0.5c-0.3-0.2-0.8-0.4-1.6-0.8c-0.7-0.3-1.3-0.7-1.7-1s-0.7-0.7-0.9-1.1c-0.2-0.4-0.3-0.9-0.3-1.5
		c0-1.1,0.4-1.9,1.1-2.5s1.7-0.9,3-0.9c0.6,0,1.2,0.1,1.8,0.2c0.6,0.1,1.2,0.4,1.8,0.6l-0.8,2c-0.6-0.3-1.2-0.4-1.6-0.6
		c-0.4-0.1-0.8-0.2-1.2-0.2c-0.5,0-0.9,0.1-1.1,0.3c-0.3,0.2-0.4,0.5-0.4,0.9c0,0.2,0.1,0.4,0.2,0.6c0.1,0.2,0.3,0.3,0.5,0.5
		c0.2,0.2,0.8,0.4,1.6,0.9c1.1,0.5,1.9,1.1,2.3,1.6C874.1,70.8,874.3,71.5,874.3,72.2z"/>
	<path class="st4" d="M887.3,75.6H884l-5.3-9.2h-0.1c0.1,1.6,0.2,2.8,0.2,3.5v5.7h-2.3V63.5h3.2l5.3,9.1h0.1
		c-0.1-1.6-0.1-2.7-0.1-3.3v-5.7h2.3L887.3,75.6L887.3,75.6z"/>
	<path class="st4" d="M892.9,75.6h-2.5V63.5h7v2.1h-4.4v3.1h4.1v2.1h-4.1V75.6z"/>
	<path class="st4" d="M906.6,75.6h-7V63.5h7v2.1h-4.4v2.7h4.1v2.1h-4.1v3.1h4.4V75.6z"/>
	<path class="st4" d="M911.8,71v4.7h-2.6V63.5h3.5c1.6,0,2.9,0.3,3.7,0.9c0.8,0.6,1.2,1.5,1.2,2.7c0,0.7-0.2,1.3-0.6,1.9
		c-0.4,0.6-0.9,1-1.7,1.3c1.8,2.7,3,4.5,3.6,5.3H916l-2.9-4.7H911.8z M911.8,68.9h0.8c0.8,0,1.4-0.1,1.8-0.4
		c0.4-0.3,0.6-0.7,0.6-1.3c0-0.6-0.2-1-0.6-1.2s-1-0.4-1.8-0.4h-0.8V68.9z"/>
	<path class="st4" d="M925.1,75.6h-2.6v-10h-3.3v-2.1h9.2v2.1h-3.3V75.6z"/>
</g>
<g class="st3">
	<path class="st6" d="M787.3,47.2c0,1.8-0.4,3.2-1.3,4.2s-2.2,1.5-3.8,1.5s-2.9-0.5-3.8-1.5s-1.3-2.4-1.3-4.2s0.4-3.2,1.3-4.1
		c0.9-1,2.2-1.4,3.8-1.4s2.9,0.5,3.8,1.4C786.8,44,787.3,45.4,787.3,47.2z M779.4,47.2c0,1.2,0.2,2.1,0.7,2.7
		c0.5,0.6,1.2,0.9,2.1,0.9c1.8,0,2.8-1.2,2.8-3.7c0-2.4-0.9-3.7-2.7-3.7c-0.9,0-1.6,0.3-2.1,0.9C779.6,45,779.4,45.9,779.4,47.2z"/>
	<path class="st6" d="M793.9,52.8c-1,0-1.7-0.4-2.3-1.1h-0.1c0.1,0.7,0.1,1.1,0.1,1.2v3.4h-2.3v-12h1.8l0.3,1.1h0.1
		c0.5-0.8,1.3-1.2,2.4-1.2c1,0,1.8,0.4,2.3,1.1c0.6,0.8,0.8,1.8,0.8,3.2c0,0.9-0.1,1.7-0.4,2.3s-0.6,1.2-1.1,1.5
		C795.1,52.6,794.6,52.8,793.9,52.8z M793.3,46c-0.6,0-1,0.2-1.2,0.5s-0.4,0.9-0.4,1.7v0.2c0,0.9,0.1,1.5,0.4,1.9s0.7,0.6,1.3,0.6
		c1,0,1.5-0.8,1.5-2.5c0-0.8-0.1-1.4-0.4-1.8S793.8,46,793.3,46z"/>
	<path class="st6" d="M802.5,51c0.4,0,0.9-0.1,1.4-0.3v1.7c-0.6,0.3-1.3,0.4-2.1,0.4c-0.9,0-1.6-0.2-2-0.7s-0.6-1.1-0.6-2.1v-4h-1.1
		v-1l1.2-0.8l0.7-1.8h1.5v1.8h2.3V46h-2.3v4c0,0.3,0.1,0.6,0.3,0.7C802,50.9,802.2,51,802.5,51z"/>
	<path class="st6" d="M805.5,42.1c0-0.7,0.4-1.1,1.2-1.1s1.2,0.4,1.2,1.1c0,0.4-0.1,0.6-0.3,0.8c-0.2,0.2-0.5,0.3-0.9,0.3
		C805.9,43.3,805.5,42.9,805.5,42.1z M807.9,52.6h-2.3v-8.3h2.3V52.6z"/>
	<path class="st6" d="M817.8,48.4c0,1.4-0.4,2.4-1.1,3.2c-0.7,0.8-1.7,1.1-3,1.1c-0.8,0-1.5-0.2-2.1-0.5c-0.6-0.3-1.1-0.9-1.4-1.5
		s-0.5-1.4-0.5-2.3c0-1.4,0.4-2.4,1.1-3.2s1.7-1.1,3-1.1c0.8,0,1.5,0.2,2.1,0.5c0.6,0.3,1.1,0.8,1.4,1.5S817.8,47.6,817.8,48.4z
		 M812.1,48.4c0,0.8,0.1,1.4,0.4,1.9c0.3,0.4,0.7,0.6,1.3,0.6c0.6,0,1-0.2,1.3-0.6c0.3-0.4,0.4-1,0.4-1.9c0-0.8-0.1-1.4-0.4-1.9
		s-0.7-0.6-1.3-0.6c-0.6,0-1,0.2-1.3,0.6S812.1,47.6,812.1,48.4z"/>
	<path class="st6" d="M827.4,52.6h-2.3v-4.9c0-0.6-0.1-1-0.3-1.4c-0.2-0.3-0.6-0.4-1-0.4c-0.6,0-1.1,0.2-1.4,0.6
		c-0.3,0.4-0.4,1.1-0.4,2.1v3.9h-2.3v-8.3h1.7l0.3,1.1h0.1c0.3-0.4,0.6-0.7,1-0.9c0.4-0.2,0.9-0.3,1.5-0.3c1,0,1.7,0.3,2.2,0.8
		c0.5,0.5,0.8,1.3,0.8,2.3L827.4,52.6L827.4,52.6z"/>
	<path class="st6" d="M837.4,52.6h-2.3v-4.9c0-0.6-0.1-1-0.3-1.4c-0.2-0.3-0.6-0.4-1-0.4c-0.6,0-1.1,0.2-1.4,0.6
		c-0.3,0.4-0.4,1.1-0.4,2.1v3.9h-2.3v-8.3h1.7l0.3,1.1h0.1c0.3-0.4,0.6-0.7,1-0.9c0.4-0.2,0.9-0.3,1.5-0.3c1,0,1.7,0.3,2.2,0.8
		c0.5,0.5,0.8,1.3,0.8,2.3L837.4,52.6C837.4,52.6,837.4,52.6,837.4,52.6z"/>
	<path class="st6" d="M843.5,52.8c-1.3,0-2.4-0.4-3.1-1.1c-0.8-0.7-1.1-1.8-1.1-3.1c0-1.4,0.3-2.5,1-3.2c0.7-0.8,1.7-1.1,2.9-1.1
		c1.2,0,2.1,0.3,2.7,1c0.7,0.7,1,1.6,1,2.8V49h-5.4c0,0.6,0.2,1.1,0.6,1.5c0.4,0.4,0.9,0.5,1.5,0.5c0.5,0,1-0.1,1.4-0.2
		c0.4-0.1,0.9-0.3,1.4-0.5v1.8c-0.4,0.2-0.8,0.3-1.3,0.4S844.1,52.8,843.5,52.8z M843.2,45.8c-0.5,0-0.9,0.2-1.1,0.5
		c-0.3,0.3-0.4,0.7-0.5,1.3h3.2c0-0.6-0.2-1-0.4-1.3C844,45.9,843.6,45.8,843.2,45.8z"/>
	<path class="st6" d="M851,52.6h-2.3V41h2.3V52.6z"/>
</g>
<rect x="508" y="228" class="st7" width="177.7" height="240.6"/>
<pattern  id="SVGID_2_" xlink:href="#SVGID_1_" patternTransform="matrix(0.8976 -0.846 -0.8976 -0.846 4529.1016 -33974.0977)">
</pattern>
<rect x="508" y="228" class="st8" width="177.7" height="240.6"/>
<g class="st3">
	<path class="st9" d="M561.2,346c0,1.5-0.5,2.6-1.6,3.5s-2.5,1.3-4.4,1.3c-1.7,0-3.3-0.3-4.6-1v-3.2c1.1,0.5,2,0.8,2.8,1
		c0.8,0.2,1.5,0.3,2.1,0.3c0.8,0,1.3-0.1,1.7-0.4c0.4-0.3,0.6-0.7,0.6-1.3c0-0.3-0.1-0.6-0.3-0.9s-0.4-0.5-0.8-0.7
		c-0.3-0.2-1.1-0.6-2.1-1.1c-1-0.5-1.7-0.9-2.2-1.4c-0.5-0.4-0.9-0.9-1.2-1.5c-0.3-0.6-0.4-1.2-0.4-2c0-1.4,0.5-2.6,1.5-3.4
		c1-0.8,2.3-1.2,4.1-1.2c0.8,0,1.7,0.1,2.4,0.3c0.8,0.2,1.6,0.5,2.4,0.8l-1.1,2.7c-0.9-0.4-1.6-0.6-2.2-0.7
		c-0.6-0.1-1.1-0.2-1.7-0.2c-0.7,0-1.2,0.2-1.5,0.5c-0.4,0.3-0.5,0.7-0.5,1.2c0,0.3,0.1,0.6,0.2,0.8c0.1,0.2,0.4,0.4,0.7,0.7
		s1,0.6,2.2,1.1c1.5,0.7,2.6,1.5,3.1,2.2S561.2,344.9,561.2,346z"/>
	<path class="st9" d="M575.2,344.3c0,2-0.5,3.6-1.6,4.8c-1.1,1.1-2.6,1.7-4.5,1.7c-1.2,0-2.3-0.3-3.2-0.8s-1.6-1.3-2.1-2.3
		c-0.5-1-0.7-2.1-0.7-3.4c0-2,0.5-3.6,1.6-4.8c1.1-1.1,2.6-1.7,4.5-1.7c1.2,0,2.3,0.3,3.2,0.8c0.9,0.5,1.6,1.3,2.1,2.2
		C575,341.8,575.2,343,575.2,344.3z M566.6,344.3c0,1.2,0.2,2.2,0.6,2.8c0.4,0.6,1.1,0.9,2,0.9c0.9,0,1.6-0.3,2-0.9
		c0.4-0.6,0.6-1.6,0.6-2.8c0-1.2-0.2-2.2-0.6-2.8c-0.4-0.6-1.1-0.9-2-0.9c-0.9,0-1.6,0.3-2,0.9C566.8,342.1,566.6,343,566.6,344.3z"
		/>
	<path class="st9" d="M581.4,350.5H578v-17.4h3.4V350.5z"/>
	<path class="st9" d="M593.8,350.5l-0.5-1.6h-0.2c-0.4,0.6-0.9,1-1.6,1.3c-0.7,0.3-1.4,0.5-2.3,0.5c-1.5,0-2.6-0.4-3.3-1.2
		c-0.7-0.8-1.1-1.9-1.1-3.4v-8.1h3.4v7.3c0,0.9,0.2,1.6,0.5,2c0.3,0.5,0.8,0.7,1.5,0.7c1,0,1.6-0.3,2.1-1c0.4-0.6,0.6-1.7,0.6-3.2
		v-5.9h3.4v12.5L593.8,350.5L593.8,350.5z"/>
	<path class="st9" d="M605.3,348c0.6,0,1.3-0.1,2.1-0.4v2.5c-0.8,0.4-1.9,0.6-3.1,0.6c-1.4,0-2.4-0.3-3-1c-0.6-0.7-0.9-1.7-0.9-3.1
		v-6h-1.6v-1.4l1.9-1.1l1-2.6h2.2v2.7h3.5v2.6h-3.5v6c0,0.5,0.1,0.8,0.4,1.1S604.8,348,605.3,348z"/>
	<path class="st9" d="M609.8,334.8c0-1.1,0.6-1.7,1.9-1.7c1.2,0,1.9,0.6,1.9,1.7c0,0.5-0.2,0.9-0.5,1.2s-0.8,0.4-1.4,0.4
		C610.4,336.5,609.8,336,609.8,334.8z M613.3,350.5h-3.4v-12.5h3.4V350.5z"/>
	<path class="st9" d="M628.2,344.3c0,2-0.5,3.6-1.6,4.8c-1.1,1.1-2.6,1.7-4.5,1.7c-1.2,0-2.3-0.3-3.2-0.8s-1.6-1.3-2.1-2.3
		c-0.5-1-0.7-2.1-0.7-3.4c0-2,0.5-3.6,1.6-4.8c1.1-1.1,2.6-1.7,4.5-1.7c1.2,0,2.3,0.3,3.2,0.8c0.9,0.5,1.6,1.3,2.1,2.2
		C628,341.8,628.2,343,628.2,344.3z M619.6,344.3c0,1.2,0.2,2.2,0.6,2.8c0.4,0.6,1.1,0.9,2,0.9c0.9,0,1.6-0.3,2-0.9
		c0.4-0.6,0.6-1.6,0.6-2.8c0-1.2-0.2-2.2-0.6-2.8c-0.4-0.6-1.1-0.9-2-0.9c-0.9,0-1.6,0.3-2,0.9C619.8,342.1,619.6,343,619.6,344.3z"
		/>
	<path class="st9" d="M642.6,350.5h-3.4v-7.3c0-0.9-0.2-1.6-0.5-2c-0.3-0.5-0.8-0.7-1.5-0.7c-1,0-1.6,0.3-2.1,1
		c-0.4,0.6-0.6,1.7-0.6,3.2v5.9h-3.4v-12.5h2.6l0.5,1.6h0.2c0.4-0.6,0.9-1.1,1.6-1.4c0.7-0.3,1.4-0.5,2.3-0.5c1.5,0,2.6,0.4,3.3,1.2
		c0.8,0.8,1.1,1.9,1.1,3.4L642.6,350.5L642.6,350.5L642.6,350.5z"/>
</g>
<g class="st3">
	<path class="st4" d="M559.7,71c0,2-0.5,3.6-1.5,4.6c-1,1.1-2.4,1.6-4.3,1.6s-3.3-0.5-4.3-1.6c-1-1.1-1.5-2.6-1.5-4.6
		c0-2,0.5-3.6,1.5-4.6s2.4-1.6,4.3-1.6c1.9,0,3.3,0.5,4.3,1.6C559.2,67.5,559.7,69,559.7,71z M550.8,71c0,1.4,0.3,2.4,0.8,3.1
		c0.5,0.7,1.3,1,2.3,1c2.1,0,3.1-1.4,3.1-4.1c0-2.7-1-4.1-3.1-4.1c-1,0-1.8,0.3-2.3,1C551.1,68.7,550.8,69.7,550.8,71z"/>
	<path class="st4" d="M570.6,68.8c0,1.3-0.4,2.3-1.2,3c-0.8,0.7-2,1-3.5,1h-1.1v4.3h-2.6V65h3.9c1.5,0,2.6,0.3,3.4,0.9
		S570.6,67.5,570.6,68.8z M564.8,70.7h0.8c0.8,0,1.4-0.2,1.8-0.5s0.6-0.8,0.6-1.4c0-0.6-0.2-1-0.5-1.3s-0.8-0.4-1.5-0.4h-1.2V70.7z"
		/>
	<path class="st4" d="M579.9,77.1h-7V65h7v2.1h-4.4v2.7h4.1v2.1h-4.1V75h4.4V77.1z M574.9,64v-0.2c1-1.1,1.6-1.9,2-2.5h2.8v0.2
		c-0.3,0.3-0.8,0.7-1.5,1.3s-1.2,1-1.6,1.3H574.9z"/>
	<path class="st4" d="M585,72.5v4.7h-2.6V65h3.5c1.6,0,2.9,0.3,3.7,0.9c0.8,0.6,1.2,1.5,1.2,2.7c0,0.7-0.2,1.3-0.6,1.9
		c-0.4,0.6-0.9,1-1.7,1.3c1.8,2.7,3,4.5,3.6,5.3h-2.9l-2.9-4.7L585,72.5L585,72.5z M585,70.4h0.8c0.8,0,1.4-0.1,1.8-0.4
		c0.4-0.3,0.6-0.7,0.6-1.3c0-0.6-0.2-1-0.6-1.2s-1-0.4-1.8-0.4H585V70.4z"/>
	<path class="st4" d="M601.1,77.1l-0.9-2.9h-4.4l-0.9,2.9h-2.8l4.3-12.2h3.1l4.3,12.2H601.1z M599.6,72.1c-0.8-2.6-1.3-4.1-1.4-4.4
		S598,67,598,66.8c-0.2,0.7-0.7,2.5-1.6,5.3L599.6,72.1L599.6,72.1z"/>
	<path class="st4" d="M610,77.1h-2.6v-10h-3.3V65h9.2v2.1H610V77.1z"/>
	<path class="st4" d="M615.2,77.1V65h2.6v12.1H615.2z"/>
	<path class="st4" d="M631.8,71c0,2-0.5,3.6-1.5,4.6c-1,1.1-2.4,1.6-4.3,1.6s-3.3-0.5-4.3-1.6c-1-1.1-1.5-2.6-1.5-4.6
		c0-2,0.5-3.6,1.5-4.6s2.4-1.6,4.3-1.6c1.9,0,3.3,0.5,4.3,1.6C631.3,67.5,631.8,69,631.8,71z M623,71c0,1.4,0.3,2.4,0.8,3.1
		c0.5,0.7,1.3,1,2.3,1c2.1,0,3.1-1.4,3.1-4.1c0-2.7-1-4.1-3.1-4.1c-1,0-1.8,0.3-2.3,1C623.2,68.7,623,69.7,623,71z"/>
	<path class="st4" d="M645.1,77.1h-3.3l-5.3-9.2h-0.1c0.1,1.6,0.2,2.8,0.2,3.5v5.7h-2.3V65h3.2l5.3,9.1h0.1
		c-0.1-1.6-0.1-2.7-0.1-3.3V65h2.3L645.1,77.1C645.1,77.1,645.1,77.1,645.1,77.1z"/>
</g>
<g>
	<circle class="st9" cx="596.9" cy="149.8" r="52.5"/>
	<g>
		<g>
			<g>
				<g>
					<g>
						<g>
							<g>
								<g>
									<g>
										<g>
											<defs>
												<circle id="SVGID_3_" cx="596.9" cy="149.8" r="52.5"/>
											</defs>
											<clipPath id="SVGID_4_">
												<use xlink:href="#SVGID_3_"  style="overflow:visible;"/>
											</clipPath>
											<circle class="st10" cx="596.9" cy="149.8" r="52.5"/>
										</g>
									</g>
								</g>
							</g>
						</g>
					</g>
				</g>
				<g>
					<g>
						<g>
							<g>
								<g>
									<g>
										<g>
											<defs>
												<circle id="SVGID_5_" cx="596.9" cy="149.8" r="52.5"/>
											</defs>
											<clipPath id="SVGID_7_">
												<use xlink:href="#SVGID_5_"  style="overflow:visible;"/>
											</clipPath>
											<g class="st11">
												<circle class="st12" cx="596.9" cy="149.8" r="35.8"/>
											</g>
										</g>
									</g>
								</g>
							</g>
						</g>
					</g>
				</g>
			</g>
		</g>
		<g>
			<g>
				<path class="st9" d="M643.7,156.2c0-7.6-6.1-13.8-13.8-13.8c-0.9,0-1.8,0.1-2.6,0.3c0.3-0.9,0.4-1.9,0.4-3
					c0-6.4-5.2-11.5-11.5-11.5c-2.8,0-5.4,1-7.4,2.7c-2.7-9-11-15.5-20.8-15.5c-12,0-21.7,9.7-21.7,21.7c0,0.9,0.1,1.9,0.2,2.7
					c-7.5,0.9-13.3,7.2-13.3,15c0,8.3,6.8,15.1,15.1,15.1h64.3C638.6,168.6,643.7,162.8,643.7,156.2z"/>
			</g>
		</g>
		<g>
			<g>
				<g>
					<path class="st6" d="M614.9,154.5l-0.2-0.1l-0.9-2.1l0.1-0.2c2.8-6.3,2.6-6.5,2.1-6.9l-3.7-3.6c-0.1-0.1-0.4-0.3-0.7-0.3
						c-0.2,0-0.8,0-6.3,2.5l-0.2,0.1l-2.2-0.9l-0.1-0.2c-2.6-6.4-2.8-6.4-3.5-6.4h-5.2c-0.6,0-0.9,0-3.3,6.4l-0.1,0.2l-2.2,0.9
						l-0.2-0.1c-3.7-1.5-5.9-2.4-6.4-2.4c-0.2,0-0.5,0.1-0.7,0.3l-3.7,3.6c-0.5,0.4-0.7,0.7,2.2,6.8l0.1,0.2l-0.9,2.1l-0.2,0.1
						c-6.5,2.5-6.5,2.8-6.5,3.4v5.1c0,0.7,0,0.9,6.5,3.2l0.2,0.1l0.9,2.1l-0.1,0.2c-2.8,6.3-2.6,6.4-2.1,6.9l3.7,3.6
						c0.2,0.1,0.4,0.3,0.7,0.3s0.8,0,6.3-2.5l0.2-0.1l2.2,0.9l0.1,0.2c2.6,6.4,2.8,6.4,3.5,6.4h5.2c0.7,0,0.9,0,3.3-6.4l0.1-0.2
						l2.2-0.9l0.2,0.1c3.7,1.5,5.9,2.4,6.4,2.4c0.2,0,0.5-0.1,0.7-0.3l3.7-3.6c0.5-0.5,0.7-0.7-2.2-6.8l-0.1-0.2l0.9-2.1l0.2-0.1
						c6.5-2.5,6.5-2.8,6.5-3.5v-5.1C621.5,157.1,621.5,156.8,614.9,154.5z M596.9,168.6c-4.7,0-8.4-3.7-8.4-8.3
						c0-4.6,3.8-8.3,8.4-8.3c4.7,0,8.4,3.7,8.4,8.3C605.3,165,601.6,168.6,596.9,168.6z"/>
				</g>
			</g>
		</g>
	</g>
</g>
<rect x="730.9" y="228" class="st13" width="177.7" height="240.6"/>
<pattern  id="SVGID_8_" xlink:href="#SVGID_6_" patternTransform="matrix(0.8976 -0.846 -0.8976 -0.846 4622.6855 -33974.0977)">
</pattern>
<rect x="730.9" y="228" class="st14" width="177.7" height="240.6"/>
<g class="st3">
	<path class="st9" d="M784,346c0,1.5-0.5,2.6-1.6,3.5s-2.5,1.3-4.4,1.3c-1.7,0-3.3-0.3-4.6-1v-3.2c1.1,0.5,2,0.8,2.8,1
		c0.8,0.2,1.5,0.3,2.1,0.3c0.8,0,1.3-0.1,1.7-0.4c0.4-0.3,0.6-0.7,0.6-1.3c0-0.3-0.1-0.6-0.3-0.9s-0.4-0.5-0.8-0.7
		c-0.3-0.2-1.1-0.6-2.1-1.1c-1-0.5-1.7-0.9-2.2-1.4c-0.5-0.4-0.9-0.9-1.2-1.5c-0.3-0.6-0.4-1.2-0.4-2c0-1.4,0.5-2.6,1.5-3.4
		c1-0.8,2.3-1.2,4.1-1.2c0.8,0,1.7,0.1,2.4,0.3c0.8,0.2,1.6,0.5,2.4,0.8l-1.1,2.7c-0.9-0.4-1.6-0.6-2.2-0.7
		c-0.6-0.1-1.1-0.2-1.7-0.2c-0.7,0-1.2,0.2-1.5,0.5c-0.4,0.3-0.5,0.7-0.5,1.2c0,0.3,0.1,0.6,0.2,0.8c0.1,0.2,0.4,0.4,0.7,0.7
		s1,0.6,2.2,1.1c1.5,0.7,2.6,1.5,3.1,2.2S784,344.9,784,346z"/>
	<path class="st9" d="M798.1,344.3c0,2-0.5,3.6-1.6,4.8c-1.1,1.1-2.6,1.7-4.5,1.7c-1.2,0-2.3-0.3-3.2-0.8s-1.6-1.3-2.1-2.3
		c-0.5-1-0.7-2.1-0.7-3.4c0-2,0.5-3.6,1.6-4.8c1.1-1.1,2.6-1.7,4.5-1.7c1.2,0,2.3,0.3,3.2,0.8c0.9,0.5,1.6,1.3,2.1,2.2
		C797.8,341.8,798.1,343,798.1,344.3z M789.4,344.3c0,1.2,0.2,2.2,0.6,2.8c0.4,0.6,1.1,0.9,2,0.9c0.9,0,1.6-0.3,2-0.9
		c0.4-0.6,0.6-1.6,0.6-2.8c0-1.2-0.2-2.2-0.6-2.8c-0.4-0.6-1.1-0.9-2-0.9c-0.9,0-1.6,0.3-2,0.9C789.6,342.1,789.4,343,789.4,344.3z"
		/>
	<path class="st9" d="M804.3,350.5h-3.4v-17.4h3.4V350.5z"/>
	<path class="st9" d="M816.7,350.5l-0.5-1.6H816c-0.4,0.6-0.9,1-1.6,1.3c-0.7,0.3-1.4,0.5-2.3,0.5c-1.5,0-2.6-0.4-3.3-1.2
		c-0.7-0.8-1.1-1.9-1.1-3.4v-8.1h3.4v7.3c0,0.9,0.2,1.6,0.5,2c0.3,0.5,0.8,0.7,1.5,0.7c1,0,1.6-0.3,2.1-1c0.4-0.6,0.6-1.7,0.6-3.2
		v-5.9h3.4v12.5L816.7,350.5L816.7,350.5z"/>
	<path class="st9" d="M828.1,348c0.6,0,1.3-0.1,2.1-0.4v2.5c-0.8,0.4-1.9,0.6-3.1,0.6c-1.4,0-2.4-0.3-3-1c-0.6-0.7-0.9-1.7-0.9-3.1
		v-6h-1.6v-1.4l1.9-1.1l1-2.6h2.2v2.7h3.5v2.6h-3.5v6c0,0.5,0.1,0.8,0.4,1.1S827.7,348,828.1,348z"/>
	<path class="st9" d="M832.6,334.8c0-1.1,0.6-1.7,1.9-1.7c1.2,0,1.9,0.6,1.9,1.7c0,0.5-0.2,0.9-0.5,1.2s-0.8,0.4-1.4,0.4
		C833.2,336.5,832.6,336,832.6,334.8z M836.2,350.5h-3.4v-12.5h3.4V350.5z"/>
	<path class="st9" d="M851.1,344.3c0,2-0.5,3.6-1.6,4.8c-1.1,1.1-2.6,1.7-4.5,1.7c-1.2,0-2.3-0.3-3.2-0.8s-1.6-1.3-2.1-2.3
		c-0.5-1-0.7-2.1-0.7-3.4c0-2,0.5-3.6,1.6-4.8c1.1-1.1,2.6-1.7,4.5-1.7c1.2,0,2.3,0.3,3.2,0.8c0.9,0.5,1.6,1.3,2.1,2.2
		C850.8,341.8,851.1,343,851.1,344.3z M842.5,344.3c0,1.2,0.2,2.2,0.6,2.8c0.4,0.6,1.1,0.9,2,0.9c0.9,0,1.6-0.3,2-0.9
		c0.4-0.6,0.6-1.6,0.6-2.8c0-1.2-0.2-2.2-0.6-2.8c-0.4-0.6-1.1-0.9-2-0.9c-0.9,0-1.6,0.3-2,0.9C842.7,342.1,842.5,343,842.5,344.3z"
		/>
	<path class="st9" d="M865.4,350.5H862v-7.3c0-0.9-0.2-1.6-0.5-2c-0.3-0.5-0.8-0.7-1.5-0.7c-1,0-1.6,0.3-2.1,1
		c-0.4,0.6-0.6,1.7-0.6,3.2v5.9h-3.4v-12.5h2.6l0.5,1.6h0.2c0.4-0.6,0.9-1.1,1.6-1.4c0.7-0.3,1.4-0.5,2.3-0.5c1.5,0,2.6,0.4,3.3,1.2
		c0.8,0.8,1.1,1.9,1.1,3.4L865.4,350.5L865.4,350.5L865.4,350.5z"/>
</g>
<g>
	<circle class="st9" cx="813.5" cy="149.8" r="52.5"/>
	<g>
		<g>
			<g>
				<g>
					<g>
						<g>
							<g>
								<g>
									<g>
										<defs>
											<circle id="SVGID_9_" cx="813.5" cy="149.9" r="52.4"/>
										</defs>
										<clipPath id="SVGID_10_">
											<use xlink:href="#SVGID_9_"  style="overflow:visible;"/>
										</clipPath>
										<circle class="st15" cx="813.5" cy="149.9" r="52.4"/>
									</g>
								</g>
							</g>
						</g>
					</g>
				</g>
				<g>
					<g>
						<g>
							<g>
								<g>
									<g>
										<defs>
											<circle id="SVGID_11_" cx="813.5" cy="149.9" r="52.4"/>
										</defs>
										<clipPath id="SVGID_12_">
											<use xlink:href="#SVGID_11_"  style="overflow:visible;"/>
										</clipPath>
										<g class="st16">
											<circle class="st17" cx="813.5" cy="149.9" r="35.6"/>
										</g>
									</g>
								</g>
							</g>
						</g>
					</g>
				</g>
			</g>
			<g>
				<g>
					<g>
						<path class="st9" d="M860.1,156.1c0-7.6-6.1-13.7-13.7-13.7c-0.9,0-1.8,0.1-2.6,0.3c0.3-0.9,0.4-1.9,0.4-3
							c0-6.3-5.2-11.5-11.5-11.5c-2.8,0-5.4,1-7.4,2.7c-2.7-9-11-15.5-20.8-15.5c-12,0-21.7,9.7-21.7,21.7c0,0.9,0.1,1.9,0.2,2.7
							c-7.5,0.9-13.3,7.2-13.3,15c0,8.3,6.7,15.1,15.1,15.1h64.1C855,168.5,860.1,162.8,860.1,156.1z"/>
					</g>
				</g>
			</g>
		</g>
		<g>
			<polygon class="st18" points="846.5,190.6 878.4,169.8 846.5,149.1 846.5,162.2 800.2,154.1 800.2,185.6 846.5,178 			"/>
		</g>
	</g>
</g>
<rect x="62.4" y="300.2" class="st7" width="177.7" height="168.5"/>
<g class="st3">
	<path class="st9" d="M127.8,342.2c0,2.7-0.8,4.7-2.3,6.2c-1.5,1.4-3.7,2.1-6.6,2.1h-4.6v-16.3h5.1c2.7,0,4.7,0.7,6.2,2.1
		S127.8,339.7,127.8,342.2z M124.2,342.3c0-3.5-1.5-5.3-4.6-5.3h-1.8v10.6h1.5C122.6,347.7,124.2,345.9,124.2,342.3z"/>
	<path class="st9" d="M136.6,350.8c-2,0-3.6-0.6-4.7-1.7c-1.1-1.1-1.7-2.7-1.7-4.7c0-2.1,0.5-3.7,1.6-4.8c1-1.1,2.5-1.7,4.3-1.7
		c1.8,0,3.1,0.5,4.1,1.5s1.5,2.4,1.5,4.2v1.7h-8c0,1,0.3,1.7,0.9,2.3c0.5,0.5,1.3,0.8,2.3,0.8c0.8,0,1.5-0.1,2.1-0.2
		c0.7-0.2,1.4-0.4,2.1-0.7v2.6c-0.6,0.3-1.2,0.5-1.9,0.7C138.4,350.7,137.6,350.8,136.6,350.8z M136.1,340.2c-0.7,0-1.3,0.2-1.7,0.7
		c-0.4,0.5-0.6,1.1-0.7,1.9h4.8c0-0.8-0.2-1.5-0.7-1.9C137.4,340.5,136.8,340.2,136.1,340.2z M134.1,336.7v-0.3
		c1.3-1.5,2.2-2.6,2.6-3.4h3.8v0.2c-0.4,0.4-1,1-2,1.7c-0.9,0.8-1.7,1.3-2.2,1.7H134.1z"/>
	<path class="st9" d="M151.3,340.6h-2.9v9.9H145v-9.9h-1.9V339l1.9-0.9v-0.9c0-1.4,0.4-2.5,1-3.1c0.7-0.7,1.8-1,3.4-1
		c1.2,0,2.2,0.2,3.1,0.5l-0.9,2.5c-0.7-0.2-1.3-0.3-1.9-0.3c-0.5,0-0.8,0.1-1,0.4s-0.3,0.7-0.3,1.1v0.8h2.9L151.3,340.6L151.3,340.6
		L151.3,340.6z"/>
	<path class="st9" d="M161.2,350.5l-0.7-1.7h-0.1c-0.6,0.7-1.2,1.2-1.8,1.5s-1.4,0.4-2.4,0.4c-1.2,0-2.1-0.3-2.8-1s-1-1.7-1-2.9
		c0-1.3,0.5-2.3,1.4-2.9c0.9-0.6,2.3-1,4.2-1l2.2-0.1v-0.5c0-1.3-0.6-1.9-1.9-1.9c-1,0-2.2,0.3-3.5,0.9l-1.1-2.3
		c1.4-0.8,3-1.1,4.8-1.1c1.7,0,3,0.4,3.8,1.1c0.9,0.7,1.3,1.8,1.3,3.3v8.3L161.2,350.5L161.2,350.5L161.2,350.5z M160.2,344.8
		l-1.3,0c-1,0-1.7,0.2-2.2,0.5c-0.5,0.3-0.7,0.8-0.7,1.5c0,1,0.6,1.4,1.7,1.4c0.8,0,1.4-0.2,1.9-0.7c0.5-0.5,0.7-1.1,0.7-1.8
		L160.2,344.8L160.2,344.8z"/>
	<path class="st9" d="M175.9,350.5l-0.5-1.6h-0.2c-0.4,0.6-0.9,1-1.6,1.3c-0.7,0.3-1.4,0.5-2.3,0.5c-1.5,0-2.6-0.4-3.3-1.2
		c-0.7-0.8-1.1-1.9-1.1-3.4v-8.1h3.4v7.3c0,0.9,0.2,1.6,0.5,2c0.3,0.5,0.8,0.7,1.5,0.7c1,0,1.6-0.3,2.1-1c0.4-0.6,0.6-1.7,0.6-3.2
		v-5.9h3.4v12.5L175.9,350.5L175.9,350.5z"/>
	<path class="st9" d="M187.4,348c0.6,0,1.3-0.1,2.1-0.4v2.5c-0.8,0.4-1.9,0.6-3.1,0.6c-1.4,0-2.4-0.3-3-1c-0.6-0.7-0.9-1.7-0.9-3.1
		v-6h-1.6v-1.4l1.9-1.1l1-2.6h2.2v2.7h3.5v2.6h-3.5v6c0,0.5,0.1,0.8,0.4,1.1S186.9,348,187.4,348z"/>
</g>
<g>
	<path class="st5" d="M240.1,228h-5.4v0.5h5.4V228L240.1,228z M229.4,228H224v0.5h5.4V228L229.4,228z M218.6,228h-5.4v0.5h5.4V228
		L218.6,228z M207.9,228h-5.4v0.5h5.4V228L207.9,228z M197.2,228h-5.4v0.5h5.4V228L197.2,228z M186.4,228H181v0.5h5.4V228L186.4,228
		z M175.7,228h-5.4v0.5h5.4V228L175.7,228z M164.9,228h-5.4v0.5h5.4V228L164.9,228z M154.2,228h-5.4v0.5h5.4V228L154.2,228z
		 M143.5,228h-5.4v0.5h5.4V228L143.5,228z M132.7,228h-5.4v0.5h5.4V228L132.7,228z M122,228h-5.4v0.5h5.4V228L122,228z M111.2,228
		h-5.4v0.5h5.4V228L111.2,228z M100.5,228h-5.4v0.5h5.4V228L100.5,228z M89.8,228h-5.4v0.5h5.4V228L89.8,228z M79,228h-5.4v0.5H79
		V228L79,228z M68.3,228h-5.4v0.5h5.4V228L68.3,228z M62.9,232.8h-0.5v5.4h0.5V232.8L62.9,232.8z M62.9,243.5h-0.5v5.4h0.5V243.5
		L62.9,243.5z M62.9,254.3h-0.5v5.4h0.5V254.3L62.9,254.3z M62.9,265h-0.5v5.4h0.5V265L62.9,265z M62.9,275.8h-0.5v5.4h0.5V275.8
		L62.9,275.8z M62.9,286.5h-0.5v3.7h0.5l0,0l0,0l0,0l0,0c0.5,0,1.1,0,1.1,0v-0.5h-1.1V286.5L62.9,286.5z M74.7,289.7h-5.4v0.5h5.4
		V289.7L74.7,289.7z M85.5,289.7h-5.4v0.5h5.4V289.7L85.5,289.7z M96.2,289.7h-5.4v0.5h5.4V289.7L96.2,289.7z M107,289.7h-5.4v0.5
		h5.4V289.7L107,289.7z M117.7,289.7h-5.4v0.5h5.4V289.7L117.7,289.7z M128.4,289.7h-5.4v0.5h5.4V289.7L128.4,289.7z M139.2,289.7
		h-5.4v0.5h5.4V289.7L139.2,289.7z M149.9,289.7h-5.4v0.5h5.4V289.7L149.9,289.7z M160.7,289.7h-5.4v0.5h5.4V289.7L160.7,289.7z
		 M171.4,289.7H166v0.5h5.4V289.7L171.4,289.7z M182.1,289.7h-5.4v0.5h5.4V289.7L182.1,289.7z M192.9,289.7h-5.4v0.5h5.4V289.7
		L192.9,289.7z M203.6,289.7h-5.4v0.5h5.4V289.7L203.6,289.7z M214.4,289.7H209v0.5h5.4V289.7L214.4,289.7z M225.1,289.7h-5.4v0.5
		h5.4V289.7L225.1,289.7z M235.8,289.7h-5.4v0.5h5.4V289.7L235.8,289.7z M240.1,283.8h-0.5v5.4h0.5V283.8L240.1,283.8z M240.1,273
		h-0.5v5.4h0.5V273L240.1,273z M240.1,262.3h-0.5v5.4h0.5V262.3L240.1,262.3z M240.1,251.6h-0.5v5.4h0.5V251.6L240.1,251.6z
		 M240.1,240.8h-0.5v5.4h0.5V240.8L240.1,240.8z M240.1,230.1h-0.5v5.4h0.5V230.1L240.1,230.1z"/>
</g>
<g class="st3">
	<path class="st4" d="M105.1,77.1h-7V65h7v2.1h-4.4v2.7h4.1v2.1h-4.1V75h4.4V77.1z M100.1,64v-0.2c1-1.1,1.6-1.9,2-2.5h2.8v0.2
		c-0.3,0.3-0.8,0.7-1.5,1.3s-1.2,1-1.6,1.3H100.1z"/>
	<path class="st4" d="M114.6,65h2.6L113,77.1h-2.8L106.1,65h2.6l2.3,7.2c0.1,0.4,0.3,0.9,0.4,1.5s0.2,1,0.3,1.2
		c0.1-0.5,0.3-1.4,0.6-2.7L114.6,65z"/>
	<path class="st4" d="M126.1,77.1l-0.9-2.9h-4.4l-0.9,2.9h-2.8l4.3-12.2h3.1l4.3,12.2H126.1z M124.6,72.1c-0.8-2.6-1.3-4.1-1.4-4.4
		s-0.2-0.6-0.2-0.8c-0.2,0.7-0.7,2.5-1.6,5.3L124.6,72.1L124.6,72.1z"/>
	<path class="st4" d="M130.4,77.1V65h2.6v10h4.9v2.1L130.4,77.1L130.4,77.1z"/>
	<path class="st4" d="M149.9,65v7.9c0,0.9-0.2,1.7-0.6,2.4s-1,1.2-1.7,1.6c-0.8,0.4-1.7,0.5-2.7,0.5c-1.6,0-2.8-0.4-3.6-1.2
		s-1.3-1.9-1.3-3.3V65h2.6v7.4c0,0.9,0.2,1.6,0.6,2.1c0.4,0.4,1,0.7,1.9,0.7c0.8,0,1.5-0.2,1.8-0.7c0.4-0.4,0.6-1.1,0.6-2.1V65
		L149.9,65L149.9,65z"/>
	<path class="st4" d="M160.3,77.1l-0.9-2.9H155l-0.9,2.9h-2.8l4.3-12.2h3.1l4.3,12.2H160.3z M158.8,72.1c-0.8-2.6-1.3-4.1-1.4-4.4
		s-0.2-0.6-0.2-0.8c-0.2,0.7-0.7,2.5-1.6,5.3L158.8,72.1L158.8,72.1z"/>
	<path class="st4" d="M169.3,77.1h-2.6v-10h-3.3V65h9.2v2.1h-3.3V77.1z"/>
	<path class="st4" d="M174.4,77.1V65h2.6v12.1L174.4,77.1L174.4,77.1z"/>
	<path class="st4" d="M191.1,71c0,2-0.5,3.6-1.5,4.6c-1,1.1-2.4,1.6-4.3,1.6s-3.3-0.5-4.3-1.6c-1-1.1-1.5-2.6-1.5-4.6
		c0-2,0.5-3.6,1.5-4.6s2.4-1.6,4.3-1.6c1.9,0,3.3,0.5,4.3,1.6C190.6,67.5,191.1,69,191.1,71z M182.2,71c0,1.4,0.3,2.4,0.8,3.1
		c0.5,0.7,1.3,1,2.3,1c2.1,0,3.1-1.4,3.1-4.1c0-2.7-1-4.1-3.1-4.1c-1,0-1.8,0.3-2.3,1C182.5,68.7,182.2,69.7,182.2,71z"/>
	<path class="st4" d="M204.4,77.1h-3.3l-5.3-9.2h-0.1c0.1,1.6,0.2,2.8,0.2,3.5v5.7h-2.3V65h3.2l5.3,9.1h0.1
		c-0.1-1.6-0.1-2.7-0.1-3.3V65h2.3V77.1z"/>
</g>
<g>
	<g>
		<circle class="st9" cx="151.2" cy="149.8" r="52.5"/>
		<g>
			<g>
				<g>
					<g>
						<g>
							<g>
								<g>
									<g>
										<defs>
											<circle id="SVGID_13_" cx="151.2" cy="149.8" r="52.5"/>
										</defs>
										<clipPath id="SVGID_14_">
											<use xlink:href="#SVGID_13_"  style="overflow:visible;"/>
										</clipPath>
										<circle class="st19" cx="151.2" cy="149.8" r="52.5"/>
									</g>
								</g>
							</g>
						</g>
					</g>
				</g>
				<g>
					<g>
						<g>
							<g>
								<g>
									<g>
										<defs>
											<circle id="SVGID_15_" cx="151.2" cy="149.8" r="52.5"/>
										</defs>
										<clipPath id="SVGID_16_">
											<use xlink:href="#SVGID_15_"  style="overflow:visible;"/>
										</clipPath>
										<g class="st20">
											<ellipse class="st21" cx="151.2" cy="149.8" rx="35.8" ry="35.8"/>
										</g>
									</g>
								</g>
							</g>
						</g>
					</g>
				</g>
			</g>
		</g>
	</g>
	<g>
		<circle class="st22" cx="160.4" cy="140.8" r="21.9"/>
		<line class="st23" x1="143.5" y1="157.7" x2="122.3" y2="178.9"/>
		<line class="st24" x1="138.8" y1="162.4" x2="120.1" y2="181.1"/>
	</g>
</g>
<g>
	<polygon id="Fill-10_72_" class="st25" points="228.6,167.8 264.6,149.5 228.6,131.9 	"/>
	<polygon id="Fill-10_70_" class="st26" points="264.6,167.8 300.5,149.5 264.6,131.9 	"/>
</g>
<g>
	<polygon id="Fill-10_69_" class="st25" points="451.4,167.8 487.4,149.5 451.4,131.9 	"/>
	<polygon id="Fill-10_67_" class="st26" points="487.4,167.8 523.3,149.5 487.4,131.9 	"/>
</g>
<g>
	<polygon id="Fill-10_41_" class="st25" points="674.3,167.8 710.2,149.5 674.3,131.9 	"/>
	<polygon id="Fill-10_22_" class="st26" points="710.2,167.8 746.2,149.5 710.2,131.9 	"/>
</g>
<rect x="285.2" y="300.2" class="st7" width="177.7" height="168.5"/>
<pattern  id="SVGID_18_" xlink:href="#SVGID_17_" patternTransform="matrix(0.8976 -0.846 -0.8976 -0.846 4515.0244 -33974.0977)">
</pattern>
<rect x="285.2" y="228" class="st27" width="177.7" height="62.3"/>
<g class="st3">
	<path class="st9" d="M350.7,342.2c0,2.7-0.8,4.7-2.3,6.2c-1.5,1.4-3.7,2.1-6.6,2.1h-4.6v-16.3h5.1c2.7,0,4.7,0.7,6.2,2.1
		S350.7,339.7,350.7,342.2z M347.1,342.3c0-3.5-1.5-5.3-4.6-5.3h-1.8v10.6h1.5C345.4,347.7,347.1,345.9,347.1,342.3z"/>
	<path class="st9" d="M359.4,350.8c-2,0-3.6-0.6-4.7-1.7c-1.1-1.1-1.7-2.7-1.7-4.7c0-2.1,0.5-3.7,1.6-4.8c1-1.1,2.5-1.7,4.3-1.7
		c1.8,0,3.1,0.5,4.1,1.5s1.5,2.4,1.5,4.2v1.7h-8c0,1,0.3,1.7,0.9,2.3c0.5,0.5,1.3,0.8,2.3,0.8c0.8,0,1.5-0.1,2.1-0.2
		c0.7-0.2,1.4-0.4,2.1-0.7v2.6c-0.6,0.3-1.2,0.5-1.9,0.7C361.2,350.7,360.4,350.8,359.4,350.8z M358.9,340.2c-0.7,0-1.3,0.2-1.7,0.7
		c-0.4,0.5-0.6,1.1-0.7,1.9h4.8c0-0.8-0.2-1.5-0.7-1.9C360.2,340.5,359.7,340.2,358.9,340.2z M357,336.7v-0.3
		c1.3-1.5,2.2-2.6,2.6-3.4h3.8v0.2c-0.4,0.4-1,1-2,1.7c-0.9,0.8-1.7,1.3-2.2,1.7H357z"/>
	<path class="st9" d="M374.2,340.6h-2.9v9.9h-3.4v-9.9h-1.9V339l1.9-0.9v-0.9c0-1.4,0.4-2.5,1-3.1c0.7-0.7,1.8-1,3.4-1
		c1.2,0,2.2,0.2,3.1,0.5l-0.9,2.5c-0.7-0.2-1.3-0.3-1.9-0.3c-0.5,0-0.8,0.1-1,0.4s-0.3,0.7-0.3,1.1v0.8h2.9L374.2,340.6L374.2,340.6
		L374.2,340.6z"/>
	<path class="st9" d="M384,350.5l-0.7-1.7h-0.1c-0.6,0.7-1.2,1.2-1.8,1.5s-1.4,0.4-2.4,0.4c-1.2,0-2.1-0.3-2.8-1s-1-1.7-1-2.9
		c0-1.3,0.5-2.3,1.4-2.9c0.9-0.6,2.3-1,4.2-1l2.2-0.1v-0.5c0-1.3-0.6-1.9-1.9-1.9c-1,0-2.2,0.3-3.5,0.9l-1.1-2.3
		c1.4-0.8,3-1.1,4.8-1.1c1.7,0,3,0.4,3.8,1.1c0.9,0.7,1.3,1.8,1.3,3.3v8.3L384,350.5L384,350.5L384,350.5z M383,344.8l-1.3,0
		c-1,0-1.7,0.2-2.2,0.5c-0.5,0.3-0.7,0.8-0.7,1.5c0,1,0.6,1.4,1.7,1.4c0.8,0,1.4-0.2,1.9-0.7c0.5-0.5,0.7-1.1,0.7-1.8L383,344.8
		L383,344.8z"/>
	<path class="st9" d="M398.8,350.5l-0.5-1.6h-0.2c-0.4,0.6-0.9,1-1.6,1.3c-0.7,0.3-1.4,0.5-2.3,0.5c-1.5,0-2.6-0.4-3.3-1.2
		c-0.7-0.8-1.1-1.9-1.1-3.4v-8.1h3.4v7.3c0,0.9,0.2,1.6,0.5,2c0.3,0.5,0.8,0.7,1.5,0.7c1,0,1.6-0.3,2.1-1c0.4-0.6,0.6-1.7,0.6-3.2
		v-5.9h3.4v12.5L398.8,350.5L398.8,350.5z"/>
	<path class="st9" d="M410.2,348c0.6,0,1.3-0.1,2.1-0.4v2.5c-0.8,0.4-1.9,0.6-3.1,0.6c-1.4,0-2.4-0.3-3-1c-0.6-0.7-0.9-1.7-0.9-3.1
		v-6h-1.6v-1.4l1.9-1.1l1-2.6h2.2v2.7h3.5v2.6h-3.5v6c0,0.5,0.1,0.8,0.4,1.1S409.7,348,410.2,348z"/>
</g>
<g class="st3">
	<path class="st4" d="M336.3,66.9c-1,0-1.7,0.4-2.2,1.1s-0.8,1.7-0.8,3c0,2.7,1,4.1,3,4.1c0.9,0,1.9-0.2,3.1-0.6v2.2
		c-1,0.4-2.1,0.6-3.3,0.6c-1.8,0-3.1-0.5-4.1-1.6c-0.9-1.1-1.4-2.6-1.4-4.6c0-1.3,0.2-2.4,0.7-3.3s1.1-1.7,2-2.2
		c0.9-0.5,1.9-0.8,3-0.8c1.2,0,2.4,0.3,3.6,0.9l-0.8,2.1c-0.5-0.2-0.9-0.4-1.4-0.6S336.8,66.9,336.3,66.9z"/>
	<path class="st4" d="M344.6,72.5v4.7H342V65h3.5c1.6,0,2.9,0.3,3.7,0.9c0.8,0.6,1.2,1.5,1.2,2.7c0,0.7-0.2,1.3-0.6,1.9
		c-0.4,0.6-0.9,1-1.7,1.3c1.8,2.7,3,4.5,3.6,5.3h-2.9l-2.9-4.7C346,72.5,344.6,72.5,344.6,72.5z M344.6,70.4h0.8
		c0.8,0,1.4-0.1,1.8-0.4c0.4-0.3,0.6-0.7,0.6-1.3c0-0.6-0.2-1-0.6-1.2s-1-0.4-1.8-0.4h-0.8V70.4z"/>
	<path class="st4" d="M360.2,77.1h-7V65h7v2.1h-4.4v2.7h4.1v2.1h-4.1V75h4.4V77.1z M355.2,64v-0.2c1-1.1,1.6-1.9,2-2.5h2.8v0.2
		c-0.3,0.3-0.8,0.7-1.5,1.3s-1.2,1-1.6,1.3H355.2z"/>
	<path class="st4" d="M370.2,77.1l-0.9-2.9h-4.4l-0.9,2.9h-2.8l4.3-12.2h3.1l4.3,12.2H370.2z M368.7,72.1c-0.8-2.6-1.3-4.1-1.4-4.4
		s-0.2-0.6-0.2-0.8c-0.2,0.7-0.7,2.5-1.6,5.3L368.7,72.1L368.7,72.1z"/>
	<path class="st4" d="M379.2,77.1h-2.6v-10h-3.3V65h9.2v2.1h-3.3V77.1z"/>
	<path class="st4" d="M384.3,77.1V65h2.6v12.1L384.3,77.1L384.3,77.1z"/>
	<path class="st4" d="M401,71c0,2-0.5,3.6-1.5,4.6c-1,1.1-2.4,1.6-4.3,1.6s-3.3-0.5-4.3-1.6c-1-1.1-1.5-2.6-1.5-4.6
		c0-2,0.5-3.6,1.5-4.6s2.4-1.6,4.3-1.6c1.9,0,3.3,0.5,4.3,1.6C400.5,67.5,401,69,401,71z M392.1,71c0,1.4,0.3,2.4,0.8,3.1
		c0.5,0.7,1.3,1,2.3,1c2.1,0,3.1-1.4,3.1-4.1c0-2.7-1-4.1-3.1-4.1c-1,0-1.8,0.3-2.3,1C392.4,68.7,392.1,69.7,392.1,71z"/>
	<path class="st4" d="M414.3,77.1H411l-5.3-9.2h-0.1c0.1,1.6,0.2,2.8,0.2,3.5v5.7h-2.3V65h3.2l5.3,9.1h0.1c-0.1-1.6-0.1-2.7-0.1-3.3
		V65h2.3L414.3,77.1L414.3,77.1z"/>
</g>
<g>
	<circle class="st9" cx="374.1" cy="149.8" r="52.5"/>
	<g>
		<g>
			<g>
				<g>
					<g>
						<g>
							<g>
								<g>
									<defs>
										<circle id="SVGID_19_" cx="374.1" cy="149.8" r="52.5"/>
									</defs>
									<clipPath id="SVGID_20_">
										<use xlink:href="#SVGID_19_"  style="overflow:visible;"/>
									</clipPath>
									<circle class="st28" cx="374.1" cy="149.8" r="52.5"/>
								</g>
							</g>
						</g>
					</g>
				</g>
			</g>
			<g>
				<g>
					<g>
						<g>
							<g>
								<g>
									<defs>
										<circle id="SVGID_21_" cx="374.1" cy="149.8" r="52.5"/>
									</defs>
									<clipPath id="SVGID_22_">
										<use xlink:href="#SVGID_21_"  style="overflow:visible;"/>
									</clipPath>
									<g class="st29">
										<ellipse class="st21" cx="374.1" cy="149.8" rx="35.8" ry="35.8"/>
									</g>
								</g>
							</g>
						</g>
					</g>
				</g>
			</g>
		</g>
		<g>
			<g>
				<rect x="365.6" y="116.4" class="st5" width="18.1" height="4.1"/>
				<path class="st5" d="M365.6,116.4v15.2h-4.1v-11.2C361.5,118.2,363.3,116.4,365.6,116.4L365.6,116.4z"/>
				<path class="st5" d="M387.9,120.5v11.2h-4.1v-15.2l0,0C386.1,116.4,387.9,118.2,387.9,120.5z"/>
				<path class="st30" d="M336.4,141.7v-14.1c0-1.9,1.6-3.5,3.5-3.5h68.9c1.9,0,3.5,1.6,3.5,3.5v13.1"/>
				<rect x="336.4" y="132.9" class="st31" width="76" height="17.2"/>
				<path class="st9" d="M379.4,136.3h-10.1c-0.8,0-1.5-0.7-1.5-1.5v-3.6c0-0.8,0.7-1.5,1.5-1.5h10.1c0.8,0,1.5,0.7,1.5,1.5v3.6
					C380.9,135.7,380.3,136.3,379.4,136.3z"/>
				<circle class="st31" cx="375.2" cy="155.4" r="2.1"/>
				<g>
					<path class="st32" d="M411.2,134.3c3.2-3.2,4.2-7.7,3.2-11.7c-0.1-0.4-0.6-0.5-0.9-0.2l-6.6,6.6c-0.9,0.9-2.4,0.9-3.3,0
						l-4.2-4.2c-0.9-0.9-0.9-2.4,0-3.3l6.6-6.6c0.3-0.3,0.2-0.8-0.2-0.9c-4.2-1.1-8.8,0.1-12,3.5c-3.2,3.5-4.1,8.5-2.4,12.7
						l-26.6,22.6c-3.4,2.9-3.6,8.1-0.4,11.2s8.3,3,11.2-0.4l22.6-26.6C402.5,138.7,407.7,137.8,411.2,134.3z"/>
				</g>
				<path class="st33" d="M412.4,150.1v25.4c0,1.9-1.6,3.5-3.5,3.5H340c-1.9,0-3.5-1.6-3.5-3.5v-25.4"/>
			</g>
		</g>
	</g>
</g>
<g>
	<g class="st3">
		<path class="st5" d="M945.5,302c-1,0-1.7-0.3-2.2-1c-0.5-0.7-0.8-1.6-0.8-2.8c0-1.3,0.2-2.3,0.5-3h1.2c-0.2,0.4-0.3,0.9-0.4,1.5
			s-0.2,1-0.2,1.6c0,0.8,0.2,1.5,0.5,1.9c0.3,0.4,0.8,0.6,1.3,0.6c0.4,0,0.7-0.1,0.9-0.2s0.5-0.4,0.7-0.8c0.2-0.4,0.4-0.9,0.7-1.6
			c0.4-1,0.8-1.7,1.3-2.2c0.5-0.4,1.1-0.6,1.9-0.6c0.8,0,1.5,0.3,2,0.9s0.7,1.5,0.7,2.5c0,1.1-0.2,2.1-0.6,3l-1.1-0.4
			c0.4-0.9,0.6-1.8,0.6-2.6c0-0.7-0.1-1.2-0.4-1.6c-0.3-0.4-0.7-0.6-1.2-0.6c-0.4,0-0.7,0.1-0.9,0.2s-0.5,0.4-0.7,0.7
			s-0.4,0.8-0.7,1.5c-0.4,1.1-0.8,1.9-1.3,2.4S946.2,302,945.5,302z"/>
		<path class="st5" d="M946.7,311.1c-1.3,0-2.4-0.3-3.1-1c-0.7-0.7-1.1-1.6-1.1-2.8c0-0.7,0.2-1.4,0.5-1.9c0.3-0.6,0.8-1,1.5-1.3
			s1.4-0.5,2.2-0.5c1.3,0,2.4,0.3,3.1,1c0.7,0.7,1.1,1.6,1.1,2.8c0,1.1-0.4,2-1.1,2.7S948,311.1,946.7,311.1z M946.7,304.9
			c-1,0-1.8,0.2-2.4,0.6c-0.5,0.4-0.8,1-0.8,1.8c0,0.8,0.3,1.4,0.8,1.8s1.3,0.6,2.4,0.6c1,0,1.8-0.2,2.4-0.6s0.8-1,0.8-1.9
			c0-0.8-0.3-1.4-0.8-1.8C948.5,305.1,947.7,304.9,946.7,304.9z"/>
		<path class="st5" d="M942.6,314.5v-1.2h11.6v1.2H942.6z"/>
		<path class="st5" d="M950.7,318.2h-5.3c-0.7,0-1.2,0.1-1.5,0.5s-0.5,0.8-0.5,1.4c0,0.9,0.2,1.5,0.7,1.9c0.5,0.4,1.2,0.6,2.3,0.6
			h4.3v1.2h-8.2v-1l1.1-0.2v-0.1c-0.4-0.3-0.7-0.6-0.9-1.1c-0.2-0.4-0.3-1-0.3-1.5c0-1,0.2-1.7,0.7-2.2c0.5-0.5,1.2-0.7,2.3-0.7h5.3
			L950.7,318.2L950.7,318.2z"/>
		<path class="st5" d="M943.5,329.1c0,0.2,0,0.4,0,0.6s0.1,0.4,0.1,0.5h-0.9c-0.1-0.1-0.1-0.3-0.2-0.6c0-0.3-0.1-0.5-0.1-0.7
			c0-1.6,0.8-2.4,2.5-2.4h4.8v-1.2h0.6l0.5,1.2l1.7,0.5v0.7h-1.9v2.4h-1v-2.4H945c-0.5,0-0.9,0.1-1.1,0.4S943.5,328.7,943.5,329.1z"
			/>
		<path class="st5" d="M942.6,333v-1.2h8.2v1.2H942.6z M952.9,331.7c0.3,0,0.5,0.1,0.6,0.2c0.1,0.1,0.2,0.3,0.2,0.5
			c0,0.2-0.1,0.4-0.2,0.5c-0.1,0.1-0.3,0.2-0.6,0.2c-0.3,0-0.5-0.1-0.6-0.2c-0.1-0.1-0.2-0.3-0.2-0.5c0-0.2,0.1-0.4,0.2-0.5
			C952.5,331.8,952.7,331.7,952.9,331.7z"/>
		<path class="st5" d="M946.7,342.7c-1.3,0-2.4-0.3-3.1-1c-0.7-0.7-1.1-1.6-1.1-2.8c0-0.7,0.2-1.4,0.5-1.9c0.3-0.6,0.8-1,1.5-1.3
			s1.4-0.5,2.2-0.5c1.3,0,2.4,0.3,3.1,1c0.7,0.7,1.1,1.6,1.1,2.8c0,1.1-0.4,2-1.1,2.7S948,342.7,946.7,342.7z M946.7,336.5
			c-1,0-1.8,0.2-2.4,0.6c-0.5,0.4-0.8,1-0.8,1.8c0,0.8,0.3,1.4,0.8,1.8s1.3,0.6,2.4,0.6c1,0,1.8-0.2,2.4-0.6s0.8-1,0.8-1.9
			c0-0.8-0.3-1.4-0.8-1.8C948.5,336.7,947.7,336.5,946.7,336.5z"/>
		<path class="st5" d="M942.6,350.4h5.3c0.7,0,1.2-0.2,1.5-0.5s0.5-0.8,0.5-1.4c0-0.9-0.2-1.5-0.7-1.9c-0.5-0.4-1.2-0.6-2.3-0.6
			h-4.3v-1.2h8.2v1l-1.1,0.2v0.1c0.4,0.3,0.7,0.6,0.9,1.1s0.3,1,0.3,1.5c0,1-0.2,1.7-0.7,2.2s-1.2,0.7-2.3,0.7h-5.3L942.6,350.4
			L942.6,350.4z"/>
		<path class="st5" d="M944.8,359.5c-0.8,0-1.3-0.3-1.8-0.8c-0.4-0.6-0.6-1.4-0.6-2.4c0-1.1,0.2-1.9,0.5-2.5h1.1
			c-0.2,0.4-0.4,0.8-0.5,1.3c-0.1,0.4-0.2,0.9-0.2,1.3c0,0.6,0.1,1.1,0.3,1.5c0.2,0.3,0.5,0.5,0.9,0.5c0.3,0,0.6-0.1,0.8-0.4
			s0.5-0.8,0.8-1.6c0.3-0.8,0.5-1.3,0.7-1.6c0.2-0.3,0.5-0.6,0.7-0.7s0.6-0.2,1-0.2c0.7,0,1.2,0.3,1.6,0.8c0.4,0.5,0.6,1.3,0.6,2.2
			c0,0.9-0.2,1.7-0.5,2.6l-1-0.4c0.3-0.8,0.5-1.6,0.5-2.2c0-0.6-0.1-1-0.3-1.3c-0.2-0.3-0.4-0.4-0.8-0.4c-0.2,0-0.4,0.1-0.6,0.2
			s-0.3,0.3-0.4,0.5s-0.3,0.7-0.6,1.4c-0.4,1-0.7,1.6-1.1,2C945.8,359.3,945.3,359.5,944.8,359.5z"/>
		<path class="st5" d="M942.4,368.7c0-1.2,0.4-2.1,1.1-2.7c0.7-0.6,1.8-1,3.1-1c1.4,0,2.4,0.3,3.2,1c0.7,0.7,1.1,1.6,1.1,2.8
			c0,0.4,0,0.8-0.1,1.2s-0.2,0.7-0.3,0.9l-1-0.4c0.1-0.3,0.2-0.6,0.3-0.9c0.1-0.3,0.1-0.6,0.1-0.9c0-1.7-1.1-2.5-3.2-2.5
			c-1,0-1.8,0.2-2.3,0.6c-0.5,0.4-0.8,1-0.8,1.8c0,0.7,0.1,1.4,0.4,2.1h-1.1C942.6,370.2,942.4,369.5,942.4,368.7z"/>
		<path class="st5" d="M942.6,373.9v-1.2h11.6v1.2H942.6z"/>
		<path class="st5" d="M942.6,377.8v-1.2h8.2v1.2H942.6z M952.9,376.4c0.3,0,0.5,0.1,0.6,0.2c0.1,0.1,0.2,0.3,0.2,0.5
			c0,0.2-0.1,0.4-0.2,0.5c-0.1,0.1-0.3,0.2-0.6,0.2c-0.3,0-0.5-0.1-0.6-0.2c-0.1-0.1-0.2-0.3-0.2-0.5c0-0.2,0.1-0.4,0.2-0.5
			C952.5,376.5,952.7,376.4,952.9,376.4z"/>
		<path class="st5" d="M942.4,383.8c0-1.2,0.4-2.2,1.1-2.9c0.7-0.7,1.8-1,3.1-1c1.3,0,2.4,0.3,3.1,1c0.8,0.6,1.2,1.5,1.2,2.6
			c0,1-0.3,1.8-1,2.4s-1.6,0.9-2.7,0.9h-0.8v-5.6c-1,0-1.7,0.3-2.2,0.7c-0.5,0.5-0.7,1.1-0.7,1.9c0,0.9,0.2,1.7,0.6,2.6H943
			c-0.2-0.4-0.3-0.9-0.4-1.2C942.5,384.9,942.4,384.4,942.4,383.8z M949.9,383.5c0-0.7-0.2-1.2-0.6-1.6c-0.4-0.4-1-0.6-1.8-0.7v4.3
			c0.8,0,1.4-0.2,1.8-0.5C949.6,384.6,949.9,384.1,949.9,383.5z"/>
		<path class="st5" d="M942.6,394.5h5.3c0.7,0,1.2-0.2,1.5-0.5s0.5-0.8,0.5-1.4c0-0.9-0.2-1.5-0.7-1.9c-0.5-0.4-1.2-0.6-2.3-0.6
			h-4.3v-1.2h8.2v1l-1.1,0.2v0.1c0.4,0.3,0.7,0.6,0.9,1.1s0.3,1,0.3,1.5c0,1-0.2,1.7-0.7,2.2s-1.2,0.7-2.3,0.7h-5.3L942.6,394.5
			L942.6,394.5z"/>
		<path class="st5" d="M943.5,400.9c0,0.2,0,0.4,0,0.6s0.1,0.4,0.1,0.5h-0.9c-0.1-0.1-0.1-0.3-0.2-0.6c0-0.3-0.1-0.5-0.1-0.7
			c0-1.6,0.8-2.4,2.5-2.4h4.8v-1.2h0.6l0.5,1.2l1.7,0.5v0.7h-1.9v2.4h-1v-2.4H945c-0.5,0-0.9,0.1-1.1,0.4S943.5,400.5,943.5,400.9z"
			/>
	</g>
	<g>
		<polyline class="st34" points="920,228 930.9,228 930.9,468.7 920,468.7 		"/>
	</g>
</g>
<g>
	<g>
		<path class="st5" d="M320.8,262.7c0,1.5-0.5,2.7-1.6,3.5c-1.1,0.9-2.6,1.3-4.5,1.3c-1.8,0-3.3-0.3-4.6-1v-3.2c1.1,0.5,2,0.8,2.8,1
			c0.8,0.2,1.5,0.3,2.1,0.3c0.8,0,1.3-0.1,1.8-0.4c0.4-0.3,0.6-0.7,0.6-1.3c0-0.3-0.1-0.6-0.3-0.9c-0.2-0.3-0.4-0.5-0.8-0.7
			c-0.3-0.2-1.1-0.6-2.1-1.1c-1-0.5-1.8-0.9-2.3-1.4s-0.9-0.9-1.2-1.5c-0.3-0.6-0.4-1.3-0.4-2c0-1.5,0.5-2.6,1.5-3.4
			s2.3-1.2,4.1-1.2c0.9,0,1.7,0.1,2.4,0.3c0.8,0.2,1.6,0.5,2.4,0.9l-1.1,2.7c-0.9-0.4-1.6-0.6-2.2-0.8c-0.6-0.1-1.1-0.2-1.7-0.2
			c-0.7,0-1.2,0.2-1.5,0.5c-0.4,0.3-0.5,0.7-0.5,1.2c0,0.3,0.1,0.6,0.2,0.8c0.1,0.2,0.4,0.4,0.7,0.7c0.3,0.2,1,0.6,2.2,1.2
			c1.5,0.7,2.6,1.5,3.2,2.2C320.5,260.7,320.8,261.6,320.8,262.7z"/>
		<path class="st5" d="M332.3,267.2l-0.5-1.6h-0.2c-0.4,0.6-0.9,1-1.6,1.4c-0.7,0.3-1.4,0.5-2.3,0.5c-1.5,0-2.6-0.4-3.3-1.2
			s-1.1-1.9-1.1-3.4v-8.2h3.4v7.3c0,0.9,0.2,1.6,0.5,2s0.8,0.7,1.5,0.7c1,0,1.7-0.3,2.1-1c0.4-0.6,0.6-1.7,0.6-3.2v-5.9h3.4v12.6
			H332.3z"/>
		<path class="st5" d="M345.4,254.4c0.5,0,0.8,0,1.2,0.1l-0.3,3.2c-0.3-0.1-0.6-0.1-1-0.1c-1.1,0-1.9,0.3-2.6,0.8
			c-0.6,0.6-0.9,1.3-0.9,2.4v6.4h-3.4v-12.6h2.6l0.5,2.1h0.2c0.4-0.7,0.9-1.3,1.6-1.7C343.9,254.6,344.7,254.4,345.4,254.4z"/>
		<path class="st5" d="M365.9,267.2h-3.4v-7.3c0-0.9-0.2-1.6-0.5-2c-0.3-0.5-0.8-0.7-1.4-0.7c-0.9,0-1.5,0.3-1.9,1
			c-0.4,0.6-0.6,1.7-0.6,3.2v5.9h-3.4v-12.6h2.6l0.5,1.6h0.2c0.3-0.6,0.8-1,1.5-1.4c0.6-0.3,1.4-0.5,2.2-0.5c1.9,0,3.2,0.6,3.8,1.8
			h0.3c0.3-0.6,0.8-1,1.5-1.4s1.4-0.5,2.2-0.5c1.4,0,2.5,0.4,3.2,1.1c0.7,0.7,1.1,1.9,1.1,3.5v8.2h-3.4v-7.3c0-0.9-0.2-1.6-0.5-2
			c-0.3-0.5-0.8-0.7-1.4-0.7c-0.8,0-1.5,0.3-1.9,0.9c-0.4,0.6-0.6,1.5-0.6,2.9V267.2z"/>
		<path class="st5" d="M382.8,267.4c-2,0-3.6-0.6-4.7-1.7c-1.1-1.1-1.7-2.7-1.7-4.7c0-2.1,0.5-3.7,1.6-4.9s2.5-1.7,4.4-1.7
			c1.8,0,3.2,0.5,4.1,1.5s1.5,2.4,1.5,4.2v1.7h-8.1c0,1,0.3,1.7,0.9,2.3s1.3,0.8,2.3,0.8c0.8,0,1.5-0.1,2.1-0.2s1.4-0.4,2.1-0.8v2.7
			c-0.6,0.3-1.2,0.5-1.9,0.7C384.6,267.4,383.7,267.4,382.8,267.4z M382.3,256.9c-0.7,0-1.3,0.2-1.7,0.7c-0.4,0.5-0.6,1.1-0.7,2h4.8
			c0-0.8-0.2-1.5-0.7-2C383.6,257.1,383,256.9,382.3,256.9z"/>
		<path class="st5" d="M399.3,263.5c0,1.3-0.4,2.3-1.3,2.9s-2.2,1-4,1c-0.9,0-1.7-0.1-2.3-0.2c-0.6-0.1-1.2-0.3-1.8-0.5v-2.8
			c0.6,0.3,1.4,0.6,2.2,0.8c0.8,0.2,1.5,0.3,2.1,0.3c1.2,0,1.9-0.4,1.9-1.1c0-0.3-0.1-0.5-0.2-0.7c-0.2-0.2-0.4-0.4-0.9-0.6
			c-0.4-0.2-0.9-0.5-1.6-0.7c-1-0.4-1.7-0.8-2.1-1.1c-0.5-0.3-0.8-0.7-1-1.2s-0.3-1-0.3-1.6c0-1.1,0.4-2,1.3-2.6
			c0.9-0.6,2.1-0.9,3.7-0.9c1.5,0,3,0.3,4.4,1l-1,2.5c-0.6-0.3-1.2-0.5-1.8-0.7c-0.5-0.2-1.1-0.3-1.7-0.3c-1,0-1.5,0.3-1.5,0.8
			c0,0.3,0.2,0.6,0.5,0.8c0.3,0.2,1,0.6,2.1,1c1,0.4,1.7,0.8,2.2,1.1c0.5,0.3,0.8,0.7,1,1.2C399.2,262.3,399.3,262.9,399.3,263.5z"
			/>
		<path class="st5" d="M410.8,267.2l-0.5-1.6h-0.2c-0.4,0.6-0.9,1-1.6,1.4c-0.7,0.3-1.4,0.5-2.3,0.5c-1.5,0-2.6-0.4-3.3-1.2
			s-1.1-1.9-1.1-3.4v-8.2h3.4v7.3c0,0.9,0.2,1.6,0.5,2s0.8,0.7,1.5,0.7c1,0,1.7-0.3,2.1-1c0.4-0.6,0.6-1.7,0.6-3.2v-5.9h3.4v12.6
			H410.8z"/>
		<path class="st5" d="M423.9,254.4c0.5,0,0.8,0,1.2,0.1l-0.3,3.2c-0.3-0.1-0.6-0.1-1-0.1c-1.1,0-1.9,0.3-2.6,0.8
			c-0.6,0.6-0.9,1.3-0.9,2.4v6.4h-3.4v-12.6h2.6l0.5,2.1h0.2c0.4-0.7,0.9-1.3,1.6-1.7C422.4,254.6,423.1,254.4,423.9,254.4z"/>
		<path class="st5" d="M432.9,267.4c-2,0-3.6-0.6-4.7-1.7c-1.1-1.1-1.7-2.7-1.7-4.7c0-2.1,0.5-3.7,1.6-4.9s2.5-1.7,4.4-1.7
			c1.8,0,3.2,0.5,4.1,1.5s1.5,2.4,1.5,4.2v1.7h-8.1c0,1,0.3,1.7,0.9,2.3s1.3,0.8,2.3,0.8c0.8,0,1.5-0.1,2.1-0.2s1.4-0.4,2.1-0.8v2.7
			c-0.6,0.3-1.2,0.5-1.9,0.7C434.7,267.4,433.9,267.4,432.9,267.4z M432.4,256.9c-0.7,0-1.3,0.2-1.7,0.7c-0.4,0.5-0.6,1.1-0.7,2h4.8
			c0-0.8-0.2-1.5-0.7-2C433.7,257.1,433.1,256.9,432.4,256.9z"/>
	</g>
</g>
<g>
	<g>
		<path class="st5" d="M98,262.7c0,1.5-0.5,2.7-1.6,3.5c-1.1,0.9-2.6,1.3-4.5,1.3c-1.8,0-3.3-0.3-4.6-1v-3.2c1.1,0.5,2,0.8,2.8,1
			c0.8,0.2,1.5,0.3,2.1,0.3c0.8,0,1.3-0.1,1.8-0.4c0.4-0.3,0.6-0.7,0.6-1.3c0-0.3-0.1-0.6-0.3-0.9c-0.2-0.3-0.4-0.5-0.8-0.7
			c-0.3-0.2-1.1-0.6-2.1-1.1c-1-0.5-1.8-0.9-2.3-1.4s-0.9-0.9-1.2-1.5c-0.3-0.6-0.4-1.3-0.4-2c0-1.5,0.5-2.6,1.5-3.4
			s2.3-1.2,4.1-1.2c0.9,0,1.7,0.1,2.4,0.3c0.8,0.2,1.6,0.5,2.4,0.9l-1.1,2.7c-0.9-0.4-1.6-0.6-2.2-0.8c-0.6-0.1-1.1-0.2-1.7-0.2
			c-0.7,0-1.2,0.2-1.5,0.5c-0.4,0.3-0.5,0.7-0.5,1.2c0,0.3,0.1,0.6,0.2,0.8c0.1,0.2,0.4,0.4,0.7,0.7c0.3,0.2,1,0.6,2.2,1.2
			c1.5,0.7,2.6,1.5,3.2,2.2C97.7,260.7,98,261.6,98,262.7z"/>
		<path class="st5" d="M109.5,267.2l-0.5-1.6h-0.2c-0.4,0.6-0.9,1-1.6,1.4c-0.7,0.3-1.4,0.5-2.3,0.5c-1.5,0-2.6-0.4-3.3-1.2
			s-1.1-1.9-1.1-3.4v-8.2h3.4v7.3c0,0.9,0.2,1.6,0.5,2s0.8,0.7,1.5,0.7c1,0,1.7-0.3,2.1-1c0.4-0.6,0.6-1.7,0.6-3.2v-5.9h3.4v12.6
			H109.5z"/>
		<path class="st5" d="M122.6,254.4c0.5,0,0.8,0,1.2,0.1l-0.3,3.2c-0.3-0.1-0.6-0.1-1-0.1c-1.1,0-1.9,0.3-2.6,0.8
			c-0.6,0.6-0.9,1.3-0.9,2.4v6.4h-3.4v-12.6h2.6l0.5,2.1h0.2c0.4-0.7,0.9-1.3,1.6-1.7C121.1,254.6,121.8,254.4,122.6,254.4z"/>
		<path class="st5" d="M143,267.2h-3.4v-7.3c0-0.9-0.2-1.6-0.5-2c-0.3-0.5-0.8-0.7-1.4-0.7c-0.9,0-1.5,0.3-1.9,1
			c-0.4,0.6-0.6,1.7-0.6,3.2v5.9h-3.4v-12.6h2.6l0.5,1.6h0.2c0.3-0.6,0.8-1,1.5-1.4c0.6-0.3,1.4-0.5,2.2-0.5c1.9,0,3.2,0.6,3.8,1.8
			h0.3c0.3-0.6,0.8-1,1.5-1.4s1.4-0.5,2.2-0.5c1.4,0,2.5,0.4,3.2,1.1c0.7,0.7,1.1,1.9,1.1,3.5v8.2h-3.4v-7.3c0-0.9-0.2-1.6-0.5-2
			c-0.3-0.5-0.8-0.7-1.4-0.7c-0.8,0-1.5,0.3-1.9,0.9c-0.4,0.6-0.6,1.5-0.6,2.9V267.2z"/>
		<path class="st5" d="M159.9,267.4c-2,0-3.6-0.6-4.7-1.7c-1.1-1.1-1.7-2.7-1.7-4.7c0-2.1,0.5-3.7,1.6-4.9s2.5-1.7,4.4-1.7
			c1.8,0,3.2,0.5,4.1,1.5s1.5,2.4,1.5,4.2v1.7H157c0,1,0.3,1.7,0.9,2.3s1.3,0.8,2.3,0.8c0.8,0,1.5-0.1,2.1-0.2s1.4-0.4,2.1-0.8v2.7
			c-0.6,0.3-1.2,0.5-1.9,0.7C161.7,267.4,160.9,267.4,159.9,267.4z M159.4,256.9c-0.7,0-1.3,0.2-1.7,0.7c-0.4,0.5-0.6,1.1-0.7,2h4.8
			c0-0.8-0.2-1.5-0.7-2C160.8,257.1,160.2,256.9,159.4,256.9z"/>
		<path class="st5" d="M176.5,263.5c0,1.3-0.4,2.3-1.3,2.9s-2.2,1-4,1c-0.9,0-1.7-0.1-2.3-0.2c-0.6-0.1-1.2-0.3-1.8-0.5v-2.8
			c0.6,0.3,1.4,0.6,2.2,0.8c0.8,0.2,1.5,0.3,2.1,0.3c1.2,0,1.9-0.4,1.9-1.1c0-0.3-0.1-0.5-0.2-0.7c-0.2-0.2-0.4-0.4-0.9-0.6
			c-0.4-0.2-0.9-0.5-1.6-0.7c-1-0.4-1.7-0.8-2.1-1.1c-0.5-0.3-0.8-0.7-1-1.2s-0.3-1-0.3-1.6c0-1.1,0.4-2,1.3-2.6
			c0.9-0.6,2.1-0.9,3.7-0.9c1.5,0,3,0.3,4.4,1l-1,2.5c-0.6-0.3-1.2-0.5-1.8-0.7c-0.5-0.2-1.1-0.3-1.7-0.3c-1,0-1.5,0.3-1.5,0.8
			c0,0.3,0.2,0.6,0.5,0.8c0.3,0.2,1,0.6,2.1,1c1,0.4,1.7,0.8,2.2,1.1c0.5,0.3,0.8,0.7,1,1.2C176.4,262.3,176.5,262.9,176.5,263.5z"
			/>
		<path class="st5" d="M187.9,267.2l-0.5-1.6h-0.2c-0.4,0.6-0.9,1-1.6,1.4c-0.7,0.3-1.4,0.5-2.3,0.5c-1.5,0-2.6-0.4-3.3-1.2
			s-1.1-1.9-1.1-3.4v-8.2h3.4v7.3c0,0.9,0.2,1.6,0.5,2s0.8,0.7,1.5,0.7c1,0,1.7-0.3,2.1-1c0.4-0.6,0.6-1.7,0.6-3.2v-5.9h3.4v12.6
			H187.9z"/>
		<path class="st5" d="M201,254.4c0.5,0,0.8,0,1.2,0.1l-0.3,3.2c-0.3-0.1-0.6-0.1-1-0.1c-1.1,0-1.9,0.3-2.6,0.8
			c-0.6,0.6-0.9,1.3-0.9,2.4v6.4H194v-12.6h2.6l0.5,2.1h0.2c0.4-0.7,0.9-1.3,1.6-1.7C199.6,254.6,200.3,254.4,201,254.4z"/>
		<path class="st5" d="M210.1,267.4c-2,0-3.6-0.6-4.7-1.7c-1.1-1.1-1.7-2.7-1.7-4.7c0-2.1,0.5-3.7,1.6-4.9s2.5-1.7,4.4-1.7
			c1.8,0,3.2,0.5,4.1,1.5s1.5,2.4,1.5,4.2v1.7h-8.1c0,1,0.3,1.7,0.9,2.3s1.3,0.8,2.3,0.8c0.8,0,1.5-0.1,2.1-0.2s1.4-0.4,2.1-0.8v2.7
			c-0.6,0.3-1.2,0.5-1.9,0.7C211.9,267.4,211,267.4,210.1,267.4z M209.6,256.9c-0.7,0-1.3,0.2-1.7,0.7c-0.4,0.5-0.6,1.1-0.7,2h4.8
			c0-0.8-0.2-1.5-0.7-2C210.9,257.1,210.3,256.9,209.6,256.9z"/>
	</g>
</g>
</svg>
