<?xml version="1.0" encoding="utf-8"?>
<!-- Generator: Adobe Illustrator 24.1.3, SVG Export Plug-In . SVG Version: 6.00 Build 0)  -->
<svg version="1.1" id="Layer_1" xmlns="http://www.w3.org/2000/svg" xmlns:xlink="http://www.w3.org/1999/xlink" x="0px" y="0px"
	 viewBox="0 0 389.5 357.1" enable-background="new 0 0 389.5 357.1" xml:space="preserve">
<g>
	<polygon id="Fill-10_20_" fill-rule="evenodd" clip-rule="evenodd" fill="#FFE07F" points="140.1,357.1 232.7,310 140.1,264.5 	"/>
	<polygon id="Fill-10_19_" fill-rule="evenodd" clip-rule="evenodd" fill="#A1D3EF" points="47.6,357.1 140.1,310 47.6,264.5 	"/>
	<polygon id="Fill-10_18_" fill-rule="evenodd" clip-rule="evenodd" fill="#A1D3EF" points="232.7,92.5 325.2,45.4 232.7,0 	"/>
	<polygon id="Fill-10_17_" fill-rule="evenodd" clip-rule="evenodd" fill="#FFE07F" points="140.1,92.5 232.7,45.4 140.1,0 	"/>
	<path fill="#002F49" d="M232.7,265H107.3V142.7c0-34.7,28-62.7,62.7-62.7l0,0c34.7,0,62.7,28,62.7,62.7V265z"/>
	<path fill="#FFFFFF" d="M253.9,194.2c0-21.3-17.3-38.5-38.5-38.5c-2.5,0-5,0.2-7.4,0.7c0.7-2.7,1.1-5.3,1.1-8.2
		c0-17.9-14.5-32.3-32.3-32.3c-7.9,0-15.1,2.9-20.8,7.6C148.5,98.4,125.2,80,97.7,80c-33.6,0-60.9,27.3-60.9,60.9
		c0,2.5,0.1,5.2,0.5,7.6C16.3,151,0,168.9,0,190.5c0,23.3,19,42.3,42.3,42.3h180.1C239.8,229.2,253.9,212.8,253.9,194.2z"/>
	<rect x="28.3" y="252.3" fill="#002F49" width="204.4" height="12.7"/>
	<rect x="232.7" y="265" fill="#002F49" width="20.3" height="91.4"/>
	<linearGradient id="SVGID_1_" gradientUnits="userSpaceOnUse" x1="170" y1="172.5" x2="389.5001" y2="172.5">
		<stop  offset="0" style="stop-color:#C1C6C8"/>
		<stop  offset="0.165" style="stop-color:#CACED0"/>
		<stop  offset="0.6789" style="stop-color:#E1E4E5"/>
		<stop  offset="1" style="stop-color:#EAECED"/>
	</linearGradient>
	<path fill="url(#SVGID_1_)" d="M326.8,80c-0.034,0-0.066,0.002-0.1,0.003V80H170c34.7,0,62.7,28,62.7,62.7V265h31.4h62.6h62.8h0
		V142.7C389.5,108,361.5,80,326.8,80z"/>
	<polygon id="Fill-10_7_" fill-rule="evenodd" clip-rule="evenodd" fill="#D93963" points="329.7,76.2 389.5,45.7 329.7,16.3 	"/>
	<circle fill="#002F49" cx="328.9" cy="138" r="14.9"/>
	
		<line fill="none" stroke="#002F49" stroke-width="14.4957" stroke-linecap="round" stroke-miterlimit="10" x1="329.7" y1="138" x2="329.7" y2="16.5"/>
</g>
</svg>
