<?xml version="1.0" encoding="utf-8"?>
<!-- Generator: Adobe Illustrator 24.1.2, SVG Export Plug-In . SVG Version: 6.00 Build 0)  -->
<svg version="1.1" id="Layer_1" xmlns="http://www.w3.org/2000/svg" xmlns:xlink="http://www.w3.org/1999/xlink" x="0px" y="0px"
	 viewBox="0 0 656.426 399.236" enable-background="new 0 0 656.426 399.236" xml:space="preserve">
<g>
	<g>
		<circle fill="#D93963" cx="237.878" cy="142.158" r="85.065"/>
		<circle fill="#81AA43" cx="237.878" cy="142.158" r="58.27"/>
		<circle fill="#025D91" cx="237.878" cy="142.158" r="35.031"/>
		<circle fill="#FFE07F" cx="237.878" cy="142.158" r="16.739"/>
	</g>
	<path fill="#025D91" d="M493.62,120.702c0,21.25,17.317,38.567,38.567,38.567c21.154,0,35.401-16.118,42.596-26.91
		c1.631,2.59,3.646,5.468,6.092,8.395c10.217,12.136,23.025,18.516,36.984,18.516c21.25,0,38.567-17.317,38.567-38.567
		s-17.317-38.567-38.567-38.567c-21.106,0-35.401,16.118-42.596,26.91c-1.631-2.59-3.646-5.468-6.092-8.395
		c-10.217-12.136-23.025-18.516-36.984-18.516C510.937,82.136,493.62,99.452,493.62,120.702z M580.971,121.134l0.144-0.288
		l-0.096-0.288c3.933-7.099,16.885-27.534,36.84-27.534c15.254,0,27.678,12.424,27.678,27.678s-12.424,27.678-27.678,27.678
		C596.369,148.38,584.521,128.233,580.971,121.134z M504.557,120.702c0-15.254,12.424-27.678,27.678-27.678
		c21.49,0,33.338,20.147,36.84,27.246l-0.144,0.288l0.096,0.288c-3.933,7.099-16.885,27.534-36.84,27.534
		C516.933,148.38,504.509,135.956,504.557,120.702z"/>
	<g>
		<linearGradient id="SVGID_1_" gradientUnits="userSpaceOnUse" x1="67.943" y1="203.134" x2="508.748" y2="203.134">
			<stop  offset="0" style="stop-color:#C1C6C8"/>
			<stop  offset="0.165" style="stop-color:#CACED0"/>
			<stop  offset="0.6789" style="stop-color:#E1E4E5"/>
			<stop  offset="1" style="stop-color:#EAECED"/>
		</linearGradient>
		<path fill="url(#SVGID_1_)" d="M67.943,268.916c0-36.987,29.964-66.952,66.952-66.952c4.448,0,8.662,0.468,12.875,1.17
			c-1.17-4.448-1.873-9.364-1.873-14.28c0-30.901,25.048-55.949,55.949-55.949c13.812,0,26.219,4.916,36.051,13.109
			c12.875-43.776,53.374-75.613,101.364-75.613c58.29,0,105.812,47.288,105.812,105.812c0,4.448-0.234,8.896-0.936,13.344
			c36.285,4.214,64.611,35.115,64.611,72.804c0,40.499-32.774,73.506-73.506,73.506h-312.52
			C92.523,329.313,67.943,300.988,67.943,268.916z"/>
		<g>
			<g id="humaaans_x2F_sitting-1_1_">
				
					<g id="A-Human_x2F_Sitting_1_" transform="translate(190.000000, 200.500000) scale(-1, 1) translate(-190.000000, -200.500000) translate(40.000000, 24.000000)">
					<g id="Head_x2F_Front_x2F_Airy_1_" transform="translate(82.000000, 0.000000)">
						<g id="Head_2_" transform="translate(54.000000, 31.000000)">
							<path fill-rule="evenodd" clip-rule="evenodd" fill="#B28B67" d="M-209.053-6.754c4.307-5.055,7.221-11.25,6.734-18.192
								c-1.403-20.001-29.245-15.601-34.661-5.506s-4.772,35.701,2.227,37.505c2.791,0.72,8.738-1.043,14.79-4.691l-3.799,26.875
								h22.43L-209.053-6.754z"/>
						</g>
					</g>
					<g id="Bottom_x2F_Sitting_x2F_Sweat-Pants_1_" transform="translate(0.000000, 187.000000)">
						<path id="Skin_3_" fill-rule="evenodd" clip-rule="evenodd" fill="#B28B67" d="M-203.357,99.511
							c9.955-60.987,18.24-101.364,22.986-113.653c3.136-8.119,26.857-7.168,24.128,9.169c-1.144,6.851-5.672,25.197-11.624,46.045
							c-3.476,12.176-12.136,35.254-24.111,61.758L-203.357,99.511z M-56.514,30.831c-4.203-0.578-53.315-5.726-87.958-10.712
							c-13.911-2.002-6.428-28.058,8.016-25.301c4.859,0.928,10.028,1.954,15.36,3.059c18.557,3.845,57.032,17.436,68.019,21.778
							C-46.172,22.384-50.624,31.641-56.514,30.831z"/>
						<path id="Leg-Back_1_" fill-rule="evenodd" clip-rule="evenodd" fill="#252728" d="M-145.321-12.353l59.429-30.253v-6.586
							h-7.068c-57.494,14.651-86.874,24.039-88.139,28.167c-0.014,0.044-0.026,0.089-0.037,0.133
							c-0.029,0.038-0.057,0.076-0.085,0.115c-11.394,15.67-18.218,92.174-20.458,97.902l21.834,3.257
							c8.352-30.971,35.073-52.546,34.364-89.64C-145.29-10.345-145.242-11.377-145.321-12.353z"/>
						<path id="Leg-Front_1_" fill-rule="evenodd" clip-rule="evenodd" fill="#252728" d="M-90.83,5.614
							c5.438-1.088,10.445-2.06,14.73-2.811c27.677-4.854,35.747-19.67,30.976-51.994h-50.994
							c-8.33,2.393-51.62,20.547-74.081,30.203c-14.866,6.391-10.18,29.429-1.761,35.424c0.046,0.368,0.197,0.618,0.467,0.729
							c45.285,18.769,81.11,8.921,93.078,12.068l5.536-17.462L-90.83,5.614z"/>
						
							<g id="Accessories_x2F_Shoe_x2F_Flat-Sneaker_3_" transform="translate(143.959294, 93.331820) rotate(64.000000) translate(-143.959294, -93.331820) translate(113.459294, 73.331820)">
							<path id="shoe_3_" fill-rule="evenodd" clip-rule="evenodd" fill="#252728" d="M-126.237,166.957
								c1.556-2.542,2.88-4.24,3.972-5.093c1.328-1.038,3.439-2.33,6.333-3.879c1.204,1.541,12.022,15.387,32.453,41.538
								c-2.725,3.868-5.139,4.75-7.24,2.646c-2.102-2.103-3.868-3.835-5.299-5.194l-23.691-12.582
								c-0.456-0.242-0.629-0.808-0.387-1.264c0.004-0.008,0.008-0.016,0.013-0.023l2.041-3.593
								c-0.678-2.938-1.542-5.08-2.594-6.426c-0.854-1.094-2.476-2.259-4.865-3.496l0,0c-0.917-0.475-1.275-1.603-0.801-2.519
								C-126.282,167.034-126.26,166.995-126.237,166.957z"/>
						</g>
						<g id="Accessories_x2F_Shoe_x2F_Flat-Sneaker_2_" transform="translate(263.000000, 132.000000)">
							<path id="shoe_2_" fill-rule="evenodd" clip-rule="evenodd" fill="#252728" d="M-449.528-34.083
								c1.046,2.791,1.568,4.88,1.568,6.265c0,1.685-0.281,4.145-0.842,7.378c-1.955,0-19.526,0-52.713,0
								c-1.37-4.529-0.579-6.973,2.372-7.335c2.951-0.361,5.403-0.687,7.355-0.978l24.501-10.922
								c0.471-0.21,1.024,0.002,1.234,0.473c0.004,0.008,0.007,0.016,0.01,0.024l1.575,3.82c2.732,1.275,4.952,1.912,6.66,1.912
								c1.388,0,3.304-0.561,5.75-1.682l0,0c0.938-0.43,2.048-0.018,2.478,0.92C-449.561-34.166-449.544-34.125-449.528-34.083z"/>
						</g>
					</g>
					<g id="Body_x2F_Jacket-2_1_" transform="translate(22.000000, 82.000000)">
						<path id="Skin_2_" fill-rule="evenodd" clip-rule="evenodd" fill="#B28B67" d="M-171.029,45.014l-30.669-20.674
							c-8.167-1.855-15.026-4.295-20.577-7.322c-1.327-1.115-2.97-3.416,2.357-3.221c5.327,0.195,10.938,0.16,11.598-1.681
							s-2.641-3.877-1.258-6.381c0.922-1.669,5.751,2.228,14.488,11.692l29.99,11.044L-171.029,45.014z M-5.696,90.593
							c1.832,2.41,13.131,8.616,20.779,11.931c3.07,1.33,2.411,3.924,1.51,4.754c-7.323,6.75-13.982,1.745-21.835-0.205
							c-8.604-2.137-5.923,8.097-12.722,6.514c1.084-4.677,4.018-13.557,0.873-18.403c-1.398-2.154-11.726-21.177-30.987-57.071
							l19.152-3.8C-15.938,68.547-8.195,87.307-5.696,90.593z"/>
						<path id="Coat-Back_1_" fill-rule="evenodd" clip-rule="evenodd" fill="#D93963" d="M-100.131-37.341l-8.082-1.386
							c-17.602,17.075-24.786,58.098-36.517,63.528c-11.091,5.134-26.813,0.166-45.502-6.542l-5.723,12.787
							c16.98,18.37,53.155,33.891,67.818,25.031C-104.693,41.911-99.281-8.684-100.131-37.341z"/>
						<path id="Shirt_1_" fill-rule="evenodd" clip-rule="evenodd" fill="#FFFFFF" d="M-64.901,64.22c-32.404,0-56.24,0-71.508,0
							c-3.268,0-2.652-4.718-2.179-7.099c5.451-27.478,26.732-57.097,26.732-96.211l20.626-3.234
							C-74.17-14.886-68.27,18.896-64.901,64.22z"/>
						<path id="Coat-Front_1_" fill-rule="evenodd" clip-rule="evenodd" fill="#D93963" d="M-57.769,36.4
							c14.577,26.295,26.83,45.226,36.759,56.793l14.989-2.936C-15.676,30.379-43.636-13.815-89.9-42.324h-0.235h-7.931
							c-18.517,63.12-23.622,105.177-15.314,126.171h64.368C-50.031,68.485-53.296,52.24-57.769,36.4z"/>
					</g>
				</g>
			</g>
			<path id="hair_2_" fill-rule="evenodd" clip-rule="evenodd" fill="#252728" d="M449.336,9.941
				c-0.443-1.556-1.633-2.888-3.238-3.284c-0.389-0.096-0.791-0.135-1.191-0.118c-0.144,0.006-0.184,0.047-0.251-0.053
				c-0.05-0.074-0.051-0.256-0.071-0.344c-0.064-0.272-0.144-0.541-0.242-0.803c-0.336-0.893-0.9-1.683-1.58-2.349
				c-1.272-1.245-2.991-2.105-4.777-2.26c-0.978-0.085-1.948,0.074-2.872,0.392c-0.478,0.165-0.942,0.37-1.394,0.596
				c-0.136,0.068-0.577,0.402-0.714,0.381c-0.151-0.024-0.454-0.399-0.576-0.493c-1.516-1.163-3.387-1.62-5.275-1.606
				c-2.131,0.016-4.182,0.122-5.959,1.421c-0.376,0.275-0.734,0.576-1.076,0.893c-0.18,0.167-0.354,0.34-0.52,0.52
				c-0.1,0.109-0.198,0.22-0.291,0.334c-0.159,0.194-0.134,0.258-0.357,0.122c-0.855-0.52-1.846-0.763-2.844-0.64
				c-0.593,0.073-1.169,0.251-1.717,0.485c-0.186,0.08-0.618,0.398-0.817,0.401c-0.197,0.003-0.623-0.292-0.826-0.367
				c-1.097-0.405-2.279-0.505-3.432-0.318c-1.189,0.193-2.357,0.667-3.365,1.323c-0.485,0.315-0.907,0.665-1.247,1.134
				c-0.147,0.202-0.279,0.417-0.445,0.604c-0.097,0.11-0.29,0.223-0.342,0.362c0.031-0.083-1.3-0.597-1.426-0.629
				c-0.669-0.175-1.351-0.139-2.007,0.076c-1.233,0.406-2.293,1.315-3.164,2.248c-0.448,0.479-0.839,1.009-1.172,1.573
				c-0.159,0.27-0.305,0.548-0.438,0.832c-0.065,0.138-0.107,0.31-0.192,0.433c-0.11,0.16-0.183,0.163-0.382,0.232
				c-1.009,0.353-1.929,0.952-2.629,1.76c-0.708,0.818-1.168,1.825-1.361,2.886c-0.011,0.062-0.018,0.321-0.055,0.355
				c-0.05,0.047-0.253,0.026-0.33,0.035c-0.266,0.031-0.53,0.078-0.79,0.139c-0.48,0.114-0.947,0.281-1.389,0.499
				c-1.723,0.852-2.955,2.45-3.558,4.248c-0.633,1.887-0.621,4.049,0.135,5.901c0.122,0.299,0.267,0.589,0.438,0.864
				c0.105,0.169,0.139,0.169,0.071,0.346c-0.076,0.197-0.214,0.388-0.305,0.58c-0.294,0.628-0.499,1.293-0.629,1.973
				c-0.213,1.115-0.318,2.287-0.108,3.41c0.098,0.522,0.267,1.032,0.527,1.496c0.132,0.237,0.287,0.462,0.461,0.669
				c0.091,0.108,0.187,0.211,0.288,0.31c0.058,0.056,0.133,0.106,0.182,0.169c0.12,0.154,0.145,0.027,0.083,0.253
				c-0.086,0.315-0.282,0.627-0.401,0.933c-0.123,0.316-0.235,0.637-0.337,0.961c-0.206,0.656-0.381,1.323-0.49,2.002
				c-0.21,1.303-0.173,2.692,0.444,3.888c0.264,0.512,0.642,0.961,1.1,1.31c0.224,0.171,0.468,0.318,0.723,0.439
				c0.131,0.062,0.298,0.089,0.358,0.216c0.064,0.136-0.031,0.407-0.053,0.559c-0.19,1.326-0.285,2.718,0.109,4.017
				c0.363,1.197,1.162,2.253,2.2,2.952c2.013,1.357,4.726,1.28,6.841,0.194c0.551-0.283,1.067-0.635,1.527-1.049
				c1.172,1.577,3.582,1.527,5.295,1.078c2.133-0.56,3.845-2.043,4.831-3.992c1.349,1.642,4.179,1.109,5.114-0.672
				c0.229-0.436,0.365-0.916,0.431-1.402c0.035-0.256,0.013-0.513,0.039-0.767c0.034-0.323,0.25-0.637,0.374-0.95
				c0.242-0.608,0.392-1.237,0.398-1.893c0.003-0.343-0.04-0.677-0.073-1.016c-0.029-0.306,0.056-0.591,0.104-0.893
				c-0.547,0.09-1.214-0.057-1.729-0.216c-0.506-0.156-0.98-0.566-1.337-0.94c-0.829-0.87-1.335-2.009-1.682-3.144
				c-0.76-2.49-0.449-5.477,2.056-6.844c1.167-0.637,4.662-0.634,6.051-0.32c1.461,0.331,3.117,3.555,3.199,3.858
				c0.05,0.188,0.025,0.42,0.197,0.545c0.379,0.275,1.003-0.202,1.282-0.437c0.482-0.406,0.826-0.947,1.123-1.494
				c0.649-1.193,1.172-2.473,1.541-3.78c0.285-1.007,0.467-2.046,0.839-3.027c0.37-0.977,0.954-1.85,1.862-2.403
				c0.988-0.602,2.12-0.919,3.204-1.297c1.075-0.375,2.131-0.833,2.964-1.628c0.183-0.175,0.361-0.361,0.509-0.567
				c0.116-0.163,0.231-0.474,0.409-0.577c0.276-0.16,0.678,0.257,0.916,0.408c1.176,0.747,2.157,1.789,2.949,2.927
				c0.787,1.132,1.433,2.221,1.958,3.485c0.389,0.937,0.632,2.138,1.317,2.906c0.306,0.343,2.578,0.551,3.313,0.251
				c0.736-0.299,1.561-1.077,1.808-1.564c0.253-0.499,0.313-1.047,0.205-1.593c-0.064-0.321-0.193-0.621-0.264-0.937
				c-0.06-0.265-0.114-0.516-0.243-0.758c-0.245-0.46-0.662-0.791-1.166-0.929c0.524-0.483,0.959-1.062,1.259-1.708
				c0.312-0.672,0.577-1.488,0.652-2.225c0.061-0.599-0.033-1.219-0.361-1.733c-0.344-0.54-0.953-0.892-1.48-1.228
				c0.805-0.63,1.494-1.396,2.06-2.244C449.214,13.986,449.896,11.907,449.336,9.941z"/>
		</g>
	</g>
	<g>
		<g>
			<path fill="#FFFFFF" d="M390.576,151.951l-24.809,6.775l2.107-29.742c0.212-2.989,4.07-4.043,5.772-1.576L390.576,151.951z"/>
			<path fill="#62B5E5" d="M169.873,279.911c29.427-25.465-30.295-122.97-87.993-78.945C42.331,231.142,34.274,321.048,0,296.145
				c0,0,47.215,64.212,107.445-31.883C138.86,214.14,169.873,279.911,169.873,279.911z"/>
			<path fill="#FFFFFF" d="M318.546,239.722c-29.681-2.495-67.837,1.892-119.446-2.928c-44.475-4.154-85.422,59.794-17.374,95.266
				s191.861-1.679,182.261-77.453"/>
			<path fill="#62B5E5" d="M359.371,151.701c-18.078-23.803-112.743-7.58-98.963,79.74c14.158,89.71,141.107,47.953,110.859,0.274
				c0,0-3.805,24.6-33.929,19.089c-29.562-5.409-14.221-42.323,6.448-59.844C365.553,172.509,359.371,151.701,359.371,151.701z"/>
			<path fill="#FFFFFF" d="M347.518,160.428c0,0-31.511,15.754-25.586,78.798l41.824,28.404l-1.028-62.519L347.518,160.428z"/>
			<path fill="#62B5E5" d="M375.766,243.35c0.941,14.972-10.433,27.872-25.405,28.813c-14.972,0.941-27.872-10.433-28.813-25.405
				c-0.941-14.972,10.433-27.872,25.405-28.813C361.925,217.003,374.824,228.378,375.766,243.35z"/>
			<circle fill="#FFFFFF" cx="367.917" cy="178.415" r="27.197"/>
			<path fill="#FFFFFF" d="M430.57,194.174c-6.181,7.01-16.875,7.682-23.885,1.501s-7.682-16.875-1.501-23.885
				s16.875-7.682,23.885-1.501S436.751,187.164,430.57,194.174z"/>
			<polygon fill="#FFFFFF" points="382.316,201.495 408.799,188.1 421.155,166.377 377.672,153.022 			"/>
			<path fill="#FFE07F" d="M385.357,157.494l-17.827-12.016l39.779-42.753c1.317-1.273,3.437,0.156,2.751,1.854L385.357,157.494z"/>
			<path fill="#62B5E5" d="M359.322,150.922c0,0,15.806-28.173,34.192-4.249c7.858,10.225,11.346,3.846,11.346,3.846
				s3.401,5.157,0.77,9.595s-9.807,10.473-26.194-3.097C374.512,152.939,359.322,150.922,359.322,150.922z"/>
			<path fill="#4B4F54" d="M425.472,181.239c0.159,2.524-0.895,4.644-2.354,4.736s-2.77-1.88-2.928-4.404
				c-0.159-2.524,0.895-4.644,2.354-4.736S425.314,178.715,425.472,181.239z"/>
			<path fill="#4B4F54" d="M379.552,171.244c0.209,3.324-2.316,6.188-5.64,6.397s-6.188-2.316-6.397-5.64s2.316-6.188,5.64-6.397
				C376.479,165.394,379.343,167.92,379.552,171.244z"/>
			<path fill="#FFFFFF" d="M372.28,160.15l-24.21,8.677l-0.204-29.816c-0.02-2.997,3.744-4.346,5.632-2.019L372.28,160.15z"/>
			<path fill="#FFFFFF" d="M339.486,399.236h-15.851c-3.027,0-5.48-2.454-5.48-5.48V292.232c0-3.027,2.454-5.48,5.48-5.48h15.851
				c3.027,0,5.48,2.454,5.48,5.48v101.523C344.967,396.782,342.513,399.236,339.486,399.236z"/>
			<path fill="#FFFFFF" d="M300.356,399.236h-15.851c-3.027,0-5.48-2.454-5.48-5.48V292.232c0-3.027,2.454-5.48,5.48-5.48h15.851
				c3.027,0,5.48,2.454,5.48,5.48v101.523C305.836,396.782,303.383,399.236,300.356,399.236z"/>
			<path fill="#FFFFFF" d="M223.847,399.236h-15.851c-3.027,0-5.48-2.454-5.48-5.48V292.232c0-3.027,2.454-5.48,5.48-5.48h15.851
				c3.027,0,5.48,2.454,5.48,5.48v101.523C229.327,396.782,226.873,399.236,223.847,399.236z"/>
			<path fill="#FFFFFF" d="M184.716,399.236h-15.851c-3.027,0-5.48-2.454-5.48-5.48V292.232c0-3.027,2.454-5.48,5.48-5.48h15.851
				c3.027,0,5.48,2.454,5.48,5.48v101.523C190.197,396.782,187.743,399.236,184.716,399.236z"/>
		</g>
	</g>
	<g>
		<g>
			<g>
				<path fill="#252728" d="M509.219,67.684v6.643c0,0.848,0,1.131,8.339,4.382h0.283l1.131,2.827v0.424
					c-3.816,7.915-3.534,8.198-2.968,8.763l4.806,4.664c0.141,0.141,0.565,0.283,0.848,0.283c0.707,0,3.392-0.989,8.198-2.968
					l0.283-0.141l2.827,1.131l0.141,0.283c3.11,8.198,3.392,8.198,4.24,8.198h6.643c0.848,0,1.272,0,4.523-8.198l0.141-0.283
					l2.968-1.131l0.283,0.141c6.926,3.251,7.774,3.251,8.057,3.251s0.707-0.141,0.848-0.283l4.806-4.664
					c0.707-0.565,0.848-0.848-2.686-8.905l-0.141-0.283l1.131-2.827l0.283-0.141c8.481-3.11,8.481-3.392,8.481-4.24v-6.643
					c0-0.848,0-1.131-8.481-4.382l-0.283-0.141l-1.131-2.827l0.141-0.283c3.816-7.915,3.534-8.198,2.968-8.763l-4.806-4.664
					c-0.141-0.141-0.565-0.283-0.848-0.283c-0.848,0-3.534,0.989-8.339,2.968l-0.283,0.141l-2.827-1.131l-0.141-0.283
					c-3.11-8.198-3.392-8.198-4.24-8.198h-6.643c-0.848,0-1.272,0-4.523,8.198l-0.141,0.283l-2.968,1.131l-0.283-0.141
					c-6.926-3.251-7.774-3.251-8.057-3.251s-0.707,0.141-0.848,0.283l-4.806,4.664c-0.707,0.565-0.848,0.848,2.686,8.905
					l0.141,0.283l-1.131,2.827l-0.283,0.141C509.219,66.412,509.219,66.836,509.219,67.684z M529.997,71.076
					c0-5.937,4.806-10.742,10.884-10.742c5.937,0,10.884,4.806,10.884,10.742c0,5.937-4.806,10.742-10.884,10.742
					C534.944,81.819,529.997,77.013,529.997,71.076z"/>
			</g>
		</g>
	</g>
	<polygon fill="#FFFFFF" points="470.692,67.161 463.095,71.314 470.692,75.467 474.819,83.038 478.997,75.467 486.568,71.289 
		478.997,67.161 474.845,59.565 	"/>
	<polygon fill="#FFFFFF" points="114.065,154.302 106.468,158.454 114.065,162.607 118.192,170.178 122.37,162.607 129.941,158.429 
		122.37,154.302 118.218,146.705 	"/>
	<polygon fill="#81AA43" points="567.605,166.002 556.337,172.162 567.605,178.322 573.727,189.552 579.925,178.321 
		591.155,172.124 579.925,166.002 573.765,154.734 	"/>
	<polygon fill="#81AA43" points="116.415,96.824 105.147,102.984 116.415,109.144 122.538,120.374 128.735,109.144 139.965,102.946 
		128.735,96.824 122.575,85.556 	"/>
</g>
</svg>
