<?xml version="1.0" encoding="utf-8"?>
<!-- Generator: Adobe Illustrator 24.1.3, SVG Export Plug-In . SVG Version: 6.00 Build 0)  -->
<svg version="1.1" id="Layer_1" xmlns="http://www.w3.org/2000/svg" xmlns:xlink="http://www.w3.org/1999/xlink" x="0px" y="0px"
	 viewBox="0 0 407.518 338.4" enable-background="new 0 0 407.518 338.4" xml:space="preserve">
<g>
	<g>
		<g>
			<g>
				<ellipse fill="#629FCF" cx="196.442" cy="169.2" rx="169.2" ry="169.2"/>
			</g>
		</g>
		<g>
			<g>
				<g>
					<g>
						<g>
							<path id="XMLID_5_" fill="#FFFFFF" d="M371.382,224.509l-174.717,61.938L45.58,253.616c0,0-16.81-27.369,2.858-48.6
								l145.318,30.953l177.912-61.959C371.671,174.009,357.737,192.642,371.382,224.509z"/>
						</g>
					</g>
					<g>
						<g>
							<defs>
								<path id="SVGID_3_" d="M371.382,224.509l-174.717,61.938L45.58,253.616c0,0-16.81-27.369,2.858-48.6l145.318,30.953
									l177.912-61.959C371.671,174.009,357.737,192.642,371.382,224.509z"/>
							</defs>
							<clipPath id="SVGID_4_">
								<use xlink:href="#SVGID_3_"  overflow="visible"/>
							</clipPath>
							<polygon clip-path="url(#SVGID_4_)" fill="#ABB0B2" points="368.78,197.036 366.291,190.135 298.956,218.372 							"/>
						</g>
						<g>
							<defs>
								<path id="SVGID_5_" d="M371.382,224.509l-174.717,61.938L45.58,253.616c0,0-16.81-27.369,2.858-48.6l145.318,30.953
									l177.912-61.959C371.671,174.009,357.737,192.642,371.382,224.509z"/>
							</defs>
							<clipPath id="SVGID_6_">
								<use xlink:href="#SVGID_5_"  overflow="visible"/>
							</clipPath>
							<polygon clip-path="url(#SVGID_6_)" fill="#ABB0B2" points="371.999,209.686 369.51,202.785 302.173,231.021 							"/>
						</g>
					</g>
					<g>
						<path fill="#C33963" d="M196.717,294.186c-0.568,0.004-1.136-0.054-1.697-0.176L43.937,261.178
							c-2.059-0.448-3.847-1.717-4.951-3.512c-6.876-11.196-14.938-37.71,3.776-57.911c1.853-2.002,4.62-2.88,7.29-2.31
							l143.202,30.503L369.125,166.7c4.05-1.405,8.449,0.728,9.852,4.763c1.407,4.037-0.726,8.447-4.763,9.854L196.3,243.276
							c-1.337,0.464-2.778,0.556-4.157,0.26L51.462,213.571c-8.743,12.653-3.552,27.24-0.724,33.246l145.417,31.6l172.64-61.203
							c4.025-1.428,8.451,0.679,9.879,4.709c1.43,4.028-0.679,8.453-4.708,9.881l-174.717,61.938
							C198.432,294.032,197.575,294.181,196.717,294.186z"/>
					</g>
					<path fill="#C33963" d="M47.413,197.339l154.253-45.701c0.722-0.213,1.478-0.289,2.227-0.22l166.157,15.019L193.52,232.349
						L47.413,197.339z"/>
				</g>
			</g>
			<g>
				<g>
					<g>
						<g>
							<path id="XMLID_2_" fill="#FFFFFF" d="M341.417,190.761l-160.761,34.521l-129.144-46.14c0,0-11.659-25.996,8.067-42.423
								l124.288,43.83l163.575-34.175C347.442,146.374,333.056,161.172,341.417,190.761z"/>
						</g>
					</g>
					<g>
						<g>
							<defs>
								<path id="SVGID_8_" d="M341.417,190.761l-160.761,34.521l-129.144-46.14c0,0-11.659-25.996,8.067-42.423l124.288,43.83
									l163.575-34.175C347.442,146.374,333.056,161.172,341.417,190.761z"/>
							</defs>
							<clipPath id="SVGID_9_">
								<use xlink:href="#SVGID_8_"  overflow="visible"/>
							</clipPath>
							<polygon clip-path="url(#SVGID_9_)" fill="#ABB0B2" points="342.268,166.299 340.867,159.944 278.411,177.088 							"/>
						</g>
						<g>
							<defs>
								<path id="SVGID_10_" d="M341.417,190.761l-160.761,34.521l-129.144-46.14c0,0-11.659-25.996,8.067-42.423l124.288,43.83
									l163.575-34.175C347.442,146.374,333.056,161.172,341.417,190.761z"/>
							</defs>
							<clipPath id="SVGID_11_">
								<use xlink:href="#SVGID_10_"  overflow="visible"/>
							</clipPath>
							<polygon clip-path="url(#SVGID_11_)" fill="#ABB0B2" points="343.655,177.792 342.254,171.438 279.797,188.582 							"/>
						</g>
					</g>
					<g>
						<path fill="#25374A" d="M179.819,232.094c-0.5-0.061-0.993-0.177-1.473-0.349l-129.144-46.14
							c-1.762-0.629-3.188-1.95-3.955-3.656c-4.768-10.635-8.831-34.877,9.938-50.509c1.858-1.548,4.394-2.005,6.677-1.199
							l122.478,43.192l161.699-33.782c3.722-0.774,7.349,1.606,8.123,5.315c0.776,3.711-1.604,7.347-5.315,8.123l-163.575,34.175
							c-1.229,0.256-2.507,0.17-3.688-0.245L61.26,144.591c-9.137,10.132-6.236,23.555-4.435,29.161l124.298,44.409l158.851-34.11
							c3.702-0.797,7.356,1.563,8.152,5.27c0.797,3.708-1.564,7.358-5.27,8.153l-160.761,34.521
							C181.344,232.155,180.575,232.188,179.819,232.094z"/>
					</g>
					<path fill="#25374A" d="M59.552,129.848l140.905-22.575c0.659-0.106,1.333-0.086,1.986,0.059l144.438,32.195l-162.81,37.809
						L59.552,129.848z"/>
				</g>
			</g>
			<g>
				<g>
					<g>
						<g>
							<path id="XMLID_1_" fill="#FFFFFF" d="M342.014,112.233l-138.966,42.773L85.731,124.291c0,0-12.27-22.004,3.844-37.993
								l112.86,29.053l141.471-42.685C343.908,72.666,332.373,86.809,342.014,112.233z"/>
						</g>
					</g>
					<g>
						<g>
							<defs>
								<path id="SVGID_12_" d="M342.014,112.233l-138.966,42.773L85.731,124.291c0,0-12.27-22.004,3.844-37.993l112.86,29.053
									l141.471-42.685C343.908,72.666,332.373,86.809,342.014,112.233z"/>
							</defs>
							<clipPath id="SVGID_13_">
								<use xlink:href="#SVGID_12_"  overflow="visible"/>
							</clipPath>
							<polygon clip-path="url(#SVGID_13_)" fill="#ABB0B2" points="340.883,90.616 339.161,85.128 285.459,105.033 							"/>
						</g>
						<g>
							<defs>
								<path id="SVGID_14_" d="M342.014,112.233l-138.966,42.773L85.731,124.291c0,0-12.27-22.004,3.844-37.993l112.86,29.053
									l141.471-42.685C343.908,72.666,332.373,86.809,342.014,112.233z"/>
							</defs>
							<clipPath id="SVGID_15_">
								<use xlink:href="#SVGID_14_"  overflow="visible"/>
							</clipPath>
							<polygon clip-path="url(#SVGID_15_)" fill="#ABB0B2" points="342.989,100.635 341.265,95.147 287.563,115.052 							"/>
						</g>
					</g>
					<g>
						<path fill="#005D80" d="M202.835,161.071c-0.444-0.016-0.889-0.081-1.324-0.194L84.194,130.163
							c-1.6-0.419-2.959-1.471-3.765-2.916c-5.019-9.001-10.462-30.046,4.871-45.258c1.518-1.507,3.717-2.104,5.79-1.57
							l111.217,28.63l139.847-42.194c3.22-0.968,6.596,0.849,7.564,4.059c0.969,3.209-0.848,6.596-4.057,7.566L204.19,121.166
							c-1.063,0.321-2.195,0.344-3.267,0.066L91.664,93.104c-7.27,9.628-3.683,21.229-1.665,26.03l112.914,29.562l137.313-42.265
							c3.2-0.987,6.6,0.812,7.587,4.016c0.987,3.204-0.812,6.602-4.016,7.587l-138.964,42.774
							C204.184,161.007,203.509,161.095,202.835,161.071z"/>
					</g>
					<path fill="#005D80" d="M89.025,80.248l122.392-30.723c0.573-0.143,1.168-0.177,1.753-0.1l129.717,17.253l-140.518,45.828
						L89.025,80.248z"/>
				</g>
			</g>
		</g>
	</g>
	<g>
		<g>
			<polygon id="Fill-10_81_" fill-rule="evenodd" clip-rule="evenodd" fill="#FFCA7F" points="0,72.872 56.953,43.875 0,15.919 			
				"/>
			<polygon id="Fill-10_80_" fill-rule="evenodd" clip-rule="evenodd" fill="#FFFFFF" points="57.275,72.872 114.228,43.875 
				57.275,15.919 			"/>
			<polygon id="Fill-10_79_" fill-rule="evenodd" clip-rule="evenodd" fill="#C7C7C7" points="57.275,72.872 114.228,43.875 
				57.275,15.919 			"/>
		</g>
		<g>
			<polygon id="Fill-10_78_" fill-rule="evenodd" clip-rule="evenodd" fill="#25374A" points="293.29,322.481 350.243,293.484 
				293.29,265.528 			"/>
			<polygon id="Fill-10_77_" fill-rule="evenodd" clip-rule="evenodd" fill="#FFFFFF" points="350.565,322.481 407.518,293.484 
				350.565,265.528 			"/>
			<polygon id="Fill-10_76_" fill-rule="evenodd" clip-rule="evenodd" fill="#8BBDD9" points="350.565,322.481 407.518,293.484 
				350.565,265.528 			"/>
		</g>
	</g>
</g>
</svg>
