<?xml version="1.0" encoding="utf-8"?>
<!-- Generator: Adobe Illustrator 24.0.0, SVG Export Plug-In . SVG Version: 6.00 Build 0)  -->
<svg version="1.1" id="Layer_1" xmlns="http://www.w3.org/2000/svg" xmlns:xlink="http://www.w3.org/1999/xlink" x="0px" y="0px"
	 viewBox="0 0 266.9 238.6" style="enable-background:new 0 0 266.9 238.6;" xml:space="preserve">
<style type="text/css">
	.st0{fill:#FFFFFF;}
	.st1{opacity:0.5;clip-path:url(#SVGID_2_);fill:#C4C4C4;enable-background:new    ;}
	.st2{opacity:0.25;clip-path:url(#SVGID_4_);}
	.st3{fill:none;stroke:#FFFFFF;stroke-width:175.4377;stroke-miterlimit:10;stroke-dasharray:25.4908,25.4908;}
	.st4{fill:#81AA43;}
</style>
<g>
	<circle class="st0" cx="119.3" cy="119.3" r="119.3"/>
	<g>
		<g>
			<g>
				<g>
					<defs>
						<circle id="SVGID_1_" cx="119.1" cy="119.6" r="119.1"/>
					</defs>
					<clipPath id="SVGID_2_">
						<use xlink:href="#SVGID_1_"  style="overflow:visible;"/>
					</clipPath>
					<circle class="st1" cx="119.1" cy="119.6" r="119.1"/>
				</g>
				<g>
					<defs>
						<circle id="SVGID_3_" cx="119.1" cy="119.6" r="119.1"/>
					</defs>
					<clipPath id="SVGID_4_">
						<use xlink:href="#SVGID_3_"  style="overflow:visible;"/>
					</clipPath>
					<g class="st2">
						<circle class="st3" cx="119.1" cy="119.6" r="81.1"/>
					</g>
				</g>
			</g>
			<g>
				<g>
					<g>
						<path class="st0" d="M225.1,133.6c0-17.2-14-31.2-31.2-31.2c-2,0-4,0.2-6,0.6c0.6-2.1,0.9-4.3,0.9-6.7
							c0-14.4-11.7-26.1-26.1-26.1c-6.4,0-12.3,2.3-16.8,6.1c-6.1-20.4-25-35.3-47.4-35.3c-27.2,0-49.3,22.1-49.3,49.3
							c0,2.1,0.1,4.2,0.4,6.2c-17,2-30.2,16.5-30.2,34c0,18.9,15.3,34.3,34.3,34.3h145.8C213.6,161.9,225.1,148.7,225.1,133.6z"/>
					</g>
				</g>
			</g>
		</g>
		<g>
			<polygon class="st4" points="194.2,212 266.9,164.9 194.2,117.7 194.2,147.5 89.1,128.9 89.1,200.8 194.2,183.4 			"/>
		</g>
	</g>
</g>
</svg>
