<?xml version="1.0" encoding="UTF-8"?>
<svg width="342px" height="118px" viewBox="0 0 342 118" version="1.1" xmlns="http://www.w3.org/2000/svg" xmlns:xlink="http://www.w3.org/1999/xlink">
    <!-- Generator: Sketch 63.1 (92452) - https://sketch.com -->
    <title>singleset copy</title>
    <desc>Created with Sketch.</desc>
    <g id="Page-1" stroke="none" stroke-width="1" fill="none" fill-rule="evenodd">
        <g id="singleset-copy" transform="translate(-0.000000, 0.000000)">
            <polygon id="Fill-1" fill="#FFE07F" points="3.55271368e-15 3.55271368e-15 3.55271368e-15 56.7835 56.7835 27.8755"></polygon>
            <polygon id="Fill-2" fill-opacity="0.2" fill="#C1C6C8" points="57 3.55271368e-15 57 56.7835 113.783 27.8755"></polygon>
            <polygon id="Fill-3" fill-opacity="0.5" fill="#005D91" points="114 3.55271368e-15 114 56.7835 170.7835 27.8755"></polygon>
            <polygon id="Fill-4" fill-opacity="0.2" fill="#C1C6C8" points="171 3.55271368e-15 171 56.7835 227.7835 27.8755"></polygon>
            <polygon id="Fill-5" fill-opacity="0.2" fill="#C1C6C8" points="228 3.55271368e-15 228 56.7835 284.784 27.8755"></polygon>
            <polygon id="Fill-6" fill-opacity="0.2" fill="#62B5E5" points="285.0175 3.55271368e-15 285.0175 56.7835 341.801 27.8755"></polygon>
            <polygon id="Fill-7" fill-opacity="0.2" fill="#62B5E5" points="2.30926389e-13 117.15165 56.7835 88.24365 2.30926389e-13 60.36815"></polygon>
            <polygon id="Fill-8" fill-opacity="0.2" fill="#C1C6C8" points="57 117.15165 113.7835 88.24365 57 60.36815"></polygon>
            <polygon id="Fill-9" fill-opacity="0.2" fill="#62B5E5" points="114 117.15165 170.7835 88.24365 114 60.36815"></polygon>
            <polygon id="Fill-10" fill="#FFE07F" points="171 117.15165 227.783 88.24365 171 60.36815"></polygon>
            <polygon id="Fill-10-Copy" fill-opacity="0.5" fill="#005D91" points="228 117.15165 284.783 88.24365 228 60.36815"></polygon>
        </g>
    </g>
</svg>