<?xml version="1.0" encoding="utf-8"?>
<!-- Generator: Adobe Illustrator 24.1.3, SVG Export Plug-In . SVG Version: 6.00 Build 0)  -->
<svg version="1.1" id="Layer_1" xmlns="http://www.w3.org/2000/svg" xmlns:xlink="http://www.w3.org/1999/xlink" x="0px" y="0px"
	 viewBox="0 0 673.2 372.6" style="enable-background:new 0 0 673.2 372.6;" xml:space="preserve">
<style type="text/css">
	.st0{fill:#002F49;}
	.st1{fill:url(#SVGID_1_);}
	.st2{fill:url(#SVGID_2_);}
	.st3{fill:#66A7D6;}
	.st4{fill:#005E82;}
	.st5{clip-path:url(#SVGID_4_);}
	.st6{fill:none;stroke:#002F49;stroke-width:1.2728;stroke-miterlimit:10;}
	.st7{fill:none;stroke:#002F49;stroke-width:1.2728;stroke-miterlimit:10;stroke-dasharray:6.3991,6.3991;}
	.st8{fill-rule:evenodd;clip-rule:evenodd;fill:#FFFFFF;}
	.st9{fill-rule:evenodd;clip-rule:evenodd;fill:#005E82;fill-opacity:0.5;}
	.st10{fill-rule:evenodd;clip-rule:evenodd;fill:#FFE080;}
	.st11{fill:#FFE080;}
</style>
<g>
	<g>
		<g>
			<g>
				<path class="st0" d="M462.1,101.1l-0.9-0.4l-3.5-8.8l0.4-0.9c11-25.1,10.6-25.9,8.4-27.7l-15-14.5c-0.4-0.4-1.8-0.9-2.6-0.9
					s-3.5,0-25.1,10.1l-0.9,0.4l-9.2-3.5l-0.4-0.9c-10.1-25.5-11.4-25.5-14.1-25.5h-20.7c-2.6,0-3.5,0-13.2,25.5l-0.4,0.9l-8.8,3.5
					l-0.9-0.4c-15-6.2-23.3-9.2-25.9-9.2c-0.9,0-2.2,0.4-2.6,0.9l-15,14.5c-1.8,1.8-2.6,2.6,9.2,27.3l0.4,0.9l-3.5,8.8l-0.9,0.4
					c-26.4,10.1-26.4,11-26.4,13.6v20.7c0,2.6,0,3.5,26.4,13.2l0.9,0.4l3.5,8.8l-0.4,0.9c-11,25.1-10.6,25.9-8.4,27.7l15,14.5
					c0.4,0.4,1.8,0.9,2.6,0.9c0.9,0,3.5,0,25.1-10.1l0.9-0.4l9.2,3.5l0.4,0.9c10.1,25.5,11.4,25.5,14.1,25.5h20.7
					c2.6,0,3.5,0,13.2-25.5l0.4-0.9l8.8-3.5l0.9,0.4c15,6.2,23.3,9.2,25.5,9.2c0.9,0,2.2-0.4,2.6-0.9l15-14.5
					c1.8-1.8,2.6-2.6-9.2-27.3v-1.3l3.5-8.8h0.9c25.9-10.1,25.9-11,25.9-13.6v-20.7C488,111.6,488,110.3,462.1,101.1z M389.5,158.2
					c-18.9,0-33.9-15-33.9-33.4c0-18.5,15.4-33.4,33.9-33.4c18.9,0,33.9,15,33.9,33.4S408,158.2,389.5,158.2z"/>
			</g>
		</g>
	</g>
	<g>
		<g>
			<linearGradient id="SVGID_1_" gradientUnits="userSpaceOnUse" x1="97.5227" y1="57.1148" x2="320.7039" y2="280.2961">
				<stop  offset="0" style="stop-color:#B3B7B9"/>
				<stop  offset="1" style="stop-color:#FFFFFF"/>
			</linearGradient>
			<path class="st1" d="M0,179.8c0-33.5,27.1-60.7,60.7-60.7c4,0,7.8,0.4,11.7,1.1c-1.1-4-1.7-8.5-1.7-12.9
				c0-28,22.7-50.7,50.7-50.7c12.5,0,23.8,4.5,32.7,11.9C165.6,28.8,202.3,0,245.8,0c52.8,0,95.9,42.8,95.9,95.9
				c0,4-0.2,8.1-0.8,12.1c32.9,3.8,58.5,31.8,58.5,66c0,36.7-29.7,66.6-66.6,66.6H49.6C22.3,234.6,0,208.9,0,179.8z"/>
		</g>
		<g>
			<linearGradient id="SVGID_2_" gradientUnits="userSpaceOnUse" x1="417.7575" y1="217.38" x2="606.6388" y2="406.2613">
				<stop  offset="0" style="stop-color:#FFFFFF"/>
				<stop  offset="1" style="stop-color:#B3B7B9"/>
			</linearGradient>
			<path class="st2" d="M335.2,321.2c0-28.4,23-51.3,51.3-51.3c3.4,0,6.6,0.4,9.9,0.9c-0.9-3.4-1.4-7.2-1.4-11
				c0-23.7,19.2-42.9,42.9-42.9c10.6,0,20.1,3.8,27.6,10.1c9.9-33.6,40.9-58,77.7-58c44.7,0,81.2,36.3,81.2,81.2
				c0,3.4-0.2,6.8-0.7,10.2c27.8,3.2,49.6,26.9,49.6,55.8c0,31.1-25.1,56.4-56.4,56.4H377.2C354,367.5,335.2,345.8,335.2,321.2z"/>
		</g>
		<g>
			<g>
				<polygon class="st3" points="494.8,185.1 413,324.8 240.9,172.8 				"/>
				<polygon class="st4" points="468.8,229.5 455.4,252.4 275.4,184.2 				"/>
				<polygon class="st4" points="455.4,252.4 468.8,289.5 468.8,229.5 				"/>
			</g>
			<polygon class="st0" points="439.7,279.1 468.8,289.4 455.4,252.2 			"/>
		</g>
	</g>
	<g>
		<g>
			<defs>
				<path id="SVGID_3_" d="M335.2,321.2c0-28.4,23-51.3,51.3-51.3c3.4,0,6.6,0.4,9.9,0.9c-0.9-3.4-1.4-7.2-1.4-11
					c0-23.7,19.2-42.9,42.9-42.9c10.6,0,20.1,3.8,27.6,10.1c9.9-33.6,40.9-58,77.7-58c44.7,0,81.2,36.3,81.2,81.2
					c0,3.4-0.2,6.8-0.7,10.2c27.8,3.2,49.6,26.9,49.6,55.8c0,31.1-25.1,56.4-56.4,56.4H377.2C354,367.5,335.2,345.8,335.2,321.2z"/>
			</defs>
			<clipPath id="SVGID_4_">
				<use xlink:href="#SVGID_3_"  style="overflow:visible;"/>
			</clipPath>
			<g class="st5">
				<g>
					<path class="st6" d="M468.8,289.5c0.6,0.9,1.2,1.8,1.7,2.7"/>
					<path class="st7" d="M474.3,297.4c32.2,42.4,95.9,68.3,131.9,40.7c37.1-28.5,5.4-63.5-27.1-32.3c-25.6,24.6-14,66.9,32.3,70.4"
						/>
					<path class="st6" d="M614.6,376.4c1,0,2.1,0.1,3.2,0.1"/>
				</g>
			</g>
		</g>
	</g>
	<g>
		<polygon id="Fill-10_106_" class="st8" points="164.8,294.3 270.5,240.5 164.8,188.7 		"/>
		<polygon id="Fill-10_65_" class="st9" points="164.8,294.3 270.5,240.5 164.8,188.7 		"/>
		<polygon id="Fill-10_57_" class="st10" points="59.1,294.3 164.8,240.5 59.1,188.7 		"/>
	</g>
	<polygon class="st11" points="284.8,285.3 297.1,281.7 293.6,294 297.1,306.2 284.8,302.6 272.6,306.2 276.2,294 272.6,281.7 	"/>
	<polygon class="st11" points="529.9,116.9 542.2,113.3 538.6,125.6 542.2,137.9 529.9,134.2 517.6,137.9 521.3,125.6 517.6,113.3 	
		"/>
</g>
</svg>
