<?xml version="1.0" encoding="utf-8"?>
<!-- Generator: Adobe Illustrator 24.1.2, SVG Export Plug-In . SVG Version: 6.00 Build 0)  -->
<svg version="1.1" id="Layer_1" xmlns="http://www.w3.org/2000/svg" xmlns:xlink="http://www.w3.org/1999/xlink" x="0px" y="0px"
	 viewBox="0 0 403.517 368.33" enable-background="new 0 0 403.517 368.33" xml:space="preserve">
<g>
	<path fill="#C0E1F5" d="M403.517,106.898c0-19.917-16.135-36.052-36.052-36.052c-2.395,0-4.664,0.252-6.933,0.63
		c0.63-2.395,1.008-5.043,1.008-7.689c0-16.64-13.489-30.128-30.128-30.128c-7.438,0-14.119,2.647-19.413,7.059
		C305.066,17.144,283.258,0,257.416,0c-31.389,0-56.979,25.463-56.979,56.979c0,2.395,0.126,4.79,0.505,7.186
		c-19.539,2.269-34.792,18.909-34.792,39.204c0,21.808,17.648,39.582,39.582,39.582H374.02
		C390.282,139.42,403.517,124.167,403.517,106.898z"/>
	<circle fill-rule="evenodd" clip-rule="evenodd" fill="#00466D" cx="286.035" cy="179.582" r="104.517"/>
	<g>
		<defs>
			<circle id="SVGID_75_" cx="286.034" cy="179.582" r="104.517"/>
		</defs>
		<clipPath id="SVGID_2_">
			<use xlink:href="#SVGID_75_"  overflow="visible"/>
		</clipPath>
		<g clip-path="url(#SVGID_2_)">
			<path fill="#FFE07F" d="M317.828,189.561c12.513,3.734,48.682,62.681,51.557,94.539h-31.379L317.828,189.561z"/>
			<path fill="#FFE07F" d="M233.622,284.1h-31.379c2.874-31.858,39.044-90.805,51.557-94.539L233.622,284.1z"/>
			<polygon fill-rule="evenodd" clip-rule="evenodd" fill="#85684D" points="304.762,208.23 266.712,208.412 270.657,143.344 
				300.195,143.203 			"/>
			<path fill-rule="evenodd" clip-rule="evenodd" fill="#FFE07F" d="M253.657,189.561h64.172c0,0,9.964,4.907,33.794,94.539H227.179
				C227.179,284.099,223.829,246.201,253.657,189.561z"/>
		</g>
	</g>
	<circle fill-rule="evenodd" clip-rule="evenodd" fill="#62B5E5" cx="133.752" cy="263.812" r="104.517"/>
	<g>
		<path id="Hair-Front_8_" fill-rule="evenodd" clip-rule="evenodd" fill="#252728" d="M117.792,221.391
			c1.989,20.41,17.833,43.659,12.192,49.219l-66.355,0.288c-2.987-48.247,21.76-31.407,23.74-75.112
			c0.863-19.049,24.207-32.6,37.478-32.657c19.906-0.086,26.23,9.149,31.613,16.99c-3.941,13.744-19.456,15.847-33.214,24.463
			c-1.632-1.314-3.709-2.097-5.967-2.087c-5.222,0.023-9.436,4.274-9.413,9.496c0.023,5.222,4.274,9.436,9.496,9.413
			C117.506,221.402,117.649,221.398,117.792,221.391z"/>
		<path id="Hair-Front_7_" fill-rule="evenodd" clip-rule="evenodd" fill="#252728" d="M144.954,221.273
			c-1.812,20.427-17.453,43.812-11.764,49.323l66.355-0.288c2.568-48.271-22.032-31.217-24.392-74.903
			c-1.028-19.041-24.489-32.388-37.76-32.331c-19.906,0.086-26.149,9.376-31.465,17.263c4.06,13.709,19.593,15.677,33.425,24.173
			c1.62-1.328,3.69-2.129,5.948-2.139c5.222-0.023,9.473,4.192,9.496,9.413c0.023,5.222-4.192,9.473-9.413,9.496
			C145.24,221.281,145.097,221.279,144.954,221.273z"/>
		<polygon fill-rule="evenodd" clip-rule="evenodd" fill="#A68773" points="150.641,290.933 115.833,291.1 119.442,231.576 
			146.463,231.447 		"/>
		<g>
			<path fill-rule="evenodd" clip-rule="evenodd" fill="#DDB49A" d="M103.27,196.633c-0.798,24.593,13.153,66.255,30.611,65.217
				c17.921-1.065,29.401-36.044,26.626-65.915C156.944,157.587,104.368,162.806,103.27,196.633z"/>
			<g>
				<circle fill-rule="evenodd" clip-rule="evenodd" fill="#DDB49A" cx="160.22" cy="220.012" r="8.8"/>
			</g>
			<g>
				<circle fill-rule="evenodd" clip-rule="evenodd" fill="#DDB49A" cx="104.371" cy="220.759" r="8.8"/>
			</g>
		</g>
		<path fill-rule="evenodd" clip-rule="evenodd" fill="#252728" d="M129.887,180.474c-1.085,11.325-18.599,9.258-25.395,31.532
			l-8.993-24.618l13.141-17.243l22.288-6.046L129.887,180.474z"/>
		<path fill-rule="evenodd" clip-rule="evenodd" fill="#252728" d="M128.469,183.294c1.406,9.041,17.869,7.23,24.683,14.892
			c6.814,7.662,7.575,13.061,7.575,13.061l8.377-24.166l-17.191-14.476l-23.839-6.367l-6.316,3.799L128.469,183.294z"/>
	</g>
	<g>
		<defs>
			<circle id="SVGID_77_" cx="133.752" cy="263.812" r="104.517"/>
		</defs>
		<clipPath id="SVGID_4_">
			<use xlink:href="#SVGID_77_"  overflow="visible"/>
		</clipPath>
		<g clip-path="url(#SVGID_4_)">
			<path fill="#81AA43" d="M165.546,273.79c12.513,3.734,48.682,62.681,51.557,94.539h-31.379L165.546,273.79z"/>
			<path fill="#81AA43" d="M81.339,368.33H49.96c2.874-31.858,39.044-90.805,51.557-94.539L81.339,368.33z"/>
			<path fill-rule="evenodd" clip-rule="evenodd" fill="#81AA43" d="M101.374,273.79h64.172c0,0,9.964,4.907,33.794,94.539H74.897
				C74.897,368.329,71.547,330.431,101.374,273.79z"/>
		</g>
	</g>
	<path fill="#C0E1F5" d="M133.076,348.118c0-11.167-9.046-20.212-20.212-20.212c-1.343,0-2.615,0.141-3.887,0.353
		c0.353-1.343,0.565-2.827,0.565-4.311c0-9.329-7.562-16.891-16.891-16.891c-4.17,0-7.915,1.484-10.883,3.957
		c-3.887-13.215-16.113-22.827-30.601-22.827c-17.597,0-31.943,14.276-31.943,31.943c0,1.343,0.071,2.685,0.282,4.028
		C8.551,325.432,0,334.761,0,346.139c0,12.227,9.894,22.191,22.191,22.191h94.347C125.655,366.351,133.076,357.799,133.076,348.118z
		"/>
	<g>
		<path fill="#252728" d="M251.374,131.889c0,0,0.989-10.336-1.885-13.341c-10.935-11.434,1.476-16.344-2.822-24.51
			c-3.237-6.15-1.104-14.541,6.776-20.089c15.86-11.167,25.011-0.22,36.597-2.406c6.671-1.259,19.626-5.225,29.12,2.71
			c9.494,7.935,0.317,17.687,3.586,24.096c3.268,6.409,6.19,12.566-0.795,18.28c-4.193,3.429-2.861,15.737-2.861,15.737
			L251.374,131.889z"/>
		<g>
			<g>
				<g>
					<g>
						<g>
							<path fill-rule="evenodd" clip-rule="evenodd" fill="#B28B67" d="M255.686,108.433
								c-0.805,24.808,13.269,57.253,30.879,56.206c18.079-1.075,29.659-26.777,26.859-56.91
								C309.83,69.044,256.794,74.309,255.686,108.433z"/>
							<g>
								<circle fill-rule="evenodd" clip-rule="evenodd" fill="#B28B67" cx="313.135" cy="132.016" r="8.877"/>
							</g>
							<g>
								<circle fill-rule="evenodd" clip-rule="evenodd" fill="#B28B67" cx="256.796" cy="132.77" r="8.877"/>
							</g>
						</g>
					</g>
				</g>
			</g>
		</g>
		<path fill="#252728" d="M256.531,101.304c0,0,3.342-12.931,15.43-5.505c7.216,4.433,23.583,15.956,41.513,4.251
			c0,0-9.844-24.471-33.092-24.473C250.025,75.574,256.531,101.304,256.531,101.304z"/>
		<g>
			<path fill-rule="evenodd" clip-rule="evenodd" fill="#252728" d="M314.485,140.24c-1.365-3.261-14.739-1.232-28.112-1.232
				c-13.374,0-26.747-2.029-28.112,1.232c-2.727,6.514,3.493,36.201,28.112,36.201C310.992,176.441,317.211,146.754,314.485,140.24z
				"/>
			<path fill-rule="evenodd" clip-rule="evenodd" fill="#B28B67" d="M299.671,148.756c-2.008-2.748-9.191-0.596-13.844-0.592
				c-4.653-0.005-11.837-2.156-13.844,0.592c-2.008,2.748,5.595,9.085,13.836,9.093v0c0.003,0,0.005,0,0.008,0
				c0.002,0,0.005,0,0.008,0v0C294.077,157.841,301.679,151.504,299.671,148.756z"/>
		</g>
	</g>
</g>
</svg>
