<?xml version="1.0" encoding="utf-8"?>
<!-- Generator: Adobe Illustrator 24.1.2, SVG Export Plug-In . SVG Version: 6.00 Build 0)  -->
<svg version="1.1" id="Layer_1" xmlns="http://www.w3.org/2000/svg" xmlns:xlink="http://www.w3.org/1999/xlink" x="0px" y="0px"
	 viewBox="0 0 989.9 1075.6" style="enable-background:new 0 0 989.9 1075.6;" xml:space="preserve">
<style type="text/css">
	.st0{fill:#FBFBFB;}
	.st1{fill:#C1C6C8;}
	.st2{fill-rule:evenodd;clip-rule:evenodd;fill:#FFE07F;}
	.st3{opacity:0.5;}
	.st4{fill-rule:evenodd;clip-rule:evenodd;fill:#005D91;}
	.st5{fill:#62B5E5;}
	.st6{fill:#D93963;}
	.st7{opacity:0.3;fill:url(#SVGID_1_);enable-background:new    ;}
	.st8{opacity:0.3;fill:url(#SVGID_2_);enable-background:new    ;}
	.st9{fill:none;stroke:#D93963;stroke-width:9;stroke-linecap:round;stroke-miterlimit:10;}
	.st10{fill:none;stroke:#62B5E5;stroke-width:9;stroke-linecap:round;stroke-miterlimit:10;}
	.st11{fill:#4A4F55;}
</style>
<g>
	
		<image style="overflow:visible;opacity:0.15;enable-background:new    ;" width="1023" height="1109" xlink:href="314054046AD31F7F.png"  transform="matrix(0.999 0 0 0.999 -16.1631 -16.098)">
	</image>
	<g>
		<g>
			<g>
				<g>
					<g>
						<rect class="st0" width="989.9" height="1075.6"/>
					</g>
				</g>
			</g>
		</g>
	</g>
</g>
<g>
	<g>
		<g>
			<g>
				<g>
					<rect x="902.8" y="379.9" class="st1" width="3.2" height="0.6"/>
				</g>
			</g>
			<g>
				<g>
					<path class="st1" d="M896.5,380.5h-6.3v-0.6h6.3V380.5z M883.8,380.5h-6.3v-0.6h6.3V380.5z M871.2,380.5h-6.3v-0.6h6.3V380.5z
						 M858.5,380.5h-6.3v-0.6h6.3V380.5z M845.8,380.5h-6.3v-0.6h6.3V380.5z M833.2,380.5h-6.3v-0.6h6.3V380.5z M820.5,380.5h-6.3
						v-0.6h6.3V380.5z M807.8,380.5h-6.3v-0.6h6.3V380.5z M795.2,380.5h-6.3v-0.6h6.3V380.5z M782.5,380.5h-6.3v-0.6h6.3V380.5z
						 M769.9,380.5h-6.3v-0.6h6.3V380.5z M757.2,380.5h-6.3v-0.6h6.3V380.5z M744.5,380.5h-6.3v-0.6h6.3V380.5z M731.9,380.5h-6.3
						v-0.6h6.3V380.5z M719.2,380.5h-6.3v-0.6h6.3V380.5z M706.5,380.5h-6.3v-0.6h6.3V380.5z M693.9,380.5h-6.3v-0.6h6.3V380.5z
						 M681.2,380.5h-6.3v-0.6h6.3V380.5z M668.6,380.5h-6.3v-0.6h6.3V380.5z M655.9,380.5h-6.3v-0.6h6.3V380.5z M643.2,380.5h-6.3
						v-0.6h6.3V380.5z M630.6,380.5h-6.3v-0.6h6.3V380.5z M617.9,380.5h-6.3v-0.6h6.3V380.5z M605.2,380.5h-6.3v-0.6h6.3V380.5z
						 M592.6,380.5h-6.3v-0.6h6.3V380.5z M579.9,380.5h-6.3v-0.6h6.3V380.5z M567.3,380.5H561v-0.6h6.3V380.5z M554.6,380.5h-6.3
						v-0.6h6.3V380.5z M541.9,380.5h-6.3v-0.6h6.3V380.5z M529.3,380.5H523v-0.6h6.3V380.5z M516.6,380.5h-6.3v-0.6h6.3V380.5z
						 M503.9,380.5h-6.3v-0.6h6.3V380.5z M491.3,380.5H485v-0.6h6.3V380.5z M478.6,380.5h-6.3v-0.6h6.3V380.5z M466,380.5h-6.3v-0.6
						h6.3V380.5z M453.3,380.5H447v-0.6h6.3V380.5z M440.6,380.5h-6.3v-0.6h6.3V380.5z M428,380.5h-6.3v-0.6h6.3V380.5z
						 M415.3,380.5H409v-0.6h6.3V380.5z M402.6,380.5h-6.3v-0.6h6.3V380.5z M390,380.5h-6.3v-0.6h6.3V380.5z M377.3,380.5H371v-0.6
						h6.3V380.5z M364.7,380.5h-6.4v-0.6h6.3v0.6H364.7z M352,380.5h-6.3v-0.6h6.3V380.5z M339.3,380.5H333v-0.6h6.3V380.5z
						 M326.7,380.5h-6.4v-0.6h6.3v0.6H326.7z M314,380.5h-6.3v-0.6h6.3V380.5z M301.3,380.5H295v-0.6h6.3V380.5z M288.7,380.5h-6.3
						v-0.6h6.3V380.5z M276,380.5h-6.3v-0.6h6.3V380.5z M263.4,380.5h-6.3v-0.6h6.3V380.5z M250.7,380.5h-6.3v-0.6h6.3V380.5z
						 M238,380.5h-6.3v-0.6h6.3V380.5z M225.4,380.5h-6.3v-0.6h6.3V380.5z M212.7,380.5h-6.3v-0.6h6.3V380.5z M200,380.5h-6.3v-0.6
						h6.3V380.5z M187.4,380.5h-6.3v-0.6h6.3V380.5z M174.7,380.5h-6.3v-0.6h6.3V380.5z M162.1,380.5h-6.3v-0.6h6.3V380.5z
						 M149.4,380.5h-6.3v-0.6h6.3V380.5z M136.7,380.5h-6.3v-0.6h6.3V380.5z M124.1,380.5h-6.3v-0.6h6.3V380.5z M111.4,380.5h-6.3
						v-0.6h6.3V380.5z M98.7,380.5h-6.3v-0.6h6.3V380.5z"/>
				</g>
			</g>
			<g>
				<g>
					<rect x="82.9" y="379.9" class="st1" width="3.2" height="0.6"/>
				</g>
			</g>
		</g>
	</g>
	<g>
		<g>
			<g>
				<rect x="902.8" y="823.2" class="st1" width="3.2" height="0.6"/>
			</g>
			<g>
				<path class="st1" d="M896.5,823.9h-6.3v-0.6h6.3V823.9z M883.8,823.9h-6.3v-0.6h6.3V823.9z M871.2,823.9h-6.3v-0.6h6.3V823.9z
					 M858.5,823.9h-6.3v-0.6h6.3V823.9z M845.8,823.9h-6.3v-0.6h6.3V823.9z M833.2,823.9h-6.3v-0.6h6.3V823.9z M820.5,823.9h-6.3
					v-0.6h6.3V823.9z M807.8,823.9h-6.3v-0.6h6.3V823.9z M795.2,823.9h-6.3v-0.6h6.3V823.9z M782.5,823.9h-6.3v-0.6h6.3V823.9z
					 M769.9,823.9h-6.3v-0.6h6.3V823.9z M757.2,823.9h-6.3v-0.6h6.3V823.9z M744.5,823.9h-6.3v-0.6h6.3V823.9z M731.9,823.9h-6.3
					v-0.6h6.3V823.9z M719.2,823.9h-6.3v-0.6h6.3V823.9z M706.5,823.9h-6.3v-0.6h6.3V823.9z M693.9,823.9h-6.3v-0.6h6.3V823.9z
					 M681.2,823.9h-6.3v-0.6h6.3V823.9z M668.6,823.9h-6.3v-0.6h6.3V823.9z M655.9,823.9h-6.3v-0.6h6.3V823.9z M643.2,823.9h-6.3
					v-0.6h6.3V823.9z M630.6,823.9h-6.3v-0.6h6.3V823.9z M617.9,823.9h-6.3v-0.6h6.3V823.9z M605.2,823.9h-6.3v-0.6h6.3V823.9z
					 M592.6,823.9h-6.3v-0.6h6.3V823.9z M579.9,823.9h-6.3v-0.6h6.3V823.9z M567.3,823.9H561v-0.6h6.3V823.9z M554.6,823.9h-6.3
					v-0.6h6.3V823.9z M541.9,823.9h-6.3v-0.6h6.3V823.9z M529.3,823.9H523v-0.6h6.3V823.9z M516.6,823.9h-6.3v-0.6h6.3V823.9z
					 M503.9,823.9h-6.3v-0.6h6.3V823.9z M491.3,823.9H485v-0.6h6.3V823.9z M478.6,823.9h-6.3v-0.6h6.3V823.9z M466,823.9h-6.3v-0.6
					h6.3V823.9z M453.3,823.9H447v-0.6h6.3V823.9z M440.6,823.9h-6.3v-0.6h6.3V823.9z M428,823.9h-6.3v-0.6h6.3V823.9z M415.3,823.9
					H409v-0.6h6.3V823.9z M402.6,823.9h-6.3v-0.6h6.3V823.9z M390,823.9h-6.3v-0.6h6.3V823.9z M377.3,823.9H371v-0.6h6.3V823.9z
					 M364.7,823.9h-6.4v-0.6h6.3v0.6H364.7z M352,823.9h-6.3v-0.6h6.3V823.9z M339.3,823.9H333v-0.6h6.3V823.9z M326.7,823.9h-6.4
					v-0.6h6.3v0.6H326.7z M314,823.9h-6.3v-0.6h6.3V823.9z M301.3,823.9H295v-0.6h6.3V823.9z M288.7,823.9h-6.3v-0.6h6.3V823.9z
					 M276,823.9h-6.3v-0.6h6.3V823.9z M263.4,823.9h-6.3v-0.6h6.3V823.9z M250.7,823.9h-6.3v-0.6h6.3V823.9z M238,823.9h-6.3v-0.6
					h6.3V823.9z M225.4,823.9h-6.3v-0.6h6.3V823.9z M212.7,823.9h-6.3v-0.6h6.3V823.9z M200,823.9h-6.3v-0.6h6.3V823.9z
					 M187.4,823.9h-6.3v-0.6h6.3V823.9z M174.7,823.9h-6.3v-0.6h6.3V823.9z M162.1,823.9h-6.3v-0.6h6.3V823.9z M149.4,823.9h-6.3
					v-0.6h6.3V823.9z M136.7,823.9h-6.3v-0.6h6.3V823.9z M124.1,823.9h-6.3v-0.6h6.3V823.9z M111.4,823.9h-6.3v-0.6h6.3V823.9z
					 M98.7,823.9h-6.3v-0.6h6.3V823.9z"/>
			</g>
			<g>
				<rect x="82.9" y="823.2" class="st1" width="3.2" height="0.6"/>
			</g>
		</g>
	</g>
	<g>
		<g>
			<g>
				<g>
					<rect x="902.8" y="601.6" class="st1" width="3.2" height="0.6"/>
				</g>
			</g>
			<g>
				<g>
					<path class="st1" d="M896.5,602.2h-6.3v-0.6h6.3V602.2z M883.8,602.2h-6.3v-0.6h6.3V602.2z M871.2,602.2h-6.3v-0.6h6.3V602.2z
						 M858.5,602.2h-6.3v-0.6h6.3V602.2z M845.8,602.2h-6.3v-0.6h6.3V602.2z M833.2,602.2h-6.3v-0.6h6.3V602.2z M820.5,602.2h-6.3
						v-0.6h6.3V602.2z M807.8,602.2h-6.3v-0.6h6.3V602.2z M795.2,602.2h-6.3v-0.6h6.3V602.2z M782.5,602.2h-6.3v-0.6h6.3V602.2z
						 M769.9,602.2h-6.3v-0.6h6.3V602.2z M757.2,602.2h-6.3v-0.6h6.3V602.2z M744.5,602.2h-6.3v-0.6h6.3V602.2z M731.9,602.2h-6.3
						v-0.6h6.3V602.2z M719.2,602.2h-6.3v-0.6h6.3V602.2z M706.5,602.2h-6.3v-0.6h6.3V602.2z M693.9,602.2h-6.3v-0.6h6.3V602.2z
						 M681.2,602.2h-6.3v-0.6h6.3V602.2z M668.6,602.2h-6.3v-0.6h6.3V602.2z M655.9,602.2h-6.3v-0.6h6.3V602.2z M643.2,602.2h-6.3
						v-0.6h6.3V602.2z M630.6,602.2h-6.3v-0.6h6.3V602.2z M617.9,602.2h-6.3v-0.6h6.3V602.2z M605.2,602.2h-6.3v-0.6h6.3V602.2z
						 M592.6,602.2h-6.3v-0.6h6.3V602.2z M579.9,602.2h-6.3v-0.6h6.3V602.2z M567.3,602.2H561v-0.6h6.3V602.2z M554.6,602.2h-6.3
						v-0.6h6.3V602.2z M541.9,602.2h-6.3v-0.6h6.3V602.2z M529.3,602.2H523v-0.6h6.3V602.2z M516.6,602.2h-6.3v-0.6h6.3V602.2z
						 M503.9,602.2h-6.3v-0.6h6.3V602.2z M491.3,602.2H485v-0.6h6.3V602.2z M478.6,602.2h-6.3v-0.6h6.3V602.2z M466,602.2h-6.3v-0.6
						h6.3V602.2z M453.3,602.2H447v-0.6h6.3V602.2z M440.6,602.2h-6.3v-0.6h6.3V602.2z M428,602.2h-6.3v-0.6h6.3V602.2z
						 M415.3,602.2H409v-0.6h6.3V602.2z M402.6,602.2h-6.3v-0.6h6.3V602.2z M390,602.2h-6.3v-0.6h6.3V602.2z M377.3,602.2H371v-0.6
						h6.3V602.2z M364.7,602.2h-6.4v-0.6h6.3v0.6H364.7z M352,602.2h-6.3v-0.6h6.3V602.2z M339.3,602.2H333v-0.6h6.3V602.2z
						 M326.7,602.2h-6.4v-0.6h6.3v0.6H326.7z M314,602.2h-6.3v-0.6h6.3V602.2z M301.3,602.2H295v-0.6h6.3V602.2z M288.7,602.2h-6.3
						v-0.6h6.3V602.2z M276,602.2h-6.3v-0.6h6.3V602.2z M263.4,602.2h-6.3v-0.6h6.3V602.2z M250.7,602.2h-6.3v-0.6h6.3V602.2z
						 M238,602.2h-6.3v-0.6h6.3V602.2z M225.4,602.2h-6.3v-0.6h6.3V602.2z M212.7,602.2h-6.3v-0.6h6.3V602.2z M200,602.2h-6.3v-0.6
						h6.3V602.2z M187.4,602.2h-6.3v-0.6h6.3V602.2z M174.7,602.2h-6.3v-0.6h6.3V602.2z M162.1,602.2h-6.3v-0.6h6.3V602.2z
						 M149.4,602.2h-6.3v-0.6h6.3V602.2z M136.7,602.2h-6.3v-0.6h6.3V602.2z M124.1,602.2h-6.3v-0.6h6.3V602.2z M111.4,602.2h-6.3
						v-0.6h6.3V602.2z M98.7,602.2h-6.3v-0.6h6.3V602.2z"/>
				</g>
			</g>
			<g>
				<g>
					<rect x="82.9" y="601.6" class="st1" width="3.2" height="0.6"/>
				</g>
			</g>
		</g>
	</g>
	<g>
		<g>
			<g>
				<g>
					<rect x="902.6" y="158.2" class="st1" width="3.4" height="0.7"/>
				</g>
			</g>
			<g>
				<g>
					<path class="st1" d="M895.7,158.9h-6.9v-0.7h6.9V158.9z M882,158.9h-6.9v-0.7h6.9V158.9z M868.3,158.9h-6.9v-0.7h6.9V158.9z
						 M854.5,158.9h-6.9v-0.7h6.9V158.9z M840.8,158.9h-6.9v-0.7h6.9V158.9z M827.1,158.9h-6.9v-0.7h6.9V158.9z M813.4,158.9h-6.9
						v-0.7h6.9V158.9z M799.7,158.9h-6.9v-0.7h6.9V158.9z M785.9,158.9H779v-0.7h6.9V158.9z M772.2,158.9h-6.9v-0.7h6.9V158.9z
						 M758.5,158.9h-6.9v-0.7h6.9V158.9z M744.8,158.9h-6.9v-0.7h6.9V158.9z M731.1,158.9h-6.9v-0.7h6.9V158.9z M717.4,158.9h-6.9
						v-0.7h6.9V158.9z M703.6,158.9h-6.9v-0.7h6.9V158.9z M689.9,158.9H683v-0.7h6.9V158.9z M676.2,158.9h-6.9v-0.7h6.9V158.9z
						 M662.5,158.9h-6.9v-0.7h6.9V158.9z M648.8,158.9h-6.9v-0.7h6.9V158.9z M635.1,158.9h-6.9v-0.7h6.9V158.9z M621.3,158.9h-6.9
						v-0.7h6.9V158.9z M607.6,158.9h-6.9v-0.7h6.9V158.9z M593.9,158.9H587v-0.7h6.9V158.9z M580.2,158.9h-6.9v-0.7h6.9V158.9z
						 M566.5,158.9h-6.9v-0.7h6.9V158.9z M552.7,158.9h-6.9v-0.7h6.9V158.9z M539,158.9h-6.9v-0.7h6.9V158.9z M525.3,158.9h-6.9
						v-0.7h6.9V158.9z M511.6,158.9h-6.9v-0.7h6.9V158.9z M497.9,158.9H491v-0.7h6.9V158.9z M484.2,158.9h-6.9v-0.7h6.9V158.9z
						 M470.4,158.9h-6.9v-0.7h6.9V158.9z M456.7,158.9h-6.9v-0.7h6.9V158.9z M443,158.9h-6.9v-0.7h6.9V158.9z M429.3,158.9h-6.9
						v-0.7h6.9V158.9z M415.6,158.9h-6.9v-0.7h6.9V158.9z M401.9,158.9H395v-0.7h6.9V158.9z M388.1,158.9h-6.8v-0.7h6.9v0.7H388.1z
						 M374.4,158.9h-6.9v-0.7h6.9V158.9z M360.7,158.9h-6.9v-0.7h6.9V158.9z M347,158.9h-6.9v-0.7h6.9V158.9z M333.3,158.9h-6.9
						v-0.7h6.9V158.9z M319.5,158.9h-6.9v-0.7h6.9V158.9z M305.8,158.9h-6.9v-0.7h6.9V158.9z M292.1,158.9h-6.9v-0.7h6.9V158.9z
						 M278.4,158.9h-6.9v-0.7h6.9V158.9z M264.7,158.9h-6.9v-0.7h6.9V158.9z M251,158.9h-6.9v-0.7h6.9V158.9z M237.2,158.9h-6.9
						v-0.7h6.9V158.9z M223.5,158.9h-6.9v-0.7h6.9V158.9z M209.8,158.9h-6.9v-0.7h6.9V158.9z M196.1,158.9h-6.9v-0.7h6.9V158.9z
						 M182.4,158.9h-6.9v-0.7h6.9V158.9z M168.6,158.9h-6.9v-0.7h6.9V158.9z M154.9,158.9H148v-0.7h6.9V158.9z M141.2,158.9h-6.9
						v-0.7h6.9V158.9z M127.5,158.9h-6.9v-0.7h6.9V158.9z M113.8,158.9h-6.9v-0.7h6.9V158.9z M100.1,158.9h-6.9v-0.7h6.9V158.9z"/>
				</g>
			</g>
			<g>
				<g>
					<rect x="82.9" y="158.2" class="st1" width="3.4" height="0.7"/>
				</g>
			</g>
		</g>
	</g>
	<g>
		<g>
			<g id="Fill-10_66_">
				<polygon class="st2" points="82.9,126.9 149.1,93.2 82.9,60.8 				"/>
			</g>
			<g id="Fill-10_57_" class="st3">
				<polygon class="st4" points="149.1,126.9 215.2,93.2 149.1,60.8 				"/>
			</g>
		</g>
	</g>
	<g>
		<g>
			<path class="st5" d="M108.3,924.5c-14.1,0-25.4-11.3-25.4-25.4s11.3-25.4,25.4-25.4s25.4,11.3,25.4,25.4
				C133.7,913.1,122.2,924.5,108.3,924.5z M108.3,881.7c-9.8,0-17.6,7.8-17.6,17.6s7.8,17.6,17.6,17.6s17.6-7.8,17.6-17.6
				S117.9,881.7,108.3,881.7z"/>
		</g>
		<g>
			<path class="st6" d="M108.3,1001.4c-14.1,0-25.4-11.3-25.4-25.4s11.3-25.4,25.4-25.4s25.4,11.3,25.4,25.4
				C133.7,990.1,122.2,1001.4,108.3,1001.4z M108.3,958.6c-9.8,0-17.6,7.8-17.6,17.6s7.8,17.6,17.6,17.6s17.6-7.8,17.6-17.6
				S117.9,958.6,108.3,958.6z"/>
		</g>
	</g>
	
		<linearGradient id="SVGID_1_" gradientUnits="userSpaceOnUse" x1="220.2925" y1="254.097" x2="220.2925" y2="919.127" gradientTransform="matrix(1 0 0 -1 0 1078)">
		<stop  offset="0" style="stop-color:#FFFFFF"/>
		<stop  offset="1" style="stop-color:#62B5E5"/>
	</linearGradient>
	<polygon class="st7" points="82.9,823.8 357.7,158.9 357.7,823.9 	"/>
	
		<linearGradient id="SVGID_2_" gradientUnits="userSpaceOnUse" x1="494.619" y1="254.698" x2="494.619" y2="917.867" gradientTransform="matrix(1 0 0 -1 0 1078)">
		<stop  offset="0" style="stop-color:#FFFFFF"/>
		<stop  offset="0.6047" style="stop-color:#D93963"/>
	</linearGradient>
	<path class="st8" d="M82.9,823.2c0,0,103.8-41.8,185.5-138.9c100-118.9,227.4,71.4,123.3,87.8c-104.1,16.4-44-217.8,82.4-163.8
		c326.7,123.6,350.4-280,164.1-296.5c-131.3-11.6-32.9,305,268.1-151.8v663.2L82.9,823.2z"/>
	<path class="st9" d="M82.9,823.2c0,0,103.8-41.8,185.5-138.9c100-118.9,227.4,71.4,123.3,87.8c-104.1,16.4-44-217.8,82.4-163.8
		c326.7,123.6,350.4-280,164.1-296.5c-131.3-11.6-32.9,305,268.1-151.8"/>
	<line class="st10" x1="82.9" y1="823.8" x2="357.7" y2="158.9"/>
</g>
<g>
	<path class="st11" d="M768.3,923.5h-4.9v-31.4c0-2.6,0.1-5.1,0.2-7.4c-0.4,0.4-0.9,0.9-1.4,1.3c-0.5,0.5-2.9,2.4-7.2,5.9l-2.6-3.4
		l11.7-9h4.2V923.5z"/>
	<path class="st11" d="M801.7,899.7h12.4v4.2h-12.4v12.8h-4.2v-12.8h-12.3v-4.2h12.3v-12.9h4.2V899.7z"/>
	<path class="st11" d="M867.1,923.5l-5.5-14H844l-5.4,14h-5.2l17.4-44.2h4.3l17.3,44.2H867.1z M860,904.9l-5.1-13.6
		c-0.7-1.7-1.3-3.8-2-6.4c-0.4,1.9-1.1,4-1.9,6.4l-5.2,13.6H860z"/>
	<path class="st11" d="M900.3,923.5v-21.3c0-2.7-0.6-4.7-1.8-6c-1.2-1.3-3.1-2-5.8-2c-3.5,0-6,0.9-7.6,2.8c-1.6,1.9-2.4,4.9-2.4,9.2
		v17.3h-5v-33h4.1l0.8,4.5h0.2c1-1.6,2.5-2.9,4.3-3.8c1.8-0.9,3.9-1.3,6.2-1.3c4,0,7,1,9,2.9c2,1.9,3,5,3,9.2v21.5H900.3z"/>
</g>
<g>
	<g>
		<path class="st11" d="M175.8,982.8c0,3-1.1,5.4-3.3,7.2c-2.2,1.7-5.2,2.6-9.1,2.6c-3.6,0-6.7-0.7-9.5-2V984c2.3,1,4.2,1.7,5.7,2.1
			c1.6,0.4,3,0.6,4.3,0.6c1.6,0,2.8-0.3,3.6-0.9c0.8-0.6,1.3-1.5,1.3-2.7c0-0.7-0.2-1.2-0.6-1.8s-0.9-1-1.6-1.5
			c-0.7-0.5-2.2-1.2-4.3-2.3c-2.1-1-3.6-1.9-4.6-2.8c-1-0.9-1.8-1.9-2.5-3.1c-0.6-1.2-0.9-2.6-0.9-4.1c0-3,1-5.3,3-7
			c2-1.7,4.8-2.5,8.3-2.5c1.7,0,3.4,0.2,5,0.6c1.6,0.4,3.2,1,5,1.7l-2.3,5.5c-1.8-0.7-3.3-1.2-4.4-1.5c-1.2-0.3-2.3-0.4-3.5-0.4
			c-1.3,0-2.4,0.3-3.1,0.9c-0.7,0.6-1.1,1.4-1.1,2.5c0,0.6,0.1,1.2,0.4,1.6c0.3,0.5,0.8,0.9,1.4,1.4c0.6,0.4,2.1,1.2,4.5,2.4
			c3.1,1.5,5.3,3,6.4,4.5C175.2,978.8,175.8,980.7,175.8,982.8z"/>
		<path class="st11" d="M197.6,992.2l-1.4-3.5h-0.2c-1.2,1.5-2.4,2.5-3.6,3.1c-1.2,0.6-2.9,0.9-4.9,0.9c-2.5,0-4.4-0.7-5.8-2.1
			c-1.4-1.4-2.1-3.4-2.1-6c0-2.7,1-4.7,2.9-6c1.9-1.3,4.8-2,8.6-2.1l4.5-0.1v-1.1c0-2.6-1.3-3.9-4-3.9c-2.1,0-4.5,0.6-7.2,1.9
			l-2.3-4.7c3-1.5,6.2-2.3,9.8-2.3c3.4,0,6.1,0.8,7.9,2.2c1.8,1.5,2.8,3.8,2.8,6.8v17.1H197.6z M195.6,980.3l-2.7,0.1
			c-2,0.1-3.5,0.4-4.5,1.1c-1,0.7-1.5,1.7-1.5,3.1c0,2,1.1,3,3.4,3c1.6,0,2.9-0.5,3.9-1.4c1-0.9,1.5-2.2,1.5-3.7V980.3z"/>
		<path class="st11" d="M233.4,992.2h-7v-15c0-1.9-0.3-3.2-1-4.2c-0.7-0.9-1.7-1.4-3.1-1.4c-2,0-3.4,0.7-4.2,2
			c-0.9,1.3-1.3,3.5-1.3,6.5v12.1h-7v-25.7h5.3l0.9,3.3h0.4c0.8-1.2,1.9-2.2,3.2-2.8s2.9-1,4.7-1c3,0,5.2,0.8,6.8,2.4
			c1.5,1.6,2.3,3.9,2.3,7V992.2z"/>
		<path class="st11" d="M258.5,984.5c0,2.6-0.9,4.6-2.7,6c-1.8,1.4-4.6,2.1-8.2,2.1c-1.9,0-3.5-0.1-4.8-0.4
			c-1.3-0.3-2.5-0.6-3.7-1.1v-5.8c1.3,0.6,2.8,1.1,4.4,1.5c1.6,0.4,3.1,0.6,4.3,0.6c2.5,0,3.8-0.7,3.8-2.2c0-0.6-0.2-1-0.5-1.3
			c-0.3-0.3-0.9-0.7-1.7-1.2c-0.8-0.4-1.9-0.9-3.3-1.5c-2-0.8-3.4-1.6-4.3-2.3c-0.9-0.7-1.6-1.5-2-2.4c-0.4-0.9-0.6-2-0.6-3.4
			c0-2.3,0.9-4,2.7-5.3c1.8-1.2,4.3-1.9,7.5-1.9c3.1,0,6.1,0.7,9,2l-2.1,5c-1.3-0.6-2.5-1-3.6-1.4c-1.1-0.4-2.3-0.5-3.4-0.5
			c-2.1,0-3.1,0.6-3.1,1.7c0,0.6,0.3,1.2,1,1.6c0.7,0.5,2.1,1.1,4.4,2c2,0.8,3.5,1.6,4.4,2.3c0.9,0.7,1.6,1.5,2.1,2.4
			C258.3,982.2,258.5,983.3,258.5,984.5z"/>
		<path class="st11" d="M291,964c-2.7,0-4.8,1-6.2,3s-2.2,4.8-2.2,8.4c0,7.5,2.8,11.2,8.4,11.2c2.4,0,5.2-0.6,8.6-1.8v6
			c-2.8,1.1-5.8,1.7-9.2,1.7c-4.9,0-8.6-1.5-11.2-4.4c-2.6-3-3.9-7.2-3.9-12.7c0-3.5,0.6-6.5,1.9-9.2c1.3-2.6,3.1-4.6,5.5-6
			c2.4-1.4,5.2-2.1,8.4-2.1c3.3,0,6.5,0.8,9.8,2.4l-2.3,5.8c-1.3-0.6-2.5-1.1-3.8-1.6C293.5,964.3,292.2,964,291,964z"/>
		<path class="st11" d="M313.1,992.2h-7v-35.7h7V992.2z"/>
		<path class="st11" d="M343.8,979.3c0,4.2-1.1,7.4-3.3,9.8c-2.2,2.4-5.3,3.5-9.2,3.5c-2.5,0-4.6-0.5-6.5-1.6
			c-1.9-1.1-3.3-2.6-4.3-4.6s-1.5-4.4-1.5-7.1c0-4.2,1.1-7.5,3.3-9.8c2.2-2.3,5.3-3.5,9.2-3.5c2.5,0,4.6,0.5,6.5,1.6
			c1.9,1.1,3.3,2.6,4.3,4.6C343.3,974.2,343.8,976.6,343.8,979.3z M326.1,979.3c0,2.5,0.4,4.5,1.3,5.8c0.8,1.3,2.2,2,4.1,2
			c1.9,0,3.2-0.6,4-1.9c0.8-1.3,1.2-3.2,1.2-5.8c0-2.5-0.4-4.4-1.2-5.7c-0.8-1.3-2.2-1.9-4.1-1.9c-1.9,0-3.2,0.6-4,1.9
			C326.5,974.8,326.1,976.7,326.1,979.3z"/>
		<path class="st11" d="M367.8,992.2l-0.9-3.3h-0.4c-0.7,1.2-1.8,2.1-3.2,2.8c-1.4,0.7-2.9,1-4.7,1c-3,0-5.3-0.8-6.8-2.4
			c-1.5-1.6-2.3-3.9-2.3-7v-16.7h7v15c0,1.9,0.3,3.2,1,4.2c0.7,0.9,1.7,1.4,3.1,1.4c2,0,3.4-0.7,4.2-2c0.9-1.3,1.3-3.5,1.3-6.5
			v-12.1h7v25.7H367.8z"/>
		<path class="st11" d="M388.6,992.6c-3,0-5.4-1.2-7.1-3.5c-1.7-2.3-2.6-5.6-2.6-9.7c0-4.2,0.9-7.5,2.6-9.8c1.8-2.3,4.2-3.5,7.2-3.5
			c3.2,0,5.7,1.3,7.4,3.8h0.2c-0.4-1.9-0.5-3.6-0.5-5.1v-8.2h7v35.7h-5.4l-1.4-3.3h-0.3C394.3,991.4,391.9,992.6,388.6,992.6z
			 M391.1,987c1.8,0,3.1-0.5,3.9-1.6c0.8-1,1.3-2.8,1.4-5.3v-0.8c0-2.8-0.4-4.7-1.3-5.9c-0.8-1.2-2.2-1.8-4.1-1.8
			c-1.6,0-2.8,0.7-3.6,2c-0.9,1.3-1.3,3.2-1.3,5.8c0,2.5,0.4,4.4,1.3,5.7C388.2,986.4,389.4,987,391.1,987z"/>
		<path class="st11" d="M441.2,975.3c0,5.6-1.4,9.8-4.1,12.8c-2.8,3-6.7,4.5-11.8,4.5s-9.1-1.5-11.8-4.5c-2.8-3-4.1-7.3-4.1-12.9
			c0-5.6,1.4-9.8,4.1-12.8c2.8-2.9,6.7-4.4,11.9-4.4c5.2,0,9.1,1.5,11.8,4.5C439.9,965.5,441.2,969.8,441.2,975.3z M416.7,975.3
			c0,3.7,0.7,6.6,2.1,8.5c1.4,1.9,3.5,2.8,6.4,2.8c5.7,0,8.5-3.8,8.5-11.3c0-7.6-2.8-11.3-8.5-11.3c-2.8,0-5,1-6.4,2.9
			C417.5,968.8,416.7,971.6,416.7,975.3z"/>
		<path class="st11" d="M461.7,992.6c-3,0-5.4-1.1-7.1-3.3h-0.4c0.2,2.1,0.4,3.4,0.4,3.7v10.4h-7v-36.9h5.7l1,3.3h0.3
			c1.6-2.5,4.1-3.8,7.3-3.8c3,0,5.4,1.2,7.1,3.5c1.7,2.3,2.6,5.6,2.6,9.8c0,2.7-0.4,5.1-1.2,7.1c-0.8,2-1.9,3.6-3.4,4.6
			C465.5,992.1,463.7,992.6,461.7,992.6z M459.7,971.6c-1.7,0-3,0.5-3.8,1.6c-0.8,1.1-1.2,2.8-1.2,5.3v0.8c0,2.8,0.4,4.7,1.2,5.9
			c0.8,1.2,2.1,1.8,3.9,1.8c3.1,0,4.7-2.6,4.7-7.8c0-2.5-0.4-4.4-1.2-5.7C462.5,972.2,461.3,971.6,459.7,971.6z"/>
		<path class="st11" d="M495.3,984.5c0,2.6-0.9,4.6-2.7,6c-1.8,1.4-4.6,2.1-8.2,2.1c-1.9,0-3.5-0.1-4.8-0.4
			c-1.3-0.3-2.5-0.6-3.7-1.1v-5.8c1.3,0.6,2.8,1.1,4.4,1.5c1.6,0.4,3.1,0.6,4.3,0.6c2.5,0,3.8-0.7,3.8-2.2c0-0.6-0.2-1-0.5-1.3
			c-0.3-0.3-0.9-0.7-1.7-1.2c-0.8-0.4-1.9-0.9-3.3-1.5c-2-0.8-3.4-1.6-4.3-2.3c-0.9-0.7-1.6-1.5-2-2.4c-0.4-0.9-0.6-2-0.6-3.4
			c0-2.3,0.9-4,2.7-5.3c1.8-1.2,4.3-1.9,7.5-1.9c3.1,0,6.1,0.7,9,2l-2.1,5c-1.3-0.6-2.5-1-3.6-1.4c-1.1-0.4-2.3-0.5-3.4-0.5
			c-2.1,0-3.1,0.6-3.1,1.7c0,0.6,0.3,1.2,1,1.6c0.7,0.5,2.1,1.1,4.4,2c2,0.8,3.5,1.6,4.4,2.3c0.9,0.7,1.6,1.5,2.1,2.4
			C495.1,982.2,495.3,983.3,495.3,984.5z"/>
	</g>
</g>
<g>
	<path class="st11" d="M278.4,100.3c0,3.9-1.4,6.9-4.2,9c-2.8,2.2-6.6,3.2-11.4,3.2c-5.2,0-9.2-0.7-12-2v-4.9
		c1.8,0.8,3.8,1.4,5.9,1.8c2.1,0.4,4.2,0.7,6.3,0.7c3.4,0,6-0.6,7.7-1.9c1.7-1.3,2.6-3.1,2.6-5.4c0-1.5-0.3-2.8-0.9-3.7
		c-0.6-1-1.6-1.9-3.1-2.7c-1.4-0.8-3.6-1.8-6.5-2.8c-4.1-1.5-7-3.2-8.8-5.2c-1.8-2-2.6-4.6-2.6-7.8c0-3.4,1.3-6.1,3.8-8.1
		c2.5-2,5.9-3,10.1-3c4.4,0,8.4,0.8,12.1,2.4l-1.6,4.4c-3.6-1.5-7.2-2.3-10.6-2.3c-2.7,0-4.8,0.6-6.3,1.7c-1.5,1.2-2.3,2.8-2.3,4.8
		c0,1.5,0.3,2.8,0.8,3.7c0.6,1,1.5,1.9,2.8,2.7c1.3,0.8,3.4,1.7,6.1,2.7c4.6,1.6,7.8,3.4,9.5,5.3C277.5,94.9,278.4,97.3,278.4,100.3
		z"/>
	<path class="st11" d="M291.3,79.1v21.4c0,2.7,0.6,4.7,1.8,6c1.2,1.3,3.1,2,5.7,2c3.4,0,6-0.9,7.6-2.8c1.6-1.9,2.4-5,2.4-9.2V79.1h5
		V112h-4.1l-0.7-4.4h-0.3c-1,1.6-2.4,2.9-4.3,3.7c-1.8,0.9-3.9,1.3-6.2,1.3c-4,0-7-1-9-2.9c-2-1.9-3-4.9-3-9.1V79.1H291.3z"/>
	<path class="st11" d="M337.6,112.6c-4.8,0-8.5-1.5-11.1-4.4s-3.9-7.1-3.9-12.5c0-5.5,1.3-9.8,4-12.8c2.7-3,6.4-4.5,11.3-4.5
		c1.6,0,3.2,0.2,4.7,0.5c1.6,0.3,2.8,0.7,3.7,1.2l-1.5,4.2c-1.1-0.4-2.3-0.8-3.6-1.1c-1.3-0.3-2.5-0.4-3.5-0.4
		c-6.7,0-10,4.3-10,12.8c0,4,0.8,7.2,2.5,9.3c1.6,2.2,4.1,3.2,7.3,3.2c2.7,0,5.6-0.6,8.4-1.8v4.4
		C343.7,112.1,340.9,112.6,337.6,112.6z"/>
	<path class="st11" d="M366.9,112.6c-4.8,0-8.5-1.5-11.1-4.4c-2.6-2.9-3.9-7.1-3.9-12.5c0-5.5,1.3-9.8,4-12.8
		c2.7-3,6.4-4.5,11.3-4.5c1.6,0,3.2,0.2,4.7,0.5c1.6,0.3,2.8,0.7,3.7,1.2l-1.5,4.2c-1.1-0.4-2.3-0.8-3.6-1.1
		c-1.3-0.3-2.5-0.4-3.5-0.4c-6.7,0-10,4.3-10,12.8c0,4,0.8,7.2,2.5,9.3c1.6,2.2,4.1,3.2,7.3,3.2c2.7,0,5.6-0.6,8.4-1.8v4.4
		C373,112.1,370.2,112.6,366.9,112.6z"/>
	<path class="st11" d="M396.9,112.6c-4.9,0-8.7-1.5-11.5-4.4c-2.8-3-4.2-7.1-4.2-12.4c0-5.3,1.3-9.5,3.9-12.7
		c2.6-3.1,6.1-4.7,10.5-4.7c4.1,0,7.4,1.4,9.8,4.1c2.4,2.7,3.6,6.3,3.6,10.7v3.2h-22.7c0.1,3.9,1.1,6.8,2.9,8.8c1.9,2,4.5,3,7.8,3
		c3.5,0,7.1-0.7,10.5-2.2v4.4c-1.8,0.8-3.4,1.3-5,1.6C401.1,112.5,399.2,112.6,396.9,112.6z M395.6,82.7c-2.6,0-4.8,0.9-6.3,2.6
		c-1.6,1.7-2.5,4.1-2.8,7.2h17.2c0-3.1-0.7-5.6-2.1-7.2C400.2,83.5,398.2,82.7,395.6,82.7z M399.1,74.7h-3.3c-1.3-1-2.8-2.5-4.6-4.4
		c-1.8-1.9-3.1-3.5-3.9-4.8v-0.6h6.1c0.6,1.4,1.5,3,2.7,4.8c1.1,1.8,2.2,3.3,3,4.3V74.7z"/>
	<path class="st11" d="M438.8,103c0,3.1-1.1,5.4-3.4,7.1c-2.3,1.7-5.5,2.5-9.6,2.5c-4.4,0-7.8-0.7-10.2-2.1v-4.6
		c1.6,0.8,3.3,1.4,5.1,1.9c1.8,0.5,3.6,0.7,5.2,0.7c2.6,0,4.6-0.4,6-1.2c1.4-0.8,2.1-2.1,2.1-3.8c0-1.3-0.6-2.4-1.7-3.3
		c-1.1-0.9-3.3-2-6.5-3.2c-3.1-1.1-5.2-2.1-6.5-3c-1.3-0.9-2.3-1.8-2.9-2.9c-0.6-1.1-0.9-2.4-0.9-3.9c0-2.7,1.1-4.8,3.3-6.4
		c2.2-1.6,5.2-2.3,9-2.3c3.5,0,7,0.7,10.4,2.2l-1.8,4.1c-3.3-1.4-6.3-2-9-2c-2.4,0-4.1,0.4-5.3,1.1c-1.2,0.7-1.8,1.8-1.8,3.1
		c0,0.9,0.2,1.6,0.7,2.3c0.5,0.6,1.2,1.2,2.2,1.8c1,0.6,2.9,1.4,5.8,2.4c3.9,1.4,6.5,2.9,7.9,4.3C438.1,99,438.8,100.9,438.8,103z"
		/>
</g>
<g>
	<g>
		<path class="st11" d="M178.7,914.6l-2.4-8H164l-2.4,8h-7.7l11.8-33.7h8.7l11.9,33.7H178.7z M174.6,900.6
			c-2.2-7.2-3.5-11.3-3.8-12.3c-0.3-0.9-0.5-1.7-0.6-2.2c-0.5,2-2,6.8-4.3,14.5H174.6z"/>
		<path class="st11" d="M196.2,914.6l-9.8-25.7h7.3l5,14.6c0.6,1.9,0.9,3.6,1,5.3h0.1c0.1-1.5,0.4-3.2,1-5.3l4.9-14.6h7.3l-9.8,25.7
			H196.2z"/>
		<path class="st11" d="M228.4,915c-4.1,0-7.4-1.1-9.7-3.4c-2.3-2.3-3.5-5.5-3.5-9.7c0-4.3,1.1-7.6,3.2-10c2.1-2.3,5.1-3.5,8.9-3.5
			c3.6,0,6.4,1,8.5,3.1s3,4.9,3,8.6v3.4h-16.5c0.1,2,0.7,3.5,1.8,4.7c1.1,1.1,2.6,1.7,4.6,1.7c1.5,0,3-0.2,4.4-0.5s2.8-0.8,4.3-1.5
			v5.4c-1.2,0.6-2.5,1.1-3.9,1.4C232.1,914.9,230.4,915,228.4,915z M227.4,893.4c-1.5,0-2.6,0.5-3.5,1.4c-0.8,0.9-1.3,2.3-1.4,4h9.8
			c0-1.7-0.5-3.1-1.4-4C230.1,893.9,228.9,893.4,227.4,893.4z"/>
		<path class="st11" d="M255,915c-8,0-12-4.4-12-13.2c0-4.4,1.1-7.7,3.3-10c2.2-2.3,5.3-3.5,9.3-3.5c3,0,5.6,0.6,8,1.7l-2.1,5.4
			c-1.1-0.4-2.1-0.8-3.1-1.1c-0.9-0.3-1.9-0.4-2.8-0.4c-3.6,0-5.5,2.6-5.5,7.8c0,5,1.8,7.5,5.5,7.5c1.3,0,2.6-0.2,3.7-0.5
			c1.1-0.4,2.3-0.9,3.4-1.7v6c-1.1,0.7-2.3,1.2-3.4,1.5C258.2,914.9,256.7,915,255,915z"/>
		<path class="st11" d="M295.7,886.4c-2.7,0-4.8,1-6.2,3s-2.2,4.8-2.2,8.4c0,7.5,2.8,11.2,8.4,11.2c2.4,0,5.2-0.6,8.6-1.8v6
			c-2.8,1.1-5.8,1.7-9.2,1.7c-4.9,0-8.6-1.5-11.2-4.4c-2.6-3-3.9-7.2-3.9-12.7c0-3.5,0.6-6.5,1.9-9.2c1.3-2.6,3.1-4.6,5.5-6
			c2.4-1.4,5.2-2.1,8.4-2.1c3.3,0,6.5,0.8,9.8,2.4l-2.3,5.8c-1.3-0.6-2.5-1.1-3.8-1.6C298.2,886.7,297,886.4,295.7,886.4z"/>
		<path class="st11" d="M317.9,914.6h-7v-35.7h7V914.6z"/>
		<path class="st11" d="M348.5,901.7c0,4.2-1.1,7.4-3.3,9.8c-2.2,2.4-5.3,3.5-9.2,3.5c-2.5,0-4.6-0.5-6.5-1.6
			c-1.9-1.1-3.3-2.6-4.3-4.6s-1.5-4.4-1.5-7.1c0-4.2,1.1-7.5,3.3-9.8c2.2-2.3,5.3-3.5,9.2-3.5c2.5,0,4.6,0.5,6.5,1.6
			c1.9,1.1,3.3,2.6,4.3,4.6C348,896.6,348.5,899,348.5,901.7z M330.8,901.7c0,2.5,0.4,4.5,1.3,5.8c0.8,1.3,2.2,2,4.1,2
			c1.9,0,3.2-0.6,4-1.9c0.8-1.3,1.2-3.2,1.2-5.8c0-2.5-0.4-4.4-1.2-5.7c-0.8-1.3-2.2-1.9-4.1-1.9c-1.9,0-3.2,0.6-4,1.9
			C331.2,897.2,330.8,899.1,330.8,901.7z"/>
		<path class="st11" d="M372.5,914.6l-0.9-3.3h-0.4c-0.7,1.2-1.8,2.1-3.2,2.8c-1.4,0.7-2.9,1-4.7,1c-3,0-5.3-0.8-6.8-2.4
			c-1.5-1.6-2.3-3.9-2.3-7v-16.7h7v15c0,1.9,0.3,3.2,1,4.2c0.7,0.9,1.7,1.4,3.1,1.4c2,0,3.4-0.7,4.2-2c0.9-1.3,1.3-3.5,1.3-6.5
			v-12.1h7v25.7H372.5z"/>
		<path class="st11" d="M393.3,915c-3,0-5.4-1.2-7.1-3.5c-1.7-2.3-2.6-5.6-2.6-9.7c0-4.2,0.9-7.5,2.6-9.8c1.8-2.3,4.2-3.5,7.2-3.5
			c3.2,0,5.7,1.3,7.4,3.8h0.2c-0.4-1.9-0.5-3.6-0.5-5.1v-8.2h7v35.7h-5.4l-1.4-3.3h-0.3C399,913.8,396.6,915,393.3,915z
			 M395.8,909.4c1.8,0,3.1-0.5,3.9-1.6c0.8-1,1.3-2.8,1.4-5.3v-0.8c0-2.8-0.4-4.7-1.3-5.9c-0.8-1.2-2.2-1.8-4.1-1.8
			c-1.6,0-2.8,0.7-3.6,2c-0.9,1.3-1.3,3.2-1.3,5.8c0,2.5,0.4,4.4,1.3,5.7C392.9,908.8,394.2,909.4,395.8,909.4z"/>
		<path class="st11" d="M446,897.7c0,5.6-1.4,9.8-4.1,12.8c-2.8,3-6.7,4.5-11.8,4.5s-9.1-1.5-11.8-4.5c-2.8-3-4.1-7.3-4.1-12.9
			c0-5.6,1.4-9.8,4.1-12.8c2.8-2.9,6.7-4.4,11.9-4.4c5.2,0,9.1,1.5,11.8,4.5C444.6,887.9,446,892.2,446,897.7z M421.5,897.7
			c0,3.7,0.7,6.6,2.1,8.5c1.4,1.9,3.5,2.8,6.4,2.8c5.7,0,8.5-3.8,8.5-11.3c0-7.6-2.8-11.3-8.5-11.3c-2.8,0-5,1-6.4,2.9
			C422.2,891.2,421.5,894,421.5,897.7z"/>
		<path class="st11" d="M466.4,915c-3,0-5.4-1.1-7.1-3.3H459c0.2,2.1,0.4,3.4,0.4,3.7v10.4h-7v-36.9h5.7l1,3.3h0.3
			c1.6-2.5,4.1-3.8,7.3-3.8c3,0,5.4,1.2,7.1,3.5c1.7,2.3,2.6,5.6,2.6,9.8c0,2.7-0.4,5.1-1.2,7.1c-0.8,2-1.9,3.6-3.4,4.6
			C470.2,914.5,468.5,915,466.4,915z M464.4,894c-1.7,0-3,0.5-3.8,1.6c-0.8,1.1-1.2,2.8-1.2,5.3v0.8c0,2.8,0.4,4.7,1.2,5.9
			c0.8,1.2,2.1,1.8,3.9,1.8c3.1,0,4.7-2.6,4.7-7.8c0-2.5-0.4-4.4-1.2-5.7C467.2,894.6,466,894,464.4,894z"/>
		<path class="st11" d="M500,906.9c0,2.6-0.9,4.6-2.7,6c-1.8,1.4-4.6,2.1-8.2,2.1c-1.9,0-3.5-0.1-4.8-0.4c-1.3-0.3-2.5-0.6-3.7-1.1
			v-5.8c1.3,0.6,2.8,1.1,4.4,1.5c1.6,0.4,3.1,0.6,4.3,0.6c2.5,0,3.8-0.7,3.8-2.2c0-0.6-0.2-1-0.5-1.3c-0.3-0.3-0.9-0.7-1.7-1.2
			c-0.8-0.4-1.9-0.9-3.3-1.5c-2-0.8-3.4-1.6-4.3-2.3c-0.9-0.7-1.6-1.5-2-2.4c-0.4-0.9-0.6-2-0.6-3.4c0-2.3,0.9-4,2.7-5.3
			c1.8-1.2,4.3-1.9,7.5-1.9c3.1,0,6.1,0.7,9,2l-2.1,5c-1.3-0.6-2.5-1-3.6-1.4c-1.1-0.4-2.3-0.5-3.4-0.5c-2.1,0-3.1,0.6-3.1,1.7
			c0,0.6,0.3,1.2,1,1.6c0.7,0.5,2.1,1.1,4.4,2c2,0.8,3.5,1.6,4.4,2.3c0.9,0.7,1.6,1.5,2.1,2.4C499.8,904.6,500,905.7,500,906.9z"/>
	</g>
</g>
</svg>
