<?xml version="1.0" encoding="utf-8"?>
<!-- Generator: Adobe Illustrator 24.1.0, SVG Export Plug-In . SVG Version: 6.00 Build 0)  -->
<svg version="1.1" id="Layer_1" xmlns="http://www.w3.org/2000/svg" xmlns:xlink="http://www.w3.org/1999/xlink" x="0px" y="0px"
	 viewBox="0 0 399.349 301.034" enable-background="new 0 0 399.349 301.034" xml:space="preserve">
<g>
	
		<linearGradient id="SVGID_2_" gradientUnits="userSpaceOnUse" x1="-1765.8472" y1="10746.8584" x2="-1542.7772" y2="10969.9277" gradientTransform="matrix(-1 0 0 -1 -1445.217 11027.0811)">
		<stop  offset="0" style="stop-color:#C1C6C8"/>
		<stop  offset="0.165" style="stop-color:#CACED0"/>
		<stop  offset="0.6789" style="stop-color:#E1E4E5"/>
		<stop  offset="1" style="stop-color:#EAECED"/>
	</linearGradient>
	<path fill="url(#SVGID_2_)" d="M0,179.845c0-33.509,27.146-60.655,60.655-60.655c4.03,0,7.847,0.424,11.664,1.06
		c-1.06-4.03-1.697-8.483-1.697-12.937c0-27.995,22.693-50.687,50.687-50.687c12.513,0,23.753,4.454,32.661,11.877
		C165.636,28.843,202.326,0,245.802,0c52.808,0,95.861,42.84,95.861,95.861c0,4.03-0.212,8.059-0.848,12.089
		c32.873,3.818,58.534,31.812,58.534,65.957c0,36.69-29.691,66.594-66.594,66.594H49.627C22.269,234.562,0,208.9,0,179.845z"/>
	<g>
		<polygon id="Fill-10_28_" fill-rule="evenodd" clip-rule="evenodd" fill="#FFFFFF" points="121.126,301.034 242.128,239.424 
			121.126,180.032 		"/>
		<polygon id="Fill-10_26_" fill-rule="evenodd" clip-rule="evenodd" fill="#FFFFFF" points="121.126,301.034 242.128,239.424 
			121.126,180.032 		"/>
		<polygon id="Fill-10_31_" fill-rule="evenodd" clip-rule="evenodd" fill="#005D91" fill-opacity="0.5" points="121.126,301.034 
			242.128,239.424 121.126,180.032 		"/>
		<polygon id="Fill-10_13_" fill-rule="evenodd" clip-rule="evenodd" fill="#FFE07F" points="0,301.034 121.126,239.424 0,180.032 
					"/>
	</g>
</g>
</svg>
