<svg id="Layer_1" data-name="Layer 1" xmlns="http://www.w3.org/2000/svg" viewBox="0 0 551.71 92.85"><defs><style>.cls-1{fill:#d0d2d3;}.cls-2{fill:#b4121b;}.cls-3{fill:#faaf3f;}.cls-4{fill:#00843f;}.cls-5{fill-rule:evenodd;}</style></defs><path d="M215.57,238.07A13.53,13.53,0,1,1,229.1,251.6a13.53,13.53,0,0,1-13.53-13.53Z" transform="translate(-117.8 -224.54)"/><path class="cls-1" d="M117.8,238.07a13.53,13.53,0,1,1,13.52,13.53,13.52,13.52,0,0,1-13.52-13.53Z" transform="translate(-117.8 -224.54)"/><path class="cls-1" d="M150.25,238.07a13.53,13.53,0,1,1,13.53,13.53,13.53,13.53,0,0,1-13.53-13.53Z" transform="translate(-117.8 -224.54)"/><path class="cls-1" d="M215.64,271a13.53,13.53,0,1,1,13.53,13.52A13.53,13.53,0,0,1,215.64,271Z" transform="translate(-117.8 -224.54)"/><path class="cls-2" d="M182.88,238.07a13.53,13.53,0,1,1,13.53,13.53,13.53,13.53,0,0,1-13.53-13.53Z" transform="translate(-117.8 -224.54)"/><path class="cls-3" d="M182.88,271a13.53,13.53,0,1,1,13.53,13.52A13.53,13.53,0,0,1,182.88,271Z" transform="translate(-117.8 -224.54)"/><path class="cls-1" d="M150.62,303.87a13.53,13.53,0,1,1,13.52,13.53,13.52,13.52,0,0,1-13.52-13.53Z" transform="translate(-117.8 -224.54)"/><path class="cls-4" d="M182.88,303.82a13.53,13.53,0,1,1,13.53,13.52,13.53,13.53,0,0,1-13.53-13.52Z" transform="translate(-117.8 -224.54)"/><path class="cls-5" d="M304.49,260.68v-8.74H291.21c-16.43,0-21-1-21,15.93v49h9.93l0-56.17Z" transform="translate(-117.8 -224.54)"/><path class="cls-5" d="M320.56,251.61v9.45c24,0,28.26,1.1,28.26,13.52h-18c-13.73,0-21.64,2.59-21.64,21.33a34,34,0,0,0,1.06,9.16h0c2.67,9.58,10.17,11.38,20,11.38,7,0,15.1-.27,18.28-8v8.26h10.19V273.52C358.76,251.18,343,251.61,320.56,251.61Zm24.1,53.47c-3.06,2.31-7.63,2.39-12.16,2.39-5,0-8.5-.19-10.61-2.4h0c-1.72-1.8-2.54-4.95-2.54-10.41,0-10.36,3.79-11.17,13.15-11.09,7,.05,15.83,0,15.83,0v11.95c0,5-1.43,7.86-3.68,9.55h0Z" transform="translate(-117.8 -224.54)"/><path class="cls-5" d="M413.84,228.07v23.55H394.41c-21.5,0-23.55,13.48-23.55,32.61,0,8.27.38,15.4,2.51,20.85h0c2.85,7.31,8.8,11.59,21,11.59,17.44,0,19.43-9.17,19.43-9.17v9.21h10V228.07Zm-5.33,77c-2.37,1.6-5.75,2.2-10.52,2.2-4.93,0-8.5-.39-11-2.21h0c-3.73-2.68-5.12-8.47-5.12-20.65,0-20.62,3-23,16.14-23,8.95,0,15.87-.1,15.86,0,0,3.67,0,17.14,0,23,0,11.67-1,17.78-5.3,20.65h0Z" transform="translate(-117.8 -224.54)"/><polygon class="cls-5" points="395.97 27.08 386.4 27.08 375.78 72.74 360.57 27.08 352.34 27.08 337.53 72.74 326.12 27.08 315.87 27.08 331.84 92.16 341.03 92.16 356.17 43.1 371.42 92.16 380.65 92.16 395.97 27.08"/><path class="cls-5" d="M527.82,251.61s0,9.43,0,9.45c24,0,28.27,1.1,28.27,13.52h-18c-13.72,0-21.64,2.59-21.64,21.33a34,34,0,0,0,1.07,9.16h0c2.67,9.58,10.16,11.38,20,11.38,7,0,15.1-.27,18.26-8v8.26H566V273.52C566,251.18,550.25,251.61,527.82,251.61Zm24.1,53.47c-3.06,2.31-7.62,2.39-12.17,2.39-5,0-8.48-.19-10.6-2.4h0c-1.73-1.8-2.55-4.95-2.55-10.41,0-10.36,3.79-11.17,13.15-11.09,7,.05,15.85,0,15.85,0v11.95c0,5-1.43,7.86-3.68,9.55h0Z" transform="translate(-117.8 -224.54)"/><path class="cls-5" d="M611,260.68v-8.74H597.71c-16.44,0-21-1-21,15.93v49h9.94l0-56.17Z" transform="translate(-117.8 -224.54)"/><path class="cls-5" d="M643.2,250.64c-26.28,0-34.78,35.17-22.11,54.43l0,0h0c4.93,7.51,13,12.61,24.6,12.28A56.34,56.34,0,0,0,668.17,312s0-10.44,0-10.47a38.55,38.55,0,0,1-7.91,3.51h0c-7.48,2.46-17.8,4-25.21,0h0c-5.47-2.95-9.35-8.92-9.35-19.8h43.53S674.36,250.64,643.2,250.64ZM625.78,276c.8-5.55,4.54-16.49,18-16.49,13.62,0,15.55,10.53,15.78,16.49Z" transform="translate(-117.8 -224.54)"/></svg>