<?xml version="1.0" encoding="utf-8"?>
<!-- Generator: Adobe Illustrator 25.1.0, SVG Export Plug-In . SVG Version: 6.00 Build 0)  -->
<svg version="1.1" id="Layer_1" xmlns="http://www.w3.org/2000/svg" xmlns:xlink="http://www.w3.org/1999/xlink" x="0px" y="0px"
	 viewBox="0 0 371.2 285" style="enable-background:new 0 0 371.2 285;" xml:space="preserve">
<style type="text/css">
	.st0{fill:#E6E8E9;}
	.st1{fill:#62B5E5;}
	.st2{fill:#D93963;}
	.st3{fill:#FFE07F;}
	.st4{fill:#81AA43;}
	.st5{fill:#4B4F54;}
	.st6{fill:#005D91;}
	.st7{fill:#C0E1F5;}
	.st8{fill:#E6EED9;}
	.st9{fill:#FFFFFF;}
	.st10{fill:#A32B4A;}
</style>
<g>
	<g>
		<path class="st2" d="M120.7,285H47.6c0,0-0.1,0-0.1-0.1V36.6C47.5,16.4,63.9,0,84.1,0h0c20.2,0,36.6,16.4,36.6,36.6L120.7,285
			C120.7,285,120.7,285,120.7,285z"/>
		<path class="st3" d="M222.1,285H149c0,0-0.1,0-0.1-0.1V86.7c0-20.2,16.4-36.6,36.6-36.6h0c20.2,0,36.6,16.4,36.6,36.6L222.1,285
			C222.2,285,222.2,285,222.1,285z"/>
		<path class="st4" d="M323.6,285h-73.1c0,0-0.1,0-0.1-0.1V136.8c0-20.2,16.4-36.6,36.6-36.6h0c20.2,0,36.6,16.4,36.6,36.6
			L323.6,285C323.7,285,323.6,285,323.6,285z"/>
	</g>
	<path class="st5" d="M345.5,285H25.6C11.5,285,0,273.5,0,259.3v0c0-14.2,11.5-25.6,25.6-25.6h319.9c14.2,0,25.6,11.5,25.6,25.6v0
		C371.2,273.5,359.7,285,345.5,285z"/>
</g>
</svg>
