<?xml version="1.0" encoding="utf-8"?>
<!-- Generator: Adobe Illustrator 25.1.0, SVG Export Plug-In . SVG Version: 6.00 Build 0)  -->
<svg version="1.1" id="Layer_1" xmlns="http://www.w3.org/2000/svg" xmlns:xlink="http://www.w3.org/1999/xlink" x="0px" y="0px"
	 viewBox="0 0 164.602 164.602" enable-background="new 0 0 164.602 164.602" xml:space="preserve">
<circle fill="#ECD180" cx="82.301" cy="82.301" r="82.301"/>
<g>
	<circle fill="#C64764" cx="68.985" cy="69.167" r="36.933"/>
	<circle fill="#74B0DC" cx="68.985" cy="69.167" r="25.3"/>
	<circle fill="#85A452" cx="68.985" cy="69.167" r="15.21"/>
	<circle fill="#F7DC89" cx="68.985" cy="69.167" r="7.268"/>
</g>
<g>
	<path fill="#FFFFFF" d="M25.929,103.747c0-9.46,7.664-17.124,17.124-17.124c1.138,0,2.215,0.12,3.293,0.299
		c-0.299-1.138-0.479-2.395-0.479-3.652c0-7.904,6.407-14.31,14.31-14.31c3.533,0,6.706,1.257,9.221,3.353
		c3.293-11.197,13.652-19.34,25.926-19.34c14.909,0,27.064,12.095,27.064,27.064c0,1.138-0.06,2.275-0.239,3.413
		c9.281,1.078,16.526,8.981,16.526,18.621c0,10.358-8.383,18.801-18.801,18.801H39.939C32.215,119.195,25.929,111.95,25.929,103.747
		z"/>
</g>
<g>
	<g>
		<g>
			<g>
				<path fill="#005D91" d="M98.511,103.882l-0.196-0.098l-0.784-1.959l0.098-0.196c2.449-5.583,2.351-5.779,1.861-6.171
					l-3.33-3.232c-0.098-0.098-0.392-0.196-0.588-0.196s-0.784,0-5.583,2.253l-0.196,0.098l-2.057-0.784l-0.098-0.196
					c-2.253-5.681-2.547-5.681-3.134-5.681h-4.604c-0.588,0-0.784,0-2.938,5.681l-0.098,0.196l-1.959,0.784l-0.196-0.098
					c-3.33-1.371-5.191-2.057-5.779-2.057c-0.196,0-0.49,0.098-0.588,0.196l-3.33,3.232c-0.392,0.392-0.588,0.588,2.057,6.073
					l0.098,0.196l-0.784,1.959l-0.196,0.098c-5.877,2.253-5.877,2.449-5.877,3.037v4.603c0,0.588,0,0.784,5.877,2.938l0.196,0.098
					l0.784,1.959l-0.098,0.196c-2.449,5.583-2.351,5.779-1.861,6.171l3.33,3.232c0.098,0.098,0.392,0.196,0.588,0.196
					c0.196,0,0.784,0,5.583-2.253l0.196-0.098l2.057,0.784l0.098,0.196c2.253,5.681,2.547,5.681,3.134,5.681h4.603
					c0.588,0,0.784,0,2.938-5.681l0.098-0.196l1.959-0.784l0.196,0.098c3.33,1.371,5.191,2.057,5.681,2.057
					c0.196,0,0.49-0.098,0.588-0.196l3.33-3.232c0.392-0.392,0.588-0.588-2.057-6.073v-0.294l0.784-1.959h0.196
					c5.779-2.253,5.779-2.449,5.779-3.037v-4.603C104.29,106.233,104.29,105.939,98.511,103.882z M82.35,116.615
					c-4.212,0-7.542-3.33-7.542-7.444c0-4.114,3.428-7.444,7.542-7.444c4.212,0,7.542,3.33,7.542,7.444
					S86.464,116.615,82.35,116.615z"/>
			</g>
		</g>
	</g>
</g>
</svg>
