<?xml version="1.0" encoding="utf-8"?>
<!-- Generator: Adobe Illustrator 25.0.1, SVG Export Plug-In . SVG Version: 6.00 Build 0)  -->
<svg version="1.1" id="Layer_1" xmlns="http://www.w3.org/2000/svg" xmlns:xlink="http://www.w3.org/1999/xlink" x="0px" y="0px"
	 viewBox="0 0 238.6 238.6" enable-background="new 0 0 238.6 238.6" xml:space="preserve">
<g>
	<g>
		<g>
			<defs>
				<circle id="SVGID_443_" cx="119.3" cy="119.3" r="119.3"/>
			</defs>
			<radialGradient id="SVGID_4_" cx="119.3" cy="119.3" r="119.3" gradientUnits="userSpaceOnUse">
				<stop  offset="0" style="stop-color:#FFFFFF"/>
				<stop  offset="0.0028" style="stop-color:#FFFFFF"/>
				<stop  offset="0.2696" style="stop-color:#EFEFEF"/>
				<stop  offset="0.5743" style="stop-color:#E6E6E6"/>
				<stop  offset="1" style="stop-color:#E3E3E3"/>
			</radialGradient>
			<use xlink:href="#SVGID_443_"  overflow="visible" fill="url(#SVGID_4_)"/>
			<clipPath id="SVGID_6_">
				<use xlink:href="#SVGID_443_"  overflow="visible"/>
			</clipPath>
			<radialGradient id="SVGID_8_" cx="119.3" cy="119.3" r="119.3" gradientUnits="userSpaceOnUse">
				<stop  offset="0" style="stop-color:#FFFFFF"/>
				<stop  offset="0.0028" style="stop-color:#FFFFFF"/>
				<stop  offset="0.2696" style="stop-color:#EFEFEF"/>
				<stop  offset="0.5743" style="stop-color:#E6E6E6"/>
				<stop  offset="1" style="stop-color:#E3E3E3"/>
			</radialGradient>
			
				<circle opacity="0.5" clip-path="url(#SVGID_6_)" fill="url(#SVGID_8_)" enable-background="new    " cx="119.3" cy="119.3" r="119.3"/>
		</g>
	</g>
	<g>
		<path fill="#CBD3B3" d="M203.6,154.822H55c-1.879,0-3.402-1.523-3.402-3.402V67.18c0-1.879,1.523-3.402,3.402-3.402h148.6
			c1.879,0,3.402,1.523,3.402,3.402v84.241C207.002,153.299,205.479,154.822,203.6,154.822z"/>
		<path fill="#B2BD8D" d="M193.6,164.822H45c-1.879,0-3.402-1.523-3.402-3.402V77.18c0-1.879,1.523-3.402,3.402-3.402h148.6
			c1.879,0,3.402,1.523,3.402,3.402v84.241C197.002,163.299,195.479,164.822,193.6,164.822z"/>
		<path fill="#809243" d="M183.6,174.822H35c-1.879,0-3.402-1.523-3.402-3.402V87.18c0-1.879,1.523-3.402,3.402-3.402h148.6
			c1.879,0,3.402,1.523,3.402,3.402v84.241C187.002,173.299,185.479,174.822,183.6,174.822z"/>
		<path fill="#FFC87F" d="M151.062,138.386H63.165c-5.385,0-9.751-4.365-9.751-9.751v0c0-5.385,4.365-9.751,9.751-9.751h87.896
			c5.385,0,9.751,4.365,9.751,9.751v0C160.812,134.02,156.447,138.386,151.062,138.386z"/>
		<path fill="none" stroke="#FFC87F" stroke-miterlimit="10" d="M176.766,165.526H43.362c-0.552,0-1-0.448-1-1V95.482
			c0-0.552,0.448-1,1-1h133.403c0.552,0,1,0.448,1,1v69.044C177.766,165.078,177.318,165.526,176.766,165.526z"/>
		<g>
			<g>
				<circle fill="#606E32" cx="109.07" cy="129.272" r="28.269"/>
			</g>
			<g>
				<path fill="#FFC87F" d="M109.07,152.266c-12.679,0-22.994-10.315-22.994-22.994s10.315-22.993,22.994-22.993
					s22.994,10.315,22.994,22.993S121.749,152.266,109.07,152.266z M109.07,107.212c-12.164,0-22.06,9.896-22.06,22.06
					c0,12.164,9.896,22.06,22.06,22.06s22.06-9.896,22.06-22.06C131.13,117.108,121.234,107.212,109.07,107.212z"/>
			</g>
			<g>
				<g>
					<path fill="#FFFFFF" d="M110.405,139.335v3.148h-2.304v-3.12c-2.755-0.168-5.425-1.067-6.887-2.333l1.265-2.839
						c1.377,1.124,3.485,1.939,5.622,2.136v-5.622c-3.12-0.758-6.465-1.77-6.465-5.678c0-2.867,2.08-5.369,6.465-5.79v-3.177h2.304
						v3.12c2.08,0.113,4.188,0.731,5.706,1.715l-1.153,2.839c-1.49-0.872-3.064-1.349-4.554-1.518v5.678
						c3.12,0.758,6.521,1.743,6.521,5.65C116.926,136.411,114.818,138.885,110.405,139.335z M108.101,127.304v-5.003
						c-1.996,0.308-2.839,1.321-2.839,2.557C105.261,126.208,106.47,126.827,108.101,127.304z M113.328,133.798
						c0-1.378-1.237-2.024-2.923-2.502v4.975C112.457,135.961,113.328,135.006,113.328,133.798z"/>
				</g>
			</g>
		</g>
	</g>
</g>
</svg>
