<?xml version="1.0" encoding="utf-8"?>
<!-- Generator: Adobe Illustrator 25.1.0, SVG Export Plug-In . SVG Version: 6.00 Build 0)  -->
<svg version="1.1" id="Layer_1" xmlns="http://www.w3.org/2000/svg" xmlns:xlink="http://www.w3.org/1999/xlink" x="0px" y="0px"
	 viewBox="0 0 238.6 238.6" enable-background="new 0 0 238.6 238.6" xml:space="preserve">
<g>
	<defs>
		<circle id="SVGID_462_" cx="119.3" cy="119.3" r="119.3"/>
	</defs>
	<clipPath id="SVGID_4_">
		<use xlink:href="#SVGID_462_"  overflow="visible"/>
	</clipPath>
	<g clip-path="url(#SVGID_4_)">
		<g>
			<defs>
				<circle id="SVGID_464_" cx="119.3" cy="119.3" r="119.3"/>
			</defs>
			<radialGradient id="SVGID_5_" cx="119.3" cy="119.3" r="119.3" gradientUnits="userSpaceOnUse">
				<stop  offset="0" style="stop-color:#FFFFFF"/>
				<stop  offset="0.3704" style="stop-color:#FAFAFA"/>
				<stop  offset="0.8079" style="stop-color:#ECECEC"/>
				<stop  offset="1" style="stop-color:#E3E3E3"/>
			</radialGradient>
			<use xlink:href="#SVGID_464_"  overflow="visible" fill="url(#SVGID_5_)"/>
			<clipPath id="SVGID_7_">
				<use xlink:href="#SVGID_464_"  overflow="visible"/>
			</clipPath>
			<radialGradient id="SVGID_9_" cx="119.3" cy="119.3" r="119.3" gradientUnits="userSpaceOnUse">
				<stop  offset="0" style="stop-color:#FFFFFF"/>
				<stop  offset="0.3704" style="stop-color:#FAFAFA"/>
				<stop  offset="0.8079" style="stop-color:#ECECEC"/>
				<stop  offset="1" style="stop-color:#E3E3E3"/>
			</radialGradient>
			
				<circle opacity="0.5" clip-path="url(#SVGID_7_)" fill="url(#SVGID_9_)" enable-background="new    " cx="119.3" cy="119.3" r="119.3"/>
		</g>
	</g>
	<g clip-path="url(#SVGID_4_)">
		<g>
			<g>
				
					<line fill="none" stroke="#C1C6C8" stroke-width="3.599" stroke-linejoin="round" stroke-miterlimit="10" x1="95.745" y1="82.237" x2="95.745" y2="157.308"/>
				
					<line fill="none" stroke="#C1C6C8" stroke-width="3.599" stroke-linejoin="round" stroke-miterlimit="10" x1="59.565" y1="82.237" x2="59.565" y2="157.308"/>
				
					<line fill="none" stroke="#C1C6C8" stroke-width="3.599" stroke-linejoin="round" stroke-miterlimit="10" x1="77.655" y1="75.215" x2="77.655" y2="163.385"/>
				
					<line fill="none" stroke="#C1C6C8" stroke-width="3.599" stroke-linejoin="round" stroke-miterlimit="10" x1="178.754" y1="82.237" x2="178.754" y2="157.308"/>
				
					<line fill="none" stroke="#C1C6C8" stroke-width="3.599" stroke-linejoin="round" stroke-miterlimit="10" x1="142.574" y1="82.237" x2="142.574" y2="157.308"/>
				
					<line fill="none" stroke="#C1C6C8" stroke-width="3.599" stroke-linejoin="round" stroke-miterlimit="10" x1="160.664" y1="75.215" x2="160.664" y2="163.385"/>
				
					<line fill="none" stroke="#C1C6C8" stroke-width="3.599" stroke-linejoin="round" stroke-miterlimit="10" x1="225.574" y1="82.237" x2="225.574" y2="157.308"/>
				
					<line fill="none" stroke="#C1C6C8" stroke-width="3.599" stroke-linejoin="round" stroke-miterlimit="10" x1="12.743" y1="82.237" x2="12.743" y2="157.308"/>
			</g>
			<path fill="none" stroke="#62B5E5" stroke-width="7.8782" stroke-linejoin="round" stroke-miterlimit="10" d="M326.675,163.385
				c-41.501,0-41.501-88.171-83.002-88.171c-41.5,0-41.5,88.171-82.999,88.171c-41.505,0-41.505-88.171-83.011-88.171
				s-41.505,88.171-83.011,88.171"/>
			<path fill="none" stroke="#005D91" stroke-width="7.8782" stroke-linejoin="round" stroke-miterlimit="10" d="M77.655,163.385
				c41.5,0,41.5-88.171,82.999-88.171c41.505,0,41.505,88.171,83.011,88.171"/>
		</g>
		<path fill="none" stroke="#005D91" stroke-width="7.8782" stroke-linejoin="round" stroke-miterlimit="10" d="M-5.347,75.215
			c41.501,0,41.501,88.171,83.002,88.171"/>
	</g>
	<circle opacity="0.5" clip-path="url(#SVGID_4_)" fill="none" enable-background="new    " cx="119.3" cy="119.3" r="119.3"/>
</g>
<g opacity="0.75">
	<path fill="#B1B2B2" d="M119.3,197.798L119.3,197.798c-14.747,0-26.701-11.954-26.701-26.701V50.189h53.402v120.908
		C146.001,185.844,134.046,197.798,119.3,197.798z"/>
	<path fill="#7F7F7F" d="M146.48,40.802H92.12c-2.592,0-4.694,2.101-4.694,4.694v0c0,2.592,2.101,4.694,4.694,4.694l54.361,0
		c2.592,0,4.694-2.101,4.694-4.694v0C151.174,42.903,149.072,40.802,146.48,40.802z"/>
</g>
<path fill="#C64764" d="M120.807,191.995h-3.015c-11.228,0-20.331-9.102-20.331-20.331V89.489l43.676-10.879v93.055
	C141.138,182.893,132.036,191.995,120.807,191.995z"/>
</svg>
