<?xml version="1.0" encoding="utf-8"?>
<!-- Generator: Adobe Illustrator 25.1.0, SVG Export Plug-In . SVG Version: 6.00 Build 0)  -->
<svg version="1.1" id="Layer_1" xmlns="http://www.w3.org/2000/svg" xmlns:xlink="http://www.w3.org/1999/xlink" x="0px" y="0px"
	 viewBox="0 0 464.994 284.232" enable-background="new 0 0 464.994 284.232" xml:space="preserve">
<path fill="#FFE07F" d="M407.148,75.021c0,0,0-0.192-0.193-0.192c-2.888-6.931-1.541-15.018,3.85-20.217l-18.87-18.868
	c-5.391,5.391-13.285,6.739-20.217,3.852c0,0-0.193,0-0.193-0.192c-6.932-2.888-11.553-9.627-11.553-16.943l-26.763,0.001
	c0,7.509-4.621,14.248-11.552,16.944c0,0-0.193,0-0.193,0.193c-6.931,2.888-15.018,1.541-20.217-3.85l-18.868,18.87
	c5.391,5.391,6.739,13.285,3.852,20.217c0,0,0,0.192-0.193,0.193c-2.888,6.932-9.627,11.553-16.943,11.553l0.001,26.763
	c7.509,0,14.248,4.621,16.944,11.552c0,0,0,0.192,0.193,0.192c2.888,6.931,1.541,15.018-3.85,20.217l18.87,18.868
	c5.391-5.391,13.285-6.739,20.217-3.852c0,0,0.193,0,0.193,0.192c6.932,2.888,11.553,9.627,11.553,16.943l26.763-0.001
	c0-7.509,4.621-14.248,11.552-16.944c0,0,0.193,0,0.193-0.193c6.931-2.888,15.018-1.541,20.217,3.85l18.868-18.87
	c-5.391-5.391-6.739-13.285-3.852-20.217c0,0,0-0.192,0.193-0.193c2.888-6.932,9.627-11.553,16.943-11.553l-0.001-26.763
	C416.583,86.573,410.036,81.952,407.148,75.021z M346.499,134.711c-19.254,0.001-34.851-15.595-34.851-34.849
	c-0.001-19.254,15.595-34.851,34.849-34.851c19.254-0.001,34.851,15.595,34.851,34.849
	C381.349,119.114,365.753,134.71,346.499,134.711z"/>
<linearGradient id="SVGID_1_" gradientUnits="userSpaceOnUse" x1="0" y1="130.3205" x2="427.108" y2="130.3205" gradientTransform="matrix(1 0 0 -1 0 286)">
	<stop  offset="0" style="stop-color:#E8EAEA"/>
	<stop  offset="1" style="stop-color:#BEC2C4"/>
</linearGradient>
<path fill="url(#SVGID_1_)" d="M427.108,219.31c0-35.76-29.067-64.826-64.826-64.826c-4.207,0-8.414,0.478-12.43,1.243
	c1.147-4.398,1.817-8.988,1.817-13.768c0-30.023-24.286-54.309-54.309-54.309c-13.29,0-25.433,4.781-34.899,12.717
	c-12.621-42.357-51.727-73.24-98.196-73.24c-56.604,0-102.403,45.895-102.403,102.403c0,4.398,0.287,8.605,0.861,12.908
	C27.346,146.548,0,176.57,0,213.095c0,39.297,31.84,71.137,71.137,71.137h302.714C403.3,278.017,427.108,250.576,427.108,219.31z"/>
<g opacity="0.59">
	<g>
		<g>
			<path fill="#C1C6C8" d="M427.393,49.271c-1.472-2.344-3.069-4.657-4.748-6.876l3.641-2.755c1.759,2.324,3.433,4.748,4.975,7.204
				L427.393,49.271z"/>
		</g>
		<g>
			<path fill="#C1C6C8" d="M350.339,199.849l-0.166-4.562c5.536-0.203,11.084-0.896,16.488-2.059l0.961,4.465
				C361.957,198.911,356.142,199.637,350.339,199.849z M332.972,198.969l-0.047-0.006c-5.779-0.8-11.476-2.095-16.96-3.854
				l1.395-4.348c5.234,1.679,10.672,2.914,16.161,3.674L332.972,198.969z M384.263,192.55l-1.725-4.229
				c5.121-2.088,10.096-4.643,14.787-7.593l2.432,3.865C394.841,187.685,389.628,190.361,384.263,192.55z M299.907,188.357
				c-5.126-2.708-10.048-5.889-14.63-9.454l2.805-3.604c4.371,3.402,9.067,6.437,13.958,9.021L299.907,188.357z M413.64,174.08
				l-3.061-3.389c4.111-3.715,7.919-7.811,11.319-12.173l3.602,2.807C421.938,165.896,417.947,170.188,413.64,174.08z
				 M272.515,167.052c-3.892-4.3-7.432-8.97-10.522-13.878l3.863-2.434c2.951,4.687,6.33,9.143,10.044,13.247L272.515,167.052z
				 M254.026,137.686c-2.197-5.377-3.932-10.975-5.154-16.637l4.463-0.964c1.167,5.402,2.822,10.743,4.918,15.874L254.026,137.686z
				 M445.597,113.656l-2.138-0.295h-2.409l0.033-0.393c0.596-4.312,0.902-8.752,0.902-13.132c0-1.135-0.02-2.266-0.06-3.394
				l4.562-0.162c0.042,1.181,0.063,2.367,0.063,3.556C446.552,104.424,446.23,109.074,445.597,113.656z M246.705,103.766
				c-0.045-1.229-0.068-2.469-0.068-3.688c0-4.551,0.316-9.163,0.94-13.707l4.523,0.621c-0.596,4.339-0.897,8.742-0.897,13.086
				c0,1.177,0.021,2.351,0.064,3.52L246.705,103.766z M439.877,79.948c-1.158-5.404-2.806-10.748-4.896-15.883l4.229-1.722
				c2.191,5.382,3.919,10.983,5.133,16.647L439.877,79.948z M255.771,70.781l-4.35-1.392c1.77-5.53,4.037-10.934,6.741-16.061
				l4.039,2.13C259.622,60.35,257.458,65.505,255.771,70.781z M405.019,24.546c-4.379-3.399-9.08-6.429-13.971-9.006l2.128-4.04
				c5.127,2.701,10.054,5.876,14.644,9.438L405.019,24.546z M295.756,19.253l-2.436-3.862c4.911-3.098,10.121-5.782,15.482-7.977
				l1.73,4.226C305.416,13.735,300.444,16.296,295.756,19.253z M375.717,9.115c-5.197-1.659-10.598-2.883-16.049-3.637l-0.164-0.022
				l0.604-4.526l0.198,0.027c5.698,0.789,11.354,2.07,16.8,3.809L375.717,9.115z M326.404,6.711l-0.967-4.463
				c5.668-1.228,11.482-1.961,17.281-2.179l0.172,4.563C337.358,4.84,331.812,5.54,326.404,6.711z"/>
		</g>
		<g>
			<path fill="#C1C6C8" d="M422.646,42.395c-1.675-2.212-3.467-4.378-5.328-6.437l3.387-3.062c1.95,2.157,3.828,4.426,5.582,6.744
				L422.646,42.395z"/>
		</g>
	</g>
</g>
<g>
	<g>
		<g>
			<g>
				<g>
					<path fill="#FFFFFF" d="M353.881,258.975h-243.18c-3.314,0-6-2.686-6-6V109.711h255.18v143.264
						C359.881,256.289,357.195,258.975,353.881,258.975z"/>
				</g>
				<g>
					<path fill="#00466D" d="M353.881,85.14h-243.18c-3.314,0-6,2.686-6,6v18.481h255.18V91.14
						C359.881,87.826,357.195,85.14,353.881,85.14z"/>
				</g>
				<g>
					<circle fill="#C03963" cx="119.555" cy="97.38" r="5.788"/>
				</g>
				<g>
					<circle fill="#FFC77F" cx="136.964" cy="97.38" r="5.788"/>
				</g>
				<g>
					<circle fill="#809143" cx="154.373" cy="97.38" r="5.788"/>
				</g>
			</g>
		</g>
	</g>
	<path fill="#BA4764" d="M253.115,143.443c-14.497,0-20.823,18.078-20.823,18.078s-4.152-18.078-20.823-18.078
		c-13.256,0-24.001,10.746-24.001,24.001c0,34.737,44.824,52.739,44.824,52.739s44.824-18.358,44.824-52.739
		C277.116,154.189,266.37,143.443,253.115,143.443z"/>
	<g>
		<g>
			<g>
				<path fill="#629CCC" d="M152.618,194.585c0-2.917-1.099-5.146-3.295-6.689c-2.196-1.542-5.39-2.313-9.581-2.313v-12.022
					c4.225,0,7.426-0.737,9.607-2.213c2.179-1.476,3.27-3.588,3.27-6.338v-0.402v-15.995c0-5.13,1.626-8.743,4.879-10.839
					c3.252-2.095,8.97-3.144,17.152-3.144v11.317c-3.319,0.1-5.608,0.738-6.866,1.911c-1.257,1.174-1.886,2.901-1.886,5.181v15.04
					c-0.202,6.305-4.125,10.027-11.77,11.167v0.603c7.846,1.174,11.77,4.729,11.77,10.664v0.453v15.039
					c0,2.28,0.62,4.007,1.861,5.181c1.24,1.173,3.537,1.81,6.891,1.911v11.367c-8.182,0-13.9-1.048-17.152-3.144
					c-3.253-2.096-4.879-5.726-4.879-10.89L152.618,194.585L152.618,194.585z"/>
			</g>
			<g>
				<path fill="#629CCC" d="M311.964,210.429c0,3.756-0.687,6.589-2.062,8.501c-1.375,1.911-3.646,3.311-6.815,4.2
					c-3.169,0.888-7.553,1.333-13.153,1.333v-11.367c3.319-0.067,5.608-0.671,6.866-1.81c1.257-1.141,1.886-2.901,1.886-5.282
					v-15.039v-0.553c0-2.884,0.989-5.223,2.968-7.017c1.978-1.793,4.895-2.976,8.752-3.546v-0.603
					c-7.612-1.14-11.518-4.862-11.719-11.167v-15.04c0-2.347-0.621-4.091-1.861-5.231c-1.241-1.139-3.538-1.76-6.891-1.861V134.63
					c5.6,0,9.992,0.444,13.178,1.333c3.185,0.889,5.457,2.297,6.815,4.225c1.358,1.929,2.037,4.737,2.037,8.425v15.995v0.503
					c0,2.816,1.031,4.929,3.094,6.337c2.062,1.408,5.323,2.113,9.783,2.113v12.022c-4.192,0-7.386,0.687-9.582,2.062
					s-3.294,3.688-3.294,6.94v15.844H311.964z"/>
			</g>
		</g>
	</g>
</g>
<g>
	<g>
		<g>
			<path fill="#62B4E4" d="M284.071,32.803l-0.128-0.171l0.571-1.938l0.211-0.096c5.138-2.635,5.115-2.854,5.095-3.404l-0.489-4.331
				c-0.015-0.146-0.151-0.389-0.312-0.52c-0.121-0.098-0.563-0.457-5.448-1.751l-0.226-0.05l-0.999-1.811l0.09-0.194
				c1.671-5.514,1.51-5.644,1.108-5.97l-3.419-2.773c-0.402-0.326-0.603-0.489-5.565,2.422l-0.171,0.128l-1.938-0.571l-0.088-0.138
				c-1.598-2.963-2.582-4.628-2.944-4.922c-0.161-0.13-0.387-0.181-0.573-0.198l-4.339,0.416c-0.583,0.061-0.801,0.084-2.133,5.672
				l-0.05,0.226l-1.778,0.959l-0.194-0.09c-5.602-1.809-5.732-1.648-6.091-1.206l-2.708,3.339c-0.359,0.443-0.489,0.603,2.535,5.59
				l0.128,0.171l-0.538,1.897l-0.211,0.096c-5.138,2.635-5.115,2.854-5.095,3.404l0.489,4.331c0.055,0.178,0.151,0.389,0.312,0.52
				c0.121,0.098,0.563,0.457,5.448,1.751l0.226,0.05l0.999,1.811l-0.09,0.194c-1.671,5.514-1.51,5.644-1.067,6.003l3.419,2.773
				c0.443,0.359,0.603,0.489,5.565-2.422l0.171-0.128l1.978,0.604l0.088,0.138c1.598,2.963,2.582,4.628,2.944,4.922
				c0.161,0.13,0.387,0.181,0.573,0.198l4.339-0.416c0.583-0.061,0.801-0.084,2.133-5.672l0.05-0.226l1.745-0.919l0.194,0.09
				c5.602,1.809,5.732,1.648,6.091,1.206l2.708-3.339C286.932,37.991,287.095,37.79,284.071,32.803z M264.634,32.511
				c-3.057-2.48-3.561-6.956-1.147-9.933s6.899-3.408,9.956-0.928s3.561,6.956,1.147,9.933S267.692,34.991,264.634,32.511z"/>
		</g>
	</g>
</g>
<g>
	<g>
		<g>
			<path fill="#62B4E4" d="M459.243,147.188l-0.128-0.171l0.571-1.938l0.211-0.096c5.138-2.635,5.115-2.854,5.095-3.404
				l-0.489-4.331c-0.015-0.146-0.151-0.389-0.312-0.52c-0.121-0.098-0.563-0.457-5.448-1.751l-0.226-0.05l-0.999-1.811l0.09-0.194
				c1.671-5.514,1.51-5.644,1.108-5.97l-3.419-2.773c-0.402-0.326-0.603-0.489-5.565,2.422l-0.171,0.128l-1.938-0.571l-0.088-0.138
				c-1.598-2.963-2.582-4.628-2.944-4.922c-0.161-0.131-0.387-0.181-0.573-0.198l-4.339,0.416c-0.583,0.061-0.801,0.084-2.133,5.672
				l-0.05,0.226l-1.778,0.959l-0.194-0.09c-5.602-1.809-5.732-1.648-6.091-1.206l-2.708,3.339c-0.359,0.443-0.489,0.603,2.535,5.59
				l0.128,0.171l-0.538,1.897l-0.211,0.096c-5.138,2.635-5.115,2.854-5.095,3.404l0.489,4.331c0.055,0.178,0.151,0.389,0.312,0.52
				c0.121,0.098,0.563,0.457,5.448,1.751l0.226,0.05l0.999,1.811l-0.09,0.194c-1.671,5.514-1.51,5.644-1.067,6.003l3.419,2.773
				c0.443,0.359,0.603,0.489,5.565-2.422l0.171-0.128l1.978,0.604l0.088,0.138c1.598,2.963,2.582,4.628,2.944,4.922
				c0.161,0.131,0.387,0.181,0.573,0.198l4.339-0.416c0.583-0.061,0.801-0.084,2.133-5.672l0.05-0.226l1.745-0.919l0.194,0.09
				c5.602,1.809,5.732,1.648,6.091,1.206l2.708-3.339C462.105,152.376,462.268,152.175,459.243,147.188z M439.807,146.896
				c-3.057-2.48-3.561-6.956-1.147-9.933s6.899-3.408,9.956-0.928c3.057,2.48,3.561,6.956,1.147,9.933
				S442.864,149.376,439.807,146.896z"/>
		</g>
	</g>
</g>
</svg>
