<?xml version="1.0" encoding="utf-8"?>
<!-- Generator: Adobe Illustrator 25.1.0, SVG Export Plug-In . SVG Version: 6.00 Build 0)  -->
<svg version="1.1" id="Layer_1" xmlns="http://www.w3.org/2000/svg" xmlns:xlink="http://www.w3.org/1999/xlink" x="0px" y="0px"
	 viewBox="0 0 365.088 304.468" enable-background="new 0 0 365.088 304.468" xml:space="preserve">
<g>
	<g>
		<g>
			<g>
				<path fill="#CDCDCD" d="M145.252,46.447l-0.563-0.282l-2.252-5.63l0.281-0.563c7.037-16.045,6.756-16.608,5.348-17.734
					l-9.571-9.289c-0.281-0.282-1.126-0.563-1.689-0.563s-2.252,0-16.045,6.474l-0.563,0.282l-5.911-2.252l-0.282-0.563
					C107.532,0,106.687,0,104.998,0h-13.23c-1.689,0-2.252,0-8.445,16.327l-0.282,0.563l-5.63,2.252l-0.562-0.282
					c-9.571-3.941-14.919-5.911-16.608-5.911c-0.563,0-1.407,0.282-1.689,0.563l-9.571,9.289c-1.126,1.126-1.689,1.689,5.911,17.453
					l0.281,0.563l-2.252,5.63l-0.563,0.282c-16.89,6.474-16.89,7.037-16.89,8.726v13.23c0,1.689,0,2.252,16.89,8.445l0.563,0.282
					l2.252,5.63l-0.281,0.563c-7.037,16.045-6.756,16.608-5.348,17.734l9.571,9.289c0.281,0.282,1.126,0.563,1.689,0.563
					s2.252,0,16.045-6.474l0.563-0.282l5.911,2.252l0.281,0.563c6.474,16.327,7.319,16.327,9.008,16.327h13.23
					c1.689,0,2.252,0,8.445-16.327l0.281-0.563l5.63-2.252l0.563,0.282c9.571,3.941,14.919,5.911,16.327,5.911
					c0.563,0,1.407-0.282,1.689-0.563l9.571-9.289c1.126-1.126,1.689-1.689-5.911-17.453v-0.845l2.252-5.63h0.563
					c16.608-6.474,16.608-7.037,16.608-8.726v-13.23C161.861,53.203,161.861,52.358,145.252,46.447z M98.805,83.041
					c-12.104,0-21.675-9.571-21.675-21.394s9.852-21.394,21.675-21.394c12.104,0,21.675,9.571,21.675,21.394
					S110.628,83.041,98.805,83.041z"/>
			</g>
		</g>
	</g>
	<g>
		<path fill="#C64764" d="M332.225,24.078c-10.22,0-19.142,5.458-24.084,13.601c-4.941-8.142-13.863-13.601-24.084-13.601
			c-15.565,0-28.182,12.618-28.182,28.183c0,34.781,52.266,48.679,52.266,48.679s52.267-15.936,52.267-48.679
			C360.409,36.696,347.79,24.078,332.225,24.078z"/>
		<g>
			<g>
				<defs>
					<path id="SVGID_320_" d="M332.225,24.078c-10.22,0-19.142,5.458-24.084,13.601c-4.941-8.142-13.863-13.601-24.084-13.601
						c-15.565,0-28.182,12.618-28.182,28.183c0,34.781,52.266,48.679,52.266,48.679s52.267-15.936,52.267-48.679
						C360.409,36.696,347.79,24.078,332.225,24.078z"/>
				</defs>
				<clipPath id="SVGID_4_">
					<use xlink:href="#SVGID_320_"  overflow="visible"/>
				</clipPath>
				<path clip-path="url(#SVGID_4_)" fill="#FFFFFF" d="M356.489,67.314h-19.733c-0.577,0-1.091,0.367-1.278,0.913l-0.662,1.927
					l-5.18-14.322c-0.193-0.536-0.702-0.892-1.271-0.892c-0.001,0-0.003,0-0.005,0c-0.571,0.002-1.08,0.363-1.27,0.901
					l-7.816,22.102l-10.028-31.28c-0.176-0.55-0.683-0.928-1.261-0.939c-0.579-0.037-1.099,0.345-1.297,0.889l-7.686,21.08h-6.659
					l-2.745-8.29c-0.183-0.554-0.701-0.927-1.284-0.927c0,0-0.001,0-0.002,0c-0.584,0.001-1.101,0.377-1.283,0.932l-3.467,10.617
					l-2.398-5.556c-0.197-0.457-0.629-0.769-1.125-0.812c-0.498-0.036-0.975,0.191-1.247,0.607l-2.079,3.176h-17.214
					c0.46,0.922,0.959,1.823,1.492,2.704h16.453c0.456,0,0.881-0.23,1.131-0.612l1.103-1.685l2.818,6.53
					c0.223,0.516,0.739,0.836,1.304,0.815c0.562-0.026,1.048-0.396,1.223-0.931l3.301-10.107l1.759,5.314
					c0.183,0.554,0.701,0.927,1.284,0.927h8.582c0.568,0,1.075-0.355,1.271-0.889l6.657-18.26l10.047,31.34
					c0.177,0.553,0.688,0.931,1.268,0.939c0.007,0,0.014,0,0.021,0c0.572,0,1.083-0.361,1.274-0.901l7.894-22.32l5.199,14.375
					c0.194,0.539,0.694,0.881,1.282,0.892c0.573-0.005,1.081-0.371,1.268-0.913l1.594-4.642h17.171
					C355.462,69.136,355.994,68.234,356.489,67.314z"/>
			</g>
		</g>
	</g>
	<g>
		<polygon id="Fill-10_308_" fill-rule="evenodd" clip-rule="evenodd" fill="#74B0DC" points="100.87,304.468 201.637,253.161 
			100.87,203.701 		"/>
		<polygon id="Fill-10_307_" fill-rule="evenodd" clip-rule="evenodd" fill="#F7DC89" points="0,304.468 100.87,253.161 0,203.701 
					"/>
	</g>
	<g>
		<path fill="#477C9F" d="M86.753,115.201l83.805-62.717c7.8-5.837,18.514-5.837,26.314,0l83.805,62.717H86.753z"/>
		<rect x="86.753" y="115.186" fill="#245D89" width="193.924" height="23.441"/>
		<g>
			<g>
				<rect x="100.818" y="136.28" fill="#245D89" width="21.48" height="84.656"/>
				<rect x="95.341" y="136.28" fill="#245D89" width="32.436" height="15.986"/>
			</g>
			<g>
				<rect x="148.922" y="136.28" fill="#245D89" width="21.48" height="84.656"/>
				<rect x="143.444" y="136.28" fill="#245D89" width="32.436" height="15.986"/>
			</g>
			<g>
				<rect x="197.026" y="136.281" fill="#245D89" width="21.48" height="84.656"/>
				<rect x="191.548" y="136.281" fill="#245D89" width="32.436" height="15.986"/>
			</g>
			<g>
				<rect x="245.13" y="136.281" fill="#245D89" width="21.48" height="84.656"/>
				<rect x="239.652" y="136.28" fill="#245D89" width="32.436" height="15.986"/>
			</g>
		</g>
		<rect x="94.756" y="214.894" fill="#245D89" width="177.919" height="22.944"/>
		<rect x="86.879" y="230.06" fill="#477C9F" width="193.672" height="22.944"/>
		
			<radialGradient id="SVGID_5_" cx="183.8236" cy="-4560.938" r="13.387" gradientTransform="matrix(1 0 0 -1 0 -4475.8203)" gradientUnits="userSpaceOnUse">
			<stop  offset="0" style="stop-color:#E6E8E9"/>
			<stop  offset="0.6364" style="stop-color:#E1E2E0"/>
			<stop  offset="1" style="stop-color:#DCDCD9"/>
		</radialGradient>
		<circle fill="url(#SVGID_5_)" cx="183.824" cy="85.118" r="13.387"/>
	</g>
	<polygon fill="#F7DC89" points="226.564,18.079 235.721,23.085 226.564,28.09 221.589,37.216 216.553,28.09 207.427,23.054 
		216.553,18.079 221.558,8.923 	"/>
	<polygon fill="#F7DC89" points="313.132,121.916 322.288,126.921 313.132,131.928 308.157,141.053 303.121,131.928 
		293.995,126.891 303.121,121.916 308.126,112.759 	"/>
	<g>
		<g>
			<path fill="#252728" d="M72.301,203.701H27.103c-2.854,0-5.168-2.314-5.168-5.168v-98.367c0-2.854,2.314-5.168,5.168-5.168
				h45.198c2.854,0,5.168,2.314,5.168,5.168v98.367C77.469,201.387,75.155,203.701,72.301,203.701z"/>
			<rect x="26.773" y="107.902" fill="#CDCDCD" width="45.857" height="82.895"/>
		</g>
		<g>
			<circle fill-rule="evenodd" clip-rule="evenodd" fill="#245D89" cx="49.702" cy="142.086" r="17.553"/>
			<g id="humaaans_x2F_standing-8_4_">
				<g id="A-Human_x2F_Standing_4_" transform="translate(40.000000, 27.000000)">
					<g id="Head_x2F_Front_x2F_Long_10_" transform="translate(82.000000, 0.000000)">
						<path id="Hair-Back_16_" fill-rule="evenodd" clip-rule="evenodd" fill="#252728" d="M-65.378,107.21
							c0.754,2.779,1.737,9.024,0.734,10.004h-6.344c0-0.011-0.001-0.023-0.001-0.033c-2.351-0.26-4.18-2.254-4.18-4.674v-4.594
							c0-2.597,2.106-4.703,4.703-4.703h0.438C-67.669,103.209-65.716,104.946-65.378,107.21z"/>
						<g id="Head_56_" transform="translate(54.000000, 31.000000)">
							<path fill-rule="evenodd" clip-rule="evenodd" fill="#D3B19A" d="M-126.706,80.629c-1.008-1.183-1.69-2.633-1.576-4.258
								c0.329-4.681,6.845-3.652,8.112-1.289s1.117,8.356-0.521,8.778c-0.653,0.168-2.046-0.244-3.461-1.098l0.889,6.291h-5.25
								L-126.706,80.629z"/>
						</g>
						<path id="Hair-Front_32_" fill-rule="evenodd" clip-rule="evenodd" fill="#252728" d="M-71.286,110.838
							c0.243,2.598,0.145,5.566-0.576,6.27h-6.344c-0.353-6.141,3.062-3.763,3.062-9.545c0.212-0.208,0.415-0.413,0.613-0.591
							l-0.007-0.169c1.098-2.25,2.492-3.374,4.18-3.374c2.534,0,3.333,1.179,4.014,2.179c-0.51,1.747-2.485,2.005-4.241,3.095
							c-0.207-0.168-0.471-0.268-0.758-0.268c-0.665,0-1.203,0.538-1.203,1.203s0.538,1.203,1.203,1.203
							C-71.322,110.839-71.305,110.839-71.286,110.838z"/>
					</g>
					<path fill-rule="evenodd" clip-rule="evenodd" fill="#74B0DC" d="M9.703,132.638c2.489,0,4.855-0.525,7.001-1.46
						c-1.229-4.256-2.333-8.816-2.333-14.631l-5.682-1.301l-0.003-0.003H8.313c-4.031,3.643-7.374,8.03-10.07,13.121
						C1.319,131.019,5.317,132.638,9.703,132.638z"/>
					<path fill-rule="evenodd" clip-rule="evenodd" fill="#5883A5" d="M4.768,131.922c0.399,0.116,0.804,0.224,1.214,0.312
						c-0.036-1.929,0.02-4.071,0.174-6.436C5.594,127.78,5.145,129.827,4.768,131.922z"/>
				</g>
			</g>
		</g>
		<g>
			<g>
				<circle fill="#85A452" cx="40.826" cy="173.309" r="6.348"/>
				<g>
					<g>
						<g>
							<path fill="#F7F7F7" d="M44.254,175.415l-0.791-0.527l-0.703-0.469c-0.136-0.09-0.319-0.06-0.418,0.067l-0.435,0.56
								c-0.093,0.122-0.261,0.156-0.396,0.082c-0.296-0.164-0.645-0.319-1.415-1.09c-0.771-0.771-0.926-1.12-1.09-1.415
								c-0.075-0.134-0.039-0.301,0.082-0.396l0.56-0.435c0.129-0.1,0.158-0.283,0.067-0.418l-0.454-0.682l-0.541-0.813
								c-0.092-0.138-0.277-0.179-0.419-0.095l-0.624,0.375c-0.169,0.099-0.293,0.26-0.346,0.449
								c-0.171,0.623-0.205,1.997,1.997,4.2c2.202,2.202,3.577,2.168,4.199,1.997c0.188-0.053,0.349-0.178,0.449-0.347l0.375-0.624
								C44.434,175.692,44.393,175.507,44.254,175.415z"/>
						</g>
					</g>
				</g>
			</g>
			<g>
				<circle fill="#C64764" cx="58.579" cy="173.309" r="6.348"/>
				<path fill="#F7F7F7" d="M59.093,173.309l1.835-1.836c0.142-0.142,0.142-0.372,0-0.512c-0.142-0.142-0.372-0.142-0.512,0
					l-1.835,1.836l-1.838-1.836c-0.142-0.142-0.372-0.142-0.512,0c-0.142,0.142-0.142,0.372,0,0.512l1.838,1.836l-1.838,1.836
					c-0.142,0.142-0.142,0.372,0,0.512c0.07,0.07,0.164,0.106,0.258,0.106c0.092,0,0.184-0.036,0.256-0.106l1.838-1.836l1.835,1.836
					c0.07,0.07,0.164,0.106,0.258,0.106c0.092,0,0.184-0.036,0.256-0.106c0.142-0.142,0.142-0.372,0-0.512L59.093,173.309z"/>
			</g>
		</g>
	</g>
	<path fill="#FFFFFF" d="M358.945,265.041H239.043c-2.761,0-5-2.239-5-5v-66.83c0-2.761,2.239-5,5-5h119.902c2.761,0,5,2.239,5,5
		v66.83C363.945,262.802,361.706,265.041,358.945,265.041z"/>
	<g>
		<g>
			<path fill="#CDCDCD" d="M360.743,176.348c0.719,0,1.305,0.585,1.305,1.304v84.46c0,0.719-0.585,1.304-1.305,1.304H237.178
				c-0.719,0-1.305-0.585-1.305-1.304v-84.46c0-0.719,0.585-1.304,1.305-1.304L360.743,176.348 M360.743,173.309H237.178
				c-2.399,0-4.344,1.945-4.344,4.344v84.46c0,2.399,1.945,4.344,4.344,4.344h123.566c2.399,0,4.344-1.945,4.344-4.344v-84.46
				C365.086,175.254,363.143,173.309,360.743,173.309L360.743,173.309z"/>
		</g>
		<path fill="#CDCDCD" d="M365.086,190.787H232.834v-13.135c0-2.399,1.945-4.344,4.344-4.344h123.566
			c2.399,0,4.344,1.945,4.344,4.344v13.135H365.086z"/>
		<g>
			<path fill="#245D89" d="M281.009,212.698v5.841l-18.128,8.073l18.128,8.125v5.89l-24.223-11.222v-5.485L281.009,212.698z"/>
			<path fill="#245D89" d="M312.748,204.016l-22.952,47.023h-5.332l22.952-47.023H312.748z"/>
			<path fill="#245D89" d="M316.911,240.627v-5.84l18.128-8.074l-18.128-8.125v-5.89l24.223,11.222v5.485L316.911,240.627z"/>
		</g>
		<circle fill="#85A452" cx="242.503" cy="182.535" r="3.509"/>
		<circle fill="#F7DC89" cx="252.981" cy="182.535" r="3.509"/>
		<circle fill="#C64764" cx="263.458" cy="182.535" r="3.509"/>
	</g>
</g>
</svg>
