<?xml version="1.0" encoding="utf-8"?>
<!-- Generator: Adobe Illustrator 25.0.1, SVG Export Plug-In . SVG Version: 6.00 Build 0)  -->
<svg version="1.1" id="Layer_1" xmlns="http://www.w3.org/2000/svg" xmlns:xlink="http://www.w3.org/1999/xlink" x="0px" y="0px"
	 viewBox="0 0 750 664.214" enable-background="new 0 0 750 664.214" xml:space="preserve">
<g>
	<g>
		<g>
			<g>
				<g>
					<g>
						<rect x="569.11" y="0" fill="#4C4F54" width="69.82" height="15.891"/>
						<path fill="#4C4F54" d="M569.11,0v58.663h-15.891v-42.94C553.387,7.1,560.319,0,569.11,0L569.11,0z"/>
						<path fill="#4C4F54" d="M654.821,15.722v42.94H638.93V0l0,0C647.721,0,654.821,7.1,654.821,15.722z"/>
					</g>
					<path fill="#C74764" d="M750,55.913v184.316c0,7.438-6.086,13.525-13.525,13.525H471.564c-7.439,0-13.525-6.086-13.525-13.525
						V55.913"/>
					<path fill="#95354B" d="M458.124,56.465c0-7.438,6.086-13.525,13.525-13.525h264.742c7.438,0,13.524,6.086,13.524,13.525"/>
					<g>
						<path fill="#FFFFFF" d="M620.64,199.358h-33.241c-0.934,0-1.691-0.757-1.691-1.691V95.951c0-0.934,0.757-1.691,1.691-1.691
							h33.241c0.934,0,1.691,0.757,1.691,1.691v101.716C622.331,198.601,621.574,199.358,620.64,199.358z"/>
						<path fill="#FFFFFF" d="M551.471,163.43v-33.241c0-0.934,0.757-1.691,1.691-1.691h101.716c0.934,0,1.691,0.757,1.691,1.691
							v33.241c0,0.934-0.757,1.691-1.691,1.691H553.162C552.228,165.12,551.471,164.363,551.471,163.43z"/>
					</g>
				</g>
			</g>
		</g>
	</g>
	<g>
		<g>
			<g>
				<path fill="#FFC87F" d="M339.874,165.632l-1.215-0.609l-4.861-12.153l0.607-1.215c15.191-34.636,14.584-35.851,11.545-38.282
					l-20.661-20.052c-0.607-0.609-2.431-1.215-3.646-1.215c-1.215,0-4.861,0-34.636,13.975l-1.215,0.609l-12.76-4.861l-0.609-1.215
					c-13.973-35.245-15.797-35.245-19.443-35.245h-28.559c-3.646,0-4.861,0-18.23,35.245l-0.609,1.215l-12.153,4.861l-1.213-0.609
					c-20.661-8.507-32.205-12.76-35.851-12.76c-1.215,0-3.037,0.609-3.646,1.215l-20.661,20.052
					c-2.431,2.431-3.646,3.646,12.76,37.675l0.607,1.215l-4.861,12.153l-1.215,0.609c-36.46,13.975-36.46,15.191-36.46,18.837
					v28.559c0,3.646,0,4.861,36.46,18.23l1.215,0.609l4.861,12.153l-0.607,1.215c-15.191,34.636-14.584,35.851-11.545,38.282
					l20.661,20.052c0.607,0.609,2.431,1.215,3.646,1.215s4.861,0,34.636-13.975l1.215-0.609l12.76,4.861l0.607,1.215
					c13.975,35.245,15.799,35.245,19.445,35.245H254.8c3.646,0,4.861,0,18.23-35.245l0.607-1.215l12.153-4.861l1.215,0.609
					c20.661,8.507,32.205,12.76,35.245,12.76c1.215,0,3.037-0.609,3.646-1.215l20.661-20.052c2.431-2.431,3.646-3.646-12.76-37.675
					v-1.824l4.861-12.153h1.215c35.851-13.975,35.851-15.191,35.851-18.837v-28.559
					C375.727,180.216,375.727,178.392,339.874,165.632z M239.61,244.627c-26.129,0-46.789-20.661-46.789-46.183
					s21.267-46.183,46.789-46.183c26.129,0,46.789,20.661,46.789,46.183S265.132,244.627,239.61,244.627z"/>
			</g>
		</g>
	</g>
	<g>
		<g>
			<g>
				<rect x="252.418" y="327.532" fill="#DADDDE" width="41.202" height="162.384"/>
				<rect x="241.91" y="327.532" fill="#DADDDE" width="62.218" height="30.664"/>
			</g>
			<g>
				<rect x="344.689" y="327.532" fill="#DADDDE" width="41.202" height="162.384"/>
				<rect x="334.181" y="327.533" fill="#DADDDE" width="62.218" height="30.664"/>
			</g>
			<g>
				<rect x="436.96" y="327.533" fill="#DADDDE" width="41.202" height="162.384"/>
				<rect x="426.452" y="327.533" fill="#DADDDE" width="62.218" height="30.664"/>
			</g>
			<g>
				<rect x="529.231" y="327.533" fill="#DADDDE" width="41.202" height="162.384"/>
				<rect x="518.723" y="327.532" fill="#DADDDE" width="62.218" height="30.664"/>
			</g>
		</g>
		<rect x="225.437" y="287.07" fill="#C1C6C8" width="371.979" height="44.964"/>
		<rect x="240.788" y="478.326" fill="#C1C6C8" width="341.278" height="44.01"/>
		<rect x="225.679" y="507.417" fill="#DADDDE" width="371.495" height="44.01"/>
		<path fill="#DADDDE" d="M436.663,166.797c-14.962-11.196-35.513-11.196-50.475,0L225.437,287.099h371.979L436.663,166.797z
			 M411.635,255.073c-14.182,0-25.679-11.497-25.679-25.678c0-14.182,11.497-25.679,25.679-25.679
			c14.182,0,25.678,11.497,25.678,25.679C437.314,243.576,425.817,255.073,411.635,255.073z"/>
	</g>
	<g>
		<path fill="#252728" d="M171.39,330.047H47.941C21.463,330.047,0,351.511,0,377.988v32.747h0.026
			c0.542,23.979,20.135,43.252,44.244,43.252s47.583-19.274,48.232-43.252h34.331c0.649,23.979,24.125,43.252,48.232,43.252
			c24.109,0,43.702-19.274,44.244-43.252h0.026v-32.747C219.332,351.511,197.868,330.047,171.39,330.047z"/>
		<path fill="#C1C6C8" d="M53.519,373.525h13.259v11.365H53.519v13.259H42.154V384.89H28.895v-11.365h13.259v-13.259h11.365V373.525
			z"/>
		<circle fill="#74B1DD" cx="170.967" cy="365.339" r="5.443"/>
		<path fill="#245D8A" d="M170.967,387.263c-3.006,0-5.443,2.436-5.443,5.443s2.436,5.443,5.443,5.443
			c3.006,0,5.443-2.436,5.443-5.443C176.41,389.702,173.973,387.263,170.967,387.263z"/>
		<path fill="#C74764" d="M184.651,373.581c-3.006,0-5.443,2.436-5.443,5.443s2.436,5.443,5.443,5.443s5.443-2.436,5.443-5.443
			S187.658,373.581,184.651,373.581z"/>
		<circle fill="#86A552" cx="157.282" cy="379.024" r="5.443"/>
	</g>
	<g>
		<g>
			<path fill="#252728" d="M635.213,664.214H524.471c-6.992,0-12.662-5.67-12.662-12.662V410.541c0-6.992,5.67-12.662,12.662-12.662
				h110.742c6.992,0,12.662,5.67,12.662,12.662v241.011C647.875,658.544,642.205,664.214,635.213,664.214z"/>
			<rect x="523.662" y="429.496" fill="#CECECE" width="112.356" height="203.102"/>
		</g>
		<g>
			<circle fill-rule="evenodd" clip-rule="evenodd" fill="#245D8A" cx="579.84" cy="513.249" r="43.006"/>
			<g id="humaaans_x2F_standing-8_1_">
				<g id="A-Human_x2F_Standing_1_" transform="translate(40.000000, 27.000000)">
					<g id="Head_x2F_Front_x2F_Long_8_" transform="translate(82.000000, 0.000000)">
						<path id="Hair-Back_12_" fill-rule="evenodd" clip-rule="evenodd" fill="#252728" d="M474.797,466.953
							c1.847,6.809,4.256,22.11,1.797,24.512h-15.543c0-0.028-0.004-0.056-0.004-0.081c-5.761-0.637-10.242-5.522-10.242-11.452
							v-11.255c0-6.363,5.16-11.523,11.523-11.523h1.073C469.183,457.151,473.967,461.407,474.797,466.953z"/>
						<g id="Head_22_" transform="translate(54.000000, 31.000000)">
							<path fill-rule="evenodd" clip-rule="evenodd" fill="#D4B29B" d="M402.841,446.78c-2.469-2.898-4.14-6.451-3.862-10.432
								c0.805-11.47,16.77-8.948,19.876-3.159c3.106,5.789,2.736,20.474-1.277,21.508c-1.6,0.411-5.012-0.598-8.48-2.691
								l2.177,15.413h-12.863L402.841,446.78z"/>
						</g>
						<path id="Hair-Front_26_" fill-rule="evenodd" clip-rule="evenodd" fill="#252728" d="M460.32,475.841
							c0.594,6.366,0.355,13.637-1.41,15.363h-15.543c-0.865-15.047,7.502-9.219,7.502-23.386c0.521-0.51,1.016-1.013,1.502-1.449
							l-0.018-0.415c2.691-5.512,6.106-8.266,10.242-8.266c6.208,0,8.167,2.888,9.834,5.339c-1.249,4.281-6.088,4.914-10.39,7.583
							c-0.506-0.412-1.154-0.658-1.857-0.658c-1.628,0-2.947,1.319-2.947,2.947c0,1.629,1.319,2.947,2.947,2.947
							C460.232,475.845,460.274,475.845,460.32,475.841z"/>
					</g>
					<path fill-rule="evenodd" clip-rule="evenodd" fill="#74B1DD" d="M539.844,529.255c6.099,0,11.895-1.287,17.154-3.577
						c-3.011-10.429-5.716-21.6-5.716-35.848l-13.921-3.187l-0.007-0.007h-0.914c-9.877,8.927-18.068,19.676-24.674,32.148
						C519.303,525.287,529.098,529.255,539.844,529.255z"/>
					<path fill-rule="evenodd" clip-rule="evenodd" fill="#5884A6" d="M527.751,527.5c0.978,0.285,1.97,0.549,2.976,0.763
						c-0.088-4.727,0.049-9.975,0.426-15.768C529.777,517.352,528.676,522.368,527.751,527.5z"/>
				</g>
			</g>
		</g>
		<g>
			<g>
				<circle fill="#86A552" cx="558.093" cy="589.75" r="15.553"/>
				<g>
					<g>
						<g>
							<path fill="#F8F8F8" d="M566.492,594.91l-1.938-1.291l-1.723-1.15c-0.334-0.222-0.781-0.148-1.024,0.165l-1.066,1.372
								c-0.229,0.299-0.64,0.383-0.971,0.201c-0.725-0.401-1.579-0.781-3.468-2.67c-1.889-1.889-2.269-2.743-2.67-3.468
								c-0.183-0.327-0.095-0.739,0.2-0.971l1.372-1.066c0.317-0.246,0.387-0.693,0.165-1.023l-1.111-1.671l-1.326-1.991
								c-0.225-0.338-0.679-0.44-1.027-0.232l-1.53,0.918c-0.415,0.243-0.718,0.637-0.848,1.101
								c-0.419,1.527-0.503,4.893,4.893,10.292c5.396,5.396,8.765,5.311,10.288,4.893c0.461-0.13,0.855-0.436,1.101-0.851
								l0.918-1.53C566.935,595.589,566.833,595.135,566.492,594.91z"/>
						</g>
					</g>
				</g>
			</g>
			<g>
				<circle fill="#C74764" cx="601.591" cy="589.75" r="15.553"/>
				<path fill="#F8F8F8" d="M602.85,589.75l4.495-4.499c0.348-0.348,0.348-0.911,0-1.256c-0.348-0.348-0.911-0.348-1.256,0
					l-4.495,4.499l-4.502-4.499c-0.348-0.348-0.911-0.348-1.256,0c-0.348,0.348-0.348,0.911,0,1.256l4.502,4.499l-4.502,4.499
					c-0.348,0.348-0.348,0.911,0,1.256c0.172,0.172,0.401,0.26,0.633,0.26c0.225,0,0.45-0.088,0.626-0.26l4.502-4.499l4.495,4.499
					c0.172,0.172,0.401,0.26,0.633,0.26c0.225,0,0.45-0.088,0.626-0.26c0.348-0.348,0.348-0.911,0-1.256L602.85,589.75z"/>
			</g>
		</g>
	</g>
	<g>
		<path fill="#CBD3B3" d="M353.287,630.741H104.582c-3.144,0-5.693-2.549-5.693-5.693v-140.99c0-3.144,2.549-5.693,5.693-5.693
			h248.705c3.144,0,5.693,2.549,5.693,5.693v140.99C358.98,628.192,356.431,630.741,353.287,630.741z"/>
		<path fill="#B2BD8D" d="M336.55,647.478H87.846c-3.144,0-5.693-2.549-5.693-5.693v-140.99c0-3.144,2.549-5.693,5.693-5.693H336.55
			c3.144,0,5.693,2.549,5.693,5.693v140.99C342.244,644.929,339.695,647.478,336.55,647.478z"/>
		<path fill="#809243" d="M319.814,664.214H71.109c-3.144,0-5.693-2.549-5.693-5.693v-140.99c0-3.144,2.549-5.693,5.693-5.693
			h248.705c3.144,0,5.693,2.549,5.693,5.693v140.99C325.507,661.665,322.958,664.214,319.814,664.214z"/>
		<path fill="#FFC87F" d="M265.356,603.232H118.248c-9.013,0-16.319-7.306-16.319-16.319l0,0c0-9.013,7.306-16.319,16.319-16.319
			h147.108c9.013,0,16.319,7.306,16.319,16.319l0,0C281.675,595.926,274.369,603.232,265.356,603.232z"/>
		<path fill="none" stroke="#FFC87F" stroke-width="1.6737" stroke-miterlimit="10" d="M308.375,648.656H85.104
			c-0.924,0-1.674-0.749-1.674-1.674V531.426c0-0.924,0.749-1.674,1.674-1.674h223.271c0.924,0,1.674,0.749,1.674,1.674v115.556
			C310.049,647.907,309.3,648.656,308.375,648.656z"/>
		<g>
			<g>
				<circle fill="#606E32" cx="195.077" cy="587.979" r="47.312"/>
			</g>
			<g>
				<path fill="#FFC87F" d="M195.076,626.463c-21.22,0-38.484-17.264-38.484-38.484c0-21.22,17.264-38.483,38.484-38.483
					s38.484,17.263,38.484,38.483C233.561,609.199,216.297,626.463,195.076,626.463z M195.076,551.058
					c-20.358,0-36.921,16.563-36.921,36.921c0,20.359,16.563,36.922,36.921,36.922s36.921-16.563,36.921-36.922
					C231.997,567.621,215.435,551.058,195.076,551.058z"/>
			</g>
			<g>
				<g>
					<path fill="#FFFFFF" d="M197.311,604.821v5.269h-3.857v-5.222c-4.61-0.281-9.079-1.787-11.526-3.904l2.118-4.751
						c2.305,1.881,5.833,3.246,9.409,3.575v-9.409c-5.222-1.269-10.82-2.963-10.82-9.502c0-4.799,3.481-8.986,10.82-9.691v-5.316
						h3.857v5.222c3.481,0.188,7.01,1.223,9.55,2.87l-1.929,4.751c-2.493-1.459-5.128-2.258-7.621-2.541v9.503
						c5.222,1.269,10.914,2.916,10.914,9.455C208.225,599.928,204.697,604.068,197.311,604.821z M193.454,584.686v-8.372
						c-3.34,0.516-4.752,2.21-4.752,4.28C188.702,582.851,190.725,583.886,193.454,584.686z M202.204,595.554
						c0-2.306-2.07-3.388-4.893-4.187v8.326C200.745,599.175,202.204,597.575,202.204,595.554z"/>
				</g>
			</g>
		</g>
	</g>
	<path fill="#62B5E5" d="M719.6,466.34c0,8.867-1.623,15.557-4.869,20.069c-3.246,4.512-8.608,7.818-16.09,9.917
		c-7.482,2.097-17.832,3.146-31.052,3.146v-26.837c7.837-0.159,13.239-1.585,16.209-4.274c2.968-2.694,4.453-6.849,4.453-12.47
		v-35.505v-1.306c0-6.809,2.335-12.33,7.006-16.566c4.67-4.234,11.557-7.025,20.662-8.372v-1.423
		c-17.972-2.692-27.192-11.478-27.668-26.363v-35.507c0-5.541-1.466-9.658-4.393-12.35c-2.93-2.69-8.353-4.156-16.269-4.393v-26.718
		c13.22,0,23.589,1.049,31.112,3.146c7.52,2.099,12.884,5.423,16.09,9.975c3.206,4.553,4.81,11.183,4.81,19.891v37.763v1.188
		c0,6.649,2.435,11.637,7.304,14.962c4.869,3.325,12.566,4.988,23.096,4.988v28.382c-9.897,0-17.437,1.623-22.622,4.869
		c-5.186,3.246-7.777,8.708-7.777,16.386V466.34z"/>
	<path fill="#62B5E5" d="M30.4,127.654c0-8.867,1.623-15.557,4.869-20.069s8.608-7.818,16.09-9.917
		c7.482-2.097,17.832-3.146,31.052-3.146v26.837c-7.837,0.159-13.239,1.585-16.209,4.274c-2.968,2.694-4.453,6.849-4.453,12.47
		v35.505v1.306c0,6.809-2.335,12.33-7.006,16.566c-4.67,4.234-11.557,7.025-20.662,8.372v1.424
		c17.972,2.692,27.192,11.478,27.668,26.363v35.507c0,5.54,1.466,9.658,4.393,12.35c2.929,2.69,8.353,4.156,16.269,4.393v26.718
		c-13.22,0-23.589-1.049-31.112-3.146c-7.52-2.099-12.884-5.423-16.09-9.975c-3.206-4.553-4.81-11.183-4.81-19.891v-37.763v-1.188
		c0-6.649-2.435-11.637-7.304-14.962S10.53,214.696,0,214.696v-28.382c9.897,0,17.437-1.623,22.622-4.869s7.777-8.708,7.777-16.386
		V127.654z"/>
</g>
</svg>
