<?xml version="1.0" encoding="utf-8"?>
<!-- Generator: Adobe Illustrator 25.1.0, SVG Export Plug-In . SVG Version: 6.00 Build 0)  -->
<svg version="1.1" id="Layer_1" xmlns="http://www.w3.org/2000/svg" xmlns:xlink="http://www.w3.org/1999/xlink" x="0px" y="0px"
	 viewBox="0 0 367.8 286.7" style="enable-background:new 0 0 367.8 286.7;" xml:space="preserve">
<style type="text/css">
	.st0{fill:#E6E8E9;}
	.st1{fill:#62B5E5;}
	.st2{fill:#D93963;}
	.st3{fill:#FFE07F;}
	.st4{fill:#81AA43;}
	.st5{fill:#4B4F54;}
	.st6{fill:#005D91;}
	.st7{fill:#C0E1F5;}
	.st8{fill:#E6EED9;}
	.st9{fill:#FFFFFF;}
	.st10{fill:#A32B4A;}
</style>
<g>
	<path class="st7" d="M65.5,94.9c-0.1-1.7-0.2-3.4-0.2-5.1l0,0C65.3,40.2,105.5,0,155.1,0l0,0c39.8,0,73.5,25.9,85.3,61.7
		c5.2-2.7,11-4.3,17.3-4.3c20.5,0,37.1,16.6,37.1,37.1h0.1c40.3,0,73,32.7,73,73l0,0c0,40.3-32.7,73-73,73H73c-40.3,0-73-32.7-73-73
		l0,0C0,129.7,28.7,98.7,65.5,94.9z"/>
	<path class="st5" d="M95.5,181.4l57.5-76.9c3.1-4.2,9.5-4.2,12.6,0l57.5,76.9c4.5,6.1-1.2,14.4-8.5,12.3l-55.3-16.1L104,193.7
		C96.8,195.8,91,187.4,95.5,181.4z"/>
	<polygon class="st5" points="199.5,286.7 119.2,286.7 133.9,147.7 184.8,147.7 	"/>
</g>
</svg>
