<?xml version="1.0" encoding="utf-8"?>
<!-- Generator: Adobe Illustrator 25.1.0, SVG Export Plug-In . SVG Version: 6.00 Build 0)  -->
<svg version="1.1" id="Layer_1" xmlns="http://www.w3.org/2000/svg" xmlns:xlink="http://www.w3.org/1999/xlink" x="0px" y="0px"
	 viewBox="0 0 164.602 164.602" enable-background="new 0 0 164.602 164.602" xml:space="preserve">
<g>
	<g>
		<circle fill="#005D91" cx="82.301" cy="82.301" r="82.301"/>
	</g>
</g>
<g>
	<g>
		<g>
			<radialGradient id="SVGID_4_" cx="82.3012" cy="82.3012" r="57.1946" gradientUnits="userSpaceOnUse">
				<stop  offset="0" style="stop-color:#B2B6B8"/>
				<stop  offset="0.0291" style="stop-color:#B8BBBD"/>
				<stop  offset="0.1389" style="stop-color:#C8CBCC"/>
				<stop  offset="0.2756" style="stop-color:#D3D6D7"/>
				<stop  offset="0.4674" style="stop-color:#DADCDD"/>
				<stop  offset="1" style="stop-color:#DCDEDE"/>
			</radialGradient>
			<path fill="url(#SVGID_4_)" d="M124.937,68.261l-0.515-0.258l-2.061-5.152l0.258-0.515c6.44-14.684,6.182-15.199,4.894-16.23
				l-8.759-8.502c-0.258-0.258-1.03-0.515-1.546-0.515c-0.516,0-2.061,0-14.684,5.925l-0.515,0.258l-5.41-2.061l-0.258-0.515
				c-5.925-14.942-6.699-14.942-8.244-14.942H75.989c-1.546,0-2.061,0-7.729,14.942l-0.258,0.515l-5.152,2.061l-0.515-0.258
				c-8.759-3.606-13.654-5.41-15.199-5.41c-0.515,0-1.288,0.258-1.546,0.515l-8.759,8.502c-1.03,1.03-1.546,1.546,5.41,15.972
				l0.258,0.515l-2.061,5.152l-0.515,0.258c-15.457,5.925-15.457,6.44-15.457,7.987v12.108c0,1.546,0,2.061,15.457,7.729
				l0.515,0.258l2.061,5.152l-0.258,0.515c-6.44,14.684-6.182,15.199-4.894,16.23l8.759,8.502c0.258,0.258,1.03,0.515,1.546,0.515
				c0.515,0,2.061,0,14.684-5.925l0.515-0.258l5.41,2.061l0.258,0.515c5.925,14.942,6.699,14.942,8.244,14.942h12.108
				c1.546,0,2.061,0,7.729-14.942l0.258-0.515l5.152-2.061l0.515,0.258c8.759,3.606,13.654,5.41,14.942,5.41
				c0.515,0,1.288-0.258,1.546-0.515l8.759-8.502c1.03-1.03,1.546-1.546-5.41-15.972v-0.773l2.061-5.152h0.515
				c15.199-5.925,15.199-6.44,15.199-7.987V75.99C140.136,74.445,140.136,73.672,124.937,68.261z"/>
		</g>
	</g>
</g>
<path fill="#BA4764" d="M95.599,60.851c-9.258,0-13.298,11.545-13.298,11.545s-2.652-11.545-13.298-11.545
	c-8.465,0-15.327,6.862-15.327,15.327c0,22.184,28.626,33.68,28.626,33.68s28.625-11.724,28.625-33.68
	C110.927,67.713,104.064,60.851,95.599,60.851z"/>
</svg>
