<?xml version="1.0" encoding="utf-8"?>
<!-- Generator: Adobe Illustrator 25.1.0, SVG Export Plug-In . SVG Version: 6.00 Build 0)  -->
<svg version="1.1" id="Layer_1" xmlns="http://www.w3.org/2000/svg" xmlns:xlink="http://www.w3.org/1999/xlink" x="0px" y="0px"
	 viewBox="0 0 427.108 257.106" enable-background="new 0 0 427.108 257.106" xml:space="preserve">
<linearGradient id="SVGID_4_" gradientUnits="userSpaceOnUse" x1="0" y1="128.5532" x2="427.1083" y2="128.5532">
	<stop  offset="0" style="stop-color:#E8EAEA"/>
	<stop  offset="1" style="stop-color:#BEC2C4"/>
</linearGradient>
<path fill="url(#SVGID_4_)" d="M427.108,192.184c0-35.76-29.067-64.826-64.826-64.826c-4.207,0-8.414,0.478-12.43,1.243
	c1.147-4.398,1.817-8.988,1.817-13.768c0-30.023-24.286-54.309-54.309-54.309c-13.29,0-25.433,4.781-34.899,12.717
	C249.84,30.883,210.734,0,164.265,0C107.662,0,61.862,45.895,61.862,102.403c0,4.398,0.287,8.605,0.861,12.908
	C27.346,119.422,0,149.445,0,185.969c0,39.297,31.84,71.137,71.137,71.137h302.714C403.3,250.891,427.108,223.45,427.108,192.184z"
	/>
<path fill="#D3B19A" d="M137.33,35.55c0,0,22.029,1.648,23.752,10.279c2.834,14.199-12.835,39.231-12.835,39.231l-26.131-5.946
	l3.078-19.883l9.838-5.227L137.33,35.55z"/>
<g id="Head_x2F_Front_x2F_Long_11_" transform="translate(82.000000, 0.000000)">
	<path id="Hair-Back_17_" fill-rule="evenodd" clip-rule="evenodd" fill="#252728" d="M110.355,38.464
		c-5.075,18.608-11.7,60.617-4.934,67.101h42.573c0-0.141,0-0.141,0-0.282c15.788-1.692,28.053-15.084,28.053-31.436v-30.59
		c0-17.48-14.097-31.577-31.577-31.577h-2.96C125.721,11.68,112.611,23.239,110.355,38.464z"/>
	<g id="Head_57_" transform="translate(54.000000, 31.000000)">
		<path fill-rule="evenodd" clip-rule="evenodd" fill="#D3B19A" d="M105.554,37.208c6.767-7.894,11.278-17.621,10.573-28.617
			c-2.256-31.436-45.956-24.529-54.414-8.599s-7.471,56.106,3.524,58.925c4.37,1.128,13.674-1.692,23.26-7.33l-5.921,42.291h35.242
			L105.554,37.208z"/>
	</g>
	<path id="Hair-Front_33_" fill-rule="evenodd" clip-rule="evenodd" fill="#252728" d="M149.968,62.851
		c-1.692,17.48-0.987,37.357,3.806,42.15h42.573c2.396-41.304-20.44-25.374-20.44-64.141c-1.41-1.41-2.819-2.819-4.088-3.947v-1.128
		c-7.33-15.084-16.775-22.696-28.053-22.696c-17.057,0-22.414,7.894-26.925,14.661c3.383,11.7,16.634,13.533,28.476,20.722
		c1.41-1.128,3.101-1.833,5.075-1.833c4.511,0,8.035,3.665,8.035,8.035s-3.665,8.035-8.035,8.035
		C150.25,62.851,150.109,62.851,149.968,62.851z"/>
</g>
<path fill-rule="evenodd" clip-rule="evenodd" fill="#FFFFFF" d="M207.298,101.195l-65.002,6.306l12.618-31.152l-33.912-5.148
	c0,0-33.912,47.735-13.013,65.48s102.029,22.967,102.029,22.967l8.776-47.415L207.298,101.195z"/>
<path fill-rule="evenodd" clip-rule="evenodd" fill="#FFFFFF" d="M278.769,256.965v-0.141H175.721
	c10.714-48.211,23.119-86.768,31.577-155.63l38.203-8.74l0,0h2.537c45.533,41.163,78.379,96,98.396,164.652h-67.665V256.965z"/>
<path id="Shade_5_" fill-rule="evenodd" clip-rule="evenodd" fill="#252728" d="M262.558,163.221
	c2.678,40.881,1.128,72.035-4.652,93.603h21.004C275.95,223.838,270.875,192.684,262.558,163.221z"/>
<path fill-rule="evenodd" clip-rule="evenodd" fill="#85A452" d="M188.166,256.824c0,0,23.368-73.72,19.132-155.63l22.77-5.209
	c0,0,15.181,51.084,5.831,160.839H188.166z"/>
<g opacity="0.75">
	<path fill="#B1B2B2" d="M136.413,86.22l-3.233-0.979c-4.881-1.479-7.639-6.634-6.161-11.515l14.829-48.956l20.908,6.333
		l-14.829,48.956C146.45,84.94,141.294,87.698,136.413,86.22z"/>
	<path fill="#7F7F7F" d="M164.343,27.571l-21.852-6.619c-0.858-0.26-1.764,0.225-2.024,1.083l-0.172,0.568
		c-0.26,0.858,0.225,1.764,1.083,2.024l21.852,6.619c0.858,0.26,1.764-0.225,2.024-1.083l0.172-0.568
		C165.685,28.737,165.201,27.831,164.343,27.571z"/>
</g>
<path fill="#C64764" d="M136.075,83.637l-1.18-0.358c-4.396-1.332-6.881-5.975-5.549-10.371l9.746-32.175l18.391,0.921
	l-11.036,36.434C145.115,82.484,140.472,84.969,136.075,83.637z"/>
<g>
	<g opacity="0.75">
		<path fill="#B1B2B2" d="M159.518,237.106l-3.378-0.009c-5.1-0.013-9.224-4.158-9.211-9.258l0.132-51.152l21.847,0.057
			l-0.132,51.152C168.763,232.996,164.618,237.12,159.518,237.106z"/>
		<path fill="#7F7F7F" d="M169.412,172.905l-22.833-0.059c-0.897-0.002-1.625,0.723-1.627,1.619l-0.002,0.594
			c-0.002,0.897,0.723,1.625,1.619,1.627l22.833,0.059c0.897,0.002,1.625-0.723,1.627-1.619l0.002-0.594
			C171.033,173.636,170.308,172.907,169.412,172.905z"/>
	</g>
	<path fill="#62B5E5" d="M158.452,234.73l-1.233-0.003c-4.594-0.012-8.308-3.745-8.296-8.339l0.087-33.618l17.879-4.404
		l-0.099,38.068C166.779,231.028,163.045,234.742,158.452,234.73z"/>
</g>
<g>
	<g opacity="0.75">
		<path fill="#B1B2B2" d="M130.615,237.106l-3.378-0.009c-5.1-0.013-9.224-4.158-9.211-9.258l0.133-51.152l21.847,0.057
			l-0.133,51.152C139.861,232.996,135.716,237.12,130.615,237.106z"/>
		<path fill="#7F7F7F" d="M140.509,172.905l-22.833-0.059c-0.897-0.002-1.625,0.723-1.627,1.619l-0.002,0.594
			c-0.002,0.897,0.723,1.625,1.619,1.627l22.833,0.059c0.897,0.002,1.625-0.723,1.627-1.619l0.002-0.594
			C142.131,173.636,141.406,172.907,140.509,172.905z"/>
	</g>
	<path fill="#FFE07F" d="M129.549,234.73l-1.233-0.003c-4.594-0.012-8.308-3.745-8.296-8.339l0.087-33.618l17.879-4.404
		l-0.099,38.068C137.876,231.028,134.143,234.742,129.549,234.73z"/>
</g>
<g>
	<g opacity="0.75">
		<path fill="#B1B2B2" d="M101.713,237.106l-3.378-0.009c-5.1-0.013-9.224-4.158-9.211-9.258l0.132-51.152l21.847,0.057
			l-0.133,51.152C110.958,232.996,106.813,237.12,101.713,237.106z"/>
		<path fill="#7F7F7F" d="M111.607,172.905l-22.833-0.059c-0.897-0.002-1.625,0.723-1.627,1.619l-0.002,0.594
			c-0.002,0.897,0.723,1.625,1.619,1.627l22.833,0.059c0.897,0.002,1.625-0.723,1.627-1.619l0.002-0.594
			C113.228,173.636,112.503,172.907,111.607,172.905z"/>
	</g>
	<path fill="#009187" d="M100.647,234.73l-1.233-0.003c-4.594-0.012-8.308-3.745-8.296-8.339l0.087-33.618l17.879-4.404
		l-0.099,38.068C108.974,231.028,105.241,234.742,100.647,234.73z"/>
</g>
<path fill="#D3B19A" d="M152.441,69.416l-10.643-7.902c-2.003-1.487-2.421-4.316-0.934-6.319l0.985-1.327
	c1.487-2.003,4.316-2.421,6.319-0.934l7.943,5.897c2.003,1.487,2.421,4.316,0.934,6.319l-2.99,4.027
	C153.676,69.689,152.953,69.796,152.441,69.416z"/>
<path fill="#D3B19A" d="M142.909,48.405l-9.468-2.868c-2.387-0.723-3.737-3.245-3.013-5.632l0.479-1.581
	c0.723-2.387,3.245-3.737,5.632-3.013l9.468,2.868c2.387,0.723,3.737,3.245,3.013,5.632l-0.479,1.581
	C147.818,47.779,145.297,49.128,142.909,48.405z"/>
<path fill="#D3B19A" d="M140.625,55.947l-9.468-2.868c-2.387-0.723-3.737-3.245-3.013-5.632l0.479-1.581
	c0.723-2.387,3.245-3.737,5.632-3.013l9.468,2.868c2.387,0.723,3.737,3.245,3.013,5.632l-0.479,1.581
	C145.534,55.321,143.012,56.67,140.625,55.947z"/>
<path fill="#D3B19A" d="M138.693,62.325l-9.468-2.868c-2.388-0.723-3.737-3.245-3.013-5.632l0.479-1.581
	c0.723-2.387,3.245-3.737,5.632-3.013l9.468,2.868c2.387,0.723,3.737,3.245,3.013,5.632l-0.479,1.581
	C143.602,61.699,141.08,63.048,138.693,62.325z"/>
<path fill="#4B4F54" d="M79.709,253.926v-61.146c0-1.219,0.988-2.208,2.208-2.208h0c1.219,0,2.208,0.988,2.208,2.208v61.146
	c0,1.219-0.988,2.208-2.208,2.208h0C80.697,256.134,79.709,255.146,79.709,253.926z"/>
<path fill="#4B4F54" d="M172.428,253.926v-61.146c0-1.219,0.988-2.208,2.208-2.208h0c1.219,0,2.208,0.988,2.208,2.208v61.146
	c0,1.219-0.988,2.208-2.208,2.208h0C173.416,256.134,172.428,255.146,172.428,253.926z"/>
<path fill="#252728" d="M178.952,256.824h-8.632c-1.219,0-2.208-0.988-2.208-2.208l0,0c0-1.219,0.988-2.208,2.208-2.208h8.632
	c1.219,0,2.208,0.988,2.208,2.208l0,0C181.16,255.836,180.171,256.824,178.952,256.824z"/>
<path fill="#D3B19A" d="M134.517,67.638l-6.548-1.984c-2.387-0.723-3.737-3.245-3.013-5.632l0.479-1.581
	c0.723-2.387,3.245-3.737,5.632-3.013l6.548,1.984c2.387,0.723,3.737,3.245,3.013,5.632l-0.479,1.581
	C139.427,67.012,136.905,68.361,134.517,67.638z"/>
<path fill="#252728" d="M178.952,192.781H77.601c-1.219,0-2.208-0.988-2.208-2.208l0,0c0-1.219,0.988-2.208,2.208-2.208h101.351
	c1.219,0,2.208,0.988,2.208,2.208l0,0C181.16,191.793,180.171,192.781,178.952,192.781z"/>
<path fill="#252728" d="M86.233,256.824h-8.632c-1.219,0-2.208-0.988-2.208-2.208l0,0c0-1.219,0.988-2.208,2.208-2.208h8.632
	c1.219,0,2.208,0.988,2.208,2.208l0,0C88.441,255.836,87.452,256.824,86.233,256.824z"/>
<circle fill-rule="evenodd" clip-rule="evenodd" fill="#62B5E5" cx="91.118" cy="149.532" r="9.856"/>
<circle fill-rule="evenodd" clip-rule="evenodd" fill="#62B5E5" cx="103.448" cy="124.878" r="5.637"/>
<circle fill-rule="evenodd" clip-rule="evenodd" fill="#62B5E5" cx="87.793" cy="109.234" r="3.669"/>
</svg>
