<?xml version="1.0" encoding="utf-8"?>
<!-- Generator: Adobe Illustrator 25.1.0, SVG Export Plug-In . SVG Version: 6.00 Build 0)  -->
<svg version="1.1" id="Layer_1" xmlns="http://www.w3.org/2000/svg" xmlns:xlink="http://www.w3.org/1999/xlink" x="0px" y="0px"
	 viewBox="0 0 164.602 164.602" enable-background="new 0 0 164.602 164.602" xml:space="preserve">
<circle fill="#BA4764" cx="82.301" cy="82.301" r="82.301"/>
<g>
	<g>
		<path fill="#FFFFFF" d="M108.342,95.325l-52.05-0.028l0.028-52.429c0.005-8.736,7.114-15.839,15.848-15.839
			c0.003,0,0.006,0,0.009,0l20.354,0.011c8.739,0.005,15.844,7.118,15.84,15.856L108.342,95.325z M64.227,87.37l36.189,0.02
			l0.024-44.498c0.002-4.366-3.547-7.919-7.913-7.922l-20.354-0.011c-0.001,0-0.003,0-0.005,0c-4.364,0-7.915,3.549-7.917,7.913
			L64.227,87.37z"/>
	</g>
	<g>
		<path fill="#FBE08D" d="M115.665,131.574l-66.735-0.036c-3.49-0.002-6.226-2.999-5.912-6.475l4.733-52.286
			c0.277-3.061,2.844-5.405,5.918-5.404l57.324,0.031c3.074,0.002,5.638,2.348,5.912,5.41l4.677,52.291
			C121.895,128.582,119.155,131.576,115.665,131.574z"/>
	</g>
	<g>
		<circle fill="#BA4764" cx="82.322" cy="90.231" r="7.376"/>
	</g>
	<g>
		<polygon fill="#BA4764" points="87.686,111.946 76.934,111.939 79.495,91.621 85.147,91.624 		"/>
	</g>
</g>
</svg>
