<?xml version="1.0" encoding="utf-8"?>
<!-- Generator: Adobe Illustrator 25.0.1, SVG Export Plug-In . SVG Version: 6.00 Build 0)  -->
<svg version="1.1" id="Layer_1" xmlns="http://www.w3.org/2000/svg" xmlns:xlink="http://www.w3.org/1999/xlink" x="0px" y="0px"
	 viewBox="0 0 238.6 238.6" enable-background="new 0 0 238.6 238.6" xml:space="preserve">
<g>
	<g>
		<g>
			<defs>
				<circle id="SVGID_439_" cx="119.3" cy="119.3" r="119.3"/>
			</defs>
			<radialGradient id="SVGID_4_" cx="119.3" cy="119.3" r="119.3" gradientUnits="userSpaceOnUse">
				<stop  offset="0" style="stop-color:#FFFFFF"/>
				<stop  offset="0.0028" style="stop-color:#FFFFFF"/>
				<stop  offset="0.2696" style="stop-color:#EFEFEF"/>
				<stop  offset="0.5743" style="stop-color:#E6E6E6"/>
				<stop  offset="1" style="stop-color:#E3E3E3"/>
			</radialGradient>
			<use xlink:href="#SVGID_439_"  overflow="visible" fill="url(#SVGID_4_)"/>
			<clipPath id="SVGID_6_">
				<use xlink:href="#SVGID_439_"  overflow="visible"/>
			</clipPath>
			<radialGradient id="SVGID_8_" cx="119.3" cy="119.3" r="119.3" gradientUnits="userSpaceOnUse">
				<stop  offset="0" style="stop-color:#FFFFFF"/>
				<stop  offset="0.0028" style="stop-color:#FFFFFF"/>
				<stop  offset="0.2696" style="stop-color:#EFEFEF"/>
				<stop  offset="0.5743" style="stop-color:#E6E6E6"/>
				<stop  offset="1" style="stop-color:#E3E3E3"/>
			</radialGradient>
			
				<circle opacity="0.5" clip-path="url(#SVGID_6_)" fill="url(#SVGID_8_)" enable-background="new    " cx="119.3" cy="119.3" r="119.3"/>
		</g>
	</g>
	<g>
		<g>
			<path fill="#FFFFFF" d="M198.691,176.831H39.909c-1.712,0-3.1-1.388-3.1-3.1V80.327h164.982v93.404
				C201.791,175.443,200.403,176.831,198.691,176.831z"/>
			<path fill="#C0C5C7" d="M198.691,64.441H39.909c-1.712,0-3.1,1.388-3.1,3.1v12.727h164.982V67.541
				C201.791,65.829,200.403,64.441,198.691,64.441z"/>
			<circle fill="#C13963" cx="46.413" cy="72.355" r="3.742"/>
			<circle fill="#FFC87F" cx="57.668" cy="72.355" r="3.742"/>
			<circle fill="#809243" cx="68.924" cy="72.355" r="3.742"/>
		</g>
	</g>
	<g>
		<g>
			<g>
				<g>
					<path fill="#C74764" d="M142.214,120.591l-0.271-0.136l-1.085-2.712l0.136-0.271c3.389-7.728,3.254-7.999,2.576-8.542
						l-4.609-4.474c-0.136-0.136-0.542-0.271-0.814-0.271s-1.085,0-7.728,3.118l-0.271,0.136l-2.847-1.085l-0.136-0.271
						c-3.118-7.864-3.525-7.864-4.338-7.864h-6.373c-0.814,0-1.085,0-4.067,7.864l-0.136,0.271l-2.712,1.085l-0.271-0.136
						c-4.609-1.898-7.186-2.847-7.999-2.847c-0.271,0-0.678,0.136-0.814,0.271l-4.609,4.474c-0.542,0.542-0.814,0.814,2.847,8.406
						l0.136,0.271l-1.085,2.712l-0.271,0.136c-8.135,3.118-8.135,3.389-8.135,4.203v6.372c0,0.814,0,1.085,8.135,4.067l0.271,0.136
						l1.085,2.712l-0.136,0.271c-3.389,7.728-3.254,7.999-2.576,8.542l4.609,4.474c0.136,0.136,0.542,0.271,0.814,0.271
						c0.271,0,1.085,0,7.728-3.118l0.271-0.136l2.847,1.085l0.136,0.271c3.118,7.864,3.525,7.864,4.338,7.864h6.372
						c0.814,0,1.085,0,4.067-7.864l0.136-0.271l2.712-1.085l0.271,0.136c4.609,1.898,7.186,2.847,7.864,2.847
						c0.271,0,0.678-0.136,0.814-0.271l4.609-4.474c0.542-0.542,0.814-0.814-2.847-8.406v-0.407l1.085-2.712h0.271
						c7.999-3.118,7.999-3.389,7.999-4.203v-6.372C150.213,123.845,150.213,123.438,142.214,120.591z M120.444,138.2
						c-6.401,0.345-11.506-4.859-11.007-11.133c0.406-5.114,4.682-9.167,9.805-9.443c6.401-0.345,11.506,4.859,11.007,11.133
						C129.842,133.871,125.566,137.923,120.444,138.2z"/>
				</g>
			</g>
		</g>
		<g>
			<g>
				<path fill="#809243" d="M62.843,140.524c0-2.433-0.916-4.293-2.749-5.58c-1.832-1.286-4.496-1.93-7.992-1.93v-10.028
					c3.524,0,6.194-0.615,8.013-1.846c1.818-1.231,2.728-2.993,2.728-5.287v-0.336v-13.342c0-4.279,1.356-7.293,4.07-9.041
					c2.713-1.748,7.482-2.622,14.307-2.622v9.44c-2.769,0.084-4.678,0.615-5.727,1.594c-1.049,0.979-1.573,2.42-1.573,4.321v12.545
					c-0.168,5.259-3.441,8.363-9.817,9.314v0.503c6.545,0.979,9.817,3.944,9.817,8.895v0.378v12.544
					c0,1.902,0.517,3.342,1.552,4.322c1.034,0.979,2.951,1.51,5.748,1.594v9.482c-6.825,0-11.594-0.874-14.307-2.622
					c-2.713-1.748-4.07-4.776-4.07-9.083V140.524z"/>
				<path fill="#809243" d="M175.757,153.74c0,3.133-0.573,5.496-1.72,7.091c-1.147,1.594-3.041,2.762-5.685,3.504
					c-2.643,0.741-6.3,1.112-10.971,1.112v-9.482c2.769-0.056,4.678-0.56,5.727-1.51c1.049-0.952,1.573-2.42,1.573-4.406v-12.544
					v-0.462c0-2.406,0.825-4.356,2.475-5.853c1.65-1.496,4.083-2.482,7.3-2.958v-0.503c-6.35-0.951-9.607-4.055-9.775-9.314v-12.545
					c0-1.958-0.518-3.412-1.552-4.363c-1.035-0.95-2.951-1.468-5.748-1.552v-9.44c4.671,0,8.334,0.371,10.992,1.112
					c2.657,0.742,4.552,1.916,5.685,3.524c1.133,1.609,1.699,3.951,1.699,7.028v13.342v0.42c0,2.349,0.86,4.112,2.58,5.286
					c1.72,1.175,4.44,1.762,8.16,1.762v10.028c-3.497,0-6.161,0.573-7.993,1.72s-2.748,3.077-2.748,5.789V153.74z"/>
			</g>
		</g>
	</g>
</g>
</svg>
