<?xml version="1.0" encoding="utf-8"?>
<!-- Generator: Adobe Illustrator 25.1.0, SVG Export Plug-In . SVG Version: 6.00 Build 0)  -->
<svg version="1.1" id="Layer_1" xmlns="http://www.w3.org/2000/svg" xmlns:xlink="http://www.w3.org/1999/xlink" x="0px" y="0px"
	 viewBox="0 0 359.2 250.2" style="enable-background:new 0 0 359.2 250.2;" xml:space="preserve">
<style type="text/css">
	.st0{fill:#E6E8E9;}
	.st1{fill:#62B5E5;}
	.st2{fill:#D93963;}
	.st3{fill:#FFE07F;}
	.st4{fill:#81AA43;}
	.st5{fill:#4B4F54;}
	.st6{fill:#005D91;}
	.st7{fill:#C0E1F5;}
	.st8{fill:#E6EED9;}
	.st9{fill:#FFFFFF;}
	.st10{fill:#A32B4A;}
</style>
<g>
	<g>
		<rect class="st0" width="359.2" height="250.2"/>
		<rect class="st1" width="359.2" height="47.8"/>
		<circle class="st2" cx="25.6" cy="22.6" r="9.3"/>
		<circle class="st3" cx="52.8" cy="22.6" r="9.3"/>
		<circle class="st4" cx="80" cy="22.6" r="9.3"/>
	</g>
	<path class="st2" d="M179.6,227.1L179.6,227.1L179.6,227.1c-46.5-33.9-74-50.8-74-138.6l74-28.8l74,28.8
		C253.6,170.1,226.1,193.2,179.6,227.1z"/>
	<path class="st9" d="M179.6,176.1L179.6,176.1c-6.1,0-11-4.9-11-11v-50.3c0-6.1,4.9-11,11-11h0c6.1,0,11,4.9,11,11v50.3
		C190.5,171.2,185.6,176.1,179.6,176.1z"/>
	<path class="st9" d="M143.5,139.9L143.5,139.9c0-6.1,4.9-11,11-11h50.3c6.1,0,11,4.9,11,11v0c0,6.1-4.9,11-11,11h-50.3
		C148.4,150.9,143.5,146,143.5,139.9z"/>
</g>
</svg>
