<svg id="LOGOS" xmlns="http://www.w3.org/2000/svg" viewBox="0 0 301 132"><defs><style>.cls-1{fill:#8e134a;}.cls-1,.cls-2{fill-rule:evenodd;}.cls-2,.cls-3{fill:#ca2171;}</style></defs><path d="M117.1,62.45c0-7.38,4.29-11.67,14.34-11.67a45.49,45.49,0,0,1,10.95,1.33l-.85,6.59a60,60,0,0,0-9.86-1c-5.26,0-7,1.82-7,6.11V79.27c0,4.3,1.7,6.11,7,6.11a59,59,0,0,0,9.86-1l.85,6.6a45.49,45.49,0,0,1-10.95,1.33c-10,0-14.34-4.3-14.34-11.68Z"/><path d="M158.72,92.28c-10.1,0-12.82-5.57-12.82-11.62V73.22c0-6,2.72-11.61,12.82-11.61s12.83,5.56,12.83,11.61v7.44C171.55,86.71,168.83,92.28,158.72,92.28Zm0-24.38c-3.93,0-5.44,1.75-5.44,5.08v7.93c0,3.32,1.51,5.08,5.44,5.08s5.45-1.76,5.45-5.08V73C164.17,69.65,162.65,67.9,158.72,67.9Z"/><path d="M194,91.68V71.1c0-1.57-.66-2.35-2.36-2.35s-5,1.08-7.68,2.48V91.68h-7.38V62.21h5.62l.73,2.48a29.59,29.59,0,0,1,11.8-3.08c4.9,0,6.65,3.44,6.65,8.71V91.68Z"/><path d="M216.56,92.28a35,35,0,0,1-10.17-1.69l1-5.63a32.83,32.83,0,0,0,8.77,1.27c3.27,0,3.75-.73,3.75-3,0-1.81-.36-2.72-5.14-3.87-7.2-1.75-8.05-3.57-8.05-9.25,0-5.93,2.61-8.53,11-8.53a39.07,39.07,0,0,1,8.83,1l-.73,5.87a52.09,52.09,0,0,0-8.1-.84c-3.21,0-3.75.72-3.75,2.54,0,2.36.18,2.54,4.17,3.57,8.23,2.17,9,3.26,9,9.31C227.2,88.77,225.45,92.28,216.56,92.28Z"/><path d="M239.42,62.21V82.78c0,1.57.67,2.36,2.36,2.36s5-1.09,7.69-2.48V62.21h7.38V91.68h-5.63l-.73-2.49a29.4,29.4,0,0,1-11.79,3.09c-4.9,0-6.66-3.45-6.66-8.71V62.21Z"/><path d="M263.2,91.68V50.17l7.38-1V91.68Z"/><path class="cls-1" d="M61.58,78.3a6.84,6.84,0,1,1,6.83-6.85,6.82,6.82,0,0,1-6.83,6.85"/><path class="cls-2" d="M74.89,74.61a3.16,3.16,0,1,1,3.16-3.15,3.14,3.14,0,0,1-3.16,3.15"/><path class="cls-2" d="M86.43,77.59h0a3.06,3.06,0,1,1,.06-.25c0,.07,0,.15-.06.25"/><path class="cls-2" d="M84.2,69.46a3.16,3.16,0,1,1,2.34-3.79,3.2,3.2,0,0,1,0,1.23,3,3,0,0,1-2.37,2.56"/><path class="cls-2" d="M95.42,77.24a2.93,2.93,0,1,1,.06-.29.88.88,0,0,0-.06.29"/><path class="cls-2" d="M92.85,69.32a3.1,3.1,0,1,1,2.63-2.81,3.15,3.15,0,0,1-2.63,2.81"/><path class="cls-2" d="M90.65,88.16h0a3.2,3.2,0,1,1,.39-1.3,2.8,2.8,0,0,1-.39,1.3"/><path class="cls-2" d="M89.51,59.18a3.16,3.16,0,1,1,1.21-4.31,2.92,2.92,0,0,1,.38,1.83,3.15,3.15,0,0,1-1.59,2.48"/><path class="cls-3" d="M61.7,103.24A31.7,31.7,0,1,1,81,46.35l-3.87,5a25.34,25.34,0,1,0,0,40.27L81,96.73A31.41,31.41,0,0,1,61.7,103.24Z"/><path d="M125.35,41.45V35.79h-5.18v5.66h-2.64V27.86h2.64v5.7h5.18v-5.7H128V41.45Zm12.32,0h-2.09l-.19-.67a5.71,5.71,0,0,1-3,.87c-1.87,0-2.66-1.23-2.66-2.92,0-2,.9-2.76,3-2.76h2.45V35c0-1.09-.31-1.47-1.94-1.47a14.85,14.85,0,0,0-2.83.3L130,31.91a14,14,0,0,1,3.5-.46c3.21,0,4.15,1.08,4.15,3.54Zm-2.56-3.71h-1.88c-.84,0-1.07.23-1.07,1s.23,1,1,1a4,4,0,0,0,1.92-.51ZM143,41.65a12.53,12.53,0,0,1-3.52-.56l.35-1.88a11.5,11.5,0,0,0,3,.43c1.13,0,1.3-.25,1.3-1s-.12-.91-1.78-1.29c-2.49-.58-2.79-1.18-2.79-3.08s.9-2.83,3.82-2.83a14.07,14.07,0,0,1,3.06.34l-.26,2a18.71,18.71,0,0,0-2.8-.28c-1.11,0-1.3.24-1.3.84,0,.79.06.85,1.44,1.19,2.85.73,3.13,1.09,3.13,3.1S146.11,41.65,143,41.65Zm11.7-.2V34.61c0-.53-.23-.79-.82-.79a7.23,7.23,0,0,0-2.66.83v6.8H148.7V27.67l2.55.38v4.34a9.34,9.34,0,0,1,3.73-.94c1.7,0,2.31,1.14,2.31,2.89v7.11Zm4.71-11.19v-2.4H162v2.4Zm0,11.19v-9.8H162v9.8Zm4.6-9.72c0-2.46,1.48-3.89,5-3.89a16.62,16.62,0,0,1,3.8.45l-.3,2.19a21.49,21.49,0,0,0-3.41-.34c-1.83,0-2.41.6-2.41,2v5.15c0,1.43.58,2,2.41,2A21.49,21.49,0,0,0,172.5,39l.3,2.2a16.63,16.63,0,0,1-3.8.44c-3.48,0-5-1.43-5-3.89Zm14.4,9.92c-3.5,0-4.44-1.85-4.44-3.87V35.31c0-2,.94-3.86,4.44-3.86s4.45,1.85,4.45,3.86v2.47C182.89,39.8,181.94,41.65,178.44,41.65Zm0-8.11c-1.36,0-1.88.58-1.88,1.69v2.64c0,1.1.52,1.69,1.88,1.69s1.89-.59,1.89-1.69V35.23C180.33,34.12,179.81,33.54,178.44,33.54Zm11.65.16a20.64,20.64,0,0,0-2.71,1.43v6.32h-2.55v-9.8H187l.17,1.08a11.63,11.63,0,0,1,2.69-1.28Zm10.22,4.49c0,2.17-1,3.46-3.38,3.46a14.74,14.74,0,0,1-2.72-.28v4l-2.56.38V31.65h2l.26.82a5.54,5.54,0,0,1,3.22-1c2.06,0,3.15,1.16,3.15,3.4Zm-6.1,1.1a11.84,11.84,0,0,0,2.26.27c.92,0,1.28-.43,1.28-1.31V34.79c0-.81-.31-1.25-1.26-1.25a3.68,3.68,0,0,0-2.28.88Z"/></svg>