<?xml version="1.0" encoding="utf-8"?>
<!-- Generator: Adobe Illustrator 24.0.0, SVG Export Plug-In . SVG Version: 6.00 Build 0)  -->
<svg version="1.1" id="Layer_1" xmlns="http://www.w3.org/2000/svg" xmlns:xlink="http://www.w3.org/1999/xlink" x="0px" y="0px"
	 viewBox="0 0 460 341.9" style="enable-background:new 0 0 460 341.9;" xml:space="preserve">
<style type="text/css">
	.st0{fill-rule:evenodd;clip-rule:evenodd;fill:#FFE07F;}
	.st1{fill-rule:evenodd;clip-rule:evenodd;fill:#FFFFFF;fill-opacity:0.5;}
	.st2{fill-rule:evenodd;clip-rule:evenodd;fill:#62B5E5;}
	.st3{fill:#FFFFFF;}
	.st4{fill:#A1D3EF;}
	.st5{fill:#002F49;}
	.st6{fill:#62B5E5;}
	.st7{fill-rule:evenodd;clip-rule:evenodd;fill:#A1D3EF;}
	.st8{fill-rule:evenodd;clip-rule:evenodd;fill:#FBFBFB;}
	.st9{fill:#4A88AC;}
	.st10{fill-rule:evenodd;clip-rule:evenodd;fill:#D93963;}
	.st11{fill:none;stroke:#002F49;stroke-width:14.4957;stroke-linecap:round;stroke-miterlimit:10;}
	.st12{fill:none;stroke:#002F49;stroke-width:8;stroke-linecap:round;stroke-miterlimit:10;}
	.st13{fill:#FFE07F;}
	.st14{fill:#81AA43;}
	.st15{fill:#D93963;}
	.st16{fill-rule:evenodd;clip-rule:evenodd;fill:#FFFFFF;}
	.st17{fill-rule:evenodd;clip-rule:evenodd;fill:#002F49;}
	.st18{fill:url(#SVGID_1_);}
	.st19{fill:#62B5E5;stroke:#FFFFFF;stroke-width:2.5;stroke-miterlimit:10;}
	.st20{opacity:0.3;}
	.st21{fill:none;stroke:#FFFFFF;stroke-width:0.6012;stroke-linejoin:round;stroke-miterlimit:10;}
</style>
<g>
	<g>
		<path class="st3" d="M460,118.5c0-20-16.2-36.2-36.2-36.2c-2.4,0-4.7,0.3-7,0.6c0.6-2.4,1-5.1,1-7.7c0-16.7-13.5-30.2-30.2-30.2
			c-7.5,0-14.2,2.7-19.5,7.1c-7-23.5-28.7-40.7-54.6-40.7c-31.5,0-57.2,25.6-57.2,57.2c0,2.4,0.1,4.8,0.5,7.2
			c-19.7,2.3-35,19.1-35,39.3c0,21.9,17.7,39.7,39.7,39.7h168.9C446.9,151.3,460,136,460,118.5z"/>
		<path class="st3" d="M240.7,288.3c0-20-16.2-36.2-36.2-36.2c-2.4,0-4.7,0.3-7,0.6c0.6-2.4,1-5.1,1-7.7c0-16.7-13.5-30.2-30.2-30.2
			c-7.5,0-14.2,2.7-19.5,7.1c-7-23.7-28.8-40.9-54.8-40.9c-31.5,0-57.2,25.6-57.2,57.2c0,2.4,0.1,4.8,0.5,7.2
			c-19.6,2.3-34.9,19-34.9,39.3c0,21.9,17.7,39.7,39.7,39.7h168.9C227.4,320.9,240.7,305.6,240.7,288.3z"/>
	</g>
	<g>
		<path class="st5" d="M141.2,101.4c-0.9-0.6-1-1.8-0.4-2.7l0,0c0.6-0.9,1.8-1,2.7-0.4l0,0c0.9,0.6,1,1.8,0.4,2.7l0,0
			c-0.4,0.5-0.9,0.8-1.5,0.8l0,0C141.9,101.8,141.5,101.7,141.2,101.4z M131,93.7c-0.9-0.6-1-1.9-0.4-2.7l0,0c0.6-0.9,1.8-1,2.7-0.4
			l0,0c0.9,0.6,1,1.8,0.4,2.7l0,0c-0.4,0.5-0.9,0.8-1.5,0.8l0,0C131.8,94.1,131.4,94,131,93.7z M121.1,86.1c-0.9-0.6-1-1.8-0.4-2.7
			l0,0c0.6-0.9,1.8-1,2.7-0.4l0,0c0.9,0.6,1,1.9,0.4,2.7l0,0c-0.4,0.5-1,0.8-1.5,0.8l0,0C121.8,86.5,121.4,86.4,121.1,86.1z
			 M110.9,78.4c-0.9-0.6-1-1.8-0.4-2.7l0,0c0.6-0.9,1.8-1,2.7-0.4l0,0c0.9,0.6,1,1.8,0.4,2.7l0,0c-0.4,0.5-1,0.8-1.5,0.8l0,0
			C111.7,78.8,111.3,78.7,110.9,78.4z M100.9,70.7c-0.9-0.6-1-1.8-0.4-2.7l0,0c0.6-0.9,1.8-1,2.7-0.4l0,0c0.9,0.6,1,1.8,0.4,2.7l0,0
			c-0.4,0.5-1,0.8-1.5,0.8l0,0C101.7,71.1,101.3,71,100.9,70.7z M90.8,63.1c-0.9-0.6-1-1.9-0.4-2.7l0,0c0.6-0.8,1.8-1,2.7-0.4l0,0
			c0.9,0.6,1,1.8,0.4,2.7l0,0c-0.4,0.5-1,0.8-1.5,0.8l0,0C91.6,63.5,91.2,63.4,90.8,63.1z"/>
	</g>
	<g>
		<path class="st5" d="M334.7,158.5c-0.1-1,0.6-2,1.8-2l0,0c1-0.1,2,0.6,2,1.8l0,0c0.1,1-0.6,2-1.6,2l0,0c-0.1,0-0.1,0-0.1,0l0,0
			C335.6,160.3,334.8,159.5,334.7,158.5z M347.2,157.4c-0.1-1,0.6-2,1.8-2l0,0c1-0.1,1.9,0.6,2,1.8l0,0c0.1,1-0.6,1.9-1.8,2l0,0
			h-0.1l0,0C348.2,159,347.3,158.4,347.2,157.4z M359.9,156.2c-0.1-1,0.6-2,1.8-2l0,0c1-0.1,1.9,0.6,2,1.8l0,0c0.1,1-0.6,2-1.8,2
			l0,0h-0.1l0,0C360.7,157.9,360,157.2,359.9,156.2z M372.5,155.1c-0.1-1,0.6-2,1.8-2l0,0c1-0.1,1.9,0.6,2,1.8l0,0
			c0.1,1-0.6,1.9-1.8,2l0,0h-0.1l0,0C373.4,156.7,372.5,156.1,372.5,155.1z"/>
	</g>
	<g>
		<path class="st5" d="M422.2,228.2c-1-0.3-1.5-1.4-1.3-2.4l0,0c0.3-1,1.4-1.5,2.4-1.3l0,0c1,0.3,1.5,1.4,1.3,2.4l0,0
			c-0.3,0.9-1,1.4-1.8,1.4l0,0C422.6,228.3,422.5,228.2,422.2,228.2z M410.1,224.5c-1-0.3-1.5-1.4-1.3-2.4l0,0
			c0.3-1,1.4-1.5,2.4-1.3l0,0c1,0.3,1.5,1.4,1.3,2.4l0,0c-0.3,0.9-1,1.4-1.8,1.4l0,0C410.5,224.5,410.3,224.5,410.1,224.5z
			 M398.1,220.9c-1-0.3-1.5-1.4-1.3-2.4l0,0c0.3-1,1.4-1.5,2.4-1.3l0,0c1,0.3,1.5,1.4,1.3,2.4l0,0c-0.3,0.8-1,1.4-1.8,1.4l0,0
			C398.4,220.9,398.2,220.9,398.1,220.9z M385.9,217.1c-1-0.3-1.5-1.4-1.3-2.4l0,0c0.3-1,1.4-1.5,2.4-1.3l0,0c1,0.3,1.5,1.4,1.3,2.4
			l0,0c-0.3,0.8-1,1.4-1.8,1.4l0,0C386.3,217.2,386.2,217.2,385.9,217.1z M373.9,213.4c-1-0.3-1.5-1.4-1.3-2.4l0,0
			c0.3-1,1.4-1.5,2.4-1.3l0,0c1,0.3,1.5,1.4,1.3,2.4l0,0c-0.3,0.9-1,1.4-1.8,1.4l0,0C374.3,213.5,374,213.5,373.9,213.4z
			 M361.8,209.7c-1-0.3-1.5-1.4-1.3-2.4l0,0c0.3-1,1.4-1.5,2.4-1.3l0,0c1,0.3,1.5,1.4,1.3,2.4l0,0c-0.3,0.8-1,1.4-1.8,1.4l0,0
			C362.1,209.8,361.9,209.7,361.8,209.7z M349.6,206.1c-1-0.3-1.5-1.4-1.3-2.4l0,0c0.3-1,1.4-1.5,2.4-1.3l0,0c1,0.3,1.5,1.4,1.3,2.4
			l0,0c-0.3,0.8-1,1.4-1.8,1.4l0,0C350,206.1,349.9,206.1,349.6,206.1z M337.6,202.3c-1-0.3-1.5-1.4-1.3-2.4l0,0
			c0.3-1,1.4-1.5,2.4-1.3l0,0c1,0.3,1.5,1.4,1.3,2.4l0,0c-0.3,0.8-1,1.4-1.8,1.4l0,0C338,202.4,337.7,202.4,337.6,202.3z
			 M325.5,198.6c-1-0.3-1.5-1.4-1.3-2.4l0,0c0.3-1,1.4-1.5,2.4-1.3l0,0c1,0.3,1.5,1.4,1.3,2.4l0,0c-0.3,0.8-1,1.4-1.8,1.4l0,0
			C325.8,198.7,325.6,198.7,325.5,198.6z"/>
	</g>
	<g>
		<path class="st5" d="M346,279.2c-0.8-0.8-0.8-1.9-0.1-2.7l0,0c0.8-0.8,1.9-0.8,2.7-0.1l0,0c0.8,0.8,0.8,1.9,0,2.7l0,0
			c-0.4,0.4-0.9,0.6-1.4,0.6l0,0C346.8,279.7,346.3,279.5,346,279.2z M336.8,270.4c-0.8-0.8-0.8-1.9-0.1-2.7l0,0
			c0.8-0.8,1.9-0.8,2.7-0.1l0,0c0.8,0.8,0.8,1.9,0.1,2.7l0,0c-0.4,0.4-0.9,0.6-1.4,0.6l0,0C337.6,270.9,337.1,270.8,336.8,270.4z
			 M327.6,261.7c-0.8-0.8-0.8-1.9-0.1-2.7l0,0c0.8-0.8,1.9-0.8,2.7-0.1l0,0c0.8,0.8,0.8,1.9,0.1,2.7l0,0c-0.4,0.4-0.9,0.6-1.4,0.6
			l0,0C328.5,262.2,328,262.1,327.6,261.7z M318.4,253.1c-0.8-0.8-0.8-1.9-0.1-2.7l0,0c0.8-0.8,1.9-0.8,2.7-0.1l0,0
			c0.8,0.8,0.8,1.9,0.1,2.7l0,0c-0.4,0.4-0.9,0.6-1.4,0.6l0,0C319.3,253.6,318.8,253.4,318.4,253.1z M309.3,244.4
			c-0.8-0.8-0.8-1.9-0.1-2.7l0,0c0.8-0.8,1.9-0.8,2.7-0.1l0,0c0.8,0.8,0.8,1.9,0.1,2.7l0,0c-0.4,0.4-0.9,0.6-1.4,0.6l0,0
			C310,244.9,309.6,244.6,309.3,244.4z M298.1,233.8c-0.8-0.8-0.8-1.9,0-2.7l0,0c0.8-0.8,1.9-0.8,2.7-0.1l0,0
			c0.8,0.8,0.8,1.9,0.1,2.7l0,0c-0.4,0.4-0.9,0.6-1.4,0.6l0,0C299,234.3,298.5,234.1,298.1,233.8z"/>
	</g>
	<g>
		<path class="st5" d="M127.6,150.9c-1-0.1-1.8-1.1-1.5-2.2l0,0c0.3-1,1.1-1.8,2.3-1.5l0,0c1,0.1,1.8,1.1,1.5,2.3l0,0
			c-0.1,0.9-1,1.5-1.9,1.5l0,0C127.9,150.9,127.8,150.9,127.6,150.9z M115.2,148.6c-1-0.1-1.6-1.1-1.5-2.2l0,0
			c0.1-1,1.1-1.8,2.2-1.5l0,0c1,0.1,1.8,1.1,1.5,2.3l0,0c-0.1,0.9-1,1.5-1.9,1.5l0,0C115.5,148.6,115.4,148.6,115.2,148.6z
			 M102.7,146.3c-1-0.1-1.6-1.1-1.5-2.3l0,0c0.3-1,1.1-1.6,2.2-1.5l0,0c1,0.1,1.8,1.1,1.5,2.2l0,0c-0.1,0.9-1,1.5-1.9,1.5l0,0
			C103,146.3,102.8,146.3,102.7,146.3z M90.3,144.1c-1-0.1-1.8-1.1-1.5-2.3l0,0c0.3-1,1.1-1.8,2.3-1.5l0,0c1,0.3,1.6,1.1,1.5,2.3
			l0,0c-0.1,0.9-1,1.5-1.9,1.5l0,0C90.6,144.1,90.4,144.1,90.3,144.1z M77.9,141.8c-1-0.1-1.8-1.1-1.5-2.2l0,0
			c0.3-1,1.1-1.8,2.3-1.5l0,0c1,0.1,1.6,1.1,1.5,2.3l0,0c-0.1,0.9-1,1.5-1.9,1.5l0,0C78.2,141.8,78,141.8,77.9,141.8z"/>
	</g>
	<g>
		<path class="st5" d="M43,218.2c-0.3-1,0.4-2,1.4-2.3l0,0c1-0.3,2,0.4,2.3,1.4l0,0c0.3,1-0.4,2-1.4,2.3l0,0c-0.1,0-0.4,0.1-0.5,0.1
			l0,0C44,219.6,43.3,219.1,43,218.2z M55.1,214.9c-0.3-1,0.4-2,1.4-2.3l0,0c1-0.3,2,0.4,2.3,1.4l0,0c0.3,1-0.4,2-1.4,2.3l0,0
			c-0.1,0-0.4,0.1-0.5,0.1l0,0C56.2,216.4,55.4,215.8,55.1,214.9z M67.4,211.7c-0.3-1,0.4-2,1.4-2.3l0,0c1-0.3,2,0.4,2.3,1.4l0,0
			c0.3,1-0.4,2-1.4,2.3l0,0c-0.1,0-0.4,0.1-0.5,0.1l0,0C68.4,213.1,67.7,212.5,67.4,211.7z M79.7,208.5c-0.3-1,0.4-2,1.4-2.3l0,0
			c1-0.3,2,0.4,2.3,1.4l0,0c0.3,1-0.4,2-1.4,2.3l0,0c-0.1,0-0.4,0.1-0.5,0.1l0,0C80.7,209.8,79.8,209.2,79.7,208.5z M91.8,205.2
			c-0.3-1,0.4-2,1.4-2.3l0,0c1-0.3,2,0.4,2.3,1.4l0,0c0.3,1-0.4,2-1.4,2.3l0,0c-0.1,0-0.4,0.1-0.5,0.1l0,0
			C92.8,206.6,92.1,206.1,91.8,205.2z M104.1,201.9c-0.3-1,0.4-2,1.4-2.3l0,0c1-0.3,2,0.4,2.3,1.4l0,0c0.3,1-0.4,2-1.4,2.3l0,0
			c-0.1,0-0.4,0.1-0.5,0.1l0,0C105.1,203.3,104.4,202.8,104.1,201.9z M128.5,195.3c-0.3-1,0.4-2,1.4-2.3l0,0c1-0.3,2,0.4,2.3,1.4
			l0,0c0.3,1-0.4,2-1.4,2.3l0,0c-0.1,0-0.4,0.1-0.5,0.1l0,0C129.5,196.8,128.8,196.2,128.5,195.3z"/>
	</g>
	<g>
		<circle class="st2" cx="231.4" cy="167.9" r="90.8"/>
		<circle class="st12" cx="231.4" cy="167.9" r="120.2"/>
		<ellipse class="st12" cx="231.4" cy="167.9" rx="90.8" ry="120.2"/>
		<ellipse class="st12" cx="231.4" cy="167.9" rx="33.4" ry="120.2"/>
	</g>
	<polygon class="st13" points="61.9,8.6 91.2,0 82.6,29.3 91.2,58.6 61.9,50.1 32.5,58.6 41.1,29.3 32.5,0 	"/>
	<polygon class="st13" points="384,291.8 413.2,283.2 404.8,312.6 413.2,341.9 384,333.3 354.7,341.9 363.3,312.6 354.7,283.2 	"/>
	<polygon class="st3" points="53.4,125 68.1,120.7 63.8,135.3 68.1,150 53.4,145.7 38.7,150 43,135.3 38.7,120.7 	"/>
	<polygon class="st3" points="445.4,223.4 460,219.1 455.7,233.8 460,248.4 445.4,244.1 430.8,248.4 435,233.8 430.8,219.1 	"/>
	<polygon class="st14" points="53.4,125 68.1,120.7 63.8,135.3 68.1,150 53.4,145.7 38.7,150 43,135.3 38.7,120.7 	"/>
	<polygon class="st14" points="445.4,223.4 460,219.1 455.7,233.8 460,248.4 445.4,244.1 430.8,248.4 435,233.8 430.8,219.1 	"/>
	<g>
		<g>
			<g>
				<path class="st15" d="M421.1,137.4l-0.3-0.1l-1-2.5l0.1-0.3c3.2-7.2,3-7.5,2.4-8l-4.3-4.2c-0.1-0.1-0.5-0.3-0.8-0.3
					c-0.3,0-1,0-7.2,2.9l-0.3,0.1l-2.7-1l-0.1-0.3c-2.9-7.3-3.3-7.3-4-7.3h-6.1c-0.8,0-1,0-3.8,7.3l-0.1,0.3l-2.5,1l-0.3-0.1
					c-4.3-1.8-6.7-2.7-7.5-2.7c-0.3,0-0.6,0.1-0.8,0.3l-4.3,4.2c-0.5,0.5-0.8,0.8,2.7,7.8l0.1,0.3l-1,2.5l-0.3,0.1
					c-7.5,2.9-7.5,3.2-7.5,3.9v5.9c0,0.8,0,1,7.6,3.8l0.3,0.1l1,2.5l-0.1,0.3c-3.2,7.2-3,7.5-2.4,8l4.3,4.2c0.1,0.1,0.5,0.3,0.8,0.3
					s1,0,7.2-2.9l0.3-0.1l2.7,1l0.1,0.3c2.9,7.3,3.3,7.3,4,7.3h6.1c0.8,0,1,0,3.8-7.3l0.1-0.3l2.5-1l0.3,0.1
					c4.3,1.8,6.7,2.7,7.3,2.7c0.3,0,0.6-0.1,0.8-0.3l4.3-4.2c0.5-0.5,0.8-0.8-2.7-7.8l-0.1-0.3l1-2.5l0.3-0.1
					c7.5-2.9,7.5-3.2,7.5-3.9v-5.9C428.5,140.3,428.5,140,421.1,137.4z M400.2,153.7c-5.4,0-9.7-4.3-9.7-9.6s4.4-9.6,9.7-9.6
					c5.4,0,9.7,4.3,9.7,9.6S405.5,153.7,400.2,153.7z"/>
			</g>
		</g>
	</g>
	<g>
		<g>
			<g>
				<path class="st15" d="M49.3,217.8l-0.3-0.1l-1-2.5l0.1-0.3c3.2-7.2,3-7.5,2.4-8l-4.3-4.2c-0.1-0.1-0.5-0.3-0.8-0.3
					c-0.3,0-1,0-7.2,2.9l-0.3,0.1l-2.7-1l-0.1-0.3c-2.9-7.3-3.3-7.3-4-7.3h-5.9c-0.8,0-1,0-3.8,7.3l-0.1,0.3l-2.5,1l-0.3-0.1
					c-4.3-1.8-6.7-2.7-7.5-2.7c-0.3,0-0.6,0.1-0.8,0.3l-4.3,4.2c-0.5,0.5-0.8,0.8,2.7,7.8l0.1,0.3l-1,2.5l-0.3,0.1
					C0,220.9,0,221.1,0,221.9v5.9c0,0.8,0,1,7.6,3.8l0.3,0.1l1,2.5l-0.1,0.3c-3.2,7.2-3,7.5-2.4,8l4.3,4.2c0.1,0.1,0.5,0.3,0.8,0.3
					c0.3,0,1,0,7.2-2.9l0.3-0.1l2.7,1l0.1,0.3c2.9,7.3,3.3,7.3,4,7.3h5.9c0.8,0,1,0,3.8-7.3l0.1-0.3l2.5-1l0.3,0.1
					c4.3,1.8,6.7,2.7,7.3,2.7c0.3,0,0.6-0.1,0.8-0.3l4.3-4.2c0.5-0.5,0.8-0.8-2.7-7.8l0-0.4l1-2.5h0.3c7.5-2.9,7.5-3.2,7.5-3.9v-5.9
					C56.8,220.9,56.8,220.5,49.3,217.8z M28.5,234.3c-5.4,0-9.7-4.3-9.7-9.6c0-5.3,4.4-9.6,9.7-9.6c5.4,0,9.7,4.3,9.7,9.6
					C38.2,230,33.8,234.3,28.5,234.3z"/>
			</g>
		</g>
	</g>
</g>
</svg>
