<?xml version="1.0" encoding="utf-8"?>
<!-- Generator: Adobe Illustrator 24.1.0, SVG Export Plug-In . SVG Version: 6.00 Build 0)  -->
<svg version="1.1" id="Layer_1" xmlns="http://www.w3.org/2000/svg" xmlns:xlink="http://www.w3.org/1999/xlink" x="0px" y="0px"
	 viewBox="0 0 214 886.6" style="enable-background:new 0 0 214 886.6;" xml:space="preserve">
<style type="text/css">
	.st0{fill:#FFFFFF;}
	.st1{opacity:0.5;clip-path:url(#SVGID_2_);fill:#C4C4C4;enable-background:new    ;}
	.st2{opacity:0.25;clip-path:url(#SVGID_4_);}
	.st3{fill:none;stroke:#FFFFFF;stroke-width:141.0493;stroke-miterlimit:10.0002;stroke-dasharray:20.4943,20.4943;}
	.st4{fill:#4B4F54;}
	.st5{fill:#81C4EA;}
	.st6{fill:#4A8097;}
	.st7{fill:#D1D1D1;}
	.st8{fill:#62B5E5;}
	.st9{fill:#025D91;}
	.st10{opacity:0.5;clip-path:url(#SVGID_6_);fill:#C4C4C4;enable-background:new    ;}
	.st11{opacity:0.25;clip-path:url(#SVGID_8_);}
	.st12{fill:none;stroke:#FFFFFF;stroke-width:141.0471;stroke-miterlimit:10;stroke-dasharray:20.4939,20.4939;}
	.st13{fill:#D93963;}
	.st14{opacity:0.5;clip-path:url(#SVGID_10_);fill:#C4C4C4;enable-background:new    ;}
	.st15{opacity:0.25;clip-path:url(#SVGID_12_);}
	.st16{fill:none;stroke:#FFFFFF;stroke-width:140.6925;stroke-miterlimit:10;stroke-dasharray:20.4424,20.4424;}
	.st17{fill:#81AA43;}
	.st18{fill:none;stroke:#4B4F54;stroke-width:3.1904;stroke-linecap:round;stroke-miterlimit:10;stroke-dasharray:0,7.4443;}
</style>
<g>
	<g>
		<circle class="st0" cx="95.7" cy="95.7" r="95.7"/>
		<g>
			<g>
				<g>
					<g>
						<defs>
							<circle id="SVGID_1_" cx="95.7" cy="95.7" r="95.7"/>
						</defs>
						<clipPath id="SVGID_2_">
							<use xlink:href="#SVGID_1_"  style="overflow:visible;"/>
						</clipPath>
						<circle class="st1" cx="95.7" cy="95.7" r="95.7"/>
					</g>
				</g>
				<g>
					<g>
						<defs>
							<circle id="SVGID_3_" cx="95.7" cy="95.7" r="95.7"/>
						</defs>
						<clipPath id="SVGID_4_">
							<use xlink:href="#SVGID_3_"  style="overflow:visible;"/>
						</clipPath>
						<g class="st2">
							<ellipse class="st3" cx="95.7" cy="95.7" rx="65.2" ry="65.2"/>
						</g>
					</g>
				</g>
			</g>
			<g>
				<g>
					<rect x="80.3" y="34.7" class="st4" width="33.1" height="7.5"/>
					<path class="st4" d="M80.3,34.7v27.8h-7.5V42.2C72.8,38.1,76.1,34.7,80.3,34.7L80.3,34.7z"/>
					<path class="st4" d="M121,42.2v20.4h-7.5V34.7l0,0C117.6,34.7,121,38.1,121,42.2z"/>
					<path class="st5" d="M27,80.8V55.1c0-3.5,2.9-6.4,6.4-6.4h125.6c3.5,0,6.4,2.9,6.4,6.4v23.7"/>
					<rect x="27" y="64.7" class="st6" width="138.6" height="31.3"/>
					<path class="st0" d="M105.5,71.1H87c-1.5,0-2.7-1.2-2.7-2.7v-6.5c0-1.5,1.2-2.7,2.7-2.7h18.5c1.5,0,2.7,1.2,2.7,2.7v6.5
						C108.2,69.9,107,71.1,105.5,71.1z"/>
					<circle class="st6" cx="97.8" cy="105.7" r="3.8"/>
					<g>
						<path class="st7" d="M163.4,67.3c5.8-5.8,7.7-14,5.8-21.3c-0.2-0.7-1.1-1-1.6-0.4l-12,12c-1.7,1.7-4.3,1.7-6,0l-7.7-7.7
							c-1.7-1.7-1.7-4.3,0-6l12-12c0.6-0.6,0.3-1.4-0.4-1.6c-7.6-2-16,0.1-21.8,6.3c-5.9,6.3-7.4,15.5-4.4,23.2l-48.5,41.2
							c-6.2,5.3-6.6,14.7-0.8,20.5s15.2,5.4,20.5-0.8l41.3-48.5C147.6,75.4,157,73.7,163.4,67.3z"/>
					</g>
					<path class="st8" d="M165.6,96v46.3c0,3.5-2.9,6.4-6.4,6.4H33.5c-3.5,0-6.4-2.9-6.4-6.4V96"/>
				</g>
			</g>
		</g>
	</g>
	<g>
		<path class="st9" d="M49.7,211.9h7.1c3.2,0,5.6,0.5,7,1.4c1.5,0.9,2.2,2.4,2.2,4.4c0,1.4-0.3,2.5-1,3.3s-1.5,1.4-2.5,1.6v0.2
			c1.4,0.3,2.5,0.9,3.1,1.8c0.6,0.9,1,2.1,1,3.5c0,2.1-0.8,3.7-2.3,4.9c-1.5,1.2-3.5,1.7-6.1,1.7h-8.5V211.9z M54.5,221h2.8
			c1.3,0,2.3-0.2,2.8-0.6c0.6-0.4,0.9-1.1,0.9-2c0-0.9-0.3-1.5-1-1.9c-0.6-0.4-1.6-0.6-3-0.6h-2.5V221z M54.5,224.8v5.9h3.1
			c1.3,0,2.3-0.3,2.9-0.8s1-1.3,1-2.3c0-1.9-1.4-2.8-4.1-2.8H54.5z"/>
		<path class="st9" d="M89.7,211.9v14.7c0,1.7-0.4,3.2-1.1,4.4c-0.8,1.3-1.8,2.2-3.3,2.9c-1.4,0.7-3.1,1-5,1c-2.9,0-5.2-0.8-6.8-2.3
			s-2.4-3.6-2.4-6.2v-14.7h4.8v13.9c0,1.8,0.4,3,1.1,3.9s1.9,1.2,3.5,1.2c1.6,0,2.7-0.4,3.4-1.2c0.7-0.8,1.1-2.1,1.1-3.9v-13.9H89.7
			z"/>
		<path class="st9" d="M95.3,234.7v-22.8h4.8v22.8H95.3z"/>
		<path class="st9" d="M105.8,234.7v-22.8h4.8v18.8h9.2v4H105.8z"/>
		<path class="st9" d="M142.7,223.1c0,3.7-1.1,6.6-3.2,8.6s-5.2,3-9.2,3h-6.4v-22.8h7.2c3.7,0,6.6,1,8.7,2.9
			C141.7,216.8,142.7,219.6,142.7,223.1z M137.7,223.2c0-4.9-2.2-7.3-6.5-7.3h-2.6v14.8h2.1C135.4,230.7,137.7,228.2,137.7,223.2z"
			/>
	</g>
</g>
<g>
	<g>
		<circle class="st0" cx="95.7" cy="419.8" r="95.7"/>
		<g>
			<g>
				<g>
					<g>
						<g>
							<g>
								<defs>
									<circle id="SVGID_5_" cx="95.7" cy="419.8" r="95.7"/>
								</defs>
								<clipPath id="SVGID_6_">
									<use xlink:href="#SVGID_5_"  style="overflow:visible;"/>
								</clipPath>
								<circle class="st10" cx="95.7" cy="419.8" r="95.7"/>
							</g>
						</g>
					</g>
					<g>
						<g>
							<g>
								<defs>
									<circle id="SVGID_7_" cx="95.7" cy="419.8" r="95.7"/>
								</defs>
								<clipPath id="SVGID_8_">
									<use xlink:href="#SVGID_7_"  style="overflow:visible;"/>
								</clipPath>
								<g class="st11">
									<circle class="st12" cx="95.7" cy="419.8" r="65.2"/>
								</g>
							</g>
						</g>
					</g>
				</g>
			</g>
			<g>
				<g>
					<path class="st0" d="M181,431.4c0-13.9-11.2-25.1-25.1-25.1c-1.6,0-3.2,0.2-4.8,0.5c0.5-1.7,0.7-3.5,0.7-5.4
						c0-11.6-9.4-21-21-21c-5.1,0-9.9,1.8-13.5,4.9c-4.9-16.4-20.1-28.3-38-28.3c-21.9,0-39.6,17.7-39.6,39.6c0,1.7,0.1,3.4,0.3,5
						c-13.7,1.6-24.3,13.2-24.3,27.4c0,15.2,12.4,27.5,27.5,27.5h117.2C171.8,454.1,181,443.4,181,431.4z"/>
				</g>
			</g>
			<g>
				<g>
					<g>
						<path class="st13" d="M128.6,428.3l-0.4-0.2l-1.7-3.9l0.2-0.4c5.1-11.4,4.7-11.8,3.9-12.6l-6.7-6.6c-0.2-0.2-0.7-0.5-1.2-0.5
							c-0.4,0-1.5,0-11.5,4.5l-0.4,0.2l-4.1-1.7l-0.2-0.4c-4.7-11.6-5.1-11.6-6.3-11.6h-9.5c-1.1,0-1.7,0-6,11.6l-0.2,0.4l-4.1,1.7
							l-0.4-0.2c-6.7-2.8-10.7-4.3-11.6-4.3c-0.4,0-0.9,0.2-1.2,0.5l-6.7,6.6c-0.9,0.8-1.2,1.2,4.1,12.4l0.2,0.4l-1.7,3.9l-0.4,0.2
							c-11.8,4.6-11.8,5.1-11.8,6.2v9.3c0,1.2,0,1.7,11.9,5.9l0.4,0.2l1.7,3.9l-0.2,0.4c-5.1,11.5-4.7,11.7-3.9,12.6l6.7,6.6
							c0.3,0.2,0.8,0.5,1.2,0.5c0.4,0,1.5,0,11.5-4.5l0.4-0.2l4.1,1.7l0.2,0.4c4.7,11.6,5.1,11.6,6.3,11.6h9.5c1.2,0,1.7,0,6-11.6
							l0.2-0.4l4.1-1.7l0.4,0.2c6.7,2.8,10.7,4.3,11.6,4.3c0.4,0,0.9-0.2,1.2-0.5l6.7-6.6c0.9-0.9,1.2-1.2-4.1-12.4l-0.2-0.4
							l1.7-3.9l0.4-0.2c11.9-4.6,11.9-5.1,11.9-6.3v-9.3C140.5,433,140.5,432.5,128.6,428.3z M95.7,454.1c-8.5,0-15.4-6.7-15.4-15.1
							c0-8.3,6.9-15.1,15.4-15.1c8.5,0,15.4,6.7,15.4,15.1C111.1,447.4,104.2,454.1,95.7,454.1z"/>
					</g>
				</g>
			</g>
		</g>
	</g>
	<g>
		<path class="st9" d="M47.9,547.4c0,3.8-0.9,6.7-2.8,8.7c-1.9,2-4.5,3-8,3s-6.2-1-8-3c-1.9-2-2.8-4.9-2.8-8.7
			c0-3.8,0.9-6.7,2.8-8.7c1.9-2,4.6-3,8.1-3s6.2,1,8,3C47,540.7,47.9,543.6,47.9,547.4z M31.3,547.4c0,2.5,0.5,4.5,1.4,5.7
			c1,1.3,2.4,1.9,4.3,1.9c3.9,0,5.8-2.6,5.8-7.7c0-5.1-1.9-7.7-5.7-7.7c-1.9,0-3.4,0.6-4.3,1.9C31.8,543,31.3,544.9,31.3,547.4z"/>
		<path class="st9" d="M68.4,543.2c0,2.5-0.8,4.3-2.3,5.6c-1.5,1.3-3.7,1.9-6.5,1.9h-2.1v8.1h-4.8v-22.8h7.3c2.8,0,4.9,0.6,6.3,1.8
			C67.6,539,68.4,540.8,68.4,543.2z M57.4,546.8H59c1.5,0,2.6-0.3,3.3-0.9s1.1-1.4,1.1-2.6c0-1.1-0.3-2-0.9-2.5
			c-0.6-0.5-1.6-0.8-2.9-0.8h-2.2V546.8z"/>
		<path class="st9" d="M85.8,558.8H72.6v-22.8h13.1v4h-8.3v5h7.7v4h-7.7v5.9h8.3V558.8z"/>
		<path class="st9" d="M95.3,550.1v8.7h-4.8v-22.8h6.6c3.1,0,5.4,0.6,6.9,1.7c1.5,1.1,2.2,2.8,2.2,5.1c0,1.3-0.4,2.5-1.1,3.6
			s-1.8,1.9-3.1,2.5c3.4,5.1,5.7,8.4,6.7,9.9h-5.4l-5.4-8.7H95.3z M95.3,546.2h1.6c1.5,0,2.7-0.3,3.4-0.8s1.1-1.3,1.1-2.4
			c0-1.1-0.4-1.8-1.1-2.3s-1.9-0.7-3.5-0.7h-1.5V546.2z"/>
		<path class="st9" d="M125.5,558.8l-1.7-5.4h-8.3l-1.7,5.4h-5.2l8-22.9h5.9l8.1,22.9H125.5z M122.7,549.4c-1.5-4.9-2.4-7.7-2.6-8.3
			c-0.2-0.6-0.3-1.2-0.4-1.5c-0.3,1.3-1.3,4.6-2.9,9.9H122.7z"/>
		<path class="st9" d="M142.4,558.8h-4.8v-18.8h-6.2v-4h17.2v4h-6.2V558.8z"/>
		<path class="st9" d="M165.2,558.8h-13.1v-22.8h13.1v4h-8.3v5h7.7v4h-7.7v5.9h8.3V558.8z"/>
	</g>
</g>
<g>
	<g>
		<circle class="st0" cx="95.7" cy="746.1" r="95.7"/>
		<g>
			<g>
				<g>
					<g>
						<g>
							<defs>
								<circle id="SVGID_9_" cx="95.5" cy="746.4" r="95.5"/>
							</defs>
							<clipPath id="SVGID_10_">
								<use xlink:href="#SVGID_9_"  style="overflow:visible;"/>
							</clipPath>
							<circle class="st14" cx="95.5" cy="746.4" r="95.5"/>
						</g>
					</g>
					<g>
						<g>
							<defs>
								<circle id="SVGID_11_" cx="95.5" cy="746.4" r="95.5"/>
							</defs>
							<clipPath id="SVGID_12_">
								<use xlink:href="#SVGID_11_"  style="overflow:visible;"/>
							</clipPath>
							<g class="st15">
								<circle class="st16" cx="95.5" cy="746.4" r="65"/>
							</g>
						</g>
					</g>
				</g>
				<g>
					<g>
						<g>
							<path class="st0" d="M180.5,757.6c0-13.8-11.2-25-25-25c-1.6,0-3.2,0.2-4.8,0.5c0.5-1.7,0.7-3.4,0.7-5.4
								c0-11.5-9.4-20.9-20.9-20.9c-5.1,0-9.9,1.8-13.5,4.9c-4.9-16.4-20-28.3-38-28.3c-21.8,0-39.5,17.7-39.5,39.5
								c0,1.7,0.1,3.4,0.3,5c-13.6,1.6-24.2,13.2-24.2,27.3c0,15.2,12.3,27.5,27.5,27.5H160C171.3,780.3,180.5,769.7,180.5,757.6z"
								/>
						</g>
					</g>
				</g>
			</g>
			<g>
				<polygon class="st17" points="155.7,820.5 214,782.7 155.7,744.8 155.7,768.7 71.5,753.8 71.5,811.5 155.7,797.5 				"/>
			</g>
		</g>
	</g>
	<g>
		<path class="st9" d="M23.2,886.3h-4.8v-18.8h-6.2v-4h17.2v4h-6.2V886.3z"/>
		<path class="st9" d="M37.7,877.5v8.7h-4.8v-22.8h6.6c3.1,0,5.4,0.6,6.9,1.7c1.5,1.1,2.2,2.8,2.2,5.1c0,1.3-0.4,2.5-1.1,3.6
			s-1.8,1.9-3.1,2.5c3.4,5.1,5.7,8.4,6.7,9.9h-5.4l-5.4-8.7H37.7z M37.7,873.6h1.6c1.5,0,2.7-0.3,3.4-0.8s1.1-1.3,1.1-2.4
			c0-1.1-0.4-1.8-1.1-2.3s-1.9-0.7-3.5-0.7h-1.5V873.6z"/>
		<path class="st9" d="M67.9,886.3l-1.7-5.4h-8.3l-1.7,5.4h-5.2l8-22.9H65l8.1,22.9H67.9z M65.1,876.8c-1.5-4.9-2.4-7.7-2.6-8.3
			c-0.2-0.6-0.3-1.2-0.4-1.5c-0.3,1.3-1.3,4.6-2.9,9.9H65.1z"/>
		<path class="st9" d="M96.2,886.3H90L80.1,869H80c0.2,3,0.3,5.2,0.3,6.5v10.7H76v-22.8h6.1l9.9,17.1h0.1c-0.2-3-0.2-5.1-0.2-6.3
			v-10.8h4.3V886.3z"/>
		<path class="st9" d="M115.3,879.9c0,2.1-0.7,3.7-2.2,4.9c-1.5,1.2-3.5,1.8-6.2,1.8c-2.4,0-4.6-0.5-6.4-1.4v-4.5
			c1.5,0.7,2.8,1.2,3.9,1.4c1.1,0.3,2,0.4,2.9,0.4c1.1,0,1.9-0.2,2.4-0.6s0.8-1,0.8-1.8c0-0.4-0.1-0.8-0.4-1.2
			c-0.2-0.3-0.6-0.7-1.1-1c-0.5-0.3-1.5-0.8-3-1.5c-1.4-0.7-2.4-1.3-3.1-1.9c-0.7-0.6-1.3-1.3-1.7-2.1c-0.4-0.8-0.6-1.7-0.6-2.8
			c0-2,0.7-3.6,2-4.8c1.4-1.2,3.3-1.7,5.7-1.7c1.2,0,2.3,0.1,3.4,0.4c1.1,0.3,2.2,0.7,3.4,1.2l-1.6,3.8c-1.2-0.5-2.2-0.8-3-1
			c-0.8-0.2-1.6-0.3-2.3-0.3c-0.9,0-1.6,0.2-2.1,0.6s-0.7,1-0.7,1.7c0,0.4,0.1,0.8,0.3,1.1c0.2,0.3,0.5,0.6,0.9,0.9
			c0.4,0.3,1.5,0.8,3.1,1.6c2.1,1,3.6,2,4.4,3.1C114.9,877.2,115.3,878.5,115.3,879.9z"/>
		<path class="st9" d="M124.2,886.3h-4.8v-22.8h13.1v4h-8.3v5.9h7.7v3.9h-7.7V886.3z"/>
		<path class="st9" d="M150.1,886.3H137v-22.8h13.1v4h-8.3v5h7.7v4h-7.7v5.9h8.3V886.3z"/>
		<path class="st9" d="M159.7,877.5v8.7h-4.8v-22.8h6.6c3.1,0,5.4,0.6,6.9,1.7c1.5,1.1,2.2,2.8,2.2,5.1c0,1.3-0.4,2.5-1.1,3.6
			s-1.8,1.9-3.1,2.5c3.4,5.1,5.7,8.4,6.7,9.9h-5.4l-5.4-8.7H159.7z M159.7,873.6h1.6c1.5,0,2.7-0.3,3.4-0.8s1.1-1.3,1.1-2.4
			c0-1.1-0.4-1.8-1.1-2.3s-1.9-0.7-3.5-0.7h-1.5V873.6z"/>
	</g>
</g>
<g>
	<g>
		<line class="st18" x1="95.7" y1="252.8" x2="95.7" y2="297.7"/>
		<g>
			<polygon class="st4" points="85.7,290 95.7,294.3 105.8,290 95.7,313.9 			"/>
		</g>
	</g>
</g>
<g>
	<g>
		<line class="st18" x1="95.7" y1="577.1" x2="95.7" y2="622"/>
		<g>
			<polygon class="st4" points="85.7,614.4 95.7,618.7 105.8,614.4 95.7,638.2 			"/>
		</g>
	</g>
</g>
</svg>
