<?xml version="1.0" encoding="utf-8"?>
<!-- Generator: Adobe Illustrator 24.1.2, SVG Export Plug-In . SVG Version: 6.00 Build 0)  -->
<svg version="1.1" id="Layer_1" xmlns="http://www.w3.org/2000/svg" xmlns:xlink="http://www.w3.org/1999/xlink" x="0px" y="0px"
	 viewBox="0 0 207.332 176.302" enable-background="new 0 0 207.332 176.302" xml:space="preserve">
<g>
	<circle fill="#FFFFFF" cx="95.341" cy="82.558" r="82.558"/>
	
		<radialGradient id="SVGID_2_" cx="95.3413" cy="-6297.23" r="82.558" gradientTransform="matrix(1 0 0 -1 0 -6214.6719)" gradientUnits="userSpaceOnUse">
		<stop  offset="0" style="stop-color:#B6DCF3;stop-opacity:0.25"/>
		<stop  offset="0.8162" style="stop-color:#79C0E9;stop-opacity:0.3265"/>
		<stop  offset="1" style="stop-color:#62B5E5;stop-opacity:0.4"/>
	</radialGradient>
	<circle fill="url(#SVGID_2_)" cx="95.341" cy="82.558" r="82.558"/>
	<g>
		<rect x="77.643" y="29.553" fill="#FFFFFF" width="129.688" height="75.859"/>
		<rect x="77.643" y="18.97" fill="#005D91" width="129.688" height="10.583"/>
		<g>
			<rect x="168.297" y="37.256" fill="#F7D7E0" width="25.449" height="25.449"/>
			<rect x="168.297" y="37.256" fill="#D93963" width="25.449" height="3.984"/>
			<rect x="168.297" y="69.36" fill="#E0F0FA" width="25.449" height="25.449"/>
			<rect x="168.297" y="69.36" fill="#62B5E5" width="25.449" height="3.984"/>
			<g>
				<rect x="91.229" y="69.36" fill="#81AA43" width="25.449" height="25.449"/>
				
					<rect x="116.666" y="69.36" transform="matrix(-1 -1.224647e-16 1.224647e-16 -1 276.5573 164.1692)" fill="#CDDDB4" width="43.225" height="25.449"/>
				<g>
					<rect x="123.113" y="73.26" fill="#81AA43" width="30.331" height="2.637"/>
					<rect x="123.113" y="78.275" fill="#81AA43" width="22.094" height="2.637"/>
					<rect x="123.113" y="88.304" fill="#81AA43" width="22.094" height="2.637"/>
					<rect x="123.113" y="83.29" fill="#81AA43" width="25.798" height="2.637"/>
				</g>
				<path fill="#FFFFFF" d="M109.283,77.353c-1.723,0-3.302,0.79-4.57,2.289c-0.303,0.359-0.55,0.718-0.75,1.037
					c-0.885-1.332-2.656-3.326-5.256-3.326c-2.624,0-4.761,2.137-4.761,4.761c0,2.624,2.137,4.761,4.761,4.761
					c1.723,0,3.302-0.79,4.57-2.289c0.303-0.359,0.55-0.718,0.75-1.037c0.885,1.332,2.648,3.326,5.256,3.326
					c2.624,0,4.761-2.137,4.761-4.761C114.044,79.49,111.907,77.353,109.283,77.353z M98.707,85.528
					c-1.882,0-3.414-1.531-3.414-3.414c0-1.882,1.531-3.414,3.414-3.414c2.464,0,4.06,2.52,4.546,3.398l-0.008,0.032l0.016,0.032
					C102.822,83.039,101.363,85.528,98.707,85.528z M109.283,85.528c-2.464,0-4.06-2.52-4.546-3.398l0.008-0.032l-0.016-0.032
					c0.431-0.877,1.898-3.366,4.546-3.366c1.882,0,3.414,1.531,3.414,3.414C112.704,83.996,111.165,85.528,109.283,85.528z"/>
			</g>
			<g>
				<rect x="91.229" y="37.256" fill="#FFE07F" width="25.449" height="25.449"/>
				
					<rect x="116.666" y="37.256" transform="matrix(-1 -1.224647e-16 1.224647e-16 -1 276.5573 99.9606)" fill="#FFF3CC" width="43.225" height="25.449"/>
				<g>
					<rect x="123.113" y="41.156" fill="#FFE07F" width="30.331" height="2.637"/>
					<rect x="123.113" y="46.17" fill="#FFE07F" width="22.094" height="2.637"/>
					<rect x="123.113" y="56.2" fill="#FFE07F" width="22.094" height="2.637"/>
					<rect x="123.113" y="51.185" fill="#FFE07F" width="25.798" height="2.637"/>
				</g>
				<g>
					<g>
						<g>
							<path fill="#FFFFFF" d="M108.796,48.429l-0.06-0.03l-0.254-0.582l0.03-0.06c0.762-1.702,0.702-1.762,0.582-1.882l-1-0.986
								c-0.03-0.03-0.105-0.075-0.179-0.075c-0.06,0-0.224,0-1.717,0.672l-0.06,0.03l-0.612-0.254l-0.03-0.06
								c-0.702-1.732-0.762-1.732-0.941-1.732h-1.419c-0.164,0-0.254,0-0.896,1.732l-0.03,0.06l-0.612,0.254l-0.06-0.03
								c-1-0.418-1.598-0.642-1.732-0.642c-0.06,0-0.134,0.03-0.179,0.075l-1,0.986c-0.134,0.119-0.179,0.179,0.612,1.852l0.03,0.06
								l-0.254,0.582l-0.06,0.03c-1.762,0.687-1.762,0.762-1.762,0.926v1.389c0,0.179,0,0.254,1.777,0.881l0.06,0.03l0.254,0.582
								l-0.03,0.06c-0.762,1.717-0.702,1.747-0.582,1.882l1,0.986c0.045,0.03,0.119,0.075,0.179,0.075c0.06,0,0.224,0,1.717-0.672
								l0.06-0.03l0.612,0.254l0.03,0.06c0.702,1.732,0.762,1.732,0.941,1.732h1.419c0.179,0,0.254,0,0.896-1.732l0.03-0.06
								l0.612-0.254l0.06,0.03c1,0.418,1.598,0.642,1.732,0.642c0.06,0,0.134-0.03,0.179-0.075l1-0.986
								c0.134-0.134,0.179-0.179-0.612-1.852l-0.03-0.06l0.254-0.582l0.06-0.03c1.777-0.687,1.777-0.762,1.777-0.941v-1.389
								C110.573,49.131,110.573,49.056,108.796,48.429z M103.883,52.282c-1.269,0-2.3-1-2.3-2.255c0-1.239,1.03-2.255,2.3-2.255
								s2.3,1,2.3,2.255C106.182,51.281,105.167,52.282,103.883,52.282z"/>
						</g>
					</g>
				</g>
			</g>
		</g>
	</g>
	<g>
		<g>
			<rect y="50.661" fill="#62B5E5" width="67.063" height="45.422"/>
			<polygon fill="#62B5E5" points="56.493,96.084 42.239,96.084 56.493,107.715 			"/>
		</g>
		<g>
			<circle fill="#FBFBFB" cx="18.105" cy="73.415" r="4.646"/>
			<circle fill="#FBFBFB" cx="33.532" cy="73.415" r="4.646"/>
			<circle fill="#FBFBFB" cx="48.959" cy="73.415" r="4.646"/>
		</g>
	</g>
	<g>
		<g>
			<path fill="#FFE07F" d="M104.412,138.345c0,0,0,0-0.001,0c2.773-3.926,4.407-8.713,4.407-13.885
				c0-13.313-10.791-24.104-24.103-24.104c-13.313,0-24.104,10.791-24.104,24.104c0,5.172,1.635,9.958,4.407,13.885c0,0,0,0-0.001,0
				c0.009,0.013,0.018,0.025,0.027,0.037c0.235,0.332,0.479,0.658,0.731,0.977c8.625,11.63,10.699,18.16,10.699,18.16h8.241h8.241
				c0,0,2.074-6.53,10.7-18.16c0.251-0.319,0.494-0.645,0.73-0.977C104.395,138.37,104.403,138.358,104.412,138.345z"/>
		</g>
		<g>
			<path fill="#005D91" d="M80.587,173.801l0.542,1.702c0.136,0.443,0.57,0.8,0.963,0.8h5.233c0.391,0,0.827-0.357,0.962-0.8
				l0.541-1.702H80.587z"/>
			<path fill="#005D91" d="M76.474,157.523c0,0,0.051,11.878,0.061,11.942c0.055,0.396,0.156,0.768,0.299,1.111
				c0.256,0.721,0.521,0.932,0.521,0.932c0.503,0.657,1.172,1.057,1.908,1.057h10.89c1.411,0,2.582-1.473,2.761-3.362l0.029-0.004
				v-11.676L76.474,157.523L76.474,157.523z"/>
		</g>
	</g>
	<g>
		<polygon id="Fill-10_63_" fill-rule="evenodd" clip-rule="evenodd" fill="#62B5E5" points="116.661,135.884 138.416,124.807 
			116.661,114.129 		"/>
		<polygon id="Fill-10_62_" fill-rule="evenodd" clip-rule="evenodd" fill="#FFFFFF" points="138.539,135.884 160.295,124.807 
			138.539,114.129 		"/>
		<polygon id="Fill-10_60_" fill-rule="evenodd" clip-rule="evenodd" fill="#005D91" fill-opacity="0.5" points="138.539,135.884 
			160.295,124.807 138.539,114.129 		"/>
	</g>
</g>
</svg>
