<?xml version="1.0" encoding="utf-8"?>
<!-- Generator: Adobe Illustrator 24.0.0, SVG Export Plug-In . SVG Version: 6.00 Build 0)  -->
<svg version="1.1" id="Layer_1" xmlns="http://www.w3.org/2000/svg" xmlns:xlink="http://www.w3.org/1999/xlink" x="0px" y="0px"
	 viewBox="0 0 624.4 1141.5" style="enable-background:new 0 0 624.4 1141.5;" xml:space="preserve">
<style type="text/css">
	.st0{fill:none;}
	.st1{fill:none;stroke:#231F20;stroke-width:2.88;}
	.st2{fill:#FBFBFB;}
	.st3{enable-background:new    ;}
	.st4{fill:#005D91;}
	.st5{fill:#4B4F54;}
	.st6{fill-rule:evenodd;clip-rule:evenodd;fill:#005D91;}
	.st7{opacity:0.35;fill-rule:evenodd;clip-rule:evenodd;fill:url(#SVGID_2_);enable-background:new    ;}
	.st8{fill:#FFFFFF;}
	.st9{opacity:0.5;clip-path:url(#SVGID_4_);fill:#C4C4C4;enable-background:new    ;}
	.st10{opacity:0.25;clip-path:url(#SVGID_6_);}
	.st11{fill:none;stroke:#FFFFFF;stroke-width:61.7131;stroke-miterlimit:10;stroke-dasharray:8.9668,8.9668;}
	.st12{fill:#D93963;}
	.st13{opacity:0.5;clip-path:url(#SVGID_8_);fill:#C4C4C4;enable-background:new    ;}
	.st14{opacity:0.25;clip-path:url(#SVGID_10_);}
	.st15{fill:none;stroke:#FFFFFF;stroke-width:61.558;stroke-miterlimit:10;stroke-dasharray:8.9443,8.9443;}
	.st16{fill:#81AA43;}
	.st17{opacity:0.5;clip-path:url(#SVGID_12_);fill:#C4C4C4;enable-background:new    ;}
	.st18{opacity:0.25;clip-path:url(#SVGID_14_);}
	.st19{fill:none;stroke:#FFFFFF;stroke-width:61.7141;stroke-miterlimit:10.0002;stroke-dasharray:8.967,8.967;}
	.st20{fill:#FFFFFF;stroke:#4B4F54;stroke-width:5.0504;stroke-miterlimit:10;}
	.st21{fill:none;stroke:#4B4F54;stroke-width:5.4772;stroke-miterlimit:10;}
	.st22{fill:none;stroke:#62B5E5;stroke-width:9.1286;stroke-miterlimit:10;}
	.st23{fill-rule:evenodd;clip-rule:evenodd;fill:#FFE07F;}
	.st24{fill-rule:evenodd;clip-rule:evenodd;fill:#005D91;fill-opacity:0.5;}
	.st25{opacity:0.5;clip-path:url(#SVGID_16_);fill:#C4C4C4;enable-background:new    ;}
	.st26{opacity:0.25;clip-path:url(#SVGID_18_);}
	.st27{fill:#81C4EA;}
	.st28{fill:#4A8097;}
	.st29{fill:#D1D1D1;}
	.st30{fill:#62B5E5;}
	.st31{opacity:0.15;fill-rule:evenodd;clip-rule:evenodd;fill:url(#SVGID_19_);enable-background:new    ;}
	.st32{fill:none;stroke:#C1C6C8;stroke-width:1.4391;stroke-miterlimit:10;}
	.st33{fill-rule:evenodd;clip-rule:evenodd;fill:#55A2C9;}
	.st34{opacity:0.3;fill-rule:evenodd;clip-rule:evenodd;fill:url(#SVGID_20_);enable-background:new    ;}
</style>
<pattern  y="1141.5" width="72" height="72" patternUnits="userSpaceOnUse" id="SVGID_1_" viewBox="72.2 -72 72 72" style="overflow:visible;">
	<g>
		<rect x="72.2" y="-72" class="st0" width="72" height="72"/>
		<g>
			<rect x="72.2" y="-72" class="st0" width="72" height="72"/>
			<g>
				<rect x="72.2" y="-72" class="st0" width="72" height="72"/>
				<g>
					<rect x="72.2" y="-72" class="st0" width="72" height="72"/>
					<g>
						<rect x="72.2" y="-72" class="st0" width="72" height="72"/>
						<g>
							<rect x="72.2" y="-72" class="st0" width="72" height="72"/>
							<g>
								<line class="st1" x1="144" y1="-68.4" x2="216.5" y2="-68.4"/>
								<line class="st1" x1="144" y1="-54" x2="216.5" y2="-54"/>
								<line class="st1" x1="144" y1="-39.6" x2="216.5" y2="-39.6"/>
								<line class="st1" x1="144" y1="-25.2" x2="216.5" y2="-25.2"/>
								<line class="st1" x1="144" y1="-10.8" x2="216.5" y2="-10.8"/>
								<line class="st1" x1="144" y1="-61.2" x2="216.5" y2="-61.2"/>
								<line class="st1" x1="144" y1="-46.8" x2="216.5" y2="-46.8"/>
								<line class="st1" x1="144" y1="-32.4" x2="216.5" y2="-32.4"/>
								<line class="st1" x1="144" y1="-18" x2="216.5" y2="-18"/>
								<line class="st1" x1="144" y1="-3.6" x2="216.5" y2="-3.6"/>
							</g>
							<g>
								<line class="st1" x1="72" y1="-68.4" x2="144.5" y2="-68.4"/>
								<line class="st1" x1="72" y1="-54" x2="144.5" y2="-54"/>
								<line class="st1" x1="72" y1="-39.6" x2="144.5" y2="-39.6"/>
								<line class="st1" x1="72" y1="-25.2" x2="144.5" y2="-25.2"/>
								<line class="st1" x1="72" y1="-10.8" x2="144.5" y2="-10.8"/>
								<line class="st1" x1="72" y1="-61.2" x2="144.5" y2="-61.2"/>
								<line class="st1" x1="72" y1="-46.8" x2="144.5" y2="-46.8"/>
								<line class="st1" x1="72" y1="-32.4" x2="144.5" y2="-32.4"/>
								<line class="st1" x1="72" y1="-18" x2="144.5" y2="-18"/>
								<line class="st1" x1="72" y1="-3.6" x2="144.5" y2="-3.6"/>
							</g>
							<g>
								<line class="st1" x1="0" y1="-68.4" x2="72.5" y2="-68.4"/>
								<line class="st1" x1="0" y1="-54" x2="72.5" y2="-54"/>
								<line class="st1" x1="0" y1="-39.6" x2="72.5" y2="-39.6"/>
								<line class="st1" x1="0" y1="-25.2" x2="72.5" y2="-25.2"/>
								<line class="st1" x1="0" y1="-10.8" x2="72.5" y2="-10.8"/>
								<line class="st1" x1="0" y1="-61.2" x2="72.5" y2="-61.2"/>
								<line class="st1" x1="0" y1="-46.8" x2="72.5" y2="-46.8"/>
								<line class="st1" x1="0" y1="-32.4" x2="72.5" y2="-32.4"/>
								<line class="st1" x1="0" y1="-18" x2="72.5" y2="-18"/>
								<line class="st1" x1="0" y1="-3.6" x2="72.5" y2="-3.6"/>
							</g>
						</g>
					</g>
				</g>
			</g>
		</g>
	</g>
</pattern>
<pattern  y="1141.5" width="72" height="72" patternUnits="userSpaceOnUse" id="SVGID_21_" viewBox="72.2 -72 72 72" style="overflow:visible;">
	<g>
		<rect x="72.2" y="-72" class="st0" width="72" height="72"/>
		<g>
			<rect x="72.2" y="-72" class="st0" width="72" height="72"/>
			<g>
				<rect x="72.2" y="-72" class="st0" width="72" height="72"/>
				<g>
					<rect x="72.2" y="-72" class="st0" width="72" height="72"/>
					<g>
						<rect x="72.2" y="-72" class="st0" width="72" height="72"/>
						<g>
							<rect x="72.2" y="-72" class="st0" width="72" height="72"/>
							<g>
								<line class="st1" x1="144" y1="-68.4" x2="216.5" y2="-68.4"/>
								<line class="st1" x1="144" y1="-54" x2="216.5" y2="-54"/>
								<line class="st1" x1="144" y1="-39.6" x2="216.5" y2="-39.6"/>
								<line class="st1" x1="144" y1="-25.2" x2="216.5" y2="-25.2"/>
								<line class="st1" x1="144" y1="-10.8" x2="216.5" y2="-10.8"/>
								<line class="st1" x1="144" y1="-61.2" x2="216.5" y2="-61.2"/>
								<line class="st1" x1="144" y1="-46.8" x2="216.5" y2="-46.8"/>
								<line class="st1" x1="144" y1="-32.4" x2="216.5" y2="-32.4"/>
								<line class="st1" x1="144" y1="-18" x2="216.5" y2="-18"/>
								<line class="st1" x1="144" y1="-3.6" x2="216.5" y2="-3.6"/>
							</g>
							<g>
								<line class="st1" x1="72" y1="-68.4" x2="144.5" y2="-68.4"/>
								<line class="st1" x1="72" y1="-54" x2="144.5" y2="-54"/>
								<line class="st1" x1="72" y1="-39.6" x2="144.5" y2="-39.6"/>
								<line class="st1" x1="72" y1="-25.2" x2="144.5" y2="-25.2"/>
								<line class="st1" x1="72" y1="-10.8" x2="144.5" y2="-10.8"/>
								<line class="st1" x1="72" y1="-61.2" x2="144.5" y2="-61.2"/>
								<line class="st1" x1="72" y1="-46.8" x2="144.5" y2="-46.8"/>
								<line class="st1" x1="72" y1="-32.4" x2="144.5" y2="-32.4"/>
								<line class="st1" x1="72" y1="-18" x2="144.5" y2="-18"/>
								<line class="st1" x1="72" y1="-3.6" x2="144.5" y2="-3.6"/>
							</g>
							<g>
								<line class="st1" x1="0" y1="-68.4" x2="72.5" y2="-68.4"/>
								<line class="st1" x1="0" y1="-54" x2="72.5" y2="-54"/>
								<line class="st1" x1="0" y1="-39.6" x2="72.5" y2="-39.6"/>
								<line class="st1" x1="0" y1="-25.2" x2="72.5" y2="-25.2"/>
								<line class="st1" x1="0" y1="-10.8" x2="72.5" y2="-10.8"/>
								<line class="st1" x1="0" y1="-61.2" x2="72.5" y2="-61.2"/>
								<line class="st1" x1="0" y1="-46.8" x2="72.5" y2="-46.8"/>
								<line class="st1" x1="0" y1="-32.4" x2="72.5" y2="-32.4"/>
								<line class="st1" x1="0" y1="-18" x2="72.5" y2="-18"/>
								<line class="st1" x1="0" y1="-3.6" x2="72.5" y2="-3.6"/>
							</g>
						</g>
					</g>
				</g>
			</g>
		</g>
	</g>
</pattern>
<pattern  y="1141.5" width="72" height="72" patternUnits="userSpaceOnUse" id="SVGID_22_" viewBox="72.2 -72 72 72" style="overflow:visible;">
	<g>
		<rect x="72.2" y="-72" class="st0" width="72" height="72"/>
		<g>
			<rect x="72.2" y="-72" class="st0" width="72" height="72"/>
			<g>
				<rect x="72.2" y="-72" class="st0" width="72" height="72"/>
				<g>
					<rect x="72.2" y="-72" class="st0" width="72" height="72"/>
					<g>
						<rect x="72.2" y="-72" class="st0" width="72" height="72"/>
						<g>
							<rect x="72.2" y="-72" class="st0" width="72" height="72"/>
							<g>
								<line class="st1" x1="144" y1="-68.4" x2="216.5" y2="-68.4"/>
								<line class="st1" x1="144" y1="-54" x2="216.5" y2="-54"/>
								<line class="st1" x1="144" y1="-39.6" x2="216.5" y2="-39.6"/>
								<line class="st1" x1="144" y1="-25.2" x2="216.5" y2="-25.2"/>
								<line class="st1" x1="144" y1="-10.8" x2="216.5" y2="-10.8"/>
								<line class="st1" x1="144" y1="-61.2" x2="216.5" y2="-61.2"/>
								<line class="st1" x1="144" y1="-46.8" x2="216.5" y2="-46.8"/>
								<line class="st1" x1="144" y1="-32.4" x2="216.5" y2="-32.4"/>
								<line class="st1" x1="144" y1="-18" x2="216.5" y2="-18"/>
								<line class="st1" x1="144" y1="-3.6" x2="216.5" y2="-3.6"/>
							</g>
							<g>
								<line class="st1" x1="72" y1="-68.4" x2="144.5" y2="-68.4"/>
								<line class="st1" x1="72" y1="-54" x2="144.5" y2="-54"/>
								<line class="st1" x1="72" y1="-39.6" x2="144.5" y2="-39.6"/>
								<line class="st1" x1="72" y1="-25.2" x2="144.5" y2="-25.2"/>
								<line class="st1" x1="72" y1="-10.8" x2="144.5" y2="-10.8"/>
								<line class="st1" x1="72" y1="-61.2" x2="144.5" y2="-61.2"/>
								<line class="st1" x1="72" y1="-46.8" x2="144.5" y2="-46.8"/>
								<line class="st1" x1="72" y1="-32.4" x2="144.5" y2="-32.4"/>
								<line class="st1" x1="72" y1="-18" x2="144.5" y2="-18"/>
								<line class="st1" x1="72" y1="-3.6" x2="144.5" y2="-3.6"/>
							</g>
							<g>
								<line class="st1" x1="0" y1="-68.4" x2="72.5" y2="-68.4"/>
								<line class="st1" x1="0" y1="-54" x2="72.5" y2="-54"/>
								<line class="st1" x1="0" y1="-39.6" x2="72.5" y2="-39.6"/>
								<line class="st1" x1="0" y1="-25.2" x2="72.5" y2="-25.2"/>
								<line class="st1" x1="0" y1="-10.8" x2="72.5" y2="-10.8"/>
								<line class="st1" x1="0" y1="-61.2" x2="72.5" y2="-61.2"/>
								<line class="st1" x1="0" y1="-46.8" x2="72.5" y2="-46.8"/>
								<line class="st1" x1="0" y1="-32.4" x2="72.5" y2="-32.4"/>
								<line class="st1" x1="0" y1="-18" x2="72.5" y2="-18"/>
								<line class="st1" x1="0" y1="-3.6" x2="72.5" y2="-3.6"/>
							</g>
						</g>
					</g>
				</g>
			</g>
		</g>
	</g>
</pattern>
<g>
	
		<image style="overflow:visible;opacity:0.15;enable-background:new    ;" width="1022" height="559" xlink:href="2F4B0629BD4AB6D0.png"  transform="matrix(-2.051712e-16 1.1169 -1.1169 -2.051712e-16 624.3533 0)">
	</image>
	<g>
		<g>
			<rect x="16.9" y="17.1" class="st2" width="590.6" height="1107.6"/>
		</g>
	</g>
</g>
<g>
	<g>
		<g class="st3">
			<path class="st4" d="M150.7,1059.9c0,2.7-0.8,4.7-2.3,6.2c-1.5,1.4-3.7,2.1-6.6,2.1h-4.6v-16.3h5.1c2.7,0,4.7,0.7,6.2,2.1
				S150.7,1057.4,150.7,1059.9z M147.1,1060c0-3.5-1.5-5.3-4.6-5.3h-1.8v10.6h1.5C145.4,1065.4,147.1,1063.6,147.1,1060z"/>
			<path class="st4" d="M159.4,1068.5c-2,0-3.6-0.6-4.7-1.7c-1.1-1.1-1.7-2.7-1.7-4.7c0-2.1,0.5-3.7,1.6-4.8c1-1.1,2.5-1.7,4.3-1.7
				s3.1,0.5,4.1,1.5s1.5,2.4,1.5,4.2v1.7h-8c0,1,0.3,1.7,0.9,2.3c0.5,0.5,1.3,0.8,2.3,0.8c0.8,0,1.5-0.1,2.1-0.2s1.4-0.4,2.1-0.7
				v2.6c-0.6,0.3-1.2,0.5-1.9,0.7C161.2,1068.4,160.4,1068.5,159.4,1068.5z M158.9,1058c-0.7,0-1.3,0.2-1.7,0.7s-0.6,1.1-0.7,1.9
				h4.8c0-0.8-0.2-1.5-0.7-1.9C160.2,1058.2,159.6,1058,158.9,1058z"/>
			<path class="st4" d="M174.2,1058.3h-2.9v9.9h-3.4v-9.9H166v-1.6l1.9-0.9v-0.9c0-1.4,0.3-2.5,1-3.1s1.8-1,3.4-1
				c1.2,0,2.2,0.2,3.1,0.5l-0.9,2.5c-0.7-0.2-1.3-0.3-1.9-0.3c-0.5,0-0.8,0.1-1,0.4s-0.3,0.7-0.3,1.1v0.8h2.9V1058.3z"/>
			<path class="st4" d="M184,1068.2l-0.7-1.7h-0.1c-0.6,0.7-1.2,1.2-1.8,1.5s-1.4,0.4-2.4,0.4c-1.2,0-2.1-0.3-2.8-1s-1-1.7-1-2.9
				c0-1.3,0.5-2.3,1.4-2.9s2.3-1,4.2-1l2.2-0.1v-0.5c0-1.3-0.6-1.9-1.9-1.9c-1,0-2.2,0.3-3.5,0.9l-1.1-2.3c1.4-0.8,3-1.1,4.8-1.1
				c1.7,0,3,0.4,3.8,1.1c0.9,0.7,1.3,1.8,1.3,3.3v8.3L184,1068.2L184,1068.2z M183,1062.5h-1.3c-1,0-1.7,0.2-2.2,0.5
				s-0.7,0.8-0.7,1.5c0,1,0.6,1.4,1.7,1.4c0.8,0,1.4-0.2,1.9-0.7s0.7-1.1,0.7-1.8L183,1062.5L183,1062.5z"/>
			<path class="st4" d="M198.7,1068.2l-0.5-1.6H198c-0.4,0.6-0.9,1-1.6,1.3c-0.7,0.3-1.4,0.5-2.3,0.5c-1.5,0-2.6-0.4-3.3-1.2
				c-0.7-0.8-1.1-1.9-1.1-3.4v-8.1h3.4v7.3c0,0.9,0.2,1.6,0.5,2c0.3,0.5,0.8,0.7,1.5,0.7c1,0,1.6-0.3,2.1-1c0.4-0.6,0.6-1.7,0.6-3.2
				v-5.9h3.4v12.5L198.7,1068.2L198.7,1068.2z"/>
			<path class="st4" d="M208.3,1068.2h-3.4v-17.4h3.4V1068.2z"/>
			<path class="st4" d="M217.2,1065.8c0.6,0,1.3-0.1,2.1-0.4v2.5c-0.8,0.4-1.9,0.6-3.1,0.6c-1.4,0-2.4-0.3-3-1s-0.9-1.7-0.9-3.1v-6
				h-1.6v-1.4l1.9-1.1l1-2.6h2.2v2.7h3.5v2.6h-3.6v6c0,0.5,0.1,0.8,0.4,1.1C216.4,1066,216.7,1065.8,217.2,1065.8z"/>
			<path class="st4" d="M230.5,1064.5c0,1.3-0.4,2.3-1.3,2.9c-0.9,0.7-2.2,1-4,1c-0.9,0-1.7-0.1-2.3-0.2s-1.2-0.3-1.8-0.5v-2.8
				c0.6,0.3,1.3,0.5,2.1,0.7s1.5,0.3,2.1,0.3c1.2,0,1.9-0.4,1.9-1.1c0-0.3-0.1-0.5-0.2-0.7c-0.1-0.2-0.4-0.4-0.8-0.6
				c-0.4-0.2-0.9-0.5-1.6-0.7c-1-0.4-1.7-0.8-2.1-1.1c-0.5-0.3-0.8-0.7-1-1.2s-0.3-1-0.3-1.6c0-1.1,0.4-2,1.3-2.6s2.1-0.9,3.7-0.9
				c1.5,0,3,0.3,4.4,1l-1,2.5c-0.6-0.3-1.2-0.5-1.8-0.7c-0.5-0.2-1.1-0.3-1.7-0.3c-1,0-1.5,0.3-1.5,0.8c0,0.3,0.2,0.6,0.5,0.8
				c0.3,0.2,1,0.6,2.1,1c1,0.4,1.7,0.8,2.1,1.1c0.5,0.3,0.8,0.7,1,1.2C230.4,1063.4,230.5,1063.9,230.5,1064.5z"/>
		</g>
		<g class="st3">
			<path class="st5" d="M238.7,1058.7v-1.5h10.4v1.5H238.7z M238.7,1063.2v-1.5h10.4v1.5H238.7z"/>
			<path class="st5" d="M259.5,1068.2l6.8-14.6h-8.9v-1.7h10.9v1.5l-6.7,14.8L259.5,1068.2L259.5,1068.2z"/>
			<path class="st5" d="M281.3,1060.1c0,2.8-0.4,4.9-1.3,6.3s-2.2,2.1-4.1,2.1c-1.8,0-3.1-0.7-4-2.1s-1.4-3.5-1.4-6.3
				s0.4-4.9,1.3-6.3s2.2-2.1,4-2.1s3.1,0.7,4,2.2S281.3,1057.3,281.3,1060.1z M272.4,1060.1c0,2.4,0.3,4.1,0.8,5.2
				c0.6,1.1,1.4,1.6,2.7,1.6c1.2,0,2.1-0.5,2.7-1.6s0.8-2.8,0.8-5.2s-0.3-4.1-0.8-5.1c-0.6-1.1-1.4-1.6-2.7-1.6
				c-1.2,0-2.1,0.5-2.7,1.6C272.7,1056,272.4,1057.7,272.4,1060.1z"/>
			<path class="st5" d="M290.3,1056.8c0,1.7-0.3,3-0.9,3.8c-0.6,0.9-1.4,1.3-2.5,1.3c-1,0-1.9-0.4-2.4-1.3c-0.6-0.9-0.9-2.2-0.9-3.8
				c0-1.7,0.3-3,0.8-3.8c0.6-0.9,1.4-1.3,2.5-1.3s1.9,0.4,2.5,1.3S290.3,1055.2,290.3,1056.8z M285.2,1056.8c0,1.3,0.1,2.2,0.4,2.8
				c0.3,0.6,0.7,0.9,1.3,0.9c1.2,0,1.8-1.3,1.8-3.8s-0.6-3.8-1.8-3.8c-0.6,0-1.1,0.3-1.3,0.9
				C285.3,1054.6,285.2,1055.5,285.2,1056.8z M297.2,1051.9l-9,16.3h-1.6l9-16.3H297.2z M300.1,1063.3c0,1.7-0.3,3-0.9,3.8
				c-0.6,0.9-1.4,1.3-2.5,1.3s-1.9-0.4-2.4-1.3c-0.6-0.9-0.9-2.2-0.9-3.8c0-1.7,0.3-3,0.8-3.8c0.6-0.9,1.4-1.3,2.5-1.3
				s1.9,0.4,2.5,1.3S300.1,1061.7,300.1,1063.3z M295,1063.3c0,1.3,0.1,2.2,0.4,2.9c0.3,0.6,0.7,0.9,1.4,0.9c0.6,0,1.1-0.3,1.4-0.9
				s0.4-1.6,0.4-2.9s-0.1-2.2-0.4-2.8c-0.3-0.6-0.8-0.9-1.4-0.9s-1.1,0.3-1.4,0.9S295,1062.1,295,1063.3z"/>
			<path class="st5" d="M318.5,1068.2h-9.1v-16.3h9.1v1.7h-7.2v5.3h6.8v1.7h-6.8v6h7.2V1068.2z"/>
			<path class="st5" d="M327.4,1057.5h-3.1v10.8h-1.9v-10.8h-2.2v-0.8l2.2-0.7v-0.7c0-3,1.3-4.5,3.9-4.5c0.6,0,1.4,0.1,2.3,0.4
				l-0.5,1.5c-0.7-0.2-1.3-0.3-1.8-0.3c-0.7,0-1.2,0.2-1.6,0.7c-0.3,0.5-0.5,1.2-0.5,2.2v0.8h3.1v1.4H327.4z M335.1,1057.5H332v10.8
				h-1.9v-10.8h-2.2v-0.8l2.2-0.7v-0.7c0-3,1.3-4.5,3.9-4.5c0.6,0,1.4,0.1,2.3,0.4l-0.5,1.5c-0.7-0.2-1.3-0.3-1.8-0.3
				c-0.7,0-1.2,0.2-1.6,0.7c-0.3,0.5-0.5,1.2-0.5,2.2v0.8h3.1v1.4H335.1z M337.2,1052.7c0-0.4,0.1-0.7,0.3-0.9
				c0.2-0.2,0.5-0.3,0.8-0.3s0.6,0.1,0.8,0.3c0.2,0.2,0.3,0.5,0.3,0.9s-0.1,0.7-0.3,0.9c-0.2,0.2-0.5,0.3-0.8,0.3s-0.6-0.1-0.8-0.3
				S337.2,1053.1,337.2,1052.7z M339.2,1068.2h-1.9V1056h1.9V1068.2z"/>
			<path class="st5" d="M348.1,1068.5c-1.8,0-3.1-0.5-4.1-1.6s-1.5-2.6-1.5-4.6s0.5-3.6,1.5-4.7s2.4-1.7,4.2-1.7
				c0.6,0,1.2,0.1,1.8,0.2c0.6,0.1,1,0.3,1.4,0.4l-0.6,1.6c-0.4-0.2-0.9-0.3-1.3-0.4c-0.5-0.1-0.9-0.2-1.3-0.2
				c-2.5,0-3.7,1.6-3.7,4.8c0,1.5,0.3,2.7,0.9,3.5s1.5,1.2,2.7,1.2c1,0,2.1-0.2,3.1-0.7v1.6C350.3,1068.3,349.3,1068.5,348.1,1068.5
				z"/>
			<path class="st5" d="M353.9,1052.7c0-0.4,0.1-0.7,0.3-0.9c0.2-0.2,0.5-0.3,0.8-0.3s0.6,0.1,0.8,0.3c0.2,0.2,0.3,0.5,0.3,0.9
				s-0.1,0.7-0.3,0.9c-0.2,0.2-0.5,0.3-0.8,0.3s-0.6-0.1-0.8-0.3C354,1053.4,353.9,1053.1,353.9,1052.7z M355.9,1068.2H354V1056h1.9
				V1068.2z"/>
			<path class="st5" d="M365,1068.5c-1.8,0-3.2-0.5-4.3-1.7c-1-1.1-1.6-2.6-1.6-4.6s0.5-3.5,1.5-4.7s2.3-1.7,3.9-1.7
				c1.5,0,2.7,0.5,3.6,1.5s1.3,2.3,1.3,4v1.2H361c0,1.4,0.4,2.5,1.1,3.3c0.7,0.7,1.7,1.1,2.9,1.1c1.3,0,2.6-0.3,3.9-0.8v1.7
				c-0.7,0.3-1.3,0.5-1.9,0.6C366.5,1068.4,365.8,1068.5,365,1068.5z M364.5,1057.3c-1,0-1.8,0.3-2.3,1s-0.9,1.5-1,2.7h6.4
				c0-1.2-0.3-2.1-0.8-2.7C366.2,1057.7,365.5,1057.3,364.5,1057.3z"/>
			<path class="st5" d="M381,1068.2v-7.9c0-1-0.2-1.7-0.7-2.2s-1.2-0.7-2.1-0.7c-1.3,0-2.2,0.3-2.8,1c-0.6,0.7-0.9,1.8-0.9,3.4v6.4
				h-1.9V1056h1.5l0.3,1.7h0.1c0.4-0.6,0.9-1.1,1.6-1.4s1.4-0.5,2.3-0.5c1.5,0,2.6,0.4,3.3,1.1c0.7,0.7,1.1,1.8,1.1,3.4v8
				L381,1068.2L381,1068.2z"/>
			<path class="st5" d="M391.5,1068.5c-1.8,0-3.1-0.5-4.1-1.6s-1.5-2.6-1.5-4.6s0.5-3.6,1.5-4.7s2.4-1.7,4.2-1.7
				c0.6,0,1.2,0.1,1.8,0.2c0.6,0.1,1,0.3,1.4,0.4l-0.6,1.6c-0.4-0.2-0.9-0.3-1.3-0.4c-0.5-0.1-0.9-0.2-1.3-0.2
				c-2.5,0-3.7,1.6-3.7,4.8c0,1.5,0.3,2.7,0.9,3.5s1.5,1.2,2.7,1.2c1,0,2.1-0.2,3.1-0.7v1.6C393.8,1068.3,392.8,1068.5,391.5,1068.5
				z"/>
			<path class="st5" d="M395.6,1056h2l2.7,7c0.6,1.6,1,2.7,1.1,3.4h0.1c0.1-0.4,0.3-1,0.6-1.9c0.3-0.9,1.3-3.7,3-8.5h2l-5.3,13.9
				c-0.5,1.4-1.1,2.4-1.8,2.9c-0.7,0.6-1.5,0.9-2.6,0.9c-0.6,0-1.1-0.1-1.7-0.2v-1.5c0.4,0.1,0.9,0.1,1.4,0.1c1.3,0,2.2-0.7,2.7-2.1
				l0.7-1.7L395.6,1056z"/>
			<path class="st5" d="M422.4,1059.7h5.5v7.9c-0.9,0.3-1.7,0.5-2.6,0.6s-1.9,0.2-3.1,0.2c-2.5,0-4.4-0.7-5.8-2.2s-2.1-3.5-2.1-6.2
				c0-1.7,0.3-3.2,1-4.5s1.7-2.2,2.9-2.9s2.8-1,4.5-1s3.4,0.3,4.9,1l-0.7,1.7c-1.5-0.6-2.9-0.9-4.3-0.9c-2,0-3.5,0.6-4.7,1.8
				c-1.2,1.2-1.7,2.8-1.7,4.9c0,2.2,0.5,3.9,1.6,5s2.7,1.7,4.7,1.7c1.1,0,2.2-0.1,3.3-0.4v-5h-3.6v-1.7H422.4z"/>
			<path class="st5" d="M439.1,1068.2l-0.4-1.7l0,0c-0.6,0.8-1.2,1.3-1.8,1.6c-0.6,0.3-1.4,0.4-2.3,0.4c-1.2,0-2.2-0.3-2.9-0.9
				s-1-1.5-1-2.7c0-2.5,2-3.8,5.9-3.9l2.1-0.1v-0.8c0-1-0.2-1.7-0.6-2.1c-0.4-0.5-1.1-0.7-2-0.7c-1,0-2.2,0.3-3.5,0.9l-0.6-1.4
				c0.6-0.3,1.3-0.6,2-0.8c0.7-0.2,1.4-0.3,2.2-0.3c1.5,0,2.5,0.3,3.2,1c0.7,0.6,1.1,1.7,1.1,3.1v8.3L439.1,1068.2L439.1,1068.2
				L439.1,1068.2z M435,1066.9c1.2,0,2.1-0.3,2.7-0.9c0.7-0.6,1-1.5,1-2.7v-1.1l-1.9,0.1c-1.5,0.1-2.5,0.3-3.2,0.7s-1,1-1,1.9
				c0,0.7,0.2,1.2,0.6,1.5C433.7,1066.8,434.2,1066.9,435,1066.9z"/>
			<path class="st5" d="M444.2,1052.7c0-0.4,0.1-0.7,0.3-0.9c0.2-0.2,0.5-0.3,0.8-0.3s0.6,0.1,0.8,0.3c0.2,0.2,0.3,0.5,0.3,0.9
				s-0.1,0.7-0.3,0.9c-0.2,0.2-0.5,0.3-0.8,0.3s-0.6-0.1-0.8-0.3S444.2,1053.1,444.2,1052.7z M446.2,1068.2h-1.9V1056h1.9V1068.2z"
				/>
			<path class="st5" d="M458.5,1068.2v-7.9c0-1-0.2-1.7-0.7-2.2s-1.2-0.7-2.1-0.7c-1.3,0-2.2,0.3-2.8,1c-0.6,0.7-0.9,1.8-0.9,3.4
				v6.4h-1.9V1056h1.5l0.3,1.7h0.1c0.4-0.6,0.9-1.1,1.6-1.4s1.4-0.5,2.3-0.5c1.5,0,2.6,0.4,3.3,1.1c0.7,0.7,1.1,1.8,1.1,3.4v8
				L458.5,1068.2L458.5,1068.2z"/>
			<path class="st5" d="M469.3,1068.5c-1.8,0-3.2-0.5-4.3-1.7c-1-1.1-1.6-2.6-1.6-4.6s0.5-3.5,1.5-4.7s2.3-1.7,3.9-1.7
				c1.5,0,2.7,0.5,3.6,1.5s1.3,2.3,1.3,4v1.2h-8.4c0,1.4,0.4,2.5,1.1,3.3c0.7,0.7,1.7,1.1,2.9,1.1c1.3,0,2.6-0.3,3.9-0.8v1.7
				c-0.7,0.3-1.3,0.5-1.9,0.6C470.8,1068.4,470.1,1068.5,469.3,1068.5z M468.8,1057.3c-1,0-1.8,0.3-2.3,1s-0.9,1.5-1,2.7h6.4
				c0-1.2-0.3-2.1-0.8-2.7C470.5,1057.7,469.8,1057.3,468.8,1057.3z"/>
			<path class="st5" d="M485.3,1066.6h-0.1c-0.9,1.2-2.1,1.9-3.8,1.9c-1.6,0-2.8-0.5-3.7-1.6c-0.9-1.1-1.3-2.6-1.3-4.7
				s0.4-3.6,1.3-4.7s2.1-1.7,3.7-1.7c1.7,0,2.9,0.6,3.8,1.8h0.1l-0.1-0.9v-0.9v-5h1.9v17.4h-1.5L485.3,1066.6z M481.6,1066.9
				c1.3,0,2.2-0.3,2.8-1c0.6-0.7,0.9-1.8,0.9-3.3v-0.4c0-1.7-0.3-3-0.9-3.7s-1.5-1.1-2.8-1.1c-1.1,0-1.9,0.4-2.5,1.3
				c-0.6,0.8-0.9,2-0.9,3.6s0.3,2.7,0.9,3.5C479.7,1066.6,480.5,1066.9,481.6,1066.9z"/>
		</g>
	</g>
	<g>
		<g>
			<rect x="276" y="565.5" class="st6" width="240.6" height="177.7"/>
			<pattern  id="SVGID_2_" xlink:href="#SVGID_1_" patternTransform="matrix(0.846 0.8976 0.846 -0.8976 -36038.5781 -14937.2354)">
			</pattern>
			<rect x="276" y="565.5" class="st7" width="240.6" height="177.7"/>
			<g class="st3">
				<path class="st8" d="M360.8,658.4c0,1.5-0.5,2.6-1.6,3.5c-1.1,0.8-2.5,1.3-4.4,1.3c-1.7,0-3.3-0.3-4.6-1V659
					c1.1,0.5,2,0.8,2.8,1s1.5,0.3,2.1,0.3c0.8,0,1.3-0.1,1.7-0.4s0.6-0.7,0.6-1.3c0-0.3-0.1-0.6-0.3-0.9s-0.4-0.5-0.8-0.7
					c-0.3-0.2-1.1-0.6-2.1-1.1s-1.7-0.9-2.2-1.3c-0.5-0.4-0.9-0.9-1.2-1.5c-0.3-0.6-0.4-1.2-0.4-2c0-1.4,0.5-2.6,1.5-3.4
					s2.3-1.2,4.1-1.2c0.8,0,1.7,0.1,2.4,0.3c0.8,0.2,1.6,0.5,2.4,0.8l-1.1,2.7c-0.9-0.4-1.6-0.6-2.2-0.7c-0.6-0.1-1.1-0.2-1.7-0.2
					c-0.7,0-1.2,0.2-1.5,0.5s-0.5,0.7-0.5,1.2c0,0.3,0.1,0.6,0.2,0.8s0.4,0.4,0.7,0.7c0.3,0.3,1,0.6,2.2,1.1
					c1.5,0.7,2.6,1.5,3.1,2.2S360.8,657.3,360.8,658.4z"/>
				<path class="st8" d="M374.8,656.7c0,2-0.5,3.6-1.6,4.8c-1.1,1.1-2.6,1.7-4.5,1.7c-1.2,0-2.3-0.3-3.2-0.8s-1.6-1.3-2.1-2.3
					s-0.7-2.1-0.7-3.4c0-2,0.5-3.6,1.6-4.8c1.1-1.1,2.6-1.7,4.5-1.7c1.2,0,2.3,0.3,3.2,0.8s1.6,1.3,2.1,2.2
					C374.6,654.2,374.8,655.4,374.8,656.7z M366.2,656.7c0,1.2,0.2,2.2,0.6,2.8s1.1,0.9,2,0.9s1.6-0.3,2-0.9
					c0.4-0.6,0.6-1.6,0.6-2.8s-0.2-2.2-0.6-2.8s-1.1-0.9-2-0.9s-1.6,0.3-2,0.9C366.4,654.5,366.2,655.4,366.2,656.7z"/>
				<path class="st8" d="M381,662.9h-3.4v-17.4h3.4V662.9z"/>
				<path class="st8" d="M393.4,662.9l-0.5-1.6h-0.2c-0.4,0.6-0.9,1-1.6,1.3s-1.4,0.5-2.3,0.5c-1.5,0-2.6-0.4-3.3-1.2
					s-1.1-1.9-1.1-3.4v-8.1h3.4v7.3c0,0.9,0.2,1.6,0.5,2c0.3,0.5,0.8,0.7,1.5,0.7c1,0,1.6-0.3,2.1-1c0.4-0.6,0.6-1.7,0.6-3.2v-5.9
					h3.4v12.5L393.4,662.9L393.4,662.9L393.4,662.9z"/>
				<path class="st8" d="M404.9,660.4c0.6,0,1.3-0.1,2.1-0.4v2.5c-0.8,0.4-1.9,0.6-3.1,0.6c-1.4,0-2.4-0.3-3-1s-0.9-1.7-0.9-3.1v-6
					h-1.6v-1.4l1.9-1.1l1-2.6h2.2v2.7h3.5v2.6h-3.5v6c0,0.5,0.1,0.8,0.4,1.1C404.2,660.6,404.4,660.4,404.9,660.4z"/>
				<path class="st8" d="M409.4,647.2c0-1.1,0.6-1.7,1.9-1.7c1.2,0,1.9,0.6,1.9,1.7c0,0.5-0.2,0.9-0.5,1.2s-0.8,0.4-1.4,0.4
					C410,648.9,409.4,648.4,409.4,647.2z M412.9,662.9h-3.4v-12.5h3.4V662.9z"/>
				<path class="st8" d="M427.9,656.7c0,2-0.5,3.6-1.6,4.8c-1.1,1.1-2.6,1.7-4.5,1.7c-1.2,0-2.3-0.3-3.2-0.8s-1.6-1.3-2.1-2.3
					s-0.7-2.1-0.7-3.4c0-2,0.5-3.6,1.6-4.8c1.1-1.1,2.6-1.7,4.5-1.7c1.2,0,2.3,0.3,3.2,0.8s1.6,1.3,2.1,2.2
					C427.6,654.2,427.9,655.4,427.9,656.7z M419.2,656.7c0,1.2,0.2,2.2,0.6,2.8s1.1,0.9,2,0.9s1.6-0.3,2-0.9
					c0.4-0.6,0.6-1.6,0.6-2.8s-0.2-2.2-0.6-2.8s-1.1-0.9-2-0.9s-1.6,0.3-2,0.9C419.4,654.5,419.2,655.4,419.2,656.7z"/>
				<path class="st8" d="M442.2,662.9h-3.4v-7.3c0-0.9-0.2-1.6-0.5-2c-0.3-0.5-0.8-0.7-1.5-0.7c-1,0-1.6,0.3-2.1,1s-0.6,1.7-0.6,3.2
					v5.9h-3.4v-12.5h2.6l0.5,1.6h0.2c0.4-0.6,0.9-1.1,1.6-1.4c0.7-0.3,1.4-0.5,2.3-0.5c1.5,0,2.6,0.4,3.3,1.2
					c0.8,0.8,1.1,1.9,1.1,3.4L442.2,662.9L442.2,662.9L442.2,662.9z"/>
			</g>
		</g>
		<g class="st3">
			<path class="st4" d="M125.3,582.9c0,2.4-0.6,4.2-1.8,5.5s-2.9,1.9-5.1,1.9s-3.9-0.6-5.1-1.9c-1.2-1.3-1.8-3.1-1.8-5.6
				s0.6-4.3,1.8-5.5c1.2-1.2,2.9-1.9,5.1-1.9s3.9,0.6,5.1,1.9C124.8,578.6,125.3,580.4,125.3,582.9z M114.8,582.9
				c0,1.6,0.3,2.8,0.9,3.7c0.6,0.8,1.5,1.2,2.8,1.2c2.5,0,3.7-1.6,3.7-4.9c0-3.3-1.2-4.9-3.7-4.9c-1.2,0-2.1,0.4-2.8,1.2
				C115.1,580,114.8,581.2,114.8,582.9z"/>
			<path class="st4" d="M134.2,590.3c-1.3,0-2.3-0.5-3.1-1.4h-0.2c0.1,0.9,0.2,1.5,0.2,1.6v4.5h-3v-16h2.5l0.4,1.4h0.1
				c0.7-1.1,1.8-1.6,3.1-1.6s2.3,0.5,3.1,1.5c0.7,1,1.1,2.4,1.1,4.2c0,1.2-0.2,2.2-0.5,3.1c-0.3,0.9-0.8,1.5-1.5,2
				C135.8,590.1,135.1,590.3,134.2,590.3z M133.3,581.2c-0.7,0-1.3,0.2-1.6,0.7s-0.5,1.2-0.5,2.3v0.3c0,1.2,0.2,2,0.5,2.6
				s0.9,0.8,1.7,0.8c1.4,0,2-1.1,2-3.4c0-1.1-0.2-1.9-0.5-2.5C134.5,581.5,134,581.2,133.3,581.2z"/>
			<path class="st4" d="M146,590.3c-1.8,0-3.2-0.5-4.2-1.5s-1.5-2.4-1.5-4.2c0-1.9,0.5-3.3,1.4-4.3s2.2-1.5,3.9-1.5
				c1.6,0,2.8,0.4,3.7,1.3c0.9,0.9,1.3,2.1,1.3,3.7v1.5h-7.2c0,0.9,0.3,1.5,0.8,2s1.1,0.7,2,0.7c0.7,0,1.3-0.1,1.9-0.2
				c0.6-0.1,1.2-0.4,1.9-0.7v2.3c-0.5,0.3-1.1,0.5-1.7,0.6C147.7,590.1,146.8,590.3,146,590.3z M145.6,581c-0.6,0-1.1,0.2-1.5,0.6
				c-0.4,0.4-0.6,1-0.6,1.7h4.2c0-0.7-0.2-1.3-0.6-1.7C146.7,581.2,146.2,581,145.6,581z"/>
			<path class="st4" d="M159.2,578.8c0.4,0,0.8,0,1,0.1l-0.2,2.8c-0.2-0.1-0.5-0.1-0.9-0.1c-1,0-1.7,0.2-2.3,0.7
				c-0.5,0.5-0.8,1.2-0.8,2.1v5.6h-3v-11h2.3l0.4,1.9h0.1c0.3-0.6,0.8-1.1,1.4-1.5C157.8,579,158.5,578.8,159.2,578.8z"/>
			<path class="st4" d="M169.2,590.1l-0.6-1.5h-0.1c-0.5,0.6-1,1.1-1.6,1.3c-0.5,0.2-1.2,0.4-2.1,0.4c-1.1,0-1.9-0.3-2.5-0.9
				c-0.6-0.6-0.9-1.5-0.9-2.6c0-1.2,0.4-2,1.2-2.6s2.1-0.9,3.7-0.9l1.9-0.1v-0.5c0-1.1-0.6-1.7-1.7-1.7c-0.9,0-1.9,0.3-3.1,0.8l-1-2
				c1.3-0.7,2.7-1,4.2-1s2.6,0.3,3.4,1c0.8,0.6,1.2,1.6,1.2,3v7.4L169.2,590.1L169.2,590.1L169.2,590.1z M168.3,585h-1.2
				c-0.9,0-1.5,0.2-2,0.5c-0.4,0.3-0.6,0.7-0.6,1.3c0,0.9,0.5,1.3,1.5,1.3c0.7,0,1.3-0.2,1.7-0.6c0.4-0.4,0.6-0.9,0.6-1.6V585z"/>
			<path class="st4" d="M179.1,587.9c0.5,0,1.2-0.1,1.9-0.3v2.3c-0.8,0.3-1.7,0.5-2.8,0.5c-1.2,0-2.1-0.3-2.6-0.9
				c-0.5-0.6-0.8-1.5-0.8-2.8v-5.3h-1.4V580l1.7-1l0.9-2.3h1.9v2.3h3.1v2.3h-3.1v5.3c0,0.4,0.1,0.7,0.4,1
				C178.6,587.9,178.7,587.9,179.1,587.9z"/>
			<path class="st4" d="M188.3,590.3c-1.8,0-3.2-0.5-4.2-1.5s-1.5-2.4-1.5-4.2c0-1.9,0.5-3.3,1.4-4.3s2.2-1.5,3.9-1.5
				c1.6,0,2.8,0.4,3.7,1.3c0.9,0.9,1.3,2.1,1.3,3.7v1.5h-7.1c0,0.9,0.3,1.5,0.8,2s1.1,0.7,2,0.7c0.7,0,1.3-0.1,1.9-0.2
				c0.6-0.1,1.2-0.4,1.9-0.7v2.3c-0.5,0.3-1.1,0.5-1.7,0.6C190.1,590.1,189.2,590.3,188.3,590.3z M187.9,581c-0.6,0-1.1,0.2-1.5,0.6
				c-0.4,0.4-0.6,1-0.6,1.7h4.2c0-0.7-0.2-1.3-0.6-1.7C189,581.2,188.5,581,187.9,581z"/>
		</g>
		<g>
			<circle class="st8" cx="152.2" cy="657" r="52.5"/>
			<g>
				<g>
					<g>
						<g>
							<g>
								<g>
									<g>
										<g>
											<g>
												<g>
													<g>
														<g>
															<defs>
																<circle id="SVGID_3_" cx="152.2" cy="657" r="52.5"/>
															</defs>
															<clipPath id="SVGID_4_">
																<use xlink:href="#SVGID_3_"  style="overflow:visible;"/>
															</clipPath>
															<circle class="st9" cx="152.2" cy="657" r="52.5"/>
														</g>
													</g>
												</g>
											</g>
										</g>
									</g>
								</g>
							</g>
						</g>
						<g>
							<g>
								<g>
									<g>
										<g>
											<g>
												<g>
													<g>
														<g>
															<defs>
																<circle id="SVGID_5_" cx="152.2" cy="657" r="52.5"/>
															</defs>
															<clipPath id="SVGID_6_">
																<use xlink:href="#SVGID_5_"  style="overflow:visible;"/>
															</clipPath>
															<g class="st10">
																<circle class="st11" cx="152.2" cy="657" r="35.8"/>
															</g>
														</g>
													</g>
												</g>
											</g>
										</g>
									</g>
								</g>
							</g>
						</g>
					</g>
				</g>
				<g>
					<g>
						<path class="st8" d="M198.9,663.4c0-7.6-6.1-13.8-13.8-13.8c-0.9,0-1.8,0.1-2.6,0.3c0.3-0.9,0.4-1.9,0.4-3
							c0-6.4-5.2-11.5-11.5-11.5c-2.8,0-5.4,1-7.4,2.7c-2.7-9-11-15.5-20.8-15.5c-12,0-21.7,9.7-21.7,21.7c0,0.9,0.1,1.9,0.2,2.7
							c-7.5,0.9-13.3,7.2-13.3,15c0,8.3,6.8,15.1,15.1,15.1h64.3C193.9,675.8,198.9,670,198.9,663.4z"/>
					</g>
				</g>
				<g>
					<g>
						<g>
							<path class="st12" d="M170.2,661.7l-0.2-0.1l-0.9-2.1l0.1-0.2c2.8-6.3,2.6-6.5,2.1-6.9l-3.7-3.6c-0.1-0.1-0.4-0.3-0.7-0.3
								c-0.2,0-0.8,0-6.3,2.5l-0.2,0.1l-2.2-0.9l-0.1-0.2c-2.6-6.4-2.8-6.4-3.5-6.4h-5.2c-0.6,0-0.9,0-3.3,6.4l-0.1,0.2l-2.2,0.9
								l-0.2-0.1c-3.7-1.5-5.9-2.4-6.4-2.4c-0.2,0-0.5,0.1-0.7,0.3l-3.7,3.6c-0.5,0.4-0.7,0.7,2.2,6.8l0.1,0.2l-0.9,2.1l-0.2,0.1
								c-6.5,2.5-6.5,2.8-6.5,3.4v5.1c0,0.7,0,0.9,6.5,3.2l0.2,0.1l0.9,2.1l-0.1,0.2c-2.8,6.3-2.6,6.4-2.1,6.9l3.7,3.6
								c0.2,0.1,0.4,0.3,0.7,0.3s0.8,0,6.3-2.5l0.2-0.1l2.2,0.9l0.1,0.2c2.6,6.4,2.8,6.4,3.5,6.4h5.2c0.7,0,0.9,0,3.3-6.4l0.1-0.2
								l2.2-0.9l0.2,0.1c3.7,1.5,5.9,2.4,6.4,2.4c0.2,0,0.5-0.1,0.7-0.3l3.7-3.6c0.5-0.5,0.7-0.7-2.2-6.8l-0.1-0.2l0.9-2.1l0.2-0.1
								c6.5-2.5,6.5-2.8,6.5-3.5v-5.1C176.7,664.3,176.7,664,170.2,661.7z M152.2,675.8c-4.7,0-8.4-3.7-8.4-8.3s3.8-8.3,8.4-8.3
								c4.7,0,8.4,3.7,8.4,8.3C160.6,672.2,156.9,675.8,152.2,675.8z"/>
						</g>
					</g>
				</g>
			</g>
		</g>
		<g class="st3">
			<path class="st12" d="M130.3,839.3c0,1.8-0.4,3.2-1.3,4.2s-2.2,1.5-3.8,1.5s-2.9-0.5-3.8-1.5s-1.3-2.4-1.3-4.2s0.4-3.2,1.3-4.1
				c0.9-1,2.2-1.4,3.8-1.4c1.7,0,2.9,0.5,3.8,1.4C129.9,836.1,130.3,837.5,130.3,839.3z M122.4,839.3c0,1.2,0.2,2.1,0.7,2.7
				c0.5,0.6,1.2,0.9,2.1,0.9c1.8,0,2.8-1.2,2.8-3.7c0-2.4-0.9-3.7-2.7-3.7c-0.9,0-1.6,0.3-2.1,0.9
				C122.6,837.1,122.4,838,122.4,839.3z"/>
			<path class="st12" d="M137,844.9c-1,0-1.7-0.4-2.3-1.1h-0.2c0.1,0.7,0.1,1.1,0.1,1.2v3.4h-2.3v-12h1.8l0.3,1.1h0.1
				c0.5-0.8,1.3-1.2,2.4-1.2c1,0,1.8,0.4,2.3,1.1c0.6,0.8,0.8,1.8,0.8,3.2c0,0.9-0.1,1.7-0.4,2.3c-0.3,0.7-0.6,1.2-1.1,1.5
				C138.2,844.7,137.6,844.9,137,844.9z M136.3,838.1c-0.6,0-1,0.2-1.2,0.5s-0.4,0.9-0.4,1.7v0.2c0,0.9,0.1,1.5,0.4,1.9
				c0.3,0.4,0.7,0.6,1.3,0.6c1,0,1.5-0.8,1.5-2.5c0-0.8-0.1-1.4-0.4-1.8C137.2,838.3,136.8,838.1,136.3,838.1z"/>
			<path class="st12" d="M145.5,843.1c0.4,0,0.9-0.1,1.4-0.3v1.7c-0.6,0.3-1.3,0.4-2.1,0.4c-0.9,0-1.6-0.2-2-0.7s-0.6-1.1-0.6-2.1
				v-4h-1.1v-1l1.2-0.8l0.7-1.8h1.5v1.8h2.3v1.8h-2.3v4c0,0.3,0.1,0.6,0.3,0.7C145,843,145.2,843.1,145.5,843.1z"/>
			<path class="st12" d="M148.6,834.2c0-0.7,0.4-1.1,1.2-1.1s1.2,0.4,1.2,1.1c0,0.4-0.1,0.6-0.3,0.8s-0.5,0.3-0.9,0.3
				C149,835.4,148.6,835,148.6,834.2z M150.9,844.7h-2.3v-8.3h2.3V844.7z"/>
			<path class="st12" d="M160.9,840.5c0,1.4-0.4,2.4-1.1,3.2c-0.7,0.8-1.7,1.1-3,1.1c-0.8,0-1.5-0.2-2.1-0.5s-1.1-0.9-1.4-1.5
				c-0.3-0.6-0.5-1.4-0.5-2.3c0-1.4,0.4-2.4,1.1-3.2c0.7-0.8,1.7-1.1,3-1.1c0.8,0,1.5,0.2,2.1,0.5s1.1,0.8,1.4,1.5
				S160.9,839.7,160.9,840.5z M155.1,840.5c0,0.8,0.1,1.4,0.4,1.9c0.3,0.4,0.7,0.6,1.3,0.6s1-0.2,1.3-0.6c0.3-0.4,0.4-1,0.4-1.9
				c0-0.8-0.1-1.4-0.4-1.9s-0.7-0.6-1.3-0.6s-1,0.2-1.3,0.6C155.2,839,155.1,839.7,155.1,840.5z"/>
			<path class="st12" d="M170.4,844.7h-2.3v-4.9c0-0.6-0.1-1-0.3-1.4c-0.2-0.3-0.6-0.4-1-0.4c-0.6,0-1.1,0.2-1.4,0.6
				c-0.3,0.4-0.4,1.1-0.4,2.1v3.9h-2.3v-8.3h1.7l0.3,1.1h0.1c0.3-0.4,0.6-0.7,1-0.9s0.9-0.3,1.5-0.3c1,0,1.7,0.3,2.2,0.8
				s0.8,1.3,0.8,2.3L170.4,844.7C170.3,844.7,170.4,844.7,170.4,844.7z"/>
			<path class="st12" d="M178,844.7l-0.4-1.1h-0.1c-0.4,0.5-0.8,0.8-1.2,1s-0.9,0.3-1.6,0.3c-0.8,0-1.4-0.2-1.9-0.7
				s-0.7-1.1-0.7-1.9c0-0.9,0.3-1.5,0.9-2c0.6-0.4,1.5-0.7,2.8-0.7h1.4v-0.4c0-0.8-0.4-1.3-1.3-1.3c-0.7,0-1.4,0.2-2.3,0.6l-0.8-1.5
				c1-0.5,2-0.8,3.2-0.8c1.1,0,2,0.2,2.6,0.7s0.9,1.2,0.9,2.2v5.5L178,844.7L178,844.7z M177.3,840.9h-0.9c-0.7,0-1.2,0.1-1.5,0.4
				c-0.3,0.3-0.5,0.5-0.5,1c0,0.6,0.4,1,1.1,1c0.5,0,0.9-0.2,1.3-0.5c0.3-0.3,0.5-0.7,0.5-1.2L177.3,840.9L177.3,840.9z"/>
			<path class="st12" d="M184.2,844.7h-2.3v-11.6h2.3V844.7z"/>
		</g>
		<g>
			<circle class="st8" cx="152.2" cy="936.6" r="52.5"/>
			<g>
				<g>
					<g>
						<g>
							<g>
								<g>
									<g>
										<g>
											<g>
												<g>
													<g>
														<defs>
															
																<ellipse id="SVGID_7_" transform="matrix(0.9985 -5.530040e-02 5.530040e-02 0.9985 -51.567 9.8501)" cx="152.2" cy="936.7" rx="52.4" ry="52.4"/>
														</defs>
														<clipPath id="SVGID_8_">
															<use xlink:href="#SVGID_7_"  style="overflow:visible;"/>
														</clipPath>
														
															<ellipse transform="matrix(0.9985 -5.530040e-02 5.530040e-02 0.9985 -51.567 9.8501)" class="st13" cx="152.2" cy="936.7" rx="52.4" ry="52.4"/>
													</g>
												</g>
											</g>
										</g>
									</g>
								</g>
							</g>
						</g>
						<g>
							<g>
								<g>
									<g>
										<g>
											<g>
												<g>
													<g>
														<defs>
															
																<ellipse id="SVGID_9_" transform="matrix(0.9985 -5.530040e-02 5.530040e-02 0.9985 -51.567 9.8501)" cx="152.2" cy="936.7" rx="52.4" ry="52.4"/>
														</defs>
														<clipPath id="SVGID_10_">
															<use xlink:href="#SVGID_9_"  style="overflow:visible;"/>
														</clipPath>
														<g class="st14">
															
																<ellipse transform="matrix(0.9985 -5.530037e-02 5.530037e-02 0.9985 -51.567 9.8501)" class="st15" cx="152.2" cy="936.7" rx="35.6" ry="35.6"/>
														</g>
													</g>
												</g>
											</g>
										</g>
									</g>
								</g>
							</g>
						</g>
					</g>
					<g>
						<g>
							<g>
								<path class="st8" d="M198.8,942.9c0-7.6-6.1-13.7-13.7-13.7c-0.9,0-1.8,0.1-2.6,0.3c0.3-0.9,0.4-1.9,0.4-3
									c0-6.3-5.2-11.5-11.5-11.5c-2.8,0-5.4,1-7.4,2.7c-2.7-9-11-15.5-20.8-15.5c-12,0-21.7,9.7-21.7,21.7c0,0.9,0.1,1.9,0.2,2.7
									c-7.5,0.9-13.3,7.2-13.3,15c0,8.3,6.7,15.1,15.1,15.1h64.1C193.7,955.3,198.8,949.6,198.8,942.9z"/>
							</g>
						</g>
					</g>
				</g>
				<g>
					<polygon class="st16" points="185.2,977.4 217.1,956.6 185.2,935.9 185.2,949 138.9,940.9 138.9,972.4 185.2,964.8 					"/>
				</g>
			</g>
		</g>
		<g>
			<g>
				<path class="st5" d="M516.6,251.5v-5.4h-0.5v5.4H516.6L516.6,251.5z M516.6,240.8v-5.4h-0.5v5.4H516.6L516.6,240.8z
					 M516.6,230.1v-5.4h-0.5v5.4H516.6L516.6,230.1z M516.6,219.3v-5.4h-0.5v5.4H516.6L516.6,219.3z M516.6,208.6v-5.4h-0.5v5.4
					H516.6L516.6,208.6z M516.6,197.8v-5.4h-0.5v5.4H516.6L516.6,197.8z M516.6,187.1v-5.4h-0.5v5.4H516.6L516.6,187.1z
					 M516.6,176.4V171h-0.5v5.4H516.6L516.6,176.4z M516.6,165.6v-5.4h-0.5v5.4H516.6L516.6,165.6z M516.6,154.9v-5.4h-0.5v5.4
					H516.6L516.6,154.9z M516.6,144.1v-5.4h-0.5v5.4H516.6L516.6,144.1z M516.6,133.4V128h-0.5v5.4H516.6L516.6,133.4z M516.6,122.7
					v-5.4h-0.5v5.4H516.6L516.6,122.7z M516.6,111.9v-5.4h-0.5v5.4H516.6L516.6,111.9z M516.6,101.2v-5.4h-0.5v5.4H516.6
					L516.6,101.2z M516.6,90.4v-5.3h-0.5v5.4L516.6,90.4L516.6,90.4z M516.6,79.7v-5.4h-0.5v5.4H516.6L516.6,79.7z M511.8,74.3v-0.5
					h-5.4v0.5H511.8L511.8,74.3z M501.1,74.3v-0.5h-5.4v0.5H501.1L501.1,74.3z M490.3,74.3v-0.5h-5.4v0.5H490.3L490.3,74.3z
					 M479.6,74.3v-0.5h-5.4v0.5H479.6L479.6,74.3z M468.8,74.3v-0.5h-5.4v0.5H468.8L468.8,74.3z M458.1,74.3v-0.5h-3.7v0.5l0,0l0,0
					l0,0l0,0c0,0.5,0,1.1,0,1.1h0.5v-1.1H458.1L458.1,74.3z M454.9,86.2v-5.4h-0.5v5.4H454.9L454.9,86.2z M454.9,96.9v-5.4h-0.5v5.4
					H454.9L454.9,96.9z M454.9,107.6v-5.4h-0.5v5.4H454.9L454.9,107.6z M454.9,118.4V113h-0.5v5.4H454.9L454.9,118.4z M454.9,129.1
					v-5.4h-0.5v5.4H454.9L454.9,129.1z M454.9,139.9v-5.4h-0.5v5.4H454.9L454.9,139.9z M454.9,150.6v-5.4h-0.5v5.4H454.9
					L454.9,150.6z M454.9,161.3v-5.4h-0.5v5.4H454.9L454.9,161.3z M454.9,172.1v-5.4h-0.5v5.4H454.9L454.9,172.1z M454.9,182.8v-5.4
					h-0.5v5.4H454.9L454.9,182.8z M454.9,193.6v-5.4h-0.5v5.4H454.9L454.9,193.6z M454.9,204.3v-5.4h-0.5v5.4H454.9L454.9,204.3z
					 M454.9,215v-5.4h-0.5v5.4H454.9L454.9,215z M454.9,225.8v-5.4h-0.5v5.4H454.9L454.9,225.8z M454.9,236.5v-5.4h-0.5v5.4H454.9
					L454.9,236.5z M454.9,247.3v-5.4h-0.5v5.4H454.9L454.9,247.3z M460.8,251.5V251h-5.4v0.5H460.8L460.8,251.5z M471.6,251.5V251
					h-5.4v0.5H471.6L471.6,251.5z M482.3,251.5V251h-5.4v0.5H482.3L482.3,251.5z M493,251.5V251h-5.4v0.5H493L493,251.5z
					 M503.8,251.5V251h-5.4v0.5H503.8L503.8,251.5z M514.5,251.5V251h-5.4v0.5H514.5L514.5,251.5z"/>
			</g>
			<rect x="275.9" y="73.8" class="st6" width="168.5" height="177.7"/>
			<g class="st3">
				<path class="st8" d="M332.6,162.9c0,2.7-0.8,4.7-2.3,6.2c-1.5,1.4-3.7,2.1-6.6,2.1h-4.6v-16.3h5.1c2.7,0,4.7,0.7,6.2,2.1
					S332.6,160.4,332.6,162.9z M329,163c0-3.5-1.5-5.3-4.6-5.3h-1.8v10.6h1.5C327.3,168.4,329,166.6,329,163z"/>
				<path class="st8" d="M341.4,171.5c-2,0-3.6-0.6-4.7-1.7c-1.1-1.1-1.7-2.7-1.7-4.7c0-2.1,0.5-3.7,1.6-4.8c1-1.1,2.5-1.7,4.3-1.7
					s3.1,0.5,4.1,1.5s1.5,2.4,1.5,4.2v1.7h-8c0,1,0.3,1.7,0.9,2.3c0.5,0.5,1.3,0.8,2.3,0.8c0.8,0,1.5-0.1,2.1-0.2s1.4-0.4,2.1-0.7
					v2.6c-0.6,0.3-1.2,0.5-1.9,0.7C343.2,171.4,342.3,171.5,341.4,171.5z M340.9,161c-0.7,0-1.3,0.2-1.7,0.7s-0.6,1.1-0.7,1.9h4.8
					c0-0.8-0.2-1.5-0.7-1.9C342.2,161.2,341.6,161,340.9,161z"/>
				<path class="st8" d="M356.1,161.3h-2.9v9.9h-3.4v-9.9h-1.9v-1.6l1.9-0.9v-0.9c0-1.4,0.3-2.5,1-3.1s1.8-1,3.4-1
					c1.2,0,2.2,0.2,3.1,0.5l-0.9,2.5c-0.7-0.2-1.3-0.3-1.9-0.3c-0.5,0-0.8,0.1-1,0.4c-0.2,0.3-0.3,0.7-0.3,1.1v0.8h2.9L356.1,161.3
					L356.1,161.3z"/>
				<path class="st8" d="M366,171.2l-0.7-1.7h-0.1c-0.6,0.7-1.2,1.2-1.8,1.5s-1.4,0.4-2.4,0.4c-1.2,0-2.1-0.3-2.8-1
					c-0.7-0.7-1-1.7-1-2.9c0-1.3,0.5-2.3,1.4-2.9s2.3-1,4.2-1l2.2-0.1V163c0-1.3-0.6-1.9-1.9-1.9c-1,0-2.2,0.3-3.5,0.9l-1.1-2.3
					c1.4-0.8,3-1.1,4.8-1.1c1.7,0,3,0.4,3.8,1.1c0.9,0.7,1.3,1.8,1.3,3.3v8.3L366,171.2L366,171.2z M365,165.5h-1.3
					c-1,0-1.7,0.2-2.2,0.5s-0.7,0.8-0.7,1.5c0,1,0.6,1.4,1.7,1.4c0.8,0,1.4-0.2,1.9-0.7s0.7-1.1,0.7-1.8L365,165.5L365,165.5z"/>
				<path class="st8" d="M380.7,171.2l-0.5-1.6H380c-0.4,0.6-0.9,1-1.6,1.3s-1.4,0.5-2.3,0.5c-1.5,0-2.6-0.4-3.3-1.2
					c-0.7-0.8-1.1-1.9-1.1-3.4v-8.1h3.4v7.3c0,0.9,0.2,1.6,0.5,2c0.3,0.5,0.8,0.7,1.5,0.7c1,0,1.6-0.3,2.1-1
					c0.4-0.6,0.6-1.7,0.6-3.2v-5.9h3.4v12.5L380.7,171.2L380.7,171.2L380.7,171.2z"/>
				<path class="st8" d="M390.3,171.2h-3.4v-17.4h3.4V171.2z"/>
				<path class="st8" d="M399.1,168.7c0.6,0,1.3-0.1,2.1-0.4v2.5c-0.8,0.4-1.9,0.6-3.1,0.6c-1.4,0-2.4-0.3-3-1s-0.9-1.7-0.9-3.1v-6
					h-1.6v-1.4l1.9-1.1l1-2.6h2.2v2.7h3.5v2.6h-3.6v6c0,0.5,0.1,0.8,0.4,1.1S398.7,168.7,399.1,168.7z"/>
			</g>
		</g>
		<g class="st3">
			<path class="st5" d="M493.9,125.5c0-1.3-0.5-2.3-1.5-3s-2.3-1.1-4.1-1.1c-3.6,0-5.5,1.4-5.5,4.1c0,1.1,0.3,2.5,0.9,4.2h-2.9
				c-0.6-1.3-0.8-2.8-0.8-4.5c0-2.4,0.7-4.2,2.2-5.4s3.5-1.9,6.2-1.9c1.7,0,3.2,0.3,4.5,0.9s2.3,1.5,2.9,2.7c0.7,1.2,1,2.5,1,4.1
				s-0.4,3.2-1.1,4.8l-2.8-1.1c0.3-0.6,0.5-1.2,0.8-1.8C494,126.9,493.9,126.1,493.9,125.5z"/>
			<path class="st5" d="M480.2,141.7l1.6-0.5V141c-0.6-0.4-1-0.9-1.3-1.6s-0.5-1.4-0.5-2.3c0-1.5,0.4-2.6,1.2-3.3
				c0.8-0.7,1.9-1.1,3.4-1.1h8.1v3.4h-7.3c-0.9,0-1.6,0.2-2,0.5c-0.5,0.3-0.7,0.8-0.7,1.5c0,1,0.3,1.6,1,2.1
				c0.6,0.4,1.7,0.6,3.2,0.6h5.9v3.4h-12.5v-2.5L480.2,141.7L480.2,141.7z"/>
			<path class="st5" d="M483.9,156.6c-1.3,0-2.3-0.4-2.9-1.3c-0.7-0.9-1-2.2-1-4c0-0.9,0.1-1.7,0.2-2.3s0.3-1.2,0.5-1.8h2.8
				c-0.3,0.6-0.5,1.3-0.7,2.1s-0.3,1.5-0.3,2.1c0,1.2,0.4,1.9,1.1,1.9c0.3,0,0.5-0.1,0.7-0.2s0.4-0.4,0.6-0.8
				c0.2-0.4,0.5-0.9,0.7-1.6c0.4-1,0.8-1.7,1.1-2.1c0.3-0.5,0.7-0.8,1.2-1s1-0.3,1.6-0.3c1.1,0,2,0.4,2.6,1.3s0.9,2.1,0.9,3.7
				c0,1.5-0.3,3-1,4.4l-2.5-1c0.3-0.6,0.5-1.2,0.7-1.8c0.2-0.5,0.3-1.1,0.3-1.7c0-1-0.3-1.5-0.8-1.5c-0.3,0-0.6,0.2-0.8,0.5
				c-0.2,0.3-0.6,1-1,2.1c-0.4,1-0.8,1.7-1.1,2.1c-0.3,0.5-0.7,0.8-1.2,1C485.1,156.5,484.5,156.6,483.9,156.6z"/>
			<path class="st5" d="M482.7,164.5c0,0.6,0.1,1.3,0.4,2.1h-2.5c-0.4-0.8-0.6-1.9-0.6-3.1c0-1.4,0.3-2.4,1-3s1.7-0.9,3.1-0.9h6V158
				h1.4l1.1,1.9l2.6,1v2.2h-2.7v3.5h-2.6v-3.5h-6c-0.5,0-0.8,0.1-1.1,0.4S482.7,164.1,482.7,164.5z"/>
			<path class="st5" d="M486.5,180.5c-2,0-3.6-0.5-4.8-1.6c-1.1-1.1-1.7-2.6-1.7-4.5c0-1.2,0.3-2.3,0.8-3.2s1.3-1.6,2.3-2.1
				s2.1-0.7,3.4-0.7c2,0,3.6,0.5,4.8,1.6c1.1,1.1,1.7,2.6,1.7,4.5c0,1.2-0.3,2.3-0.8,3.2s-1.3,1.6-2.2,2.1
				C488.9,180.3,487.8,180.5,486.5,180.5z M486.5,171.9c-1.2,0-2.2,0.2-2.8,0.6c-0.6,0.4-0.9,1.1-0.9,2s0.3,1.6,0.9,2
				s1.6,0.6,2.8,0.6c1.2,0,2.2-0.2,2.8-0.6c0.6-0.4,0.9-1.1,0.9-2s-0.3-1.6-0.9-2C488.6,172.1,487.7,171.9,486.5,171.9z"/>
			<path class="st5" d="M480.2,194.5v-3.4h7.3c0.9,0,1.6-0.2,2-0.5c0.5-0.3,0.7-0.8,0.7-1.4c0-0.9-0.3-1.5-1-1.9
				c-0.6-0.4-1.7-0.6-3.2-0.6h-5.9v-3.4h12.5v2.6l-1.6,0.5v0.2c0.6,0.3,1,0.8,1.3,1.5c0.3,0.6,0.5,1.4,0.5,2.2
				c0,1.9-0.6,3.1-1.8,3.8v0.3c0.6,0.3,1,0.8,1.3,1.5s0.5,1.4,0.5,2.2c0,1.4-0.4,2.5-1.1,3.2s-1.9,1.1-3.5,1.1h-8.1V199h7.3
				c0.9,0,1.6-0.2,2-0.5c0.5-0.3,0.7-0.8,0.7-1.4c0-0.8-0.3-1.5-0.9-1.9s-1.5-0.6-2.8-0.6h-6.2L480.2,194.5L480.2,194.5z"/>
		</g>
		<g class="st3">
			<path class="st5" d="M493.9,377.2c0-1.3-0.5-2.3-1.5-3s-2.3-1.1-4.1-1.1c-3.6,0-5.5,1.4-5.5,4.1c0,1.1,0.3,2.5,0.9,4.2h-2.9
				c-0.6-1.3-0.8-2.8-0.8-4.5c0-2.4,0.7-4.2,2.2-5.4s3.5-1.9,6.2-1.9c1.7,0,3.2,0.3,4.5,0.9s2.3,1.5,2.9,2.7c0.7,1.2,1,2.5,1,4.1
				s-0.4,3.2-1.1,4.8l-2.8-1.1c0.3-0.6,0.5-1.2,0.8-1.8C494,378.6,493.9,377.8,493.9,377.2z"/>
			<path class="st5" d="M480.2,393.4l1.6-0.5v-0.2c-0.6-0.4-1-0.9-1.3-1.6s-0.5-1.4-0.5-2.3c0-1.5,0.4-2.6,1.2-3.3
				c0.8-0.7,1.9-1.1,3.4-1.1h8.1v3.4h-7.3c-0.9,0-1.6,0.2-2,0.5c-0.5,0.3-0.7,0.8-0.7,1.5c0,1,0.3,1.6,1,2.1
				c0.6,0.4,1.7,0.6,3.2,0.6h5.9v3.4h-12.5v-2.5H480.2z"/>
			<path class="st5" d="M483.9,408.3c-1.3,0-2.3-0.4-2.9-1.3c-0.7-0.9-1-2.2-1-4c0-0.9,0.1-1.7,0.2-2.3s0.3-1.2,0.5-1.8h2.8
				c-0.3,0.6-0.5,1.3-0.7,2.1c-0.2,0.8-0.3,1.5-0.3,2.1c0,1.2,0.4,1.9,1.1,1.9c0.3,0,0.5-0.1,0.7-0.2s0.4-0.4,0.6-0.8
				s0.5-0.9,0.7-1.6c0.4-1,0.8-1.7,1.1-2.1c0.3-0.5,0.7-0.8,1.2-1s1-0.3,1.6-0.3c1.1,0,2,0.4,2.6,1.3s0.9,2.1,0.9,3.7
				c0,1.5-0.3,3-1,4.4l-2.5-1c0.3-0.6,0.5-1.2,0.7-1.8c0.2-0.5,0.3-1.1,0.3-1.7c0-1-0.3-1.5-0.8-1.5c-0.3,0-0.6,0.2-0.8,0.5
				c-0.2,0.3-0.6,1-1,2.1c-0.4,1-0.8,1.7-1.1,2.1c-0.3,0.5-0.7,0.8-1.2,1C485.1,408.2,484.5,408.3,483.9,408.3z"/>
			<path class="st5" d="M482.7,416.2c0,0.6,0.1,1.3,0.4,2.1h-2.5c-0.4-0.8-0.6-1.9-0.6-3.1c0-1.4,0.3-2.4,1-3s1.7-0.9,3.1-0.9h6
				v-1.6h1.4l1.1,1.9l2.6,1v2.2h-2.7v3.5h-2.6v-3.5h-6c-0.5,0-0.8,0.1-1.1,0.4S482.7,415.8,482.7,416.2z"/>
			<path class="st5" d="M486.5,432.2c-2,0-3.6-0.5-4.8-1.6c-1.1-1.1-1.7-2.6-1.7-4.5c0-1.2,0.3-2.3,0.8-3.2s1.3-1.6,2.3-2.1
				s2.1-0.7,3.4-0.7c2,0,3.6,0.5,4.8,1.6c1.1,1.1,1.7,2.6,1.7,4.5c0,1.2-0.3,2.3-0.8,3.2s-1.3,1.6-2.2,2.1
				C488.9,432,487.8,432.2,486.5,432.2z M486.5,423.6c-1.2,0-2.2,0.2-2.8,0.6c-0.6,0.4-0.9,1.1-0.9,2s0.3,1.6,0.9,2s1.6,0.6,2.8,0.6
				c1.2,0,2.2-0.2,2.8-0.6c0.6-0.4,0.9-1.1,0.9-2s-0.3-1.6-0.9-2C488.6,423.8,487.7,423.6,486.5,423.6z"/>
			<path class="st5" d="M480.2,446.2v-3.4h7.3c0.9,0,1.6-0.2,2-0.5c0.5-0.3,0.7-0.8,0.7-1.4c0-0.9-0.3-1.5-1-1.9
				c-0.6-0.4-1.7-0.6-3.2-0.6h-5.9V435h12.5v2.6l-1.6,0.5v0.2c0.6,0.3,1,0.8,1.3,1.5c0.3,0.6,0.5,1.4,0.5,2.2c0,1.9-0.6,3.1-1.8,3.8
				v0.3c0.6,0.3,1,0.8,1.3,1.5s0.5,1.4,0.5,2.2c0,1.4-0.4,2.5-1.1,3.2s-1.9,1.1-3.5,1.1h-8.1v-3.4h7.3c0.9,0,1.6-0.2,2-0.5
				c0.5-0.3,0.7-0.8,0.7-1.4c0-0.8-0.3-1.5-0.9-1.9s-1.5-0.6-2.8-0.6h-6.2L480.2,446.2L480.2,446.2z"/>
		</g>
		<g class="st3">
			<path class="st4" d="M102.9,88.4l-1.1-3.5h-5.2l-1.1,3.5h-3.3l5.1-14.6h3.8l5.1,14.6H102.9z M101.1,82.4c-1-3.1-1.5-4.9-1.6-5.3
				s-0.2-0.7-0.3-1c-0.2,0.8-0.8,2.9-1.9,6.3H101.1z"/>
			<path class="st4" d="M115.6,85.1c0,1.1-0.4,2-1.2,2.6s-2,0.9-3.5,0.9c-0.8,0-1.5-0.1-2.1-0.2s-1.1-0.3-1.6-0.5v-2.5
				c0.6,0.3,1.2,0.5,1.9,0.7c0.7,0.2,1.3,0.3,1.9,0.3c1.1,0,1.6-0.3,1.6-1c0-0.2-0.1-0.4-0.2-0.6c-0.1-0.1-0.4-0.3-0.8-0.5
				s-0.8-0.4-1.4-0.7c-0.9-0.4-1.5-0.7-1.9-1s-0.7-0.7-0.9-1c-0.2-0.4-0.3-0.9-0.3-1.5c0-1,0.4-1.7,1.1-2.3c0.8-0.5,1.8-0.8,3.2-0.8
				c1.3,0,2.6,0.3,3.9,0.9l-0.9,2.2c-0.6-0.2-1.1-0.4-1.6-0.6s-1-0.2-1.5-0.2c-0.9,0-1.3,0.2-1.3,0.7c0,0.3,0.1,0.5,0.4,0.7
				s0.9,0.5,1.9,0.9c0.9,0.4,1.5,0.7,1.9,1s0.7,0.7,0.9,1.1C115.5,84.1,115.6,84.6,115.6,85.1z"/>
			<path class="st4" d="M125.7,85.1c0,1.1-0.4,2-1.2,2.6s-2,0.9-3.5,0.9c-0.8,0-1.5-0.1-2.1-0.2s-1.1-0.3-1.6-0.5v-2.5
				c0.6,0.3,1.2,0.5,1.9,0.7c0.7,0.2,1.3,0.3,1.9,0.3c1.1,0,1.6-0.3,1.6-1c0-0.2-0.1-0.4-0.2-0.6c-0.1-0.1-0.4-0.3-0.8-0.5
				s-0.8-0.4-1.4-0.7c-0.9-0.4-1.5-0.7-1.9-1s-0.7-0.7-0.9-1c-0.2-0.4-0.3-0.9-0.3-1.5c0-1,0.4-1.7,1.1-2.3c0.8-0.5,1.8-0.8,3.2-0.8
				c1.3,0,2.6,0.3,3.9,0.9l-0.9,2.2c-0.6-0.2-1.1-0.4-1.6-0.6s-1-0.2-1.5-0.2c-0.9,0-1.3,0.2-1.3,0.7c0,0.3,0.1,0.5,0.4,0.7
				s0.9,0.5,1.9,0.9c0.9,0.4,1.5,0.7,1.9,1s0.7,0.7,0.9,1.1C125.6,84.1,125.7,84.6,125.7,85.1z"/>
			<path class="st4" d="M133,88.6c-1.8,0-3.2-0.5-4.2-1.5s-1.5-2.4-1.5-4.2c0-1.9,0.5-3.3,1.4-4.3s2.2-1.5,3.9-1.5
				c1.6,0,2.8,0.4,3.7,1.3s1.3,2.1,1.3,3.7v1.5h-7.1c0,0.9,0.3,1.5,0.8,2s1.1,0.7,2,0.7c0.7,0,1.3-0.1,1.9-0.2
				c0.6-0.1,1.2-0.4,1.9-0.7v2.3c-0.5,0.3-1.1,0.5-1.7,0.6S133.9,88.6,133,88.6z M132.6,79.3c-0.6,0-1.1,0.2-1.5,0.6s-0.6,1-0.6,1.7
				h4.2c0-0.7-0.2-1.3-0.6-1.7C133.8,79.5,133.3,79.3,132.6,79.3z"/>
			<path class="st4" d="M147.8,85.1c0,1.1-0.4,2-1.2,2.6s-2,0.9-3.5,0.9c-0.8,0-1.5-0.1-2.1-0.2s-1.1-0.3-1.6-0.5v-2.5
				c0.6,0.3,1.2,0.5,1.9,0.7s1.3,0.3,1.9,0.3c1.1,0,1.6-0.3,1.6-1c0-0.2-0.1-0.4-0.2-0.6c-0.1-0.1-0.4-0.3-0.8-0.5
				c-0.4-0.2-0.8-0.4-1.4-0.7c-0.9-0.4-1.5-0.7-1.9-1s-0.7-0.7-0.9-1c-0.2-0.4-0.3-0.9-0.3-1.5c0-1,0.4-1.7,1.1-2.3
				c0.8-0.5,1.8-0.8,3.2-0.8c1.3,0,2.6,0.3,3.9,0.9l-0.9,2.2c-0.6-0.2-1.1-0.4-1.6-0.6s-1-0.2-1.5-0.2c-0.9,0-1.3,0.2-1.3,0.7
				c0,0.3,0.1,0.5,0.4,0.7s0.9,0.5,1.9,0.9c0.9,0.4,1.5,0.7,1.9,1s0.7,0.7,0.9,1.1C147.7,84.1,147.8,84.6,147.8,85.1z"/>
			<path class="st4" d="M157.9,85.1c0,1.1-0.4,2-1.2,2.6s-2,0.9-3.5,0.9c-0.8,0-1.5-0.1-2.1-0.2s-1.1-0.3-1.6-0.5v-2.5
				c0.6,0.3,1.2,0.5,1.9,0.7s1.3,0.3,1.9,0.3c1.1,0,1.6-0.3,1.6-1c0-0.2-0.1-0.4-0.2-0.6c-0.1-0.1-0.4-0.3-0.8-0.5
				c-0.4-0.2-0.8-0.4-1.4-0.7c-0.9-0.4-1.5-0.7-1.9-1s-0.7-0.7-0.9-1c-0.2-0.4-0.3-0.9-0.3-1.5c0-1,0.4-1.7,1.1-2.3
				c0.8-0.5,1.8-0.8,3.2-0.8c1.3,0,2.6,0.3,3.9,0.9l-0.9,2.2c-0.6-0.2-1.1-0.4-1.6-0.6s-1-0.2-1.5-0.2c-0.9,0-1.3,0.2-1.3,0.7
				c0,0.3,0.1,0.5,0.4,0.7s0.9,0.5,1.9,0.9c0.9,0.4,1.5,0.7,1.9,1s0.7,0.7,0.9,1.1C157.8,84.1,157.9,84.6,157.9,85.1z"/>
			<path class="st4" d="M170.1,88.4h-3v-6.5c0-0.8-0.1-1.4-0.4-1.8c-0.3-0.4-0.7-0.6-1.3-0.6c-0.8,0-1.3,0.3-1.7,0.9
				s-0.5,1.5-0.5,2.8v5.2h-3V77.3h2.3l0.4,1.4h0.2c0.3-0.5,0.7-0.9,1.3-1.2c0.6-0.3,1.2-0.4,1.9-0.4c1.7,0,2.8,0.5,3.4,1.6h0.3
				c0.3-0.5,0.7-0.9,1.3-1.2s1.2-0.4,2-0.4c1.3,0,2.2,0.3,2.9,1s1,1.7,1,3.1v7.2h-3v-6.5c0-0.8-0.1-1.4-0.4-1.8
				c-0.3-0.4-0.7-0.6-1.3-0.6c-0.7,0-1.3,0.3-1.7,0.8s-0.6,1.4-0.6,2.5L170.1,88.4L170.1,88.4z"/>
			<path class="st4" d="M185.2,88.6c-1.8,0-3.2-0.5-4.2-1.5s-1.5-2.4-1.5-4.2c0-1.9,0.5-3.3,1.4-4.3s2.2-1.5,3.9-1.5
				c1.6,0,2.8,0.4,3.7,1.3s1.3,2.1,1.3,3.7v1.5h-7.1c0,0.9,0.3,1.5,0.8,2s1.1,0.7,2,0.7c0.7,0,1.3-0.1,1.9-0.2
				c0.6-0.1,1.2-0.4,1.9-0.7v2.3c-0.5,0.3-1.1,0.5-1.7,0.6S186,88.6,185.2,88.6z M184.7,79.3c-0.6,0-1.1,0.2-1.5,0.6s-0.6,1-0.6,1.7
				h4.2c0-0.7-0.2-1.3-0.6-1.7C185.9,79.5,185.4,79.3,184.7,79.3z"/>
			<path class="st4" d="M202.4,88.4h-3v-6.5c0-0.8-0.1-1.4-0.4-1.8c-0.3-0.4-0.7-0.6-1.4-0.6c-0.8,0-1.5,0.3-1.8,0.8
				c-0.4,0.6-0.6,1.5-0.6,2.8v5.2h-3v-11h2.3l0.4,1.4h0.2c0.3-0.5,0.8-0.9,1.4-1.2s1.3-0.4,2-0.4c1.3,0,2.3,0.3,2.9,1
				c0.7,0.7,1,1.7,1,3L202.4,88.4L202.4,88.4z"/>
			<path class="st4" d="M210.2,86.2c0.5,0,1.2-0.1,1.9-0.3v2.3c-0.8,0.3-1.7,0.5-2.8,0.5c-1.2,0-2.1-0.3-2.6-0.9
				c-0.6-0.6-0.8-1.5-0.8-2.8v-5.3h-1.4v-1.4l1.7-1l0.9-2.3h1.9v2.3h3.1v2.3H209v5.3c0,0.4,0.1,0.7,0.4,1
				C209.5,86.1,209.8,86.2,210.2,86.2z"/>
		</g>
		<g>
			<g>
				<circle class="st8" cx="152.2" cy="154.7" r="52.5"/>
				<g>
					<g>
						<g>
							<g>
								<g>
									<g>
										<g>
											<g>
												<g>
													<g>
														<defs>
															<circle id="SVGID_11_" cx="152.2" cy="154.7" r="52.5"/>
														</defs>
														<clipPath id="SVGID_12_">
															<use xlink:href="#SVGID_11_"  style="overflow:visible;"/>
														</clipPath>
														<circle class="st17" cx="152.2" cy="154.7" r="52.5"/>
													</g>
												</g>
											</g>
										</g>
									</g>
								</g>
							</g>
						</g>
						<g>
							<g>
								<g>
									<g>
										<g>
											<g>
												<g>
													<g>
														<defs>
															<circle id="SVGID_13_" cx="152.2" cy="154.7" r="52.5"/>
														</defs>
														<clipPath id="SVGID_14_">
															<use xlink:href="#SVGID_13_"  style="overflow:visible;"/>
														</clipPath>
														<g class="st18">
															<ellipse class="st19" cx="152.2" cy="154.7" rx="35.8" ry="35.8"/>
														</g>
													</g>
												</g>
											</g>
										</g>
									</g>
								</g>
							</g>
						</g>
					</g>
				</g>
			</g>
			<g>
				<circle class="st20" cx="161.3" cy="145.7" r="21.9"/>
				<line class="st21" x1="144.4" y1="162.6" x2="123.2" y2="183.8"/>
				<line class="st22" x1="139.7" y1="167.3" x2="121" y2="186"/>
			</g>
		</g>
		<g>
			<polygon id="Fill-10_72_" class="st23" points="134.2,227 152.5,263 170.1,227 			"/>
			<polygon id="Fill-10_70_" class="st24" points="134.2,263 152.5,298.9 170.1,263 			"/>
		</g>
		<g>
			<polygon id="Fill-10_69_" class="st23" points="134.2,483.5 152.5,519.5 170.1,483.5 			"/>
			<polygon id="Fill-10_67_" class="st24" points="134.2,519.5 152.5,555.4 170.1,519.5 			"/>
		</g>
		<g>
			<polygon id="Fill-10_41_" class="st23" points="134.2,729.5 152.5,765.4 170.1,729.5 			"/>
			<polygon id="Fill-10_22_" class="st24" points="134.2,765.4 152.5,801.4 170.1,765.4 			"/>
		</g>
		<g class="st3">
			<path class="st4" d="M127.8,329.9h4.5c2.1,0,3.5,0.3,4.5,0.9c0.9,0.6,1.4,1.5,1.4,2.8c0,0.9-0.2,1.6-0.6,2.1
				c-0.4,0.6-0.9,0.9-1.6,1v0.1c0.9,0.2,1.6,0.6,2,1.2s0.6,1.3,0.6,2.2c0,1.3-0.5,2.4-1.4,3.1c-1,0.7-2.3,1.1-3.9,1.1h-5.4
				L127.8,329.9L127.8,329.9L127.8,329.9z M130.9,335.7h1.8c0.8,0,1.4-0.1,1.8-0.4c0.4-0.3,0.6-0.7,0.6-1.3s-0.2-1-0.6-1.2
				c-0.4-0.2-1-0.4-1.9-0.4H131L130.9,335.7L130.9,335.7z M130.9,338.1v3.8h2c0.8,0,1.5-0.2,1.9-0.5s0.6-0.8,0.6-1.5
				c0-1.2-0.9-1.8-2.6-1.8H130.9z"/>
			<path class="st4" d="M149.1,344.4l-0.4-1.4h-0.2c-0.3,0.5-0.8,0.9-1.4,1.2c-0.6,0.3-1.3,0.4-2,0.4c-1.3,0-2.3-0.3-2.9-1
				c-0.7-0.7-1-1.7-1-3v-7.3h3v6.5c0,0.8,0.1,1.4,0.4,1.8s0.7,0.6,1.4,0.6c0.8,0,1.5-0.3,1.8-0.8s0.6-1.5,0.6-2.8v-5.3h3v11.1
				L149.1,344.4L149.1,344.4z"/>
			<path class="st4" d="M154.4,330.5c0-1,0.5-1.5,1.6-1.5s1.6,0.5,1.6,1.5c0,0.5-0.1,0.8-0.4,1.1c-0.3,0.3-0.7,0.4-1.2,0.4
				C155,332,154.4,331.5,154.4,330.5z M157.6,344.4h-3v-11.1h3V344.4z"/>
			<path class="st4" d="M163.8,344.4h-3V329h3V344.4z"/>
			<path class="st4" d="M170.5,344.6c-1.3,0-2.3-0.5-3.1-1.5c-0.7-1-1.1-2.4-1.1-4.2c0-1.8,0.4-3.2,1.1-4.2c0.8-1,1.8-1.5,3.1-1.5
				c1.4,0,2.5,0.5,3.2,1.6h0.1c-0.2-0.8-0.2-1.6-0.2-2.2v-3.5h3v15.4h-2.3l-0.6-1.4h-0.1C172.9,344.1,171.9,344.6,170.5,344.6z
				 M171.5,342.2c0.8,0,1.3-0.2,1.7-0.7s0.6-1.2,0.6-2.3v-0.3c0-1.2-0.2-2-0.6-2.6c-0.4-0.5-1-0.8-1.8-0.8c-0.7,0-1.2,0.3-1.6,0.9
				c-0.4,0.6-0.6,1.4-0.6,2.5s0.2,1.9,0.6,2.5C170.3,341.9,170.8,342.2,171.5,342.2z"/>
		</g>
		<g>
			<circle class="st8" cx="152.2" cy="411.5" r="52.5"/>
			<g>
				<g>
					<g>
						<g>
							<g>
								<g>
									<g>
										<g>
											<g>
												<g>
													<defs>
														<circle id="SVGID_15_" cx="152.2" cy="411.5" r="52.5"/>
													</defs>
													<clipPath id="SVGID_16_">
														<use xlink:href="#SVGID_15_"  style="overflow:visible;"/>
													</clipPath>
													<circle class="st25" cx="152.2" cy="411.5" r="52.5"/>
												</g>
											</g>
										</g>
									</g>
								</g>
							</g>
						</g>
					</g>
					<g>
						<g>
							<g>
								<g>
									<g>
										<g>
											<g>
												<g>
													<defs>
														<circle id="SVGID_17_" cx="152.2" cy="411.5" r="52.5"/>
													</defs>
													<clipPath id="SVGID_18_">
														<use xlink:href="#SVGID_17_"  style="overflow:visible;"/>
													</clipPath>
													<g class="st26">
														<ellipse class="st19" cx="152.2" cy="411.5" rx="35.8" ry="35.8"/>
													</g>
												</g>
											</g>
										</g>
									</g>
								</g>
							</g>
						</g>
					</g>
				</g>
				<g>
					<g>
						<rect x="143.8" y="378.1" class="st5" width="18.1" height="4.1"/>
						<path class="st5" d="M143.8,378.1v15.2h-4.1v-11.2C139.7,379.9,141.5,378.1,143.8,378.1L143.8,378.1z"/>
						<path class="st5" d="M166.1,382.2v11.2H162v-15.2l0,0C164.2,378.1,166.1,379.9,166.1,382.2z"/>
						<path class="st27" d="M114.5,403.4v-14.1c0-1.9,1.6-3.5,3.5-3.5h68.9c1.9,0,3.5,1.6,3.5,3.5v13.1"/>
						<rect x="114.5" y="394.6" class="st28" width="76" height="17.2"/>
						<path class="st8" d="M157.6,398h-10.1c-0.8,0-1.5-0.7-1.5-1.5v-3.6c0-0.8,0.7-1.5,1.5-1.5h10.1c0.8,0,1.5,0.7,1.5,1.5v3.6
							C159.1,397.4,158.4,398,157.6,398z"/>
						<circle class="st28" cx="153.4" cy="417.1" r="2.1"/>
						<g>
							<path class="st29" d="M189.3,396c3.2-3.2,4.2-7.7,3.2-11.7c-0.1-0.4-0.6-0.5-0.9-0.2l-6.6,6.6c-0.9,0.9-2.4,0.9-3.3,0
								l-4.2-4.2c-0.9-0.9-0.9-2.4,0-3.3l6.6-6.6c0.3-0.3,0.2-0.8-0.2-0.9c-4.2-1.1-8.8,0.1-12,3.5c-3.2,3.5-4.1,8.5-2.4,12.7
								l-26.6,22.6c-3.4,2.9-3.6,8.1-0.4,11.2c3.2,3.1,8.3,3,11.2-0.4l22.6-26.6C180.7,400.4,185.8,399.5,189.3,396z"/>
						</g>
						<path class="st30" d="M190.5,411.8v25.4c0,1.9-1.6,3.5-3.5,3.5h-68.9c-1.9,0-3.5-1.6-3.5-3.5v-25.4"/>
					</g>
				</g>
			</g>
		</g>
		<g class="st3">
			<path class="st4" d="M69.5,867.2c0,1.3-0.5,2.3-1.4,3.1s-2.3,1.1-3.9,1.1c-1.5,0-2.9-0.3-4.1-0.9v-2.9c1,0.4,1.8,0.7,2.5,0.9
				s1.3,0.3,1.9,0.3c0.7,0,1.2-0.1,1.6-0.4s0.5-0.6,0.5-1.2c0-0.3-0.1-0.5-0.2-0.8c-0.2-0.2-0.4-0.4-0.7-0.6c-0.3-0.2-0.9-0.5-1.9-1
				c-0.9-0.4-1.5-0.8-2-1.2c-0.4-0.4-0.8-0.8-1.1-1.3s-0.4-1.1-0.4-1.8c0-1.3,0.4-2.3,1.3-3c0.9-0.7,2.1-1.1,3.6-1.1
				c0.8,0,1.5,0.1,2.2,0.3s1.4,0.4,2.1,0.8l-1,2.4c-0.8-0.3-1.4-0.5-1.9-0.7c-0.5-0.1-1-0.2-1.5-0.2c-0.6,0-1,0.1-1.3,0.4
				c-0.3,0.3-0.5,0.6-0.5,1.1c0,0.3,0.1,0.5,0.2,0.7c0.1,0.2,0.3,0.4,0.6,0.6c0.3,0.2,0.9,0.5,1.9,1c1.4,0.6,2.3,1.3,2.8,1.9
				C69.3,865.4,69.5,866.2,69.5,867.2z"/>
			<path class="st4" d="M79.8,871.2l-0.4-1.4h-0.2c-0.3,0.5-0.8,0.9-1.4,1.2s-1.3,0.4-2,0.4c-1.3,0-2.3-0.3-2.9-1s-1-1.7-1-3v-7.3h3
				v6.5c0,0.8,0.1,1.4,0.4,1.8c0.3,0.4,0.7,0.6,1.4,0.6c0.8,0,1.5-0.3,1.8-0.8s0.6-1.5,0.6-2.8v-5.3h3v11.1H79.8z"/>
			<path class="st4" d="M91.4,871.4c-1.3,0-2.3-0.5-3.1-1.4h-0.2c0.1,0.9,0.2,1.5,0.2,1.6v4.5h-3v-16h2.5l0.4,1.4h0.1
				c0.7-1.1,1.8-1.6,3.1-1.6s2.3,0.5,3.1,1.5c0.7,1,1.1,2.4,1.1,4.2c0,1.2-0.2,2.2-0.5,3.1s-0.8,1.5-1.5,2
				C93,871.2,92.2,871.4,91.4,871.4z M90.5,862.3c-0.7,0-1.3,0.2-1.6,0.7s-0.5,1.2-0.5,2.3v0.3c0,1.2,0.2,2,0.5,2.6
				c0.4,0.5,0.9,0.8,1.7,0.8c1.4,0,2-1.1,2-3.4c0-1.1-0.2-1.9-0.5-2.5C91.7,862.6,91.2,862.3,90.5,862.3z"/>
			<path class="st4" d="M104.2,871.4c-1.3,0-2.3-0.5-3.1-1.4h-0.2c0.1,0.9,0.2,1.5,0.2,1.6v4.5h-3v-16h2.5l0.4,1.4h0.1
				c0.7-1.1,1.8-1.6,3.1-1.6s2.3,0.5,3.1,1.5c0.7,1,1.1,2.4,1.1,4.2c0,1.2-0.2,2.2-0.5,3.1s-0.8,1.5-1.5,2
				C105.8,871.2,105.1,871.4,104.2,871.4z M103.3,862.3c-0.7,0-1.3,0.2-1.6,0.7s-0.5,1.2-0.5,2.3v0.3c0,1.2,0.2,2,0.5,2.6
				c0.4,0.5,0.9,0.8,1.7,0.8c1.4,0,2-1.1,2-3.4c0-1.1-0.2-1.9-0.5-2.5C104.6,862.6,104,862.3,103.3,862.3z"/>
			<path class="st4" d="M121,865.7c0,1.8-0.5,3.2-1.4,4.2c-1,1-2.3,1.5-4,1.5c-1.1,0-2-0.2-2.8-0.7s-1.4-1.1-1.9-2
				c-0.4-0.9-0.7-1.9-0.7-3.1c0-1.8,0.5-3.2,1.4-4.2s2.3-1.5,4-1.5c1.1,0,2,0.2,2.8,0.7s1.4,1.1,1.9,2
				C120.8,863.5,121,864.5,121,865.7z M113.4,865.7c0,1.1,0.2,1.9,0.5,2.5s0.9,0.8,1.8,0.8c0.8,0,1.4-0.3,1.7-0.8s0.5-1.4,0.5-2.5
				s-0.2-1.9-0.5-2.5c-0.4-0.5-0.9-0.8-1.8-0.8c-0.8,0-1.4,0.3-1.7,0.8S113.4,864.6,113.4,865.7z"/>
			<path class="st4" d="M129.7,859.9c0.4,0,0.8,0,1,0.1l-0.2,2.8c-0.2-0.1-0.5-0.1-0.9-0.1c-1,0-1.7,0.2-2.3,0.7
				c-0.5,0.5-0.8,1.2-0.8,2.1v5.6h-3v-11h2.3l0.4,1.9h0.1c0.3-0.6,0.8-1.1,1.4-1.5C128.4,860.1,129,859.9,129.7,859.9z"/>
			<path class="st4" d="M137.4,869c0.5,0,1.2-0.1,1.9-0.3v2.3c-0.8,0.3-1.7,0.5-2.8,0.5c-1.2,0-2.1-0.3-2.6-0.9
				c-0.5-0.6-0.8-1.5-0.8-2.8v-5.3h-1.4v-1.4l1.7-1l0.9-2.3h1.9v2.3h3.1v2.3h-3.1v5.3c0,0.4,0.1,0.7,0.4,1S137,869,137.4,869z"/>
			<path class="st4" d="M153.6,856.7l-5.4,14.5h-2.7l5.4-14.5H153.6z"/>
			<path class="st4" d="M166.4,871.2h-3.1v-11.9h-3.9v-2.6h10.9v2.6h-3.9V871.2z"/>
			<path class="st4" d="M178.5,859.9c0.4,0,0.8,0,1,0.1l-0.2,2.8c-0.2-0.1-0.5-0.1-0.9-0.1c-1,0-1.7,0.2-2.3,0.7
				c-0.5,0.5-0.8,1.2-0.8,2.1v5.6h-3v-11h2.3l0.4,1.9h0.1c0.3-0.6,0.8-1.1,1.4-1.5C177.2,860.1,177.8,859.9,178.5,859.9z"/>
			<path class="st4" d="M188.6,871.2l-0.6-1.5h-0.1c-0.5,0.6-1,1.1-1.6,1.3s-1.2,0.4-2.1,0.4c-1.1,0-1.9-0.3-2.5-0.9
				c-0.6-0.6-0.9-1.5-0.9-2.6c0-1.2,0.4-2,1.2-2.6s2.1-0.9,3.7-0.9l1.9-0.1v-0.5c0-1.1-0.6-1.7-1.7-1.7c-0.9,0-1.9,0.3-3.1,0.8l-1-2
				c1.3-0.7,2.7-1,4.2-1s2.6,0.3,3.4,1c0.8,0.6,1.2,1.6,1.2,3v7.4h-2L188.6,871.2L188.6,871.2z M187.7,866.1h-1.2
				c-0.9,0-1.5,0.2-2,0.5s-0.6,0.7-0.6,1.3c0,0.9,0.5,1.3,1.5,1.3c0.7,0,1.3-0.2,1.7-0.6c0.4-0.4,0.6-0.9,0.6-1.6V866.1z"/>
			<path class="st4" d="M204,871.2h-3v-6.5c0-0.8-0.1-1.4-0.4-1.8c-0.3-0.4-0.7-0.6-1.4-0.6c-0.8,0-1.5,0.3-1.8,0.8
				c-0.4,0.6-0.6,1.5-0.6,2.8v5.2h-3v-11h2.3l0.4,1.4h0.2c0.3-0.5,0.8-0.9,1.4-1.2c0.6-0.3,1.3-0.4,2-0.4c1.3,0,2.3,0.3,2.9,1
				c0.7,0.7,1,1.7,1,3L204,871.2L204,871.2z"/>
			<path class="st4" d="M214.9,867.9c0,1.1-0.4,2-1.2,2.6s-2,0.9-3.5,0.9c-0.8,0-1.5-0.1-2.1-0.2c-0.6-0.1-1.1-0.3-1.6-0.5v-2.5
				c0.6,0.3,1.2,0.5,1.9,0.7s1.3,0.3,1.9,0.3c1.1,0,1.6-0.3,1.6-1c0-0.2-0.1-0.4-0.2-0.6c-0.1-0.1-0.4-0.3-0.8-0.5s-0.8-0.4-1.4-0.7
				c-0.9-0.4-1.5-0.7-1.9-1s-0.7-0.7-0.9-1c-0.2-0.4-0.3-0.9-0.3-1.5c0-1,0.4-1.7,1.1-2.3c0.8-0.5,1.8-0.8,3.2-0.8
				c1.3,0,2.6,0.3,3.9,0.9l-0.9,2.2c-0.6-0.2-1.1-0.4-1.6-0.6c-0.5-0.2-1-0.2-1.5-0.2c-0.9,0-1.3,0.2-1.3,0.7c0,0.3,0.1,0.5,0.4,0.7
				c0.3,0.2,0.9,0.5,1.9,0.9c0.9,0.4,1.5,0.7,1.9,1s0.7,0.7,0.9,1.1C214.8,866.9,214.9,867.4,214.9,867.9z"/>
			<path class="st4" d="M223.4,862.4h-2.6v8.8h-3v-8.8h-1.7v-1.5l1.7-0.8v-0.8c0-1.3,0.3-2.2,0.9-2.8c0.6-0.6,1.6-0.9,3-0.9
				c1,0,2,0.2,2.8,0.5l-0.8,2.2c-0.6-0.2-1.2-0.3-1.7-0.3c-0.4,0-0.7,0.1-0.9,0.4s-0.3,0.6-0.3,1v0.7h2.6V862.4z"/>
			<path class="st4" d="M230.1,871.4c-1.8,0-3.2-0.5-4.2-1.5s-1.5-2.4-1.5-4.2c0-1.9,0.5-3.3,1.4-4.3s2.2-1.5,3.9-1.5
				c1.6,0,2.8,0.4,3.7,1.3c0.9,0.9,1.3,2.1,1.3,3.7v1.5h-7.1c0,0.9,0.3,1.5,0.8,2s1.1,0.7,2,0.7c0.7,0,1.3-0.1,1.9-0.2
				c0.6-0.1,1.2-0.4,1.9-0.7v2.3c-0.5,0.3-1.1,0.5-1.7,0.6C231.9,871.2,231,871.4,230.1,871.4z M229.7,862.1c-0.6,0-1.1,0.2-1.5,0.6
				s-0.6,1-0.6,1.7h4.2c0-0.7-0.2-1.3-0.6-1.7C230.8,862.3,230.3,862.1,229.7,862.1z"/>
			<path class="st4" d="M243.3,859.9c0.4,0,0.8,0,1,0.1l-0.2,2.8c-0.2-0.1-0.5-0.1-0.9-0.1c-1,0-1.7,0.2-2.3,0.7
				c-0.5,0.5-0.8,1.2-0.8,2.1v5.6h-3v-11h2.3l0.4,1.9h0.1c0.3-0.6,0.8-1.1,1.4-1.5S242.6,859.9,243.3,859.9z"/>
		</g>
		<g>
			<rect x="275.9" y="319.6" class="st6" width="168.5" height="177.7"/>
			
				<pattern  id="SVGID_19_" xlink:href="#SVGID_21_" patternTransform="matrix(0.846 0.8976 0.846 -0.8976 -36038.5781 -14900.1484)">
			</pattern>
			<rect x="454.3" y="319.6" class="st31" width="62.3" height="177.7"/>
			<g class="st3">
				<path class="st8" d="M332.6,408.7c0,2.7-0.8,4.7-2.3,6.2c-1.5,1.4-3.7,2.1-6.6,2.1h-4.6v-16.3h5.1c2.7,0,4.7,0.7,6.2,2.1
					S332.6,406.2,332.6,408.7z M329,408.8c0-3.5-1.5-5.3-4.6-5.3h-1.8v10.6h1.5C327.3,414.2,329,412.4,329,408.8z"/>
				<path class="st8" d="M341.4,417.3c-2,0-3.6-0.6-4.7-1.7s-1.7-2.7-1.7-4.7c0-2.1,0.5-3.7,1.6-4.8c1-1.1,2.5-1.7,4.3-1.7
					s3.1,0.5,4.1,1.5s1.5,2.4,1.5,4.2v1.7h-8c0,1,0.3,1.7,0.9,2.3c0.5,0.5,1.3,0.8,2.3,0.8c0.8,0,1.5-0.1,2.1-0.2s1.4-0.4,2.1-0.7
					v2.6c-0.6,0.3-1.2,0.5-1.9,0.7C343.2,417.2,342.3,417.3,341.4,417.3z M340.9,406.8c-0.7,0-1.3,0.2-1.7,0.7s-0.6,1.1-0.7,1.9h4.8
					c0-0.8-0.2-1.5-0.7-1.9C342.2,407,341.6,406.8,340.9,406.8z"/>
				<path class="st8" d="M356.1,407.1h-2.9v9.9h-3.4v-9.9h-1.9v-1.6l1.9-0.9v-0.9c0-1.4,0.3-2.5,1-3.1s1.8-1,3.4-1
					c1.2,0,2.2,0.2,3.1,0.5l-0.9,2.5c-0.7-0.2-1.3-0.3-1.9-0.3c-0.5,0-0.8,0.1-1,0.4s-0.3,0.7-0.3,1.1v0.8h2.9L356.1,407.1
					L356.1,407.1z"/>
				<path class="st8" d="M366,417l-0.7-1.7h-0.1c-0.6,0.7-1.2,1.2-1.8,1.5s-1.4,0.4-2.4,0.4c-1.2,0-2.1-0.3-2.8-1
					c-0.7-0.7-1-1.7-1-2.9c0-1.3,0.5-2.3,1.4-2.9s2.3-1,4.2-1l2.2-0.1v-0.5c0-1.3-0.6-1.9-1.9-1.9c-1,0-2.2,0.3-3.5,0.9l-1.1-2.3
					c1.4-0.8,3-1.1,4.8-1.1c1.7,0,3,0.4,3.8,1.1c0.9,0.7,1.3,1.8,1.3,3.3v8.3L366,417L366,417z M365,411.3h-1.3
					c-1,0-1.7,0.2-2.2,0.5s-0.7,0.8-0.7,1.5c0,1,0.6,1.4,1.7,1.4c0.8,0,1.4-0.2,1.9-0.7s0.7-1.1,0.7-1.8L365,411.3L365,411.3z"/>
				<path class="st8" d="M380.7,417l-0.5-1.6H380c-0.4,0.6-0.9,1-1.6,1.3s-1.4,0.5-2.3,0.5c-1.5,0-2.6-0.4-3.3-1.2
					c-0.7-0.8-1.1-1.9-1.1-3.4v-8.1h3.4v7.3c0,0.9,0.2,1.6,0.5,2c0.3,0.5,0.8,0.7,1.5,0.7c1,0,1.6-0.3,2.1-1
					c0.4-0.6,0.6-1.7,0.6-3.2v-5.9h3.4v12.5h-2.5V417L380.7,417z"/>
				<path class="st8" d="M390.3,417h-3.4v-17.4h3.4V417z"/>
				<path class="st8" d="M399.1,414.5c0.6,0,1.3-0.1,2.1-0.4v2.5c-0.8,0.4-1.9,0.6-3.1,0.6c-1.4,0-2.4-0.3-3-1s-0.9-1.7-0.9-3.1v-6
					h-1.6v-1.4l1.9-1.1l1-2.6h2.2v2.7h3.5v2.6h-3.6v6c0,0.5,0.1,0.8,0.4,1.1S398.7,414.5,399.1,414.5z"/>
			</g>
		</g>
		<g>
			<g class="st3">
				<path class="st5" d="M562.6,836.5c0-1.2-0.4-2.1-1.2-2.8s-1.9-1-3.3-1c-1.4,0-2.5,0.3-3.3,1s-1.2,1.6-1.2,2.9
					c0,0.8,0.1,1.6,0.4,2.6h-1.1c-0.3-0.8-0.4-1.7-0.4-2.8c0-1.6,0.5-2.8,1.5-3.7s2.4-1.3,4.1-1.3c1.1,0,2.1,0.2,2.9,0.6
					c0.8,0.4,1.5,1,1.9,1.8c0.5,0.8,0.7,1.7,0.7,2.8s-0.2,2.1-0.6,3l-1.1-0.5C562.4,838.1,562.6,837.3,562.6,836.5z"/>
				<path class="st5" d="M560.8,842.4h-5.3c-0.7,0-1.2,0.2-1.5,0.5s-0.5,0.8-0.5,1.4c0,0.9,0.2,1.5,0.7,1.9s1.2,0.6,2.3,0.6h4.3v1.2
					h-8.2v-1l1.1-0.2v-0.1c-0.4-0.3-0.7-0.6-0.9-1.1c-0.2-0.4-0.3-1-0.3-1.5c0-1,0.2-1.7,0.7-2.2s1.2-0.7,2.3-0.7h5.3L560.8,842.4
					L560.8,842.4z"/>
				<path class="st5" d="M554.9,855.8c-0.8,0-1.3-0.3-1.8-0.8c-0.4-0.6-0.6-1.4-0.6-2.4c0-1.1,0.2-1.9,0.5-2.5h1.1
					c-0.2,0.4-0.4,0.8-0.5,1.3c-0.1,0.4-0.2,0.9-0.2,1.3c0,0.6,0.1,1.1,0.3,1.5c0.2,0.3,0.5,0.5,0.9,0.5c0.3,0,0.6-0.1,0.8-0.4
					s0.5-0.8,0.8-1.6s0.5-1.3,0.7-1.6s0.5-0.6,0.7-0.7c0.3-0.2,0.6-0.2,1-0.2c0.7,0,1.2,0.3,1.6,0.8c0.4,0.5,0.6,1.3,0.6,2.2
					s-0.2,1.7-0.5,2.6l-1-0.4c0.3-0.8,0.5-1.6,0.5-2.2c0-0.6-0.1-1-0.3-1.3s-0.4-0.4-0.8-0.4c-0.2,0-0.4,0.1-0.6,0.2
					c-0.2,0.1-0.3,0.3-0.4,0.5s-0.3,0.7-0.6,1.4c-0.4,1-0.7,1.6-1.1,2C555.9,855.7,555.4,855.8,554.9,855.8z"/>
				<path class="st5" d="M553.6,860.5c0,0.2,0,0.4,0,0.6s0.1,0.4,0.1,0.5h-0.9c-0.1-0.1-0.1-0.3-0.2-0.6c0-0.3-0.1-0.5-0.1-0.7
					c0-1.6,0.8-2.4,2.5-2.4h4.8v-1.2h0.6l0.5,1.2l1.7,0.5v0.7h-1.9v2.4h-1v-2.4h-4.6c-0.5,0-0.9,0.1-1.1,0.3
					C553.7,859.7,553.6,860.1,553.6,860.5z"/>
				<path class="st5" d="M556.8,870.3c-1.3,0-2.4-0.3-3.1-1c-0.7-0.7-1.1-1.6-1.1-2.8c0-0.7,0.2-1.4,0.5-1.9c0.3-0.6,0.8-1,1.5-1.3
					s1.4-0.5,2.2-0.5c1.3,0,2.4,0.3,3.1,1s1.1,1.6,1.1,2.8c0,1.1-0.4,2-1.1,2.7S558.1,870.3,556.8,870.3z M556.8,864
					c-1,0-1.8,0.2-2.4,0.6c-0.5,0.4-0.8,1-0.8,1.8s0.3,1.4,0.8,1.8c0.5,0.4,1.3,0.6,2.4,0.6c1,0,1.8-0.2,2.4-0.6
					c0.6-0.4,0.8-1,0.8-1.9c0-0.8-0.3-1.4-0.8-1.8C558.6,864.2,557.8,864,556.8,864z"/>
				<path class="st5" d="M552.7,882.8h5.3c0.6,0,1.1-0.1,1.5-0.4c0.3-0.3,0.5-0.7,0.5-1.3c0-0.8-0.2-1.3-0.7-1.7s-1.1-0.6-2-0.6
					h-4.6v-1.2h5.3c0.6,0,1.1-0.1,1.5-0.4c0.3-0.3,0.5-0.7,0.5-1.3c0-0.8-0.2-1.3-0.7-1.7s-1.2-0.5-2.3-0.5h-4.3v-1.2h8.2v1
					l-1.1,0.2v0.1c0.4,0.2,0.7,0.6,0.9,1s0.3,0.9,0.3,1.4c0,1.3-0.5,2.1-1.4,2.5v0.1c0.4,0.2,0.8,0.6,1,1.1s0.4,1,0.4,1.6
					c0,0.9-0.2,1.6-0.7,2.1s-1.2,0.7-2.3,0.7h-5.3L552.7,882.8L552.7,882.8z"/>
				<path class="st5" d="M552.5,890c0-1.2,0.4-2.2,1.1-2.9c0.7-0.7,1.8-1,3.1-1s2.4,0.3,3.1,1c0.8,0.6,1.2,1.5,1.2,2.6
					c0,1-0.3,1.8-1,2.4c-0.7,0.6-1.6,0.9-2.7,0.9h-0.8v-5.6c-1,0-1.7,0.3-2.2,0.7c-0.5,0.5-0.7,1.1-0.7,1.9c0,0.9,0.2,1.7,0.6,2.6
					h-1.1c-0.2-0.4-0.3-0.8-0.4-1.2C552.6,891,552.5,890.6,552.5,890z M560,889.7c0-0.7-0.2-1.2-0.6-1.6c-0.4-0.4-1-0.6-1.8-0.7v4.3
					c0.8,0,1.4-0.2,1.8-0.5C559.7,890.8,560,890.3,560,889.7z"/>
				<path class="st5" d="M561,898.8c0,0.4,0,0.7-0.1,1l-1.1-0.2c0.1-0.3,0.1-0.6,0.1-0.9c0-0.7-0.3-1.2-0.8-1.7s-1.2-0.7-2-0.7h-4.4
					v-1.2h8.2v1l-1.5,0.1v0.1c0.5,0.3,0.9,0.7,1.2,1.1C560.8,897.9,561,898.3,561,898.8z"/>
				<path class="st5" d="M555.6,911.6c-1,0-1.7-0.3-2.2-1s-0.8-1.6-0.8-2.8c0-1.3,0.2-2.3,0.5-3h1.2c-0.2,0.4-0.3,0.9-0.4,1.5
					c-0.1,0.6-0.2,1-0.2,1.6c0,0.8,0.2,1.5,0.5,1.9s0.8,0.6,1.3,0.6c0.4,0,0.7-0.1,0.9-0.2c0.2-0.2,0.5-0.4,0.7-0.8
					c0.2-0.4,0.4-0.9,0.7-1.6c0.4-1,0.8-1.7,1.3-2.2c0.5-0.4,1.1-0.7,1.9-0.7c0.8,0,1.5,0.3,2,0.9c0.5,0.6,0.7,1.5,0.7,2.5
					c0,1.1-0.2,2.1-0.6,3l-1.1-0.4c0.4-0.9,0.6-1.8,0.6-2.6c0-0.7-0.1-1.2-0.4-1.6c-0.3-0.4-0.7-0.6-1.2-0.6c-0.4,0-0.7,0.1-0.9,0.2
					c-0.2,0.1-0.5,0.4-0.7,0.7s-0.4,0.8-0.7,1.5c-0.4,1.1-0.8,1.9-1.3,2.4S556.3,911.6,555.6,911.6z"/>
				<path class="st5" d="M556.8,920.7c-1.3,0-2.4-0.3-3.1-1c-0.7-0.7-1.1-1.6-1.1-2.8c0-0.7,0.2-1.4,0.5-1.9c0.3-0.6,0.8-1,1.5-1.3
					s1.4-0.5,2.2-0.5c1.3,0,2.4,0.3,3.1,1c0.7,0.7,1.1,1.6,1.1,2.8c0,1.1-0.4,2-1.1,2.7C559.1,920.4,558.1,920.7,556.8,920.7z
					 M556.8,914.5c-1,0-1.8,0.2-2.4,0.6c-0.5,0.4-0.8,1-0.8,1.8s0.3,1.4,0.8,1.8c0.5,0.4,1.3,0.6,2.4,0.6c1,0,1.8-0.2,2.4-0.6
					c0.6-0.4,0.8-1,0.8-1.9c0-0.8-0.3-1.4-0.8-1.8C558.6,914.7,557.8,914.5,556.8,914.5z"/>
				<path class="st5" d="M552.7,924.1v-1.2h11.6v1.2H552.7z"/>
				<path class="st5" d="M560.8,927.9h-5.3c-0.7,0-1.2,0.2-1.5,0.5s-0.5,0.8-0.5,1.4c0,0.9,0.2,1.5,0.7,1.9s1.2,0.6,2.3,0.6h4.3v1.2
					h-8.2v-1l1.1-0.2v-0.1c-0.4-0.3-0.7-0.6-0.9-1.1c-0.2-0.4-0.3-1-0.3-1.5c0-1,0.2-1.7,0.7-2.2s1.2-0.7,2.3-0.7h5.3L560.8,927.9
					L560.8,927.9z"/>
				<path class="st5" d="M553.6,938.7c0,0.2,0,0.4,0,0.6s0.1,0.4,0.1,0.5h-0.9c-0.1-0.1-0.1-0.3-0.2-0.6c0-0.3-0.1-0.5-0.1-0.7
					c0-1.6,0.8-2.4,2.5-2.4h4.8v-1.2h0.6l0.5,1.2l1.7,0.5v0.7h-1.9v2.4h-1v-2.4h-4.6c-0.5,0-0.9,0.1-1.1,0.3
					C553.7,938,553.6,938.3,553.6,938.7z"/>
				<path class="st5" d="M552.7,942.7v-1.2h8.2v1.2H552.7z M563,941.3c0.3,0,0.5,0.1,0.6,0.2c0.1,0.1,0.2,0.3,0.2,0.5
					s-0.1,0.4-0.2,0.5c-0.1,0.1-0.3,0.2-0.6,0.2s-0.5-0.1-0.6-0.2c-0.1-0.1-0.2-0.3-0.2-0.5s0.1-0.4,0.2-0.5
					C562.6,941.4,562.8,941.3,563,941.3z"/>
				<path class="st5" d="M556.8,952.3c-1.3,0-2.4-0.3-3.1-1c-0.7-0.7-1.1-1.6-1.1-2.8c0-0.7,0.2-1.4,0.5-1.9c0.3-0.6,0.8-1,1.5-1.3
					s1.4-0.5,2.2-0.5c1.3,0,2.4,0.3,3.1,1s1.1,1.6,1.1,2.8c0,1.1-0.4,2-1.1,2.7S558.1,952.3,556.8,952.3z M556.8,946.1
					c-1,0-1.8,0.2-2.4,0.6c-0.5,0.4-0.8,1-0.8,1.8s0.3,1.4,0.8,1.8c0.5,0.4,1.3,0.6,2.4,0.6c1,0,1.8-0.2,2.4-0.6
					c0.6-0.4,0.8-1,0.8-1.9c0-0.8-0.3-1.4-0.8-1.8C558.6,946.3,557.8,946.1,556.8,946.1z"/>
				<path class="st5" d="M552.7,960.1h5.3c0.7,0,1.2-0.2,1.5-0.5s0.5-0.8,0.5-1.4c0-0.9-0.2-1.5-0.7-1.9s-1.2-0.6-2.3-0.6h-4.3v-1.2
					h8.2v1l-1.1,0.2v0.1c0.4,0.3,0.7,0.6,0.9,1.1s0.3,1,0.3,1.5c0,1-0.2,1.7-0.7,2.2s-1.2,0.7-2.3,0.7h-5.3L552.7,960.1L552.7,960.1
					z"/>
				<path class="st5" d="M554.9,969.1c-0.8,0-1.3-0.3-1.8-0.8c-0.4-0.6-0.6-1.4-0.6-2.4c0-1.1,0.2-1.9,0.5-2.5h1.1
					c-0.2,0.4-0.4,0.8-0.5,1.3c-0.1,0.4-0.2,0.9-0.2,1.3c0,0.6,0.1,1.1,0.3,1.5c0.2,0.3,0.5,0.5,0.9,0.5c0.3,0,0.6-0.1,0.8-0.4
					s0.5-0.8,0.8-1.6s0.5-1.3,0.7-1.6s0.5-0.6,0.7-0.7c0.3-0.2,0.6-0.2,1-0.2c0.7,0,1.2,0.3,1.6,0.8c0.4,0.5,0.6,1.3,0.6,2.2
					s-0.2,1.7-0.5,2.6l-1-0.4c0.3-0.8,0.5-1.6,0.5-2.2c0-0.6-0.1-1-0.3-1.3s-0.4-0.4-0.8-0.4c-0.2,0-0.4,0.1-0.6,0.2
					c-0.2,0.1-0.3,0.3-0.4,0.5s-0.3,0.7-0.6,1.4c-0.4,1-0.7,1.6-1.1,2C555.9,968.9,555.4,969.1,554.9,969.1z"/>
			</g>
			<g>
				<polyline class="st32" points="530.1,811.4 541,811.4 541,989.1 530.1,989.1 				"/>
			</g>
			<g>
				<rect x="276" y="811.4" class="st33" width="240.6" height="177.7"/>
				
					<pattern  id="SVGID_20_" xlink:href="#SVGID_22_" patternTransform="matrix(0.846 0.8976 0.846 -0.8976 -36038.5781 -15053.8301)">
				</pattern>
				<rect x="276" y="811.4" class="st34" width="240.6" height="177.7"/>
				<g class="st3">
					<path class="st8" d="M360.8,904.3c0,1.5-0.5,2.6-1.6,3.5c-1.1,0.8-2.5,1.3-4.4,1.3c-1.7,0-3.3-0.3-4.6-1v-3.2
						c1.1,0.5,2,0.8,2.8,1s1.5,0.3,2.1,0.3c0.8,0,1.3-0.1,1.7-0.4s0.6-0.7,0.6-1.3c0-0.3-0.1-0.6-0.3-0.9s-0.4-0.5-0.8-0.7
						c-0.3-0.2-1.1-0.6-2.1-1.1s-1.7-0.9-2.2-1.3c-0.5-0.4-0.9-0.9-1.2-1.5c-0.3-0.6-0.4-1.2-0.4-2c0-1.4,0.5-2.6,1.5-3.4
						s2.3-1.2,4.1-1.2c0.8,0,1.7,0.1,2.4,0.3c0.8,0.2,1.6,0.5,2.4,0.8l-1.1,2.7c-0.9-0.4-1.6-0.6-2.2-0.7c-0.6-0.1-1.1-0.2-1.7-0.2
						c-0.7,0-1.2,0.2-1.5,0.5s-0.5,0.7-0.5,1.2c0,0.3,0.1,0.6,0.2,0.8s0.4,0.4,0.7,0.7c0.3,0.3,1,0.6,2.2,1.1
						c1.5,0.7,2.6,1.5,3.1,2.2S360.8,903.2,360.8,904.3z"/>
					<path class="st8" d="M374.8,902.6c0,2-0.5,3.6-1.6,4.8c-1.1,1.1-2.6,1.7-4.5,1.7c-1.2,0-2.3-0.3-3.2-0.8s-1.6-1.3-2.1-2.3
						s-0.7-2.1-0.7-3.4c0-2,0.5-3.6,1.6-4.8c1.1-1.1,2.6-1.7,4.5-1.7c1.2,0,2.3,0.3,3.2,0.8s1.6,1.3,2.1,2.2
						C374.6,900.1,374.8,901.3,374.8,902.6z M366.2,902.6c0,1.2,0.2,2.2,0.6,2.8s1.1,0.9,2,0.9s1.6-0.3,2-0.9
						c0.4-0.6,0.6-1.6,0.6-2.8s-0.2-2.2-0.6-2.8s-1.1-0.9-2-0.9s-1.6,0.3-2,0.9C366.4,900.4,366.2,901.3,366.2,902.6z"/>
					<path class="st8" d="M381,908.8h-3.4v-17.4h3.4V908.8z"/>
					<path class="st8" d="M393.4,908.8l-0.5-1.6h-0.2c-0.4,0.6-0.9,1-1.6,1.3s-1.4,0.5-2.3,0.5c-1.5,0-2.6-0.4-3.3-1.2
						c-0.7-0.8-1.1-1.9-1.1-3.4v-8.1h3.4v7.3c0,0.9,0.2,1.6,0.5,2c0.3,0.5,0.8,0.7,1.5,0.7c1,0,1.6-0.3,2.1-1
						c0.4-0.6,0.6-1.7,0.6-3.2v-5.9h3.4v12.5h-2.5V908.8L393.4,908.8z"/>
					<path class="st8" d="M404.9,906.3c0.6,0,1.3-0.1,2.1-0.4v2.5c-0.8,0.4-1.9,0.6-3.1,0.6c-1.4,0-2.4-0.3-3-1s-0.9-1.7-0.9-3.1v-6
						h-1.6v-1.4l1.9-1.1l1-2.6h2.2v2.7h3.5v2.6h-3.5v6c0,0.5,0.1,0.8,0.4,1.1C404.2,906.5,404.4,906.3,404.9,906.3z"/>
					<path class="st8" d="M409.4,893.1c0-1.1,0.6-1.7,1.9-1.7c1.2,0,1.9,0.6,1.9,1.7c0,0.5-0.2,0.9-0.5,1.2s-0.8,0.4-1.4,0.4
						C410,894.8,409.4,894.3,409.4,893.1z M412.9,908.8h-3.4v-12.5h3.4V908.8z"/>
					<path class="st8" d="M427.9,902.6c0,2-0.5,3.6-1.6,4.8c-1.1,1.1-2.6,1.7-4.5,1.7c-1.2,0-2.3-0.3-3.2-0.8s-1.6-1.3-2.1-2.3
						s-0.7-2.1-0.7-3.4c0-2,0.5-3.6,1.6-4.8c1.1-1.1,2.6-1.7,4.5-1.7c1.2,0,2.3,0.3,3.2,0.8s1.6,1.3,2.1,2.2
						C427.6,900.1,427.9,901.3,427.9,902.6z M419.2,902.6c0,1.2,0.2,2.2,0.6,2.8s1.1,0.9,2,0.9s1.6-0.3,2-0.9
						c0.4-0.6,0.6-1.6,0.6-2.8s-0.2-2.2-0.6-2.8s-1.1-0.9-2-0.9s-1.6,0.3-2,0.9C419.4,900.4,419.2,901.3,419.2,902.6z"/>
					<path class="st8" d="M442.2,908.8h-3.4v-7.3c0-0.9-0.2-1.6-0.5-2c-0.3-0.5-0.8-0.7-1.5-0.7c-1,0-1.6,0.3-2.1,1
						s-0.6,1.7-0.6,3.2v5.9h-3.4v-12.5h2.6l0.5,1.6h0.2c0.4-0.6,0.9-1.1,1.6-1.4c0.7-0.3,1.4-0.5,2.3-0.5c1.5,0,2.6,0.4,3.3,1.2
						c0.8,0.8,1.1,1.9,1.1,3.4L442.2,908.8L442.2,908.8L442.2,908.8z"/>
				</g>
			</g>
		</g>
	</g>
</g>
</svg>
