<?xml version="1.0" encoding="utf-8"?>
<!-- Generator: Adobe Illustrator 24.1.0, SVG Export Plug-In . SVG Version: 6.00 Build 0)  -->
<svg version="1.1" id="Layer_1" xmlns="http://www.w3.org/2000/svg" xmlns:xlink="http://www.w3.org/1999/xlink" x="0px" y="0px"
	 viewBox="0 0 399.141 339.495" enable-background="new 0 0 399.141 339.495" xml:space="preserve">
<g>
	<path fill="#5AA9DA" d="M274.597,58.265c-42.042,0-76.265,21.532-93.952,53.198c3.325,2.825,6.574,5.841,9.651,9.282l5.443,6.098
		l-5.566,5.988l-22.469,24.168c-0.091,1.703-0.136,3.416-0.136,5.141v0.577c0,24.449,8.178,46.877,22.363,64.559h-68.539
		c0-0.088,0-0.163,0-0.252c-24.701,0-40.47-19.646-40.47-44.049v-0.597c0-23.512,16.07-43.453,38.69-43.453
		c16.069,0,26.193,6.843,36.311,17.557l27.68-29.76c-14.884-16.67-33.632-26.787-63.691-26.787c-48.813,0-83.638,37.5-83.638,83.04
		v0.592c0,44.521,33.608,80.693,79.88,82.29v0.158h162.013l-0.028-0.1c59.849-2.029,102.919-47.951,102.919-103.775v-0.57
		C381.058,104.46,336.579,58.265,274.597,58.265z M334.863,162.716c0,34.426-24.687,62.542-60.266,62.542
		c-35.585,0-60.83-28.686-60.83-63.119v-0.57c0-34.435,24.675-62.562,60.26-62.562c35.585,0,60.836,28.696,60.836,63.132V162.716z"
		/>
	<polygon fill="#81AA43" points="227.758,6.635 234.393,10.262 227.758,13.889 224.153,20.502 220.504,13.889 213.891,10.24 
		220.504,6.635 224.131,0 	"/>
	<polygon fill="#D93963" points="13.867,257.302 20.502,260.929 13.867,264.556 10.262,271.169 6.613,264.556 0,260.907 
		6.613,257.302 10.24,250.667 	"/>
	<polygon fill="#FFE07F" points="392.506,259.884 399.141,263.511 392.506,267.138 388.901,273.751 385.252,267.138 
		378.639,263.489 385.252,259.884 388.879,253.249 	"/>
	<polygon fill="#FFE07F" points="175.468,27.391 192.011,36.434 175.468,45.478 166.479,61.966 157.381,45.478 140.893,36.379 
		157.381,27.391 166.424,10.847 	"/>
	<polygon fill="#81AA43" points="72.318,304.92 88.861,313.964 72.318,323.007 63.33,339.495 54.231,323.007 37.743,313.909 
		54.231,304.92 63.274,288.377 	"/>
</g>
</svg>
