<?xml version="1.0" encoding="utf-8"?>
<!-- Generator: Adobe Illustrator 24.1.3, SVG Export Plug-In . SVG Version: 6.00 Build 0)  -->
<svg version="1.1" id="Layer_1" xmlns="http://www.w3.org/2000/svg" xmlns:xlink="http://www.w3.org/1999/xlink" x="0px" y="0px"
	 viewBox="0 0 457.496 336.769" enable-background="new 0 0 457.496 336.769" xml:space="preserve">
<g>
	<g>
		<path fill="#62B5E5" d="M29.832,236.339V2.731h365.421v233.608H29.832z"/>
		<g>
			<g opacity="0.3">
				<polyline fill="none" stroke="#FFFFFF" stroke-linejoin="round" stroke-miterlimit="10" points="375.558,221.983 
					49.526,221.983 49.526,17.086 375.558,17.086 				"/>
				<g>
					
						<line fill="none" stroke="#FFFFFF" stroke-linejoin="round" stroke-miterlimit="10" x1="82.153" y1="17.086" x2="82.153" y2="221.983"/>
					
						<line fill="none" stroke="#FFFFFF" stroke-linejoin="round" stroke-miterlimit="10" x1="49.526" y1="17.086" x2="49.526" y2="221.983"/>
					
						<line fill="none" stroke="#FFFFFF" stroke-linejoin="round" stroke-miterlimit="10" x1="114.78" y1="17.086" x2="114.78" y2="221.983"/>
					
						<line fill="none" stroke="#FFFFFF" stroke-linejoin="round" stroke-miterlimit="10" x1="147.288" y1="17.086" x2="147.288" y2="221.983"/>
					
						<line fill="none" stroke="#FFFFFF" stroke-linejoin="round" stroke-miterlimit="10" x1="179.915" y1="17.086" x2="179.915" y2="221.983"/>
					
						<line fill="none" stroke="#FFFFFF" stroke-linejoin="round" stroke-miterlimit="10" x1="212.542" y1="17.086" x2="212.542" y2="221.983"/>
					
						<line fill="none" stroke="#FFFFFF" stroke-linejoin="round" stroke-miterlimit="10" x1="245.169" y1="17.086" x2="245.169" y2="221.983"/>
					
						<line fill="none" stroke="#FFFFFF" stroke-linejoin="round" stroke-miterlimit="10" x1="277.677" y1="17.086" x2="277.677" y2="221.983"/>
					
						<line fill="none" stroke="#FFFFFF" stroke-linejoin="round" stroke-miterlimit="10" x1="310.304" y1="17.086" x2="310.304" y2="221.983"/>
					
						<line fill="none" stroke="#FFFFFF" stroke-linejoin="round" stroke-miterlimit="10" x1="342.931" y1="17.086" x2="342.931" y2="221.983"/>
					
						<line fill="none" stroke="#FFFFFF" stroke-linejoin="round" stroke-miterlimit="10" x1="375.558" y1="17.086" x2="375.558" y2="221.983"/>
				</g>
				<g>
					
						<line fill="none" stroke="#FFFFFF" stroke-linejoin="round" stroke-miterlimit="10" x1="375.558" y1="46.866" x2="49.526" y2="46.866"/>
					
						<line fill="none" stroke="#FFFFFF" stroke-linejoin="round" stroke-miterlimit="10" x1="375.558" y1="81.866" x2="49.526" y2="81.866"/>
					
						<line fill="none" stroke="#FFFFFF" stroke-linejoin="round" stroke-miterlimit="10" x1="375.558" y1="116.984" x2="49.526" y2="116.984"/>
					
						<line fill="none" stroke="#FFFFFF" stroke-linejoin="round" stroke-miterlimit="10" x1="375.558" y1="151.984" x2="49.526" y2="151.984"/>
					
						<line fill="none" stroke="#FFFFFF" stroke-linejoin="round" stroke-miterlimit="10" x1="375.558" y1="186.983" x2="49.526" y2="186.983"/>
				</g>
			</g>
			<g>
				<path fill="#62B5E5" stroke="#FFFFFF" stroke-width="1.3159" stroke-linejoin="round" stroke-miterlimit="10" d="
					M210.762,164.204c0-11.864-9.61-21.474-21.474-21.474c-1.424,0-2.729,0.119-4.153,0.356c0.356-1.424,0.593-2.966,0.593-4.627
					c0-9.966-8.068-18.034-18.034-18.034c-4.39,0-8.424,1.542-11.627,4.271c-4.153-14-17.203-24.322-32.627-24.322
					c-18.746,0-33.932,15.186-33.932,33.932c0,1.424,0.119,2.847,0.237,4.271c-11.746,1.424-20.881,11.39-20.881,23.491
					c0,13.051,10.559,23.61,23.61,23.61h100.491C202.932,183.661,210.762,174.644,210.762,164.204z"/>
				<polygon fill="#EED380" points="277.677,179.034 287.287,176.187 284.44,185.797 287.287,195.288 277.677,192.441 
					268.186,195.288 271.033,185.797 268.186,176.187 				"/>
				<polygon fill="#005D85" points="311.372,169.306 316.117,167.882 314.812,172.628 316.117,177.492 311.372,176.068 
					306.626,177.492 308.05,172.628 306.626,167.882 				"/>
				<polygon fill="#BD4764" points="245.169,162.78 249.914,161.356 248.491,166.102 249.914,170.848 245.169,169.543 
					240.304,170.848 241.728,166.102 240.304,161.356 				"/>
				<polygon fill="#BD4764" points="340.558,66.442 345.304,65.018 343.88,69.883 345.304,74.628 340.558,73.205 335.812,74.628 
					337.117,69.883 335.812,65.018 				"/>
				<g>
					<path fill="#FFFFFF" d="M188.576,135.374c-0.83,0.831-1.661,1.661-2.492,2.492c-0.119,0.119-0.237,0.237-0.356,0.356
						c0,0.119,0,0.119,0,0.237c0,0.593,0,1.186-0.119,1.661c0.119-0.119,0.237-0.356,0.475-0.475
						c0.237-0.356,0.593-0.593,0.831-0.949c0.83-0.83,1.661-1.661,2.492-2.492c13.525-13.169,31.322-20.407,50.067-20.407
						c10.322,0,20.288,2.254,29.542,6.407l0.593-1.068c-9.373-4.271-19.576-6.525-30.135-6.525
						C220.372,114.611,202.22,122.086,188.576,135.374z"/>
					<path fill="#FFFFFF" d="M198.423,144.865c0.356,0.237,0.712,0.356,1.186,0.593c10.797-10.203,24.915-15.898,39.864-15.898
						c7.83,0,15.424,1.542,22.424,4.508l0.593-1.068c-7.237-3.085-14.949-4.627-23.017-4.627
						C224.169,128.255,209.576,134.187,198.423,144.865z"/>
					<path fill="#FFFFFF" d="M179.678,125.052c0.356,0.237,0.593,0.475,0.83,0.83c16.017-15.305,36.898-23.729,58.966-23.729
						c12.813,0,25.271,2.847,36.542,8.186l0.593-1.068c-11.508-5.458-24.085-8.424-37.135-8.424
						C217.05,100.967,195.932,109.509,179.678,125.052z"/>
					<path fill="#FFFFFF" d="M98.407,185.797c0,0.119,0.119,0.356,0.119,0.475c0.119,0.119,0.237,0.119,0.475,0.119h13.644h13.644
						h13.644h13.644h13.644h13.644c0.356,0,0.593-0.237,0.593-0.593l0,0H98.407z"/>
					<path fill="#FFFFFF" d="M159.627,106.543c-1.305,1.305-2.61,2.61-3.915,4.034l0,0c-1.186,1.305-2.492,2.729-3.559,4.153
						c0,0,0,0-0.119,0.119c-0.119,0.237-0.237,0.356-0.475,0.593c0.237,0.356,0.475,0.712,0.712,1.068
						c0.237-0.237,0.475-0.593,0.712-0.83c0.83-0.949,1.542-1.78,2.373-2.729c0.356-0.475,0.831-0.949,1.186-1.424
						c1.305-1.305,2.492-2.729,3.797-4.034c21.237-20.881,49.237-32.39,79.016-32.39c17.915,0,35.118,4.153,50.661,12.102
						l0.593-1.068c-15.78-7.949-33.22-12.22-51.372-12.22C209.457,73.798,181.102,85.425,159.627,106.543z"/>
					<path fill="#FFFFFF" d="M239.474,46.51c-37.373,0-72.61,14.474-99.186,40.695c-4.39,4.271-8.424,8.898-12.102,13.644
						c0.475,0.119,0.949,0.119,1.305,0.237c3.559-4.508,7.475-8.78,11.627-12.932c26.339-25.983,61.22-40.339,98.355-40.339
						c22.898,0,45.084,5.458,64.898,15.898l0.593-1.068C285.033,52.086,262.609,46.51,239.474,46.51z"/>
					<path fill="#FFFFFF" d="M169.237,116.153c-1.186,1.186-2.373,2.373-3.441,3.559c-0.356,0.356-0.593,0.712-0.949,1.068
						c0.593-0.119,1.186-0.119,1.78-0.237c0,0,0,0,0.119-0.119c1.068-1.186,2.254-2.373,3.441-3.441
						c18.627-18.39,43.305-28.474,69.406-28.474c15.305,0,30.254,3.559,43.661,10.203l0.593-1.068
						c-13.644-6.763-28.712-10.322-44.254-10.322C213.135,87.442,188.101,97.645,169.237,116.153z"/>
					<path fill="#FFFFFF" d="M150.017,96.933c-0.712,0.712-1.542,1.542-2.254,2.254c-0.237,0.237-0.475,0.475-0.712,0.712
						c-0.475,0.475-0.949,1.068-1.424,1.542c-0.237,0.237-0.475,0.593-0.83,0.83c-0.475,0.475-0.831,0.949-1.305,1.424
						c-0.237,0.356-0.593,0.593-0.831,0.949c-0.356,0.356-0.593,0.712-0.949,1.068c0.356,0.237,0.712,0.475,0.949,0.712
						c0.237-0.237,0.475-0.475,0.593-0.712c0.356-0.356,0.712-0.83,0.949-1.186c0.356-0.475,0.712-0.83,1.186-1.305
						c0.356-0.356,0.593-0.712,0.949-1.068c0.475-0.475,0.949-0.949,1.305-1.424c0.237-0.237,0.475-0.593,0.83-0.83
						c0.712-0.712,1.424-1.542,2.136-2.254c23.847-23.491,55.288-36.423,88.626-36.423c20.407,0,40.101,4.864,57.779,14l0.593-1.068
						c-17.796-9.254-37.729-14.119-58.372-14.119C205.779,60.154,173.983,73.205,150.017,96.933z"/>
				</g>
				<g>
					<g>
						<g>
							<path fill="#FFFFFF" d="M327.626,108.086l-0.475-0.119l-1.78-4.271l0.237-0.475c5.339-12.102,4.983-12.458,4.153-13.407
								l-7.119-7c-0.237-0.237-0.831-0.475-1.305-0.475c-0.356,0-1.661,0-12.22,4.746l-0.475,0.237l-4.39-1.78l-0.119-0.475
								c-4.983-12.22-5.458-12.22-6.644-12.22h-10.085c-1.186,0-1.78,0-6.407,12.339l-0.119,0.475l-4.271,1.78l-0.356-0.119
								c-7.119-2.966-11.271-4.508-12.339-4.508c-0.475,0-0.949,0.237-1.305,0.475l-7.119,7c-0.949,0.949-1.305,1.305,4.39,13.169
								l0.237,0.475l-1.78,4.271l-0.475,0.119c-12.576,4.864-12.576,5.339-12.576,6.644v9.847c0,1.305,0,1.78,12.576,6.288
								l0.475,0.119l1.78,4.152l-0.237,0.475c-5.339,12.102-4.983,12.458-4.152,13.407l7.119,7c0.356,0.237,0.831,0.475,1.305,0.475
								c0.356,0,1.661,0,12.22-4.746l0.475-0.237l4.39,1.78l0.119,0.475c4.983,12.22,5.458,12.22,6.763,12.22h10.085
								c1.305,0,1.78,0,6.407-12.339l0.119-0.475l4.39-1.78l0.356,0.119c7.119,2.966,11.271,4.508,12.339,4.508
								c0.475,0,0.949-0.237,1.305-0.475l7.119-7c0.949-0.949,1.305-1.305-4.39-13.169l-0.237-0.475l1.78-4.153l0.475-0.119
								c12.576-4.864,12.576-5.339,12.576-6.644v-9.847C340.202,113.187,340.202,112.594,327.626,108.086z M292.626,135.611
								c-9.017,0-16.373-7.237-16.373-16.017s7.356-16.017,16.373-16.017s16.373,7.237,16.373,16.017
								S301.643,135.611,292.626,135.611z"/>
						</g>
					</g>
				</g>
				<polygon fill="#EED380" points="310.304,54.34 320.27,51.493 317.422,61.459 320.27,71.425 310.304,68.459 300.338,71.425 
					303.304,61.459 300.338,51.493 				"/>
			</g>
		</g>
	</g>
	<g>
		<g>
			<g id="Bottom_x2F_Standing_x2F_Sweatpants_7_" transform="translate(0.000000, 203.685999)">
				<polygon id="Leg_16_" fill-rule="evenodd" clip-rule="evenodd" fill="#C79E84" points="31.361,-37.151 57.463,52.771 
					69.694,120.349 82.062,120.349 69.762,-37.151 				"/>
				<path id="Leg_15_" fill-rule="evenodd" clip-rule="evenodd" fill="#C79E84" d="M19.608-37.151
					c1.845,46.737,1.093,72.224,0.683,76.461c-0.41,4.236-2.733,32.662-18.517,82.474H14.62
					C35.529,74.021,42.772,45.596,45.164,39.31s9.498-31.773,19.816-76.461H19.608z"/>
				<path id="Pant_14_" fill-rule="evenodd" clip-rule="evenodd" fill="#252728" d="M30.746-37.151
					c6.765,30.953,18.517,80.356,35.258,148.207h18.039C85.341,41.428,79.738-4.421,69.899-37.151H30.746z"/>
				<path id="Pant_13_" fill-rule="evenodd" clip-rule="evenodd" fill="#252728" d="M19.54-37.151
					c1.777,46.737-2.87,92.792-17.151,148.959H21.59c20.909-47.011,35.941-92.86,46.191-148.959H19.54z"/>
				<g id="Accessories_x2F_Shoe_x2F_Flat-Simple_14_" transform="translate(87.603226, 207.536214)">
					<path id="Shoe_16_" fill-rule="evenodd" clip-rule="evenodd" fill="#252728" d="M-87.603-76.503l0.683-11.411
						c4.168,1.23,9.293,0.752,15.579-1.435c6.696,4.715,15.169,7.995,25.282,9.703l0,0c0.752,0.137,1.298,0.888,1.162,1.64
						c0,0.068,0,0.068,0,0.137l-0.957,3.416h-25.487h-14.896L-87.603-76.503z"/>
				</g>
				<g id="Accessories_x2F_Shoe_x2F_Flat-Simple_13_" transform="translate(185.635407, 207.536214)">
					<path id="Shoe_15_" fill-rule="evenodd" clip-rule="evenodd" fill="#252728" d="M-118.65-76.503l0.683-11.411
						c4.168,1.23,9.293,0.752,15.579-1.435c6.696,4.715,15.169,7.995,25.282,9.703l0,0c0.752,0.137,1.298,0.888,1.162,1.64
						c0,0.068,0,0.068,0,0.137l-0.957,3.416h-25.487h-14.896L-118.65-76.503z"/>
				</g>
			</g>
			<g id="humaaans_x2F_sitting-7_4_">
				
					<g id="A-Human_x2F_Sitting_6_" transform="translate(190.000000, 200.500000) scale(-1, 1) translate(-190.000000, -200.500000) translate(40.000000, 24.000000)">
					<g id="Head_x2F_Front_x2F_Chongo_4_" transform="translate(82.000000, 0.000000)">
						<g id="Head_8_" transform="translate(54.000000, 31.000000)">
							<path fill-rule="evenodd" clip-rule="evenodd" fill="#C79E84" d="M179.328,33.934l-21.341-2.329l6.44-25.212
								c-6.158,2.837-11.945,3.915-14.535,2.913c-6.485-2.417-4.448-26.85,1.757-35.891c6.205-9.041,33.16-10.328,32.417,8.846
								c-0.283,6.718-3.68,12.286-8.295,16.641L179.328,33.934z"/>
						</g>
						<path id="hair_5_" fill-rule="evenodd" clip-rule="evenodd" fill="#EED380" d="M204.212,1.919
							c-0.395,0.317-0.808,0.812-0.689,1.365c0.04,0.454,0.357,0.849,0.585,1.234c0.624,0.878,1.465,1.42,2.315,1.872
							c3.303,1.89,7.107,2.485,10.302,4.544c2.947,1.851,4.485,5.079,5.104,8.475c2.349-0.913,5.251-1.946,7.615-0.519
							c1.859,1.103,2.181,3.927,1.691,5.943c-0.401,2.026-1.564,3.609-3.221,4.777c-0.286,0.149-0.671,0.377-0.878,0.624
							c-0.197,0.158-0.128,0.346,0.021,0.632c0.278,0.75,0.823,1.529,1.298,2.121c1.337,1.765,3.639,2.107,5.644,1.876
							c1.096-0.15,2.113-0.399,3.13-0.648c1.027-0.338,2.142-0.666,3.09-1.103c2.171-0.933,3.63-2.753,4.425-5.096
							c0.904-2.511,1.205-5.267,1.308-7.865c0.123-2.776-0.119-5.502-0.727-8.178c-0.538-2.488-1.442-4.926-2.839-6.968
							c2.558-0.351,5.183-1.324,7.175-3.086c2.199-2.01,4.894-7.744,5.235-10.046s0.298-4.376-0.11-5.591
							c-0.755-2.152-2.279-3.848-4.247-4.783c-0.168-0.108-0.435-0.137-0.603-0.246c-0.257-0.118-0.238-0.296-0.307-0.483
							c-0.208-0.563-0.516-1.046-0.823-1.53c-0.694-1.066-1.782-1.814-2.889-2.385c-1.107-0.571-2.422-0.894-3.686-0.852
							c-1.077-0.028-2.449,0.183-3.426,0.886c-0.483,0.307-0.69,0.555-1.214,0.407c-0.435-0.138-0.85-0.453-1.374-0.6
							c-1.127-0.393-2.283-0.519-3.468-0.378c-1.185,0.141-2.31,0.558-3.198,1.271c-0.888,0.713-1.627,1.712-2.188,2.731
							c-1.319,2.195-2.619,4.213-3.256,6.753c-0.637,2.54-0.493,5.345,0.223,7.853c-1.759-0.372-5.967-0.561-8.999,0.008
							C212.201-4.498,206.084-0.396,204.212,1.919z"/>
					</g>
				</g>
			</g>
			<path id="Clothes_7_" fill-rule="evenodd" clip-rule="evenodd" fill="#BD4764" d="M76.645,169.596
				c-4.206,15.478-45.773,9.155-58.557,14.082c-5.888-56.211,4.729-106.733,6.971-107.129l20.247-3.57
				C48.971,87.214,78.644,162.092,76.645,169.596z"/>
		</g>
		<path id="Skin_3_" fill-rule="evenodd" clip-rule="evenodd" fill="#C79E84" d="M100.985,114.395l9.438-1.633
			c13.739-6.125,15.409-2.106,16.085-0.981c0.973,1.729-1.559,5.052-3.659,6.457c-3.947,2.561-6.658,2.974-12.856,2.643
			c-3.224-0.208-6.989,0.348-11.294,1.669L100.985,114.395z"/>
		<path fill-rule="evenodd" clip-rule="evenodd" fill="#BD4764" d="M105.963,112.665l2.461,9.687c0,0-47.696,16.621-67.787,8.746
			c-21.198-8.309-25.034-32.413-10.128-45.675s13.733-2.194,13.733-2.194S40.623,118.852,105.963,112.665z"/>
	</g>
	<g>
		<g id="humaaans_x2F_standing-3_3_">
			<g id="humaaan-12_3_" transform="translate(24.000000, 10.000000)">
				
					<g id="Head_x2F_Front_x2F_Pony_3_" transform="translate(192.496667, 70.916479) rotate(15.000000) translate(-192.496667, -70.916479) translate(121.550000, 16.686230)">
					<g id="Head_6_" transform="translate(56.316359, 32.329762)">
						<path fill-rule="evenodd" clip-rule="evenodd" fill="#BF9580" d="M197.148-44.089l-18.179,6.726l-5.017-22.945
							c-3.796,4.711-8.13,7.968-10.599,8.22c-6.237,0.571-14.413-19.964-13.09-29.795c1.396-9.858,22.619-21.761,29.782-5.976
							c2.508,5.438,1.991,11.416,0.008,16.779L197.148-44.089z"/>
					</g>
					<path id="Hair_5_" fill-rule="evenodd" clip-rule="evenodd" fill="#252728" d="M220.376-49.436
						c3.51,10.462,3.766,16.312,0.692,17.581c-4.535,1.872-9.625,0.438-11.624,1.263c-1.46,0.603-0.365,2.384,1.192,3.323
						c1.228,0.796,5.608,0.29,6.363,2.119s-2.91,1.667-2.484,2.701c0.722,1.749,1.53,5.231,4.451,4.025
						c2.998-1.238,11.07-5.873,10.659-11.008c-0.292-3.322-2.205-9.698-5.705-19.047c0.154-0.063,0.384-0.159,0.538-0.222
						c2.536-1.047,5.498,0.242,6.581,2.866c0.558,1.351,0.512,2.766,0.028,3.99c1.733,1.146,3.542,2.26,5.615,3.358
						c3.837-5.306,3.806-16.275-4.976-23.164c-3.189-3.801-7.325-4.885-11.474-4.475c-3.523-0.034-6.74,1.108-9.025,2.982
						c-4.953,2.603-8.908,6.098-9.865,7.702c2.101,5.088,3.647,6.218,11.729,2.695C215.452-52.428,217.744-51.234,220.376-49.436z"
						/>
				</g>
				<g id="Bottom_x2F_Standing_x2F_Sweatpants_6_" transform="translate(0.000000, 211.706546)">
					<polygon id="Leg_14_" fill-rule="evenodd" clip-rule="evenodd" fill="#A58076" points="354.338,-78.099 340.382,100.613 
						354.338,100.613 368.294,23.934 397.912,-78.099 					"/>
					<path id="Leg_13_" fill-rule="evenodd" clip-rule="evenodd" fill="#BF9580" d="M359.766-78.099
						C371.473-27.393,379.536,1.527,382.25,8.66s10.932,39.386,34.657,93.582h14.576c-17.91-56.521-20.546-88.775-21.011-93.582
						c-0.465-4.807-1.318-33.727,0.775-86.759H359.766z"/>
					<path id="Pant_12_" fill-rule="evenodd" clip-rule="evenodd" fill="#252728" d="M354.106-78.099
						c-11.165,37.138-17.522,89.162-16.049,168.168h20.469c18.995-76.99,32.331-133.046,40.007-168.168H354.106z"/>
					<path id="Pant_11_" fill-rule="evenodd" clip-rule="evenodd" fill="#252728" d="M356.587-78.099
						c11.63,63.654,28.687,115.678,52.412,169.021h21.787C414.581,27.19,409.309-25.067,411.325-78.099H356.587z"/>
					<g id="Accessories_x2F_Shoe_x2F_Flat-Simple_12_" transform="translate(87.603226, 207.536214)">
						<path id="Shoe_11_" fill-rule="evenodd" clip-rule="evenodd" fill="#252728" d="M344.265-92.474H327.44h-28.92l-1.085-3.877
							c0-0.078,0-0.078,0-0.155c-0.155-0.853,0.465-1.706,1.318-1.861l0,0c11.475-1.938,21.089-5.66,28.687-11.01
							c7.133,2.481,12.948,3.024,17.677,1.628l0.775,12.948L344.265-92.474z"/>
					</g>
					<g id="Accessories_x2F_Shoe_x2F_Flat-Simple_11_" transform="translate(185.635407, 207.536214)">
						<path id="Shoe_10_" fill-rule="evenodd" clip-rule="evenodd" fill="#252728" d="M170.226-92.474h-16.825h-28.92l-1.085-3.877
							c0-0.078,0-0.078,0-0.155c-0.155-0.853,0.465-1.706,1.318-1.861l0,0c11.475-1.938,21.089-5.66,28.687-11.01
							c7.133,2.481,12.948,3.024,17.677,1.628l0.775,12.948L170.226-92.474z"/>
					</g>
				</g>
				
					<g id="Body_x2F_Pointing-Forward_3_" transform="translate(167.500000, 199.713318) rotate(10.000000) translate(-167.500000, -199.713318) translate(33.953333, 102.203160)">
					<path id="Clothes_6_" fill-rule="evenodd" clip-rule="evenodd" fill="#809443" d="M296.174-93.789l22.046-4.007
						c2.441-0.444,51.328,76.013,47.638,106.866c-14.195,7.781-55.028,21.981-65.18,7.751
						C295.796,9.906,297.734-77.839,296.174-93.789z"/>
				</g>
			</g>
		</g>
		<path fill-rule="evenodd" clip-rule="evenodd" fill="#809443" d="M409.091,71.479c13.243-33.962-77.833,26.92-52.669,39.209
			C381.586,122.977,399.693,95.58,409.091,71.479z"/>
		<path fill-rule="evenodd" clip-rule="evenodd" fill="#BF9580" d="M372.053,55.836c0,0-0.417-9.38,2.293-9.588
			s9.588-0.834,8.754,1.251c-0.834,2.084-6.67,13.757-6.67,13.757L372.053,55.836z"/>
		<path fill-rule="evenodd" clip-rule="evenodd" fill="#809443" d="M371.705,52.119l7.502,5.456c0,0-9.932,52.135-13.683,53.499
			c-3.751,1.364-14.165-5.809-13.104-9.523C357.766,82.837,371.705,52.119,371.705,52.119z"/>
	</g>
</g>
</svg>
