<?xml version="1.0" encoding="utf-8"?>
<!-- Generator: Adobe Illustrator 24.1.0, SVG Export Plug-In . SVG Version: 6.00 Build 0)  -->
<svg version="1.1" id="Layer_1" xmlns="http://www.w3.org/2000/svg" xmlns:xlink="http://www.w3.org/1999/xlink" x="0px" y="0px"
	 viewBox="0 0 722.8 409.9" enable-background="new 0 0 722.8 409.9" xml:space="preserve">
<g>
	<g>
		<g>
			<path fill="#00466D" d="M690,177.9l-1.2-0.4l-4.6-10.9l0.5-1.1c13.8-31.5,12.9-32.5,10.6-34.8l-18.5-18c-0.7-0.7-2-1.3-3.2-1.3
				c-1.1,0-4.2,0-31.5,12.4l-1.1,0.5l-11.3-4.6l-0.5-1.1c-12.9-31.9-14.2-31.9-17.4-31.9h-26.1c-3.2,0-4.7,0-16.6,31.9l-0.5,1.2
				l-11.2,4.6l-1.1-0.5c-18.5-7.8-29.3-11.8-32.1-11.8c-1.2,0-2.5,0.5-3.2,1.2l-18.4,18.3c-2.4,2.3-3.4,3.2,11.3,34.1l0.5,1.2
				l-4.6,10.9l-1.1,0.5c-32.6,12.4-32.6,13.6-32.6,16.8v25.6c0,3.2,0,4.7,32.7,16.4l1.2,0.4l4.6,10.9l-0.5,1.1
				c-13.8,31.5-13,32.3-10.6,34.8l18.5,18c0.7,0.7,2.2,1.3,3.2,1.3c1.1,0,58.6,24.6,61.8,24.6h26.2c3.2,0,4.7,0,16.6-31.9l0.5-1.2
				l11.2-4.6l1.1,0.5C661.2,299,672,303,674.8,303c1.1,0,2.5-0.5,3.2-1.2l18.5-18.2c2.3-2.3,3.4-3.2-11.3-34l-0.6-1.2l4.6-10.8
				l1.1-0.5c32.6-12.6,32.6-13.9,32.6-17.2v-25.6C722.7,190.9,722.7,189.6,690,177.9z M599.5,249.1c-23.3,0-42.3-18.6-42.3-41.6
				c0-22.8,19-41.5,42.3-41.5s42.3,18.6,42.3,41.5C641.8,230.5,622.8,249.1,599.5,249.1z"/>
		</g>
	</g>
</g>
<g>
	<rect x="119.3" y="24.2" fill-rule="evenodd" clip-rule="evenodd" fill="#A1D3EF" width="270.7" height="270.7"/>
	<rect x="190.2" y="205.7" fill="#62B5E5" width="129" height="16.2"/>
	<rect x="216.3" y="231.4" fill="#62B5E5" width="76.9" height="16.1"/>
</g>
<path fill="#00466D" d="M192.3,236.1c-21.6,0-41.4,9.9-57.3,28.7c-3.8,4.5-6.9,9-9.4,13c-11.1-16.7-33.3-41.7-65.9-41.7
	C26.8,236.1,0,262.9,0,295.8s26.8,59.7,59.7,59.7c21.6,0,41.4-9.9,57.3-28.7c3.8-4.5,6.9-9,9.4-13c11.1,16.7,33.2,41.7,65.9,41.7
	c32.9,0,59.7-26.8,59.7-59.7S225.2,236.1,192.3,236.1z M59.7,338.6c-23.6,0-42.8-19.2-42.8-42.8c0-23.6,19.2-42.8,42.8-42.8
	c30.9,0,50.9,31.6,57,42.6l-0.1,0.4l0.2,0.4C111.3,307.4,93,338.6,59.7,338.6z M192.3,338.6c-30.9,0-50.9-31.6-57-42.6l0.1-0.4
	l-0.2-0.4c5.4-11,23.8-42.2,57-42.2c23.6,0,42.8,19.2,42.8,42.8C235.2,319.4,215.9,338.6,192.3,338.6z"/>
<polygon fill="#FFE07F" points="364.7,367.7 389.5,360.4 382.2,385.2 389.5,409.9 364.7,402.8 339.8,409.9 347.1,385.2 339.8,360.4 
	"/>
<polygon fill="#81AA43" points="314,328.5 325.4,334.7 314,340.9 307.9,352.3 301.6,340.9 290.3,334.7 301.6,328.5 307.8,317.2 "/>
<polygon fill="#81AA43" points="558.6,52.1 569.9,58.3 558.6,64.5 552.4,75.8 546.2,64.5 534.9,58.3 546.2,52.1 552.4,40.8 "/>
<rect x="141.8" y="45.9" fill="#FFFFFF" width="225.8" height="139.4"/>
<g id="Head_x2F_Front_x2F_Long_2_" transform="translate(82.000000, 0.000000)">
	<path id="Hair-Back_2_" fill-rule="evenodd" clip-rule="evenodd" fill="#252728" d="M213.5,30.3c3.6,13.2,8.3,43,3.5,47.6h-30.2
		c0-0.1,0-0.1,0-0.2c-11.2-1.2-19.9-10.7-19.9-22.3V33.7c0-12.4,10-22.4,22.4-22.4h2.1C202.6,11.3,211.9,19.5,213.5,30.3z"/>
	<g id="Head_5_" transform="translate(54.000000, 31.000000)">
		<path fill-rule="evenodd" clip-rule="evenodd" fill="#DDB49A" d="M124.6,20.4c-4.8-5.6-8-12.5-7.5-20.3
			c1.6-22.3,32.6-17.4,38.6-6.1c6,11.3,5.3,39.8-2.5,41.8c-3.1,0.8-9.7-1.2-16.5-5.2l4.2,30h-25L124.6,20.4z"/>
	</g>
	<path id="Hair-Front_2_" fill-rule="evenodd" clip-rule="evenodd" fill="#252728" d="M185.4,47.6c1.2,12.4,0.7,26.5-2.7,29.9h-30.2
		C150.8,48.2,167,59.5,167,32c1-1,2-2,2.9-2.8l0-0.8c5.2-10.7,11.9-16.1,19.9-16.1c12.1,0,15.9,5.6,19.1,10.4
		c-2.4,8.3-11.8,9.6-20.2,14.7c-1-0.8-2.2-1.3-3.6-1.3c-3.2,0-5.7,2.6-5.7,5.7s2.6,5.7,5.7,5.7C185.2,47.6,185.3,47.6,185.4,47.6z"
		/>
</g>
<path fill-rule="evenodd" clip-rule="evenodd" fill="#81AA43" d="M234.2,185.3c0,0,0-0.1,0-0.1h73.1c-7.6-34.2-22.4-63.9-22.4-110.4
	l-27.1-6.2l0,0H256c-32.3,29.2-55.6,68.1-69.8,116.8H234.2z"/>
<path id="Shade_8_" fill-rule="evenodd" clip-rule="evenodd" fill="#6B8E2F" d="M245.7,118.8c-1.9,29-0.8,51.1,3.3,66.4h-14.9
	C236.2,161.8,239.8,139.7,245.7,118.8z"/>
<g>
	<rect x="419.3" y="213.8" fill-rule="evenodd" clip-rule="evenodd" fill="#A1D3EF" width="184" height="184"/>
	<rect x="467.5" y="337.8" fill="#62B5E5" width="87.6" height="11"/>
	<rect x="485.2" y="355.2" fill="#62B5E5" width="52.2" height="10.9"/>
</g>
<rect x="435.3" y="230.7" fill="#FFFFFF" width="152" height="93.8"/>
<g id="Head_x2F_Front_x2F_Curly_1_" transform="translate(82.000000, 0.000000)">
	<g id="Head_4_" transform="translate(54.000000, 31.000000)">
		<path fill-rule="evenodd" clip-rule="evenodd" fill="#B28B67" d="M382.9,208.3c3.4-4,5.6-8.8,5.3-14.2
			c-1.1-15.6-22.9-12.2-27.1-4.3c-4.2,7.9-3.7,27.9,1.7,29.3c2.2,0.6,6.8-0.8,11.6-3.7l-3,21h17.5L382.9,208.3z"/>
	</g>
	<path id="hair_3_" fill-rule="evenodd" clip-rule="evenodd" fill="#252728" d="M407.3,209.9c0.4-1.3,1.3-2.4,2.7-2.7
		c0.3-0.1,0.6-0.1,1-0.1c0.1,0,0.2,0,0.2,0c0-0.1,0-0.2,0.1-0.3c0.1-0.2,0.1-0.4,0.2-0.7c0.3-0.7,0.7-1.4,1.3-1.9
		c1-1,2.5-1.7,3.9-1.9c0.8-0.1,1.6,0.1,2.4,0.3c0.4,0.1,0.8,0.3,1.1,0.5c0.1,0.1,0.5,0.3,0.6,0.3c0.1,0,0.4-0.3,0.5-0.4
		c1.2-1,2.8-1.3,4.3-1.3c1.7,0,3.4,0.1,4.9,1.2c0.3,0.2,0.6,0.5,0.9,0.7c0.1,0.1,0.3,0.3,0.4,0.4c0.1,0.1,0.2,0.2,0.2,0.3
		c0.1,0.2,0.1,0.2,0.3,0.1c0.7-0.4,1.5-0.6,2.3-0.5c0.5,0.1,1,0.2,1.4,0.4c0.2,0.1,0.5,0.3,0.7,0.3c0.2,0,0.5-0.2,0.7-0.3
		c0.9-0.3,1.9-0.4,2.8-0.3c1,0.2,1.9,0.5,2.8,1.1c0.4,0.3,0.7,0.5,1,0.9c0.1,0.2,0.2,0.3,0.4,0.5c0.1,0.1,0.2,0.2,0.3,0.3
		c0-0.1,1.1-0.5,1.2-0.5c0.5-0.1,1.1-0.1,1.6,0.1c1,0.3,1.9,1.1,2.6,1.8c0.4,0.4,0.7,0.8,1,1.3c0.1,0.2,0.3,0.4,0.4,0.7
		c0.1,0.1,0.1,0.3,0.2,0.4c0.1,0.1,0.2,0.1,0.3,0.2c0.8,0.3,1.6,0.8,2.2,1.4c0.6,0.7,1,1.5,1.1,2.4c0,0.1,0,0.3,0,0.3
		c0,0,0.2,0,0.3,0c0.2,0,0.4,0.1,0.6,0.1c0.4,0.1,0.8,0.2,1.1,0.4c1.4,0.7,2.4,2,2.9,3.5c0.5,1.5,0.5,3.3-0.1,4.8
		c-0.1,0.2-0.2,0.5-0.4,0.7c-0.1,0.1-0.1,0.1-0.1,0.3c0.1,0.2,0.2,0.3,0.2,0.5c0.2,0.5,0.4,1.1,0.5,1.6c0.2,0.9,0.3,1.9,0.1,2.8
		c-0.1,0.4-0.2,0.8-0.4,1.2c-0.1,0.2-0.2,0.4-0.4,0.5c-0.1,0.1-0.2,0.2-0.2,0.3c0,0-0.1,0.1-0.1,0.1c-0.1,0.1-0.1,0-0.1,0.2
		c0.1,0.3,0.2,0.5,0.3,0.8c0.1,0.3,0.2,0.5,0.3,0.8c0.2,0.5,0.3,1.1,0.4,1.6c0.2,1.1,0.1,2.2-0.4,3.2c-0.2,0.4-0.5,0.8-0.9,1.1
		c-0.2,0.1-0.4,0.3-0.6,0.4c-0.1,0.1-0.2,0.1-0.3,0.2c-0.1,0.1,0,0.3,0,0.5c0.2,1.1,0.2,2.2-0.1,3.3c-0.3,1-1,1.8-1.8,2.4
		c-1.7,1.1-3.9,1-5.6,0.2c-0.5-0.2-0.9-0.5-1.3-0.9c-1,1.3-2.9,1.3-4.3,0.9c-1.7-0.5-3.2-1.7-4-3.3c-1.1,1.3-3.4,0.9-4.2-0.6
		c-0.2-0.4-0.3-0.8-0.4-1.1c0-0.2,0-0.4,0-0.6c0-0.3-0.2-0.5-0.3-0.8c-0.2-0.5-0.3-1-0.3-1.6c0-0.3,0-0.6,0.1-0.8
		c0-0.3,0-0.5-0.1-0.7c0.4,0.1,1,0,1.4-0.2c0.4-0.1,0.8-0.5,1.1-0.8c0.7-0.7,1.1-1.6,1.4-2.6c0.6-2,0.4-4.5-1.7-5.6
		c-1-0.5-3.8-0.5-5-0.3c-1.2,0.3-2.6,2.9-2.6,3.2c0,0.2,0,0.3-0.2,0.4c-0.3,0.2-0.8-0.2-1.1-0.4c-0.4-0.3-0.7-0.8-0.9-1.2
		c-0.5-1-1-2-1.3-3.1c-0.2-0.8-0.4-1.7-0.7-2.5c-0.3-0.8-0.8-1.5-1.5-2c-0.8-0.5-1.7-0.8-2.6-1.1c-0.9-0.3-1.7-0.7-2.4-1.3
		c-0.2-0.1-0.3-0.3-0.4-0.5c-0.1-0.1-0.2-0.4-0.3-0.5c-0.2-0.1-0.6,0.2-0.8,0.3c-1,0.6-1.8,1.5-2.4,2.4c-0.6,0.9-1.2,1.8-1.6,2.9
		c-0.3,0.8-0.5,1.8-1.1,2.4c-0.3,0.3-2.1,0.5-2.7,0.2c-0.6-0.2-1.3-0.9-1.5-1.3c-0.2-0.4-0.3-0.9-0.2-1.3c0.1-0.3,0.2-0.5,0.2-0.8
		c0-0.2,0.1-0.4,0.2-0.6c0.2-0.4,0.5-0.6,1-0.8c-0.4-0.4-0.8-0.9-1-1.4c-0.3-0.6-0.5-1.2-0.5-1.8c-0.1-0.5,0-1,0.3-1.4
		c0.3-0.4,0.8-0.7,1.2-1c-0.7-0.5-1.2-1.1-1.7-1.8C407.4,213.2,406.8,211.5,407.3,209.9z"/>
</g>
<path fill-rule="evenodd" clip-rule="evenodd" fill="#D93963" d="M493.4,324.5c14.2-22.6,22.2-45.6,21.5-69.2l-6.3-1.1
	c-10.3,25.6-27.8,49.1-52.5,70.3H493.4z"/>
<path fill-rule="evenodd" clip-rule="evenodd" fill="#DDE3E9" d="M541.6,324.5c-2.6-30.4-6.9-53.8-18.9-73.1l-17,2.5
	c0,19.7-5.2,43.3-15.5,70.6H541.6z"/>
<path fill-rule="evenodd" clip-rule="evenodd" fill="#D93963" d="M562.5,324.5c-7.2-30.1-20.4-54.4-39.4-73.1l0,0c0,0,0,0,0,0H522
	c-1.3,0-3.3,0.1-6.1,0.2l-4.1,11.7c-0.3,11.3-2,31.7-5,61.1H562.5z"/>
<g>
	<rect x="419.3" y="82" fill-rule="evenodd" clip-rule="evenodd" fill="#A1D3EF" width="102" height="102"/>
	<rect x="446" y="151.6" fill="#62B5E5" width="48.6" height="6.1"/>
	<rect x="455.8" y="161.3" fill="#62B5E5" width="29" height="6.1"/>
</g>
<rect x="429.1" y="91.8" fill="#FFFFFF" width="82.5" height="50.9"/>
<g id="Head_x2F_Front_x2F_Short-Beard_1_" transform="translate(82.000000, 0.000000)">
	<g id="Head_3_" transform="translate(54.000000, 31.000000)">
		<path fill-rule="evenodd" clip-rule="evenodd" fill="#DDB49A" d="M338.8,63c2.2-2.6,3.7-5.7,3.4-9.3c-0.7-10.2-14.9-8-17.7-2.8
			c-2.8,5.1-2.4,18.2,1.1,19.1c1.4,0.4,4.5-0.5,7.5-2.4l-1.9,13.7h11.4L338.8,63z"/>
	</g>
	<path id="Hair_1_" fill-rule="evenodd" clip-rule="evenodd" fill="#FFE07F" d="M386.9,85.6c-0.4,6.2-1.6,9.3-3.5,9.3
		c-2.9,0-5.3-1.8-6.6-1.8c-0.9,0-0.7,1.2-0.1,2c0.5,0.7,3,1.4,3,2.5s-1.9,0.2-1.9,0.9c0,1.1-0.3,3.1,1.5,3.1c1.9,0,7.3-0.7,8.2-3.5
		c0.6-1.8,1-5.5,1.2-11.2c0.1,0,0.2,0,0.3,0c1.6,0,2.9,1.3,2.9,2.9c0,0.8-0.3,1.6-0.9,2.1c0.7,1,1.4,1.9,2.3,3
		c3.3-2,5.7-7.7,2.5-13.2c-0.9-2.7-2.9-4.1-5.2-4.8c-1.9-0.8-3.9-0.9-5.6-0.4c-3.3,0.3-6.2,1.3-7,1.9c0,3.1,0.6,4,5.7,3.9
		C384.9,82.9,385.8,84.1,386.9,85.6z"/>
</g>
<path fill-rule="evenodd" clip-rule="evenodd" fill="#025D91" d="M462.7,142.8c7.5-11.5,9.8-26.3,9.4-38.3l-4.1-0.7
	c-11.2,9.7-17.5,25.8-27.5,39H462.7z"/>
<path fill-rule="evenodd" clip-rule="evenodd" fill="#DDE3E9" d="M488.9,142.8c-1.9-16.6-5.2-29.8-12.2-40.9l-10.5,1.6
	c0,15.4-6.5,27.9-10.7,39.2H488.9z"/>
<path fill-rule="evenodd" clip-rule="evenodd" fill="#025D91" d="M503,142.8c-2.8-9.9-7.2-19-13.1-27.1c1.5-0.4,2.7-1.5,3.6-3.1
	c3.8-6.9,2.5-10.7-1.7-12c-4.1-1.3-7.8,1.3-14.3,1.3c-0.4,0-0.7,0-1,0.1l-3.3,0.2c-4.8,16.3-7.8,29.8-9.1,40.6H503z"/>
</svg>
