<?xml version="1.0" encoding="UTF-8"?>
<svg width="590px" height="352px" viewBox="0 0 590 352" version="1.1" xmlns="http://www.w3.org/2000/svg" xmlns:xlink="http://www.w3.org/1999/xlink">
    <!-- Generator: Sketch 63.1 (92452) - https://sketch.com -->
    <title>Fill 1</title>
    <desc>Created with Sketch.</desc>
    <g id="Page-1" stroke="none" stroke-width="1" fill="none" fill-rule="evenodd" fill-opacity="0.2">
        <path d="M304.011909,181.692365 C304,191.482852 305.305304,200.17534 310.478881,214.495071 C318.874395,237.793227 333.471274,256.24189 355.112532,268.868873 C374.952276,280.43217 396.351023,284.824164 419.262579,282.319355 C451.516599,278.79661 476.610758,263.56188 493.956099,236.546541 C508.091051,214.575133 513.102954,190.259041 510.215913,164.318826 C506.77456,133.19743 493.413335,107.383027 467.85725,88.6255523 C443.756233,70.920326 416.387086,65.7391455 387.100944,70.8974511 C358.600077,75.9299443 336.554633,91.0388615 320.941517,115.057579 C309.081553,133.254617 303.711657,153.418903 304.011909,181.692365 M251.786829,116.988402 C236.569861,133.152451 220.96183,149.748755 205.261784,166.447436 C200.868071,163.967659 198.268649,160.304869 195.013621,157.426963 C185.179526,148.702244 174.206747,142.150173 161.209639,139.124391 C121.735237,129.956042 90.9677466,151.693901 80.6160676,186.115023 C74.4050603,206.738121 75.4862357,227.429469 84.7682411,247.051556 C94.8668789,268.459537 111.993157,281.120049 135.836524,284.646337 C141.2424,285.442596 146.636775,285.579097 152.065656,285.579097 C186.260702,285.590472 220.478752,285.601848 254.685299,285.567722 C256.617613,285.567722 258.618937,285.954476 260.528247,285.101342 C260.965318,283.360948 259.654105,282.371313 258.825971,281.267926 C240.020421,256.458783 229.392697,228.43048 225.562576,197.8314 C224.481401,189.140806 223.998322,180.359211 224.308873,171.566241 C224.423891,168.438082 225.470561,165.992431 227.632912,163.728781 C241.80321,148.80462 255.904497,133.800833 270.017286,118.819796 C270.684394,118.125914 271.282491,117.363781 272.191139,116.305894 C264.484889,107.171671 256.47959,98.4697016 247.163079,90.7687434 C249.19891,84.6944278 252.90251,79.8827508 256.422081,75.0596988 C285.809347,34.8145141 325.582798,10.7447542 374.925801,2.79354332 C410.581584,-2.96226883 445.731285,0.0066382277 479.604278,13.2814066 C498.099278,20.5273598 514.903503,30.5715933 529.959445,43.4823577 C562.923792,71.7836634 582.223922,107.581175 588.135881,150.078634 C592.863148,184.056126 588.733978,217.169108 574.207122,248.723699 C559.070667,281.552304 535.744884,307.12358 504.701349,325.767406 C482.479745,339.1218 458.268318,346.993385 432.435128,350.110169 C420.162638,351.60031 407.890147,351.975689 395.548646,351.964314 C311.021436,351.907439 226.494227,352.157691 141.967018,351.816438 C108.611608,351.702686 78.1431666,341.976956 51.861404,321.103606 C25.9822067,300.548759 9.52303727,273.919596 3.2545206,241.84175 C-5.6019158,196.466385 3.2890262,154.84481 33.9645014,118.979048 C57.9458908,90.9621205 88.8974108,75.5829544 125.599863,71.6812873 C152.76727,68.7920061 179.451597,71.0670306 204.985739,81.5093934 C222.606597,88.7212213 237.478509,99.8005909 250.337594,113.63274 C251.004702,114.349373 251.660309,115.100131 251.786829,116.988402" id="Fill-1" fill="#62B5E5"></path>
    </g>
</svg>