<?xml version="1.0" encoding="utf-8"?>
<!-- Generator: Adobe Illustrator 24.1.0, SVG Export Plug-In . SVG Version: 6.00 Build 0)  -->
<svg version="1.1" id="Layer_1" xmlns="http://www.w3.org/2000/svg" xmlns:xlink="http://www.w3.org/1999/xlink" x="0px" y="0px"
	 viewBox="0 0 385.731 315.713" enable-background="new 0 0 385.731 315.713" xml:space="preserve">
<g>
	<g>
		<g>
			<g>
				<path fill="#D1D1D1" d="M146.403,46.447l-0.563-0.282l-2.252-5.63l0.281-0.563c7.037-16.045,6.756-16.608,5.348-17.734
					l-9.571-9.289c-0.281-0.282-1.126-0.563-1.689-0.563s-2.252,0-16.045,6.474l-0.563,0.282l-5.911-2.252l-0.282-0.563
					C108.683,0,107.838,0,106.149,0h-13.23c-1.689,0-2.252,0-8.445,16.327l-0.282,0.563l-5.63,2.252L78,18.86
					c-9.571-3.941-14.919-5.911-16.608-5.911c-0.563,0-1.407,0.282-1.689,0.563l-9.571,9.289c-1.126,1.126-1.689,1.689,5.911,17.453
					l0.281,0.563l-2.252,5.63l-0.563,0.282c-16.89,6.474-16.89,7.037-16.89,8.726v13.23c0,1.689,0,2.252,16.89,8.445l0.563,0.282
					l2.252,5.63l-0.281,0.563c-7.037,16.045-6.756,16.608-5.348,17.734l9.571,9.289c0.281,0.282,1.126,0.563,1.689,0.563
					c0.563,0,2.252,0,16.045-6.474l0.563-0.282l5.911,2.252l0.281,0.563c6.474,16.327,7.319,16.327,9.008,16.327h13.23
					c1.689,0,2.252,0,8.445-16.327l0.281-0.563l5.63-2.252l0.563,0.282c9.571,3.941,14.919,5.911,16.327,5.911
					c0.563,0,1.407-0.282,1.689-0.563l9.571-9.289c1.126-1.126,1.689-1.689-5.911-17.453v-0.845l2.252-5.63h0.563
					c16.608-6.474,16.608-7.037,16.608-8.726v-13.23C163.012,53.203,163.012,52.358,146.403,46.447z M99.956,83.041
					c-12.104,0-21.675-9.571-21.675-21.394c0-11.823,9.852-21.394,21.675-21.394c12.104,0,21.675,9.571,21.675,21.394
					S111.779,83.041,99.956,83.041z"/>
			</g>
		</g>
	</g>
	<g>
		<path fill="#D93963" d="M333.376,24.078c-10.22,0-19.142,5.458-24.084,13.601c-4.941-8.142-13.863-13.601-24.084-13.601
			c-15.565,0-28.182,12.618-28.182,28.183c0,34.781,52.266,48.679,52.266,48.679s52.267-15.936,52.267-48.679
			C361.56,36.696,348.941,24.078,333.376,24.078z"/>
		<g>
			<defs>
				<path id="SVGID_26_" d="M333.376,24.078c-10.22,0-19.142,5.458-24.084,13.601c-4.941-8.142-13.863-13.601-24.084-13.601
					c-15.565,0-28.182,12.618-28.182,28.183c0,34.781,52.266,48.679,52.266,48.679s52.267-15.936,52.267-48.679
					C361.56,36.696,348.941,24.078,333.376,24.078z"/>
			</defs>
			<clipPath id="SVGID_1_">
				<use xlink:href="#SVGID_26_"  overflow="visible"/>
			</clipPath>
			<path clip-path="url(#SVGID_1_)" fill="#FFFFFF" d="M357.64,67.314h-19.733c-0.577,0-1.091,0.367-1.278,0.913l-0.662,1.927
				l-5.18-14.322c-0.193-0.536-0.702-0.892-1.271-0.892c-0.001,0-0.003,0-0.005,0c-0.571,0.002-1.08,0.363-1.27,0.901l-7.816,22.102
				l-10.028-31.28c-0.176-0.55-0.683-0.928-1.261-0.939c-0.579-0.037-1.099,0.345-1.297,0.889l-7.686,21.08h-6.659l-2.745-8.29
				c-0.183-0.554-0.701-0.927-1.284-0.927c0,0-0.001,0-0.002,0c-0.584,0.001-1.101,0.377-1.283,0.932l-3.467,10.617l-2.398-5.556
				c-0.197-0.457-0.629-0.769-1.125-0.812c-0.498-0.036-0.975,0.191-1.247,0.607l-2.079,3.176h-17.214
				c0.46,0.922,0.959,1.823,1.492,2.704h16.453c0.456,0,0.881-0.23,1.131-0.612l1.103-1.685l2.818,6.53
				c0.223,0.516,0.739,0.836,1.304,0.815c0.562-0.026,1.048-0.396,1.223-0.931l3.301-10.107l1.759,5.314
				c0.183,0.554,0.701,0.927,1.284,0.927h8.582c0.568,0,1.075-0.355,1.271-0.889l6.657-18.26l10.047,31.34
				c0.177,0.553,0.688,0.931,1.268,0.939c0.007,0,0.014,0,0.021,0c0.572,0,1.083-0.361,1.274-0.901l7.894-22.32l5.199,14.375
				c0.194,0.539,0.694,0.881,1.282,0.892c0.573-0.005,1.081-0.371,1.268-0.913l1.594-4.642h17.171
				C356.613,69.136,357.145,68.234,357.64,67.314z"/>
		</g>
	</g>
	<g>
		<polygon id="Fill-10_9_" fill-rule="evenodd" clip-rule="evenodd" fill="#62B5E5" points="100.87,304.468 201.637,253.161 
			100.87,203.701 		"/>
		<polygon id="Fill-10_8_" fill-rule="evenodd" clip-rule="evenodd" fill="#FFE07F" points="0,304.468 100.87,253.161 0,203.701 		
			"/>
	</g>
	<g>
		<path fill="#357DA7" d="M87.904,115.201l83.805-62.717c7.8-5.837,18.514-5.837,26.314,0l83.805,62.717H87.904z"/>
		<rect x="87.904" y="115.186" fill="#025D91" width="193.924" height="23.441"/>
		<g>
			<g>
				
					<rect x="70.382" y="167.869" transform="matrix(-1.836970e-16 1 -1 -1.836970e-16 291.3189 65.898)" fill="#025D91" width="84.656" height="21.48"/>
				
					<rect x="104.717" y="128.056" transform="matrix(-1.836970e-16 1 -1 -1.836970e-16 256.984 31.5631)" fill="#025D91" width="15.986" height="32.436"/>
			</g>
			<g>
				
					<rect x="118.486" y="167.869" transform="matrix(-1.836970e-16 1 -1 -1.836970e-16 339.4227 17.7943)" fill="#025D91" width="84.656" height="21.48"/>
				
					<rect x="152.821" y="128.056" transform="matrix(-1.836970e-16 1 -1 -1.836970e-16 305.0878 -16.5406)" fill="#025D91" width="15.986" height="32.436"/>
			</g>
			<g>
				
					<rect x="166.59" y="167.869" transform="matrix(-1.836970e-16 1 -1 -1.836970e-16 387.5264 -30.3094)" fill="#025D91" width="84.656" height="21.48"/>
				
					<rect x="200.925" y="128.056" transform="matrix(-1.836970e-16 1 -1 -1.836970e-16 353.1915 -64.6443)" fill="#025D91" width="15.986" height="32.436"/>
			</g>
			<g>
				
					<rect x="214.694" y="167.869" transform="matrix(-1.836970e-16 1 -1 -1.836970e-16 435.6302 -78.4132)" fill="#025D91" width="84.656" height="21.48"/>
				
					<rect x="249.028" y="128.056" transform="matrix(-1.836970e-16 1 -1 -1.836970e-16 401.2952 -112.7481)" fill="#025D91" width="15.986" height="32.436"/>
			</g>
		</g>
		<rect x="95.907" y="214.894" fill="#025D91" width="177.919" height="22.944"/>
		<rect x="88.03" y="230.06" fill="#357DA7" width="193.672" height="22.944"/>
		<radialGradient id="SVGID_3_" cx="184.9755" cy="85.1177" r="13.3875" gradientUnits="userSpaceOnUse">
			<stop  offset="0" style="stop-color:#EAECED"/>
			<stop  offset="0.6364" style="stop-color:#E5E6E4"/>
			<stop  offset="1" style="stop-color:#E0E0DD"/>
		</radialGradient>
		<circle fill="url(#SVGID_3_)" cx="184.975" cy="85.118" r="13.387"/>
	</g>
	<polygon fill="#FFE07F" points="227.715,18.079 236.872,23.085 227.715,28.09 222.74,37.216 217.704,28.09 208.578,23.054 
		217.704,18.079 222.709,8.923 	"/>
	<polygon fill="#FFE07F" points="352.928,112.264 362.084,117.269 352.928,122.275 347.953,131.401 342.917,122.275 
		333.791,117.239 342.917,112.264 347.922,103.107 	"/>
	<g>
		<circle fill="#81AA43" cx="82.691" cy="221.771" r="32.613"/>
		<g>
			<path fill="#FBFBFB" d="M84.855,238.078v5.102H81.12v-5.057c-4.464-0.272-8.791-1.73-11.16-3.78l2.05-4.6
				c2.232,1.821,5.648,3.143,9.11,3.461v-9.111c-5.056-1.229-10.477-2.869-10.477-9.201c0-4.647,3.371-8.701,10.477-9.383v-5.148
				h3.735v5.057c3.371,0.183,6.787,1.184,9.247,2.779l-1.868,4.6c-2.414-1.413-4.965-2.186-7.379-2.46v9.202
				c5.057,1.229,10.568,2.824,10.568,9.156C95.423,233.34,92.007,237.349,84.855,238.078z M81.12,218.582v-8.107
				c-3.234,0.5-4.601,2.14-4.601,4.144C76.52,216.805,78.478,217.808,81.12,218.582z M89.592,229.105
				c0-2.233-2.004-3.28-4.737-4.054v8.062C88.18,232.611,89.592,231.063,89.592,229.105z"/>
		</g>
	</g>
	<g>
		<path fill="#D1D1D1" d="M365.128,152.252h-53.053c-11.379,0-20.603,9.224-20.603,20.603v14.073h0.011
			c0.233,10.305,8.653,18.588,19.014,18.588s20.449-8.283,20.728-18.588h14.754c0.279,10.305,10.368,18.588,20.728,18.588
			c10.361,0,18.781-8.283,19.014-18.588h0.011v-14.073C385.731,161.476,376.507,152.252,365.128,152.252z"/>
		<path fill="#252728" d="M314.472,170.937h5.698v4.884h-5.698v5.698h-4.884v-5.698h-5.698v-4.884h5.698v-5.698h4.884V170.937z"/>
		<circle fill="#62B5E5" cx="364.946" cy="167.419" r="2.339"/>
		<path fill="#025D91" d="M364.946,176.841c-1.292,0-2.339,1.047-2.339,2.339c0,1.292,1.047,2.339,2.339,2.339
			c1.292,0,2.339-1.047,2.339-2.339C367.285,177.889,366.238,176.841,364.946,176.841z"/>
		<path fill="#D93963" d="M370.827,170.961c-1.292,0-2.339,1.047-2.339,2.339c0,1.292,1.047,2.339,2.339,2.339
			c1.292,0,2.339-1.047,2.339-2.339C373.166,172.008,372.119,170.961,370.827,170.961z"/>
		<circle fill="#81AA43" cx="359.065" cy="173.3" r="2.339"/>
	</g>
	<g>
		<g>
			<path fill="#252728" d="M61.718,170.72H30.233c-1.988,0-3.6-1.612-3.6-3.6V98.598c0-1.988,1.612-3.6,3.6-3.6h31.485
				c1.988,0,3.6,1.612,3.6,3.6v68.522C65.318,169.108,63.706,170.72,61.718,170.72z"/>
			<rect x="30.003" y="103.987" fill="#D1D1D1" width="31.944" height="57.744"/>
		</g>
		<g>
			<circle fill-rule="evenodd" clip-rule="evenodd" fill="#025D91" cx="45.975" cy="127.799" r="12.227"/>
			<g id="humaaans_x2F_standing-8_3_">
				<g id="A-Human_x2F_Standing_3_" transform="translate(40.000000, 27.000000)">
					<g id="Head_x2F_Front_x2F_Long_3_" transform="translate(82.000000, 0.000000)">
						<path id="Hair-Back_3_" fill-rule="evenodd" clip-rule="evenodd" fill="#252728" d="M-71.204,95.313
							c0.525,1.936,1.21,6.286,0.511,6.969h-4.419c0-0.008-0.001-0.016-0.001-0.023c-1.638-0.181-2.912-1.57-2.912-3.256v-3.2
							c0-1.809,1.467-3.276,3.276-3.276h0.305C-72.8,92.526-71.44,93.736-71.204,95.313z"/>
						<g id="Head_8_" transform="translate(54.000000, 31.000000)">
							<path fill-rule="evenodd" clip-rule="evenodd" fill="#DDB49A" d="M-130.309,67.391c-0.702-0.824-1.177-1.834-1.098-2.966
								c0.229-3.261,4.768-2.544,5.651-0.898c0.883,1.646,0.778,5.821-0.363,6.115c-0.455,0.117-1.425-0.17-2.411-0.765l0.619,4.382
								h-3.657L-130.309,67.391z"/>
						</g>
						<path id="Hair-Front_3_" fill-rule="evenodd" clip-rule="evenodd" fill="#252728" d="M-75.32,97.84
							c0.169,1.81,0.101,3.877-0.401,4.368h-4.419c-0.246-4.278,2.133-2.621,2.133-6.649c0.148-0.145,0.289-0.288,0.427-0.412
							l-0.005-0.118c0.765-1.567,1.736-2.35,2.912-2.35c1.765,0,2.322,0.821,2.796,1.518c-0.355,1.217-1.731,1.397-2.954,2.156
							c-0.144-0.117-0.328-0.187-0.528-0.187c-0.463,0-0.838,0.375-0.838,0.838s0.375,0.838,0.838,0.838
							C-75.345,97.841-75.333,97.841-75.32,97.84z"/>
					</g>
					<path fill-rule="evenodd" clip-rule="evenodd" fill="#62B5E5" d="M5.976,113.026c1.734,0,3.382-0.366,4.877-1.017
						c-0.856-2.965-1.625-6.141-1.625-10.192l-3.958-0.906l-0.002-0.002H5.008c-2.808,2.538-5.137,5.594-7.015,9.14
						C0.136,111.898,2.921,113.026,5.976,113.026z"/>
					<path fill-rule="evenodd" clip-rule="evenodd" fill="#4A88AC" d="M2.538,112.527c0.278,0.081,0.56,0.156,0.846,0.217
						c-0.025-1.344,0.014-2.836,0.121-4.483C3.114,109.642,2.801,111.068,2.538,112.527z"/>
				</g>
			</g>
		</g>
		<g>
			<g>
				<circle fill="#81AA43" cx="39.792" cy="149.549" r="4.422"/>
				<g>
					<g>
						<g>
							<path fill="#FBFBFB" d="M42.18,151.016l-0.551-0.367l-0.49-0.327c-0.095-0.063-0.222-0.042-0.291,0.047l-0.303,0.39
								c-0.065,0.085-0.182,0.109-0.276,0.057c-0.206-0.114-0.449-0.222-0.986-0.759c-0.537-0.537-0.645-0.78-0.759-0.986
								c-0.052-0.093-0.027-0.21,0.057-0.276l0.39-0.303c0.09-0.07,0.11-0.197,0.047-0.291l-0.316-0.475l-0.377-0.566
								c-0.064-0.096-0.193-0.125-0.292-0.066l-0.435,0.261c-0.118,0.069-0.204,0.181-0.241,0.313
								c-0.119,0.434-0.143,1.391,1.391,2.926c1.534,1.534,2.492,1.51,2.925,1.391c0.131-0.037,0.243-0.124,0.313-0.242l0.261-0.435
								C42.306,151.209,42.277,151.08,42.18,151.016z"/>
						</g>
					</g>
				</g>
			</g>
			<g>
				<circle fill="#D93963" cx="52.159" cy="149.549" r="4.422"/>
				<path fill="#FBFBFB" d="M52.517,149.549l1.278-1.279c0.099-0.099,0.099-0.259,0-0.357c-0.099-0.099-0.259-0.099-0.357,0
					l-1.278,1.279l-1.28-1.279c-0.099-0.099-0.259-0.099-0.357,0c-0.099,0.099-0.099,0.259,0,0.357l1.28,1.279l-1.28,1.279
					c-0.099,0.099-0.099,0.259,0,0.357c0.049,0.049,0.114,0.074,0.18,0.074c0.064,0,0.128-0.025,0.178-0.074l1.28-1.279l1.278,1.279
					c0.049,0.049,0.114,0.074,0.18,0.074c0.064,0,0.128-0.025,0.178-0.074c0.099-0.099,0.099-0.259,0-0.357L52.517,149.549z"/>
			</g>
		</g>
	</g>
	<g>
		<g>
			<path fill="#D1D1D1" d="M362.976,241.032c0.596,0,1.082,0.485,1.082,1.081v70.001c0,0.596-0.485,1.081-1.082,1.081H260.564
				c-0.596,0-1.082-0.485-1.082-1.081v-70.001c0-0.596,0.485-1.081,1.082-1.081H362.976 M362.976,238.513H260.564
				c-1.988,0-3.6,1.612-3.6,3.6v70.001c0,1.988,1.612,3.6,3.6,3.6h102.413c1.988,0,3.6-1.612,3.6-3.6v-70.001
				C366.576,240.125,364.965,238.513,362.976,238.513L362.976,238.513z"/>
		</g>
		<path fill="#D1D1D1" d="M366.576,252.999H256.964v-10.886c0-1.988,1.612-3.6,3.6-3.6h102.413c1.988,0,3.6,1.612,3.6,3.6V252.999z"
			/>
		<g>
			<path fill="#025D91" d="M296.892,271.159V276l-15.025,6.691l15.025,6.734v4.882l-20.076-9.301v-4.546L296.892,271.159z"/>
			<path fill="#025D91" d="M323.197,263.963l-19.023,38.973h-4.419l19.023-38.973H323.197z"/>
			<path fill="#025D91" d="M326.648,294.307v-4.84l15.025-6.692l-15.025-6.734v-4.882l20.076,9.301v4.546L326.648,294.307z"/>
		</g>
		<circle fill="#81AA43" cx="264.978" cy="246.16" r="2.908"/>
		<circle fill="#FFE07F" cx="273.662" cy="246.16" r="2.908"/>
		<circle fill="#D93963" cx="282.345" cy="246.16" r="2.908"/>
	</g>
</g>
</svg>
