<?xml version="1.0" encoding="utf-8"?>
<!-- Generator: Adobe Illustrator 24.1.3, SVG Export Plug-In . SVG Version: 6.00 Build 0)  -->
<svg version="1.1" id="Layer_1" xmlns="http://www.w3.org/2000/svg" xmlns:xlink="http://www.w3.org/1999/xlink" x="0px" y="0px"
	 viewBox="0 0 510.956 346.723" enable-background="new 0 0 510.956 346.723" xml:space="preserve">
<g>
	<g>
		<circle fill-rule="evenodd" clip-rule="evenodd" fill="#00466D" cx="357.892" cy="193.66" r="153.036"/>
		<g id="Head_x2F_Front_x2F_Short-Beard_1_" transform="translate(82.000000, 0.000000)">
			<g id="Head_1_" transform="translate(54.000000, 31.000000)">
				<path fill-rule="evenodd" clip-rule="evenodd" fill="#9C8067" d="M253.943,102.418l-42.532,1.651l5.224-51.239
					c-11.207,7.362-22.353,11.143-27.699,9.984c-13.405-2.906-16.51-51.412-6.984-70.952s61.995-29.933,66.128,7.888
					c1.435,13.127-3.636,25.088-11.43,34.99L253.943,102.418z"/>
			</g>
			<path id="Hair_1_" fill-rule="evenodd" clip-rule="evenodd" fill="#252728" d="M254.896,23.222
				c-19.073,1.043-21.44-2.292-21.888-13.824c2.997-2.326,13.729-6.462,25.869-7.98c6.144-2.02,13.519-1.971,20.724,0.72
				c8.85,2.143,16.469,7.205,20.132,17.091c12.638,19.981,3.777,42.952-8.056,50.692c-3.373-3.696-5.634-8.633-8.283-12.08
				c1.941-2.049,3.087-4.848,2.968-7.891c-0.233-5.994-5.281-10.664-11.274-10.431c-0.438,0.017-0.869,0.06-1.291,0.127
				c0.168,21.095-0.38,35.659-2.339,42.445c-3.034,10.516-23.34,13.222-30.336,13.494c-6.912,0.269-5.938-7.269-6.093-11.251
				c-0.094-2.408,7.227,0.454,7.069-3.606c-0.158-4.06-9.366-6.23-11.339-8.776c-2.391-3.086-3.321-7.338,0.1-7.47
				c4.693-0.182,14.03,6.256,24.725,5.84c7.13-0.277,11.076-12.021,11.839-35.234C263.452,29.642,259.681,25.517,254.896,23.222z"/>
		</g>
		<path fill-rule="evenodd" clip-rule="evenodd" fill="#9C8067" d="M188.685,214.115c-5.198-22.381-6.293-29.329-35.839-28.837
			s-52.979-3.108-25.895,17.575s48.849,4.913,56.728,24.61C191.558,247.16,188.685,214.115,188.685,214.115z"/>
		<path fill-rule="evenodd" clip-rule="evenodd" fill="#809443" d="M448.988,316.616c-1.786-13.829-7.081-40.242-13.056-67.093
			c-7.346-33.019-15.718-66.701-19.848-78.459c-9.579-27.266-24.404-49.457-24.404-49.457l-48.145-1.638
			c-3.544,31.6-51.93,132.121-43.783,215.281c9.498,3.889,19.529,6.878,30.013,8.838
			C373.311,352.231,415.988,341.053,448.988,316.616z"/>
		<path fill-rule="evenodd" clip-rule="evenodd" fill="#809443" d="M342.856,125.102c0,0-83.397,71.933-97.746,77.194
			c-14.349,5.261-57.058-20.326-57.058-20.326l-20.003,52.54c0,0,72.719,50.441,132.451,30.96S342.856,125.102,342.856,125.102z"/>
	</g>
	<path fill="#629FCF" d="M179.101,0c-31.599,0-57.304,16.176-70.596,39.958c2.508,2.132,4.932,4.389,7.273,6.98l4.096,4.598
		l-4.18,4.514L98.809,74.19c-0.084,1.296-0.084,2.55-0.084,3.845v0.418c0,18.349,6.144,35.235,16.802,48.527H63.95
		c0-0.084,0-0.125,0-0.209c-18.558,0-30.428-14.754-30.428-33.103v-0.46c0-17.68,12.079-32.644,29.091-32.644
		c12.079,0,19.686,5.141,27.294,13.208l20.815-22.362C99.519,38.871,85.434,31.264,62.863,31.264C26.165,31.264,0,59.436,0,93.668
		v0.46c0,33.438,25.246,60.648,60.021,61.818v0.125h121.755v-0.084c44.974-1.505,77.325-36.029,77.325-77.994v-0.418
		C259.101,34.734,225.663,0,179.101,0z M224.368,78.495c0,25.872-18.558,46.98-45.266,46.98c-26.75,0-45.726-21.567-45.726-47.44
		v-0.418c0-25.872,18.558-47.022,45.266-47.022c26.75,0,45.726,21.567,45.726,47.44V78.495z"/>
</g>
<polygon fill="#809443" points="85.87,187.573 93.47,185.273 91.27,192.973 93.47,200.573 85.87,198.373 78.27,200.573 
	80.47,192.973 78.27,185.273 "/>
<polygon fill="#FFCA7F" points="51.614,213.158 64.814,209.258 61.014,222.458 64.814,235.658 51.614,231.758 38.414,235.658 
	42.314,222.458 38.414,209.258 "/>
</svg>
