<?xml version="1.0" encoding="utf-8"?>
<!-- Generator: Adobe Illustrator 24.1.0, SVG Export Plug-In . SVG Version: 6.00 Build 0)  -->
<svg version="1.1" id="Layer_1" xmlns="http://www.w3.org/2000/svg" xmlns:xlink="http://www.w3.org/1999/xlink" x="0px" y="0px"
	 viewBox="0 0 427.18 290.278" enable-background="new 0 0 427.18 290.278" xml:space="preserve">
<circle fill="#D93963" cx="267.264" cy="74.785" r="74.785"/>
<circle fill="#FFE07F" cx="267.264" cy="74.785" r="51.228"/>
<circle fill="#81AA43" cx="267.264" cy="74.785" r="30.797"/>
<circle fill="#FBFBFB" cx="267.264" cy="74.785" r="14.716"/>
<polygon fill="#81AA43" points="69.003,27.413 75.638,31.04 69.003,34.667 65.398,41.28 61.749,34.667 55.136,31.018 61.749,27.413 
	65.376,20.778 "/>
<polygon fill="#81AA43" points="315.58,276.411 322.215,280.038 315.58,283.665 311.975,290.278 308.326,283.665 301.713,280.016 
	308.326,276.411 311.953,269.776 "/>
<polygon fill="#FFE07F" points="34.575,73.271 51.118,82.314 34.575,91.358 25.587,107.846 16.488,91.358 0,82.259 16.488,73.271 
	25.532,56.728 "/>
<path fill="#62B5E5" d="M427.18,190.097c0-34.771-28.169-62.94-62.94-62.94c-4.181,0-8.143,0.44-12.104,1.1
	c1.1-4.181,1.761-8.803,1.761-13.424c0-29.049-23.547-52.596-52.596-52.596c-12.984,0-24.648,4.621-33.891,12.324
	c-12.104-41.153-50.176-71.082-95.29-71.082c-54.797,0-99.471,44.454-99.471,99.471c0,4.181,0.22,8.363,0.88,12.544
	c-34.111,3.961-60.739,33.01-60.739,68.441c0,38.072,30.81,69.102,69.102,69.102h293.792
	C404.073,246.875,427.18,220.246,427.18,190.097z"/>
<g>
	<path fill="#FFFFFF" d="M75.284,232.263c-3.402,0-6.768-1.521-9.008-4.421c-3.839-4.97-2.922-12.112,2.049-15.951l26.189-20.229
		c11.229-8.673,25.687-12.261,39.668-9.839l71.199,12.326c6.188,1.071,10.336,6.957,9.265,13.145s-6.958,10.336-13.145,9.265
		l-71.199-12.326c-7.712-1.335-15.69,0.643-21.886,5.428L82.227,229.89C80.157,231.489,77.711,232.263,75.284,232.263z"/>
</g>
<g>
	<path fill="#FFFFFF" d="M203.431,216.727c-2.191,0-4.405-0.632-6.357-1.951l-68.039-45.982c-7.072-4.779-15.637-6.884-24.116-5.922
		l-31.536,3.569c-6.24,0.701-11.873-3.781-12.579-10.021c-0.706-6.241,3.78-11.872,10.021-12.579l31.535-3.569
		c13.855-1.567,27.853,1.868,39.409,9.678l68.039,45.982c5.204,3.517,6.571,10.586,3.054,15.79
		C210.665,214.973,207.08,216.727,203.431,216.727z"/>
</g>
<path fill="#FFFFFF" d="M173.343,77.773l17.059,12.365l6.982-23.408c0.702-2.353-1.951-4.275-3.969-2.876L173.343,77.773z"/>
<path fill="#025D91" d="M395.806,204.574c-31.503-50.425-105.467,7.056-90.27,35.082c0,0,42.784-41.452,52.378,6.049
	c0.514,2.547,1.061,4.98,1.63,7.332h16.14c11.294-2.451,21.745-8.15,30.245-16.013C404.25,225.097,401.437,213.587,395.806,204.574z
	"/>
<path fill="#FFFFFF" d="M295.595,198.156c-40.954-11.222-68.935-25.615-92.407-32.281l-39.135-1.725
	c-16.812,31.779,3.826,66.51,36.265,88.887h121.249C331.942,232.219,318.481,204.427,295.595,198.156z"/>
<path fill="#025D91" d="M197.336,86.601c20.738-13.021,88.614,26.778,52.811,89.73c-36.783,64.675-122.026-4.028-85.058-31.834
	c0,0-4.194,19.957,20.491,24.44c24.224,4.399,23.134-28.332,12.355-47.737C186.582,100.764,197.336,86.601,197.336,86.601z"/>
<path fill="#FFFFFF" d="M203.899,96.717c0,0,19.601,21.185-3.163,67.798l-40.27,9.684l18.859-47.627L203.899,96.717z"/>
<path fill="#025D91" d="M158.277,152.116c-5.049,11.205-0.059,24.381,11.146,29.43c11.205,5.049,24.381,0.059,29.43-11.146
	c5.049-11.205,0.059-24.381-11.146-29.43C176.502,135.921,163.326,140.911,158.277,152.116z"/>
<circle fill="#FFFFFF" cx="183.063" cy="104.608" r="22.281"/>
<path fill="#FFFFFF" d="M130.481,98.579c2.712,7.16,10.715,10.767,17.875,8.055c7.16-2.712,10.767-10.715,8.055-17.875
	c-2.712-7.16-10.715-10.767-17.875-8.055C131.375,83.416,127.769,91.419,130.481,98.579z"/>
<polygon fill="#FFFFFF" points="165.354,118.139 148.926,100.216 145.733,79.993 182.925,82.324 "/>
<path fill="#FFE07F" d="M175.741,83.531l17.139-4.058l-18.134-44.27c-0.641-1.356-2.68-0.874-2.645,0.626L175.741,83.531z"/>
<path fill="#025D91" d="M197.598,86.019c0,0-3.973-26.164-24.982-13.14c-8.979,5.566-9.809-0.332-9.809-0.332
	s-4.098,2.97-3.364,7.132s4.491,10.863,20.974,5.197C185.371,83.174,197.598,86.019,197.598,86.019z"/>
<path fill="#4B4F54" d="M138.128,90.137c-0.851,1.889-0.656,3.818,0.436,4.31s2.666-0.64,3.518-2.529
	c0.851-1.889,0.656-3.818-0.436-4.31C140.554,87.116,138.979,88.248,138.128,90.137z"/>
<path fill="#4B4F54" d="M176.217,95.749c-1.121,2.488-0.013,5.413,2.475,6.534c2.488,1.121,5.413,0.013,6.534-2.475
	c1.121-2.488,0.013-5.413-2.475-6.534C180.263,92.153,177.338,93.261,176.217,95.749z"/>
<path fill="#FFFFFF" d="M184.998,89.347l16.05,13.649l8.775-22.796c0.882-2.291-1.614-4.414-3.734-3.175L184.998,89.347z"/>
<polygon fill="#FFE07F" points="272.332,241.573 295.417,254.193 272.332,266.812 259.79,289.819 247.094,266.812 224.086,254.116 
	247.094,241.573 259.713,218.489 "/>
</svg>
