<?xml version="1.0" encoding="utf-8"?>
<!-- Generator: Adobe Illustrator 24.1.0, SVG Export Plug-In . SVG Version: 6.00 Build 0)  -->
<svg version="1.1" id="Layer_1" xmlns="http://www.w3.org/2000/svg" xmlns:xlink="http://www.w3.org/1999/xlink" x="0px" y="0px"
	 viewBox="0 0 638.773 404.81" enable-background="new 0 0 638.773 404.81" xml:space="preserve">
<linearGradient id="SVGID_1_" gradientUnits="userSpaceOnUse" x1="326.871" y1="-7559.4102" x2="638.773" y2="-7559.4102" gradientTransform="matrix(1 0 0 1 0 7653.3286)">
	<stop  offset="0" style="stop-color:#ECEEEE"/>
	<stop  offset="0.5326" style="stop-color:#EAECED"/>
	<stop  offset="0.7244" style="stop-color:#E3E6E7"/>
	<stop  offset="0.8611" style="stop-color:#D8DBDC"/>
	<stop  offset="0.9709" style="stop-color:#C7CBCD"/>
	<stop  offset="1" style="stop-color:#C1C6C8"/>
</linearGradient>
<path fill="url(#SVGID_1_)" d="M638.773,140.464c0-26.171-21.202-47.373-47.373-47.373c-3.147,0-6.129,0.331-9.11,0.828
	c0.828-3.147,1.325-6.626,1.325-10.104c0-21.865-17.724-39.588-39.588-39.588c-9.773,0-18.552,3.478-25.509,9.276
	C509.408,22.527,480.752,0,446.795,0c-41.245,0-74.87,33.459-74.87,74.87c0,3.147,0.166,6.294,0.663,9.442
	c-25.674,2.982-45.717,24.846-45.717,51.514c0,28.656,23.19,52.011,52.011,52.011h221.131
	C621.381,183.199,638.773,163.156,638.773,140.464z"/>
<circle fill-rule="evenodd" clip-rule="evenodd" fill="#00466D" cx="178.034" cy="235.972" r="137.336"/>
<circle fill-rule="evenodd" clip-rule="evenodd" fill="#00466D" cx="484.4" cy="235.972" r="137.336"/>
<g id="Head_x2F_Front_x2F_Pony_1_" transform="translate(192.496667, 70.916479) rotate(15.000000) translate(-192.496667, -70.916479) translate(121.550000, 16.686230)">
	<g id="Head_7_" transform="translate(56.316359, 32.329762)">
		<path fill-rule="evenodd" clip-rule="evenodd" fill="#DDB49A" d="M17.558,89.88c-7.377-8.255-12.48-18.464-11.942-30.053
			c1.549-33.389,48.125-27.156,57.55-10.546s9.364,59.311-2.231,62.595c-4.624,1.309-14.604-1.393-24.835-7.234l7.393,44.641
			L6.11,150.169L17.558,89.88z"/>
	</g>
	<path id="hair_4_" fill-rule="evenodd" clip-rule="evenodd" fill="#FFE07F" d="M86.757,119.559
		c-4.425,9.008-10.677,15.861-17.083,16.013c-12.166,0.288-21.202-15.773-21.617-33.261c-0.015-0.614-0.017-1.225-0.007-1.832
		c-12.66,9.136-22.166,26.779-39.195,27.183C-14.312,128.211-24.62,81.7,7.748,80.933c22.013-0.522,32.917,2.431,42.361,6.956
		c1.718-5.232,4.421-9.661,7.78-12.789c0.804-0.949,2.048-1.868,3.662-2.731c0.985-0.57,2.008-1.039,3.062-1.399
		c5.579-2.201,13.696-3.853,22.793-4.387c1.699-0.1,3.368-0.157,4.998-0.173c-0.177-8.581,6.622-15.693,15.208-15.896
		c8.603-0.204,15.742,6.605,15.945,15.207c0.197,8.319-6.164,15.27-14.364,15.903c-4.662,1.56-10.671,2.768-17.353,3.375
		c0.708,2.428,1.127,5.195,1.201,8.332c0.066,2.77-0.17,5.714-0.663,8.71c-1.492-1.691-3.46-2.771-5.429-2.724
		c-5.51,0.131-9.238,4.754-9.124,9.567C77.97,114.992,81.601,119.327,86.757,119.559z"/>
</g>
<path fill-rule="evenodd" clip-rule="evenodd" fill="#62B5E5" d="M202.854,171.649l-42.74-6.496c0,0-15.393,15.467-27.788,36.358
	c-6.002,10.116-19.777,39.822-32.292,68.934c-10.051,23.381-19.29,46.379-23.037,58.537c25.097,27.25,61.071,44.327,101.037,44.327
	c9.386,0,18.551-0.945,27.408-2.739C227.313,298.377,200.751,200.346,202.854,171.649z"/>
<ellipse transform="matrix(0.5672 -0.8236 0.8236 0.5672 -113.449 395.1358)" fill="#DDB49A" cx="319.225" cy="305.508" rx="20.047" ry="23.8"/>
<path fill-rule="evenodd" clip-rule="evenodd" fill="#62B5E5" d="M202.952,182.092c0,0,46.865,87.017,57.208,96.024
	c10.343,9.007,54.342,1.24,54.342,1.24l-0.064,50.451c0,0-77.118,18.987-120.949-16.479S202.952,182.092,202.952,182.092z"/>
<g id="Head_x2F_Front_x2F_Short-Beard_2_" transform="translate(82.000000, 0.000000)">
	<g id="Head_6_" transform="translate(54.000000, 31.000000)">
		<path fill-rule="evenodd" clip-rule="evenodd" fill="#B28B67" d="M366.736,146.545l-37.246,8.472l-3.843-46.061
			c-8.672,8.343-17.88,13.516-22.787,13.376c-12.304-0.352-23.044-42.628-17.864-61.436s49.75-36.63,59.634-3.949
			c3.431,11.343,0.931,22.73-4.311,32.751L366.736,146.545z"/>
	</g>
	<path id="Hair_2_" fill-rule="evenodd" clip-rule="evenodd" fill="#252728" d="M355.766,89.088
		c-16.653,4.066-19.291,1.515-21.588-8.584c2.26-2.546,11.045-7.965,21.503-11.306c5.087-2.795,11.6-3.968,18.4-2.783
		c8.16,0.431,15.716,3.639,20.578,11.756c14.444,15.541,10.416,37.266,1.255,46.045c-3.585-2.704-6.394-6.686-9.299-9.29
		c1.374-2.128,1.923-4.786,1.317-7.45c-1.194-5.249-6.417-8.536-11.666-7.342c-0.384,0.087-0.757,0.196-1.118,0.325
		c3.628,18.581,5.546,31.518,4.938,37.827c-0.942,9.777-18.408,15.513-24.534,16.907c-6.053,1.377-6.437-5.433-7.231-8.92
		c-0.48-2.109,6.45-0.792,5.641-4.347c-0.809-3.555-9.29-3.951-11.45-5.871c-2.618-2.328-4.14-5.925-1.144-6.606
		c4.11-0.935,13.408,3.204,22.774,1.073c6.244-1.42,7.788-12.431,4.632-33.033C364.373,93.34,360.366,90.323,355.766,89.088z"/>
</g>
<path fill-rule="evenodd" clip-rule="evenodd" fill="#81AA43" d="M585.038,329.409c-3.856-11.904-12.884-34.33-22.583-57.031
	c-11.926-27.915-24.867-56.246-30.45-65.937c-12.947-22.472-29.685-39.602-29.685-39.602l-42.74,6.496
	c2.086,28.46-24.016,125.112-3.113,197.126c9.02,1.864,18.361,2.846,27.933,2.846C524.156,373.308,559.959,356.408,585.038,329.409z
	"/>
<ellipse transform="matrix(0.8236 -0.5672 0.5672 0.8236 -112.5856 250.1326)" fill="#B28B67" cx="345.81" cy="306.054" rx="23.8" ry="20.047"/>
<path fill-rule="evenodd" clip-rule="evenodd" fill="#81AA43" d="M459.481,183.779c0,0-46.865,87.017-57.208,96.024
	c-10.343,9.007-54.342,1.24-54.342,1.24l0.064,50.451c0,0,77.118,18.987,120.949-16.479S459.481,183.779,459.481,183.779z"/>
<linearGradient id="SVGID_2_" gradientUnits="userSpaceOnUse" x1="0" y1="-7343.2378" x2="156.403" y2="-7343.2378" gradientTransform="matrix(1 0 0 1 0 7653.3286)">
	<stop  offset="0" style="stop-color:#ECEEEE"/>
	<stop  offset="0.5326" style="stop-color:#EAECED"/>
	<stop  offset="0.7244" style="stop-color:#E3E6E7"/>
	<stop  offset="0.8611" style="stop-color:#D8DBDC"/>
	<stop  offset="0.9709" style="stop-color:#C7CBCD"/>
	<stop  offset="1" style="stop-color:#C1C6C8"/>
</linearGradient>
<path fill="url(#SVGID_2_)" d="M156.403,333.432c0-13.124-10.632-23.755-23.755-23.755c-1.578,0-3.073,0.166-4.568,0.415
	c0.415-1.578,0.664-3.322,0.664-5.067c0-10.964-8.887-19.852-19.852-19.852c-4.901,0-9.303,1.744-12.791,4.651
	c-4.568-15.532-18.938-26.829-35.965-26.829c-20.682,0-37.543,16.778-37.543,37.543c0,1.578,0.083,3.156,0.332,4.734
	C10.05,306.77,0,317.734,0,331.106c0,14.37,11.628,26.081,26.081,26.081h110.886C147.682,354.862,156.403,344.811,156.403,333.432z"
	/>
<g>
	<polygon id="Fill-10_7_" fill-rule="evenodd" clip-rule="evenodd" fill="#62B5E5" points="522.319,404.81 594.803,367.904 
		522.319,332.327 	"/>
	<polygon id="Fill-10_5_" fill-rule="evenodd" clip-rule="evenodd" fill="#FFE07F" points="449.762,404.81 522.319,367.904 
		449.762,332.327 	"/>
</g>
</svg>
