<?xml version="1.0" encoding="utf-8"?>
<!-- Generator: Adobe Illustrator 24.1.3, SVG Export Plug-In . SVG Version: 6.00 Build 0)  -->
<svg version="1.1" id="Layer_1" xmlns="http://www.w3.org/2000/svg" xmlns:xlink="http://www.w3.org/1999/xlink" x="0px" y="0px"
	 viewBox="0 0 638.8 404.8" style="enable-background:new 0 0 638.8 404.8;" xml:space="preserve">
<style type="text/css">
	.st0{fill:url(#SVGID_1_);}
	.st1{fill-rule:evenodd;clip-rule:evenodd;fill:#00466D;}
	.st2{fill-rule:evenodd;clip-rule:evenodd;fill:#DDB49A;}
	.st3{fill-rule:evenodd;clip-rule:evenodd;fill:#252728;}
	.st4{fill-rule:evenodd;clip-rule:evenodd;fill:#62B5E5;}
	.st5{fill:#DDB49A;}
	.st6{fill-rule:evenodd;clip-rule:evenodd;fill:#B28B67;}
	.st7{fill-rule:evenodd;clip-rule:evenodd;fill:#81AA43;}
	.st8{fill:#B28B67;}
	.st9{fill:url(#SVGID_2_);}
	.st10{fill-rule:evenodd;clip-rule:evenodd;fill:#FFFFFF;}
	.st11{fill-rule:evenodd;clip-rule:evenodd;fill:#005E8F;fill-opacity:0.5;}
	.st12{fill-rule:evenodd;clip-rule:evenodd;fill:#FFDE7F;}
	.st13{fill-rule:evenodd;clip-rule:evenodd;fill:#FFFFFF;fill-opacity:0.5;}
	.st14{fill:url(#SVGID_3_);}
	.st15{fill:#62B3E2;}
	.st16{fill:#005E8F;}
	.st17{fill:#002F49;}
	.st18{fill-rule:evenodd;clip-rule:evenodd;fill:#BFC4C6;fill-opacity:0.2;}
</style>
<linearGradient id="SVGID_1_" gradientUnits="userSpaceOnUse" x1="326.871" y1="7965.4102" x2="638.773" y2="7965.4102" gradientTransform="matrix(1 0 0 -1 0 8059.3286)">
	<stop  offset="0" style="stop-color:#ECEEEE"/>
	<stop  offset="0.5326" style="stop-color:#EAECED"/>
	<stop  offset="0.7244" style="stop-color:#E3E6E7"/>
	<stop  offset="0.8611" style="stop-color:#D8DBDC"/>
	<stop  offset="0.9709" style="stop-color:#C7CBCD"/>
	<stop  offset="1" style="stop-color:#C1C6C8"/>
</linearGradient>
<path class="st0" d="M638.8,140.5c0-26.2-21.2-47.4-47.4-47.4c-3.1,0-6.1,0.3-9.1,0.8c0.8-3.1,1.3-6.6,1.3-10.1
	c0-21.9-17.7-39.6-39.6-39.6c-9.8,0-18.6,3.5-25.5,9.3C509.4,22.5,480.8,0,446.8,0c-41.2,0-74.9,33.5-74.9,74.9
	c0,3.1,0.2,6.3,0.7,9.4c-25.7,3-45.7,24.8-45.7,51.5c0,28.7,23.2,52,52,52H600C621.4,183.2,638.8,163.2,638.8,140.5z"/>
<circle class="st1" cx="178" cy="236" r="137.3"/>
<circle class="st1" cx="484.4" cy="236" r="137.3"/>
<g id="Head_x2F_Front_x2F_Pony_1_" transform="translate(192.496667, 70.916479) rotate(15.000000) translate(-192.496667, -70.916479) translate(121.550000, 16.686230)">
	<g id="Head_7_" transform="translate(56.316359, 32.329762)">
		<path class="st2" d="M17.6,89.9C10.2,81.6,5.1,71.4,5.6,59.8c1.5-33.4,48.1-27.2,57.5-10.5s9.4,59.3-2.2,62.6
			c-4.6,1.3-14.6-1.4-24.8-7.2l7.4,44.6l-37.4,0.9L17.6,89.9z"/>
	</g>
	<path id="hair_4_" class="st3" d="M86.8,119.6c-4.4,9-10.7,15.9-17.1,16c-12.2,0.3-21.2-15.8-21.6-33.3c0-0.6,0-1.2,0-1.8
		c-12.7,9.1-22.2,26.8-39.2,27.2c-23.2,0.5-33.5-46-1.1-46.7c22-0.5,32.9,2.4,42.4,7c1.7-5.2,4.4-9.7,7.8-12.8
		c0.8-0.9,2-1.9,3.7-2.7c1-0.6,2-1,3.1-1.4c5.6-2.2,13.7-3.9,22.8-4.4c1.7-0.1,3.4-0.2,5-0.2c-0.2-8.6,6.6-15.7,15.2-15.9
		c8.6-0.2,15.7,6.6,15.9,15.2c0.2,8.3-6.2,15.3-14.4,15.9c-4.7,1.6-10.7,2.8-17.4,3.4c0.7,2.4,1.1,5.2,1.2,8.3
		c0.1,2.8-0.2,5.7-0.7,8.7c-1.5-1.7-3.5-2.8-5.4-2.7c-5.5,0.1-9.2,4.8-9.1,9.6C78,115,81.6,119.3,86.8,119.6z"/>
</g>
<path class="st4" d="M202.9,171.6l-42.7-6.5c0,0-15.4,15.5-27.8,36.4c-6,10.1-19.8,39.8-32.3,68.9C90,293.8,80.7,316.8,77,329
	c25.1,27.2,61.1,44.3,101,44.3c9.4,0,18.6-0.9,27.4-2.7C227.3,298.4,200.8,200.3,202.9,171.6z"/>
<ellipse transform="matrix(0.5672 -0.8236 0.8236 0.5672 -113.4443 395.1409)" class="st5" cx="319.2" cy="305.5" rx="20" ry="23.8"/>
<path class="st4" d="M203,182.1c0,0,46.9,87,57.2,96c10.3,9,54.3,1.2,54.3,1.2l-0.1,50.5c0,0-77.1,19-120.9-16.5
	S203,182.1,203,182.1z"/>
<g id="Head_x2F_Front_x2F_Short-Beard_2_" transform="translate(82.000000, 0.000000)">
	<g id="Head_6_" transform="translate(54.000000, 31.000000)">
		<path class="st6" d="M366.7,146.5l-37.2,8.5l-3.8-46.1c-8.7,8.3-17.9,13.5-22.8,13.4c-12.3-0.4-23-42.6-17.9-61.4
			s49.8-36.6,59.6-3.9c3.4,11.3,0.9,22.7-4.3,32.8L366.7,146.5z"/>
	</g>
	<path id="Hair_2_" class="st3" d="M355.8,89.1c-16.7,4.1-19.3,1.5-21.6-8.6c2.3-2.5,11-8,21.5-11.3c5.1-2.8,11.6-4,18.4-2.8
		c8.2,0.4,15.7,3.6,20.6,11.8c14.4,15.5,10.4,37.3,1.3,46c-3.6-2.7-6.4-6.7-9.3-9.3c1.4-2.1,1.9-4.8,1.3-7.4
		c-1.2-5.2-6.4-8.5-11.7-7.3c-0.4,0.1-0.8,0.2-1.1,0.3c3.6,18.6,5.5,31.5,4.9,37.8c-0.9,9.8-18.4,15.5-24.5,16.9
		c-6.1,1.4-6.4-5.4-7.2-8.9c-0.5-2.1,6.5-0.8,5.6-4.3c-0.8-3.6-9.3-4-11.5-5.9c-2.6-2.3-4.1-5.9-1.1-6.6c4.1-0.9,13.4,3.2,22.8,1.1
		c6.2-1.4,7.8-12.4,4.6-33C364.4,93.3,360.4,90.3,355.8,89.1z"/>
</g>
<path class="st7" d="M585,329.4c-3.9-11.9-12.9-34.3-22.6-57c-11.9-27.9-24.9-56.2-30.5-65.9c-12.9-22.5-29.7-39.6-29.7-39.6
	l-42.7,6.5c2.1,28.5-24,125.1-3.1,197.1c9,1.9,18.4,2.8,27.9,2.8C524.2,373.3,560,356.4,585,329.4z"/>
<ellipse transform="matrix(0.8236 -0.5672 0.5672 0.8236 -112.5848 250.1367)" class="st8" cx="345.8" cy="306.1" rx="23.8" ry="20"/>
<path class="st7" d="M459.5,183.8c0,0-46.9,87-57.2,96c-10.3,9-54.3,1.2-54.3,1.2l0.1,50.5c0,0,77.1,19,120.9-16.5
	S459.5,183.8,459.5,183.8z"/>
<linearGradient id="SVGID_2_" gradientUnits="userSpaceOnUse" x1="0" y1="7749.2378" x2="156.403" y2="7749.2378" gradientTransform="matrix(1 0 0 -1 0 8059.3286)">
	<stop  offset="0" style="stop-color:#ECEEEE"/>
	<stop  offset="0.5326" style="stop-color:#EAECED"/>
	<stop  offset="0.7244" style="stop-color:#E3E6E7"/>
	<stop  offset="0.8611" style="stop-color:#D8DBDC"/>
	<stop  offset="0.9709" style="stop-color:#C7CBCD"/>
	<stop  offset="1" style="stop-color:#C1C6C8"/>
</linearGradient>
<path class="st9" d="M156.4,333.4c0-13.1-10.6-23.8-23.8-23.8c-1.6,0-3.1,0.2-4.6,0.4c0.4-1.6,0.7-3.3,0.7-5.1
	c0-11-8.9-19.9-19.9-19.9c-4.9,0-9.3,1.7-12.8,4.7c-4.6-15.5-18.9-26.8-36-26.8c-20.7,0-37.5,16.8-37.5,37.5c0,1.6,0.1,3.2,0.3,4.7
	C10.1,306.8,0,317.7,0,331.1c0,14.4,11.6,26.1,26.1,26.1H137C147.7,354.9,156.4,344.8,156.4,333.4z"/>
<g>
	<polygon id="Fill-10_7_" class="st4" points="522.3,404.8 594.8,367.9 522.3,332.3 	"/>
	<polygon id="Fill-10_5_" class="st10" points="449.8,404.8 522.3,367.9 449.8,332.3 	"/>
	<polygon id="Fill-10_1_" class="st11" points="449.8,404.8 522.3,367.9 449.8,332.3 	"/>
</g>
<g>
	<polygon id="Fill-10_98_" class="st12" points="48.1,-31.4 121.5,-68.7 48.1,-104.8 	"/>
	<polygon id="Fill-10_97_" class="st12" points="-114.3,-163.8 -40.9,-201.2 -114.3,-237.2 	"/>
	<polygon id="Fill-10_95_" class="st13" points="121.5,-31.4 194.9,-68.7 121.5,-104.8 	"/>
	<polygon id="Fill-10_92_" class="st13" points="-40.9,-163.8 32.5,-201.2 -40.9,-237.2 	"/>
	<polygon id="Fill-10_90_" class="st11" points="121.5,-31.4 194.9,-68.7 121.5,-104.8 	"/>
	<polygon id="Fill-10_88_" class="st11" points="-40.9,-159.8 32.5,-201.2 -40.9,-237.2 	"/>
	
		<linearGradient id="SVGID_3_" gradientUnits="userSpaceOnUse" x1="25.0363" y1="744.6642" x2="189.4612" y2="580.2392" gradientTransform="matrix(1 0 0 1 0 -820)">
		<stop  offset="0" style="stop-color:#EAECEC"/>
		<stop  offset="0.5326" style="stop-color:#E8EAEB"/>
		<stop  offset="0.7244" style="stop-color:#E0E4E5"/>
		<stop  offset="0.8611" style="stop-color:#D5D9DA"/>
		<stop  offset="0.9709" style="stop-color:#C5C9CB"/>
		<stop  offset="1" style="stop-color:#BFC4C6"/>
	</linearGradient>
	<path class="st14" d="M261.3-149.4c0-24.7-20-44.7-44.7-44.7c-2.9,0-5.8,0.3-8.5,0.8c0.8-3,1.3-6.2,1.3-9.5
		c0-20.7-16.7-37.4-37.4-37.4c-9.2,0-17.5,3.3-24,8.8c-8.7-29.2-35.7-50.5-67.7-50.5c-39,0-70.6,31.6-70.6,70.6c0,3,0.2,6,0.6,8.9
		c-24.4,2.9-43.3,23.6-43.3,48.7c0,27.1,21.9,49,49,49h208.7C244.9-109,261.3-127.9,261.3-149.4z"/>
	<g>
		<g>
			<polygon class="st15" points="139.6,-176.1 -32.5,-24.1 -114.3,-163.8 			"/>
			<polygon class="st16" points="105.1,-164.7 -74.9,-96.5 -88.3,-119.4 			"/>
			<polygon class="st16" points="-88.3,-119.4 -88.3,-59.4 -74.9,-96.5 			"/>
		</g>
		<polygon class="st17" points="-74.9,-96.7 -88.3,-59.5 -59.2,-69.8 		"/>
	</g>
	<polygon id="Fill-10_86_" class="st18" points="194.9,-31.4 268.3,-68.7 194.9,-104.8 	"/>
</g>
</svg>
