<?xml version="1.0" encoding="utf-8"?>
<!-- Generator: Adobe Illustrator 24.1.3, SVG Export Plug-In . SVG Version: 6.00 Build 0)  -->
<svg version="1.1" id="Layer_1" xmlns="http://www.w3.org/2000/svg" xmlns:xlink="http://www.w3.org/1999/xlink" x="0px" y="0px"
	 viewBox="0 0 300.644 204.294" enable-background="new 0 0 300.644 204.294" xml:space="preserve">
<g>
	<circle fill="#BD4764" cx="188.097" cy="52.633" r="52.633"/>
	<circle fill="#EED380" cx="188.097" cy="52.633" r="36.054"/>
	<circle fill="#809B52" cx="188.097" cy="52.633" r="21.675"/>
	<circle fill="#EEEEEE" cx="188.097" cy="52.633" r="10.357"/>
	<polygon fill="#809B52" points="48.563,19.293 53.233,21.846 48.563,24.398 46.026,29.052 43.458,24.398 38.804,21.83 
		43.458,19.293 46.011,14.623 	"/>
	<polygon fill="#809B52" points="222.101,194.535 226.771,197.087 222.101,199.64 219.564,204.294 216.996,199.64 212.342,197.072 
		216.996,194.535 219.549,189.865 	"/>
	<polygon fill="#EED380" points="24.333,51.567 35.976,57.932 24.333,64.297 18.008,75.901 11.604,64.297 0,57.893 11.604,51.567 
		17.969,39.924 	"/>
	<path fill="#74A7D3" d="M300.644,133.788c0-24.471-19.825-44.296-44.296-44.296c-2.943,0-5.731,0.31-8.519,0.774
		c0.774-2.943,1.239-6.195,1.239-9.448c0-20.444-16.572-37.016-37.016-37.016c-9.138,0-17.347,3.252-23.852,8.673
		c-8.519-28.963-35.313-50.027-67.064-50.027c-38.565,0-70.007,31.286-70.007,70.007c0,2.943,0.155,5.886,0.619,8.828
		c-24.007,2.788-42.747,23.232-42.747,48.168c0,26.795,21.684,48.633,48.633,48.633h206.767
		C284.382,173.748,300.644,155.007,300.644,133.788z"/>
	<g>
		<path fill="#FFFFFF" d="M52.984,163.464c-2.394,0-4.763-1.07-6.34-3.111c-2.702-3.498-2.056-8.524,1.442-11.226l18.431-14.237
			c7.903-6.104,18.078-8.629,27.918-6.925l50.109,8.675c4.355,0.754,7.274,4.896,6.521,9.251c-0.754,4.355-4.897,7.274-9.251,6.521
			l-50.109-8.675c-5.428-0.94-11.042,0.453-15.403,3.82L57.87,161.794C56.414,162.919,54.692,163.464,52.984,163.464z"/>
	</g>
	<g>
		<path fill="#FFFFFF" d="M143.172,152.53c-1.542,0-3.1-0.445-4.474-1.373l-47.885-32.362c-4.977-3.363-11.005-4.845-16.973-4.168
			l-22.195,2.512c-4.392,0.493-8.356-2.661-8.853-7.053c-0.497-4.392,2.66-8.355,7.053-8.853l22.194-2.512
			c9.751-1.103,19.603,1.315,27.736,6.811l47.885,32.362c3.663,2.475,4.625,7.45,2.149,11.113
			C148.264,151.295,145.74,152.53,143.172,152.53z"/>
	</g>
	<path fill="#FFFFFF" d="M121.997,54.736l12.006,8.702l4.914-16.474c0.494-1.656-1.373-3.009-2.793-2.024L121.997,54.736z"/>
	<path fill="#245D80" d="M278.564,143.977c-22.171-35.489-74.226,4.966-63.531,24.69c0,0,30.111-29.173,36.863,4.257
		c0.362,1.793,0.747,3.505,1.147,5.16h11.359c7.949-1.725,15.304-5.736,21.286-11.27
		C284.506,158.421,282.527,150.32,278.564,143.977z"/>
	<path fill="#FFFFFF" d="M208.036,139.46c-28.823-7.898-48.516-18.028-65.035-22.719l-27.543-1.214
		c-11.832,22.366,2.693,46.809,25.523,62.558h85.334C233.617,163.433,224.143,143.873,208.036,139.46z"/>
	<path fill="#245D80" d="M138.883,60.949c14.595-9.164,62.365,18.846,37.168,63.151c-25.887,45.517-85.88-2.835-59.863-22.404
		c0,0-2.952,14.046,14.421,17.201c17.049,3.096,16.281-19.94,8.695-33.597C131.314,70.916,138.883,60.949,138.883,60.949z"/>
	<path fill="#FFFFFF" d="M143.502,68.068c0,0,13.795,14.91-2.226,47.715l-28.342,6.815l13.273-33.519L143.502,68.068z"/>
	<path fill="#245D80" d="M111.393,107.057c-3.553,7.886-0.042,17.159,7.844,20.712c7.886,3.553,17.159,0.042,20.712-7.844
		c3.553-7.886,0.042-17.159-7.844-20.712S114.947,99.171,111.393,107.057z"/>
	<circle fill="#FFFFFF" cx="128.838" cy="73.622" r="15.681"/>
	<path fill="#FFFFFF" d="M91.831,69.379c1.909,5.039,7.541,7.578,12.58,5.669c5.039-1.909,7.578-7.541,5.669-12.58
		c-1.909-5.039-7.541-7.578-12.58-5.669C92.46,58.707,89.922,64.34,91.831,69.379z"/>
	<polygon fill="#FFFFFF" points="116.374,83.145 104.812,70.531 102.565,56.298 128.74,57.939 	"/>
	<path fill="#EED380" d="M123.684,58.788l12.062-2.856l-12.762-31.157c-0.451-0.954-1.886-0.615-1.862,0.441L123.684,58.788z"/>
	<path fill="#245D80" d="M139.067,60.539c0,0-2.796-18.414-17.582-9.248c-6.319,3.917-6.903-0.234-6.903-0.234
		s-2.884,2.09-2.368,5.019s3.161,7.645,14.761,3.658C130.462,58.537,139.067,60.539,139.067,60.539z"/>
	<path fill="#4C4F54" d="M97.213,63.437c-0.599,1.329-0.462,2.687,0.307,3.033c0.769,0.346,1.876-0.45,2.476-1.78
		c0.599-1.329,0.462-2.687-0.307-3.033C98.92,61.311,97.812,62.108,97.213,63.437z"/>
	<path fill="#4C4F54" d="M124.019,67.387c-0.789,1.751-0.009,3.81,1.742,4.599s3.81,0.009,4.599-1.742
		c0.789-1.751,0.009-3.81-1.742-4.599C126.867,64.856,124.808,65.636,124.019,67.387z"/>
	<path fill="#FFFFFF" d="M130.199,62.881l11.296,9.606l6.176-16.044c0.621-1.612-1.136-3.107-2.628-2.235L130.199,62.881z"/>
	<polygon fill="#EED380" points="191.664,170.016 207.911,178.898 191.664,187.779 182.837,203.971 173.902,187.779 
		157.709,178.844 173.902,170.016 182.783,153.77 	"/>
</g>
</svg>
