<?xml version="1.0" encoding="utf-8"?>
<!-- Generator: Adobe Illustrator 24.0.0, SVG Export Plug-In . SVG Version: 6.00 Build 0)  -->
<svg version="1.1" id="Layer_1" xmlns="http://www.w3.org/2000/svg" xmlns:xlink="http://www.w3.org/1999/xlink" x="0px" y="0px"
	 viewBox="0 0 386.2 349.5" style="enable-background:new 0 0 386.2 349.5;" xml:space="preserve">
<style type="text/css">
	.st0{fill-rule:evenodd;clip-rule:evenodd;fill:#C1C6C8;fill-opacity:0.2;}
	.st1{fill-rule:evenodd;clip-rule:evenodd;fill:#005D91;fill-opacity:0.5;}
	.st2{fill:#FAE08C;}
	.st3{fill:#EFF0F0;}
	.st4{fill:#FFFFFF;}
	.st5{fill:url(#SVGID_1_);}
	.st6{fill:#4B4F54;}
	.st7{fill:#D93963;}
	.st8{fill:#62B5E5;}
	.st9{fill:#C1C6C8;}
	.st10{fill:#86ABC2;}
	.st11{fill:url(#SVGID_2_);}
	.st12{clip-path:url(#SVGID_4_);fill:#4B4F54;}
	.st13{fill:url(#SVGID_5_);}
	.st14{fill:url(#SVGID_6_);}
	.st15{fill:#005D91;}
	.st16{fill:none;stroke:#FFFFFF;stroke-width:4.7564;stroke-miterlimit:10;}
	.st17{fill:none;stroke:#005D91;stroke-width:21.7491;stroke-linecap:round;stroke-miterlimit:10;}
	.st18{fill:none;stroke:#62B5E5;stroke-width:11.4634;stroke-linecap:round;stroke-miterlimit:10;}
	.st19{fill:none;stroke:#4B4F54;stroke-width:16.0488;stroke-linecap:round;stroke-miterlimit:10;}
	.st20{fill:none;stroke:#C1C6C8;stroke-width:1.1891;stroke-miterlimit:10;}
	.st21{opacity:0.5;clip-path:url(#SVGID_8_);fill:url(#SVGID_9_);}
	.st22{opacity:0.25;clip-path:url(#SVGID_8_);}
	.st23{fill:none;stroke:#FFFFFF;stroke-width:175.8062;stroke-miterlimit:10;stroke-dasharray:25.1884,25.1884;}
	.st24{opacity:0.5;}
	.st25{fill:#4A8097;}
	.st26{opacity:0.5;clip-path:url(#SVGID_11_);fill:url(#SVGID_12_);}
	.st27{opacity:0.25;clip-path:url(#SVGID_11_);}
	.st28{fill:#81C4EA;}
	.st29{fill:#D1D1D1;}
	.st30{fill:#B7B7B7;}
	.st31{opacity:0.5;clip-path:url(#SVGID_14_);fill:url(#SVGID_15_);}
	.st32{opacity:0.25;clip-path:url(#SVGID_14_);}
	.st33{fill:none;stroke:#FFFFFF;stroke-width:175.4377;stroke-miterlimit:10;stroke-dasharray:25.1356,25.1356;}
	.st34{opacity:0.5;fill:#4A8097;}
	.st35{fill-rule:evenodd;clip-rule:evenodd;fill:#FFE07F;}
	.st36{fill-rule:evenodd;clip-rule:evenodd;fill:#62B5E5;fill-opacity:0.2;}
	.st37{fill:url(#SVGID_18_);}
	.st38{fill:#002F49;}
	.st39{fill:#C6E4F6;}
	.st40{fill:url(#SVGID_19_);}
	.st41{fill:url(#SVGID_20_);}
	.st42{fill:url(#SVGID_21_);}
	.st43{fill:url(#SVGID_22_);}
	.st44{fill:url(#SVGID_23_);}
	.st45{fill:#FFE07F;}
	.st46{fill:#005D91;fill-opacity:0.5;}
	.st47{filter:url(#Adobe_OpacityMaskFilter);}
	.st48{mask:url(#SVGID_24_);}
	.st49{fill:url(#SVGID_25_);}
	.st50{fill:url(#SVGID_26_);}
	.st51{fill:none;stroke:#4B4F54;stroke-width:4;stroke-linecap:round;stroke-miterlimit:10;stroke-dasharray:0,10;}
	.st52{fill-rule:evenodd;clip-rule:evenodd;fill:#62B5E5;}
	.st53{fill-rule:evenodd;clip-rule:evenodd;fill:none;stroke:#005D91;stroke-width:12;stroke-miterlimit:10;}
	.st54{opacity:0.5;clip-path:url(#SVGID_32_);fill:url(#SVGID_33_);}
	.st55{opacity:0.25;clip-path:url(#SVGID_32_);}
	.st56{fill:none;stroke:#FFFFFF;stroke-width:175.8062;stroke-miterlimit:10;stroke-dasharray:25.5444,25.5444;}
	.st57{opacity:0.5;clip-path:url(#SVGID_35_);fill:url(#SVGID_36_);}
	.st58{opacity:0.25;clip-path:url(#SVGID_35_);}
	.st59{opacity:0.5;clip-path:url(#SVGID_38_);fill:url(#SVGID_39_);}
	.st60{opacity:0.25;clip-path:url(#SVGID_38_);}
	.st61{fill:none;stroke:#FFFFFF;stroke-width:175.4377;stroke-miterlimit:10;stroke-dasharray:25.4908,25.4908;}
	.st62{fill:#FBFBFB;}
	.st63{fill:url(#SVGID_42_);}
	.st64{fill:url(#SVGID_43_);}
	.st65{fill:none;stroke:#4B4F54;stroke-width:3;stroke-linecap:round;stroke-miterlimit:10;stroke-dasharray:0,10;}
	.st66{fill-rule:evenodd;clip-rule:evenodd;fill:none;stroke:#005D91;stroke-width:6;stroke-miterlimit:10;}
	.st67{fill:none;stroke:#FFFFFF;stroke-width:3;stroke-linejoin:round;stroke-miterlimit:10;}
	.st68{fill:url(#SVGID_44_);}
	.st69{fill:#005D91;stroke:#FFFFFF;stroke-width:4;stroke-linejoin:round;stroke-miterlimit:10;}
	.st70{opacity:0.3;}
	.st71{fill:none;stroke:#FFFFFF;stroke-width:0.5;stroke-linejoin:round;stroke-miterlimit:10;}
	.st72{fill:url(#SVGID_45_);}
	.st73{fill:url(#SVGID_46_);}
	.st74{fill:url(#SVGID_47_);}
	.st75{fill:url(#SVGID_48_);}
	.st76{fill:url(#SVGID_49_);}
	.st77{fill:url(#SVGID_50_);}
	.st78{filter:url(#Adobe_OpacityMaskFilter_1_);}
	.st79{mask:url(#SVGID_51_);}
	.st80{fill:url(#SVGID_52_);}
	.st81{fill:url(#SVGID_53_);}
	.st82{fill:#4A88AC;}
	.st83{fill:none;stroke:#002F49;stroke-width:12;stroke-linecap:round;stroke-miterlimit:10;}
	.st84{fill:url(#SVGID_54_);}
	.st85{opacity:0.5;fill:#005D91;}
	.st86{opacity:0.5;clip-path:url(#SVGID_60_);fill:url(#SVGID_61_);}
	.st87{opacity:0.25;clip-path:url(#SVGID_60_);}
	.st88{opacity:0.5;clip-path:url(#SVGID_63_);fill:url(#SVGID_64_);}
	.st89{opacity:0.25;clip-path:url(#SVGID_63_);}
	.st90{opacity:0.5;clip-path:url(#SVGID_66_);fill:url(#SVGID_67_);}
	.st91{opacity:0.25;clip-path:url(#SVGID_66_);}
	.st92{fill:#81AA43;}
	.st93{fill:url(#SVGID_70_);}
	.st94{fill:url(#SVGID_71_);}
	.st95{fill:none;stroke:#FFFFFF;stroke-linejoin:round;stroke-miterlimit:10;}
	.st96{fill:url(#SVGID_72_);}
	.st97{fill:#005D91;stroke:#FFFFFF;stroke-width:2;stroke-linejoin:round;stroke-miterlimit:10;}
	.st98{fill:url(#SVGID_73_);}
	.st99{fill:#E888A1;}
	.st100{fill:#A32B4A;}
	.st101{fill:url(#SVGID_74_);}
	.st102{fill-rule:evenodd;clip-rule:evenodd;fill:#D93963;}
	.st103{fill:url(#SVGID_75_);}
	.st104{fill-rule:evenodd;clip-rule:evenodd;fill:#FBFBFB;}
	.st105{opacity:0.5;clip-path:url(#SVGID_81_);fill:url(#SVGID_82_);}
	.st106{opacity:0.25;clip-path:url(#SVGID_81_);}
	.st107{opacity:0.5;clip-path:url(#SVGID_84_);fill:url(#SVGID_85_);}
	.st108{opacity:0.25;clip-path:url(#SVGID_84_);}
	.st109{opacity:0.5;clip-path:url(#SVGID_87_);fill:url(#SVGID_88_);}
	.st110{opacity:0.25;clip-path:url(#SVGID_87_);}
	.st111{fill:url(#SVGID_91_);}
	.st112{fill:url(#SVGID_92_);}
	.st113{fill:url(#SVGID_93_);}
	.st114{fill:url(#SVGID_94_);}
	.st115{fill:url(#SVGID_95_);}
	.st116{fill:url(#SVGID_96_);}
	.st117{opacity:0.5;clip-path:url(#SVGID_102_);fill:url(#SVGID_103_);}
	.st118{opacity:0.25;clip-path:url(#SVGID_102_);}
	.st119{opacity:0.5;clip-path:url(#SVGID_105_);fill:url(#SVGID_106_);}
	.st120{opacity:0.25;clip-path:url(#SVGID_105_);}
	.st121{opacity:0.5;clip-path:url(#SVGID_108_);fill:url(#SVGID_109_);}
	.st122{opacity:0.25;clip-path:url(#SVGID_108_);}
	.st123{fill:url(#SVGID_112_);}
	.st124{fill:url(#SVGID_113_);}
	.st125{fill:url(#SVGID_114_);}
	.st126{fill:url(#SVGID_115_);}
	.st127{fill:url(#SVGID_116_);}
	.st128{fill:url(#SVGID_117_);}
	.st129{fill:url(#SVGID_118_);}
	.st130{fill:url(#SVGID_119_);}
	.st131{fill-rule:evenodd;clip-rule:evenodd;fill:#FFFFFF;fill-opacity:0.5;}
	.st132{fill:url(#SVGID_120_);}
	.st133{fill:url(#SVGID_121_);}
	.st134{fill:url(#SVGID_122_);}
	.st135{fill:url(#SVGID_123_);}
	.st136{fill:url(#SVGID_124_);}
	.st137{fill:url(#SVGID_125_);}
	.st138{fill:url(#SVGID_126_);}
	.st139{fill-rule:evenodd;clip-rule:evenodd;fill:#FFFFFF;}
	.st140{fill:url(#SVGID_127_);}
	.st141{opacity:0.5;clip-path:url(#SVGID_129_);fill:url(#SVGID_130_);}
	.st142{opacity:0.25;clip-path:url(#SVGID_129_);}
	.st143{opacity:0.5;clip-path:url(#SVGID_132_);fill:url(#SVGID_133_);}
	.st144{opacity:0.25;clip-path:url(#SVGID_132_);}
	.st145{opacity:0.5;clip-path:url(#SVGID_135_);fill:url(#SVGID_136_);}
	.st146{opacity:0.25;clip-path:url(#SVGID_135_);}
	.st147{fill:#00466D;}
</style>
<g>
	<g>
		<path class="st8" d="M285.6,224.2L285.6,224.2c0-11.2-7.9-20.9-18.9-23.2l-63.2-13.1c-19.6-4.1-40.1-0.4-57,10.3l-67,42.2
			l43.7,49.7h111.3c25.4,0,50.1-8.5,70.2-24.1l72.8-56.6c7.4-5.8,8.3-16.6,2-23.5l0,0c-5-5.5-13.2-6.9-19.8-3.2L285.6,224.2"/>
		<path class="st15" d="M74.7,231.8l56.4,64.7c1.3,1.4,1.2,3.6-0.2,5l-48,48L0,266.6l70.3-35.7C71.8,230.1,73.6,230.5,74.7,231.8z"
			/>
	</g>
	<g>
		<linearGradient id="SVGID_1_" gradientUnits="userSpaceOnUse" x1="116.1973" y1="76.8378" x2="371.527" y2="76.8378">
			<stop  offset="0" style="stop-color:#ECEEEE"/>
			<stop  offset="0.5326" style="stop-color:#EAECED"/>
			<stop  offset="0.7244" style="stop-color:#E3E6E7"/>
			<stop  offset="0.8611" style="stop-color:#D8DBDC"/>
			<stop  offset="0.9709" style="stop-color:#C7CBCD"/>
			<stop  offset="1" style="stop-color:#C1C6C8"/>
		</linearGradient>
		<path class="st5" d="M371.5,114.9c0-21.4-17.4-38.8-38.8-38.8c-2.5,0-5,0.3-7.4,0.7c0.7-2.6,1.1-5.4,1.1-8.3
			c0-17.9-14.5-32.5-32.5-32.5c-7.9,0-15.2,2.9-20.9,7.6C265.6,18.5,242.2,0,214.5,0c-33.8,0-61.2,27.4-61.2,61.2
			c0,2.6,0.2,5.2,0.5,7.7c-21.1,2.5-37.5,20.4-37.5,42.2c0,23.5,19,42.5,42.5,42.5h181C357.3,150,371.5,133.6,371.5,114.9z"/>
		<polygon class="st45" points="112.4,15.8 136,8.9 129.1,32.5 136,56.2 112.4,49.2 88.8,56.2 95.7,32.5 88.8,8.9 		"/>
		<polygon class="st92" points="83,83.8 95.7,80.1 92,92.8 95.7,105.6 83,101.8 70.3,105.6 74,92.8 70.3,80.1 		"/>
		<g>
			<g>
				<g>
					<path class="st7" d="M377.2,126.3l-0.3-0.1l-1.3-3l0.1-0.3c3.8-8.7,3.6-9,2.9-9.6l-5.1-5c-0.2-0.2-0.6-0.4-0.9-0.4
						c-0.3,0-1.2,0-8.7,3.4l-0.3,0.1l-3.1-1.3l-0.1-0.3c-3.6-8.8-3.9-8.8-4.8-8.8h-7.2c-0.9,0-1.3,0-4.6,8.8l-0.1,0.3l-3.1,1.3
						l-0.3-0.1c-5.1-2.2-8.1-3.3-8.9-3.3c-0.3,0-0.7,0.1-0.9,0.3l-5.1,5c-0.7,0.6-0.9,0.9,3.1,9.4l0.1,0.3l-1.3,3l-0.3,0.1
						c-9,3.5-9,3.8-9,4.7v7.1c0,0.9,0,1.3,9,4.5l0.3,0.1l1.3,3l-0.1,0.3c-3.8,8.7-3.6,8.9-2.9,9.6l5.1,5c0.2,0.2,0.6,0.4,0.9,0.4
						c0.3,0,1.2,0,8.7-3.4l0.3-0.1l3.1,1.3l0.1,0.3c3.6,8.8,3.9,8.8,4.8,8.8h7.2c0.9,0,1.3,0,4.6-8.8l0.1-0.3l3.1-1.3l0.3,0.1
						c5.1,2.2,8.1,3.3,8.9,3.3c0.3,0,0.7-0.1,0.9-0.3l5.1-5c0.6-0.6,0.9-0.9-3.1-9.4l-0.2-0.3l1.3-3l0.3-0.1c9-3.5,9-3.8,9-4.8v-7.1
						C386.2,129.9,386.2,129.5,377.2,126.3z M352.1,146c-6.5,0-11.7-5.2-11.7-11.5c0-6.3,5.3-11.5,11.7-11.5
						c6.5,0,11.7,5.2,11.7,11.5C363.8,140.8,358.5,146,352.1,146z"/>
				</g>
			</g>
		</g>
	</g>
</g>
</svg>
