<?xml version="1.0" encoding="utf-8"?>
<!-- Generator: Adobe Illustrator 24.0.0, SVG Export Plug-In . SVG Version: 6.00 Build 0)  -->
<svg version="1.1" id="Layer_1" xmlns="http://www.w3.org/2000/svg" xmlns:xlink="http://www.w3.org/1999/xlink" x="0px" y="0px"
	 viewBox="0 0 382.6 281.4" style="enable-background:new 0 0 382.6 281.4;" xml:space="preserve">
<style type="text/css">
	.st0{fill-rule:evenodd;clip-rule:evenodd;fill:#C1C6C8;fill-opacity:0.2;}
	.st1{fill-rule:evenodd;clip-rule:evenodd;fill:#005D91;fill-opacity:0.5;}
	.st2{fill:#FAE08C;}
	.st3{fill:#EFF0F0;}
	.st4{fill:#FFFFFF;}
	.st5{fill:url(#SVGID_1_);}
	.st6{fill:#4B4F54;}
	.st7{fill:#D93963;}
	.st8{fill:#62B5E5;}
	.st9{fill:#C1C6C8;}
	.st10{fill:#86ABC2;}
	.st11{fill:url(#SVGID_2_);}
	.st12{clip-path:url(#SVGID_4_);fill:#4B4F54;}
	.st13{fill:url(#SVGID_5_);}
	.st14{fill:url(#SVGID_6_);}
	.st15{fill:#005D91;}
	.st16{fill:none;stroke:#FFFFFF;stroke-width:4.7564;stroke-miterlimit:10;}
	.st17{fill:none;stroke:#005D91;stroke-width:21.7491;stroke-linecap:round;stroke-miterlimit:10;}
	.st18{fill:none;stroke:#62B5E5;stroke-width:11.4634;stroke-linecap:round;stroke-miterlimit:10;}
	.st19{fill:none;stroke:#4B4F54;stroke-width:16.0488;stroke-linecap:round;stroke-miterlimit:10;}
	.st20{fill:none;stroke:#C1C6C8;stroke-width:1.1891;stroke-miterlimit:10;}
	.st21{opacity:0.5;clip-path:url(#SVGID_8_);fill:url(#SVGID_9_);}
	.st22{opacity:0.25;clip-path:url(#SVGID_8_);}
	.st23{fill:none;stroke:#FFFFFF;stroke-width:175.8062;stroke-miterlimit:10;stroke-dasharray:25.1884,25.1884;}
	.st24{opacity:0.5;}
	.st25{fill:#4A8097;}
	.st26{opacity:0.5;clip-path:url(#SVGID_11_);fill:url(#SVGID_12_);}
	.st27{opacity:0.25;clip-path:url(#SVGID_11_);}
	.st28{fill:#81C4EA;}
	.st29{fill:#D1D1D1;}
	.st30{fill:#B7B7B7;}
	.st31{opacity:0.5;clip-path:url(#SVGID_14_);fill:url(#SVGID_15_);}
	.st32{opacity:0.25;clip-path:url(#SVGID_14_);}
	.st33{fill:none;stroke:#FFFFFF;stroke-width:175.4377;stroke-miterlimit:10;stroke-dasharray:25.1356,25.1356;}
	.st34{opacity:0.5;fill:#4A8097;}
	.st35{fill-rule:evenodd;clip-rule:evenodd;fill:#FFE07F;}
	.st36{fill-rule:evenodd;clip-rule:evenodd;fill:#62B5E5;fill-opacity:0.2;}
	.st37{fill:url(#SVGID_18_);}
	.st38{fill:#002F49;}
	.st39{fill:#C6E4F6;}
	.st40{fill:url(#SVGID_19_);}
	.st41{fill:url(#SVGID_20_);}
	.st42{fill:url(#SVGID_21_);}
	.st43{fill:url(#SVGID_22_);}
	.st44{fill:url(#SVGID_23_);}
	.st45{fill:#FFE07F;}
	.st46{fill:#005D91;fill-opacity:0.5;}
	.st47{filter:url(#Adobe_OpacityMaskFilter);}
	.st48{mask:url(#SVGID_24_);}
	.st49{fill:url(#SVGID_25_);}
	.st50{fill:url(#SVGID_26_);}
	.st51{fill:none;stroke:#4B4F54;stroke-width:4;stroke-linecap:round;stroke-miterlimit:10;stroke-dasharray:0,10;}
	.st52{fill-rule:evenodd;clip-rule:evenodd;fill:#62B5E5;}
	.st53{fill-rule:evenodd;clip-rule:evenodd;fill:none;stroke:#005D91;stroke-width:12;stroke-miterlimit:10;}
	.st54{opacity:0.5;clip-path:url(#SVGID_32_);fill:url(#SVGID_33_);}
	.st55{opacity:0.25;clip-path:url(#SVGID_32_);}
	.st56{fill:none;stroke:#FFFFFF;stroke-width:175.8062;stroke-miterlimit:10;stroke-dasharray:25.5444,25.5444;}
	.st57{opacity:0.5;clip-path:url(#SVGID_35_);fill:url(#SVGID_36_);}
	.st58{opacity:0.25;clip-path:url(#SVGID_35_);}
	.st59{opacity:0.5;clip-path:url(#SVGID_38_);fill:url(#SVGID_39_);}
	.st60{opacity:0.25;clip-path:url(#SVGID_38_);}
	.st61{fill:none;stroke:#FFFFFF;stroke-width:175.4377;stroke-miterlimit:10;stroke-dasharray:25.4908,25.4908;}
	.st62{fill:#FBFBFB;}
	.st63{fill:url(#SVGID_42_);}
	.st64{fill:url(#SVGID_43_);}
	.st65{fill:none;stroke:#4B4F54;stroke-width:3;stroke-linecap:round;stroke-miterlimit:10;stroke-dasharray:0,10;}
	.st66{fill-rule:evenodd;clip-rule:evenodd;fill:none;stroke:#005D91;stroke-width:6;stroke-miterlimit:10;}
	.st67{fill:none;stroke:#FFFFFF;stroke-width:3;stroke-linejoin:round;stroke-miterlimit:10;}
	.st68{fill:url(#SVGID_44_);}
	.st69{fill:#005D91;stroke:#FFFFFF;stroke-width:4;stroke-linejoin:round;stroke-miterlimit:10;}
	.st70{opacity:0.3;}
	.st71{fill:none;stroke:#FFFFFF;stroke-width:0.5;stroke-linejoin:round;stroke-miterlimit:10;}
	.st72{fill:url(#SVGID_45_);}
	.st73{fill:url(#SVGID_46_);}
	.st74{fill:url(#SVGID_47_);}
	.st75{fill:url(#SVGID_48_);}
	.st76{fill:url(#SVGID_49_);}
	.st77{fill:url(#SVGID_50_);}
	.st78{filter:url(#Adobe_OpacityMaskFilter_1_);}
	.st79{mask:url(#SVGID_51_);}
	.st80{fill:url(#SVGID_52_);}
	.st81{fill:url(#SVGID_53_);}
	.st82{fill:#4A88AC;}
	.st83{fill:none;stroke:#002F49;stroke-width:12;stroke-linecap:round;stroke-miterlimit:10;}
	.st84{fill:url(#SVGID_54_);}
	.st85{opacity:0.5;fill:#005D91;}
	.st86{opacity:0.5;clip-path:url(#SVGID_60_);fill:url(#SVGID_61_);}
	.st87{opacity:0.25;clip-path:url(#SVGID_60_);}
	.st88{opacity:0.5;clip-path:url(#SVGID_63_);fill:url(#SVGID_64_);}
	.st89{opacity:0.25;clip-path:url(#SVGID_63_);}
	.st90{opacity:0.5;clip-path:url(#SVGID_66_);fill:url(#SVGID_67_);}
	.st91{opacity:0.25;clip-path:url(#SVGID_66_);}
	.st92{fill:#81AA43;}
	.st93{fill:url(#SVGID_70_);}
	.st94{fill:url(#SVGID_71_);}
	.st95{fill:none;stroke:#FFFFFF;stroke-linejoin:round;stroke-miterlimit:10;}
	.st96{fill:url(#SVGID_72_);}
	.st97{fill:#005D91;stroke:#FFFFFF;stroke-width:2;stroke-linejoin:round;stroke-miterlimit:10;}
	.st98{fill:url(#SVGID_73_);}
	.st99{fill:#E888A1;}
	.st100{fill:#A32B4A;}
	.st101{fill:url(#SVGID_74_);}
	.st102{fill-rule:evenodd;clip-rule:evenodd;fill:#D93963;}
	.st103{fill:url(#SVGID_75_);}
	.st104{fill-rule:evenodd;clip-rule:evenodd;fill:#FBFBFB;}
	.st105{opacity:0.5;clip-path:url(#SVGID_81_);fill:url(#SVGID_82_);}
	.st106{opacity:0.25;clip-path:url(#SVGID_81_);}
	.st107{opacity:0.5;clip-path:url(#SVGID_84_);fill:url(#SVGID_85_);}
	.st108{opacity:0.25;clip-path:url(#SVGID_84_);}
	.st109{opacity:0.5;clip-path:url(#SVGID_87_);fill:url(#SVGID_88_);}
	.st110{opacity:0.25;clip-path:url(#SVGID_87_);}
	.st111{fill:url(#SVGID_91_);}
	.st112{fill:url(#SVGID_92_);}
	.st113{fill:url(#SVGID_93_);}
	.st114{fill:url(#SVGID_94_);}
	.st115{fill:url(#SVGID_95_);}
	.st116{fill:url(#SVGID_96_);}
	.st117{opacity:0.5;clip-path:url(#SVGID_102_);fill:url(#SVGID_103_);}
	.st118{opacity:0.25;clip-path:url(#SVGID_102_);}
	.st119{opacity:0.5;clip-path:url(#SVGID_105_);fill:url(#SVGID_106_);}
	.st120{opacity:0.25;clip-path:url(#SVGID_105_);}
	.st121{opacity:0.5;clip-path:url(#SVGID_108_);fill:url(#SVGID_109_);}
	.st122{opacity:0.25;clip-path:url(#SVGID_108_);}
	.st123{fill:url(#SVGID_112_);}
	.st124{fill:url(#SVGID_113_);}
	.st125{fill:url(#SVGID_114_);}
	.st126{fill:url(#SVGID_115_);}
	.st127{fill:url(#SVGID_116_);}
	.st128{fill:url(#SVGID_117_);}
	.st129{fill:url(#SVGID_118_);}
	.st130{fill:url(#SVGID_119_);}
	.st131{fill-rule:evenodd;clip-rule:evenodd;fill:#FFFFFF;fill-opacity:0.5;}
	.st132{fill:url(#SVGID_120_);}
	.st133{fill:url(#SVGID_121_);}
	.st134{fill:url(#SVGID_122_);}
	.st135{fill:url(#SVGID_123_);}
	.st136{fill:url(#SVGID_124_);}
	.st137{fill:url(#SVGID_125_);}
	.st138{fill:url(#SVGID_126_);}
	.st139{fill-rule:evenodd;clip-rule:evenodd;fill:#FFFFFF;}
	.st140{fill:url(#SVGID_127_);}
	.st141{opacity:0.5;clip-path:url(#SVGID_129_);fill:url(#SVGID_130_);}
	.st142{opacity:0.25;clip-path:url(#SVGID_129_);}
	.st143{opacity:0.5;clip-path:url(#SVGID_132_);fill:url(#SVGID_133_);}
	.st144{opacity:0.25;clip-path:url(#SVGID_132_);}
	.st145{opacity:0.5;clip-path:url(#SVGID_135_);fill:url(#SVGID_136_);}
	.st146{opacity:0.25;clip-path:url(#SVGID_135_);}
	.st147{fill:#00466D;}
</style>
<g>
	<polygon id="Fill-10_217_" class="st139" points="84.1,84.1 168.2,41.3 84.1,0 	"/>
	<polygon id="Fill-10_216_" class="st139" points="214.4,281.4 298.5,238.6 214.4,197.3 	"/>
	<polygon id="Fill-10_214_" class="st1" points="84.1,84.1 168.2,41.3 84.1,0 	"/>
	<polygon id="Fill-10_212_" class="st1" points="214.4,281.4 298.5,238.6 214.4,197.3 	"/>
	<polygon id="Fill-10_211_" class="st35" points="0,84.1 84.1,41.3 0,0 	"/>
	<polygon id="Fill-10_203_" class="st0" points="168.2,84.1 252.3,41.3 168.2,0 	"/>
	<polygon id="Fill-10_201_" class="st35" points="130.3,281.4 214.4,238.6 130.3,197.3 	"/>
	<polygon id="Fill-10_172_" class="st0" points="298.5,281.4 382.6,238.6 298.5,197.3 	"/>
	<g>
		<linearGradient id="SVGID_1_" gradientUnits="userSpaceOnUse" x1="30.3697" y1="140.4584" x2="338.401" y2="140.4584">
			<stop  offset="0" style="stop-color:#005D91"/>
			<stop  offset="0.5936" style="stop-color:#005B8F"/>
			<stop  offset="0.9559" style="stop-color:#002C50"/>
		</linearGradient>
		<path class="st5" d="M303.4,238.9h-273V42h308v161.8C338.4,223.2,322.7,238.9,303.4,238.9z"/>
		<path class="st97" d="M179.6,178.1c0-10-8.1-18.1-18.1-18.1c-1.2,0-2.3,0.1-3.5,0.3c0.3-1.2,0.5-2.5,0.5-3.9
			c0-8.4-6.8-15.2-15.2-15.2c-3.7,0-7.1,1.3-9.8,3.6c-3.5-11.8-14.5-20.5-27.5-20.5c-15.8,0-28.6,12.8-28.6,28.6
			c0,1.2,0.1,2.4,0.2,3.6c-9.9,1.2-17.6,9.6-17.6,19.8c0,11,8.9,19.9,19.9,19.9h84.7C173,194.5,179.6,186.9,179.6,178.1z"/>
		<g class="st70">
			<polyline class="st71" points="318.5,226.8 43.7,226.8 43.7,54.1 318.5,54.1 			"/>
			<g>
				<line class="st71" x1="71.2" y1="54.1" x2="71.2" y2="226.8"/>
				<line class="st71" x1="43.7" y1="54.1" x2="43.7" y2="226.8"/>
				<line class="st71" x1="98.7" y1="54.1" x2="98.7" y2="226.8"/>
				<line class="st71" x1="126.1" y1="54.1" x2="126.1" y2="226.8"/>
				<line class="st71" x1="153.6" y1="54.1" x2="153.6" y2="226.8"/>
				<line class="st71" x1="181.1" y1="54.1" x2="181.1" y2="226.8"/>
				<line class="st71" x1="208.6" y1="54.1" x2="208.6" y2="226.8"/>
				<line class="st71" x1="236" y1="54.1" x2="236" y2="226.8"/>
				<line class="st71" x1="263.5" y1="54.1" x2="263.5" y2="226.8"/>
				<line class="st71" x1="291" y1="54.1" x2="291" y2="226.8"/>
				<line class="st71" x1="318.5" y1="54.1" x2="318.5" y2="226.8"/>
			</g>
			<g>
				<line class="st71" x1="318.5" y1="79.2" x2="43.7" y2="79.2"/>
				<line class="st71" x1="318.5" y1="108.7" x2="43.7" y2="108.7"/>
				<line class="st71" x1="318.5" y1="138.3" x2="43.7" y2="138.3"/>
				<line class="st71" x1="318.5" y1="167.8" x2="43.7" y2="167.8"/>
				<line class="st71" x1="318.5" y1="197.3" x2="43.7" y2="197.3"/>
			</g>
		</g>
		<path class="st15" d="M338.4,198.9c0,0-7.1-19.2-39.9-19.2l0-156.8h0c35.3-4.5,39.9,19.2,39.9,19.2V198.9z"/>
		<polygon class="st45" points="236,190.6 244.1,188.2 241.7,196.3 244.1,204.3 236,201.9 228,204.3 230.4,196.3 228,188.2 		"/>
		<polygon class="st8" points="264.4,182.4 268.4,181.2 267.3,185.2 268.4,189.3 264.4,188.1 260.4,189.3 261.6,185.2 260.4,181.2 
					"/>
		<polygon class="st92" points="208.6,176.9 212.6,175.7 211.4,179.7 212.6,183.7 208.6,182.6 204.5,183.7 205.7,179.7 204.5,175.7 
					"/>
		<polygon class="st92" points="289,95.7 293,94.5 291.8,98.6 293,102.6 289,101.4 285,102.6 286.1,98.6 285,94.5 		"/>
	</g>
</g>
<g>
	<g>
		<g>
			<defs>
				
					<ellipse id="SVGID_128_" transform="matrix(0.7071 -0.7071 0.7071 0.7071 67.046 417.7255)" cx="537.8" cy="127.9" rx="119.3" ry="119.3"/>
			</defs>
			<clipPath id="SVGID_2_">
				<use xlink:href="#SVGID_128_"  style="overflow:visible;"/>
			</clipPath>
			<g style="opacity:0.25;clip-path:url(#SVGID_2_);">
				
					<ellipse transform="matrix(0.1602 -0.9871 0.9871 0.1602 325.343 638.2573)" class="st56" cx="537.8" cy="127.9" rx="81.3" ry="81.3"/>
			</g>
		</g>
	</g>
</g>
<g>
	<path class="st4" d="M160.9,153.8c-0.7,0.7-1.4,1.4-2.1,2.1c-0.1,0.1-0.2,0.2-0.3,0.3c0,0.1,0,0.1,0,0.2c0,0.5,0,1-0.1,1.4
		c0.1-0.1,0.2-0.3,0.4-0.4c0.2-0.3,0.5-0.5,0.7-0.8c0.7-0.7,1.4-1.4,2.1-2.1c11.4-11.1,26.4-17.2,42.2-17.2c8.7,0,17.1,1.9,24.9,5.4
		l0.5-0.9c-7.9-3.6-16.5-5.5-25.4-5.5C187.7,136.3,172.4,142.6,160.9,153.8z"/>
	<path class="st4" d="M169.2,161.8c0.3,0.2,0.6,0.3,1,0.5c9.1-8.6,21-13.4,33.6-13.4c6.6,0,13,1.3,18.9,3.8l0.5-0.9
		c-6.1-2.6-12.6-3.9-19.4-3.9C190.9,147.8,178.6,152.8,169.2,161.8z"/>
	<path class="st4" d="M153.4,145.1c0.3,0.2,0.5,0.4,0.7,0.7c13.5-12.9,31.1-20,49.7-20c10.8,0,21.3,2.4,30.8,6.9l0.5-0.9
		c-9.7-4.6-20.3-7.1-31.3-7.1C184.9,124.8,167.1,132,153.4,145.1z"/>
	<path class="st4" d="M84.9,196.3c0,0.1,0.1,0.3,0.1,0.4c0.1,0.1,0.2,0.1,0.4,0.1h11.5h11.5h11.5h11.5h11.5h11.5
		c0.3,0,0.5-0.2,0.5-0.5c0,0,0,0,0,0H84.9z"/>
	<path class="st4" d="M136.5,129.5c-1.1,1.1-2.2,2.2-3.3,3.4c0,0,0,0,0,0c-1,1.1-2.1,2.3-3,3.5c0,0,0,0-0.1,0.1
		c-0.1,0.2-0.2,0.3-0.4,0.5c0.2,0.3,0.4,0.6,0.6,0.9c0.2-0.2,0.4-0.5,0.6-0.7c0.7-0.8,1.3-1.5,2-2.3c0.3-0.4,0.7-0.8,1-1.2
		c1.1-1.1,2.1-2.3,3.2-3.4c17.9-17.6,41.5-27.3,66.6-27.3c15.1,0,29.6,3.5,42.7,10.2l0.5-0.9c-13.3-6.7-28-10.3-43.3-10.3
		C178.5,101.9,154.6,111.7,136.5,129.5z"/>
	<path class="st4" d="M203.8,78.9c-31.5,0-61.2,12.2-83.6,34.3c-3.7,3.6-7.1,7.5-10.2,11.5c0.4,0.1,0.8,0.1,1.1,0.2
		c3-3.8,6.3-7.4,9.8-10.9c22.2-21.9,51.6-34,82.9-34c19.3,0,38,4.6,54.7,13.4l0.5-0.9C242.2,83.6,223.3,78.9,203.8,78.9z"/>
	<path class="st4" d="M144.6,137.6c-1,1-2,2-2.9,3c-0.3,0.3-0.5,0.6-0.8,0.9c0.5-0.1,1-0.1,1.5-0.2c0,0,0,0,0.1-0.1
		c0.9-1,1.9-2,2.9-2.9c15.7-15.5,36.5-24,58.5-24c12.9,0,25.5,3,36.8,8.6l0.5-0.9c-11.5-5.7-24.2-8.7-37.3-8.7
		C181.6,113.4,160.5,122,144.6,137.6z"/>
	<path class="st4" d="M128.4,121.4c-0.6,0.6-1.3,1.3-1.9,1.9c-0.2,0.2-0.4,0.4-0.6,0.6c-0.4,0.4-0.8,0.9-1.2,1.3
		c-0.2,0.2-0.4,0.5-0.7,0.7c-0.4,0.4-0.7,0.8-1.1,1.2c-0.2,0.3-0.5,0.5-0.7,0.8c-0.3,0.3-0.5,0.6-0.8,0.9c0.3,0.2,0.6,0.4,0.8,0.6
		c0.2-0.2,0.4-0.4,0.5-0.6c0.3-0.3,0.6-0.7,0.8-1c0.3-0.4,0.6-0.7,1-1.1c0.3-0.3,0.5-0.6,0.8-0.9c0.4-0.4,0.8-0.8,1.1-1.2
		c0.2-0.2,0.4-0.5,0.7-0.7c0.6-0.6,1.2-1.3,1.8-1.9c20.1-19.8,46.6-30.7,74.7-30.7c17.2,0,33.8,4.1,48.7,11.8l0.5-0.9
		c-15-7.8-31.8-11.9-49.2-11.9C175.4,90.4,148.6,101.4,128.4,121.4z"/>
</g>
<g>
	<g>
		<g>
			<path class="st4" d="M278.1,130.8l-0.4-0.1l-1.5-3.6l0.2-0.4c4.5-10.2,4.2-10.5,3.5-11.3l-6-5.9c-0.2-0.2-0.7-0.4-1.1-0.4
				c-0.3,0-1.4,0-10.3,4l-0.4,0.2l-3.7-1.5l-0.1-0.4c-4.2-10.3-4.6-10.3-5.6-10.3h-8.5c-1,0-1.5,0-5.4,10.4l-0.1,0.4l-3.6,1.5
				l-0.3-0.1c-6-2.5-9.5-3.8-10.4-3.8c-0.4,0-0.8,0.2-1.1,0.4l-6,5.9c-0.8,0.8-1.1,1.1,3.7,11.1l0.2,0.4l-1.5,3.6l-0.4,0.1
				c-10.6,4.1-10.6,4.5-10.6,5.6v8.3c0,1.1,0,1.5,10.6,5.3l0.4,0.1l1.5,3.5l-0.2,0.4c-4.5,10.2-4.2,10.5-3.5,11.3l6,5.9
				c0.3,0.2,0.7,0.4,1.1,0.4c0.3,0,1.4,0,10.3-4l0.4-0.2l3.7,1.5l0.1,0.4c4.2,10.3,4.6,10.3,5.7,10.3h8.5c1.1,0,1.5,0,5.4-10.4
				l0.1-0.4l3.7-1.5l0.3,0.1c6,2.5,9.5,3.8,10.4,3.8c0.4,0,0.8-0.2,1.1-0.4l6-5.9c0.8-0.8,1.1-1.1-3.7-11.1l-0.2-0.4l1.5-3.5
				l0.4-0.1c10.6-4.1,10.6-4.5,10.6-5.6v-8.3C288.7,135.1,288.7,134.6,278.1,130.8z M248.6,154c-7.6,0-13.8-6.1-13.8-13.5
				c0-7.4,6.2-13.5,13.8-13.5c7.6,0,13.8,6.1,13.8,13.5C262.4,147.9,256.2,154,248.6,154z"/>
		</g>
	</g>
</g>
<polygon class="st45" points="263.5,85.5 271.9,83.1 269.5,91.5 271.9,99.9 263.5,97.4 255.1,99.9 257.6,91.5 255.1,83.1 "/>
</svg>
