<?xml version="1.0" encoding="utf-8"?>
<!-- Generator: Adobe Illustrator 24.0.0, SVG Export Plug-In . SVG Version: 6.00 Build 0)  -->
<svg version="1.1" id="Layer_1" xmlns="http://www.w3.org/2000/svg" xmlns:xlink="http://www.w3.org/1999/xlink" x="0px" y="0px"
	 viewBox="0 0 238.6 238.6" style="enable-background:new 0 0 238.6 238.6;" xml:space="preserve">
<style type="text/css">
	.st0{fill:#FFFFFF;}
	.st1{opacity:0.5;clip-path:url(#SVGID_2_);fill:#C4C4C4;enable-background:new    ;}
	.st2{opacity:0.25;clip-path:url(#SVGID_4_);}
	.st3{fill:none;stroke:#FFFFFF;stroke-width:175.8089;stroke-miterlimit:10.0002;stroke-dasharray:25.5448,25.5448;}
	.st4{fill:#4B4F54;}
	.st5{fill:#81C4EA;}
	.st6{fill:#4A8097;}
	.st7{fill:#D1D1D1;}
	.st8{fill:#62B5E5;}
</style>
<g>
	<circle class="st0" cx="119.3" cy="119.3" r="119.3"/>
	<g>
		<g>
			<g>
				<defs>
					<circle id="SVGID_1_" cx="119.3" cy="119.3" r="119.3"/>
				</defs>
				<clipPath id="SVGID_2_">
					<use xlink:href="#SVGID_1_"  style="overflow:visible;"/>
				</clipPath>
				<circle class="st1" cx="119.3" cy="119.3" r="119.3"/>
			</g>
			<g>
				<defs>
					<circle id="SVGID_3_" cx="119.3" cy="119.3" r="119.3"/>
				</defs>
				<clipPath id="SVGID_4_">
					<use xlink:href="#SVGID_3_"  style="overflow:visible;"/>
				</clipPath>
				<g class="st2">
					<ellipse class="st3" cx="119.3" cy="119.3" rx="81.3" ry="81.3"/>
				</g>
			</g>
		</g>
		<g>
			<g>
				<rect x="100.1" y="43.3" class="st4" width="41.3" height="9.4"/>
				<path class="st4" d="M100.1,43.3V78h-9.4V52.6C90.8,47.5,94.9,43.3,100.1,43.3L100.1,43.3z"/>
				<path class="st4" d="M150.8,52.6V78h-9.4V43.3l0,0C146.6,43.3,150.8,47.5,150.8,52.6z"/>
				<path class="st5" d="M33.7,100.7v-32c0-4.4,3.6-8,8-8h156.6c4.4,0,8,3.6,8,8v29.6"/>
				<rect x="33.7" y="80.7" class="st6" width="172.7" height="39"/>
				<path class="st0" d="M131.5,88.6h-23c-1.9,0-3.4-1.5-3.4-3.4v-8.1c0-1.9,1.5-3.4,3.4-3.4h23c1.9,0,3.4,1.5,3.4,3.4v8.1
					C134.9,87.1,133.4,88.6,131.5,88.6z"/>
				<circle class="st6" cx="121.9" cy="131.8" r="4.7"/>
				<g>
					<path class="st7" d="M203.7,83.9c7.2-7.2,9.6-17.4,7.2-26.5c-0.2-0.9-1.4-1.2-2-0.5L194,71.8c-2.1,2.1-5.4,2.1-7.5,0l-9.6-9.6
						c-2.1-2.1-2.1-5.4,0-7.5l14.9-14.9c0.7-0.7,0.4-1.8-0.5-2c-9.5-2.5-20,0.1-27.2,7.9c-7.4,7.9-9.2,19.3-5.5,28.9L98.1,126
						c-7.7,6.6-8.2,18.3-1,25.5s18.9,6.7,25.5-1l51.5-60.4C184,94,195.7,91.9,203.7,83.9z"/>
				</g>
				<path class="st8" d="M206.4,119.7v57.7c0,4.4-3.6,8-8,8H41.7c-4.4,0-8-3.6-8-8v-57.7"/>
			</g>
		</g>
	</g>
</g>
</svg>
