<?xml version="1.0" encoding="utf-8"?>
<!-- Generator: Adobe Illustrator 24.1.0, SVG Export Plug-In . SVG Version: 6.00 Build 0)  -->
<svg version="1.1" id="Layer_1" xmlns="http://www.w3.org/2000/svg" xmlns:xlink="http://www.w3.org/1999/xlink" x="0px" y="0px"
	 viewBox="0 0 650.5 407" style="enable-background:new 0 0 650.5 407;" xml:space="preserve">
<style type="text/css">
	.st0{fill:#00466D;}
	.st1{fill:#D93963;}
	.st2{fill:#FFFFFF;}
	.st3{fill:#81AA43;}
	.st4{fill:#FFE07F;}
	.st5{fill:#D1D1D1;}
	.st6{fill-rule:evenodd;clip-rule:evenodd;fill:#62B5E5;}
	.st7{fill-rule:evenodd;clip-rule:evenodd;fill:#FFE07F;}
</style>
<g>
	<g>
		<path class="st0" d="M570.1,0C541,0,514.3,13.3,493,38.6c-5.1,6.1-9.3,12.1-12.7,17.5C465.3,33.6,435.5,0,391.5,0
			c-44.3,0-80.4,36.1-80.4,80.4s36.1,80.4,80.4,80.4c29.1,0,55.8-13.3,77.1-38.6c5.1-6.1,9.3-12.1,12.7-17.5
			c15,22.5,44.7,56.1,88.8,56.1c44.3,0,80.4-36.1,80.4-80.4S614.4,0,570.1,0z M391.5,138.1c-31.8,0-57.7-25.9-57.7-57.7
			s25.9-57.7,57.7-57.7c41.6,0,68.6,42.6,76.8,57.4l-0.2,0.6l0.3,0.6C461,96.1,436.3,138.1,391.5,138.1z M570.1,138.1
			c-41.6,0-68.6-42.6-76.8-57.4l0.2-0.6l-0.3-0.6c7.3-14.8,32-56.8,76.8-56.8c31.8,0,57.7,25.9,57.7,57.7
			C627.8,112.2,601.9,138.1,570.1,138.1z"/>
		<g>
			<g>
				<g>
					<path class="st1" d="M212.2,93.6l-1-0.3l-3.8-9.1l0.4-0.9c11.5-26.2,10.7-27,8.8-28.9l-15.4-15c-0.6-0.6-1.7-1.1-2.7-1.1
						c-0.9,0-3.5,0-26.2,10.3l-0.9,0.4l-9.4-3.8l-0.4-0.9c-10.7-26.5-11.8-26.5-14.5-26.5h-21.7c-2.7,0-3.9,0-13.8,26.5l-0.4,1
						l-9.3,3.8l-0.9-0.4c-15.4-6.5-24.4-9.8-26.7-9.8c-1,0-2.1,0.4-2.7,1L56.3,55.1c-2,1.9-2.8,2.7,9.4,28.4l0.4,1l-3.8,9.1L61.4,94
						c-27.1,10.3-27.1,11.3-27.1,14v21.3c0,2.7,0,3.9,27.2,13.6l1,0.3l3.8,9.1l-0.4,0.9c-11.5,26.2-10.8,26.9-8.8,28.9l15.4,15
						c0.6,0.6,1.8,1.1,2.7,1.1s48.7,20.5,51.4,20.5h21.8c2.7,0,3.9,0,13.8-26.5l0.4-1l9.3-3.8l0.9,0.4c15.4,6.5,24.4,9.8,26.7,9.8
						c0.9,0,2.1-0.4,2.7-1l15.4-15.1c1.9-1.9,2.8-2.7-9.4-28.3l-0.5-1l3.8-9l0.9-0.4c27.1-10.5,27.1-11.6,27.1-14.3v-21.3
						C239.4,104.4,239.4,103.3,212.2,93.6z M136.9,152.8c-19.4,0-35.2-15.5-35.2-34.6c0-19,15.8-34.5,35.2-34.5s35.2,15.5,35.2,34.5
						C172.1,137.3,156.3,152.8,136.9,152.8z"/>
				</g>
			</g>
		</g>
		<g>
			<g>
				<g>
					<path class="st0" d="M16.4,321.9l0.6,0.4l1.1,6.7l-0.4,0.5C5.8,345.4,6.2,346.1,7.2,347.7l8,12.5c0.3,0.5,1,1,1.6,1.2
						c0.6,0.1,2.4,0.6,19.3-2.8l0.7-0.1l5.7,4l0.1,0.7c3,19.5,3.8,19.7,5.6,20.1l14.6,3.4c1.8,0.4,2.6,0.6,13.5-15.7l0.4-0.6
						l6.9-1.1l0.5,0.4c9.4,6.8,14.9,10.4,16.5,10.8c0.7,0.2,1.5,0.1,2-0.2l12.7-7.8c1.6-1,2.3-1.4-1.9-20.6l-0.1-0.7l4-5.5l0.7-0.1
						c19.9-2.7,20-3.3,20.5-5.2l3.4-14.4c0.4-1.8,0.6-2.6-16.2-13.5l-0.6-0.4l-1.1-6.7l0.4-0.5c11.9-15.9,11.5-16.4,10.5-18.1
						l-8-12.5c-0.3-0.5-1-1-1.6-1.2s-29.6-21.5-31.4-21.9l-14.7-3.4c-1.8-0.4-2.6-0.6-13.5,15.7l-0.4,0.6l-6.9,1.1l-0.5-0.4
						c-9.4-6.8-14.9-10.4-16.5-10.8c-0.6-0.1-1.5-0.1-2,0.2l-12.8,7.8c-1.6,1-2.3,1.4,1.9,20.6l0.2,0.8l-4,5.5l-0.7,0.1
						c-19.9,2.8-20.1,3.6-20.5,5.4l-3.4,14.4C-0.3,310.4-0.4,311.1,16.4,321.9z M76.4,293.9c13.1,3.1,21.3,16,18.3,28.9
						c-3,12.8-16.1,20.8-29.2,17.7c-13.1-3.1-21.3-16-18.3-28.8C50.3,298.8,63.4,290.8,76.4,293.9z"/>
				</g>
			</g>
		</g>
		<path class="st2" d="M548.1,258.6c0-37.4-30.4-67.8-67.8-67.8c-4.4,0-8.8,0.5-13,1.3c1.2-4.6,1.9-9.4,1.9-14.4
			c0-31.4-25.4-56.8-56.8-56.8c-13.9,0-26.6,5-36.5,13.3c-13.2-44.3-54.1-76.6-102.7-76.6c-59.2,0-107.1,48-107.1,107.1
			c0,4.6,0.3,9,0.9,13.5c-37,4.3-65.6,35.7-65.6,73.9c0,41.1,33.3,74.4,74.4,74.4h316.6C523.2,320,548.1,291.3,548.1,258.6z"/>
		<polygon class="st3" points="635.4,167.5 643,165.2 640.8,172.9 643,180.5 635.4,178.3 627.8,180.5 630,172.9 627.8,165.2 		"/>
		<polygon class="st4" points="582.2,184.6 595.4,180.7 591.6,193.9 595.4,207.1 582.2,203.2 569,207.1 572.9,193.9 569,180.7 		"/>
		<g>
			<path class="st5" d="M105.4,188.7c-14.1-14.1-34-18.8-52-14.1c-1.8,0.5-2.3,2.7-1.1,3.9l29.2,29.2c4.1,4.1,4.1,10.7,0,14.7
				l-18.8,18.8c-4.1,4.1-10.7,4.1-14.7,0L18.8,212c-1.3-1.3-3.5-0.7-3.9,1c-4.8,18.5,0.3,39.1,15.4,53.2
				c15.5,14.5,37.8,18,56.6,10.7l100.9,118.2c12.9,15.1,35.8,16,49.8,2s13.1-37-2-49.8L117.4,246.7
				C125.1,227.3,121,204.4,105.4,188.7z"/>
		</g>
		<g>
			<polygon id="Fill-10_176_" class="st6" points="449.9,375.5 548.1,325.5 449.9,277.3 			"/>
			<polygon id="Fill-10_171_" class="st7" points="351.6,375.5 449.9,325.5 351.6,277.3 			"/>
		</g>
	</g>
</g>
</svg>
