<?xml version="1.0" encoding="utf-8"?>
<!-- Generator: Adobe Illustrator 24.0.0, SVG Export Plug-In . SVG Version: 6.00 Build 0)  -->
<svg version="1.1" id="Layer_1" xmlns="http://www.w3.org/2000/svg" xmlns:xlink="http://www.w3.org/1999/xlink" x="0px" y="0px"
	 viewBox="0 0 363.7 270.3" style="enable-background:new 0 0 363.7 270.3;" xml:space="preserve">
<style type="text/css">
	.st0{fill-rule:evenodd;clip-rule:evenodd;fill:#C1C6C8;fill-opacity:0.2;}
	.st1{fill-rule:evenodd;clip-rule:evenodd;fill:#005D91;fill-opacity:0.5;}
	.st2{fill:#FAE08C;}
	.st3{fill:#EFF0F0;}
	.st4{fill:#FFFFFF;}
	.st5{fill:url(#SVGID_1_);}
	.st6{fill:#4B4F54;}
	.st7{fill:#D93963;}
	.st8{fill:#62B5E5;}
	.st9{fill:#C1C6C8;}
	.st10{fill:#86ABC2;}
	.st11{fill:url(#SVGID_2_);}
	.st12{clip-path:url(#SVGID_4_);fill:#4B4F54;}
	.st13{fill:url(#SVGID_5_);}
	.st14{fill:url(#SVGID_6_);}
	.st15{fill:#005D91;}
	.st16{fill:none;stroke:#FFFFFF;stroke-width:4.7564;stroke-miterlimit:10;}
	.st17{fill:none;stroke:#005D91;stroke-width:21.7491;stroke-linecap:round;stroke-miterlimit:10;}
	.st18{fill:none;stroke:#62B5E5;stroke-width:11.4634;stroke-linecap:round;stroke-miterlimit:10;}
	.st19{fill:none;stroke:#4B4F54;stroke-width:16.0488;stroke-linecap:round;stroke-miterlimit:10;}
	.st20{fill:none;stroke:#C1C6C8;stroke-width:1.1891;stroke-miterlimit:10;}
	.st21{opacity:0.5;clip-path:url(#SVGID_8_);fill:url(#SVGID_9_);}
	.st22{opacity:0.25;clip-path:url(#SVGID_8_);}
	.st23{fill:none;stroke:#FFFFFF;stroke-width:175.8062;stroke-miterlimit:10;stroke-dasharray:25.1884,25.1884;}
	.st24{opacity:0.5;}
	.st25{fill:#4A8097;}
	.st26{opacity:0.5;clip-path:url(#SVGID_11_);fill:url(#SVGID_12_);}
	.st27{opacity:0.25;clip-path:url(#SVGID_11_);}
	.st28{fill:#81C4EA;}
	.st29{fill:#D1D1D1;}
	.st30{fill:#B7B7B7;}
	.st31{opacity:0.5;clip-path:url(#SVGID_14_);fill:url(#SVGID_15_);}
	.st32{opacity:0.25;clip-path:url(#SVGID_14_);}
	.st33{fill:none;stroke:#FFFFFF;stroke-width:175.4377;stroke-miterlimit:10;stroke-dasharray:25.1356,25.1356;}
	.st34{opacity:0.5;fill:#4A8097;}
	.st35{fill-rule:evenodd;clip-rule:evenodd;fill:#FFE07F;}
	.st36{fill-rule:evenodd;clip-rule:evenodd;fill:#62B5E5;fill-opacity:0.2;}
	.st37{fill:url(#SVGID_18_);}
	.st38{fill:#002F49;}
	.st39{fill:#C6E4F6;}
	.st40{fill:url(#SVGID_19_);}
	.st41{fill:url(#SVGID_20_);}
	.st42{fill:url(#SVGID_21_);}
	.st43{fill:url(#SVGID_22_);}
	.st44{fill:url(#SVGID_23_);}
	.st45{fill:#FFE07F;}
	.st46{fill:#005D91;fill-opacity:0.5;}
	.st47{filter:url(#Adobe_OpacityMaskFilter);}
	.st48{mask:url(#SVGID_24_);}
	.st49{fill:url(#SVGID_25_);}
	.st50{fill:url(#SVGID_26_);}
	.st51{fill:none;stroke:#4B4F54;stroke-width:4;stroke-linecap:round;stroke-miterlimit:10;stroke-dasharray:0,10;}
	.st52{fill-rule:evenodd;clip-rule:evenodd;fill:#62B5E5;}
	.st53{fill-rule:evenodd;clip-rule:evenodd;fill:none;stroke:#005D91;stroke-width:12;stroke-miterlimit:10;}
	.st54{opacity:0.5;clip-path:url(#SVGID_32_);fill:url(#SVGID_33_);}
	.st55{opacity:0.25;clip-path:url(#SVGID_32_);}
	.st56{fill:none;stroke:#FFFFFF;stroke-width:175.8062;stroke-miterlimit:10;stroke-dasharray:25.5444,25.5444;}
	.st57{opacity:0.5;clip-path:url(#SVGID_35_);fill:url(#SVGID_36_);}
	.st58{opacity:0.25;clip-path:url(#SVGID_35_);}
	.st59{opacity:0.5;clip-path:url(#SVGID_38_);fill:url(#SVGID_39_);}
	.st60{opacity:0.25;clip-path:url(#SVGID_38_);}
	.st61{fill:none;stroke:#FFFFFF;stroke-width:175.4377;stroke-miterlimit:10;stroke-dasharray:25.4908,25.4908;}
	.st62{fill:#FBFBFB;}
	.st63{fill:url(#SVGID_42_);}
	.st64{fill:url(#SVGID_43_);}
	.st65{fill:none;stroke:#4B4F54;stroke-width:3;stroke-linecap:round;stroke-miterlimit:10;stroke-dasharray:0,10;}
	.st66{fill-rule:evenodd;clip-rule:evenodd;fill:none;stroke:#005D91;stroke-width:6;stroke-miterlimit:10;}
	.st67{fill:none;stroke:#FFFFFF;stroke-width:3;stroke-linejoin:round;stroke-miterlimit:10;}
	.st68{fill:url(#SVGID_44_);}
	.st69{fill:#005D91;stroke:#FFFFFF;stroke-width:4;stroke-linejoin:round;stroke-miterlimit:10;}
	.st70{opacity:0.3;}
	.st71{fill:none;stroke:#FFFFFF;stroke-width:0.5;stroke-linejoin:round;stroke-miterlimit:10;}
	.st72{fill:url(#SVGID_45_);}
	.st73{fill:url(#SVGID_46_);}
	.st74{fill:url(#SVGID_47_);}
	.st75{fill:url(#SVGID_48_);}
	.st76{fill:url(#SVGID_49_);}
	.st77{fill:url(#SVGID_50_);}
	.st78{filter:url(#Adobe_OpacityMaskFilter_1_);}
	.st79{mask:url(#SVGID_51_);}
	.st80{fill:url(#SVGID_52_);}
	.st81{fill:url(#SVGID_53_);}
	.st82{fill:#4A88AC;}
	.st83{fill:none;stroke:#002F49;stroke-width:12;stroke-linecap:round;stroke-miterlimit:10;}
	.st84{fill:url(#SVGID_54_);}
	.st85{opacity:0.5;fill:#005D91;}
	.st86{opacity:0.5;clip-path:url(#SVGID_60_);fill:url(#SVGID_61_);}
	.st87{opacity:0.25;clip-path:url(#SVGID_60_);}
	.st88{opacity:0.5;clip-path:url(#SVGID_63_);fill:url(#SVGID_64_);}
	.st89{opacity:0.25;clip-path:url(#SVGID_63_);}
	.st90{opacity:0.5;clip-path:url(#SVGID_66_);fill:url(#SVGID_67_);}
	.st91{opacity:0.25;clip-path:url(#SVGID_66_);}
	.st92{fill:#81AA43;}
	.st93{fill:url(#SVGID_70_);}
	.st94{fill:url(#SVGID_71_);}
	.st95{fill:none;stroke:#FFFFFF;stroke-linejoin:round;stroke-miterlimit:10;}
	.st96{fill:url(#SVGID_72_);}
	.st97{fill:#005D91;stroke:#FFFFFF;stroke-width:2;stroke-linejoin:round;stroke-miterlimit:10;}
	.st98{fill:url(#SVGID_73_);}
	.st99{fill:#E888A1;}
	.st100{fill:#A32B4A;}
	.st101{fill:url(#SVGID_74_);}
	.st102{fill-rule:evenodd;clip-rule:evenodd;fill:#D93963;}
	.st103{fill:url(#SVGID_75_);}
	.st104{fill-rule:evenodd;clip-rule:evenodd;fill:#FBFBFB;}
	.st105{opacity:0.5;clip-path:url(#SVGID_81_);fill:url(#SVGID_82_);}
	.st106{opacity:0.25;clip-path:url(#SVGID_81_);}
	.st107{opacity:0.5;clip-path:url(#SVGID_84_);fill:url(#SVGID_85_);}
	.st108{opacity:0.25;clip-path:url(#SVGID_84_);}
	.st109{opacity:0.5;clip-path:url(#SVGID_87_);fill:url(#SVGID_88_);}
	.st110{opacity:0.25;clip-path:url(#SVGID_87_);}
	.st111{fill:url(#SVGID_91_);}
	.st112{fill:url(#SVGID_92_);}
	.st113{fill:url(#SVGID_93_);}
	.st114{fill:url(#SVGID_94_);}
	.st115{fill:url(#SVGID_95_);}
	.st116{fill:url(#SVGID_96_);}
	.st117{opacity:0.5;clip-path:url(#SVGID_102_);fill:url(#SVGID_103_);}
	.st118{opacity:0.25;clip-path:url(#SVGID_102_);}
	.st119{opacity:0.5;clip-path:url(#SVGID_105_);fill:url(#SVGID_106_);}
	.st120{opacity:0.25;clip-path:url(#SVGID_105_);}
	.st121{opacity:0.5;clip-path:url(#SVGID_108_);fill:url(#SVGID_109_);}
	.st122{opacity:0.25;clip-path:url(#SVGID_108_);}
	.st123{fill:url(#SVGID_112_);}
	.st124{fill:url(#SVGID_113_);}
	.st125{fill:url(#SVGID_114_);}
	.st126{fill:url(#SVGID_115_);}
	.st127{fill:url(#SVGID_116_);}
	.st128{fill:url(#SVGID_117_);}
	.st129{fill:url(#SVGID_118_);}
	.st130{fill:url(#SVGID_119_);}
	.st131{fill-rule:evenodd;clip-rule:evenodd;fill:#FFFFFF;fill-opacity:0.5;}
	.st132{fill:url(#SVGID_120_);}
	.st133{fill:url(#SVGID_121_);}
	.st134{fill:url(#SVGID_122_);}
	.st135{fill:url(#SVGID_123_);}
	.st136{fill:url(#SVGID_124_);}
	.st137{fill:url(#SVGID_125_);}
	.st138{fill:url(#SVGID_126_);}
	.st139{fill-rule:evenodd;clip-rule:evenodd;fill:#FFFFFF;}
	.st140{fill:url(#SVGID_127_);}
	.st141{opacity:0.5;clip-path:url(#SVGID_129_);fill:url(#SVGID_130_);}
	.st142{opacity:0.25;clip-path:url(#SVGID_129_);}
	.st143{opacity:0.5;clip-path:url(#SVGID_132_);fill:url(#SVGID_133_);}
	.st144{opacity:0.25;clip-path:url(#SVGID_132_);}
	.st145{opacity:0.5;clip-path:url(#SVGID_135_);fill:url(#SVGID_136_);}
	.st146{opacity:0.25;clip-path:url(#SVGID_135_);}
	.st147{fill:#00466D;}
</style>
<g>
	<g>
		<linearGradient id="SVGID_1_" gradientUnits="userSpaceOnUse" x1="175.4455" y1="65.643" x2="363.7354" y2="65.643">
			<stop  offset="0" style="stop-color:#ECEEEE"/>
			<stop  offset="0.5326" style="stop-color:#EAECED"/>
			<stop  offset="0.7244" style="stop-color:#E3E6E7"/>
			<stop  offset="0.8611" style="stop-color:#D8DBDC"/>
			<stop  offset="0.9709" style="stop-color:#C7CBCD"/>
			<stop  offset="1" style="stop-color:#C1C6C8"/>
		</linearGradient>
		<path class="st5" d="M363.7,93.7c0-15.8-12.8-28.6-28.6-28.6c-1.9,0-3.7,0.2-5.5,0.5c0.5-1.9,0.8-4,0.8-6.1
			c0-13.2-10.7-23.9-23.9-23.9c-5.9,0-11.2,2.1-15.4,5.6C285.6,22.6,268.4,9,247.9,9c-24.9,0-45.2,20.2-45.2,45.2
			c0,1.9,0.1,3.8,0.4,5.7c-15.6,1.8-27.7,15.1-27.7,31.1c0,17.3,14,31.4,31.4,31.4h133.5C353.3,119.6,363.7,107.5,363.7,93.7z"/>
		<linearGradient id="SVGID_2_" gradientUnits="userSpaceOnUse" x1="2.0072" y1="199.7917" x2="190.2971" y2="199.7917">
			<stop  offset="0" style="stop-color:#ECEEEE"/>
			<stop  offset="0.5326" style="stop-color:#EAECED"/>
			<stop  offset="0.7244" style="stop-color:#E3E6E7"/>
			<stop  offset="0.8611" style="stop-color:#D8DBDC"/>
			<stop  offset="0.9709" style="stop-color:#C7CBCD"/>
			<stop  offset="1" style="stop-color:#C1C6C8"/>
		</linearGradient>
		<path class="st11" d="M190.3,227.9c0-15.8-12.8-28.6-28.6-28.6c-1.9,0-3.7,0.2-5.5,0.5c0.5-1.9,0.8-4,0.8-6.1
			c0-13.2-10.7-23.9-23.9-23.9c-5.9,0-11.2,2.1-15.4,5.6c-5.5-18.7-22.8-32.3-43.3-32.3c-24.9,0-45.2,20.2-45.2,45.2
			c0,1.9,0.1,3.8,0.4,5.7C14.1,195.8,2,209,2,225.1c0,17.3,14,31.4,31.4,31.4h133.5C179.8,253.7,190.3,241.6,190.3,227.9z"/>
	</g>
	<g>
		<path class="st6" d="M111.6,80.2c-0.7-0.5-0.8-1.4-0.3-2.1l0,0c0.5-0.7,1.4-0.8,2.1-0.3l0,0c0.7,0.5,0.8,1.4,0.3,2.1l0,0
			c-0.3,0.4-0.7,0.6-1.2,0.6l0,0C112.2,80.5,111.9,80.4,111.6,80.2z M103.6,74.1c-0.7-0.5-0.8-1.5-0.3-2.1l0,0
			c0.5-0.7,1.4-0.8,2.1-0.3l0,0c0.7,0.5,0.8,1.4,0.3,2.1l0,0c-0.3,0.4-0.7,0.6-1.2,0.6l0,0C104.2,74.4,103.9,74.3,103.6,74.1z
			 M95.7,68.1c-0.7-0.5-0.8-1.4-0.3-2.1l0,0c0.5-0.7,1.4-0.8,2.1-0.3l0,0c0.7,0.5,0.8,1.5,0.3,2.1l0,0c-0.3,0.4-0.8,0.6-1.2,0.6l0,0
			C96.3,68.4,96,68.3,95.7,68.1z M87.7,62c-0.7-0.5-0.8-1.4-0.3-2.1l0,0c0.5-0.7,1.4-0.8,2.1-0.3l0,0c0.7,0.5,0.8,1.4,0.3,2.1l0,0
			c-0.3,0.4-0.8,0.6-1.2,0.6l0,0C88.3,62.3,88,62.2,87.7,62z M79.8,55.9c-0.7-0.5-0.8-1.4-0.3-2.1l0,0c0.5-0.7,1.4-0.8,2.1-0.3l0,0
			c0.7,0.5,0.8,1.4,0.3,2.1l0,0c-0.3,0.4-0.8,0.6-1.2,0.6l0,0C80.4,56.2,80.1,56.1,79.8,55.9z M71.8,49.9c-0.7-0.5-0.8-1.5-0.3-2.1
			l0,0c0.5-0.6,1.4-0.8,2.1-0.3l0,0c0.7,0.5,0.8,1.4,0.3,2.1l0,0c-0.3,0.4-0.8,0.6-1.2,0.6l0,0C72.4,50.2,72.1,50.1,71.8,49.9z"/>
	</g>
	<g>
		<path class="st6" d="M264.6,125.3c-0.1-0.8,0.5-1.6,1.4-1.6l0,0c0.8-0.1,1.6,0.5,1.6,1.4l0,0c0.1,0.8-0.5,1.6-1.3,1.6l0,0
			c-0.1,0-0.1,0-0.1,0l0,0C265.3,126.7,264.7,126.1,264.6,125.3z M274.5,124.4c-0.1-0.8,0.5-1.6,1.4-1.6l0,0
			c0.8-0.1,1.5,0.5,1.6,1.4l0,0c0.1,0.8-0.5,1.5-1.4,1.6l0,0c0,0-0.1,0-0.1,0l0,0C275.3,125.7,274.6,125.2,274.5,124.4z
			 M284.5,123.5c-0.1-0.8,0.5-1.6,1.4-1.6l0,0c0.8-0.1,1.5,0.5,1.6,1.4l0,0c0.1,0.8-0.5,1.6-1.4,1.6l0,0c0,0-0.1,0-0.1,0l0,0
			C285.2,124.8,284.6,124.3,284.5,123.5z M294.5,122.6c-0.1-0.8,0.5-1.6,1.4-1.6l0,0c0.8-0.1,1.5,0.5,1.6,1.4l0,0
			c0.1,0.8-0.5,1.5-1.4,1.6l0,0c0,0-0.1,0-0.1,0l0,0C295.2,123.9,294.5,123.4,294.5,122.6z"/>
	</g>
	<g>
		<path class="st6" d="M333.8,180.4c-0.8-0.2-1.2-1.1-1-1.9l0,0c0.2-0.8,1.1-1.2,1.9-1l0,0c0.8,0.2,1.2,1.1,1,1.9l0,0
			c-0.2,0.7-0.8,1.1-1.4,1.1l0,0C334.1,180.5,334,180.4,333.8,180.4z M324.2,177.5c-0.8-0.2-1.2-1.1-1-1.9l0,0
			c0.2-0.8,1.1-1.2,1.9-1l0,0c0.8,0.2,1.2,1.1,1,1.9l0,0c-0.2,0.7-0.8,1.1-1.4,1.1l0,0C324.5,177.5,324.4,177.5,324.2,177.5z
			 M314.7,174.6c-0.8-0.2-1.2-1.1-1-1.9l0,0c0.2-0.8,1.1-1.2,1.9-1l0,0c0.8,0.2,1.2,1.1,1,1.9l0,0c-0.2,0.6-0.8,1.1-1.4,1.1l0,0
			C315,174.6,314.8,174.6,314.7,174.6z M305.1,171.6c-0.8-0.2-1.2-1.1-1-1.9l0,0c0.2-0.8,1.1-1.2,1.9-1l0,0c0.8,0.2,1.2,1.1,1,1.9
			l0,0c-0.2,0.6-0.8,1.1-1.4,1.1l0,0C305.4,171.7,305.3,171.7,305.1,171.6z M295.6,168.7c-0.8-0.2-1.2-1.1-1-1.9l0,0
			c0.2-0.8,1.1-1.2,1.9-1l0,0c0.8,0.2,1.2,1.1,1,1.9l0,0c-0.2,0.7-0.8,1.1-1.4,1.1l0,0C295.9,168.8,295.7,168.8,295.6,168.7z
			 M286,165.8c-0.8-0.2-1.2-1.1-1-1.9l0,0c0.2-0.8,1.1-1.2,1.9-1l0,0c0.8,0.2,1.2,1.1,1,1.9l0,0c-0.2,0.6-0.8,1.1-1.4,1.1l0,0
			C286.3,165.9,286.1,165.8,286,165.8z M276.4,162.9c-0.8-0.2-1.2-1.1-1-1.9l0,0c0.2-0.8,1.1-1.2,1.9-1l0,0c0.8,0.2,1.2,1.1,1,1.9
			l0,0c-0.2,0.6-0.8,1.1-1.4,1.1l0,0C276.7,162.9,276.6,162.9,276.4,162.9z M266.9,159.9c-0.8-0.2-1.2-1.1-1-1.9l0,0
			c0.2-0.8,1.1-1.2,1.9-1l0,0c0.8,0.2,1.2,1.1,1,1.9l0,0c-0.2,0.6-0.8,1.1-1.4,1.1l0,0C267.2,160,267,160,266.9,159.9z M257.3,157
			c-0.8-0.2-1.2-1.1-1-1.9l0,0c0.2-0.8,1.1-1.2,1.9-1l0,0c0.8,0.2,1.2,1.1,1,1.9l0,0c-0.2,0.6-0.8,1.1-1.4,1.1l0,0
			C257.6,157.1,257.4,157.1,257.3,157z"/>
	</g>
	<g>
		<path class="st6" d="M273.5,220.7c-0.6-0.6-0.6-1.5-0.1-2.1l0,0c0.6-0.6,1.5-0.6,2.1-0.1l0,0c0.6,0.6,0.6,1.5,0,2.1l0,0
			c-0.3,0.3-0.7,0.5-1.1,0.5l0,0C274.2,221.1,273.8,221,273.5,220.7z M266.3,213.8c-0.6-0.6-0.6-1.5-0.1-2.1l0,0
			c0.6-0.6,1.5-0.6,2.1-0.1l0,0c0.6,0.6,0.6,1.5,0.1,2.1l0,0c-0.3,0.3-0.7,0.5-1.1,0.5l0,0C266.9,214.2,266.5,214.1,266.3,213.8z
			 M259,206.9c-0.6-0.6-0.6-1.5-0.1-2.1l0,0c0.6-0.6,1.5-0.6,2.1-0.1l0,0c0.6,0.6,0.6,1.5,0.1,2.1l0,0c-0.3,0.3-0.7,0.5-1.1,0.5l0,0
			C259.7,207.3,259.3,207.2,259,206.9z M251.7,200.1c-0.6-0.6-0.6-1.5-0.1-2.1l0,0c0.6-0.6,1.5-0.6,2.1-0.1l0,0
			c0.6,0.6,0.6,1.5,0.1,2.1l0,0c-0.3,0.3-0.7,0.5-1.1,0.5l0,0C252.4,200.5,252,200.3,251.7,200.1z M244.5,193.2
			c-0.6-0.6-0.6-1.5-0.1-2.1l0,0c0.6-0.6,1.5-0.6,2.1-0.1l0,0c0.6,0.6,0.6,1.5,0.1,2.1l0,0c-0.3,0.3-0.7,0.5-1.1,0.5l0,0
			C245.1,193.6,244.8,193.4,244.5,193.2z M235.7,184.8c-0.6-0.6-0.6-1.5,0-2.1l0,0c0.6-0.6,1.5-0.6,2.1-0.1l0,0
			c0.6,0.6,0.6,1.5,0.1,2.1l0,0c-0.3,0.3-0.7,0.5-1.1,0.5l0,0C236.4,185.2,236,185.1,235.7,184.8z"/>
	</g>
	<g>
		<path class="st6" d="M100.9,119.3c-0.8-0.1-1.4-0.9-1.2-1.7l0,0c0.2-0.8,0.9-1.4,1.8-1.2l0,0c0.8,0.1,1.4,0.9,1.2,1.8l0,0
			c-0.1,0.7-0.8,1.2-1.5,1.2l0,0C101.1,119.3,101,119.3,100.9,119.3z M91.1,117.5c-0.8-0.1-1.3-0.9-1.2-1.7l0,0
			c0.1-0.8,0.9-1.4,1.7-1.2l0,0c0.8,0.1,1.4,0.9,1.2,1.8l0,0c-0.1,0.7-0.8,1.2-1.5,1.2l0,0C91.3,117.5,91.2,117.5,91.1,117.5z
			 M81.2,115.7c-0.8-0.1-1.3-0.9-1.2-1.8l0,0c0.2-0.8,0.9-1.3,1.7-1.2l0,0c0.8,0.1,1.4,0.9,1.2,1.7l0,0c-0.1,0.7-0.8,1.2-1.5,1.2
			l0,0C81.4,115.7,81.3,115.7,81.2,115.7z M71.4,113.9c-0.8-0.1-1.4-0.9-1.2-1.8l0,0c0.2-0.8,0.9-1.4,1.8-1.2l0,0
			c0.8,0.2,1.3,0.9,1.2,1.8l0,0c-0.1,0.7-0.8,1.2-1.5,1.2l0,0C71.6,113.9,71.5,113.9,71.4,113.9z M61.6,112.1
			c-0.8-0.1-1.4-0.9-1.2-1.7l0,0c0.2-0.8,0.9-1.4,1.8-1.2l0,0c0.8,0.1,1.3,0.9,1.2,1.8l0,0c-0.1,0.7-0.8,1.2-1.5,1.2l0,0
			C61.8,112.1,61.7,112.1,61.6,112.1z"/>
	</g>
	<g>
		<path class="st6" d="M34,172.5c-0.2-0.8,0.3-1.6,1.1-1.8l0,0c0.8-0.2,1.6,0.3,1.8,1.1l0,0c0.2,0.8-0.3,1.6-1.1,1.8l0,0
			c-0.1,0-0.3,0.1-0.4,0.1l0,0C34.8,173.6,34.2,173.2,34,172.5z M43.6,169.9c-0.2-0.8,0.3-1.6,1.1-1.8l0,0c0.8-0.2,1.6,0.3,1.8,1.1
			l0,0c0.2,0.8-0.3,1.6-1.1,1.8l0,0c-0.1,0-0.3,0.1-0.4,0.1l0,0C44.4,171.1,43.8,170.6,43.6,169.9z M53.3,167.4
			c-0.2-0.8,0.3-1.6,1.1-1.8l0,0c0.8-0.2,1.6,0.3,1.8,1.1l0,0c0.2,0.8-0.3,1.6-1.1,1.8l0,0c-0.1,0-0.3,0.1-0.4,0.1l0,0
			C54.1,168.5,53.5,168,53.3,167.4z M63,164.8c-0.2-0.8,0.3-1.6,1.1-1.8l0,0c0.8-0.2,1.6,0.3,1.8,1.1l0,0c0.2,0.8-0.3,1.6-1.1,1.8
			l0,0c-0.1,0-0.3,0.1-0.4,0.1l0,0C63.8,165.9,63.1,165.4,63,164.8z M72.6,162.2c-0.2-0.8,0.3-1.6,1.1-1.8l0,0
			c0.8-0.2,1.6,0.3,1.8,1.1l0,0c0.2,0.8-0.3,1.6-1.1,1.8l0,0c-0.1,0-0.3,0.1-0.4,0.1l0,0C73.4,163.3,72.8,162.9,72.6,162.2z
			 M82.3,159.6c-0.2-0.8,0.3-1.6,1.1-1.8l0,0c0.8-0.2,1.6,0.3,1.8,1.1l0,0c0.2,0.8-0.3,1.6-1.1,1.8l0,0c-0.1,0-0.3,0.1-0.4,0.1l0,0
			C83.1,160.7,82.5,160.3,82.3,159.6z M101.6,154.4c-0.2-0.8,0.3-1.6,1.1-1.8l0,0c0.8-0.2,1.6,0.3,1.8,1.1l0,0
			c0.2,0.8-0.3,1.6-1.1,1.8l0,0c-0.1,0-0.3,0.1-0.4,0.1l0,0C102.4,155.6,101.8,155.1,101.6,154.4z"/>
	</g>
	<g>
		<circle class="st52" cx="182.9" cy="132.7" r="71.8"/>
		<circle class="st66" cx="182.9" cy="132.7" r="95"/>
		<ellipse class="st66" cx="182.9" cy="132.7" rx="71.8" ry="95"/>
		<ellipse class="st66" cx="182.9" cy="132.7" rx="26.4" ry="95"/>
	</g>
	<polygon class="st45" points="48.9,6.8 72.1,0 65.3,23.2 72.1,46.3 48.9,39.6 25.7,46.3 32.5,23.2 25.7,0 	"/>
	<polygon class="st45" points="303.6,230.7 326.7,223.9 320,247.1 326.7,270.3 303.6,263.5 280.4,270.3 287.2,247.1 280.4,223.9 	
		"/>
	<polygon class="st4" points="42.2,98.8 53.8,95.4 50.4,107 53.8,118.6 42.2,115.2 30.6,118.6 34,107 30.6,95.4 	"/>
	<polygon class="st4" points="352.1,176.6 363.7,173.2 360.3,184.8 363.7,196.4 352.1,193 340.6,196.4 343.9,184.8 340.6,173.2 	"/>
	<polygon class="st92" points="42.2,98.8 53.8,95.4 50.4,107 53.8,118.6 42.2,115.2 30.6,118.6 34,107 30.6,95.4 	"/>
	<polygon class="st92" points="352.1,176.6 363.7,173.2 360.3,184.8 363.7,196.4 352.1,193 340.6,196.4 343.9,184.8 340.6,173.2 	
		"/>
	<g>
		<g>
			<g>
				<path class="st7" d="M332.9,108.6l-0.2-0.1l-0.8-2l0.1-0.2c2.5-5.7,2.4-5.9,1.9-6.3l-3.4-3.3c-0.1-0.1-0.4-0.2-0.6-0.2
					c-0.2,0-0.8,0-5.7,2.3l-0.2,0.1l-2.1-0.8l-0.1-0.2c-2.3-5.8-2.6-5.8-3.2-5.8h-4.8c-0.6,0-0.8,0-3,5.8l-0.1,0.2l-2,0.8l-0.2-0.1
					c-3.4-1.4-5.3-2.1-5.9-2.1c-0.2,0-0.5,0.1-0.6,0.2l-3.4,3.3c-0.4,0.4-0.6,0.6,2.1,6.2l0.1,0.2l-0.8,2l-0.2,0.1
					c-5.9,2.3-5.9,2.5-5.9,3.1v4.7c0,0.6,0,0.8,6,3l0.2,0.1l0.8,2l-0.1,0.2c-2.5,5.7-2.4,5.9-1.9,6.3l3.4,3.3
					c0.1,0.1,0.4,0.2,0.6,0.2c0.2,0,0.8,0,5.7-2.3l0.2-0.1l2.1,0.8l0.1,0.2c2.3,5.8,2.6,5.8,3.2,5.8h4.8c0.6,0,0.8,0,3-5.8l0.1-0.2
					l2-0.8l0.2,0.1c3.4,1.4,5.3,2.1,5.8,2.1c0.2,0,0.5-0.1,0.6-0.2l3.4-3.3c0.4-0.4,0.6-0.6-2.1-6.2l-0.1-0.2l0.8-2l0.2-0.1
					c5.9-2.3,5.9-2.5,5.9-3.1v-4.7C338.8,110.9,338.8,110.7,332.9,108.6z M316.4,121.5c-4.3,0-7.7-3.4-7.7-7.6
					c0-4.2,3.5-7.6,7.7-7.6c4.3,0,7.7,3.4,7.7,7.6C324.1,118.1,320.6,121.5,316.4,121.5z"/>
			</g>
		</g>
	</g>
	<g>
		<g>
			<g>
				<path class="st7" d="M39,172.2l-0.2-0.1l-0.8-2l0.1-0.2c2.5-5.7,2.4-5.9,1.9-6.3l-3.4-3.3c-0.1-0.1-0.4-0.2-0.6-0.2
					c-0.2,0-0.8,0-5.7,2.3l-0.2,0.1l-2.1-0.8l-0.1-0.2c-2.3-5.8-2.6-5.8-3.2-5.8H20c-0.6,0-0.8,0-3,5.8l-0.1,0.2l-2,0.8l-0.2-0.1
					c-3.4-1.4-5.3-2.1-5.9-2.1c-0.2,0-0.5,0.1-0.6,0.2l-3.4,3.3c-0.4,0.4-0.6,0.6,2.1,6.2l0.1,0.2l-0.8,2l-0.2,0.1
					C0,174.6,0,174.8,0,175.4v4.7c0,0.6,0,0.8,6,3l0.2,0.1l0.8,2l-0.1,0.2c-2.5,5.7-2.4,5.9-1.9,6.3l3.4,3.3
					c0.1,0.1,0.4,0.2,0.6,0.2c0.2,0,0.8,0,5.7-2.3l0.2-0.1l2.1,0.8l0.1,0.2c2.3,5.8,2.6,5.8,3.2,5.8H25c0.6,0,0.8,0,3-5.8l0.1-0.2
					l2-0.8l0.2,0.1c3.4,1.4,5.3,2.1,5.8,2.1c0.2,0,0.5-0.1,0.6-0.2l3.4-3.3c0.4-0.4,0.6-0.6-2.1-6.2L38,185l0.8-2L39,183
					c5.9-2.3,5.9-2.5,5.9-3.1v-4.7C44.9,174.6,44.9,174.3,39,172.2z M22.5,185.2c-4.3,0-7.7-3.4-7.7-7.6c0-4.2,3.5-7.6,7.7-7.6
					c4.3,0,7.7,3.4,7.7,7.6C30.2,181.8,26.7,185.2,22.5,185.2z"/>
			</g>
		</g>
	</g>
</g>
</svg>
