<?xml version="1.0" encoding="UTF-8"?>
<svg width="801px" height="511px" viewBox="0 0 801 511" version="1.1" xmlns="http://www.w3.org/2000/svg" xmlns:xlink="http://www.w3.org/1999/xlink">
    <!-- Generator: Sketch 63.1 (92452) - https://sketch.com -->
    <title>stars</title>
    <desc>Created with Sketch.</desc>
    <defs>
        <polygon id="path-1" points="0.61 510 800.61 510 800.61 0 0.61 0"></polygon>
    </defs>
    <g id="Page-1" stroke="none" stroke-width="1" fill="none" fill-rule="evenodd" opacity="0.5">
        <g id="stars" style="mix-blend-mode: multiply;">
            <g id="Group-814" transform="translate(0.000000, 0.741000)">
                <mask id="mask-2" fill="white">
                    <use xlink:href="#path-1"></use>
                </mask>
                <use id="Mask" fill="#FFFFFF" xlink:href="#path-1"></use>
                <g mask="url(#mask-2)" id="Group-813">
                    <g transform="translate(-19.000000, -286.000000)">
                        <g>
                            <path d="M86.6681,472.2256 C86.1721,472.4166 85.6151,472.1706 85.4231,471.6746 C85.2321,471.1786 85.4791,470.6216 85.9751,470.4296 C86.4711,470.2386 87.0281,470.4846 87.2201,470.9806 C87.4111,471.4766 87.1641,472.0346 86.6681,472.2256" id="Fill-2" fill="#62B5E5"></path>
                            <path d="M226.3585,444.2822 C226.4785,443.1712 227.4775,442.3672 228.5885,442.4872 C229.7005,442.6072 230.5045,443.6062 230.3845,444.7182 C230.2645,445.8302 229.2655,446.6342 228.1535,446.5132 C227.0425,446.3922 226.2385,445.3942 226.3585,444.2822" id="Fill-4" fill="#62B5E5"></path>
                            <path d="M267.6158,476.5576 C267.3588,477.6696 266.2488,478.3626 265.1368,478.1056 C264.0248,477.8476 263.3318,476.7386 263.5898,475.6256 C263.8468,474.5146 264.9568,473.8216 266.0688,474.0786 C267.1798,474.3356 267.8728,475.4466 267.6158,476.5576" id="Fill-6" fill="#62B5E5"></path>
                            <path d="M458.7062,637.1318 C458.7002,636.5448 459.1712,636.0648 459.7582,636.0588 C460.3452,636.0528 460.8252,636.5238 460.8312,637.1108 C460.8372,637.6968 460.3662,638.1778 459.7792,638.1838 C459.1922,638.1898 458.7132,637.7188 458.7062,637.1318" id="Fill-8" fill="#62B5E5"></path>
                            <path d="M368.3468,575.9775 C367.8548,576.6735 366.8918,576.8405 366.1948,576.3485 C365.4978,575.8575 365.3318,574.8935 365.8238,574.1975 C366.3148,573.4995 367.2788,573.3335 367.9748,573.8255 C368.6718,574.3175 368.8388,575.2805 368.3468,575.9775" id="Fill-10" fill="#62B5E5"></path>
                            <path d="M260.1808,552.0615 C260.7558,551.5725 261.6188,551.6425 262.1088,552.2175 C262.5978,552.7925 262.5278,553.6565 261.9528,554.1455 C261.3778,554.6345 260.5138,554.5655 260.0248,553.9905 C259.5358,553.4145 259.6058,552.5515 260.1808,552.0615" id="Fill-12" fill="#62B5E5"></path>
                            <path d="M206.317,552.2939 C207.091,551.8659 208.065,552.1479 208.493,552.9219 C208.92,553.6959 208.639,554.6699 207.864,555.0979 C207.09,555.5249 206.116,555.2439 205.689,554.4699 C205.261,553.6949 205.543,552.7209 206.317,552.2939" id="Fill-14" fill="#62B5E5"></path>
                            <path d="M124.5201,529.1318 C124.5641,528.3338 125.2461,527.7238 126.0431,527.7678 C126.8401,527.8118 127.4501,528.4928 127.4061,529.2898 C127.3621,530.0868 126.6811,530.6978 125.8841,530.6538 C125.0871,530.6108 124.4761,529.9288 124.5201,529.1318" id="Fill-16" fill="#62B5E5"></path>
                            <path d="M567.5782,652.5986 C567.1982,653.6776 566.0152,654.2446 564.9352,653.8646 C563.8552,653.4846 563.2892,652.3006 563.6692,651.2216 C564.0502,650.1416 565.2322,649.5756 566.3122,649.9546 C567.3912,650.3356 567.9592,651.5186 567.5782,652.5986" id="Fill-18" fill="#62B5E5"></path>
                            <path d="M505.715,671.7148 C506.246,672.0818 506.38,672.8098 506.013,673.3408 C505.647,673.8718 504.918,674.0058 504.387,673.6388 C503.856,673.2728 503.722,672.5438 504.089,672.0128 C504.455,671.4818 505.184,671.3478 505.715,671.7148" id="Fill-20" fill="#62B5E5"></path>
                            <path d="M428.9982,599.1328 C429.8742,598.4318 431.1522,598.5738 431.8522,599.4498 C432.5542,600.3258 432.4112,601.6038 431.5352,602.3048 C430.6592,603.0048 429.3822,602.8618 428.6812,601.9868 C427.9802,601.1118 428.1222,599.8328 428.9982,599.1328" id="Fill-22" fill="#62B5E5"></path>
                            <path d="M332.7618,606.4775 C333.1338,606.1305 333.7148,606.1515 334.0618,606.5225 C334.4078,606.8935 334.3878,607.4755 334.0168,607.8225 C333.6458,608.1685 333.0638,608.1485 332.7178,607.7775 C332.3708,607.4065 332.3908,606.8245 332.7618,606.4775" id="Fill-24" fill="#62B5E5"></path>
                            <path d="M260.1344,629.0947 C261.1994,628.7617 262.3344,629.3547 262.6674,630.4197 C263.0014,631.4867 262.4084,632.6197 261.3424,632.9537 C260.2774,633.2867 259.1424,632.6947 258.8094,631.6287 C258.4754,630.5637 259.0684,629.4287 260.1344,629.0947" id="Fill-26" fill="#62B5E5"></path>
                            <path d="M192.4278,640.0215 C192.0968,639.9695 191.8708,639.6605 191.9228,639.3295 C191.9738,638.9995 192.2838,638.7725 192.6148,638.8245 C192.9448,638.8755 193.1718,639.1855 193.1198,639.5165 C193.0678,639.8465 192.7588,640.0735 192.4278,640.0215" id="Fill-28" fill="#62B5E5"></path>
                            <path d="M130.9449,596.7744 C130.6949,597.0514 130.2669,597.0734 129.9899,596.8234 C129.7129,596.5734 129.6909,596.1454 129.9409,595.8684 C130.1909,595.5904 130.6179,595.5694 130.8959,595.8194 C131.1729,596.0694 131.1949,596.4974 130.9449,596.7744" id="Fill-30" fill="#62B5E5"></path>
                            <path d="M658.4796,685.0039 C658.0926,684.2779 658.3676,683.3769 659.0926,682.9899 C659.8186,682.6039 660.7196,682.8779 661.1066,683.6039 C661.4936,684.3289 661.2186,685.2309 660.4936,685.6169 C659.7676,686.0039 658.8666,685.7299 658.4796,685.0039" id="Fill-32" fill="#62B5E5"></path>
                            <path d="M582.2042,627.6748 C583.2872,627.5518 584.2652,628.3308 584.3882,629.4138 C584.5112,630.4968 583.7312,631.4748 582.6482,631.5978 C581.5652,631.7198 580.5882,630.9418 580.4652,629.8588 C580.3422,628.7758 581.1212,627.7978 582.2042,627.6748" id="Fill-34" fill="#62B5E5"></path>
                            <path d="M530.8575,644.0361 C531.9235,644.1361 532.7075,645.0801 532.6075,646.1461 C532.5075,647.2121 531.5625,647.9961 530.4975,647.8961 C529.4305,647.7971 528.6475,646.8511 528.7475,645.7851 C528.8465,644.7201 529.7925,643.9361 530.8575,644.0361" id="Fill-36" fill="#62B5E5"></path>
                            <path d="M429.4757,635.5938 C428.7147,635.5678 428.1197,634.9298 428.1447,634.1688 C428.1707,633.4078 428.8087,632.8128 429.5697,632.8388 C430.3297,632.8648 430.9257,633.5028 430.9007,634.2638 C430.8737,635.0248 430.2367,635.6198 429.4757,635.5938" id="Fill-38" fill="#62B5E5"></path>
                            <path d="M297.1114,682.4893 C297.3594,682.2173 297.7804,682.1973 298.0534,682.4443 C298.3254,682.6923 298.3454,683.1143 298.0974,683.3863 C297.8494,683.6593 297.4274,683.6783 297.1554,683.4303 C296.8834,683.1823 296.8634,682.7603 297.1114,682.4893" id="Fill-40" fill="#62B5E5"></path>
                            <path d="M202.2647,566.8906 C202.5887,567.4236 202.4177,568.1196 201.8847,568.4426 C201.3507,568.7656 200.6567,568.5956 200.3327,568.0626 C200.0087,567.5286 200.1787,566.8336 200.7127,566.5096 C201.2457,566.1866 201.9407,566.3566 202.2647,566.8906" id="Fill-42" fill="#62B5E5"></path>
                            <path d="M602.8292,340.8462 C602.6872,339.9512 603.2992,339.1112 604.1942,338.9702 C605.0892,338.8292 605.9292,339.4402 606.0702,340.3352 C606.2112,341.2302 605.6002,342.0702 604.7052,342.2112 C603.8092,342.3522 602.9702,341.7412 602.8292,340.8462" id="Fill-48" fill="#62B5E5"></path>
                            <path d="M588.6691,424.2549 C589.2591,423.7989 590.1061,423.9059 590.5641,424.4959 C591.0201,425.0849 590.9121,425.9329 590.3221,426.3899 C589.7331,426.8459 588.8851,426.7379 588.4291,426.1489 C587.9721,425.5599 588.0801,424.7109 588.6691,424.2549" id="Fill-50" fill="#62B5E5"></path>
                            <path d="M567.3087,584.2041 C568.0427,584.3281 568.5377,585.0231 568.4137,585.7581 C568.2897,586.4921 567.5937,586.9861 566.8597,586.8621 C566.1247,586.7381 565.6307,586.0431 565.7547,585.3081 C565.8787,584.5741 566.5757,584.0801 567.3087,584.2041" id="Fill-52" fill="#62B5E5"></path>
                            <path d="M589.8175,730.5312 C589.1215,729.4942 589.3975,728.0902 590.4345,727.3922 C591.4705,726.6962 592.8765,726.9722 593.5725,728.0102 C594.2685,729.0462 593.9935,730.4512 592.9565,731.1472 C591.9195,731.8432 590.5145,731.5682 589.8175,730.5312" id="Fill-54" fill="#62B5E5"></path>
                            <path d="M574.7794,637.8945 C574.7054,636.7455 575.5764,635.7525 576.7254,635.6775 C577.8754,635.6035 578.8684,636.4745 578.9424,637.6235 C579.0164,638.7745 578.1454,639.7665 576.9964,639.8405 C575.8464,639.9155 574.8534,639.0435 574.7794,637.8945" id="Fill-56" fill="#62B5E5"></path>
                            <path d="M502.0001,639.7158 C502.2071,640.0868 502.0731,640.5558 501.7021,640.7628 C501.3301,640.9688 500.8621,640.8358 500.6551,640.4648 C500.4491,640.0928 500.5821,639.6238 500.9531,639.4178 C501.3251,639.2108 501.7941,639.3448 502.0001,639.7158" id="Fill-58" fill="#62B5E5"></path>
                            <path d="M382.6793,651.4746 C382.2963,651.2676 382.1533,650.7896 382.3603,650.4066 C382.5663,650.0236 383.0443,649.8806 383.4273,650.0866 C383.8103,650.2936 383.9533,650.7716 383.7473,651.1546 C383.5403,651.5376 383.0623,651.6806 382.6793,651.4746" id="Fill-60" fill="#62B5E5"></path>
                            <path d="M271.108,689.9912 C270.924,691.1232 269.857,691.8922 268.724,691.7082 C267.591,691.5232 266.823,690.4562 267.007,689.3232 C267.191,688.1912 268.259,687.4232 269.391,687.6062 C270.524,687.7912 271.293,688.8582 271.108,689.9912" id="Fill-62" fill="#62B5E5"></path>
                            <path d="M156.1007,667.8691 C154.9387,667.4651 154.3247,666.1941 154.7297,665.0321 C155.1347,663.8701 156.4047,663.2561 157.5667,663.6611 C158.7287,664.0651 159.3427,665.3361 158.9377,666.4981 C158.5337,667.6601 157.2627,668.2741 156.1007,667.8691" id="Fill-64" fill="#62B5E5"></path>
                            <path d="M710.8009,336.8428 C711.3359,336.4398 712.0959,336.5468 712.4989,337.0808 C712.9029,337.6158 712.7949,338.3758 712.2609,338.7788 C711.7269,339.1818 710.9659,339.0748 710.5639,338.5408 C710.1599,338.0058 710.2669,337.2458 710.8009,336.8428" id="Fill-68" fill="#62B5E5"></path>
                            <path d="M673.4269,476.3301 C672.6269,476.5751 671.7799,476.1251 671.5339,475.3241 C671.2899,474.5241 671.7399,473.6771 672.5399,473.4321 C673.3399,473.1871 674.1879,473.6381 674.4329,474.4371 C674.6779,475.2381 674.2279,476.0851 673.4269,476.3301" id="Fill-70" fill="#62B5E5"></path>
                            <path d="M674.838,381.3301 C674.839,380.6781 675.368,380.1491 676.021,380.1491 C676.673,380.1501 677.201,380.6791 677.201,381.3321 C677.2,381.9841 676.671,382.5131 676.019,382.512101 C675.366,382.512101 674.838,381.9821 674.838,381.3301" id="Fill-72" fill="#62B5E5"></path>
                            <path d="M546.8732,420.5391 C546.8422,419.5161 547.6462,418.6601 548.6702,418.6291 C549.6942,418.5971 550.5502,419.4011 550.5812,420.4261 C550.6122,421.4501 549.8082,422.3061 548.7842,422.3371 C547.7602,422.3681 546.9042,421.5631 546.8732,420.5391" id="Fill-74" fill="#62B5E5"></path>
                            <path d="M588.8136,327.3569 C588.5866,326.3739 589.2006,325.3929 590.1826,325.1669 C591.1666,324.9399 592.1466,325.5529 592.3736,326.5359 C592.5996,327.5189 591.9866,328.4999 591.0036,328.7259 C590.0206,328.9529 589.0406,328.3399 588.8136,327.3569" id="Fill-88" fill="#62B5E5"></path>
                            <path d="M115.107,314.8384 C115.815,313.8864 117.161,313.6884 118.113,314.3964 C119.065,315.1044 119.263,316.4494 118.555,317.4014 C117.847,318.3534 116.502,318.5514 115.549,317.8434 C114.597,317.1354 114.399,315.7904 115.107,314.8384" id="Fill-114" fill="#62B5E5"></path>
                            <path d="M210.8551,289.0742 C211.5901,289.3852 211.9351,290.2332 211.6241,290.9692 C211.3131,291.7042 210.4641,292.0492 209.7291,291.7382 C208.9931,291.4272 208.6491,290.5782 208.9601,289.8432 C209.2711,289.1072 210.1201,288.7632 210.8551,289.0742" id="Fill-116" fill="#62B5E5"></path>
                            <path d="M153.9347,647.5576 C154.2527,647.7186 154.3807,648.1086 154.2187,648.4266 C154.0567,648.7456 153.6677,648.8726 153.3487,648.7106 C153.0297,648.5496 152.9027,648.1606 153.0647,647.8416 C153.2267,647.5226 153.6157,647.3956 153.9347,647.5576" id="Fill-118" fill="#62B5E5"></path>
                            <path d="M184.9151,587.1074 C184.0831,587.8344 182.8201,587.7474 182.0941,586.9154 C181.3681,586.0834 181.4551,584.8204 182.2861,584.0944 C183.1191,583.3684 184.3811,583.4554 185.1071,584.2874 C185.8331,585.1194 185.7471,586.3814 184.9151,587.1074" id="Fill-120" fill="#62B5E5"></path>
                            <path d="M114.2013,420.5254 C114.5033,420.4014 114.8493,420.5464 114.9733,420.8474 C115.0983,421.1504 114.9533,421.4964 114.6513,421.6214 C114.3493,421.7454 114.0033,421.6004 113.8793,421.2984 C113.7543,420.9964 113.8983,420.6504 114.2013,420.5254" id="Fill-122" fill="#62B5E5"></path>
                            <path d="M394.0275,731.2451 C394.3935,731.0871 394.8185,731.2551 394.9765,731.6211 C395.1355,731.9871 394.9665,732.4131 394.6005,732.5711 C394.2345,732.7291 393.8085,732.5611 393.6505,732.1951 C393.4925,731.8281 393.6615,731.4031 394.0275,731.2451" id="Fill-124" fill="#62B5E5"></path>
                            <path d="M263.2257,690.8018 C262.8237,691.3258 262.0717,691.4248 261.5477,691.0228 C261.0237,690.6188 260.9257,689.8678 261.3277,689.3438 C261.7307,688.8208 262.4817,688.7218 263.0057,689.1238 C263.5297,689.5268 263.6287,690.2788 263.2257,690.8018" id="Fill-126" fill="#62B5E5"></path>
                            <path d="M169.4757,710.7617 C168.2607,710.3347 167.6217,709.0037 168.0497,707.7887 C168.4767,706.5747 169.8087,705.9357 171.0227,706.3627 C172.2377,706.7897 172.8757,708.1207 172.4487,709.3357 C172.0217,710.5507 170.6907,711.1897 169.4757,710.7617" id="Fill-128" fill="#62B5E5"></path>
                            <path d="M68.9269,677.9717 C68.7229,677.2207 69.1659,676.4477 69.9169,676.2427 C70.6679,676.0387 71.4419,676.4827 71.6459,677.2337 C71.8489,677.9847 71.4059,678.7577 70.6549,678.9617 C69.9049,679.1657 69.1309,678.7227 68.9269,677.9717" id="Fill-130" fill="#62B5E5"></path>
                            <path d="M402.9728,717.5684 C402.0418,717.3154 401.4918,716.3564 401.7438,715.4244 C401.9958,714.4944 402.9548,713.9434 403.8868,714.1954 C404.8178,714.4484 405.3688,715.4074 405.1168,716.3394 C404.8638,717.2694 403.9048,717.8204 402.9728,717.5684" id="Fill-132" fill="#62B5E5"></path>
                            <path d="M283.065,727.2393 C282.289,726.2793 282.437,724.8723 283.397,724.0953 C284.357,723.3193 285.764,723.4683 286.541,724.4273 C287.317,725.3863 287.168,726.7953 286.209,727.5713 C285.249,728.3473 283.841,728.1983 283.065,727.2393" id="Fill-134" fill="#62B5E5"></path>
                            <path d="M158.1607,731.9229 C158.1537,732.3079 157.8367,732.6129 157.4527,732.6069 C157.0677,732.5999 156.7627,732.2819 156.7687,731.8979 C156.7757,731.5139 157.0927,731.2069 157.4777,731.2139 C157.8617,731.2219 158.1677,731.5379 158.1607,731.9229" id="Fill-136" fill="#62B5E5"></path>
                            <path d="M84.2486,641.2227 C83.4216,640.8897 83.0226,639.9487 83.3556,639.1217 C83.6896,638.2957 84.6306,637.8967 85.4566,638.2307 C86.2836,638.5637 86.6836,639.5037 86.3496,640.3307 C86.0156,641.1577 85.0746,641.5567 84.2486,641.2227" id="Fill-138" fill="#62B5E5"></path>
                            <path d="M710.9689,525.5947 C711.1239,524.5707 712.0799,523.8657 713.1049,524.0207 C714.1279,524.1757 714.8329,525.1317 714.6779,526.1567 C714.5229,527.1797 713.5669,527.8847 712.5429,527.7297 C711.5189,527.5737 710.8149,526.6177 710.9689,525.5947" id="Fill-140" fill="#62B5E5"></path>
                            <path d="M703.1251,590.8477 C703.8751,590.6697 704.6271,591.1337 704.8061,591.8837 C704.9831,592.6337 704.5201,593.3857 703.7701,593.5647 C703.0201,593.7427 702.2681,593.2787 702.0891,592.5287 C701.9111,591.7787 702.3751,591.0267 703.1251,590.8477" id="Fill-142" fill="#62B5E5"></path>
                            <path d="M686.4132,714.5283 C685.7352,715.6153 684.3052,715.9473 683.2182,715.2683 C682.1312,714.5903 681.7992,713.1603 682.4772,712.0733 C683.1552,710.9863 684.5862,710.6553 685.6732,711.3333 C686.7602,712.0103 687.0912,713.4413 686.4132,714.5283" id="Fill-144" fill="#62B5E5"></path>
                            <path d="M646.9347,775.0479 C647.1637,774.5189 647.7807,774.2759 648.3097,774.5059 C648.8397,774.7359 649.0817,775.3529 648.8517,775.8819 C648.6217,776.4109 648.0057,776.6539 647.4767,776.4239 C646.9467,776.1939 646.7047,775.5769 646.9347,775.0479" id="Fill-146" fill="#62B5E5"></path>
                            <path d="M41.0641,291.1279 C41.2661,291.3359 41.2621,291.6679 41.0541,291.8699 C40.8461,292.0719 40.5141,292.0669 40.3121,291.8599 C40.1101,291.6519 40.1141,291.3199 40.3221,291.1179 C40.5301,290.9159 40.8621,290.9199 41.0641,291.1279" id="Fill-184" fill="#62B5E5"></path>
                            <path d="M133.3883,564.5244 C132.9953,564.8824 132.3863,564.8554 132.0283,564.4624 C131.6693,564.0704 131.6973,563.4614 132.0893,563.1024 C132.4823,562.7444 133.0913,562.7714 133.4503,563.1654 C133.8083,563.5574 133.7813,564.1664 133.3883,564.5244" id="Fill-200" fill="#62B5E5"></path>
                            <path d="M253.4029,487.7744 C253.1109,486.6954 253.7499,485.5844 254.8299,485.2924 C255.9089,485.0014 257.0209,485.6394 257.3119,486.7184 C257.6039,487.7984 256.9649,488.9104 255.8849,489.2014 C254.8059,489.4934 253.6949,488.8544 253.4029,487.7744" id="Fill-202" fill="#62B5E5"></path>
                            <path d="M303.5626,502.8701 C303.7266,503.9991 302.9436,505.0481 301.8146,505.2121 C300.6856,505.3761 299.6366,504.5931 299.4726,503.4631 C299.3086,502.3341 300.0916,501.2851 301.2206,501.1221 C302.3506,500.9581 303.3986,501.7401 303.5626,502.8701" id="Fill-204" fill="#62B5E5"></path>
                            <path d="M539.9113,583.1143 C539.6923,582.5703 539.9563,581.9513 540.5013,581.7323 C541.0453,581.5143 541.6643,581.7783 541.8833,582.3233 C542.1003,582.8673 541.8373,583.4863 541.2923,583.7043 C540.7483,583.9233 540.1303,583.6593 539.9113,583.1143" id="Fill-206" fill="#62B5E5"></path>
                            <path d="M433.5148,558.9365 C433.3098,559.7645 432.4718,560.2685 431.6448,560.0635 C430.8168,559.8585 430.3118,559.0215 430.5168,558.1935 C430.7218,557.3665 431.5598,556.8615 432.3868,557.0665 C433.2148,557.2715 433.7198,558.1085 433.5148,558.9365" id="Fill-208" fill="#62B5E5"></path>
                            <path d="M324.046,575.9219 C324.404,575.2569 325.234,575.0089 325.899,575.3669 C326.564,575.7259 326.812,576.5549 326.454,577.2199 C326.095,577.8849 325.266,578.1329 324.601,577.7749 C323.936,577.4159 323.688,576.5869 324.046,575.9219" id="Fill-210" fill="#62B5E5"></path>
                            <path d="M273.9415,595.6924 C274.5075,595.0134 275.5175,594.9214 276.1965,595.4884 C276.8765,596.0534 276.9675,597.0634 276.4015,597.7434 C275.8355,598.4224 274.8255,598.5144 274.1465,597.9484 C273.4665,597.3814 273.3755,596.3724 273.9415,595.6924" id="Fill-212" fill="#62B5E5"></path>
                            <path d="M189.3165,603.8057 C189.0675,603.0477 189.4815,602.2317 190.2405,601.9827 C190.9985,601.7347 191.8155,602.1477 192.0635,602.9067 C192.3125,603.6647 191.8985,604.4817 191.1395,604.7297 C190.3815,604.9787 189.5655,604.5647 189.3165,603.8057" id="Fill-214" fill="#62B5E5"></path>
                            <path d="M646.9698,558.001 C647.0078,559.145 646.1108,560.103 644.9668,560.14 C643.8228,560.178 642.8658,559.28 642.8268,558.137 C642.7898,556.993 643.6868,556.035 644.8298,555.997 C645.9748,555.96 646.9328,556.856 646.9698,558.001" id="Fill-216" fill="#62B5E5"></path>
                            <path d="M596.2677,598.2715 C596.8957,598.4205 597.2847,599.0505 597.1357,599.6785 C596.9867,600.3065 596.3567,600.6955 595.7287,600.5465 C595.0997,600.3985 594.7107,599.7675 594.8607,599.1395 C595.0087,598.5115 595.6387,598.1235 596.2677,598.2715" id="Fill-218" fill="#62B5E5"></path>
                            <path d="M498.4347,558.4932 C498.9967,557.5222 500.2387,557.1902 501.2087,557.7522 C502.1797,558.3142 502.5117,559.5562 501.9497,560.5272 C501.3877,561.4982 500.1457,561.8292 499.1747,561.2672 C498.2047,560.7062 497.8727,559.4642 498.4347,558.4932" id="Fill-220" fill="#62B5E5"></path>
                            <path d="M411.4308,600.2744 C411.6508,599.8174 412.2008,599.6244 412.6578,599.8444 C413.1158,600.0644 413.3078,600.6144 413.0878,601.0724 C412.8678,601.5294 412.3188,601.7224 411.8608,601.5024 C411.4028,601.2824 411.2098,600.7324 411.4308,600.2744" id="Fill-222" fill="#62B5E5"></path>
                            <path d="M351.9689,647.7158 C352.8409,647.0188 354.1129,647.1588 354.8109,648.0308 C355.5089,648.9028 355.3669,650.1748 354.4959,650.8728 C353.6239,651.5698 352.3519,651.4298 351.6539,650.5578 C350.9559,649.6858 351.0969,648.4138 351.9689,647.7158" id="Fill-224" fill="#62B5E5"></path>
                            <path d="M292.8487,682.4775 C292.5217,682.5485 292.1987,682.3425 292.1267,682.0155 C292.0547,681.6895 292.2617,681.3665 292.5877,681.2935 C292.9147,681.2215 293.2377,681.4285 293.3097,681.7545 C293.3817,682.0815 293.1757,682.4055 292.8487,682.4775" id="Fill-226" fill="#62B5E5"></path>
                            <path d="M219.86,664.501 C219.728,664.851 219.337,665.026 218.988,664.894 C218.639,664.762 218.463,664.371 218.595,664.022 C218.728,663.673 219.118,663.497 219.467,663.629 C219.817,663.762 219.993,664.152 219.86,664.501" id="Fill-228" fill="#62B5E5"></path>
                            <path d="M743.4337,555.1943 C742.8097,554.6583 742.7387,553.7183 743.2737,553.0953 C743.8097,552.4713 744.7487,552.4003 745.3727,552.9353 C745.9967,553.4703 746.0677,554.4113 745.5327,555.0343 C744.9967,555.6583 744.0577,555.7293 743.4337,555.1943" id="Fill-230" fill="#62B5E5"></path>
                            <path d="M651.549,529.4678 C652.514,528.9598 653.708,529.3308 654.215,530.2958 C654.723,531.2598 654.353,532.4538 653.388,532.9608 C652.423,533.4688 651.23,533.0988 650.722,532.1338 C650.214,531.1688 650.585,529.9758 651.549,529.4678" id="Fill-232" fill="#62B5E5"></path>
                            <path d="M609.6456,563.3535 C610.6756,563.0595 611.7486,563.6555 612.0416,564.6845 C612.3366,565.7135 611.7406,566.7875 610.7106,567.0815 C609.6816,567.3745 608.6086,566.7795 608.3146,565.7495 C608.0206,564.7205 608.6166,563.6475 609.6456,563.3535" id="Fill-234" fill="#62B5E5"></path>
                            <path d="M512.1163,592.293 C511.3973,592.545 510.6103,592.167 510.3583,591.448 C510.1063,590.731 510.4853,589.943 511.2033,589.691 C511.9223,589.439 512.7083,589.818 512.9603,590.536 C513.2123,591.255 512.8343,592.041 512.1163,592.293" id="Fill-236" fill="#62B5E5"></path>
                            <path d="M405.8077,684.042 C405.9397,683.698 406.3257,683.527 406.6687,683.659 C407.0127,683.791 407.1847,684.177 407.0517,684.521 C406.9197,684.864 406.5347,685.036 406.1907,684.904 C405.8467,684.771 405.6757,684.386 405.8077,684.042" id="Fill-238" fill="#62B5E5"></path>
                            <path d="M275.4649,610.7646 C275.9599,611.1436 276.0539,611.8536 275.6739,612.3486 C275.2949,612.8436 274.5849,612.9376 274.0899,612.5576 C273.5949,612.1776 273.5009,611.4686 273.8809,610.9736 C274.2599,610.4786 274.9689,610.3846 275.4649,610.7646" id="Fill-240" fill="#62B5E5"></path>
                            <path d="M583.7238,337.5791 C584.1078,336.9401 584.9368,336.7321 585.5758,337.1161 C586.2148,337.4991 586.4228,338.3291 586.0388,338.9681 C585.6558,339.6071 584.8268,339.8151 584.1868,339.4321 C583.5478,339.0481 583.3398,338.2191 583.7238,337.5791" id="Fill-248" fill="#62B5E5"></path>
                            <path d="M621.8888,494.3701 C622.6178,494.2191 623.3308,494.6881 623.4828,495.4171 C623.6328,496.1461 623.1638,496.8591 622.4358,497.0111 C621.7058,497.1611 620.9928,496.6921 620.8418,495.9641 C620.6908,495.2341 621.1598,494.5211 621.8888,494.3701" id="Fill-250" fill="#62B5E5"></path>
                            <path d="M695.9845,622.542 C694.9605,621.829 694.7075,620.42 695.4205,619.395 C696.1325,618.369 697.5425,618.116 698.5675,618.829 C699.5925,619.543 699.8455,620.952 699.1325,621.978 C698.4205,623.003 697.0095,623.256 695.9845,622.542" id="Fill-252" fill="#62B5E5"></path>
                            <path d="M648.3419,541.6855 C647.8549,540.6415 648.3069,539.4005 649.3509,538.9145 C650.3949,538.4265 651.6359,538.8785 652.1219,539.9225 C652.6099,540.9665 652.1569,542.2075 651.1129,542.6945 C650.0699,543.1815 648.8279,542.7295 648.3419,541.6855" id="Fill-254" fill="#62B5E5"></path>
                            <path d="M581.1886,569.8047 C581.5166,570.0757 581.5616,570.5607 581.2916,570.8877 C581.0206,571.2157 580.5356,571.2607 580.2086,570.9907 C579.8796,570.7197 579.8346,570.2347 580.1056,569.9077 C580.3766,569.5787 580.8616,569.5337 581.1886,569.8047" id="Fill-256" fill="#62B5E5"></path>
                            <path d="M474.2775,624.0791 C473.8455,624.0251 473.5395,623.6321 473.5925,623.2001 C473.6455,622.7681 474.0395,622.4621 474.4705,622.5161 C474.9035,622.5681 475.2105,622.9621 475.1565,623.3931 C475.1025,623.8261 474.7105,624.1331 474.2775,624.0791" id="Fill-258" fill="#62B5E5"></path>
                            <path d="M384.3019,700.4727 C384.5419,701.5947 383.8259,702.6997 382.7039,702.9387 C381.5819,703.1777 380.4779,702.4617 380.2389,701.3397 C379.9989,700.2177 380.7149,699.1147 381.8369,698.8747 C382.9589,698.6357 384.0629,699.3507 384.3019,700.4727" id="Fill-260" fill="#62B5E5"></path>
                            <path d="M269.11,721.6133 C267.881,721.6583 266.847,720.6973 266.802,719.4673 C266.758,718.2373 267.718,717.2043 268.948,717.1593 C270.178,717.1153 271.212,718.0753 271.256,719.3053 C271.301,720.5353 270.34,721.5683 269.11,721.6133" id="Fill-262" fill="#62B5E5"></path>
                            <path d="M681.6036,355.3311 C680.9476,355.8501 679.9946,355.7381 679.4756,355.0811 C678.9576,354.4241 679.0686,353.4721 679.7256,352.9531 C680.3816,352.4341 681.3346,352.5461 681.8536,353.2031 C682.3726,353.8591 682.2606,354.8121 681.6036,355.3311" id="Fill-268" fill="#62B5E5"></path>
                            <path d="M543.4298,349.291 C543.0298,348.349 543.4678,347.259 544.4108,346.858 C545.3538,346.457 546.4428,346.896 546.8438,347.839 C547.2448,348.782 546.8058,349.871 545.8638,350.272 C544.9198,350.673 543.8308,350.234 543.4298,349.291" id="Fill-272" fill="#62B5E5"></path>
                            <path d="M242.961,290.4316 C242.357,289.3596 242.735,288.0006 243.807,287.3966 C244.879,286.7926 246.238,287.1706 246.842,288.2426 C247.447,289.3146 247.068,290.6736 245.996,291.2776 C244.924,291.8826 243.565,291.5036 242.961,290.4316" id="Fill-274" fill="#62B5E5"></path>
                            <path d="M102.7481,407.5508 C103.0621,406.4068 104.2441,405.7338 105.3881,406.0478 C106.5321,406.3618 107.2051,407.5438 106.8911,408.6878 C106.5771,409.8318 105.3951,410.5048 104.2511,410.1908 C103.1071,409.8768 102.4341,408.6958 102.7481,407.5508" id="Fill-310" fill="#62B5E5"></path>
                            <path d="M182.61,348.7837 C183.408,348.8067 184.037,349.4717 184.014,350.2707 C183.992,351.0687 183.326,351.6977 182.528,351.6747 C181.73,351.6517 181.101,350.9867 181.124,350.1877 C181.147,349.3897 181.812,348.7617 182.61,348.7837" id="Fill-312" fill="#62B5E5"></path>
                            <path d="M259.7174,703.4736 C260.0734,703.5086 260.3334,703.8256 260.2984,704.1806 C260.2634,704.5356 259.9464,704.7966 259.5914,704.7616 C259.2354,704.7266 258.9754,704.4106 259.0104,704.0536 C259.0454,703.6986 259.3624,703.4386 259.7174,703.4736" id="Fill-314" fill="#62B5E5"></path>
                            <path d="M266.6388,635.9014 C266.1268,636.8794 264.9188,637.2574 263.9408,636.7464 C262.9618,636.2344 262.5838,635.0264 263.0958,634.0474 C263.6068,633.0694 264.8158,632.6904 265.7938,633.2034 C266.7718,633.7144 267.1508,634.9224 266.6388,635.9014" id="Fill-316" fill="#62B5E5"></path>
                            <path d="M140.273,506.3564 C140.509,506.1304 140.884,506.1394 141.11,506.3764 C141.335,506.6134 141.327,506.9874 141.09,507.2124 C140.854,507.4384 140.479,507.4294 140.253,507.1934 C140.027,506.9574 140.036,506.5824 140.273,506.3564" id="Fill-318" fill="#62B5E5"></path>
                            <path d="M513.8116,694.2881 C514.0946,694.0071 514.5526,694.0101 514.8326,694.2941 C515.1136,694.5771 515.1116,695.0351 514.8276,695.3151 C514.5426,695.5961 514.0856,695.5941 513.8056,695.3091 C513.5246,695.0251 513.5276,694.5681 513.8116,694.2881" id="Fill-320" fill="#62B5E5"></path>
                            <path d="M377.2521,704.0908 C377.0671,704.7248 376.4031,705.0898 375.7681,704.9038 C375.1341,704.7198 374.7691,704.0558 374.9541,703.4208 C375.1391,702.7858 375.8031,702.4218 376.4381,702.6068 C377.0721,702.7918 377.4371,703.4558 377.2521,704.0908" id="Fill-322" fill="#62B5E5"></path>
                            <path d="M297.1441,756.7236 C295.8571,756.7666 294.7791,755.7576 294.7361,754.4706 C294.6931,753.1836 295.7021,752.1056 296.9891,752.0626 C298.2761,752.0196 299.3541,753.0286 299.3971,754.3156 C299.4401,755.6026 298.4311,756.6806 297.1441,756.7236" id="Fill-324" fill="#62B5E5"></path>
                            <path d="M191.5514,762.6738 C191.0894,762.0488 191.2204,761.1668 191.8464,760.7038 C192.4724,760.2418 193.3544,760.3738 193.8164,760.9988 C194.2794,761.6248 194.1474,762.5068 193.5214,762.9698 C192.8954,763.4318 192.0134,763.2998 191.5514,762.6738" id="Fill-326" fill="#62B5E5"></path>
                            <path d="M517.1818,678.2959 C516.2218,678.3999 515.3618,677.7049 515.2578,676.7459 C515.1558,675.7859 515.8498,674.9249 516.8088,674.8219 C517.7678,674.7189 518.6288,675.4129 518.7328,676.3729 C518.8348,677.3319 518.1408,678.1929 517.1818,678.2959" id="Fill-328" fill="#62B5E5"></path>
                            <path d="M408.9659,730.8389 C407.8939,730.2269 407.5219,728.8609 408.1339,727.7889 C408.7459,726.7179 410.1119,726.3449 411.1839,726.9569 C412.2549,727.5699 412.6279,728.9359 412.0149,730.0069 C411.4029,731.0789 410.0369,731.4509 408.9659,730.8389" id="Fill-330" fill="#62B5E5"></path>
                            <path d="M294.2838,780.5488 C294.4168,780.9088 294.2328,781.3098 293.8718,781.4428 C293.5118,781.5758 293.1108,781.3918 292.9778,781.0298 C292.8448,780.6698 293.0298,780.2698 293.3898,780.1368 C293.7508,780.0038 294.1508,780.1878 294.2838,780.5488" id="Fill-332" fill="#62B5E5"></path>
                            <path d="M192.4864,722.8701 C191.5944,722.8591 190.8814,722.1281 190.8924,721.2361 C190.9034,720.3461 191.6344,719.6321 192.5264,719.6421 C193.4174,719.6531 194.1314,720.3851 194.1194,721.2761 C194.1094,722.1681 193.3774,722.8811 192.4864,722.8701" id="Fill-334" fill="#62B5E5"></path>
                            <path d="M734.4698,387.605 C734.2418,386.594 734.8768,385.591 735.8878,385.363 C736.8988,385.136 737.9018,385.771 738.1288,386.782 C738.3568,387.792 737.7218,388.795 736.7108,389.023 C735.6998,389.251 734.6978,388.615 734.4698,387.605" id="Fill-336" fill="#62B5E5"></path>
                            <path d="M750.8507,451.2539 C751.4847,450.8159 752.3547,450.9749 752.7917,451.6089 C753.2307,452.2429 753.0717,453.1119 752.4367,453.5509 C751.8027,453.9889 750.9337,453.8299 750.4957,453.1949 C750.0577,452.5619 750.2167,451.6919 750.8507,451.2539" id="Fill-338" fill="#62B5E5"></path>
                            <path d="M780.1798,572.5635 C779.9428,573.8225 778.7308,574.6505 777.4718,574.4135 C776.2128,574.1755 775.3838,572.9635 775.6208,571.7055 C775.8588,570.4465 777.0718,569.6185 778.3298,569.8545 C779.5888,570.0915 780.4168,571.3045 780.1798,572.5635" id="Fill-340" fill="#62B5E5"></path>
                            <path d="M765.3654,643.2861 C765.3874,642.7091 765.8744,642.2601 766.4514,642.2811 C767.0284,642.3041 767.4774,642.7901 767.4554,643.3671 C767.4324,643.9441 766.9474,644.3931 766.3704,644.3711 C765.7934,644.3481 765.3444,643.8631 765.3654,643.2861" id="Fill-342" fill="#62B5E5"></path>
                            <path d="M42.5812,285.5903 C43.4732,286.0073 43.8582,287.0673 43.4412,287.9593 C43.0252,288.8503 41.9642,289.2353 41.0732,288.8193 C40.1822,288.4033 39.7962,287.3423 40.2132,286.4503 C40.6292,285.5593 41.6892,285.1733 42.5812,285.5903" id="Fill-371" fill="#62B5E5"></path>
                            <path d="M110.9361,346.8872 C111.2091,347.0522 111.2981,347.4072 111.1341,347.6802 C110.9691,347.9542 110.6141,348.0422 110.3411,347.8782 C110.0671,347.7142 109.9781,347.3582 110.1431,347.0852 C110.3081,346.8112 110.6631,346.7222 110.9361,346.8872" id="Fill-373" fill="#62B5E5"></path>
                            <path d="M25.149,412.3389 C25.413,412.4589 25.529,412.7709 25.409,413.0339 C25.289,413.2979 24.978,413.4139 24.714,413.2939 C24.45,413.1739 24.334,412.8629 24.454,412.5989 C24.574,412.3349 24.885,412.2189 25.149,412.3389" id="Fill-375" fill="#62B5E5"></path>
                            <path d="M40.8194,526.9121 C40.9304,526.6441 41.2374,526.5171 41.5054,526.6291 C41.7724,526.7401 41.8994,527.0481 41.7874,527.3141 C41.6764,527.5821 41.3694,527.7091 41.1024,527.5981 C40.8344,527.4861 40.7084,527.1801 40.8194,526.9121" id="Fill-377" fill="#62B5E5"></path>
                            <path d="M25.149,583.5449 C24.423,583.6699 23.733,583.1839 23.608,582.4579 C23.482,581.7319 23.969,581.0419 24.695,580.9159 C25.421,580.7909 26.111,581.2769 26.236,582.0039 C26.362,582.7299 25.875,583.4199 25.149,583.5449" id="Fill-379" fill="#62B5E5"></path>
                            <path d="M187.648,442.8809 C187.338,443.0009 186.99,442.8469 186.87,442.5359 C186.751,442.2269 186.905,441.8789 187.214,441.7589 C187.524,441.6399 187.873,441.7939 187.992,442.1039 C188.112,442.4129 187.958,442.7619 187.648,442.8809" id="Fill-393" fill="#62B5E5"></path>
                            <path d="M274.8853,425.4307 C274.9603,424.7367 275.5843,424.2347 276.2783,424.3097 C276.9723,424.3837 277.4743,425.0077 277.3993,425.7017 C277.3243,426.3967 276.7003,426.8987 276.0063,426.8237 C275.3123,426.7477 274.8103,426.1237 274.8853,425.4307" id="Fill-395" fill="#62B5E5"></path>
                            <path d="M300.6505,445.5859 C300.4895,446.2799 299.7965,446.7129 299.1025,446.5529 C298.4085,446.3919 297.9755,445.6989 298.1365,445.0049 C298.2965,444.3109 298.9895,443.8779 299.6845,444.0379 C300.3795,444.1989 300.8115,444.8919 300.6505,445.5859" id="Fill-397" fill="#62B5E5"></path>
                            <path d="M419.9884,545.8662 C419.9844,545.4992 420.2784,545.1992 420.6444,545.1952 C421.0104,545.1922 421.3104,545.4862 421.3144,545.8522 C421.3184,546.2192 421.0244,546.5182 420.6584,546.5222 C420.2924,546.5262 419.9924,546.2322 419.9884,545.8662" id="Fill-399" fill="#62B5E5"></path>
                            <path d="M363.5577,507.6748 C363.2507,508.1098 362.6487,508.2138 362.2137,507.9058 C361.7787,507.5998 361.6747,506.9978 361.9817,506.5628 C362.2887,506.1268 362.8907,506.0238 363.3257,506.3298 C363.7607,506.6378 363.8647,507.2388 363.5577,507.6748" id="Fill-401" fill="#62B5E5"></path>
                            <path d="M296.0074,492.7393 C296.3664,492.4333 296.9054,492.4763 297.2114,492.8363 C297.5174,493.1953 297.4734,493.7343 297.1144,494.0403 C296.7554,494.3453 296.2154,494.3023 295.9104,493.9433 C295.6044,493.5843 295.6484,493.0453 296.0074,492.7393" id="Fill-403" fill="#62B5E5"></path>
                            <path d="M262.3692,492.8838 C262.8522,492.6168 263.4612,492.7928 263.7282,493.2768 C263.9942,493.7598 263.8192,494.3678 263.3352,494.6348 C262.8522,494.9018 262.2442,494.7268 261.9762,494.2418 C261.7102,493.7588 261.8852,493.1508 262.3692,492.8838" id="Fill-405" fill="#62B5E5"></path>
                            <path d="M211.2867,478.4189 C211.3137,477.9209 211.7397,477.5399 212.2377,477.5669 C212.7357,477.5949 213.1167,478.0209 213.0887,478.5189 C213.0617,479.0159 212.6357,479.3979 212.1387,479.3699 C211.6407,479.3429 211.2597,478.9169 211.2867,478.4189" id="Fill-407" fill="#62B5E5"></path>
                            <path d="M487.9796,555.5244 C487.7416,556.1994 487.0026,556.5524 486.3286,556.3154 C485.6546,556.0784 485.3006,555.3384 485.5386,554.6654 C485.7756,553.9904 486.5146,553.6364 487.1886,553.8744 C487.8626,554.1114 488.2166,554.8504 487.9796,555.5244" id="Fill-409" fill="#62B5E5"></path>
                            <path d="M449.3448,567.4629 C449.6768,567.6919 449.7608,568.1469 449.5318,568.4789 C449.3018,568.8109 448.8478,568.8939 448.5158,568.6649 C448.1838,568.4359 448.1008,567.9819 448.3288,567.6499 C448.5588,567.3169 449.0138,567.2339 449.3448,567.4629" id="Fill-411" fill="#62B5E5"></path>
                            <path d="M401.4357,522.1348 C401.9827,521.6978 402.7807,521.7858 403.2177,522.3328 C403.6557,522.8798 403.5667,523.6788 403.0197,524.1158 C402.4727,524.5538 401.6737,524.4648 401.2377,523.9178 C400.7997,523.3698 400.8877,522.5718 401.4357,522.1348" id="Fill-413" fill="#62B5E5"></path>
                            <path d="M341.3351,526.7217 C341.5671,526.5057 341.9301,526.5177 342.1471,526.7497 C342.3631,526.9817 342.3511,527.3447 342.1191,527.5617 C341.8871,527.7787 341.5231,527.7657 341.3071,527.5337 C341.0901,527.3017 341.1031,526.9387 341.3351,526.7217" id="Fill-415" fill="#62B5E5"></path>
                            <path d="M295.9786,540.8467 C296.6436,540.6387 297.3526,541.0087 297.5606,541.6747 C297.7696,542.3397 297.3986,543.0477 296.7326,543.2567 C296.0676,543.4647 295.3596,543.0947 295.1506,542.4287 C294.9426,541.7637 295.3126,541.0557 295.9786,540.8467" id="Fill-417" fill="#62B5E5"></path>
                            <path d="M253.6954,547.6699 C253.4884,547.6379 253.3474,547.4439 253.3804,547.2379 C253.4124,547.0319 253.6054,546.8909 253.8124,546.9229 C254.0184,546.9549 254.1594,547.1489 254.1274,547.3549 C254.0954,547.5619 253.9024,547.7019 253.6954,547.6699" id="Fill-419" fill="#62B5E5"></path>
                            <path d="M215.2989,520.6621 C215.1429,520.8351 214.8759,520.8491 214.7019,520.6931 C214.5289,520.5361 214.5149,520.2691 214.6719,520.0971 C214.8279,519.9231 215.0949,519.9091 215.2679,520.0651 C215.4419,520.2221 215.4549,520.4891 215.2989,520.6621" id="Fill-421" fill="#62B5E5"></path>
                            <path d="M544.7472,575.7617 C544.5062,575.3097 544.6782,574.7457 545.1312,574.5047 C545.5832,574.2627 546.1462,574.4347 546.3882,574.8877 C546.6302,575.3407 546.4582,575.9037 546.0052,576.1457 C545.5522,576.3867 544.9892,576.2147 544.7472,575.7617" id="Fill-423" fill="#62B5E5"></path>
                            <path d="M497.1134,539.96 C497.7894,539.883 498.4004,540.369 498.4764,541.046 C498.5534,541.723 498.0674,542.333 497.3904,542.409 C496.7144,542.486 496.1034,542 496.0274,541.323 C495.9504,540.647 496.4364,540.036 497.1134,539.96" id="Fill-425" fill="#62B5E5"></path>
                            <path d="M465.047,550.1777 C465.713,550.2397 466.202,550.8297 466.14,551.4947 C466.077,552.1607 465.487,552.6507 464.821,552.5877 C464.156,552.5267 463.667,551.9357 463.729,551.2707 C463.791,550.6047 464.381,550.1157 465.047,550.1777" id="Fill-427" fill="#62B5E5"></path>
                            <path d="M401.7335,544.9053 C401.2575,544.8883 400.8855,544.4903 400.9025,544.0153 C400.9185,543.5403 401.3165,543.1683 401.7925,543.1843 C402.2665,543.2013 402.6385,543.5993 402.6235,544.0743 C402.6065,544.5503 402.2085,544.9223 401.7335,544.9053" id="Fill-429" fill="#62B5E5"></path>
                            <path d="M319.0709,574.1914 C319.2259,574.0214 319.4889,574.0084 319.6589,574.1644 C319.8289,574.3184 319.8419,574.5824 319.6869,574.7524 C319.5319,574.9214 319.2689,574.9344 319.0989,574.7794 C318.9279,574.6254 318.9159,574.3614 319.0709,574.1914" id="Fill-431" fill="#62B5E5"></path>
                            <path d="M259.8385,501.999 C260.0405,502.333 259.9345,502.767 259.6015,502.969 C259.2685,503.171 258.8345,503.064 258.6315,502.731 C258.4295,502.398 258.5355,501.964 258.8695,501.762 C259.2025,501.56 259.6365,501.666 259.8385,501.999" id="Fill-433" fill="#62B5E5"></path>
                            <path d="M541.3683,315.4541 C541.4973,314.8011 542.1303,314.3771 542.7823,314.5051 C543.4343,314.6341 543.8593,315.2671 543.7303,315.9201 C543.6023,316.5721 542.9693,316.9971 542.3163,316.8681 C541.6643,316.7401 541.2393,316.1061 541.3683,315.4541" id="Fill-435" fill="#62B5E5"></path>
                            <path d="M561.4572,320.4971 C561.6982,320.5341 561.8642,320.7601 561.8272,321.0011 C561.7902,321.2431 561.5632,321.4081 561.3222,321.3711 C561.0812,321.3331 560.9162,321.1081 560.9532,320.8661 C560.9902,320.6251 561.2162,320.4601 561.4572,320.4971" id="Fill-437" fill="#62B5E5"></path>
                            <path d="M509.9933,360.8335 C509.9053,360.2745 510.2873,359.7505 510.8463,359.6615 C511.4043,359.5735 511.9303,359.9555 512.0173,360.5145 C512.1053,361.0735 511.7233,361.5975 511.1653,361.6865 C510.6063,361.7735 510.0813,361.3925 509.9933,360.8335" id="Fill-439" fill="#62B5E5"></path>
                            <path d="M501.1505,412.9229 C501.5185,412.6379 502.0485,412.7049 502.3335,413.0729 C502.6185,413.4419 502.5505,413.9709 502.1825,414.2559 C501.8145,414.5409 501.2855,414.4739 501.0005,414.1059 C500.7145,413.7369 500.7825,413.2079 501.1505,412.9229" id="Fill-441" fill="#62B5E5"></path>
                            <path d="M487.8116,512.8115 C488.2696,512.8895 488.5786,513.3245 488.5006,513.7825 C488.4236,514.2415 487.9896,514.5495 487.5306,514.4725 C487.0726,514.3945 486.7626,513.9595 486.8406,513.5015 C486.9176,513.0425 487.3526,512.7345 487.8116,512.8115" id="Fill-443" fill="#62B5E5"></path>
                            <path d="M501.8683,604.1943 C501.4323,603.5473 501.6053,602.6693 502.2533,602.2343 C502.9003,601.7993 503.7773,601.9713 504.2133,602.6193 C504.6473,603.2663 504.4753,604.1443 503.8283,604.5793 C503.1803,605.0133 502.3033,604.8413 501.8683,604.1943" id="Fill-445" fill="#62B5E5"></path>
                            <path d="M492.4767,546.3418 C492.4297,545.6238 492.9737,545.0038 493.6917,544.9578 C494.4107,544.9108 495.0297,545.4548 495.0767,546.1738 C495.1227,546.8918 494.5787,547.5108 493.8607,547.5578 C493.1427,547.6048 492.5227,547.0598 492.4767,546.3418" id="Fill-447" fill="#62B5E5"></path>
                            <path d="M447.0255,547.4795 C447.1545,547.7115 447.0715,548.0035 446.8385,548.1325 C446.6075,548.2615 446.3145,548.1785 446.1855,547.9475 C446.0565,547.7145 446.1395,547.4225 446.3715,547.2925 C446.6035,547.1645 446.8965,547.2485 447.0255,547.4795" id="Fill-449" fill="#62B5E5"></path>
                            <path d="M372.5089,554.8223 C372.2699,554.6933 372.1799,554.3953 372.3089,554.1563 C372.4379,553.9173 372.7369,553.8273 372.9759,553.9563 C373.2149,554.0863 373.3039,554.3843 373.1759,554.6233 C373.0469,554.8623 372.7479,554.9523 372.5089,554.8223" id="Fill-451" fill="#62B5E5"></path>
                            <path d="M302.8316,578.877 C302.7166,579.584 302.0496,580.064 301.3426,579.949 C300.6356,579.834 300.1556,579.167 300.2706,578.46 C300.3856,577.753 301.0526,577.273 301.7596,577.388 C302.4666,577.503 302.9466,578.169 302.8316,578.877" id="Fill-453" fill="#62B5E5"></path>
                            <path d="M231.0089,565.0615 C230.2829,564.8085 229.8999,564.0155 230.1529,563.2905 C230.4049,562.5635 231.1989,562.1805 231.9249,562.4335 C232.6509,562.6865 233.0339,563.4795 232.7809,564.2055 C232.5279,564.9305 231.7349,565.3145 231.0089,565.0615" id="Fill-455" fill="#62B5E5"></path>
                            <path d="M598.881,309.5649 C598.567,309.5879 598.293,309.3519 598.27,309.0369 C598.246,308.7219 598.483,308.4489 598.798,308.4249 C599.112,308.4019 599.386,308.6389 599.409,308.9539 C599.433,309.2679 599.195,309.5419 598.881,309.5649" id="Fill-457" fill="#62B5E5"></path>
                            <path d="M577.423,358.3335 C577.757,358.0825 578.232,358.1485 578.483,358.4825 C578.735,358.8155 578.668,359.2905 578.334,359.5425 C578,359.7935 577.526,359.7275 577.275,359.3935 C577.023,359.0605 577.089,358.5845 577.423,358.3335" id="Fill-459" fill="#62B5E5"></path>
                            <path d="M554.0822,445.4443 C553.5832,445.5963 553.0542,445.3153 552.9002,444.8163 C552.7482,444.3163 553.0282,443.7873 553.5282,443.6343 C554.0282,443.4813 554.5582,443.7623 554.7102,444.2613 C554.8632,444.7613 554.5822,445.2913 554.0822,445.4443" id="Fill-461" fill="#62B5E5"></path>
                            <path d="M554.963998,386.1162 C554.963998,385.7082 555.295,385.3782 555.702,385.379198 C556.11,385.379198 556.44,385.7092 556.44,386.1172 C556.439,386.5242 556.109,386.8542 555.701,386.8542 C555.294,386.8542 554.963,386.5232 554.963998,386.1162" id="Fill-463" fill="#62B5E5"></path>
                            <path d="M475.049,410.6025 C475.029,409.9625 475.531,409.4285 476.171,409.4095 C476.811,409.3895 477.345,409.8915 477.364,410.5315 C477.384,411.1705 476.882,411.7055 476.242,411.7245 C475.603,411.7445 475.069,411.2425 475.049,410.6025" id="Fill-465" fill="#62B5E5"></path>
                            <path d="M313.5514,308.2295 C313.4424,307.4685 313.9704,306.7635 314.7314,306.6555 C315.4924,306.5465 316.1974,307.0745 316.3054,307.8355 C316.4144,308.5965 315.8854,309.3015 315.1254,309.4095 C314.3644,309.5185 313.6594,308.9905 313.5514,308.2295" id="Fill-467" fill="#62B5E5"></path>
                            <path d="M392.6954,315.4258 C393.3384,315.5958 393.7204,316.2558 393.5504,316.8978 C393.3804,317.5408 392.7204,317.9238 392.0784,317.7528 C391.4354,317.5828 391.0524,316.9238 391.2234,316.2808 C391.3934,315.6378 392.0524,315.2558 392.6954,315.4258" id="Fill-473" fill="#62B5E5"></path>
                            <path d="M417.9933,318.3179 C418.2593,318.4179 418.3923,318.7129 418.2933,318.9779 C418.1933,319.2429 417.8973,319.3769 417.6333,319.2769 C417.3683,319.1779 417.2333,318.8819 417.3333,318.6169 C417.4323,318.3529 417.7283,318.2179 417.9933,318.3179" id="Fill-475" fill="#62B5E5"></path>
                            <path d="M460.7823,310.3374 C461.0493,309.9594 461.5723,309.8704 461.9503,310.1374 C462.3283,310.4044 462.4183,310.9274 462.1503,311.3054 C461.8833,311.6834 461.3603,311.7734 460.9823,311.5054 C460.6043,311.2384 460.5143,310.7154 460.7823,310.3374" id="Fill-477" fill="#62B5E5"></path>
                            <path d="M501.2404,352.4092 C501.0984,351.7952 501.4814,351.1832 502.0954,351.0412 C502.7104,350.9002 503.3224,351.2832 503.4644,351.8962 C503.6054,352.5112 503.2214,353.1232 502.6084,353.2642 C501.9944,353.4062 501.3824,353.0232 501.2404,352.4092" id="Fill-479" fill="#62B5E5"></path>
                            <path d="M144.1876,335.1138 C144.8546,335.5628 145.0326,336.4678 144.5836,337.1348 C144.1346,337.8018 143.2296,337.9798 142.5626,337.5308 C141.8956,337.0818 141.7186,336.1768 142.1666,335.5098 C142.6156,334.8428 143.5206,334.6648 144.1876,335.1138" id="Fill-503" fill="#62B5E5"></path>
                            <path d="M205.4083,344.5913 C205.8503,343.9963 206.6903,343.8733 207.2853,344.3153 C207.8793,344.7573 208.0033,345.5973 207.5613,346.1923 C207.1193,346.7863 206.2793,346.9103 205.6843,346.4683 C205.0893,346.0263 204.9663,345.1863 205.4083,344.5913" id="Fill-505" fill="#62B5E5"></path>
                            <path d="M265.2032,328.5015 C265.6622,328.6955 265.8772,329.2255 265.6832,329.6845 C265.4892,330.1445 264.9592,330.3585 264.5002,330.1655 C264.0402,329.9705 263.8262,329.4405 264.0202,328.9815 C264.2142,328.5225 264.7442,328.3075 265.2032,328.5015" id="Fill-507" fill="#62B5E5"></path>
                            <path d="M229.6559,552.377 C229.8549,552.478 229.9349,552.721 229.8339,552.92 C229.7329,553.119 229.4889,553.198 229.2899,553.098 C229.0919,552.996 229.0119,552.753 229.1129,552.554 C229.2139,552.356 229.4569,552.275 229.6559,552.377" id="Fill-509" fill="#62B5E5"></path>
                            <path d="M249.0035,514.625 C248.4835,515.079 247.6955,515.024 247.2415,514.505 C246.7885,513.985 246.8425,513.197 247.3615,512.743 C247.8815,512.29 248.6705,512.344 249.1235,512.863 C249.5765,513.383 249.5235,514.172 249.0035,514.625" id="Fill-511" fill="#62B5E5"></path>
                            <path d="M204.8424,410.5938 C205.0304,410.5168 205.2474,410.6068 205.3244,410.7948 C205.4024,410.9848 205.3124,411.1998 205.1234,411.2778 C204.9344,411.3558 204.7184,411.2658 204.6414,411.0758 C204.5634,410.8878 204.6534,410.6718 204.8424,410.5938" id="Fill-513" fill="#62B5E5"></path>
                            <path d="M379.5953,604.6396 C379.8243,604.5406 380.0893,604.6466 380.1883,604.8746 C380.2873,605.1036 380.1823,605.3686 379.9533,605.4686 C379.7243,605.5676 379.4593,605.4616 379.3603,605.2336 C379.2613,605.0046 379.3663,604.7396 379.5953,604.6396" id="Fill-515" fill="#62B5E5"></path>
                            <path d="M297.9093,579.3828 C297.6583,579.7098 297.1883,579.7718 296.8613,579.5208 C296.5343,579.2698 296.4723,578.7998 296.7233,578.4728 C296.9753,578.1458 297.4443,578.0838 297.7723,578.3348 C298.0993,578.5868 298.1603,579.0558 297.9093,579.3828" id="Fill-517" fill="#62B5E5"></path>
                            <path d="M239.3614,591.8486 C238.6024,591.5806 238.2044,590.7496 238.4704,589.9916 C238.7374,589.2326 239.5694,588.8336 240.3274,589.1006 C241.0864,589.3686 241.4854,590.1996 241.2184,590.9576 C240.9514,591.7156 240.1204,592.1156 239.3614,591.8486" id="Fill-519" fill="#62B5E5"></path>
                            <path d="M176.568,571.3701 C176.441,570.9011 176.718,570.4191 177.187,570.2911 C177.655,570.1641 178.139,570.4401 178.266,570.9091 C178.393,571.3791 178.116,571.8611 177.648,571.9891 C177.179,572.1161 176.695,571.8401 176.568,571.3701" id="Fill-521" fill="#62B5E5"></path>
                            <path d="M385.1823,596.0986 C384.6003,595.9416 384.2573,595.3416 384.4143,594.7606 C384.5723,594.1786 385.1713,593.8346 385.7523,593.9926 C386.3343,594.1506 386.6783,594.7486 386.5203,595.3306 C386.3633,595.9116 385.7643,596.2556 385.1823,596.0986" id="Fill-523" fill="#62B5E5"></path>
                            <path d="M310.2989,602.1387 C309.8139,601.5387 309.9069,600.6597 310.5059,600.1747 C311.1059,599.6907 311.9849,599.7837 312.4689,600.3827 C312.9539,600.9817 312.8619,601.8607 312.2619,602.3457 C311.6629,602.8297 310.7839,602.7377 310.2989,602.1387" id="Fill-525" fill="#62B5E5"></path>
                            <path d="M232.2955,605.0635 C232.2915,605.3035 232.0925,605.4945 231.8535,605.4905 C231.6125,605.4855 231.4215,605.2885 231.4265,605.0475 C231.4305,604.8075 231.6285,604.6165 231.8685,604.6215 C232.1085,604.6255 232.2995,604.8235 232.2955,605.0635" id="Fill-527" fill="#62B5E5"></path>
                            <path d="M186.1368,548.4209 C185.6208,548.2119 185.3708,547.6249 185.5798,547.1089 C185.7878,546.5929 186.3748,546.3429 186.8918,546.5519 C187.4078,546.7599 187.6568,547.3479 187.4488,547.8629 C187.2408,548.3799 186.6528,548.6289 186.1368,548.4209" id="Fill-529" fill="#62B5E5"></path>
                            <path d="M577.5275,476.21 C577.6245,475.57 578.2215,475.131 578.8615,475.228 C579.5005,475.324 579.9405,475.921 579.8435,476.561 C579.7475,477.2 579.1495,477.64 578.5105,477.543 C577.8715,477.446 577.4305,476.85 577.5275,476.21" id="Fill-531" fill="#62B5E5"></path>
                            <path d="M572.629,516.9609 C573.098,516.8509 573.567,517.1399 573.679,517.6079 C573.789,518.0759 573.5,518.5459 573.031,518.6569 C572.563,518.7689 572.093,518.4789 571.983,518.0109 C571.871,517.5419 572.16,517.0719 572.629,516.9609" id="Fill-533" fill="#62B5E5"></path>
                            <path d="M562.1925,594.2002 C561.7685,594.8792 560.8755,595.0862 560.1965,594.6632 C559.5175,594.2392 559.3105,593.3462 559.7345,592.6672 C560.1575,591.9882 561.0505,591.7812 561.7295,592.2052 C562.4085,592.6282 562.6155,593.5212 562.1925,594.2002" id="Fill-535" fill="#62B5E5"></path>
                            <path d="M537.5372,631.9951 C537.6822,631.6641 538.0652,631.5131 538.3962,631.6561 C538.7272,631.8011 538.8792,632.1851 538.7352,632.5161 C538.5912,632.8471 538.2072,632.9981 537.8762,632.8541 C537.5452,632.7111 537.3932,632.3261 537.5372,631.9951" id="Fill-537" fill="#62B5E5"></path>
                            <path d="M610.4806,302.8433 C610.1956,302.7993 610.0006,302.5313 610.0446,302.2453 C610.0896,301.9603 610.3576,301.7653 610.6426,301.8093 C610.9276,301.8543 611.1236,302.1223 611.0786,302.4073 C611.0346,302.6933 610.7656,302.8883 610.4806,302.8433" id="Fill-543" fill="#62B5E5"></path>
                            <path d="M669.7443,296.1465 C669.2323,296.3595 668.6443,296.1175 668.4323,295.6045 C668.2193,295.0935 668.4613,294.5055 668.9733,294.2925 C669.4843,294.0795 670.0723,294.3215 670.2853,294.8345 C670.4983,295.3455 670.2563,295.9335 669.7443,296.1465" id="Fill-545" fill="#62B5E5"></path>
                            <path d="M106.3741,306.1538 C106.1451,306.4038 105.7561,306.4198 105.5061,306.1898 C105.2571,305.9598 105.2411,305.5718 105.4711,305.3218 C105.7001,305.0728 106.0881,305.0568 106.3381,305.2858 C106.5871,305.5158 106.6031,305.9038 106.3741,306.1538" id="Fill-579" fill="#62B5E5"></path>
                            <path d="M50.1817,327.7842 C50.6517,327.9342 50.9107,328.4372 50.7607,328.9072 C50.6107,329.3772 50.1077,329.6372 49.6377,329.4862 C49.1677,329.3362 48.9087,328.8332 49.0587,328.3632 C49.2087,327.8932 49.7117,327.6342 50.1817,327.7842" id="Fill-581" fill="#62B5E5"></path>
                            <path d="M223.9264,311.1479 C224.0484,311.3059 224.0194,311.5319 223.8614,311.6539 C223.7034,311.7759 223.4774,311.7469 223.3554,311.5889 C223.2334,311.4319 223.2624,311.2049 223.4204,311.0829 C223.5774,310.9609 223.8044,310.9899 223.9264,311.1479" id="Fill-583" fill="#62B5E5"></path>
                            <path d="M159.1676,329.7842 C159.2936,329.9132 159.2916,330.1212 159.1616,330.2472 C159.0316,330.3732 158.8246,330.3712 158.6976,330.2412 C158.5716,330.1122 158.5746,329.9042 158.7046,329.7782 C158.8346,329.6522 159.0416,329.6542 159.1676,329.7842" id="Fill-585" fill="#62B5E5"></path>
                            <path d="M142.3102,400.0068 C142.4352,399.8768 142.6432,399.8718 142.7732,399.9978 C142.9032,400.1228 142.9082,400.3298 142.7822,400.4608 C142.6572,400.5908 142.4492,400.5948 142.3192,400.4698 C142.1882,400.3438 142.1852,400.1368 142.3102,400.0068" id="Fill-587" fill="#62B5E5"></path>
                            <path d="M120.3517,429.4082 C119.9007,429.3172 119.6097,428.8772 119.7017,428.4272 C119.7927,427.9752 120.2327,427.6842 120.6837,427.7762 C121.1337,427.8682 121.4257,428.3072 121.3337,428.7582 C121.2427,429.2092 120.8027,429.5002 120.3517,429.4082" id="Fill-589" fill="#62B5E5"></path>
                            <path d="M276.5401,350.6973 C276.3841,350.6283 276.3131,350.4453 276.3821,350.2883 C276.4511,350.1323 276.6341,350.0613 276.7911,350.1303 C276.9471,350.1993 277.0181,350.3823 276.9491,350.5393 C276.8801,350.6963 276.6971,350.7663 276.5401,350.6973" id="Fill-603" fill="#62B5E5"></path>
                            <path d="M314.7252,376.1123 C315.0052,375.8863 315.4152,375.9303 315.6422,376.2113 C315.8682,376.4913 315.8242,376.9013 315.5432,377.1273 C315.2632,377.3533 314.8522,377.3093 314.6262,377.0293 C314.4012,376.7483 314.4452,376.3383 314.7252,376.1123" id="Fill-605" fill="#62B5E5"></path>
                            <path d="M332.9308,403.8896 C332.6188,404.0836 332.2088,403.9896 332.0138,403.6776 C331.8188,403.3666 331.9138,402.9556 332.2248,402.7606 C332.5368,402.5666 332.9478,402.6606 333.1418,402.9726 C333.3368,403.2846 333.2428,403.6946 332.9308,403.8896" id="Fill-607" fill="#62B5E5"></path>
                            <path d="M323.7877,472.9141 C323.9197,472.7791 324.1367,472.7761 324.2717,472.9091 C324.4067,473.0411 324.4087,473.2581 324.2767,473.3931 C324.1447,473.5271 323.9287,473.5301 323.7927,473.3971 C323.6587,473.2661 323.6557,473.0491 323.7877,472.9141" id="Fill-609" fill="#62B5E5"></path>
                            <path d="M317.1139,438.4219 C316.8429,438.4689 316.5859,438.2879 316.5389,438.0179 C316.4919,437.7469 316.6739,437.4889 316.9439,437.4429 C317.2149,437.3959 317.4719,437.5769 317.5189,437.8479 C317.5659,438.1179 317.3849,438.3749 317.1139,438.4219" id="Fill-611" fill="#62B5E5"></path>
                            <path d="M297.9098,408.3643 C298.1528,408.3843 298.3328,408.5953 298.3138,408.8383 C298.2948,409.0803 298.0818,409.2613 297.8398,409.2423 C297.5978,409.2223 297.4168,409.0103 297.4358,408.7673 C297.4548,408.5253 297.6678,408.3443 297.9098,408.3643" id="Fill-613" fill="#62B5E5"></path>
                            <path d="M285.5846,396.1621 C285.8586,396.2411 286.0166,396.5261 285.9376,396.8001 C285.8586,397.0741 285.5726,397.2321 285.2996,397.1531 C285.0256,397.0741 284.8676,396.7881 284.9466,396.5151 C285.0256,396.2411 285.3116,396.0831 285.5846,396.1621" id="Fill-615" fill="#62B5E5"></path>
                            <path d="M272.2179,372.2749 C272.4089,372.1029 272.7029,372.1189 272.8749,372.3109 C273.0469,372.5019 273.0299,372.7959 272.8389,372.9679 C272.6479,373.1389 272.3539,373.1229 272.1819,372.9319 C272.0099,372.7409 272.0269,372.4459 272.2179,372.2749" id="Fill-617" fill="#62B5E5"></path>
                            <path d="M345.0748,501.208 C344.7418,501.367 344.3438,501.228 344.1838,500.895 C344.0248,500.562 344.1648,500.164 344.4968,500.005 C344.8298,499.846 345.2278,499.985 345.3878,500.317 C345.5468,500.649 345.4068,501.049 345.0748,501.208" id="Fill-619" fill="#62B5E5"></path>
                            <path d="M326.6305,491.4883 C326.6685,491.6933 326.5325,491.8893 326.3285,491.9263 C326.1235,491.9653 325.9275,491.8293 325.8895,491.6253 C325.8525,491.4203 325.9875,491.2233 326.1925,491.1863 C326.3965,491.1483 326.5925,491.2843 326.6305,491.4883" id="Fill-621" fill="#62B5E5"></path>
                            <path d="M325.6647,457.4971 C326.0237,457.5371 326.2827,457.8601 326.2427,458.2191 C326.2027,458.5781 325.8797,458.8371 325.5207,458.7971 C325.1627,458.7571 324.9027,458.4341 324.9427,458.0751 C324.9827,457.7161 325.3057,457.4571 325.6647,457.4971" id="Fill-623" fill="#62B5E5"></path>
                            <path d="M302.0665,437.2754 C302.2305,437.2814 302.3585,437.4184 302.3525,437.5814 C302.3475,437.7454 302.2105,437.8734 302.0465,437.8674 C301.8835,437.8614 301.7555,437.7244 301.7605,437.5614 C301.7665,437.3974 301.9025,437.2694 302.0665,437.2754" id="Fill-625" fill="#62B5E5"></path>
                            <path d="M280.3731,425.9053 C280.6921,426.0713 280.8151,426.4653 280.6491,426.7833 C280.4821,427.1013 280.0891,427.2253 279.7701,427.0583 C279.4521,426.8923 279.3281,426.4993 279.4951,426.1803 C279.6611,425.8623 280.0541,425.7383 280.3731,425.9053" id="Fill-627" fill="#62B5E5"></path>
                            <path d="M262.461,412.9902 C262.397,412.9032 262.416,412.7812 262.503,412.7182 C262.59,412.6542 262.712,412.6732 262.776,412.7602 C262.839,412.8462 262.82,412.9692 262.733,413.0322 C262.647,413.0952 262.524,413.0772 262.461,412.9902" id="Fill-629" fill="#62B5E5"></path>
                            <path d="M258.2916,389.1484 C258.1716,389.1544 258.0696,389.0624 258.0626,388.9424 C258.0566,388.8224 258.1486,388.7194 258.2696,388.7134 C258.3896,388.7074 258.4916,388.7994 258.4986,388.9194 C258.5036,389.0394 258.4116,389.1424 258.2916,389.1484" id="Fill-631" fill="#62B5E5"></path>
                            <path d="M358.4132,529.2725 C358.4902,529.0195 358.7572,528.8765 359.0112,528.9535 C359.2642,529.0305 359.4072,529.2975 359.3302,529.5505 C359.2532,529.8045 358.9852,529.9475 358.7322,529.8705 C358.4792,529.7935 358.3362,529.5255 358.4132,529.2725" id="Fill-633" fill="#62B5E5"></path>
                            <path d="M354.0773,498.8564 C354.3523,499.0754 354.3973,499.4754 354.1793,499.7504 C353.9613,500.0244 353.5613,500.0704 353.2863,499.8514 C353.0113,499.6324 352.9663,499.2334 353.1843,498.9594 C353.4033,498.6834 353.8033,498.6384 354.0773,498.8564" id="Fill-635" fill="#62B5E5"></path>
                            <path d="M338.6564,490.9023 C338.8764,491.1683 338.8404,491.5613 338.5744,491.7813 C338.3094,492.0023 337.9164,491.9643 337.6964,491.7003 C337.4754,491.4343 337.5124,491.0413 337.7774,490.8213 C338.0424,490.6003 338.4364,490.6373 338.6564,490.9023" id="Fill-637" fill="#62B5E5"></path>
                            <path d="M317.4776,465.9131 C317.3106,465.7341 317.3196,465.4531 317.4986,465.2861 C317.6776,465.1181 317.9586,465.1281 318.1256,465.3071 C318.2936,465.4851 318.2846,465.7671 318.1046,465.9341 C317.9256,466.1011 317.6446,466.0921 317.4776,465.9131" id="Fill-639" fill="#62B5E5"></path>
                            <path d="M276.6505,446.4834 C276.7685,446.4774 276.8695,446.5684 276.8755,446.6874 C276.8805,446.8054 276.7895,446.9064 276.6715,446.9124 C276.5525,446.9184 276.4515,446.8264 276.4465,446.7084 C276.4405,446.5884 276.5315,446.4884 276.6505,446.4834" id="Fill-641" fill="#62B5E5"></path>
                            <path d="M281.3404,398.5659 C281.2934,398.7609 281.0954,398.8799 280.9014,398.8329 C280.7054,398.7849 280.5864,398.5879 280.6334,398.3929 C280.6814,398.1979 280.8784,398.0789 281.0734,398.1259 C281.2684,398.1739 281.3884,398.3709 281.3404,398.5659" id="Fill-643" fill="#62B5E5"></path>
                            <path d="M452.0128,433.0713 C452.2978,432.8803 452.6838,432.9563 452.8748,433.2413 C453.0658,433.5253 452.9908,433.9113 452.7048,434.1023 C452.4208,434.2933 452.0348,434.2173 451.8438,433.9323 C451.6528,433.6483 451.7288,433.2623 452.0128,433.0713" id="Fill-645" fill="#62B5E5"></path>
                            <path d="M457.505,442.2305 C457.58,442.3325 457.558,442.4745 457.456,442.5485 C457.355,442.6235 457.212,442.6015 457.138,442.5005 C457.064,442.3985 457.085,442.2555 457.187,442.1815 C457.288,442.1065 457.431,442.1285 457.505,442.2305" id="Fill-647" fill="#62B5E5"></path>
                            <path d="M424.0343,438.1973 C424.2063,437.9613 424.5363,437.9093 424.7723,438.0813 C425.0083,438.2523 425.0603,438.5823 424.8883,438.8183 C424.7183,439.0543 424.3873,439.1063 424.1513,438.9353 C423.9153,438.7633 423.8633,438.4333 424.0343,438.1973" id="Fill-649" fill="#62B5E5"></path>
                            <path d="M401.8312,453.9805 C402.0692,454.0095 402.2382,454.2275 402.2082,454.4655 C402.1782,454.7045 401.9612,454.8735 401.7232,454.8425 C401.4842,454.8125 401.3152,454.5945 401.3462,454.3565 C401.3762,454.1185 401.5942,453.9505 401.8312,453.9805" id="Fill-651" fill="#62B5E5"></path>
                            <path d="M360.5739,485.5635 C360.7129,485.7585 360.6679,486.0305 360.4719,486.1685 C360.2769,486.3075 360.0059,486.2615 359.8669,486.0675 C359.7279,485.8725 359.7739,485.6005 359.9689,485.4615 C360.1639,485.3225 360.4349,485.3685 360.5739,485.5635" id="Fill-653" fill="#62B5E5"></path>
                            <path d="M332.4108,524.0244 C332.4888,523.6294 332.8708,523.3724 333.2648,523.4494 C333.6608,523.5264 333.9178,523.9094 333.8398,524.3034 C333.7628,524.6984 333.3808,524.9564 332.9858,524.8784 C332.5908,524.8014 332.3338,524.4194 332.4108,524.0244" id="Fill-655" fill="#62B5E5"></path>
                            <path d="M350.0607,499.4961 C350.3057,499.2171 350.7297,499.1891 351.0087,499.4341 C351.2877,499.6791 351.3147,500.1021 351.0707,500.3821 C350.8267,500.6601 350.4017,500.6881 350.1227,500.4431 C349.8437,500.1991 349.8167,499.7741 350.0607,499.4961" id="Fill-657" fill="#62B5E5"></path>
                            <path d="M333.0641,483.3525 C333.0261,483.4845 332.8901,483.5605 332.7581,483.5235 C332.6271,483.4865 332.5501,483.3485 332.5871,483.2175 C332.6251,483.0855 332.7621,483.0095 332.8941,483.0465 C333.0251,483.0835 333.1021,483.2205 333.0641,483.3525" id="Fill-659" fill="#62B5E5"></path>
                            <path d="M303.2027,458.8848 C303.1617,458.7498 303.2387,458.6098 303.3727,458.5688 C303.5067,458.5288 303.6487,458.6048 303.6887,458.7388 C303.7287,458.8728 303.6527,459.0148 303.5187,459.0548 C303.3847,459.0948 303.2427,459.0188 303.2027,458.8848" id="Fill-661" fill="#62B5E5"></path>
                            <path d="M269.0186,442.2764 C268.7196,442.4924 268.3006,442.4244 268.0846,442.1254 C267.8686,441.8254 267.9366,441.4074 268.2366,441.1914 C268.5356,440.9744 268.9546,441.0434 269.1696,441.3424 C269.3866,441.6414 269.3186,442.0604 269.0186,442.2764" id="Fill-663" fill="#62B5E5"></path>
                            <path d="M247.8482,411.0703 C247.6752,410.7143 247.8252,410.2843 248.1812,410.1113 C248.5382,409.9393 248.9672,410.0883 249.1402,410.4443 C249.3122,410.8013 249.1632,411.2303 248.8062,411.4033 C248.4502,411.5763 248.0212,411.4263 247.8482,411.0703" id="Fill-665" fill="#62B5E5"></path>
                            <path d="M475.1417,451.876 C475.0187,451.77 475.0037,451.583 475.1107,451.46 C475.2167,451.337 475.4037,451.323 475.5267,451.43 C475.6497,451.536 475.6627,451.722 475.5567,451.845 C475.4507,451.968 475.2647,451.981 475.1417,451.876" id="Fill-667" fill="#62B5E5"></path>
                            <path d="M449.546,461.8506 C449.759,461.8806 449.908,462.0776 449.878,462.2906 C449.849,462.5046 449.651,462.6536 449.438,462.6236 C449.225,462.5936 449.075,462.3966 449.106,462.1836 C449.135,461.9696 449.332,461.8206 449.546,461.8506" id="Fill-669" fill="#62B5E5"></path>
                            <path d="M409.295,485.1289 C409.057,485.0019 408.967,484.7069 409.093,484.4689 C409.219,484.2309 409.515,484.1409 409.752,484.2669 C409.99,484.3929 410.081,484.6889 409.955,484.9259 C409.828,485.1639 409.533,485.2549 409.295,485.1289" id="Fill-671" fill="#62B5E5"></path>
                            <path d="M431.2306,463.8047 C431.3786,463.6567 431.6206,463.6567 431.7686,463.8047 C431.9176,463.9527 431.9176,464.1947 431.7686,464.3427 C431.6206,464.4917 431.3786,464.4917 431.2306,464.3427 C431.0826,464.1947 431.0826,463.9527 431.2306,463.8047" id="Fill-673" fill="#62B5E5"></path>
                            <path d="M393.1534,443.624 C393.3804,443.384 393.7574,443.372 393.9984,443.598 C394.2384,443.823 394.2504,444.201 394.0244,444.442 C393.7994,444.683 393.4214,444.694 393.1804,444.469 C392.9394,444.242 392.9274,443.864 393.1534,443.624" id="Fill-675" fill="#62B5E5"></path>
                            <path d="M371.5294,347.4395 C371.7664,347.1225 372.2164,347.0575 372.5334,347.2955 C372.8504,347.5325 372.9154,347.9825 372.6774,348.2995 C372.4404,348.6165 371.9904,348.6815 371.6734,348.4435 C371.3564,348.2065 371.2924,347.7565 371.5294,347.4395" id="Fill-677" fill="#62B5E5"></path>
                            <path d="M395.3615,341.7632 C395.1025,341.9552 394.7365,341.9002 394.5445,341.6412 C394.3525,341.3812 394.4075,341.0152 394.6665,340.8242 C394.9255,340.6312 395.2925,340.6862 395.4835,340.9462 C395.6755,341.2052 395.6215,341.5712 395.3615,341.7632" id="Fill-679" fill="#62B5E5"></path>
                            <path d="M404.5909,352.7139 C404.2499,352.6389 404.0349,352.3019 404.1109,351.9609 C404.1859,351.6199 404.5239,351.4049 404.8629,351.4809 C405.2039,351.5559 405.4189,351.8929 405.3439,352.2339 C405.2689,352.5739 404.9319,352.7899 404.5909,352.7139" id="Fill-681" fill="#62B5E5"></path>
                            <path d="M365.9816,402.3926 C366.1536,402.6886 366.0536,403.0686 365.7576,403.2416 C365.4606,403.4136 365.0816,403.3126 364.9086,403.0166 C364.7366,402.7206 364.8366,402.3406 365.1336,402.1676 C365.4296,401.9956 365.8096,402.0956 365.9816,402.3926" id="Fill-683" fill="#62B5E5"></path>
                            <path d="M405.9581,389.1694 C406.0191,389.3024 405.9601,389.4594 405.8271,389.5194 C405.6941,389.5804 405.5371,389.5214 405.4781,389.3884 C405.4171,389.2554 405.4761,389.0984 405.6081,389.0384 C405.7411,388.9784 405.8971,389.0364 405.9581,389.1694" id="Fill-685" fill="#62B5E5"></path>
                            <path d="M424.4767,401.8467 C424.7117,401.8057 424.9357,401.9637 424.9757,402.1997 C425.0157,402.4347 424.8587,402.6577 424.6227,402.6987 C424.3877,402.7387 424.1647,402.5807 424.1237,402.3457 C424.0827,402.1107 424.2417,401.8867 424.4767,401.8467" id="Fill-687" fill="#62B5E5"></path>
                            <path d="M423.9103,431.9355 C424.0823,431.6605 424.4443,431.5765 424.7213,431.7485 C424.9963,431.9195 425.0803,432.2825 424.9083,432.5575 C424.7353,432.8335 424.3733,432.9175 424.0973,432.7455 C423.8223,432.5735 423.7383,432.2105 423.9103,431.9355" id="Fill-689" fill="#62B5E5"></path>
                            <path d="M353.8522,371.5649 C354.1782,371.3079 354.6512,371.3639 354.9082,371.6899 C355.1652,372.0169 355.1092,372.4899 354.7832,372.7469 C354.4562,373.0029 353.9832,372.9469 353.7272,372.6209 C353.4702,372.2949 353.5262,371.8219 353.8522,371.5649" id="Fill-691" fill="#62B5E5"></path>
                            <path d="M419.0685,317.8042 C419.0465,317.9212 418.9325,317.9982 418.8155,317.9752 C418.6985,317.9522 418.6215,317.8392 418.6435,317.7212 C418.6675,317.6042 418.7805,317.5282 418.8975,317.5502 C419.0145,317.5732 419.0915,317.6872 419.0685,317.8042" id="Fill-693" fill="#62B5E5"></path>
                            <path d="M414.7394,302.9565 C414.8344,302.8525 414.9954,302.8445 415.0994,302.9385 C415.2044,303.0335 415.2124,303.1945 415.1174,303.2995 C415.0224,303.4035 414.8614,303.4115 414.7574,303.3175 C414.6524,303.2225 414.6444,303.0605 414.7394,302.9565" id="Fill-695" fill="#62B5E5"></path>
                            <path d="M405.132,293.1211 C405.293,292.9501 405.564,292.9431 405.735,293.1051 C405.905,293.2671 405.912,293.5371 405.75,293.7071 C405.589,293.8781 405.319,293.8861 405.148,293.7241 C404.977,293.5621 404.97,293.2921 405.132,293.1211" id="Fill-697" fill="#62B5E5"></path>
                            <path d="M500.4679,389.6025 C500.7849,389.4005 501.2059,389.4945 501.4079,389.8115 C501.6109,390.1295 501.5169,390.5505 501.1989,390.7525 C500.8819,390.9555 500.4599,390.8615 500.2579,390.5435 C500.0569,390.2265 500.1499,389.8045 500.4679,389.6025" id="Fill-701" fill="#62B5E5"></path>
                            <path d="M422.1046,368.2676 C421.8226,368.4016 421.4856,368.2826 421.3506,367.9996 C421.2156,367.7176 421.3356,367.3806 421.6186,367.2466 C421.9006,367.1116 422.2376,367.2316 422.3726,367.5136 C422.5056,367.7956 422.3866,368.1336 422.1046,368.2676" id="Fill-703" fill="#62B5E5"></path>
                            <path d="M367.7101,462.2695 C367.4771,462.4565 367.1361,462.4165 366.9501,462.1835 C366.7641,461.9505 366.8021,461.6105 367.0361,461.4235 C367.2691,461.2385 367.6091,461.2765 367.7951,461.5095 C367.9811,461.7435 367.9431,462.0825 367.7101,462.2695" id="Fill-705" fill="#62B5E5"></path>
                            <path d="M436.6769,312.874 C436.5959,312.925 436.4899,312.901 436.4379,312.821 C436.3869,312.74 436.4099,312.633 436.4909,312.582 C436.5719,312.531 436.6789,312.555 436.7299,312.635 C436.7809,312.716 436.7569,312.823 436.6769,312.874" id="Fill-707" fill="#62B5E5"></path>
                            <path d="M417.1554,286.3486 C417.3574,286.2836 417.5734,286.3946 417.6374,286.5966 C417.7024,286.7976 417.5924,287.0136 417.3894,287.0786 C417.1884,287.1426 416.9724,287.0326 416.9084,286.8306 C416.8434,286.6296 416.9544,286.4136 417.1554,286.3486" id="Fill-709" fill="#62B5E5"></path>
                            <path d="M299.9449,295.5469 C300.0249,295.9539 299.7599,296.3489 299.3529,296.4289 C298.9459,296.5089 298.5519,296.2439 298.4719,295.8369 C298.3919,295.4299 298.6569,295.0349 299.0639,294.9549 C299.4699,294.8749 299.8649,295.1399 299.9449,295.5469" id="Fill-713" fill="#62B5E5"></path>
                            <path d="M318.8277,321.3081 C319.2057,321.2521 319.5567,321.5131 319.6137,321.8911 C319.6687,322.2691 319.4087,322.6201 319.0307,322.6761 C318.6527,322.7321 318.3007,322.4711 318.2447,322.0931 C318.1887,321.7151 318.4497,321.3641 318.8277,321.3081" id="Fill-715" fill="#62B5E5"></path>
                            <path d="M332.3439,346.9766 C332.4409,347.2146 332.3259,347.4866 332.0879,347.5836 C331.8499,347.6806 331.5779,347.5656 331.4809,347.3276 C331.3849,347.0896 331.4989,346.8176 331.7379,346.7206 C331.9749,346.6236 332.2469,346.7386 332.3439,346.9766" id="Fill-717" fill="#62B5E5"></path>
                            <path d="M251.9762,405.9492 C252.0122,406.0582 251.9522,406.1772 251.8432,406.2122 C251.7332,406.2482 251.6162,406.1882 251.5802,406.0792 C251.5442,405.9702 251.6032,405.8512 251.7132,405.8162 C251.8222,405.7802 251.9402,405.8402 251.9762,405.9492" id="Fill-719" fill="#62B5E5"></path>
                            <path d="M272.7877,399.2251 C272.4337,399.2011 272.1647,398.8941 272.1887,398.5391 C272.2127,398.1841 272.5197,397.9161 272.8747,397.9401 C273.2287,397.9641 273.4967,398.2711 273.4737,398.6261 C273.4497,398.9801 273.1427,399.2491 272.7877,399.2251" id="Fill-721" fill="#62B5E5"></path>
                            <path d="M294.5758,345.1821 C294.6728,345.2221 294.7198,345.3341 294.6788,345.4311 C294.6378,345.5281 294.5268,345.5741 294.4298,345.5341 C294.3318,345.4941 294.2858,345.3821 294.3268,345.2851 C294.3678,345.1871 294.4788,345.1411 294.5758,345.1821" id="Fill-723" fill="#62B5E5"></path>
                            <path d="M287.6393,479.6416 C287.7583,479.6886 287.8173,479.8246 287.7693,479.9436 C287.7223,480.0626 287.5873,480.1206 287.4683,480.0746 C287.3483,480.0276 287.2893,479.8916 287.3373,479.7726 C287.3843,479.6526 287.5193,479.5936 287.6393,479.6416" id="Fill-725" fill="#62B5E5"></path>
                            <path d="M267.0382,440.668 C266.8272,440.695 266.6342,440.547 266.6062,440.336 C266.5782,440.125 266.7262,439.932 266.9372,439.903 C267.1482,439.876 267.3422,440.024 267.3702,440.235 C267.3982,440.446 267.2492,440.64 267.0382,440.668" id="Fill-727" fill="#62B5E5"></path>
                            <path d="M241.1368,423.8857 C240.9568,423.5117 241.1148,423.0637 241.4888,422.8837 C241.8628,422.7037 242.3108,422.8617 242.4908,423.2357 C242.6698,423.6097 242.5118,424.0577 242.1388,424.2377 C241.7648,424.4167 241.3168,424.2597 241.1368,423.8857" id="Fill-729" fill="#62B5E5"></path>
                            <path d="M225.6876,393.5386 C225.8126,393.3216 226.0896,393.2456 226.3066,393.3706 C226.5236,393.4946 226.5996,393.7716 226.4756,393.9886 C226.3506,394.2066 226.0736,394.2816 225.8566,394.1576 C225.6386,394.0336 225.5636,393.7556 225.6876,393.5386" id="Fill-731" fill="#62B5E5"></path>
                            <path d="M292.7892,478.5605 C292.6342,478.2905 292.7272,477.9475 292.9972,477.7925 C293.2662,477.6375 293.6092,477.7305 293.7642,477.9995 C293.9192,478.2695 293.8262,478.6135 293.5572,478.7675 C293.2882,478.9225 292.9442,478.8305 292.7892,478.5605" id="Fill-733" fill="#62B5E5"></path>
                            <path d="M263.2686,453.4834 C263.3106,453.0874 263.6646,452.8004 264.0596,452.8424 C264.4546,452.8834 264.7416,453.2384 264.7006,453.6334 C264.6586,454.0284 264.3046,454.3154 263.9096,454.2744 C263.5136,454.2324 263.2266,453.8794 263.2686,453.4834" id="Fill-735" fill="#62B5E5"></path>
                            <path d="M233.7447,426.1328 C233.6557,426.2188 233.5137,426.2168 233.4277,426.1278 C233.3417,426.0378 233.3437,425.8968 233.4327,425.8108 C233.5217,425.7248 233.6637,425.7268 233.7497,425.8168 C233.8357,425.9048 233.8337,426.0468 233.7447,426.1328" id="Fill-737" fill="#62B5E5"></path>
                            <path d="M237.5396,388.6514 C237.4276,388.3874 237.5506,388.0824 237.8146,387.9694 C238.0786,387.8574 238.3836,387.9804 238.4966,388.2444 C238.6086,388.5084 238.4856,388.8144 238.2216,388.9264 C237.9566,389.0384 237.6516,388.9154 237.5396,388.6514" id="Fill-739" fill="#62B5E5"></path>
                            <path d="M406.6407,504.8945 C406.9087,504.6965 407.2867,504.7525 407.4847,505.0215 C407.6827,505.2905 407.6257,505.6675 407.3577,505.8665 C407.0887,506.0645 406.7107,506.0065 406.5127,505.7395 C406.3157,505.4705 406.3717,505.0925 406.6407,504.8945" id="Fill-741" fill="#62B5E5"></path>
                            <path d="M390.007,517.9775 C390.218,518.1075 390.284,518.3845 390.154,518.5955 C390.024,518.8065 389.747,518.8735 389.536,518.7435 C389.325,518.6125 389.259,518.3355 389.389,518.1235 C389.519,517.9135 389.796,517.8475 390.007,517.9775" id="Fill-743" fill="#62B5E5"></path>
                            <path d="M358.0602,542.3545 C357.6592,542.4485 357.2572,542.1985 357.1642,541.7965 C357.0702,541.3945 357.3202,540.9935 357.7222,540.8995 C358.1232,540.8065 358.5252,541.0565 358.6192,541.4585 C358.7122,541.8605 358.4622,542.2615 358.0602,542.3545" id="Fill-745" fill="#62B5E5"></path>
                            <path d="M335.2965,547.1611 C335.4695,547.0941 335.6645,547.1781 335.7335,547.3511 C335.8015,547.5241 335.7165,547.7201 335.5435,547.7881 C335.3705,547.8561 335.1745,547.7711 335.1065,547.5981 C335.0385,547.4261 335.1235,547.2291 335.2965,547.1611" id="Fill-747" fill="#62B5E5"></path>
                            <path d="M476.4474,412.4414 C476.6194,412.5814 476.6454,412.8334 476.5064,413.0054 C476.3664,413.1774 476.1134,413.2034 475.9414,413.0634 C475.7694,412.9234 475.7434,412.6714 475.8834,412.4994 C476.0224,412.3274 476.2754,412.3014 476.4474,412.4414" id="Fill-749" fill="#62B5E5"></path>
                            <path d="M498.5724,435.0381 C498.7554,435.1401 498.8214,435.3711 498.7184,435.5541 C498.6174,435.7361 498.3864,435.8021 498.2034,435.7001 C498.0204,435.5991 497.9554,435.3671 498.0564,435.1841 C498.1584,435.0021 498.3894,434.9351 498.5724,435.0381" id="Fill-751" fill="#62B5E5"></path>
                            <path d="M481.8224,453.6494 C481.7344,453.5294 481.7604,453.3604 481.8814,453.2724 C482.0014,453.1844 482.1704,453.2114 482.2584,453.3314 C482.3454,453.4514 482.3194,453.6204 482.1994,453.7084 C482.0794,453.7954 481.9104,453.7694 481.8224,453.6494" id="Fill-753" fill="#62B5E5"></path>
                            <path d="M505.8839,472.7959 C505.6189,472.6879 505.4929,472.3849 505.6019,472.1199 C505.7109,471.8569 506.0129,471.7309 506.2779,471.8389 C506.5419,471.9469 506.6679,472.2499 506.5589,472.5149 C506.4499,472.7789 506.1479,472.9049 505.8839,472.7959" id="Fill-755" fill="#62B5E5"></path>
                            <path d="M473.5948,380.2905 C473.5258,380.3395 473.4298,380.3235 473.3808,380.2545 C473.3318,380.1855 473.3478,380.0895 473.4168,380.0405 C473.4868,379.9915 473.5818,380.0075 473.6308,380.0765 C473.6798,380.1455 473.6638,380.2415 473.5948,380.2905" id="Fill-757" fill="#62B5E5"></path>
                            <path d="M488.9005,382.9453 C488.5915,382.8633 488.4085,382.5483 488.4895,382.2393 C488.5715,381.9313 488.8865,381.7473 489.1955,381.8283 C489.5045,381.9103 489.6875,382.2263 489.6065,382.5343 C489.5245,382.8423 489.2095,383.0273 488.9005,382.9453" id="Fill-759" fill="#62B5E5"></path>
                            <path d="M497.1505,412.6006 C496.9895,412.5676 496.8855,412.4096 496.9195,412.2466 C496.9535,412.0856 497.1105,411.9826 497.2725,412.0166 C497.4335,412.0496 497.5375,412.2076 497.5045,412.3696 C497.4695,412.5306 497.3115,412.6336 497.1505,412.6006" id="Fill-761" fill="#62B5E5"></path>
                            <path d="M509.5929,438.541 C509.7649,438.441 509.9849,438.498 510.0849,438.67 C510.1859,438.841 510.1279,439.062 509.9569,439.161 C509.7849,439.262 509.5659,439.204 509.4649,439.033 C509.3639,438.862 509.4219,438.642 509.5929,438.541" id="Fill-763" fill="#62B5E5"></path>
                            <path d="M507.9718,413.667 C508.0868,413.63 508.2098,413.692 508.2468,413.807 C508.2848,413.922 508.2228,414.045 508.1078,414.083 C507.9928,414.12 507.8698,414.058 507.8318,413.942 C507.7948,413.828 507.8578,413.705 507.9718,413.667" id="Fill-765" fill="#62B5E5"></path>
                            <path d="M496.7306,373.8027 C497.0146,373.6127 497.3986,373.6887 497.5876,373.9727 C497.7786,374.2567 497.7026,374.6407 497.4176,374.8307 C497.1336,375.0197 496.7506,374.9437 496.5606,374.6597 C496.3716,374.3767 496.4476,373.9917 496.7306,373.8027" id="Fill-767" fill="#62B5E5"></path>
                            <path d="M473.3741,363.5278 C473.4291,363.3898 473.5851,363.3218 473.7231,363.3768 C473.8601,363.4308 473.9291,363.5868 473.8741,363.7248 C473.8191,363.8618 473.6641,363.9298 473.5251,363.8758 C473.3881,363.8208 473.3201,363.6658 473.3741,363.5278" id="Fill-769" fill="#62B5E5"></path>
                            <path d="M473.1769,337.5269 C473.3099,337.5549 473.3949,337.6859 473.3659,337.8179 C473.3379,337.9509 473.2079,338.0349 473.0749,338.0069 C472.9429,337.9789 472.8579,337.8489 472.8859,337.7159 C472.9139,337.5839 473.0439,337.4989 473.1769,337.5269" id="Fill-771" fill="#62B5E5"></path>
                            <path d="M447.8859,337.8408 C447.7149,337.4898 447.8609,337.0678 448.2109,336.8968 C448.5619,336.7258 448.9849,336.8708 449.1559,337.2218 C449.3259,337.5718 449.1799,337.9948 448.8289,338.1658 C448.4799,338.3368 448.0569,338.1918 447.8859,337.8408" id="Fill-773" fill="#62B5E5"></path>
                            <path d="M417.84,306.5249 C417.883,306.7169 417.762,306.9069 417.569,306.9499 C417.377,306.9929 417.188,306.8719 417.145,306.6799 C417.102,306.4879 417.223,306.2969 417.414,306.2549 C417.607,306.2119 417.797,306.3329 417.84,306.5249" id="Fill-775" fill="#62B5E5"></path>
                            <path d="M398.756,291.188 C398.959,290.866 399.385,290.77 399.707,290.974 C400.029,291.177 400.125,291.604 399.922,291.925 C399.718,292.248 399.292,292.343 398.97,292.14 C398.648,291.936 398.552,291.51 398.756,291.188" id="Fill-777" fill="#62B5E5"></path>
                            <path d="M346.9669,287.7578 C346.9599,288.0748 346.6969,288.3258 346.3809,288.3188 C346.0639,288.3118 345.8129,288.0498 345.8199,287.7328 C345.8269,287.4158 346.0899,287.1648 346.4059,287.1718 C346.7229,287.1788 346.9739,287.4418 346.9669,287.7578" id="Fill-785" fill="#62B5E5"></path>
                            <path d="M337.7677,315.853 C337.7547,315.955 337.6617,316.027 337.5597,316.014 C337.4577,316.001 337.3857,315.908 337.3987,315.806 C337.4117,315.704 337.5047,315.632 337.6067,315.645 C337.7087,315.658 337.7807,315.751 337.7677,315.853" id="Fill-793" fill="#62B5E5"></path>
                            <path d="M307.3521,299.0601 C307.3511,299.1531 307.2741,299.2281 307.1811,299.2271 C307.0871,299.2261 307.0131,299.1491 307.0141,299.0561 C307.0151,298.9621 307.0921,298.8881 307.1851,298.8891 C307.2781,298.8901 307.3531,298.9671 307.3521,299.0601" id="Fill-795" fill="#62B5E5"></path>
                            <path d="M275.6187,318.5381 C275.7117,318.5361 275.7887,318.6101 275.7907,318.7041 C275.7927,318.7971 275.7187,318.8741 275.6257,318.8761 C275.5327,318.8781 275.4557,318.8041 275.4537,318.7101 C275.4517,318.6171 275.5257,318.5401 275.6187,318.5381" id="Fill-797" fill="#62B5E5"></path>
                            <path d="M256.8961,321.2651 C256.7651,321.0681 256.8191,320.8011 257.0171,320.6701 C257.2141,320.5391 257.4811,320.5931 257.6121,320.7901 C257.7431,320.9881 257.6891,321.2551 257.4921,321.3861 C257.2941,321.5171 257.0271,321.4631 256.8961,321.2651" id="Fill-799" fill="#62B5E5"></path>
                            <path d="M451.9698,394.8257 C451.6338,395.0657 451.1668,394.9887 450.9258,394.6527 C450.6858,394.3167 450.7638,393.8497 451.0998,393.6087 C451.4358,393.3687 451.9028,393.4457 452.1428,393.7827 C452.3838,394.1177 452.3058,394.5847 451.9698,394.8257" id="Fill-801" fill="#62B5E5"></path>
                            <path d="M382.6481,402.4746 C382.2971,402.4216 382.0561,402.0946 382.1091,401.7446 C382.1631,401.3936 382.4891,401.1526 382.8401,401.2056 C383.1901,401.2586 383.4311,401.5856 383.3781,401.9366 C383.3251,402.2866 382.9981,402.5276 382.6481,402.4746" id="Fill-803" fill="#62B5E5"></path>
                            <path d="M457.4904,356.4658 C457.7334,356.3128 458.0544,356.3858 458.2084,356.6298 C458.3614,356.8728 458.288406,357.1948 458.0454,357.3468 C457.8024,357.5008 457.4794,357.4268 457.3274,357.1838 C457.1744,356.9408 457.247394,356.6188 457.4904,356.4658" id="Fill-805" fill="#62B5E5"></path>
                            <path d="M373.566,431.5605 C373.62,431.9715 373.331,432.3495 372.919,432.4035 C372.508,432.4575 372.13,432.1675 372.076,431.7565 C372.022,431.3455 372.311,430.9675 372.723,430.9135 C373.134,430.8595 373.512,431.1485 373.566,431.5605" id="Fill-807" fill="#62B5E5"></path>
                            <path d="M430.0284,314.6924 C430.1224,314.7514 430.1504,314.8754 430.0914,314.9684 C430.0334,315.0624 429.9094,315.0904 429.8154,315.0314 C429.7224,314.9724 429.6944,314.8494 429.7534,314.7554 C429.8114,314.6624 429.9354,314.6334 430.0284,314.6924" id="Fill-809" fill="#62B5E5"></path>
                            <path d="M421.3829,297.9854 C421.1119,297.7214 421.1069,297.2874 421.3709,297.0164 C421.6349,296.7464 422.0699,296.7404 422.3399,297.0054 C422.6109,297.2694 422.6159,297.7034 422.3519,297.9734 C422.0869,298.2444 421.6539,298.2504 421.3829,297.9854" id="Fill-811" fill="#62B5E5"></path>
                        </g>
                    </g>
                </g>
            </g>
        </g>
    </g>
</svg>