<?xml version="1.0" encoding="UTF-8"?>
<svg width="108px" height="327px" viewBox="0 0 108 327" version="1.1" xmlns="http://www.w3.org/2000/svg" xmlns:xlink="http://www.w3.org/1999/xlink">
    <title>triangle dots left</title>
    <g id="Welcome" stroke="none" stroke-width="1" fill="none" fill-rule="evenodd" opacity="0.33">
        <g id="Consulting-&gt;-Build" transform="translate(-59.000000, -641.000000)" fill="#62B5E5">
            <g id="03-highlight" transform="translate(0.000000, 584.000000)">
                <g id="triangle-dots-left" transform="translate(59.000000, 57.000000)">
                    <g id="triangle-dots" transform="translate(36.514255, 42.276974) rotate(-270.000000) translate(-36.514255, -42.276974) translate(-4.985745, 6.276974)">
                        <path d="M39.9992845,3.7323219 C40.9562362,4.28368624 42.179188,3.95611095 42.7322737,2.99933167 C43.2837374,2.04417404 42.956103,0.819820883 41.9991514,0.268456548 C41.0438216,-0.284529447 39.8208698,0.044667494 39.2677841,0.999825122 C38.7163205,1.95660441 39.0439548,3.17933591 39.9992845,3.7323219" id="Fill-1"></path>
                        <path d="M34.0003734,12.732268 C34.9573387,13.2836243 36.1803079,12.9560538 36.7334014,12.00091 C37.2832509,11.0441445 36.955612,9.82143067 35.9986467,9.26845267 C35.0449254,8.71547466 33.8219562,9.04466685 33.2688627,9.99981068 C32.7157692,10.9565761 33.0434081,12.17929 34.0003734,12.732268" id="Fill-3"></path>
                        <path d="M35.9991369,20.2688065 C35.0437933,19.7158286 33.8192019,20.0433991 33.2677302,21.0001644 C32.7162585,21.9569297 33.0438976,23.1796434 34.0008631,23.7326213 C34.9562067,24.2839776 36.1791762,23.9547855 36.7322698,23.0012634 C37.2837415,22.0444981 36.9561024,20.8217844 35.9991369,20.2688065" id="Fill-5"></path>
                        <path d="M26.000359,28.7311896 C26.9573105,29.2841755 28.1802621,28.9566003 28.7333477,27.9998212 C29.2831893,27.0430421 28.955555,25.8203108 28.0002255,25.2673249 C27.0448959,24.7159607 25.8219443,25.0451576 25.2688588,26.000315 C24.7157733,26.9554725 25.0434075,28.1782037 26.000359,28.7311896" id="Fill-7"></path>
                        <path d="M16.999641,46.2680622 C16.0426895,45.7167546 14.8197379,46.0426746 14.2666523,46.9993555 C13.7168107,47.9560363 14.044445,49.178642 14.9997745,49.7315711 C15.9551041,50.2845002 17.1796776,49.9553371 17.7311412,49.0002778 C18.2842267,48.0435969 17.9565925,46.8209913 16.999641,46.2680622" id="Fill-9"></path>
                        <path d="M22.9991369,56.2688433 C22.0437933,55.7157896 20.8192019,56.043405 20.2677302,57.0003014 C19.7162585,57.9571977 20.0438976,59.1800788 21.0008631,59.7315106 C21.9562067,60.2845643 23.1791762,59.955327 23.7322698,59.0000525 C24.2837415,58.0431562 23.9561024,56.8202751 22.9991369,56.2688433" id="Fill-11"></path>
                        <path d="M14.9991369,67.2688065 C14.0437933,66.7158286 12.8192019,67.0433991 12.2677302,68.0001644 C11.7162585,68.9569297 12.0438976,70.1796434 13.0008631,70.7326213 C13.9562067,71.2839776 15.1791762,70.9547855 15.7322698,70.0012634 C16.2837415,69.0444981 15.9561024,67.8217844 14.9991369,67.2688065" id="Fill-13"></path>
                        <path d="M9.99962658,57.2688433 C9.0426613,56.7157896 7.8196921,57.043405 7.26659861,58.0003014 C6.71674906,58.9571977 7.04438802,60.1800788 8.00135331,60.7315106 C8.95507464,61.2845643 10.1780438,60.955327 10.7311373,60.0000525 C11.2842308,59.0431562 10.9565919,57.8202751 9.99962658,57.2688433" id="Fill-15"></path>
                        <path d="M2.99950391,67.2688065 C2.04242127,66.7158286 0.819302112,67.0433991 0.267762967,68.0001644 C-0.283776178,68.9569297 0.0439029607,70.1796434 1.00098559,70.7326213 C1.95644605,71.2839776 3.17956522,70.9547855 3.73110436,70.0012634 C4.28426568,69.0444981 3.95658654,67.8217844 2.99950391,67.2688065" id="Fill-17"></path>
                        <path d="M81.2221667,68.165 C80.2405,67.5966667 78.9838333,67.9333333 78.4155,68.9166667 C77.8488333,69.9 78.1855,71.1566667 79.1688333,71.725 C80.1505,72.2916667 81.4071667,71.955 81.9738333,70.9733333 C82.5421667,69.99 82.2055,68.7333333 81.2221667,68.165" id="Fill-19"></path>
                        <path d="M69.9991369,68.2687827 C69.0437933,67.7158537 67.8192019,68.0433952 67.2677302,69.0000761 C66.7162585,69.9567569 67.0438976,71.1793626 68.0008631,71.7322917 C68.9562067,72.2835993 70.1791762,71.9560577 70.7322698,71.0009983 C71.2837415,70.0443175 70.9561024,68.8217118 69.9991369,68.2687827" id="Fill-22"></path>
                        <path d="M60.9995039,57.267732 C60.0424213,56.7163757 58.8193021,57.0439462 58.267763,57.99909 C57.7162238,58.9558555 58.043903,60.1785693 59.0009856,60.7315473 C59.9548239,61.2845253 61.1795652,60.9553332 61.7311044,60.0001893 C62.2842657,59.0434239 61.9565865,57.82071 60.9995039,57.267732" id="Fill-24"></path>
                        <path d="M59.00045,68.2676781 C58.043583,67.7163138 56.8207394,68.043889 56.2677026,69.0006683 C55.7162877,69.955826 56.0438931,71.1801791 57.0007601,71.7315435 C57.9560053,72.2845294 59.178849,71.9553325 59.7318857,71.0001749 C60.2833006,70.0433956 59.9573171,68.8206641 59.00045,68.2676781" id="Fill-26"></path>
                        <path d="M47.999641,68.2688065 C47.0426895,67.7158286 45.8197379,68.0433991 45.2666523,69.0001644 C44.7168107,69.9569297 45.044445,71.1796434 45.9997745,71.7326213 C46.9551041,72.2839776 48.1780557,71.9547855 48.7311412,71.0012634 C49.2842267,70.0444981 48.9565925,68.8217844 47.999641,68.2688065" id="Fill-28"></path>
                        <path d="M47.999641,57.267732 C47.0426895,56.7163757 45.8197379,57.0439462 45.2666523,57.99909 C44.7168107,58.9558555 45.044445,60.1785693 45.9997745,60.7315473 C46.9551041,61.2845253 48.1796776,60.9553332 48.7311412,60.0001893 C49.2842267,59.0434239 48.9565925,57.82071 47.999641,57.267732" id="Fill-30"></path>
                        <path d="M36.9995039,67.2688433 C36.0424213,66.7157896 34.8193021,67.043405 34.267763,68.0003014 C33.7162238,68.9571977 34.043903,70.1800788 35.0009856,70.7315106 C35.9564461,71.2845643 37.1795652,70.955327 37.7311044,70.0000525 C38.2842657,69.0431562 37.9565865,67.8202751 36.9995039,67.2688433" id="Fill-32"></path>
                        <path d="M27.0007155,67.2688065 C26.0437638,66.7158286 24.820812,67.0433991 24.2677263,68.0001644 C23.7162626,68.9569297 24.043897,70.1796434 25.0008486,70.7326213 C25.9561784,71.2839776 27.1791302,70.9547855 27.7322159,70.0012634 C28.2836795,69.0444981 27.9560452,67.8201628 27.0007155,67.2688065" id="Fill-34"></path>
                        <path d="M35.7312173,58.9996266 C36.2841463,58.0426613 35.9566048,56.8196921 34.9999239,56.2665986 C34.0432431,55.7167491 32.8206374,56.044388 32.2677083,57.0013533 C31.7164007,57.9550746 32.0439423,59.1780438 32.9990017,59.7311373 C33.9556825,60.2842308 35.1782882,59.9565919 35.7312173,58.9996266" id="Fill-36"></path>
                        <path d="M28.9995184,45.2688433 C28.0424496,44.7157896 26.8193481,45.043405 26.2678169,46.0003014 C25.7162857,46.9555759 26.0439601,48.1800788 26.9994068,48.7315106 C27.9564756,49.2845643 29.1779549,48.955327 29.7311082,48.0000525 C30.2842616,47.0431562 29.9565872,45.8202751 28.9995184,45.2688433" id="Fill-38"></path>
                        <path d="M22.7311896,37.9997293 C23.2841755,37.0428623 22.9566003,35.8200186 21.9998212,35.2669819 C21.0430421,34.7171888 19.8203108,35.0431724 19.2673249,36.0000394 C18.7159607,36.9552846 19.0451576,38.1781282 20.000315,38.7311649 C20.9554725,39.2842016 22.1782037,38.9565963 22.7311896,37.9997293" id="Fill-40"></path>
                        <path d="M33.9996382,37.7311896 C34.9565898,38.2841755 36.1795414,37.9566003 36.7326269,36.9998212 C37.2840905,36.0430421 36.9548343,34.8203108 35.9995047,34.2673249 C35.0441751,33.7159607 33.8212235,34.0451576 33.268138,35.000315 C32.7166744,35.9554725 33.0426867,37.1798254 33.9996382,37.7311896" id="Fill-42"></path>
                        <path d="M41.9995039,46.2680622 C41.0424213,45.7167546 39.8193021,46.0426746 39.267763,46.9993555 C38.7162238,47.9560363 39.043903,49.178642 40.0009856,49.7315711 C40.9564461,50.2845002 42.1795652,49.9553371 42.7311044,49.0002778 C43.2842657,48.0435969 42.9565865,46.8209913 41.9995039,46.2680622" id="Fill-44"></path>
                        <path d="M45.7319378,27.9995039 C46.2832454,27.0424213 45.9573254,25.8193021 45.0006445,25.267763 C44.0439637,24.7162238 42.821358,25.043903 42.2684289,26.0009856 C41.7154998,26.9564461 42.0446629,28.1795652 42.9997222,28.7311044 C43.9564031,29.2842657 45.1790087,28.9565865 45.7319378,27.9995039" id="Fill-46"></path>
                        <path d="M46.0004961,16.7311567 C46.9575787,17.2842104 48.1806979,16.956595 48.732237,15.9996986 C49.2837762,15.0444241 48.956097,13.8199212 47.9990144,13.2684894 C47.0435539,12.7154357 45.8204348,13.044673 45.2688956,13.9999475 C44.7157343,14.9568438 45.0434135,16.1797249 46.0004961,16.7311567" id="Fill-48"></path>
                        <path d="M54.000654,27.7313878 C54.9566643,28.2837985 56.1790502,27.9569283 56.7314117,27.0008327 C57.2837732,26.0447371 56.9569321,24.8206079 56.0009218,24.2681972 C55.0432772,23.7157864 53.8208914,24.044291 53.2685298,25.0003866 C52.7161683,25.9564822 53.0430094,27.1806113 54.000654,27.7313878" id="Fill-50"></path>
                        <path d="M59.000359,38.7311567 C59.9573105,39.2842104 61.1802621,38.956595 61.7333477,37.9996986 C62.2831893,37.0428023 61.955555,35.8199212 61.0002255,35.2684894 C60.0448959,34.7154357 58.8219443,35.044673 58.2688588,35.9999475 C57.7157733,36.9568438 58.0434075,38.1797249 59.000359,38.7311567" id="Fill-52"></path>
                        <path d="M48.9991369,36.2687827 C48.0437933,35.7158537 46.8208238,36.0433952 46.2677302,37.0000761 C45.7162585,37.9567569 46.0438976,39.1793626 47.0008631,39.7322917 C47.9562067,40.2835993 49.1791762,39.9560577 49.7322698,39.0009983 C50.2837415,38.0443175 49.9561024,36.8217118 48.9991369,36.2687827" id="Fill-54"></path>
                        <path d="M54.9996266,47.2688433 C54.0426613,46.7157896 52.8196921,47.043405 52.2665986,48.0003014 C51.7167491,48.9555759 52.044388,50.1800788 53.0013533,50.7315106 C53.9566966,51.2845643 55.1796658,50.955327 55.7311373,50.0000525 C56.2842308,49.0431562 55.9565919,47.8202751 54.9996266,47.2688433" id="Fill-56"></path>
                        <path d="M67.7311935,48.9991369 C68.2841714,48.0437933 67.9566009,46.8192019 66.9998356,46.2677302 C66.0430703,45.7162585 64.8203566,46.0438976 64.2673787,47.0008631 C63.7160224,47.9562067 64.0452145,49.1791762 64.9987366,49.7322698 C65.9555019,50.2837415 67.1782156,49.9561024 67.7311935,48.9991369" id="Fill-58"></path>
                        <path d="M73.9996266,57.2688433 C73.0426613,56.7157896 71.8196921,57.043405 71.2665986,58.0003014 C70.7167491,58.9555759 71.044388,60.1800788 72.0013533,60.7315106 C72.9550746,61.2845643 74.1796658,60.955327 74.7311373,60.0000525 C75.2842308,59.0431562 74.9565919,57.8202751 73.9996266,57.2688433" id="Fill-60"></path>
                    </g>
                    <g id="triangle-dots" transform="translate(71.514255, 121.776974) rotate(-270.000000) translate(-71.514255, -121.776974) translate(30.014255, 85.776974)">
                        <path d="M39.9992845,3.7323219 C40.9562362,4.28368624 42.179188,3.95611095 42.7322737,2.99933167 C43.2837374,2.04417404 42.956103,0.819820883 41.9991514,0.268456548 C41.0438216,-0.284529447 39.8208698,0.044667494 39.2677841,0.999825122 C38.7163205,1.95660441 39.0439548,3.17933591 39.9992845,3.7323219" id="Fill-1"></path>
                        <path d="M34.0003734,12.732268 C34.9573387,13.2836243 36.1803079,12.9560538 36.7334014,12.00091 C37.2832509,11.0441445 36.955612,9.82143067 35.9986467,9.26845267 C35.0449254,8.71547466 33.8219562,9.04466685 33.2688627,9.99981068 C32.7157692,10.9565761 33.0434081,12.17929 34.0003734,12.732268" id="Fill-3"></path>
                        <path d="M35.9991369,20.2688065 C35.0437933,19.7158286 33.8192019,20.0433991 33.2677302,21.0001644 C32.7162585,21.9569297 33.0438976,23.1796434 34.0008631,23.7326213 C34.9562067,24.2839776 36.1791762,23.9547855 36.7322698,23.0012634 C37.2837415,22.0444981 36.9561024,20.8217844 35.9991369,20.2688065" id="Fill-5"></path>
                        <path d="M26.000359,28.7311896 C26.9573105,29.2841755 28.1802621,28.9566003 28.7333477,27.9998212 C29.2831893,27.0430421 28.955555,25.8203108 28.0002255,25.2673249 C27.0448959,24.7159607 25.8219443,25.0451576 25.2688588,26.000315 C24.7157733,26.9554725 25.0434075,28.1782037 26.000359,28.7311896" id="Fill-7"></path>
                        <path d="M16.999641,46.2680622 C16.0426895,45.7167546 14.8197379,46.0426746 14.2666523,46.9993555 C13.7168107,47.9560363 14.044445,49.178642 14.9997745,49.7315711 C15.9551041,50.2845002 17.1796776,49.9553371 17.7311412,49.0002778 C18.2842267,48.0435969 17.9565925,46.8209913 16.999641,46.2680622" id="Fill-9"></path>
                        <path d="M22.9991369,56.2688433 C22.0437933,55.7157896 20.8192019,56.043405 20.2677302,57.0003014 C19.7162585,57.9571977 20.0438976,59.1800788 21.0008631,59.7315106 C21.9562067,60.2845643 23.1791762,59.955327 23.7322698,59.0000525 C24.2837415,58.0431562 23.9561024,56.8202751 22.9991369,56.2688433" id="Fill-11"></path>
                        <path d="M14.9991369,67.2688065 C14.0437933,66.7158286 12.8192019,67.0433991 12.2677302,68.0001644 C11.7162585,68.9569297 12.0438976,70.1796434 13.0008631,70.7326213 C13.9562067,71.2839776 15.1791762,70.9547855 15.7322698,70.0012634 C16.2837415,69.0444981 15.9561024,67.8217844 14.9991369,67.2688065" id="Fill-13"></path>
                        <path d="M9.99962658,57.2688433 C9.0426613,56.7157896 7.8196921,57.043405 7.26659861,58.0003014 C6.71674906,58.9571977 7.04438802,60.1800788 8.00135331,60.7315106 C8.95507464,61.2845643 10.1780438,60.955327 10.7311373,60.0000525 C11.2842308,59.0431562 10.9565919,57.8202751 9.99962658,57.2688433" id="Fill-15"></path>
                        <path d="M2.99950391,67.2688065 C2.04242127,66.7158286 0.819302112,67.0433991 0.267762967,68.0001644 C-0.283776178,68.9569297 0.0439029607,70.1796434 1.00098559,70.7326213 C1.95644605,71.2839776 3.17956522,70.9547855 3.73110436,70.0012634 C4.28426568,69.0444981 3.95658654,67.8217844 2.99950391,67.2688065" id="Fill-17"></path>
                        <path d="M81.2221667,68.165 C80.2405,67.5966667 78.9838333,67.9333333 78.4155,68.9166667 C77.8488333,69.9 78.1855,71.1566667 79.1688333,71.725 C80.1505,72.2916667 81.4071667,71.955 81.9738333,70.9733333 C82.5421667,69.99 82.2055,68.7333333 81.2221667,68.165" id="Fill-19"></path>
                        <path d="M69.9991369,68.2687827 C69.0437933,67.7158537 67.8192019,68.0433952 67.2677302,69.0000761 C66.7162585,69.9567569 67.0438976,71.1793626 68.0008631,71.7322917 C68.9562067,72.2835993 70.1791762,71.9560577 70.7322698,71.0009983 C71.2837415,70.0443175 70.9561024,68.8217118 69.9991369,68.2687827" id="Fill-22"></path>
                        <path d="M60.9995039,57.267732 C60.0424213,56.7163757 58.8193021,57.0439462 58.267763,57.99909 C57.7162238,58.9558555 58.043903,60.1785693 59.0009856,60.7315473 C59.9548239,61.2845253 61.1795652,60.9553332 61.7311044,60.0001893 C62.2842657,59.0434239 61.9565865,57.82071 60.9995039,57.267732" id="Fill-24"></path>
                        <path d="M59.00045,68.2676781 C58.043583,67.7163138 56.8207394,68.043889 56.2677026,69.0006683 C55.7162877,69.955826 56.0438931,71.1801791 57.0007601,71.7315435 C57.9560053,72.2845294 59.178849,71.9553325 59.7318857,71.0001749 C60.2833006,70.0433956 59.9573171,68.8206641 59.00045,68.2676781" id="Fill-26"></path>
                        <path d="M47.999641,68.2688065 C47.0426895,67.7158286 45.8197379,68.0433991 45.2666523,69.0001644 C44.7168107,69.9569297 45.044445,71.1796434 45.9997745,71.7326213 C46.9551041,72.2839776 48.1780557,71.9547855 48.7311412,71.0012634 C49.2842267,70.0444981 48.9565925,68.8217844 47.999641,68.2688065" id="Fill-28"></path>
                        <path d="M47.999641,57.267732 C47.0426895,56.7163757 45.8197379,57.0439462 45.2666523,57.99909 C44.7168107,58.9558555 45.044445,60.1785693 45.9997745,60.7315473 C46.9551041,61.2845253 48.1796776,60.9553332 48.7311412,60.0001893 C49.2842267,59.0434239 48.9565925,57.82071 47.999641,57.267732" id="Fill-30"></path>
                        <path d="M36.9995039,67.2688433 C36.0424213,66.7157896 34.8193021,67.043405 34.267763,68.0003014 C33.7162238,68.9571977 34.043903,70.1800788 35.0009856,70.7315106 C35.9564461,71.2845643 37.1795652,70.955327 37.7311044,70.0000525 C38.2842657,69.0431562 37.9565865,67.8202751 36.9995039,67.2688433" id="Fill-32"></path>
                        <path d="M27.0007155,67.2688065 C26.0437638,66.7158286 24.820812,67.0433991 24.2677263,68.0001644 C23.7162626,68.9569297 24.043897,70.1796434 25.0008486,70.7326213 C25.9561784,71.2839776 27.1791302,70.9547855 27.7322159,70.0012634 C28.2836795,69.0444981 27.9560452,67.8201628 27.0007155,67.2688065" id="Fill-34"></path>
                        <path d="M35.7312173,58.9996266 C36.2841463,58.0426613 35.9566048,56.8196921 34.9999239,56.2665986 C34.0432431,55.7167491 32.8206374,56.044388 32.2677083,57.0013533 C31.7164007,57.9550746 32.0439423,59.1780438 32.9990017,59.7311373 C33.9556825,60.2842308 35.1782882,59.9565919 35.7312173,58.9996266" id="Fill-36"></path>
                        <path d="M28.9995184,45.2688433 C28.0424496,44.7157896 26.8193481,45.043405 26.2678169,46.0003014 C25.7162857,46.9555759 26.0439601,48.1800788 26.9994068,48.7315106 C27.9564756,49.2845643 29.1779549,48.955327 29.7311082,48.0000525 C30.2842616,47.0431562 29.9565872,45.8202751 28.9995184,45.2688433" id="Fill-38"></path>
                        <path d="M22.7311896,37.9997293 C23.2841755,37.0428623 22.9566003,35.8200186 21.9998212,35.2669819 C21.0430421,34.7171888 19.8203108,35.0431724 19.2673249,36.0000394 C18.7159607,36.9552846 19.0451576,38.1781282 20.000315,38.7311649 C20.9554725,39.2842016 22.1782037,38.9565963 22.7311896,37.9997293" id="Fill-40"></path>
                        <path d="M33.9996382,37.7311896 C34.9565898,38.2841755 36.1795414,37.9566003 36.7326269,36.9998212 C37.2840905,36.0430421 36.9548343,34.8203108 35.9995047,34.2673249 C35.0441751,33.7159607 33.8212235,34.0451576 33.268138,35.000315 C32.7166744,35.9554725 33.0426867,37.1798254 33.9996382,37.7311896" id="Fill-42"></path>
                        <path d="M41.9995039,46.2680622 C41.0424213,45.7167546 39.8193021,46.0426746 39.267763,46.9993555 C38.7162238,47.9560363 39.043903,49.178642 40.0009856,49.7315711 C40.9564461,50.2845002 42.1795652,49.9553371 42.7311044,49.0002778 C43.2842657,48.0435969 42.9565865,46.8209913 41.9995039,46.2680622" id="Fill-44"></path>
                        <path d="M45.7319378,27.9995039 C46.2832454,27.0424213 45.9573254,25.8193021 45.0006445,25.267763 C44.0439637,24.7162238 42.821358,25.043903 42.2684289,26.0009856 C41.7154998,26.9564461 42.0446629,28.1795652 42.9997222,28.7311044 C43.9564031,29.2842657 45.1790087,28.9565865 45.7319378,27.9995039" id="Fill-46"></path>
                        <path d="M46.0004961,16.7311567 C46.9575787,17.2842104 48.1806979,16.956595 48.732237,15.9996986 C49.2837762,15.0444241 48.956097,13.8199212 47.9990144,13.2684894 C47.0435539,12.7154357 45.8204348,13.044673 45.2688956,13.9999475 C44.7157343,14.9568438 45.0434135,16.1797249 46.0004961,16.7311567" id="Fill-48"></path>
                        <path d="M54.000654,27.7313878 C54.9566643,28.2837985 56.1790502,27.9569283 56.7314117,27.0008327 C57.2837732,26.0447371 56.9569321,24.8206079 56.0009218,24.2681972 C55.0432772,23.7157864 53.8208914,24.044291 53.2685298,25.0003866 C52.7161683,25.9564822 53.0430094,27.1806113 54.000654,27.7313878" id="Fill-50"></path>
                        <path d="M59.000359,38.7311567 C59.9573105,39.2842104 61.1802621,38.956595 61.7333477,37.9996986 C62.2831893,37.0428023 61.955555,35.8199212 61.0002255,35.2684894 C60.0448959,34.7154357 58.8219443,35.044673 58.2688588,35.9999475 C57.7157733,36.9568438 58.0434075,38.1797249 59.000359,38.7311567" id="Fill-52"></path>
                        <path d="M48.9991369,36.2687827 C48.0437933,35.7158537 46.8208238,36.0433952 46.2677302,37.0000761 C45.7162585,37.9567569 46.0438976,39.1793626 47.0008631,39.7322917 C47.9562067,40.2835993 49.1791762,39.9560577 49.7322698,39.0009983 C50.2837415,38.0443175 49.9561024,36.8217118 48.9991369,36.2687827" id="Fill-54"></path>
                        <path d="M54.9996266,47.2688433 C54.0426613,46.7157896 52.8196921,47.043405 52.2665986,48.0003014 C51.7167491,48.9555759 52.044388,50.1800788 53.0013533,50.7315106 C53.9566966,51.2845643 55.1796658,50.955327 55.7311373,50.0000525 C56.2842308,49.0431562 55.9565919,47.8202751 54.9996266,47.2688433" id="Fill-56"></path>
                        <path d="M67.7311935,48.9991369 C68.2841714,48.0437933 67.9566009,46.8192019 66.9998356,46.2677302 C66.0430703,45.7162585 64.8203566,46.0438976 64.2673787,47.0008631 C63.7160224,47.9562067 64.0452145,49.1791762 64.9987366,49.7322698 C65.9555019,50.2837415 67.1782156,49.9561024 67.7311935,48.9991369" id="Fill-58"></path>
                        <path d="M73.9996266,57.2688433 C73.0426613,56.7157896 71.8196921,57.043405 71.2665986,58.0003014 C70.7167491,58.9555759 71.044388,60.1800788 72.0013533,60.7315106 C72.9550746,61.2845643 74.1796658,60.955327 74.7311373,60.0000525 C75.2842308,59.0431562 74.9565919,57.8202751 73.9996266,57.2688433" id="Fill-60"></path>
                    </g>
                    <g id="triangle-dots-copy" transform="translate(36.514255, 205.276974) rotate(-270.000000) translate(-36.514255, -205.276974) translate(-4.985745, 169.276974)">
                        <path d="M39.9992845,3.7323219 C40.9562362,4.28368624 42.179188,3.95611095 42.7322737,2.99933167 C43.2837374,2.04417404 42.956103,0.819820883 41.9991514,0.268456548 C41.0438216,-0.284529447 39.8208698,0.044667494 39.2677841,0.999825122 C38.7163205,1.95660441 39.0439548,3.17933591 39.9992845,3.7323219" id="Fill-1"></path>
                        <path d="M34.0003734,12.732268 C34.9573387,13.2836243 36.1803079,12.9560538 36.7334014,12.00091 C37.2832509,11.0441445 36.955612,9.82143067 35.9986467,9.26845267 C35.0449254,8.71547466 33.8219562,9.04466685 33.2688627,9.99981068 C32.7157692,10.9565761 33.0434081,12.17929 34.0003734,12.732268" id="Fill-3"></path>
                        <path d="M35.9991369,20.2688065 C35.0437933,19.7158286 33.8192019,20.0433991 33.2677302,21.0001644 C32.7162585,21.9569297 33.0438976,23.1796434 34.0008631,23.7326213 C34.9562067,24.2839776 36.1791762,23.9547855 36.7322698,23.0012634 C37.2837415,22.0444981 36.9561024,20.8217844 35.9991369,20.2688065" id="Fill-5"></path>
                        <path d="M26.000359,28.7311896 C26.9573105,29.2841755 28.1802621,28.9566003 28.7333477,27.9998212 C29.2831893,27.0430421 28.955555,25.8203108 28.0002255,25.2673249 C27.0448959,24.7159607 25.8219443,25.0451576 25.2688588,26.000315 C24.7157733,26.9554725 25.0434075,28.1782037 26.000359,28.7311896" id="Fill-7"></path>
                        <path d="M16.999641,46.2680622 C16.0426895,45.7167546 14.8197379,46.0426746 14.2666523,46.9993555 C13.7168107,47.9560363 14.044445,49.178642 14.9997745,49.7315711 C15.9551041,50.2845002 17.1796776,49.9553371 17.7311412,49.0002778 C18.2842267,48.0435969 17.9565925,46.8209913 16.999641,46.2680622" id="Fill-9"></path>
                        <path d="M22.9991369,56.2688433 C22.0437933,55.7157896 20.8192019,56.043405 20.2677302,57.0003014 C19.7162585,57.9571977 20.0438976,59.1800788 21.0008631,59.7315106 C21.9562067,60.2845643 23.1791762,59.955327 23.7322698,59.0000525 C24.2837415,58.0431562 23.9561024,56.8202751 22.9991369,56.2688433" id="Fill-11"></path>
                        <path d="M14.9991369,67.2688065 C14.0437933,66.7158286 12.8192019,67.0433991 12.2677302,68.0001644 C11.7162585,68.9569297 12.0438976,70.1796434 13.0008631,70.7326213 C13.9562067,71.2839776 15.1791762,70.9547855 15.7322698,70.0012634 C16.2837415,69.0444981 15.9561024,67.8217844 14.9991369,67.2688065" id="Fill-13"></path>
                        <path d="M9.99962658,57.2688433 C9.0426613,56.7157896 7.8196921,57.043405 7.26659861,58.0003014 C6.71674906,58.9571977 7.04438802,60.1800788 8.00135331,60.7315106 C8.95507464,61.2845643 10.1780438,60.955327 10.7311373,60.0000525 C11.2842308,59.0431562 10.9565919,57.8202751 9.99962658,57.2688433" id="Fill-15"></path>
                        <path d="M2.99950391,67.2688065 C2.04242127,66.7158286 0.819302112,67.0433991 0.267762967,68.0001644 C-0.283776178,68.9569297 0.0439029607,70.1796434 1.00098559,70.7326213 C1.95644605,71.2839776 3.17956522,70.9547855 3.73110436,70.0012634 C4.28426568,69.0444981 3.95658654,67.8217844 2.99950391,67.2688065" id="Fill-17"></path>
                        <path d="M81.2221667,68.165 C80.2405,67.5966667 78.9838333,67.9333333 78.4155,68.9166667 C77.8488333,69.9 78.1855,71.1566667 79.1688333,71.725 C80.1505,72.2916667 81.4071667,71.955 81.9738333,70.9733333 C82.5421667,69.99 82.2055,68.7333333 81.2221667,68.165" id="Fill-19"></path>
                        <path d="M69.9991369,68.2687827 C69.0437933,67.7158537 67.8192019,68.0433952 67.2677302,69.0000761 C66.7162585,69.9567569 67.0438976,71.1793626 68.0008631,71.7322917 C68.9562067,72.2835993 70.1791762,71.9560577 70.7322698,71.0009983 C71.2837415,70.0443175 70.9561024,68.8217118 69.9991369,68.2687827" id="Fill-22"></path>
                        <path d="M60.9995039,57.267732 C60.0424213,56.7163757 58.8193021,57.0439462 58.267763,57.99909 C57.7162238,58.9558555 58.043903,60.1785693 59.0009856,60.7315473 C59.9548239,61.2845253 61.1795652,60.9553332 61.7311044,60.0001893 C62.2842657,59.0434239 61.9565865,57.82071 60.9995039,57.267732" id="Fill-24"></path>
                        <path d="M59.00045,68.2676781 C58.043583,67.7163138 56.8207394,68.043889 56.2677026,69.0006683 C55.7162877,69.955826 56.0438931,71.1801791 57.0007601,71.7315435 C57.9560053,72.2845294 59.178849,71.9553325 59.7318857,71.0001749 C60.2833006,70.0433956 59.9573171,68.8206641 59.00045,68.2676781" id="Fill-26"></path>
                        <path d="M47.999641,68.2688065 C47.0426895,67.7158286 45.8197379,68.0433991 45.2666523,69.0001644 C44.7168107,69.9569297 45.044445,71.1796434 45.9997745,71.7326213 C46.9551041,72.2839776 48.1780557,71.9547855 48.7311412,71.0012634 C49.2842267,70.0444981 48.9565925,68.8217844 47.999641,68.2688065" id="Fill-28"></path>
                        <path d="M47.999641,57.267732 C47.0426895,56.7163757 45.8197379,57.0439462 45.2666523,57.99909 C44.7168107,58.9558555 45.044445,60.1785693 45.9997745,60.7315473 C46.9551041,61.2845253 48.1796776,60.9553332 48.7311412,60.0001893 C49.2842267,59.0434239 48.9565925,57.82071 47.999641,57.267732" id="Fill-30"></path>
                        <path d="M36.9995039,67.2688433 C36.0424213,66.7157896 34.8193021,67.043405 34.267763,68.0003014 C33.7162238,68.9571977 34.043903,70.1800788 35.0009856,70.7315106 C35.9564461,71.2845643 37.1795652,70.955327 37.7311044,70.0000525 C38.2842657,69.0431562 37.9565865,67.8202751 36.9995039,67.2688433" id="Fill-32"></path>
                        <path d="M27.0007155,67.2688065 C26.0437638,66.7158286 24.820812,67.0433991 24.2677263,68.0001644 C23.7162626,68.9569297 24.043897,70.1796434 25.0008486,70.7326213 C25.9561784,71.2839776 27.1791302,70.9547855 27.7322159,70.0012634 C28.2836795,69.0444981 27.9560452,67.8201628 27.0007155,67.2688065" id="Fill-34"></path>
                        <path d="M35.7312173,58.9996266 C36.2841463,58.0426613 35.9566048,56.8196921 34.9999239,56.2665986 C34.0432431,55.7167491 32.8206374,56.044388 32.2677083,57.0013533 C31.7164007,57.9550746 32.0439423,59.1780438 32.9990017,59.7311373 C33.9556825,60.2842308 35.1782882,59.9565919 35.7312173,58.9996266" id="Fill-36"></path>
                        <path d="M28.9995184,45.2688433 C28.0424496,44.7157896 26.8193481,45.043405 26.2678169,46.0003014 C25.7162857,46.9555759 26.0439601,48.1800788 26.9994068,48.7315106 C27.9564756,49.2845643 29.1779549,48.955327 29.7311082,48.0000525 C30.2842616,47.0431562 29.9565872,45.8202751 28.9995184,45.2688433" id="Fill-38"></path>
                        <path d="M22.7311896,37.9997293 C23.2841755,37.0428623 22.9566003,35.8200186 21.9998212,35.2669819 C21.0430421,34.7171888 19.8203108,35.0431724 19.2673249,36.0000394 C18.7159607,36.9552846 19.0451576,38.1781282 20.000315,38.7311649 C20.9554725,39.2842016 22.1782037,38.9565963 22.7311896,37.9997293" id="Fill-40"></path>
                        <path d="M33.9996382,37.7311896 C34.9565898,38.2841755 36.1795414,37.9566003 36.7326269,36.9998212 C37.2840905,36.0430421 36.9548343,34.8203108 35.9995047,34.2673249 C35.0441751,33.7159607 33.8212235,34.0451576 33.268138,35.000315 C32.7166744,35.9554725 33.0426867,37.1798254 33.9996382,37.7311896" id="Fill-42"></path>
                        <path d="M41.9995039,46.2680622 C41.0424213,45.7167546 39.8193021,46.0426746 39.267763,46.9993555 C38.7162238,47.9560363 39.043903,49.178642 40.0009856,49.7315711 C40.9564461,50.2845002 42.1795652,49.9553371 42.7311044,49.0002778 C43.2842657,48.0435969 42.9565865,46.8209913 41.9995039,46.2680622" id="Fill-44"></path>
                        <path d="M45.7319378,27.9995039 C46.2832454,27.0424213 45.9573254,25.8193021 45.0006445,25.267763 C44.0439637,24.7162238 42.821358,25.043903 42.2684289,26.0009856 C41.7154998,26.9564461 42.0446629,28.1795652 42.9997222,28.7311044 C43.9564031,29.2842657 45.1790087,28.9565865 45.7319378,27.9995039" id="Fill-46"></path>
                        <path d="M46.0004961,16.7311567 C46.9575787,17.2842104 48.1806979,16.956595 48.732237,15.9996986 C49.2837762,15.0444241 48.956097,13.8199212 47.9990144,13.2684894 C47.0435539,12.7154357 45.8204348,13.044673 45.2688956,13.9999475 C44.7157343,14.9568438 45.0434135,16.1797249 46.0004961,16.7311567" id="Fill-48"></path>
                        <path d="M54.000654,27.7313878 C54.9566643,28.2837985 56.1790502,27.9569283 56.7314117,27.0008327 C57.2837732,26.0447371 56.9569321,24.8206079 56.0009218,24.2681972 C55.0432772,23.7157864 53.8208914,24.044291 53.2685298,25.0003866 C52.7161683,25.9564822 53.0430094,27.1806113 54.000654,27.7313878" id="Fill-50"></path>
                        <path d="M59.000359,38.7311567 C59.9573105,39.2842104 61.1802621,38.956595 61.7333477,37.9996986 C62.2831893,37.0428023 61.955555,35.8199212 61.0002255,35.2684894 C60.0448959,34.7154357 58.8219443,35.044673 58.2688588,35.9999475 C57.7157733,36.9568438 58.0434075,38.1797249 59.000359,38.7311567" id="Fill-52"></path>
                        <path d="M48.9991369,36.2687827 C48.0437933,35.7158537 46.8208238,36.0433952 46.2677302,37.0000761 C45.7162585,37.9567569 46.0438976,39.1793626 47.0008631,39.7322917 C47.9562067,40.2835993 49.1791762,39.9560577 49.7322698,39.0009983 C50.2837415,38.0443175 49.9561024,36.8217118 48.9991369,36.2687827" id="Fill-54"></path>
                        <path d="M54.9996266,47.2688433 C54.0426613,46.7157896 52.8196921,47.043405 52.2665986,48.0003014 C51.7167491,48.9555759 52.044388,50.1800788 53.0013533,50.7315106 C53.9566966,51.2845643 55.1796658,50.955327 55.7311373,50.0000525 C56.2842308,49.0431562 55.9565919,47.8202751 54.9996266,47.2688433" id="Fill-56"></path>
                        <path d="M67.7311935,48.9991369 C68.2841714,48.0437933 67.9566009,46.8192019 66.9998356,46.2677302 C66.0430703,45.7162585 64.8203566,46.0438976 64.2673787,47.0008631 C63.7160224,47.9562067 64.0452145,49.1791762 64.9987366,49.7322698 C65.9555019,50.2837415 67.1782156,49.9561024 67.7311935,48.9991369" id="Fill-58"></path>
                        <path d="M73.9996266,57.2688433 C73.0426613,56.7157896 71.8196921,57.043405 71.2665986,58.0003014 C70.7167491,58.9555759 71.044388,60.1800788 72.0013533,60.7315106 C72.9550746,61.2845643 74.1796658,60.955327 74.7311373,60.0000525 C75.2842308,59.0431562 74.9565919,57.8202751 73.9996266,57.2688433" id="Fill-60"></path>
                    </g>
                    <g id="triangle-dots-copy-3" transform="translate(71.514255, 284.776974) rotate(-270.000000) translate(-71.514255, -284.776974) translate(30.014255, 248.776974)">
                        <path d="M39.9992845,3.7323219 C40.9562362,4.28368624 42.179188,3.95611095 42.7322737,2.99933167 C43.2837374,2.04417404 42.956103,0.819820883 41.9991514,0.268456548 C41.0438216,-0.284529447 39.8208698,0.044667494 39.2677841,0.999825122 C38.7163205,1.95660441 39.0439548,3.17933591 39.9992845,3.7323219" id="Fill-1"></path>
                        <path d="M34.0003734,12.732268 C34.9573387,13.2836243 36.1803079,12.9560538 36.7334014,12.00091 C37.2832509,11.0441445 36.955612,9.82143067 35.9986467,9.26845267 C35.0449254,8.71547466 33.8219562,9.04466685 33.2688627,9.99981068 C32.7157692,10.9565761 33.0434081,12.17929 34.0003734,12.732268" id="Fill-3"></path>
                        <path d="M35.9991369,20.2688065 C35.0437933,19.7158286 33.8192019,20.0433991 33.2677302,21.0001644 C32.7162585,21.9569297 33.0438976,23.1796434 34.0008631,23.7326213 C34.9562067,24.2839776 36.1791762,23.9547855 36.7322698,23.0012634 C37.2837415,22.0444981 36.9561024,20.8217844 35.9991369,20.2688065" id="Fill-5"></path>
                        <path d="M26.000359,28.7311896 C26.9573105,29.2841755 28.1802621,28.9566003 28.7333477,27.9998212 C29.2831893,27.0430421 28.955555,25.8203108 28.0002255,25.2673249 C27.0448959,24.7159607 25.8219443,25.0451576 25.2688588,26.000315 C24.7157733,26.9554725 25.0434075,28.1782037 26.000359,28.7311896" id="Fill-7"></path>
                        <path d="M16.999641,46.2680622 C16.0426895,45.7167546 14.8197379,46.0426746 14.2666523,46.9993555 C13.7168107,47.9560363 14.044445,49.178642 14.9997745,49.7315711 C15.9551041,50.2845002 17.1796776,49.9553371 17.7311412,49.0002778 C18.2842267,48.0435969 17.9565925,46.8209913 16.999641,46.2680622" id="Fill-9"></path>
                        <path d="M22.9991369,56.2688433 C22.0437933,55.7157896 20.8192019,56.043405 20.2677302,57.0003014 C19.7162585,57.9571977 20.0438976,59.1800788 21.0008631,59.7315106 C21.9562067,60.2845643 23.1791762,59.955327 23.7322698,59.0000525 C24.2837415,58.0431562 23.9561024,56.8202751 22.9991369,56.2688433" id="Fill-11"></path>
                        <path d="M14.9991369,67.2688065 C14.0437933,66.7158286 12.8192019,67.0433991 12.2677302,68.0001644 C11.7162585,68.9569297 12.0438976,70.1796434 13.0008631,70.7326213 C13.9562067,71.2839776 15.1791762,70.9547855 15.7322698,70.0012634 C16.2837415,69.0444981 15.9561024,67.8217844 14.9991369,67.2688065" id="Fill-13"></path>
                        <path d="M9.99962658,57.2688433 C9.0426613,56.7157896 7.8196921,57.043405 7.26659861,58.0003014 C6.71674906,58.9571977 7.04438802,60.1800788 8.00135331,60.7315106 C8.95507464,61.2845643 10.1780438,60.955327 10.7311373,60.0000525 C11.2842308,59.0431562 10.9565919,57.8202751 9.99962658,57.2688433" id="Fill-15"></path>
                        <path d="M2.99950391,67.2688065 C2.04242127,66.7158286 0.819302112,67.0433991 0.267762967,68.0001644 C-0.283776178,68.9569297 0.0439029607,70.1796434 1.00098559,70.7326213 C1.95644605,71.2839776 3.17956522,70.9547855 3.73110436,70.0012634 C4.28426568,69.0444981 3.95658654,67.8217844 2.99950391,67.2688065" id="Fill-17"></path>
                        <path d="M81.2221667,68.165 C80.2405,67.5966667 78.9838333,67.9333333 78.4155,68.9166667 C77.8488333,69.9 78.1855,71.1566667 79.1688333,71.725 C80.1505,72.2916667 81.4071667,71.955 81.9738333,70.9733333 C82.5421667,69.99 82.2055,68.7333333 81.2221667,68.165" id="Fill-19"></path>
                        <path d="M69.9991369,68.2687827 C69.0437933,67.7158537 67.8192019,68.0433952 67.2677302,69.0000761 C66.7162585,69.9567569 67.0438976,71.1793626 68.0008631,71.7322917 C68.9562067,72.2835993 70.1791762,71.9560577 70.7322698,71.0009983 C71.2837415,70.0443175 70.9561024,68.8217118 69.9991369,68.2687827" id="Fill-22"></path>
                        <path d="M60.9995039,57.267732 C60.0424213,56.7163757 58.8193021,57.0439462 58.267763,57.99909 C57.7162238,58.9558555 58.043903,60.1785693 59.0009856,60.7315473 C59.9548239,61.2845253 61.1795652,60.9553332 61.7311044,60.0001893 C62.2842657,59.0434239 61.9565865,57.82071 60.9995039,57.267732" id="Fill-24"></path>
                        <path d="M59.00045,68.2676781 C58.043583,67.7163138 56.8207394,68.043889 56.2677026,69.0006683 C55.7162877,69.955826 56.0438931,71.1801791 57.0007601,71.7315435 C57.9560053,72.2845294 59.178849,71.9553325 59.7318857,71.0001749 C60.2833006,70.0433956 59.9573171,68.8206641 59.00045,68.2676781" id="Fill-26"></path>
                        <path d="M47.999641,68.2688065 C47.0426895,67.7158286 45.8197379,68.0433991 45.2666523,69.0001644 C44.7168107,69.9569297 45.044445,71.1796434 45.9997745,71.7326213 C46.9551041,72.2839776 48.1780557,71.9547855 48.7311412,71.0012634 C49.2842267,70.0444981 48.9565925,68.8217844 47.999641,68.2688065" id="Fill-28"></path>
                        <path d="M47.999641,57.267732 C47.0426895,56.7163757 45.8197379,57.0439462 45.2666523,57.99909 C44.7168107,58.9558555 45.044445,60.1785693 45.9997745,60.7315473 C46.9551041,61.2845253 48.1796776,60.9553332 48.7311412,60.0001893 C49.2842267,59.0434239 48.9565925,57.82071 47.999641,57.267732" id="Fill-30"></path>
                        <path d="M36.9995039,67.2688433 C36.0424213,66.7157896 34.8193021,67.043405 34.267763,68.0003014 C33.7162238,68.9571977 34.043903,70.1800788 35.0009856,70.7315106 C35.9564461,71.2845643 37.1795652,70.955327 37.7311044,70.0000525 C38.2842657,69.0431562 37.9565865,67.8202751 36.9995039,67.2688433" id="Fill-32"></path>
                        <path d="M27.0007155,67.2688065 C26.0437638,66.7158286 24.820812,67.0433991 24.2677263,68.0001644 C23.7162626,68.9569297 24.043897,70.1796434 25.0008486,70.7326213 C25.9561784,71.2839776 27.1791302,70.9547855 27.7322159,70.0012634 C28.2836795,69.0444981 27.9560452,67.8201628 27.0007155,67.2688065" id="Fill-34"></path>
                        <path d="M35.7312173,58.9996266 C36.2841463,58.0426613 35.9566048,56.8196921 34.9999239,56.2665986 C34.0432431,55.7167491 32.8206374,56.044388 32.2677083,57.0013533 C31.7164007,57.9550746 32.0439423,59.1780438 32.9990017,59.7311373 C33.9556825,60.2842308 35.1782882,59.9565919 35.7312173,58.9996266" id="Fill-36"></path>
                        <path d="M28.9995184,45.2688433 C28.0424496,44.7157896 26.8193481,45.043405 26.2678169,46.0003014 C25.7162857,46.9555759 26.0439601,48.1800788 26.9994068,48.7315106 C27.9564756,49.2845643 29.1779549,48.955327 29.7311082,48.0000525 C30.2842616,47.0431562 29.9565872,45.8202751 28.9995184,45.2688433" id="Fill-38"></path>
                        <path d="M22.7311896,37.9997293 C23.2841755,37.0428623 22.9566003,35.8200186 21.9998212,35.2669819 C21.0430421,34.7171888 19.8203108,35.0431724 19.2673249,36.0000394 C18.7159607,36.9552846 19.0451576,38.1781282 20.000315,38.7311649 C20.9554725,39.2842016 22.1782037,38.9565963 22.7311896,37.9997293" id="Fill-40"></path>
                        <path d="M33.9996382,37.7311896 C34.9565898,38.2841755 36.1795414,37.9566003 36.7326269,36.9998212 C37.2840905,36.0430421 36.9548343,34.8203108 35.9995047,34.2673249 C35.0441751,33.7159607 33.8212235,34.0451576 33.268138,35.000315 C32.7166744,35.9554725 33.0426867,37.1798254 33.9996382,37.7311896" id="Fill-42"></path>
                        <path d="M41.9995039,46.2680622 C41.0424213,45.7167546 39.8193021,46.0426746 39.267763,46.9993555 C38.7162238,47.9560363 39.043903,49.178642 40.0009856,49.7315711 C40.9564461,50.2845002 42.1795652,49.9553371 42.7311044,49.0002778 C43.2842657,48.0435969 42.9565865,46.8209913 41.9995039,46.2680622" id="Fill-44"></path>
                        <path d="M45.7319378,27.9995039 C46.2832454,27.0424213 45.9573254,25.8193021 45.0006445,25.267763 C44.0439637,24.7162238 42.821358,25.043903 42.2684289,26.0009856 C41.7154998,26.9564461 42.0446629,28.1795652 42.9997222,28.7311044 C43.9564031,29.2842657 45.1790087,28.9565865 45.7319378,27.9995039" id="Fill-46"></path>
                        <path d="M46.0004961,16.7311567 C46.9575787,17.2842104 48.1806979,16.956595 48.732237,15.9996986 C49.2837762,15.0444241 48.956097,13.8199212 47.9990144,13.2684894 C47.0435539,12.7154357 45.8204348,13.044673 45.2688956,13.9999475 C44.7157343,14.9568438 45.0434135,16.1797249 46.0004961,16.7311567" id="Fill-48"></path>
                        <path d="M54.000654,27.7313878 C54.9566643,28.2837985 56.1790502,27.9569283 56.7314117,27.0008327 C57.2837732,26.0447371 56.9569321,24.8206079 56.0009218,24.2681972 C55.0432772,23.7157864 53.8208914,24.044291 53.2685298,25.0003866 C52.7161683,25.9564822 53.0430094,27.1806113 54.000654,27.7313878" id="Fill-50"></path>
                        <path d="M59.000359,38.7311567 C59.9573105,39.2842104 61.1802621,38.956595 61.7333477,37.9996986 C62.2831893,37.0428023 61.955555,35.8199212 61.0002255,35.2684894 C60.0448959,34.7154357 58.8219443,35.044673 58.2688588,35.9999475 C57.7157733,36.9568438 58.0434075,38.1797249 59.000359,38.7311567" id="Fill-52"></path>
                        <path d="M48.9991369,36.2687827 C48.0437933,35.7158537 46.8208238,36.0433952 46.2677302,37.0000761 C45.7162585,37.9567569 46.0438976,39.1793626 47.0008631,39.7322917 C47.9562067,40.2835993 49.1791762,39.9560577 49.7322698,39.0009983 C50.2837415,38.0443175 49.9561024,36.8217118 48.9991369,36.2687827" id="Fill-54"></path>
                        <path d="M54.9996266,47.2688433 C54.0426613,46.7157896 52.8196921,47.043405 52.2665986,48.0003014 C51.7167491,48.9555759 52.044388,50.1800788 53.0013533,50.7315106 C53.9566966,51.2845643 55.1796658,50.955327 55.7311373,50.0000525 C56.2842308,49.0431562 55.9565919,47.8202751 54.9996266,47.2688433" id="Fill-56"></path>
                        <path d="M67.7311935,48.9991369 C68.2841714,48.0437933 67.9566009,46.8192019 66.9998356,46.2677302 C66.0430703,45.7162585 64.8203566,46.0438976 64.2673787,47.0008631 C63.7160224,47.9562067 64.0452145,49.1791762 64.9987366,49.7322698 C65.9555019,50.2837415 67.1782156,49.9561024 67.7311935,48.9991369" id="Fill-58"></path>
                        <path d="M73.9996266,57.2688433 C73.0426613,56.7157896 71.8196921,57.043405 71.2665986,58.0003014 C70.7167491,58.9555759 71.044388,60.1800788 72.0013533,60.7315106 C72.9550746,61.2845643 74.1796658,60.955327 74.7311373,60.0000525 C75.2842308,59.0431562 74.9565919,57.8202751 73.9996266,57.2688433" id="Fill-60"></path>
                    </g>
                </g>
            </g>
        </g>
    </g>
</svg>