<?xml version="1.0" encoding="utf-8"?>
<!-- Generator: Adobe Illustrator 24.0.0, SVG Export Plug-In . SVG Version: 6.00 Build 0)  -->
<svg version="1.1" id="Layer_1" xmlns="http://www.w3.org/2000/svg" xmlns:xlink="http://www.w3.org/1999/xlink" x="0px" y="0px"
	 viewBox="0 0 504.6 273.4" style="enable-background:new 0 0 504.6 273.4;" xml:space="preserve">
<style type="text/css">
	.st0{fill:#FFFFFF;}
	.st1{fill:#C1C6C8;}
	.st2{enable-background:new    ;}
	.st3{fill:#4B4F54;}
	.st4{fill:#404040;}
	.st5{fill:#D93963;}
	.st6{fill:#5AA9DA;}
	.st7{fill:#81AA43;}
	.st8{fill-rule:evenodd;clip-rule:evenodd;fill:#FFD46F;}
	.st9{opacity:0.5;}
	.st10{fill-rule:evenodd;clip-rule:evenodd;fill:#005E8A;}
</style>
<g>
	<rect x="88.9" y="4.1" class="st0" width="411.1" height="75"/>
	<path class="st1" d="M500,83.2H88.9c-2.3,0-4.1-1.8-4.1-4.1v-75c0-2.3,1.8-4.1,4.1-4.1H500c2.3,0,4.1,1.8,4.1,4.1v75
		C504.1,81.4,502.3,83.2,500,83.2z M93,75h402.9V8.2H93V75z"/>
</g>
<g>
	<g class="st2">
		<g>
			<path class="st3" d="M173.6,29c0,1.4-0.4,2.5-1.2,3.2s-1.9,1.1-3.4,1.1h-2.4v-8.6h2.6c1.4,0,2.4,0.4,3.2,1.1S173.6,27.7,173.6,29
				z M172.1,29.1c0-2.1-1-3.1-2.9-3.1H168v6.2h1C171.1,32.2,172.1,31.2,172.1,29.1z"/>
		</g>
		<g>
			<path class="st3" d="M175.2,25.2c0-0.2,0.1-0.4,0.2-0.6s0.3-0.2,0.6-0.2c0.2,0,0.4,0.1,0.6,0.2s0.2,0.3,0.2,0.6
				c0,0.2-0.1,0.4-0.2,0.6s-0.3,0.2-0.6,0.2c-0.2,0-0.4-0.1-0.6-0.2S175.2,25.4,175.2,25.2z M176.6,33.4h-1.4v-6.5h1.4V33.4z"/>
		</g>
		<g>
			<path class="st3" d="M181.9,27.9h-1.6v5.4h-1.4v-5.4h-1.1v-0.6l1.1-0.4v-0.4c0-0.8,0.2-1.3,0.5-1.7s0.9-0.6,1.6-0.6
				c0.5,0,1,0.1,1.4,0.2l-0.4,1c-0.3-0.1-0.7-0.2-1-0.2c-0.3,0-0.5,0.1-0.7,0.3s-0.2,0.5-0.2,0.9v0.4h1.6V27.9z M186.2,27.9h-1.6
				v5.4h-1.4v-5.4h-1.1v-0.6l1.1-0.4v-0.4c0-0.8,0.2-1.3,0.5-1.7s0.9-0.6,1.6-0.6c0.5,0,1,0.1,1.4,0.2l-0.4,1
				c-0.3-0.1-0.7-0.2-1-0.2c-0.3,0-0.5,0.1-0.7,0.3s-0.2,0.5-0.2,0.9v0.4h1.6V27.9z"/>
		</g>
		<g>
			<path class="st3" d="M190.1,33.5c-1,0-1.8-0.3-2.4-0.9s-0.9-1.4-0.9-2.4c0-1.1,0.3-1.9,0.8-2.5s1.3-0.9,2.2-0.9
				c0.9,0,1.5,0.3,2,0.8s0.7,1.2,0.7,2.1v0.7h-4.3c0,0.6,0.2,1.1,0.5,1.5s0.8,0.5,1.4,0.5c0.4,0,0.7,0,1.1-0.1s0.7-0.2,1.1-0.4v1.1
				c-0.3,0.2-0.7,0.3-1,0.3S190.6,33.5,190.1,33.5z M189.9,27.8c-0.4,0-0.8,0.1-1.1,0.4s-0.4,0.7-0.5,1.2h2.9c0-0.5-0.1-0.9-0.4-1.2
				S190.3,27.8,189.9,27.8z"/>
		</g>
		<g>
			<path class="st3" d="M197.5,26.8c0.3,0,0.5,0,0.7,0.1l-0.1,1.3c-0.2,0-0.4-0.1-0.6-0.1c-0.6,0-1,0.2-1.3,0.5s-0.5,0.8-0.5,1.4
				v3.4h-1.4v-6.5h1.1l0.2,1.1h0.1c0.2-0.4,0.5-0.7,0.8-0.9S197.1,26.8,197.5,26.8z"/>
		</g>
		<g>
			<path class="st3" d="M202.2,33.5c-1,0-1.8-0.3-2.4-0.9s-0.9-1.4-0.9-2.4c0-1.1,0.3-1.9,0.8-2.5s1.3-0.9,2.2-0.9
				c0.9,0,1.5,0.3,2,0.8s0.7,1.2,0.7,2.1v0.7h-4.3c0,0.6,0.2,1.1,0.5,1.5s0.8,0.5,1.4,0.5c0.4,0,0.7,0,1.1-0.1s0.7-0.2,1.1-0.4v1.1
				c-0.3,0.2-0.7,0.3-1,0.3S202.7,33.5,202.2,33.5z M202,27.8c-0.4,0-0.8,0.1-1.1,0.4s-0.4,0.7-0.5,1.2h2.9c0-0.5-0.1-0.9-0.4-1.2
				S202.4,27.8,202,27.8z"/>
		</g>
		<g>
			<path class="st3" d="M212,33.4h-1.4v-4c0-0.5-0.1-0.9-0.3-1.1s-0.5-0.4-1-0.4c-0.6,0-1,0.2-1.3,0.5s-0.4,0.9-0.4,1.7v3.2h-1.4
				v-6.5h1.1l0.2,0.8h0.1c0.2-0.3,0.5-0.5,0.8-0.7s0.8-0.3,1.2-0.3c1.6,0,2.3,0.8,2.3,2.4V33.4z"/>
		</g>
		<g>
			<path class="st3" d="M216.3,32.4c0.3,0,0.7-0.1,1-0.2v1c-0.2,0.1-0.3,0.1-0.6,0.2s-0.5,0.1-0.7,0.1c-1.3,0-2-0.7-2-2.1v-3.5h-0.9
				v-0.6l0.9-0.5l0.5-1.4h0.8v1.4h1.8v1h-1.8v3.5c0,0.3,0.1,0.6,0.2,0.7S216.1,32.4,216.3,32.4z"/>
		</g>
		<g>
			<path class="st3" d="M218.6,25.2c0-0.2,0.1-0.4,0.2-0.6s0.3-0.2,0.6-0.2c0.2,0,0.4,0.1,0.6,0.2s0.2,0.3,0.2,0.6
				c0,0.2-0.1,0.4-0.2,0.6s-0.3,0.2-0.6,0.2c-0.2,0-0.4-0.1-0.6-0.2S218.6,25.4,218.6,25.2z M220,33.4h-1.4v-6.5h1.4V33.4z"/>
		</g>
		<g>
			<path class="st3" d="M226.1,33.4l-0.3-0.9h0c-0.3,0.4-0.6,0.7-0.9,0.8s-0.7,0.2-1.2,0.2c-0.6,0-1.1-0.2-1.5-0.5s-0.5-0.8-0.5-1.5
				c0-0.7,0.2-1.2,0.7-1.5s1.3-0.5,2.3-0.6l1.1,0v-0.3c0-0.4-0.1-0.7-0.3-0.9s-0.5-0.3-0.9-0.3c-0.3,0-0.7,0-1,0.1s-0.6,0.2-0.9,0.3
				l-0.4-1c0.4-0.2,0.7-0.3,1.2-0.4s0.8-0.1,1.2-0.1c0.8,0,1.4,0.2,1.9,0.5s0.6,0.9,0.6,1.7v4.4H226.1z M224,32.4
				c0.5,0,0.9-0.1,1.2-0.4s0.5-0.7,0.5-1.2v-0.6l-0.8,0c-0.6,0-1.1,0.1-1.4,0.3s-0.4,0.5-0.4,0.9c0,0.3,0.1,0.5,0.3,0.7
				S223.7,32.4,224,32.4z"/>
		</g>
		<g>
			<path class="st3" d="M231.4,32.4c0.3,0,0.7-0.1,1-0.2v1c-0.2,0.1-0.3,0.1-0.6,0.2s-0.5,0.1-0.7,0.1c-1.3,0-2-0.7-2-2.1v-3.5h-0.9
				v-0.6l0.9-0.5l0.5-1.4h0.8v1.4h1.8v1h-1.8v3.5c0,0.3,0.1,0.6,0.2,0.7S231.1,32.4,231.4,32.4z"/>
		</g>
		<g>
			<path class="st3" d="M236.5,33.5c-1,0-1.8-0.3-2.4-0.9s-0.9-1.4-0.9-2.4c0-1.1,0.3-1.9,0.8-2.5s1.3-0.9,2.2-0.9
				c0.9,0,1.5,0.3,2,0.8s0.7,1.2,0.7,2.1v0.7h-4.3c0,0.6,0.2,1.1,0.5,1.5s0.8,0.5,1.4,0.5c0.4,0,0.7,0,1.1-0.1s0.7-0.2,1.1-0.4v1.1
				c-0.3,0.2-0.7,0.3-1,0.3S236.9,33.5,236.5,33.5z M236.3,27.8c-0.4,0-0.8,0.1-1.1,0.4s-0.4,0.7-0.5,1.2h2.9c0-0.5-0.1-0.9-0.4-1.2
				S236.7,27.8,236.3,27.8z"/>
		</g>
		<g>
			<path class="st3" d="M242.8,33.5c-0.8,0-1.4-0.3-1.9-0.9s-0.7-1.4-0.7-2.5c0-1.1,0.2-1.9,0.7-2.5s1.1-0.9,1.9-0.9
				c0.9,0,1.5,0.3,1.9,0.9h0.1c-0.1-0.5-0.1-0.8-0.1-1.1v-2.4h1.4v9.1H245l-0.2-0.8h-0.1C244.3,33.2,243.6,33.5,242.8,33.5z
				 M243.1,32.4c0.6,0,1-0.2,1.2-0.5s0.4-0.8,0.4-1.5v-0.2c0-0.8-0.1-1.4-0.4-1.7s-0.7-0.5-1.2-0.5c-0.5,0-0.9,0.2-1.1,0.6
				s-0.4,1-0.4,1.7c0,0.7,0.1,1.3,0.4,1.6S242.6,32.4,243.1,32.4z"/>
		</g>
	</g>
	<g>
		<g class="st2">
			<g>
				<path class="st4" d="M175.4,55.8l-1-3.2h-4.9l-1,3.2h-3.1l4.8-13.5h3.5l4.8,13.5H175.4z M173.8,50.2c-0.9-2.9-1.4-4.6-1.5-4.9
					c-0.1-0.4-0.2-0.7-0.2-0.9c-0.2,0.8-0.8,2.7-1.7,5.8H173.8z"/>
			</g>
			<g>
				<path class="st4" d="M185.6,56c-1.2,0-2.2-0.4-2.8-1.3h-0.1c0.1,0.9,0.1,1.4,0.1,1.5v4.2H180V45.5h2.3l0.4,1.3h0.1
					c0.7-1,1.6-1.5,2.9-1.5c1.2,0,2.2,0.5,2.9,1.4c0.7,0.9,1,2.2,1,3.9c0,1.1-0.2,2.1-0.5,2.9c-0.3,0.8-0.8,1.4-1.4,1.9
					C187.1,55.8,186.4,56,185.6,56z M184.8,47.6c-0.7,0-1.2,0.2-1.5,0.6c-0.3,0.4-0.5,1.1-0.5,2.1v0.3c0,1.1,0.2,1.9,0.5,2.4
					s0.8,0.7,1.6,0.7c1.3,0,1.9-1,1.9-3.1c0-1-0.2-1.8-0.5-2.3C185.9,47.8,185.5,47.6,184.8,47.6z"/>
			</g>
			<g>
				<path class="st4" d="M197.6,56c-1.2,0-2.2-0.4-2.8-1.3h-0.1c0.1,0.9,0.1,1.4,0.1,1.5v4.2h-2.8V45.5h2.3l0.4,1.3h0.1
					c0.7-1,1.6-1.5,2.9-1.5c1.2,0,2.2,0.5,2.9,1.4c0.7,0.9,1,2.2,1,3.9c0,1.1-0.2,2.1-0.5,2.9c-0.3,0.8-0.8,1.4-1.4,1.9
					C199.1,55.8,198.4,56,197.6,56z M196.7,47.6c-0.7,0-1.2,0.2-1.5,0.6c-0.3,0.4-0.5,1.1-0.5,2.1v0.3c0,1.1,0.2,1.9,0.5,2.4
					s0.8,0.7,1.6,0.7c1.3,0,1.9-1,1.9-3.1c0-1-0.2-1.8-0.5-2.3C197.9,47.8,197.4,47.6,196.7,47.6z"/>
			</g>
			<g>
				<path class="st4" d="M206.7,55.8h-2.8V41.5h2.8V55.8z"/>
			</g>
			<g>
				<path class="st4" d="M209.5,42.8c0-0.9,0.5-1.4,1.5-1.4s1.5,0.5,1.5,1.4c0,0.4-0.1,0.8-0.4,1c-0.3,0.2-0.6,0.4-1.1,0.4
					C210,44.2,209.5,43.8,209.5,42.8z M212.4,55.8h-2.8V45.5h2.8V55.8z"/>
			</g>
			<g>
				<path class="st4" d="M219.6,56c-3.2,0-4.8-1.8-4.8-5.3c0-1.8,0.4-3.1,1.3-4c0.9-0.9,2.1-1.4,3.8-1.4c1.2,0,2.3,0.2,3.2,0.7
					l-0.8,2.2c-0.4-0.2-0.9-0.3-1.2-0.4c-0.4-0.1-0.8-0.2-1.1-0.2c-1.5,0-2.2,1-2.2,3.1c0,2,0.7,3,2.2,3c0.5,0,1-0.1,1.5-0.2
					c0.5-0.1,0.9-0.4,1.4-0.7v2.4c-0.5,0.3-0.9,0.5-1.4,0.6C220.9,55.9,220.3,56,219.6,56z"/>
			</g>
			<g>
				<path class="st4" d="M231.6,55.8l-0.5-1.4H231c-0.5,0.6-1,1-1.5,1.2c-0.5,0.2-1.2,0.3-2,0.3c-1,0-1.8-0.3-2.3-0.8
					s-0.9-1.4-0.9-2.4c0-1.1,0.4-1.9,1.1-2.4s1.9-0.8,3.5-0.9l1.8-0.1v-0.5c0-1-0.5-1.6-1.6-1.6c-0.8,0-1.8,0.2-2.9,0.7l-0.9-1.9
					c1.2-0.6,2.5-0.9,3.9-0.9c1.4,0,2.4,0.3,3.2,0.9c0.7,0.6,1.1,1.5,1.1,2.7v6.9H231.6z M230.8,51l-1.1,0c-0.8,0-1.4,0.2-1.8,0.4
					s-0.6,0.7-0.6,1.2c0,0.8,0.5,1.2,1.4,1.2c0.7,0,1.2-0.2,1.6-0.6s0.6-0.9,0.6-1.5V51z"/>
			</g>
			<g>
				<path class="st4" d="M240.8,53.8c0.5,0,1.1-0.1,1.8-0.3v2.1c-0.7,0.3-1.6,0.5-2.6,0.5c-1.1,0-1.9-0.3-2.5-0.9s-0.8-1.4-0.8-2.6
					v-5h-1.3v-1.2l1.5-0.9l0.8-2.2h1.8v2.2h2.9v2.1h-2.9v5c0,0.4,0.1,0.7,0.3,0.9C240.2,53.7,240.5,53.8,240.8,53.8z"/>
			</g>
			<g>
				<path class="st4" d="M244.6,42.8c0-0.9,0.5-1.4,1.5-1.4s1.5,0.5,1.5,1.4c0,0.4-0.1,0.8-0.4,1c-0.3,0.2-0.6,0.4-1.1,0.4
					C245.1,44.2,244.6,43.8,244.6,42.8z M247.5,55.8h-2.8V45.5h2.8V55.8z"/>
			</g>
			<g>
				<path class="st4" d="M259.8,50.6c0,1.7-0.4,3-1.3,3.9c-0.9,0.9-2.1,1.4-3.7,1.4c-1,0-1.9-0.2-2.6-0.7c-0.8-0.4-1.3-1.1-1.7-1.9
					c-0.4-0.8-0.6-1.8-0.6-2.8c0-1.7,0.4-3,1.3-3.9c0.9-0.9,2.1-1.4,3.7-1.4c1,0,1.9,0.2,2.6,0.6c0.8,0.4,1.3,1,1.7,1.9
					C259.6,48.6,259.8,49.6,259.8,50.6z M252.7,50.6c0,1,0.2,1.8,0.5,2.3c0.3,0.5,0.9,0.8,1.6,0.8c0.8,0,1.3-0.3,1.6-0.8
					c0.3-0.5,0.5-1.3,0.5-2.3c0-1-0.2-1.8-0.5-2.3c-0.3-0.5-0.9-0.8-1.6-0.8c-0.8,0-1.3,0.3-1.6,0.8S252.7,49.6,252.7,50.6z"/>
			</g>
			<g>
				<path class="st4" d="M271.7,55.8h-2.8v-6c0-0.7-0.1-1.3-0.4-1.7c-0.3-0.4-0.7-0.6-1.3-0.6c-0.8,0-1.4,0.3-1.7,0.8
					c-0.3,0.5-0.5,1.4-0.5,2.6v4.8h-2.8V45.5h2.1l0.4,1.3h0.2c0.3-0.5,0.7-0.9,1.3-1.1s1.2-0.4,1.9-0.4c1.2,0,2.1,0.3,2.7,1
					c0.6,0.6,0.9,1.6,0.9,2.8V55.8z"/>
			</g>
			<g>
				<path class="st4" d="M290.9,48.9c0,2.2-0.6,3.9-1.9,5.1c-1.3,1.2-3.1,1.8-5.5,1.8h-3.8V42.3h4.2c2.2,0,3.9,0.6,5.1,1.7
					C290.2,45.2,290.9,46.9,290.9,48.9z M287.9,49c0-2.9-1.3-4.3-3.8-4.3h-1.5v8.8h1.2C286.5,53.5,287.9,52,287.9,49z"/>
			</g>
			<g>
				<path class="st4" d="M298.1,56c-1.7,0-3-0.5-3.9-1.4c-0.9-0.9-1.4-2.2-1.4-3.9c0-1.7,0.4-3.1,1.3-4s2.1-1.4,3.6-1.4
					c1.5,0,2.6,0.4,3.4,1.2c0.8,0.8,1.2,2,1.2,3.4v1.4h-6.6c0,0.8,0.3,1.4,0.7,1.9s1.1,0.7,1.9,0.7c0.6,0,1.2-0.1,1.8-0.2
					s1.1-0.3,1.7-0.6v2.2c-0.5,0.2-1,0.4-1.6,0.5C299.6,55.9,298.9,56,298.1,56z M297.7,47.3c-0.6,0-1.1,0.2-1.4,0.6
					s-0.5,0.9-0.6,1.6h3.9c0-0.7-0.2-1.2-0.5-1.6C298.8,47.5,298.3,47.3,297.7,47.3z"/>
			</g>
			<g>
				<path class="st4" d="M307,55.8l-3.9-10.3h2.9l2,5.9c0.2,0.7,0.4,1.4,0.4,2.1h0.1c0-0.6,0.2-1.3,0.4-2.1l2-5.9h2.9l-3.9,10.3H307
					z"/>
			</g>
			<g>
				<path class="st4" d="M320,56c-1.7,0-3-0.5-3.9-1.4c-0.9-0.9-1.4-2.2-1.4-3.9c0-1.7,0.4-3.1,1.3-4c0.9-0.9,2.1-1.4,3.6-1.4
					c1.5,0,2.6,0.4,3.4,1.2c0.8,0.8,1.2,2,1.2,3.4v1.4h-6.6c0,0.8,0.3,1.4,0.7,1.9c0.4,0.4,1.1,0.7,1.9,0.7c0.6,0,1.2-0.1,1.8-0.2
					s1.1-0.3,1.7-0.6v2.2c-0.5,0.2-1,0.4-1.6,0.5C321.5,55.9,320.8,56,320,56z M319.6,47.3c-0.6,0-1.1,0.2-1.4,0.6s-0.5,0.9-0.6,1.6
					h3.9c0-0.7-0.2-1.2-0.5-1.6C320.7,47.5,320.2,47.3,319.6,47.3z"/>
			</g>
			<g>
				<path class="st4" d="M329.3,55.8h-2.8V41.5h2.8V55.8z"/>
			</g>
			<g>
				<path class="st4" d="M341.6,50.6c0,1.7-0.4,3-1.3,3.9s-2.1,1.4-3.7,1.4c-1,0-1.9-0.2-2.6-0.7c-0.8-0.4-1.3-1.1-1.7-1.9
					c-0.4-0.8-0.6-1.8-0.6-2.8c0-1.7,0.4-3,1.3-3.9c0.9-0.9,2.1-1.4,3.7-1.4c1,0,1.9,0.2,2.6,0.6c0.8,0.4,1.3,1,1.7,1.9
					C341.4,48.6,341.6,49.6,341.6,50.6z M334.5,50.6c0,1,0.2,1.8,0.5,2.3c0.3,0.5,0.9,0.8,1.6,0.8c0.8,0,1.3-0.3,1.6-0.8
					c0.3-0.5,0.5-1.3,0.5-2.3c0-1-0.2-1.8-0.5-2.3s-0.9-0.8-1.6-0.8c-0.8,0-1.3,0.3-1.6,0.8S334.5,49.6,334.5,50.6z"/>
			</g>
			<g>
				<path class="st4" d="M349.6,56c-1.2,0-2.2-0.4-2.8-1.3h-0.1c0.1,0.9,0.1,1.4,0.1,1.5v4.2h-2.8V45.5h2.3l0.4,1.3h0.1
					c0.7-1,1.6-1.5,2.9-1.5c1.2,0,2.2,0.5,2.9,1.4c0.7,0.9,1,2.2,1,3.9c0,1.1-0.2,2.1-0.5,2.9c-0.3,0.8-0.8,1.4-1.4,1.9
					C351.1,55.8,350.4,56,349.6,56z M348.8,47.6c-0.7,0-1.2,0.2-1.5,0.6c-0.3,0.4-0.5,1.1-0.5,2.1v0.3c0,1.1,0.2,1.9,0.5,2.4
					s0.8,0.7,1.6,0.7c1.3,0,1.9-1,1.9-3.1c0-1-0.2-1.8-0.5-2.3S349.4,47.6,348.8,47.6z"/>
			</g>
			<g>
				<path class="st4" d="M365.1,55.8h-2.8v-6c0-0.7-0.1-1.3-0.4-1.7c-0.2-0.4-0.6-0.6-1.2-0.6c-0.7,0-1.2,0.3-1.6,0.8
					c-0.3,0.5-0.5,1.4-0.5,2.6v4.8h-2.8V45.5h2.1l0.4,1.3h0.2c0.3-0.5,0.7-0.8,1.2-1.1s1.1-0.4,1.8-0.4c1.5,0,2.6,0.5,3.1,1.5h0.2
					c0.3-0.5,0.7-0.9,1.2-1.1c0.5-0.3,1.1-0.4,1.8-0.4c1.2,0,2.1,0.3,2.7,0.9c0.6,0.6,0.9,1.6,0.9,2.9v6.7h-2.8v-6
					c0-0.7-0.1-1.3-0.4-1.7c-0.2-0.4-0.6-0.6-1.2-0.6c-0.7,0-1.2,0.2-1.5,0.7c-0.3,0.5-0.5,1.3-0.5,2.3V55.8z"/>
			</g>
			<g>
				<path class="st4" d="M379.1,56c-1.7,0-3-0.5-3.9-1.4c-0.9-0.9-1.4-2.2-1.4-3.9c0-1.7,0.4-3.1,1.3-4c0.9-0.9,2.1-1.4,3.6-1.4
					c1.5,0,2.6,0.4,3.4,1.2c0.8,0.8,1.2,2,1.2,3.4v1.4h-6.6c0,0.8,0.3,1.4,0.7,1.9c0.4,0.4,1.1,0.7,1.9,0.7c0.6,0,1.2-0.1,1.8-0.2
					c0.6-0.1,1.1-0.3,1.7-0.6v2.2c-0.5,0.2-1,0.4-1.6,0.5C380.6,55.9,379.9,56,379.1,56z M378.7,47.3c-0.6,0-1.1,0.2-1.4,0.6
					s-0.5,0.9-0.6,1.6h3.9c0-0.7-0.2-1.2-0.5-1.6S379.3,47.3,378.7,47.3z"/>
			</g>
			<g>
				<path class="st4" d="M395.1,55.8h-2.8v-6c0-0.7-0.1-1.3-0.4-1.7c-0.3-0.4-0.7-0.6-1.3-0.6c-0.8,0-1.4,0.3-1.7,0.8
					c-0.3,0.5-0.5,1.4-0.5,2.6v4.8h-2.8V45.5h2.1l0.4,1.3h0.2c0.3-0.5,0.7-0.9,1.3-1.1s1.2-0.4,1.9-0.4c1.2,0,2.1,0.3,2.7,1
					c0.6,0.6,0.9,1.6,0.9,2.8V55.8z"/>
			</g>
			<g>
				<path class="st4" d="M402.3,53.8c0.5,0,1.1-0.1,1.8-0.3v2.1c-0.7,0.3-1.6,0.5-2.6,0.5c-1.1,0-1.9-0.3-2.5-0.9
					c-0.5-0.6-0.8-1.4-0.8-2.6v-5h-1.3v-1.2l1.5-0.9l0.8-2.2h1.8v2.2h2.9v2.1h-2.9v5c0,0.4,0.1,0.7,0.3,0.9S401.9,53.8,402.3,53.8z"
					/>
			</g>
			<g>
				<path class="st4" d="M417.3,42.3l-5,13.5h-2.6l5-13.5H417.3z"/>
			</g>
			<g>
				<path class="st4" d="M429.7,44.5c-1.1,0-1.9,0.4-2.5,1.2c-0.6,0.8-0.9,1.9-0.9,3.4c0,3,1.1,4.5,3.4,4.5c0.9,0,2.1-0.2,3.4-0.7
					v2.4c-1.1,0.5-2.3,0.7-3.7,0.7c-2,0-3.5-0.6-4.5-1.8c-1-1.2-1.6-2.9-1.6-5.1c0-1.4,0.3-2.6,0.8-3.7c0.5-1.1,1.2-1.9,2.2-2.4
					c1-0.6,2.1-0.8,3.4-0.8c1.3,0,2.6,0.3,3.9,0.9l-0.9,2.3c-0.5-0.2-1-0.4-1.5-0.6C430.7,44.6,430.2,44.5,429.7,44.5z"/>
			</g>
			<g>
				<path class="st4" d="M445.2,50.6c0,1.7-0.4,3-1.3,3.9c-0.9,0.9-2.1,1.4-3.7,1.4c-1,0-1.9-0.2-2.6-0.7c-0.8-0.4-1.3-1.1-1.7-1.9
					c-0.4-0.8-0.6-1.8-0.6-2.8c0-1.7,0.4-3,1.3-3.9c0.9-0.9,2.1-1.4,3.7-1.4c1,0,1.9,0.2,2.6,0.6c0.8,0.4,1.3,1,1.7,1.9
					C445,48.6,445.2,49.6,445.2,50.6z M438,50.6c0,1,0.2,1.8,0.5,2.3c0.3,0.5,0.9,0.8,1.6,0.8c0.8,0,1.3-0.3,1.6-0.8
					c0.3-0.5,0.5-1.3,0.5-2.3c0-1-0.2-1.8-0.5-2.3c-0.3-0.5-0.9-0.8-1.6-0.8c-0.8,0-1.3,0.3-1.6,0.8S438,49.6,438,50.6z"/>
			</g>
			<g>
				<path class="st4" d="M450.8,56c-1.2,0-2.2-0.5-2.9-1.4c-0.7-0.9-1-2.2-1-3.9c0-1.7,0.4-3,1.1-4c0.7-0.9,1.7-1.4,2.9-1.4
					c1.3,0,2.3,0.5,3,1.5h0.1c-0.1-0.8-0.2-1.5-0.2-2.1v-3.3h2.8v14.3h-2.2l-0.5-1.3h-0.1C453,55.5,452.1,56,450.8,56z M451.7,53.8
					c0.7,0,1.2-0.2,1.6-0.6c0.3-0.4,0.5-1.1,0.5-2.1v-0.3c0-1.1-0.2-1.9-0.5-2.4c-0.3-0.5-0.9-0.7-1.7-0.7c-0.6,0-1.1,0.3-1.5,0.8
					s-0.5,1.3-0.5,2.3c0,1,0.2,1.8,0.5,2.3C450.6,53.5,451.1,53.8,451.7,53.8z"/>
			</g>
			<g>
				<path class="st4" d="M464.1,56c-1.7,0-3-0.5-3.9-1.4c-0.9-0.9-1.4-2.2-1.4-3.9c0-1.7,0.4-3.1,1.3-4c0.9-0.9,2.1-1.4,3.6-1.4
					c1.5,0,2.6,0.4,3.4,1.2c0.8,0.8,1.2,2,1.2,3.4v1.4h-6.6c0,0.8,0.3,1.4,0.7,1.9c0.4,0.4,1.1,0.7,1.9,0.7c0.6,0,1.2-0.1,1.8-0.2
					c0.6-0.1,1.1-0.3,1.7-0.6v2.2c-0.5,0.2-1,0.4-1.6,0.5C465.6,55.9,464.9,56,464.1,56z M463.7,47.3c-0.6,0-1.1,0.2-1.4,0.6
					s-0.5,0.9-0.6,1.6h3.9c0-0.7-0.2-1.2-0.5-1.6S464.3,47.3,463.7,47.3z"/>
			</g>
		</g>
	</g>
	<g>
		<circle class="st5" cx="129.7" cy="41.6" r="20.8"/>
	</g>
	<g>
		<path class="st0" d="M122.2,52.1c-0.8,0-1.5-0.3-2.1-0.9c-1.2-1.2-1.2-3.1,0-4.2L135,32c1.2-1.2,3.1-1.2,4.2,0
			c1.2,1.2,1.2,3.1,0,4.2l-14.9,15C123.7,51.8,123,52.1,122.2,52.1z"/>
	</g>
	<g>
		<path class="st0" d="M137.1,52.1c-0.8,0-1.5-0.3-2.1-0.9l-14.9-15c-1.2-1.2-1.2-3.1,0-4.2c1.2-1.2,3.1-1.2,4.2,0l14.9,15
			c1.2,1.2,1.2,3.1,0,4.2C138.6,51.8,137.9,52.1,137.1,52.1z"/>
	</g>
</g>
<g>
	<rect x="88.9" y="99.2" class="st0" width="411.1" height="75"/>
	<path class="st6" d="M500,178.3H88.9c-2.3,0-4.1-1.8-4.1-4.1v-75c0-2.3,1.8-4.1,4.1-4.1H500c2.3,0,4.1,1.8,4.1,4.1v75
		C504.1,176.5,502.3,178.3,500,178.3z M93,170.1h402.9v-66.8H93V170.1z"/>
</g>
<g>
	<g class="st2">
		<g>
			<path class="st4" d="M178.3,145.6c0,2.2-0.6,3.9-1.9,5.1c-1.3,1.2-3.1,1.8-5.5,1.8h-3.8V139h4.2c2.2,0,3.9,0.6,5.1,1.7
				C177.7,141.9,178.3,143.6,178.3,145.6z M175.4,145.7c0-2.9-1.3-4.3-3.8-4.3H170v8.8h1.2C174,150.2,175.4,148.7,175.4,145.7z"/>
		</g>
		<g>
			<path class="st4" d="M185.6,152.7c-1.7,0-3-0.5-3.9-1.4c-0.9-0.9-1.4-2.2-1.4-3.9c0-1.7,0.4-3.1,1.3-4c0.9-0.9,2.1-1.4,3.6-1.4
				c1.5,0,2.6,0.4,3.4,1.2c0.8,0.8,1.2,2,1.2,3.4v1.4h-6.6c0,0.8,0.3,1.4,0.7,1.9c0.4,0.4,1.1,0.7,1.9,0.7c0.6,0,1.2-0.1,1.8-0.2
				s1.1-0.3,1.7-0.6v2.2c-0.5,0.2-1,0.4-1.6,0.5C187.1,152.6,186.4,152.7,185.6,152.7z M185.2,144c-0.6,0-1.1,0.2-1.4,0.6
				s-0.5,0.9-0.6,1.6h3.9c0-0.7-0.2-1.2-0.5-1.6C186.3,144.2,185.8,144,185.2,144z"/>
		</g>
		<g>
			<path class="st4" d="M194.5,152.5l-3.9-10.3h2.9l2,5.9c0.2,0.7,0.4,1.4,0.4,2.1h0.1c0-0.6,0.2-1.3,0.4-2.1l2-5.9h2.9l-3.9,10.3
				H194.5z"/>
		</g>
		<g>
			<path class="st4" d="M215.3,145.8c0,2.2-0.6,3.9-1.7,5.1c-1.1,1.2-2.7,1.8-4.8,1.8s-3.7-0.6-4.8-1.8c-1.1-1.2-1.7-2.9-1.7-5.2
				s0.6-4,1.7-5.1c1.1-1.2,2.7-1.8,4.8-1.8c2.1,0,3.7,0.6,4.8,1.8C214.7,141.8,215.3,143.5,215.3,145.8z M205.4,145.8
				c0,1.5,0.3,2.6,0.9,3.4c0.6,0.8,1.4,1.1,2.6,1.1c2.3,0,3.4-1.5,3.4-4.5c0-3-1.1-4.6-3.4-4.6c-1.1,0-2,0.4-2.6,1.1
				C205.7,143.1,205.4,144.2,205.4,145.8z"/>
		</g>
		<g>
			<path class="st4" d="M223.5,152.7c-1.2,0-2.2-0.4-2.8-1.3h-0.1c0.1,0.9,0.1,1.4,0.1,1.5v4.2h-2.8v-14.8h2.3l0.4,1.3h0.1
				c0.7-1,1.6-1.5,2.9-1.5c1.2,0,2.2,0.5,2.9,1.4c0.7,0.9,1,2.2,1,3.9c0,1.1-0.2,2.1-0.5,2.9c-0.3,0.8-0.8,1.4-1.4,1.9
				C225,152.5,224.3,152.7,223.5,152.7z M222.7,144.3c-0.7,0-1.2,0.2-1.5,0.6c-0.3,0.4-0.5,1.1-0.5,2.1v0.3c0,1.1,0.2,1.9,0.5,2.4
				s0.8,0.7,1.6,0.7c1.3,0,1.9-1,1.9-3.1c0-1-0.2-1.8-0.5-2.3C223.8,144.5,223.3,144.3,222.7,144.3z"/>
		</g>
		<g>
			<path class="st4" d="M237,149.5c0,1.1-0.4,1.9-1.1,2.4c-0.7,0.6-1.8,0.8-3.3,0.8c-0.8,0-1.4-0.1-1.9-0.2c-0.5-0.1-1-0.2-1.5-0.4
				v-2.3c0.5,0.2,1.1,0.5,1.8,0.6c0.7,0.2,1.2,0.2,1.7,0.2c1,0,1.5-0.3,1.5-0.9c0-0.2-0.1-0.4-0.2-0.5c-0.1-0.1-0.4-0.3-0.7-0.5
				c-0.3-0.2-0.8-0.4-1.3-0.6c-0.8-0.3-1.4-0.6-1.7-0.9c-0.4-0.3-0.6-0.6-0.8-1c-0.2-0.4-0.3-0.8-0.3-1.4c0-0.9,0.4-1.6,1.1-2.1
				c0.7-0.5,1.7-0.8,3-0.8c1.2,0,2.4,0.3,3.6,0.8l-0.8,2c-0.5-0.2-1-0.4-1.4-0.5s-0.9-0.2-1.4-0.2c-0.8,0-1.2,0.2-1.2,0.7
				c0,0.3,0.1,0.5,0.4,0.7c0.3,0.2,0.9,0.5,1.8,0.8c0.8,0.3,1.4,0.6,1.8,0.9c0.4,0.3,0.7,0.6,0.8,1C236.9,148.5,237,148.9,237,149.5
				z"/>
		</g>
		<g>
			<path class="st4" d="M253.6,143.2c0,1.5-0.5,2.6-1.4,3.3c-0.9,0.8-2.2,1.2-3.9,1.2h-1.2v4.8h-2.9V139h4.3c1.6,0,2.9,0.4,3.7,1.1
				C253.2,140.8,253.6,141.8,253.6,143.2z M247.1,145.4h0.9c0.9,0,1.5-0.2,2-0.5c0.4-0.3,0.7-0.9,0.7-1.5c0-0.7-0.2-1.2-0.5-1.5
				s-0.9-0.5-1.7-0.5h-1.3V145.4z"/>
		</g>
		<g>
			<path class="st4" d="M258.7,152.5h-2.8v-14.3h2.8V152.5z"/>
		</g>
		<g>
			<path class="st4" d="M268.2,152.5l-0.5-1.4h-0.1c-0.5,0.6-1,1-1.5,1.2c-0.5,0.2-1.2,0.3-2,0.3c-1,0-1.8-0.3-2.3-0.8
				s-0.9-1.4-0.9-2.4c0-1.1,0.4-1.9,1.1-2.4c0.8-0.5,1.9-0.8,3.5-0.9l1.8-0.1v-0.5c0-1-0.5-1.6-1.6-1.6c-0.8,0-1.8,0.2-2.9,0.7
				l-0.9-1.9c1.2-0.6,2.5-0.9,3.9-0.9c1.4,0,2.4,0.3,3.2,0.9c0.7,0.6,1.1,1.5,1.1,2.7v6.9H268.2z M267.4,147.7l-1.1,0
				c-0.8,0-1.4,0.2-1.8,0.4s-0.6,0.7-0.6,1.2c0,0.8,0.5,1.2,1.4,1.2c0.7,0,1.2-0.2,1.6-0.6c0.4-0.4,0.6-0.9,0.6-1.5V147.7z"/>
		</g>
		<g>
			<path class="st4" d="M277.4,150.5c0.5,0,1.1-0.1,1.8-0.3v2.1c-0.7,0.3-1.6,0.5-2.6,0.5c-1.1,0-1.9-0.3-2.5-0.9
				c-0.5-0.6-0.8-1.4-0.8-2.6v-5H272v-1.2l1.5-0.9l0.8-2.2h1.8v2.2h2.9v2.1h-2.9v5c0,0.4,0.1,0.7,0.3,0.9S277.1,150.5,277.4,150.5z"
				/>
		</g>
		<g>
			<path class="st4" d="M287,144.3h-2.4v8.2h-2.8v-8.2h-1.5V143l1.5-0.8v-0.8c0-1.2,0.3-2,0.9-2.6c0.6-0.5,1.5-0.8,2.8-0.8
				c1,0,1.8,0.1,2.6,0.4l-0.7,2.1c-0.6-0.2-1.1-0.3-1.6-0.3c-0.4,0-0.7,0.1-0.9,0.4c-0.2,0.2-0.3,0.5-0.3,0.9v0.6h2.4V144.3z"/>
		</g>
		<g>
			<path class="st4" d="M298,147.3c0,1.7-0.4,3-1.3,3.9s-2.1,1.4-3.7,1.4c-1,0-1.9-0.2-2.6-0.7c-0.8-0.4-1.3-1.1-1.7-1.9
				c-0.4-0.8-0.6-1.8-0.6-2.8c0-1.7,0.4-3,1.3-3.9c0.9-0.9,2.1-1.4,3.7-1.4c1,0,1.9,0.2,2.6,0.6c0.8,0.4,1.3,1,1.7,1.9
				C297.8,145.3,298,146.3,298,147.3z M290.8,147.3c0,1,0.2,1.8,0.5,2.3s0.9,0.8,1.6,0.8c0.8,0,1.3-0.3,1.6-0.8
				c0.3-0.5,0.5-1.3,0.5-2.3c0-1-0.2-1.8-0.5-2.3c-0.3-0.5-0.9-0.8-1.6-0.8c-0.8,0-1.3,0.3-1.6,0.8S290.8,146.3,290.8,147.3z"/>
		</g>
		<g>
			<path class="st4" d="M306,142c0.4,0,0.7,0,1,0.1l-0.2,2.6c-0.2-0.1-0.5-0.1-0.8-0.1c-0.9,0-1.6,0.2-2.1,0.7
				c-0.5,0.5-0.8,1.1-0.8,1.9v5.2h-2.8v-10.3h2.1l0.4,1.7h0.1c0.3-0.6,0.8-1,1.3-1.4S305.4,142,306,142z"/>
		</g>
		<g>
			<path class="st4" d="M318.1,152.5h-2.8v-6c0-0.7-0.1-1.3-0.4-1.7c-0.2-0.4-0.6-0.6-1.2-0.6c-0.7,0-1.2,0.3-1.6,0.8
				c-0.3,0.5-0.5,1.4-0.5,2.6v4.8h-2.8v-10.3h2.1l0.4,1.3h0.2c0.3-0.5,0.7-0.8,1.2-1.1s1.1-0.4,1.8-0.4c1.5,0,2.6,0.5,3.1,1.5h0.2
				c0.3-0.5,0.7-0.9,1.2-1.1c0.5-0.3,1.1-0.4,1.8-0.4c1.2,0,2.1,0.3,2.7,0.9c0.6,0.6,0.9,1.6,0.9,2.9v6.7h-2.8v-6
				c0-0.7-0.1-1.3-0.4-1.7c-0.2-0.4-0.6-0.6-1.2-0.6c-0.7,0-1.2,0.2-1.5,0.7c-0.3,0.5-0.5,1.3-0.5,2.3V152.5z"/>
		</g>
		<g>
			<path class="st4" d="M338.5,139l-5,13.5H331l5-13.5H338.5z"/>
		</g>
		<g>
			<path class="st4" d="M350.4,152.5h-2.9v-11.1h-3.7V139h10.2v2.4h-3.7V152.5z"/>
		</g>
		<g>
			<path class="st4" d="M365.3,147.3c0,1.7-0.4,3-1.3,3.9s-2.1,1.4-3.7,1.4c-1,0-1.9-0.2-2.6-0.7c-0.8-0.4-1.3-1.1-1.7-1.9
				c-0.4-0.8-0.6-1.8-0.6-2.8c0-1.7,0.4-3,1.3-3.9c0.9-0.9,2.1-1.4,3.7-1.4c1,0,1.9,0.2,2.6,0.6c0.8,0.4,1.3,1,1.7,1.9
				C365.1,145.3,365.3,146.3,365.3,147.3z M358.2,147.3c0,1,0.2,1.8,0.5,2.3s0.9,0.8,1.6,0.8c0.8,0,1.3-0.3,1.6-0.8
				c0.3-0.5,0.5-1.3,0.5-2.3c0-1-0.2-1.8-0.5-2.3c-0.3-0.5-0.9-0.8-1.6-0.8c-0.8,0-1.3,0.3-1.6,0.8S358.2,146.3,358.2,147.3z"/>
		</g>
		<g>
			<path class="st4" d="M377,147.3c0,1.7-0.4,3-1.3,3.9c-0.9,0.9-2.1,1.4-3.7,1.4c-1,0-1.9-0.2-2.6-0.7c-0.8-0.4-1.3-1.1-1.7-1.9
				c-0.4-0.8-0.6-1.8-0.6-2.8c0-1.7,0.4-3,1.3-3.9c0.9-0.9,2.1-1.4,3.7-1.4c1,0,1.9,0.2,2.6,0.6c0.8,0.4,1.3,1,1.7,1.9
				C376.8,145.3,377,146.3,377,147.3z M369.9,147.3c0,1,0.2,1.8,0.5,2.3s0.9,0.8,1.6,0.8c0.8,0,1.3-0.3,1.6-0.8
				c0.3-0.5,0.5-1.3,0.5-2.3c0-1-0.2-1.8-0.5-2.3s-0.9-0.8-1.6-0.8c-0.8,0-1.3,0.3-1.6,0.8S369.9,146.3,369.9,147.3z"/>
		</g>
		<g>
			<path class="st4" d="M382.1,152.5h-2.8v-14.3h2.8V152.5z"/>
		</g>
		<g>
			<path class="st4" d="M389.3,152.7c-3.2,0-4.8-1.8-4.8-5.3c0-1.8,0.4-3.1,1.3-4s2.1-1.4,3.8-1.4c1.2,0,2.3,0.2,3.2,0.7l-0.8,2.2
				c-0.4-0.2-0.9-0.3-1.2-0.4c-0.4-0.1-0.8-0.2-1.1-0.2c-1.5,0-2.2,1-2.2,3.1c0,2,0.7,3,2.2,3c0.5,0,1-0.1,1.5-0.2
				c0.5-0.1,0.9-0.4,1.4-0.7v2.4c-0.5,0.3-0.9,0.5-1.4,0.6C390.6,152.6,390,152.7,389.3,152.7z"/>
		</g>
		<g>
			<path class="st4" d="M404.3,152.5h-2.8v-6c0-1.5-0.6-2.2-1.7-2.2c-0.8,0-1.4,0.3-1.7,0.8c-0.4,0.5-0.5,1.4-0.5,2.6v4.8h-2.8
				v-14.3h2.8v2.9c0,0.2,0,0.8-0.1,1.6l-0.1,0.8h0.1c0.6-1,1.6-1.5,3-1.5c1.2,0,2.1,0.3,2.8,1c0.6,0.7,0.9,1.6,0.9,2.8V152.5z"/>
		</g>
		<g>
			<path class="st4" d="M413.7,152.5l-0.5-1.4h-0.1c-0.5,0.6-1,1-1.5,1.2c-0.5,0.2-1.2,0.3-2,0.3c-1,0-1.8-0.3-2.3-0.8
				s-0.9-1.4-0.9-2.4c0-1.1,0.4-1.9,1.1-2.4c0.8-0.5,1.9-0.8,3.5-0.9l1.8-0.1v-0.5c0-1-0.5-1.6-1.6-1.6c-0.8,0-1.8,0.2-2.9,0.7
				l-0.9-1.9c1.2-0.6,2.5-0.9,3.9-0.9c1.4,0,2.4,0.3,3.2,0.9c0.7,0.6,1.1,1.5,1.1,2.7v6.9H413.7z M412.9,147.7l-1.1,0
				c-0.8,0-1.4,0.2-1.8,0.4s-0.6,0.7-0.6,1.2c0,0.8,0.5,1.2,1.4,1.2c0.7,0,1.2-0.2,1.6-0.6c0.4-0.4,0.6-0.9,0.6-1.5V147.7z"/>
		</g>
		<g>
			<path class="st4" d="M418.5,139.5c0-0.9,0.5-1.4,1.5-1.4c1,0,1.5,0.5,1.5,1.4c0,0.4-0.1,0.8-0.4,1c-0.3,0.2-0.6,0.4-1.1,0.4
				C419,140.9,418.5,140.5,418.5,139.5z M421.4,152.5h-2.8v-10.3h2.8V152.5z"/>
		</g>
		<g>
			<path class="st4" d="M433.9,152.5h-2.8v-6c0-0.7-0.1-1.3-0.4-1.7c-0.3-0.4-0.7-0.6-1.3-0.6c-0.8,0-1.4,0.3-1.7,0.8
				c-0.3,0.5-0.5,1.4-0.5,2.6v4.8h-2.8v-10.3h2.1l0.4,1.3h0.2c0.3-0.5,0.7-0.9,1.3-1.1s1.2-0.4,1.9-0.4c1.2,0,2.1,0.3,2.7,1
				c0.6,0.6,0.9,1.6,0.9,2.8V152.5z"/>
		</g>
	</g>
	<g class="st2">
		<g>
			<path class="st3" d="M173.3,121.6v5.5c0,0.6-0.1,1.2-0.4,1.7s-0.7,0.8-1.2,1.1s-1.1,0.4-1.8,0.4c-1.1,0-1.9-0.3-2.5-0.8
				s-0.9-1.3-0.9-2.3v-5.5h1.4v5.4c0,0.7,0.2,1.2,0.5,1.6s0.8,0.5,1.5,0.5c1.3,0,2-0.7,2-2.1v-5.4H173.3z"/>
		</g>
		<g>
			<path class="st3" d="M181.1,130.2h-1.4v-4c0-0.5-0.1-0.9-0.3-1.1s-0.5-0.4-1-0.4c-0.6,0-1,0.2-1.3,0.5s-0.4,0.9-0.4,1.7v3.2h-1.4
				v-6.5h1.1l0.2,0.8h0.1c0.2-0.3,0.5-0.5,0.8-0.7s0.8-0.3,1.2-0.3c1.6,0,2.3,0.8,2.3,2.4V130.2z"/>
		</g>
		<g>
			<path class="st3" d="M185.2,130.3c-0.8,0-1.4-0.3-1.9-0.9s-0.7-1.4-0.7-2.5c0-1.1,0.2-1.9,0.7-2.5s1.1-0.9,1.9-0.9
				c0.9,0,1.5,0.3,1.9,0.9h0.1c-0.1-0.5-0.1-0.8-0.1-1.1V121h1.4v9.1h-1.1l-0.2-0.8h-0.1C186.7,129.9,186,130.3,185.2,130.3z
				 M185.5,129.2c0.6,0,1-0.2,1.2-0.5s0.4-0.8,0.4-1.5v-0.2c0-0.8-0.1-1.4-0.4-1.7s-0.7-0.5-1.2-0.5c-0.5,0-0.9,0.2-1.1,0.6
				s-0.4,1-0.4,1.7c0,0.7,0.1,1.3,0.4,1.6S185,129.2,185.5,129.2z"/>
		</g>
		<g>
			<path class="st3" d="M190.4,122c0-0.2,0.1-0.4,0.2-0.6s0.3-0.2,0.6-0.2c0.2,0,0.4,0.1,0.6,0.2s0.2,0.3,0.2,0.6
				c0,0.2-0.1,0.4-0.2,0.6s-0.3,0.2-0.6,0.2c-0.2,0-0.4-0.1-0.6-0.2S190.4,122.2,190.4,122z M191.8,130.2h-1.4v-6.5h1.4V130.2z"/>
		</g>
		<g>
			<path class="st3" d="M197,124.7h-1.6v5.4h-1.4v-5.4H193v-0.6l1.1-0.4v-0.4c0-0.8,0.2-1.3,0.5-1.7s0.9-0.6,1.6-0.6
				c0.5,0,1,0.1,1.4,0.2l-0.4,1c-0.3-0.1-0.7-0.2-1-0.2c-0.3,0-0.5,0.1-0.7,0.3s-0.2,0.5-0.2,0.9v0.4h1.6V124.7z M201.4,124.7h-1.6
				v5.4h-1.4v-5.4h-1.1v-0.6l1.1-0.4v-0.4c0-0.8,0.2-1.3,0.5-1.7s0.9-0.6,1.6-0.6c0.5,0,1,0.1,1.4,0.2l-0.4,1
				c-0.3-0.1-0.7-0.2-1-0.2c-0.3,0-0.5,0.1-0.7,0.3s-0.2,0.5-0.2,0.9v0.4h1.6V124.7z"/>
		</g>
		<g>
			<path class="st3" d="M205.3,130.3c-1,0-1.8-0.3-2.4-0.9s-0.9-1.4-0.9-2.4c0-1.1,0.3-1.9,0.8-2.5s1.3-0.9,2.2-0.9
				c0.9,0,1.5,0.3,2,0.8s0.7,1.2,0.7,2.1v0.7h-4.3c0,0.6,0.2,1.1,0.5,1.5s0.8,0.5,1.4,0.5c0.4,0,0.7,0,1.1-0.1s0.7-0.2,1.1-0.4v1.1
				c-0.3,0.2-0.7,0.3-1,0.3S205.8,130.3,205.3,130.3z M205.1,124.6c-0.4,0-0.8,0.1-1.1,0.4s-0.4,0.7-0.5,1.2h2.9
				c0-0.5-0.1-0.9-0.4-1.2S205.5,124.6,205.1,124.6z"/>
		</g>
		<g>
			<path class="st3" d="M212.7,123.6c0.3,0,0.5,0,0.7,0.1l-0.1,1.3c-0.2,0-0.4-0.1-0.6-0.1c-0.6,0-1,0.2-1.3,0.5s-0.5,0.8-0.5,1.4
				v3.4h-1.4v-6.5h1.1l0.2,1.1h0.1c0.2-0.4,0.5-0.7,0.8-0.9S212.3,123.6,212.7,123.6z"/>
		</g>
		<g>
			<path class="st3" d="M217.4,130.3c-1,0-1.8-0.3-2.4-0.9s-0.9-1.4-0.9-2.4c0-1.1,0.3-1.9,0.8-2.5s1.3-0.9,2.2-0.9
				c0.9,0,1.5,0.3,2,0.8s0.7,1.2,0.7,2.1v0.7h-4.3c0,0.6,0.2,1.1,0.5,1.5s0.8,0.5,1.4,0.5c0.4,0,0.7,0,1.1-0.1s0.7-0.2,1.1-0.4v1.1
				c-0.3,0.2-0.7,0.3-1,0.3S217.9,130.3,217.4,130.3z M217.2,124.6c-0.4,0-0.8,0.1-1.1,0.4s-0.4,0.7-0.5,1.2h2.9
				c0-0.5-0.1-0.9-0.4-1.2S217.6,124.6,217.2,124.6z"/>
		</g>
		<g>
			<path class="st3" d="M227.2,130.2h-1.4v-4c0-0.5-0.1-0.9-0.3-1.1s-0.5-0.4-1-0.4c-0.6,0-1,0.2-1.3,0.5s-0.4,0.9-0.4,1.7v3.2h-1.4
				v-6.5h1.1l0.2,0.8h0.1c0.2-0.3,0.5-0.5,0.8-0.7s0.8-0.3,1.2-0.3c1.6,0,2.3,0.8,2.3,2.4V130.2z"/>
		</g>
		<g>
			<path class="st3" d="M231.5,129.2c0.3,0,0.7-0.1,1-0.2v1c-0.2,0.1-0.3,0.1-0.6,0.2s-0.5,0.1-0.7,0.1c-1.3,0-2-0.7-2-2.1v-3.5
				h-0.9v-0.6l0.9-0.5l0.5-1.4h0.8v1.4h1.8v1h-1.8v3.5c0,0.3,0.1,0.6,0.2,0.7S231.3,129.2,231.5,129.2z"/>
		</g>
		<g>
			<path class="st3" d="M233.8,122c0-0.2,0.1-0.4,0.2-0.6s0.3-0.2,0.6-0.2c0.2,0,0.4,0.1,0.6,0.2s0.2,0.3,0.2,0.6
				c0,0.2-0.1,0.4-0.2,0.6s-0.3,0.2-0.6,0.2c-0.2,0-0.4-0.1-0.6-0.2S233.8,122.2,233.8,122z M235.2,130.2h-1.4v-6.5h1.4V130.2z"/>
		</g>
		<g>
			<path class="st3" d="M241.2,130.2l-0.3-0.9h0c-0.3,0.4-0.6,0.7-0.9,0.8s-0.7,0.2-1.2,0.2c-0.6,0-1.1-0.2-1.5-0.5
				s-0.5-0.8-0.5-1.5c0-0.7,0.2-1.2,0.7-1.5s1.3-0.5,2.3-0.6l1.1,0v-0.3c0-0.4-0.1-0.7-0.3-0.9s-0.5-0.3-0.9-0.3c-0.3,0-0.7,0-1,0.1
				s-0.6,0.2-0.9,0.3l-0.4-1c0.4-0.2,0.7-0.3,1.2-0.4s0.8-0.1,1.2-0.1c0.8,0,1.4,0.2,1.9,0.5s0.6,0.9,0.6,1.7v4.4H241.2z
				 M239.2,129.2c0.5,0,0.9-0.1,1.2-0.4s0.5-0.7,0.5-1.2v-0.6l-0.8,0c-0.6,0-1.1,0.1-1.4,0.3s-0.4,0.5-0.4,0.9
				c0,0.3,0.1,0.5,0.3,0.7S238.9,129.2,239.2,129.2z"/>
		</g>
		<g>
			<path class="st3" d="M246.6,129.2c0.3,0,0.7-0.1,1-0.2v1c-0.2,0.1-0.3,0.1-0.6,0.2s-0.5,0.1-0.7,0.1c-1.3,0-2-0.7-2-2.1v-3.5
				h-0.9v-0.6l0.9-0.5l0.5-1.4h0.8v1.4h1.8v1h-1.8v3.5c0,0.3,0.1,0.6,0.2,0.7S246.3,129.2,246.6,129.2z"/>
		</g>
		<g>
			<path class="st3" d="M251.7,130.3c-1,0-1.8-0.3-2.4-0.9s-0.9-1.4-0.9-2.4c0-1.1,0.3-1.9,0.8-2.5s1.3-0.9,2.2-0.9
				c0.9,0,1.5,0.3,2,0.8c0.5,0.5,0.7,1.2,0.7,2.1v0.7h-4.3c0,0.6,0.2,1.1,0.5,1.5s0.8,0.5,1.4,0.5c0.4,0,0.7,0,1.1-0.1
				c0.3-0.1,0.7-0.2,1.1-0.4v1.1c-0.3,0.2-0.7,0.3-1,0.3C252.5,130.2,252.1,130.3,251.7,130.3z M251.4,124.6c-0.4,0-0.8,0.1-1.1,0.4
				s-0.4,0.7-0.5,1.2h2.9c0-0.5-0.1-0.9-0.4-1.2S251.9,124.6,251.4,124.6z"/>
		</g>
		<g>
			<path class="st3" d="M258,130.3c-0.8,0-1.4-0.3-1.9-0.9s-0.7-1.4-0.7-2.5c0-1.1,0.2-1.9,0.7-2.5s1.1-0.9,1.9-0.9
				c0.9,0,1.5,0.3,1.9,0.9h0.1c-0.1-0.5-0.1-0.8-0.1-1.1V121h1.4v9.1h-1.1l-0.2-0.8h-0.1C259.5,129.9,258.8,130.3,258,130.3z
				 M258.3,129.2c0.6,0,1-0.2,1.2-0.5s0.4-0.8,0.4-1.5v-0.2c0-0.8-0.1-1.4-0.4-1.7s-0.7-0.5-1.2-0.5c-0.5,0-0.9,0.2-1.1,0.6
				s-0.4,1-0.4,1.7c0,0.7,0.1,1.3,0.4,1.6S257.8,129.2,258.3,129.2z"/>
		</g>
	</g>
	<g>
		<circle class="st7" cx="129.7" cy="136.2" r="20.8"/>
	</g>
	<g>
		<path class="st0" d="M126.4,146.7l-8.2-9.5c-1.1-1.3-0.9-3.2,0.3-4.2c1.3-1.1,3.2-0.9,4.2,0.3l4,4.7l10-9.9c1.2-1.2,3.1-1.2,4.2,0
			c1.2,1.2,1.2,3.1,0,4.2L126.4,146.7z"/>
	</g>
</g>
<g>
	<g id="Fill-10_35_">
		<polygon class="st8" points="0,153.8 34.2,136.4 0,119.6 		"/>
	</g>
	<g id="Fill-10_33_" class="st9">
		<polygon class="st10" points="34.2,153.8 68.5,136.4 34.2,119.6 		"/>
	</g>
</g>
<g>
	<rect x="89.4" y="194.3" class="st0" width="411.1" height="75"/>
	<path class="st6" d="M500.5,273.4H89.4c-2.3,0-4.1-1.8-4.1-4.1v-75c0-2.3,1.8-4.1,4.1-4.1h411.1c2.3,0,4.1,1.8,4.1,4.1v75
		C504.6,271.6,502.8,273.4,500.5,273.4z M93.5,265.2h402.9v-66.8H93.5V265.2z"/>
</g>
<g>
	<g class="st2">
		<g>
			<path class="st3" d="M173.3,215.5v5.5c0,0.6-0.1,1.2-0.4,1.7s-0.7,0.8-1.2,1.1s-1.1,0.4-1.8,0.4c-1.1,0-1.9-0.3-2.5-0.8
				s-0.9-1.3-0.9-2.3v-5.5h1.4v5.4c0,0.7,0.2,1.2,0.5,1.6s0.8,0.5,1.5,0.5c1.3,0,2-0.7,2-2.1v-5.4H173.3z"/>
		</g>
		<g>
			<path class="st3" d="M181.1,224.1h-1.4v-4c0-0.5-0.1-0.9-0.3-1.1s-0.5-0.4-1-0.4c-0.6,0-1,0.2-1.3,0.5s-0.4,0.9-0.4,1.7v3.2h-1.4
				v-6.5h1.1l0.2,0.8h0.1c0.2-0.3,0.5-0.5,0.8-0.7s0.8-0.3,1.2-0.3c1.6,0,2.3,0.8,2.3,2.4V224.1z"/>
		</g>
		<g>
			<path class="st3" d="M185.2,224.2c-0.8,0-1.4-0.3-1.9-0.9s-0.7-1.4-0.7-2.5c0-1.1,0.2-1.9,0.7-2.5s1.1-0.9,1.9-0.9
				c0.9,0,1.5,0.3,1.9,0.9h0.1c-0.1-0.5-0.1-0.8-0.1-1.1V215h1.4v9.1h-1.1l-0.2-0.8h-0.1C186.7,223.9,186,224.2,185.2,224.2z
				 M185.5,223.1c0.6,0,1-0.2,1.2-0.5s0.4-0.8,0.4-1.5v-0.2c0-0.8-0.1-1.4-0.4-1.7s-0.7-0.5-1.2-0.5c-0.5,0-0.9,0.2-1.1,0.6
				s-0.4,1-0.4,1.7c0,0.7,0.1,1.3,0.4,1.6S185,223.1,185.5,223.1z"/>
		</g>
		<g>
			<path class="st3" d="M190.4,215.9c0-0.2,0.1-0.4,0.2-0.6s0.3-0.2,0.6-0.2c0.2,0,0.4,0.1,0.6,0.2s0.2,0.3,0.2,0.6
				c0,0.2-0.1,0.4-0.2,0.6s-0.3,0.2-0.6,0.2c-0.2,0-0.4-0.1-0.6-0.2S190.4,216.1,190.4,215.9z M191.8,224.1h-1.4v-6.5h1.4V224.1z"/>
		</g>
		<g>
			<path class="st3" d="M197,218.6h-1.6v5.4h-1.4v-5.4H193V218l1.1-0.4v-0.4c0-0.8,0.2-1.3,0.5-1.7s0.9-0.6,1.6-0.6
				c0.5,0,1,0.1,1.4,0.2l-0.4,1c-0.3-0.1-0.7-0.2-1-0.2c-0.3,0-0.5,0.1-0.7,0.3s-0.2,0.5-0.2,0.9v0.4h1.6V218.6z M201.4,218.6h-1.6
				v5.4h-1.4v-5.4h-1.1V218l1.1-0.4v-0.4c0-0.8,0.2-1.3,0.5-1.7s0.9-0.6,1.6-0.6c0.5,0,1,0.1,1.4,0.2l-0.4,1c-0.3-0.1-0.7-0.2-1-0.2
				c-0.3,0-0.5,0.1-0.7,0.3s-0.2,0.5-0.2,0.9v0.4h1.6V218.6z"/>
		</g>
		<g>
			<path class="st3" d="M205.3,224.2c-1,0-1.8-0.3-2.4-0.9s-0.9-1.4-0.9-2.4c0-1.1,0.3-1.9,0.8-2.5s1.3-0.9,2.2-0.9
				c0.9,0,1.5,0.3,2,0.8s0.7,1.2,0.7,2.1v0.7h-4.3c0,0.6,0.2,1.1,0.5,1.5s0.8,0.5,1.4,0.5c0.4,0,0.7,0,1.1-0.1s0.7-0.2,1.1-0.4v1.1
				c-0.3,0.2-0.7,0.3-1,0.3S205.8,224.2,205.3,224.2z M205.1,218.5c-0.4,0-0.8,0.1-1.1,0.4s-0.4,0.7-0.5,1.2h2.9
				c0-0.5-0.1-0.9-0.4-1.2S205.5,218.5,205.1,218.5z"/>
		</g>
		<g>
			<path class="st3" d="M212.7,217.5c0.3,0,0.5,0,0.7,0.1l-0.1,1.3c-0.2,0-0.4-0.1-0.6-0.1c-0.6,0-1,0.2-1.3,0.5s-0.5,0.8-0.5,1.4
				v3.4h-1.4v-6.5h1.1l0.2,1.1h0.1c0.2-0.4,0.5-0.7,0.8-0.9S212.3,217.5,212.7,217.5z"/>
		</g>
		<g>
			<path class="st3" d="M217.4,224.2c-1,0-1.8-0.3-2.4-0.9s-0.9-1.4-0.9-2.4c0-1.1,0.3-1.9,0.8-2.5s1.3-0.9,2.2-0.9
				c0.9,0,1.5,0.3,2,0.8s0.7,1.2,0.7,2.1v0.7h-4.3c0,0.6,0.2,1.1,0.5,1.5s0.8,0.5,1.4,0.5c0.4,0,0.7,0,1.1-0.1s0.7-0.2,1.1-0.4v1.1
				c-0.3,0.2-0.7,0.3-1,0.3S217.9,224.2,217.4,224.2z M217.2,218.5c-0.4,0-0.8,0.1-1.1,0.4s-0.4,0.7-0.5,1.2h2.9
				c0-0.5-0.1-0.9-0.4-1.2S217.6,218.5,217.2,218.5z"/>
		</g>
		<g>
			<path class="st3" d="M227.2,224.1h-1.4v-4c0-0.5-0.1-0.9-0.3-1.1s-0.5-0.4-1-0.4c-0.6,0-1,0.2-1.3,0.5s-0.4,0.9-0.4,1.7v3.2h-1.4
				v-6.5h1.1l0.2,0.8h0.1c0.2-0.3,0.5-0.5,0.8-0.7s0.8-0.3,1.2-0.3c1.6,0,2.3,0.8,2.3,2.4V224.1z"/>
		</g>
		<g>
			<path class="st3" d="M231.5,223.1c0.3,0,0.7-0.1,1-0.2v1c-0.2,0.1-0.3,0.1-0.6,0.2s-0.5,0.1-0.7,0.1c-1.3,0-2-0.7-2-2.1v-3.5
				h-0.9V218l0.9-0.5l0.5-1.4h0.8v1.4h1.8v1h-1.8v3.5c0,0.3,0.1,0.6,0.2,0.7S231.3,223.1,231.5,223.1z"/>
		</g>
		<g>
			<path class="st3" d="M233.8,215.9c0-0.2,0.1-0.4,0.2-0.6s0.3-0.2,0.6-0.2c0.2,0,0.4,0.1,0.6,0.2s0.2,0.3,0.2,0.6
				c0,0.2-0.1,0.4-0.2,0.6s-0.3,0.2-0.6,0.2c-0.2,0-0.4-0.1-0.6-0.2S233.8,216.1,233.8,215.9z M235.2,224.1h-1.4v-6.5h1.4V224.1z"/>
		</g>
		<g>
			<path class="st3" d="M241.2,224.1l-0.3-0.9h0c-0.3,0.4-0.6,0.7-0.9,0.8s-0.7,0.2-1.2,0.2c-0.6,0-1.1-0.2-1.5-0.5
				s-0.5-0.8-0.5-1.5c0-0.7,0.2-1.2,0.7-1.5s1.3-0.5,2.3-0.6l1.1,0v-0.3c0-0.4-0.1-0.7-0.3-0.9s-0.5-0.3-0.9-0.3c-0.3,0-0.7,0-1,0.1
				s-0.6,0.2-0.9,0.3l-0.4-1c0.4-0.2,0.7-0.3,1.2-0.4s0.8-0.1,1.2-0.1c0.8,0,1.4,0.2,1.9,0.5s0.6,0.9,0.6,1.7v4.4H241.2z
				 M239.2,223.1c0.5,0,0.9-0.1,1.2-0.4s0.5-0.7,0.5-1.2V221l-0.8,0c-0.6,0-1.1,0.1-1.4,0.3s-0.4,0.5-0.4,0.9c0,0.3,0.1,0.5,0.3,0.7
				S238.9,223.1,239.2,223.1z"/>
		</g>
		<g>
			<path class="st3" d="M246.6,223.1c0.3,0,0.7-0.1,1-0.2v1c-0.2,0.1-0.3,0.1-0.6,0.2s-0.5,0.1-0.7,0.1c-1.3,0-2-0.7-2-2.1v-3.5
				h-0.9V218l0.9-0.5l0.5-1.4h0.8v1.4h1.8v1h-1.8v3.5c0,0.3,0.1,0.6,0.2,0.7S246.3,223.1,246.6,223.1z"/>
		</g>
		<g>
			<path class="st3" d="M251.7,224.2c-1,0-1.8-0.3-2.4-0.9s-0.9-1.4-0.9-2.4c0-1.1,0.3-1.9,0.8-2.5s1.3-0.9,2.2-0.9
				c0.9,0,1.5,0.3,2,0.8c0.5,0.5,0.7,1.2,0.7,2.1v0.7h-4.3c0,0.6,0.2,1.1,0.5,1.5s0.8,0.5,1.4,0.5c0.4,0,0.7,0,1.1-0.1
				c0.3-0.1,0.7-0.2,1.1-0.4v1.1c-0.3,0.2-0.7,0.3-1,0.3C252.5,224.2,252.1,224.2,251.7,224.2z M251.4,218.5c-0.4,0-0.8,0.1-1.1,0.4
				s-0.4,0.7-0.5,1.2h2.9c0-0.5-0.1-0.9-0.4-1.2S251.9,218.5,251.4,218.5z"/>
		</g>
		<g>
			<path class="st3" d="M258,224.2c-0.8,0-1.4-0.3-1.9-0.9s-0.7-1.4-0.7-2.5c0-1.1,0.2-1.9,0.7-2.5s1.1-0.9,1.9-0.9
				c0.9,0,1.5,0.3,1.9,0.9h0.1c-0.1-0.5-0.1-0.8-0.1-1.1V215h1.4v9.1h-1.1l-0.2-0.8h-0.1C259.5,223.9,258.8,224.2,258,224.2z
				 M258.3,223.1c0.6,0,1-0.2,1.2-0.5s0.4-0.8,0.4-1.5v-0.2c0-0.8-0.1-1.4-0.4-1.7s-0.7-0.5-1.2-0.5c-0.5,0-0.9,0.2-1.1,0.6
				s-0.4,1-0.4,1.7c0,0.7,0.1,1.3,0.4,1.6S257.8,223.1,258.3,223.1z"/>
		</g>
	</g>
	<g class="st2">
		<g>
			<path class="st4" d="M167.2,246.6v-13.5h2.9v13.5H167.2z"/>
		</g>
		<g>
			<path class="st4" d="M182.7,246.6h-2.8v-6c0-0.7-0.1-1.3-0.4-1.7c-0.3-0.4-0.7-0.6-1.3-0.6c-0.8,0-1.4,0.3-1.7,0.8
				c-0.4,0.5-0.5,1.4-0.5,2.6v4.8h-2.8v-10.3h2.1l0.4,1.3h0.2c0.3-0.5,0.7-0.9,1.3-1.1s1.2-0.4,1.9-0.4c1.2,0,2.1,0.3,2.7,1
				c0.6,0.6,0.9,1.6,0.9,2.8V246.6z"/>
		</g>
		<g>
			<path class="st4" d="M191.3,238.4h-2.4v8.2h-2.8v-8.2h-1.5V237l1.5-0.8v-0.8c0-1.2,0.3-2,0.9-2.6s1.5-0.8,2.8-0.8
				c1,0,1.8,0.1,2.6,0.4l-0.7,2.1c-0.6-0.2-1.1-0.3-1.6-0.3c-0.4,0-0.7,0.1-0.9,0.4c-0.2,0.2-0.3,0.5-0.3,0.9v0.6h2.4V238.4z"/>
		</g>
		<g>
			<path class="st4" d="M198.7,236.1c0.4,0,0.7,0,0.9,0.1l-0.2,2.6c-0.2-0.1-0.5-0.1-0.8-0.1c-0.9,0-1.6,0.2-2.1,0.7
				c-0.5,0.5-0.8,1.1-0.8,1.9v5.2h-2.8v-10.3h2.1l0.4,1.7h0.1c0.3-0.6,0.8-1,1.3-1.4S198,236.1,198.7,236.1z"/>
		</g>
		<g>
			<path class="st4" d="M208,246.6l-0.5-1.4h-0.1c-0.5,0.6-1,1-1.5,1.2c-0.5,0.2-1.2,0.3-2,0.3c-1,0-1.8-0.3-2.3-0.8
				s-0.9-1.4-0.9-2.4c0-1.1,0.4-1.9,1.1-2.4s1.9-0.8,3.5-0.9l1.8-0.1v-0.5c0-1-0.5-1.6-1.6-1.6c-0.8,0-1.8,0.2-2.9,0.7l-0.9-1.9
				c1.2-0.6,2.5-0.9,3.9-0.9c1.4,0,2.4,0.3,3.2,0.9c0.7,0.6,1.1,1.5,1.1,2.7v6.9H208z M207.2,241.8l-1.1,0c-0.8,0-1.4,0.2-1.8,0.4
				s-0.6,0.7-0.6,1.2c0,0.8,0.5,1.2,1.4,1.2c0.7,0,1.2-0.2,1.6-0.6s0.6-0.9,0.6-1.5V241.8z"/>
		</g>
		<g>
			<path class="st4" d="M220.1,243.5c0,1.1-0.4,1.9-1.1,2.4c-0.7,0.6-1.8,0.8-3.3,0.8c-0.8,0-1.4-0.1-1.9-0.2
				c-0.5-0.1-1-0.2-1.5-0.4v-2.3c0.5,0.2,1.1,0.5,1.8,0.6c0.7,0.2,1.2,0.2,1.7,0.2c1,0,1.5-0.3,1.5-0.9c0-0.2-0.1-0.4-0.2-0.5
				c-0.1-0.1-0.4-0.3-0.7-0.5c-0.3-0.2-0.8-0.4-1.3-0.6c-0.8-0.3-1.4-0.6-1.7-0.9c-0.4-0.3-0.6-0.6-0.8-1c-0.2-0.4-0.3-0.8-0.3-1.4
				c0-0.9,0.4-1.6,1.1-2.1c0.7-0.5,1.7-0.8,3-0.8c1.2,0,2.4,0.3,3.6,0.8l-0.8,2c-0.5-0.2-1-0.4-1.4-0.5s-0.9-0.2-1.4-0.2
				c-0.8,0-1.2,0.2-1.2,0.7c0,0.3,0.1,0.5,0.4,0.7c0.3,0.2,0.9,0.5,1.8,0.8c0.8,0.3,1.4,0.6,1.8,0.9c0.4,0.3,0.7,0.6,0.8,1
				C220,242.6,220.1,243,220.1,243.5z"/>
		</g>
		<g>
			<path class="st4" d="M226.6,244.5c0.5,0,1.1-0.1,1.8-0.3v2.1c-0.7,0.3-1.6,0.5-2.6,0.5c-1.1,0-1.9-0.3-2.5-0.9s-0.8-1.4-0.8-2.6
				v-5h-1.3v-1.2l1.5-0.9l0.8-2.2h1.8v2.2h2.9v2.1h-2.9v5c0,0.4,0.1,0.7,0.3,0.9C225.9,244.4,226.2,244.5,226.6,244.5z"/>
		</g>
		<g>
			<path class="st4" d="M236.2,236.1c0.4,0,0.7,0,0.9,0.1l-0.2,2.6c-0.2-0.1-0.5-0.1-0.8-0.1c-0.9,0-1.6,0.2-2.1,0.7
				c-0.5,0.5-0.8,1.1-0.8,1.9v5.2h-2.8v-10.3h2.1l0.4,1.7h0.1c0.3-0.6,0.8-1,1.3-1.4S235.6,236.1,236.2,236.1z"/>
		</g>
		<g>
			<path class="st4" d="M246.3,246.6l-0.4-1.3h-0.1c-0.3,0.5-0.7,0.8-1.3,1.1c-0.6,0.3-1.2,0.4-1.9,0.4c-1.2,0-2.1-0.3-2.7-1
				c-0.6-0.6-0.9-1.6-0.9-2.8v-6.7h2.8v6c0,0.7,0.1,1.3,0.4,1.7s0.7,0.6,1.3,0.6c0.8,0,1.4-0.3,1.7-0.8c0.4-0.5,0.5-1.4,0.5-2.6
				v-4.8h2.8v10.3H246.3z"/>
		</g>
		<g>
			<path class="st4" d="M255.6,246.8c-3.2,0-4.8-1.8-4.8-5.3c0-1.8,0.4-3.1,1.3-4c0.9-0.9,2.1-1.4,3.8-1.4c1.2,0,2.3,0.2,3.2,0.7
				l-0.8,2.2c-0.4-0.2-0.9-0.3-1.2-0.4c-0.4-0.1-0.8-0.2-1.1-0.2c-1.5,0-2.2,1-2.2,3.1c0,2,0.7,3,2.2,3c0.5,0,1-0.1,1.5-0.2
				c0.5-0.1,0.9-0.4,1.4-0.7v2.4c-0.5,0.3-0.9,0.5-1.4,0.6C256.9,246.7,256.3,246.8,255.6,246.8z"/>
		</g>
		<g>
			<path class="st4" d="M265.5,244.5c0.5,0,1.1-0.1,1.8-0.3v2.1c-0.7,0.3-1.6,0.5-2.6,0.5c-1.1,0-1.9-0.3-2.5-0.9
				c-0.5-0.6-0.8-1.4-0.8-2.6v-5h-1.3v-1.2l1.5-0.9l0.8-2.2h1.8v2.2h2.9v2.1h-2.9v5c0,0.4,0.1,0.7,0.3,0.9S265.1,244.5,265.5,244.5z
				"/>
		</g>
		<g>
			<path class="st4" d="M276.6,246.6l-0.4-1.3h-0.1c-0.3,0.5-0.7,0.8-1.3,1.1c-0.6,0.3-1.2,0.4-1.9,0.4c-1.2,0-2.1-0.3-2.7-1
				c-0.6-0.6-0.9-1.6-0.9-2.8v-6.7h2.8v6c0,0.7,0.1,1.3,0.4,1.7s0.7,0.6,1.3,0.6c0.8,0,1.4-0.3,1.7-0.8s0.5-1.4,0.5-2.6v-4.8h2.8
				v10.3H276.6z"/>
		</g>
		<g>
			<path class="st4" d="M287.5,236.1c0.4,0,0.7,0,1,0.1l-0.2,2.6c-0.2-0.1-0.5-0.1-0.8-0.1c-0.9,0-1.6,0.2-2.1,0.7
				c-0.5,0.5-0.8,1.1-0.8,1.9v5.2h-2.8v-10.3h2.1l0.4,1.7h0.1c0.3-0.6,0.8-1,1.3-1.4S286.9,236.1,287.5,236.1z"/>
		</g>
		<g>
			<path class="st4" d="M295,246.8c-1.7,0-3-0.5-3.9-1.4c-0.9-0.9-1.4-2.2-1.4-3.9c0-1.7,0.4-3.1,1.3-4s2.1-1.4,3.6-1.4
				c1.5,0,2.6,0.4,3.4,1.2c0.8,0.8,1.2,2,1.2,3.4v1.4h-6.6c0,0.8,0.3,1.4,0.7,1.9c0.4,0.4,1.1,0.7,1.9,0.7c0.6,0,1.2-0.1,1.8-0.2
				c0.6-0.1,1.1-0.3,1.7-0.6v2.2c-0.5,0.2-1,0.4-1.6,0.5C296.5,246.7,295.8,246.8,295,246.8z M294.6,238.1c-0.6,0-1.1,0.2-1.4,0.6
				s-0.5,0.9-0.6,1.6h3.9c0-0.7-0.2-1.2-0.5-1.6C295.7,238.3,295.2,238.1,294.6,238.1z"/>
		</g>
	</g>
	<g>
		<circle class="st7" cx="129.7" cy="231.8" r="20.8"/>
	</g>
	<g>
		<path class="st0" d="M126.4,242.9l-8.2-9.7c-1.1-1.3-0.9-3.2,0.3-4.2s3.2-0.9,4.2,0.3l4,4.7l10-10c1.2-1.2,3.1-1.2,4.2,0
			c1.2,1.2,1.2,3.1,0,4.2L126.4,242.9z"/>
	</g>
</g>
<g>
	<g id="Fill-10_9_">
		<polygon class="st8" points="0,249 34.2,231.6 0,214.7 		"/>
	</g>
	<g id="Fill-10_5_" class="st9">
		<polygon class="st10" points="34.2,249 68.5,231.6 34.2,214.7 		"/>
	</g>
</g>
</svg>
