<?xml version="1.0" encoding="utf-8"?>
<!-- Generator: Adobe Illustrator 24.1.2, SVG Export Plug-In . SVG Version: 6.00 Build 0)  -->
<svg version="1.1" id="Layer_1" xmlns="http://www.w3.org/2000/svg" xmlns:xlink="http://www.w3.org/1999/xlink" x="0px" y="0px"
	 viewBox="0 0 653.76 341.34" enable-background="new 0 0 653.76 341.34" xml:space="preserve">
<g>
	<polygon fill="#88A752" points="170.268,20.024 174.301,12.487 178.488,20.024 185.948,24.134 178.488,28.245 174.378,35.704 
		170.268,28.245 162.731,24.058 	"/>
	<polygon fill="#C94764" points="211.803,17.016 218.882,4 226.038,16.941 238.978,24.095 225.962,31.174 218.882,44.191 
		211.803,31.174 198.787,24.095 	"/>
</g>
<g>
	<polygon fill="#88A752" points="432.157,199.317 424.62,203.504 420.51,210.963 416.4,203.504 408.94,199.393 416.4,195.282 
		420.587,187.746 424.62,195.282 	"/>
	<polygon fill="#C94764" points="396.101,199.354 383.085,206.433 376.006,219.45 368.926,206.433 355.91,199.354 368.85,192.199 
		376.006,179.259 383.085,192.275 	"/>
</g>
<g>
	
		<linearGradient id="SVGID_2_" gradientUnits="userSpaceOnUse" x1="381.9992" y1="5015.6978" x2="647.3455" y2="5015.6978" gradientTransform="matrix(-1 0 0 -1 978.7924 5095.5977)">
		<stop  offset="0" style="stop-color:#C1C5C7"/>
		<stop  offset="0.165" style="stop-color:#CACDCF"/>
		<stop  offset="0.6789" style="stop-color:#E0E3E4"/>
		<stop  offset="1" style="stop-color:#E9EBEC"/>
	</linearGradient>
	<path fill="url(#SVGID_2_)" d="M563.818,159.799H375.694c-24.519,0-44.248-19.869-44.248-44.248
		c0-22.687,17.051-41.288,38.893-43.825c-0.423-2.678-0.563-5.355-0.563-8.033C369.777,28.465,398.383,0,433.471,0
		c28.888,0,52.757,18.153,61.017,45.516c5.918-4.932,13.387-7.891,21.701-7.891c18.601,0,33.679,15.078,33.679,33.679
		c0,2.959-0.423,5.918-1.127,8.596c2.536-0.423,5.073-0.704,7.75-0.704c22.265,0,40.302,18.038,40.302,40.302
		C596.793,138.804,581.997,155.854,563.818,159.799z"/>
	
		<linearGradient id="SVGID_4_" gradientUnits="userSpaceOnUse" x1="0" y1="4925.1357" x2="332.8326" y2="4925.1357" gradientTransform="matrix(1 0 0 -1 0 5095.5977)">
		<stop  offset="0" style="stop-color:#C1C5C7"/>
		<stop  offset="0.165" style="stop-color:#CACDCF"/>
		<stop  offset="0.6789" style="stop-color:#E0E3E4"/>
		<stop  offset="1" style="stop-color:#E9EBEC"/>
	</linearGradient>
	<path fill="url(#SVGID_4_)" d="M0,213.556c0-27.927,22.625-50.553,50.553-50.553c3.358,0,6.54,0.353,9.721,0.883
		c-0.883-3.358-1.414-7.07-1.414-10.782c0-23.332,18.913-42.245,42.245-42.245c10.429,0,19.797,3.712,27.221,9.898
		c9.721-33.053,40.3-57.092,76.536-57.092c44.012,0,79.894,35.705,79.894,79.894c0,3.358-0.177,6.717-0.707,10.075
		c27.397,3.182,48.785,26.514,48.785,54.971c0,30.579-24.746,55.501-55.501,55.501l-150.378,13.151l-63.477-31.205
		C40.675,241.104,0,237.772,0,213.556z"/>
	<g>
		<circle fill="#FFFFFF" cx="323.882" cy="86.841" r="86.841"/>
		<path fill="#74B3DF" d="M345.331,47.382c-13.677,0-24.804,7.001-30.556,17.295c1.086,0.923,2.134,1.9,3.147,3.021l1.773,1.99
			l-1.809,1.953l-7.308,7.852c-0.036,0.561-0.036,1.104-0.036,1.665v0.181c0,7.941,2.66,15.251,7.273,21.005h-22.325
			c0-0.036,0-0.055,0-0.091c-8.033,0-13.17-6.386-13.17-14.329v-0.199c0-7.653,5.228-14.13,12.591-14.13
			c5.228,0,8.52,2.225,11.813,5.718l9.009-9.679c-4.849-5.427-10.946-8.721-20.715-8.721c-15.884,0-27.21,12.195-27.21,27.011v0.199
			c0,14.473,10.928,26.25,25.98,26.757v0.055h52.701v-0.036c19.466-0.652,33.468-15.594,33.468-33.759V80.96
			C379.958,62.417,365.485,47.382,345.331,47.382z M364.924,81.357c0,11.198-8.033,20.335-19.592,20.335
			c-11.578,0-19.791-9.334-19.791-20.534v-0.181c0-11.198,8.033-20.353,19.592-20.353c11.578,0,19.791,9.334,19.791,20.534V81.357z"
			/>
	</g>
	<g>
		<g>
			<g id="Head_x2F_Front_x2F_Short-Beard_4_" transform="translate(82.000000, 0.000000)">
				<g id="Head_7_" transform="translate(54.000000, 31.000000)">
					<path fill-rule="evenodd" clip-rule="evenodd" fill="#AC8B6C" d="M-11.068,84.949c-7.842-9.963-12.944-21.997-11.5-35.205
						c4.158-38.053,56.949-27.596,66.534-7.936s6.46,68.463-7.027,71.387c-5.379,1.166-16.593-2.638-27.869-10.045l5.256,51.553
						l-42.793-1.661L-11.068,84.949z"/>
				</g>
				<path id="Hair_4_" fill-rule="evenodd" clip-rule="evenodd" fill="#252728" d="M66.301,85.109
					c0.768,23.355,4.738,35.171,11.912,35.45c10.761,0.419,20.155-6.059,24.877-5.876c3.442,0.133,2.506,4.411,0.101,7.516
					c-1.985,2.562-11.25,4.745-11.409,8.83c-0.159,4.085,7.207,1.205,7.112,3.628c-0.156,4.006,0.824,11.591-6.13,11.32
					c-7.039-0.274-27.469-2.996-30.522-13.577c-1.971-6.828-2.522-21.481-2.353-42.705c-0.425-0.067-0.858-0.111-1.299-0.128
					c-6.03-0.234-11.109,4.464-11.343,10.495c-0.12,3.062,1.033,5.878,2.986,7.939c-2.665,3.468-4.94,8.435-8.334,12.154
					c-11.906-7.787-20.821-30.899-8.105-51.003c3.685-9.947,11.351-15.04,20.256-17.196c7.249-2.708,14.669-2.757,20.851-0.724
					c12.214,1.527,23.012,5.689,26.028,8.029c-0.451,11.603-2.832,14.958-22.022,13.909C74.091,75.479,70.297,79.63,66.301,85.109z"
					/>
			</g>
			<path fill-rule="evenodd" clip-rule="evenodd" fill="#AC8B6C" d="M292.864,229.554c3.541-16.519,21.392-10.617,41.226-26.932
				c20.959-17.24,0.573-13.899-22.685-10.32c-23.258,3.579-23.185,9.18-24.262,27.446
				C287.143,219.749,289.323,246.073,292.864,229.554z"/>
			<path fill-rule="evenodd" clip-rule="evenodd" fill="#235D8C" d="M168.08,338.878c10.548-1.972,20.641-4.979,30.197-8.892
				c-4.188-84.352-40.486-127.682-44.052-159.475l-48.44,1.648c0,0-14.916,22.327-24.554,49.76
				c-4.155,11.83-15.958,73.76-17.754,87.674C96.679,334.18,124.267,347.071,168.08,338.878z"/>
			<path fill-rule="evenodd" clip-rule="evenodd" fill="#235D8C" d="M206.266,275.068c49.502,7.274,99.813-42.08,99.813-42.08
				l-22.754-38.557c0,0-30.09,25.817-42.06,23.613c-11.969-2.204-87.088-47.474-87.088-47.474S156.764,267.794,206.266,275.068z"/>
		</g>
	</g>
	<g>
		<g>
			<path fill="none" stroke="#88A752" stroke-width="6.8234" stroke-miterlimit="10" d="M486.784,153.681
				c0,0,70.508,19.124,70.508,177.337"/>
			<path fill="#C94764" d="M494.644,126.402c0,0,0-0.106-0.106-0.106c-1.593-3.823-0.849-8.282,2.124-11.149l-10.406-10.406
				c-2.973,2.973-7.327,3.716-11.149,2.124c0,0-0.106,0-0.106-0.106c-3.823-1.593-6.371-5.309-6.371-9.344h-14.759
				c0,4.141-2.548,7.858-6.371,9.344c0,0-0.106,0-0.106,0.106c-3.823,1.593-8.282,0.849-11.149-2.124l-10.406,10.406
				c2.973,2.973,3.716,7.327,2.124,11.149c0,0,0,0.106-0.106,0.106c-1.593,3.823-5.309,6.371-9.344,6.371v14.76
				c4.141,0,7.858,2.548,9.344,6.371c0,0,0,0.106,0.106,0.106c1.593,3.823,0.849,8.282-2.124,11.149l10.406,10.406
				c2.973-2.973,7.327-3.716,11.149-2.124c0,0,0.106,0,0.106,0.106c3.823,1.593,6.371,5.309,6.371,9.344h14.759
				c0-4.141,2.548-7.858,6.371-9.344c0,0,0.106,0,0.106-0.106c3.823-1.593,8.282-0.849,11.149,2.124l10.406-10.406
				c-2.973-2.973-3.716-7.327-2.124-11.149c0,0,0-0.106,0.106-0.106c1.593-3.823,5.309-6.371,9.344-6.371v-14.76
				C499.847,132.773,496.237,130.225,494.644,126.402z M461.196,159.319c-10.618,0-19.219-8.601-19.219-19.219
				c0-10.618,8.601-19.219,19.219-19.219s19.219,8.601,19.219,19.219C480.415,150.718,471.814,159.319,461.196,159.319z"/>
		</g>
		<g>
			<path fill="none" stroke="#88A752" stroke-width="6.8234" stroke-miterlimit="10" d="M607.141,207.194
				c0,0-48.097,15.729-48.097,123.824"/>
			<path fill="#C94764" d="M595.466,195.528v10.087c2.867,0,5.309,1.699,6.371,4.354v0.106c1.062,2.655,0.531,5.628-1.487,7.645
				l7.114,7.114c2.017-2.018,4.991-2.548,7.645-1.487h0.106c2.655,1.062,4.354,3.61,4.354,6.371h10.087
				c0-2.867,1.699-5.309,4.354-6.371h0.106c2.655-1.062,5.628-0.531,7.645,1.487l7.114-7.114c-2.018-2.018-2.548-4.991-1.487-7.645
				v-0.106c1.062-2.655,3.61-4.354,6.371-4.354v-10.087c-2.867,0-5.309-1.699-6.371-4.354v-0.106
				c-1.062-2.655-0.531-5.628,1.487-7.645l-7.114-7.114c-2.017,2.018-4.991,2.548-7.645,1.487h-0.106
				c-2.655-1.062-4.354-3.61-4.354-6.371h-10.087c0,2.867-1.699,5.309-4.354,6.371h-0.106c-2.655,1.062-5.628,0.531-7.645-1.487
				l-7.114,7.114c2.018,2.018,2.548,4.991,1.487,7.645v0.106C600.775,193.829,598.226,195.528,595.466,195.528z M611.499,200.519
				c0-7.22,5.84-13.167,13.167-13.167s13.167,5.84,13.167,13.167c0,7.327-5.84,13.167-13.167,13.167
				S611.499,207.845,611.499,200.519z"/>
		</g>
	</g>
	<g>
		<polygon id="Fill-10_2_" fill-rule="evenodd" clip-rule="evenodd" fill="#88A752" points="0,278.388 63.477,246.053 0,214.848 		
			"/>
		<polygon id="Fill-10_1_" fill-rule="evenodd" clip-rule="evenodd" fill="#74B3DF" points="63.477,309.593 126.954,277.258 
			63.477,246.053 		"/>
	</g>
	<g>
		<polygon id="Fill-10_4_" fill-rule="evenodd" clip-rule="evenodd" fill="#88A752" points="469.682,74.516 533.159,42.181 
			469.682,10.976 		"/>
		<polygon id="Fill-10_3_" fill-rule="evenodd" clip-rule="evenodd" fill="#74B3DF" points="533.159,74.516 596.636,42.181 
			533.159,10.976 		"/>
	</g>
</g>
</svg>
