<?xml version="1.0" encoding="utf-8"?>
<!-- Generator: Adobe Illustrator 24.1.2, SVG Export Plug-In . SVG Version: 6.00 Build 0)  -->
<svg version="1.1" id="Layer_1" xmlns="http://www.w3.org/2000/svg" xmlns:xlink="http://www.w3.org/1999/xlink" x="0px" y="0px"
	 viewBox="0 0 311.417 328.54" enable-background="new 0 0 311.417 328.54" xml:space="preserve">
<g>
	<path fill="#C0E1F5" d="M194.62,220.38c0-16.341-13.236-29.577-29.577-29.577c-1.961,0-3.84,0.245-5.719,0.49
		c0.49-1.961,0.817-4.167,0.817-6.291c0-13.645-11.03-24.675-24.675-24.675c-6.128,0-11.602,2.206-15.932,5.801
		c-5.719-19.201-23.449-33.254-44.611-33.254c-25.737,0-46.735,20.916-46.735,46.735c0,1.961,0.082,3.922,0.409,5.883
		C12.501,187.371,0,201.097,0,217.602c0,17.893,14.462,32.437,32.437,32.437h137.999C183.917,247.179,194.62,234.678,194.62,220.38z
		"/>
	<path fill="#C0E1F5" d="M311.417,96.865c0-18.089-14.652-32.741-32.741-32.741c-2.171,0-4.251,0.271-6.331,0.543
		c0.543-2.171,0.904-4.613,0.904-6.964c0-15.104-12.21-27.314-27.314-27.314c-6.783,0-12.843,2.442-17.637,6.422
		C221.968,15.556,202.342,0,178.917,0c-28.49,0-51.734,23.154-51.734,51.734c0,2.171,0.09,4.341,0.452,6.512
		C109.818,60.326,95.98,75.52,95.98,93.79c0,19.807,16.009,35.906,35.906,35.906h152.759
		C299.569,126.531,311.417,112.693,311.417,96.865z"/>
	<g>
		<g>
			<polygon fill="#D93963" points="123.334,249.898 166.169,222.907 166.169,195.992 131.334,205.992 			"/>
			<polygon fill="#D93963" points="251.763,249.898 208.928,223.086 208.928,195.992 243.763,205.992 			"/>
		</g>
		<g>
			<linearGradient id="SVGID_2_" gradientUnits="userSpaceOnUse" x1="142.8656" y1="152.6147" x2="232.2315" y2="152.6147">
				<stop  offset="0" style="stop-color:#C7CBCD"/>
				<stop  offset="0.0462" style="stop-color:#CFD3D4"/>
				<stop  offset="0.1668" style="stop-color:#DEE1E2"/>
				<stop  offset="0.3074" style="stop-color:#E7E9EA"/>
				<stop  offset="0.5143" style="stop-color:#EAECED"/>
				<stop  offset="0.6602" style="stop-color:#E5E8E9"/>
				<stop  offset="0.825" style="stop-color:#D8DBDD"/>
				<stop  offset="0.9984" style="stop-color:#C1C6C8"/>
				<stop  offset="1" style="stop-color:#C1C6C8"/>
			</linearGradient>
			<path fill="url(#SVGID_2_)" d="M231.051,154.409c2.884-19.061,0.499-38.615-7.316-56.239
				c-13.221-29.817-36.182-42.979-36.182-42.979s0,0,0,0c0,0,0,0,0,0l0,0c-0.166,0.095-23.865,13.68-36.906,44.585
				c-7.258,17.199-9.391,36.131-6.598,54.588l14.477,95.674h58.056L231.051,154.409z"/>
			<path fill="#D93963" d="M187.57,96.124c12.121,0,24.044,0.347,35.717,1.017C210,68.051,187.57,55.191,187.57,55.191
				c-0.162,0.092-22.515,12.908-35.749,41.951C163.503,96.471,175.438,96.124,187.57,96.124z"/>
			<circle fill="#62B5E5" cx="187.553" cy="138.866" r="25.326"/>
			<circle fill="#C0E1F5" cx="187.553" cy="138.866" r="21.458"/>
			<polygon fill="#4B4F54" points="155.462,229.795 158.525,250.038 216.581,250.038 219.644,229.795 			"/>
		</g>
		<polygon id="Fill-10_42_" fill-rule="evenodd" clip-rule="evenodd" fill="#EFF0F0" points="207.16,328.54 187.189,289.276 
			167.937,328.54 		"/>
		<polygon id="Fill-10_14_" fill-rule="evenodd" clip-rule="evenodd" fill="#FFE07F" points="207.16,289.276 187.189,250.012 
			167.937,289.276 		"/>
	</g>
</g>
</svg>
