<?xml version="1.0" encoding="utf-8"?>
<!-- Generator: Adobe Illustrator 24.1.2, SVG Export Plug-In . SVG Version: 6.00 Build 0)  -->
<svg version="1.1" id="Layer_1" xmlns="http://www.w3.org/2000/svg" xmlns:xlink="http://www.w3.org/1999/xlink" x="0px" y="0px"
	 viewBox="0 0 324.239 384.398" enable-background="new 0 0 324.239 384.398" xml:space="preserve">
<g>
	<path fill="#C0E1F5" d="M324.239,146.023c0-27.207-22.041-49.246-49.246-49.246c-3.271,0-6.371,0.344-9.47,0.86
		c0.86-3.271,1.377-6.887,1.377-10.504c0-22.729-18.424-41.155-41.155-41.155c-10.16,0-19.286,3.615-26.517,9.642
		C189.757,23.42,159.967,0,124.668,0c-42.876,0-77.83,34.782-77.83,77.83c0,3.271,0.172,6.543,0.688,9.814
		C20.835,90.75,0,113.479,0,141.201c0,29.79,24.106,54.068,54.068,54.068h229.878C306.159,190.449,324.239,169.613,324.239,146.023z
		"/>
	<g>
		<polygon id="Fill-10_11_" fill-rule="evenodd" clip-rule="evenodd" fill="#81AA43" points="271.136,195.269 251.165,156.005 
			231.912,195.269 		"/>
		<polygon id="Fill-10_10_" fill-rule="evenodd" clip-rule="evenodd" fill="#FFE07F" points="271.136,156.005 251.165,116.741 
			231.912,156.005 		"/>
		<rect x="231.912" y="206.165" fill-rule="evenodd" clip-rule="evenodd" fill="#025D91" width="39.224" height="175.509"/>
		<rect x="172.309" y="296.425" fill-rule="evenodd" clip-rule="evenodd" fill="#62B5E5" width="39.224" height="85.249"/>
		<rect x="112.706" y="325.46" fill-rule="evenodd" clip-rule="evenodd" fill="#A1D3EF" width="39.224" height="56.215"/>
		<rect x="53.103" y="354.494" fill-rule="evenodd" clip-rule="evenodd" fill="#E0F0FA" width="39.224" height="27.18"/>
	</g>
	<line fill="none" stroke="#E7E7E8" stroke-width="5.4478" stroke-miterlimit="10" x1="0" y1="381.674" x2="324.239" y2="381.674"/>
</g>
</svg>
