<?xml version="1.0" encoding="utf-8"?>
<!-- Generator: Adobe Illustrator 24.1.2, SVG Export Plug-In . SVG Version: 6.00 Build 0)  -->
<svg version="1.1" id="Layer_1" xmlns="http://www.w3.org/2000/svg" xmlns:xlink="http://www.w3.org/1999/xlink" x="0px" y="0px"
	 viewBox="0 0 164.602 164.602" enable-background="new 0 0 164.602 164.602" xml:space="preserve">
<g>
	<g>
		<circle fill="#FBE08D" cx="82.301" cy="82.301" r="82.301"/>
	</g>
	<circle fill="#FFFFFF" stroke="#005D91" stroke-width="9" stroke-miterlimit="10" cx="89.891" cy="74.712" r="44.712"/>
	
		<line fill="none" stroke="#005D91" stroke-width="9" stroke-linecap="round" stroke-miterlimit="10" x1="57.136" y1="105.134" x2="37.395" y2="124.875"/>
	<path fill="#809B52" d="M89.891,90.055l-15.78,8.296c-0.622,0.327-1.349-0.201-1.23-0.894l3.014-17.571L63.128,67.442
		c-0.503-0.49-0.225-1.345,0.47-1.446l17.643-2.564l7.89-15.987c0.311-0.63,1.209-0.63,1.52,0l7.89,15.987l17.643,2.564
		c0.695,0.101,0.973,0.955,0.47,1.446l-12.766,12.444l3.014,17.571c0.119,0.692-0.608,1.221-1.23,0.894L89.891,90.055z"/>
</g>
</svg>
