<?xml version="1.0" encoding="utf-8"?>
<!-- Generator: Adobe Illustrator 24.1.2, SVG Export Plug-In . SVG Version: 6.00 Build 0)  -->
<svg version="1.1" id="Layer_1" xmlns="http://www.w3.org/2000/svg" xmlns:xlink="http://www.w3.org/1999/xlink" x="0px" y="0px"
	 viewBox="0 0 196.216 162.032" enable-background="new 0 0 196.216 162.032" xml:space="preserve">
<g>
	<linearGradient id="SVGID_3_" gradientUnits="userSpaceOnUse" x1="0" y1="48.8783" x2="162.3823" y2="48.8783">
		<stop  offset="0" style="stop-color:#DFE1E1"/>
		<stop  offset="0.5326" style="stop-color:#DDDFE0"/>
		<stop  offset="0.7244" style="stop-color:#D6D9DA"/>
		<stop  offset="0.8611" style="stop-color:#CBCECF"/>
		<stop  offset="0.9709" style="stop-color:#BBBEC0"/>
		<stop  offset="1" style="stop-color:#B5B9BB"/>
	</linearGradient>
	<path fill="url(#SVGID_3_)" d="M162.382,73.011c0-13.634-11.044-24.678-24.678-24.678c-1.636,0-3.204,0.205-4.772,0.409
		c0.409-1.636,0.682-3.477,0.682-5.249c0-11.384-9.203-20.588-20.588-20.588c-5.113,0-9.68,1.841-13.293,4.84
		C94.962,11.725,80.169,0,62.512,0C41.039,0,23.519,17.452,23.519,38.994c0,1.636,0.068,3.272,0.341,4.908
		C10.43,45.47,0,56.922,0,70.693c0,14.929,12.066,27.064,27.064,27.064h115.14C153.452,95.371,162.382,84.941,162.382,73.011z"/>
	<g>
		<polygon id="Fill-10_217_" opacity="0.5" fill-rule="evenodd" clip-rule="evenodd" fill="#235D80" points="72.636,53.021 
			99.086,39.555 72.636,26.572 		"/>
		<polygon id="Fill-10_216_" fill-rule="evenodd" clip-rule="evenodd" fill="#FFFFFF" points="99.235,53.021 125.685,39.555 
			99.235,26.572 		"/>
		<polygon id="Fill-10_215_" fill-rule="evenodd" clip-rule="evenodd" fill="#00466D" points="99.235,53.021 125.685,39.555 
			99.235,26.572 		"/>
	</g>
	<g>
		<g>
			<g id="Bottom_x2F_Standing_x2F_Sweatpants_19_" transform="translate(0.000000, 203.685999)">
				<polygon id="Leg_39_" fill-rule="evenodd" clip-rule="evenodd" fill="#C79E84" points="49.596,-118.07 61.284,-77.801 
					66.762,-47.538 72.3,-47.538 66.792,-118.07 				"/>
				<path id="Leg_38_" fill-rule="evenodd" clip-rule="evenodd" fill="#C79E84" d="M44.333-118.07
					c0.826,20.93,0.49,32.343,0.306,34.241c-0.184,1.897-1.224,14.626-8.292,36.933h5.753c9.363-21.389,12.607-34.118,13.678-36.933
					c1.071-2.815,4.253-14.229,8.874-34.241H44.333z"/>
				<path id="Pant_35_" fill-rule="evenodd" clip-rule="evenodd" fill="#252728" d="M49.32-118.07
					c3.029,13.861,8.292,35.985,15.789,66.37h8.078c0.581-31.181-1.928-51.713-6.334-66.37H49.32z"/>
				<path id="Pant_34_" fill-rule="evenodd" clip-rule="evenodd" fill="#252728" d="M44.302-118.07
					c0.796,20.93-1.285,41.554-7.68,66.706h8.598c9.363-21.052,16.095-41.584,20.685-66.706H44.302z"/>
				<g id="Accessories_x2F_Shoe_x2F_Flat-Simple_36_" transform="translate(87.603226, 207.536214)">
					<path id="Shoe_40_" fill-rule="evenodd" clip-rule="evenodd" fill="#252728" d="M-52.052-250.29l0.306-5.11
						c1.867,0.551,4.161,0.337,6.977-0.643c2.999,2.111,6.793,3.58,11.322,4.345l0,0c0.337,0.061,0.581,0.398,0.52,0.734
						c0,0.031,0,0.031,0,0.061l-0.428,1.53h-11.413h-6.671L-52.052-250.29z"/>
				</g>
				<g id="Accessories_x2F_Shoe_x2F_Flat-Simple_35_" transform="translate(185.635407, 207.536214)">
					<path id="Shoe_39_" fill-rule="evenodd" clip-rule="evenodd" fill="#252728" d="M-120.087-250.29l0.306-5.11
						c1.867,0.551,4.161,0.337,6.977-0.643c2.999,2.111,6.793,3.58,11.322,4.345l0,0c0.337,0.061,0.581,0.398,0.52,0.734
						c0,0.031,0,0.031,0,0.061l-0.428,1.53h-11.413h-6.671L-120.087-250.29z"/>
				</g>
			</g>
			<g id="humaaans_x2F_sitting-7_10_">
				
					<g id="A-Human_x2F_Sitting_17_" transform="translate(190.000000, 200.500000) scale(-1, 1) translate(-190.000000, -200.500000) translate(40.000000, 24.000000)">
					<g id="Head_x2F_Front_x2F_Chongo_10_" transform="translate(82.000000, 0.000000)">
						<g id="Head_37_" transform="translate(54.000000, 31.000000)">
							<path fill-rule="evenodd" clip-rule="evenodd" fill="#C79E84" d="M157.4-4.135l-9.557-1.043l2.884-11.29
								c-2.758,1.271-5.349,1.753-6.509,1.304c-2.904-1.083-1.992-12.024,0.787-16.072c2.779-4.049,14.85-4.625,14.517,3.962
								c-0.127,3.008-1.648,5.502-3.714,7.452L157.4-4.135z"/>
						</g>
						<path id="hair_20_" fill-rule="evenodd" clip-rule="evenodd" fill="#EED380" d="M198.361-1.354
							c-0.177,0.142-0.362,0.363-0.308,0.611c0.018,0.203,0.16,0.38,0.262,0.552c0.279,0.393,0.656,0.636,1.037,0.838
							c1.479,0.846,3.183,1.113,4.613,2.035c1.32,0.829,2.008,2.274,2.286,3.795c1.052-0.409,2.352-0.872,3.41-0.232
							c0.833,0.494,0.977,1.759,0.757,2.661c-0.18,0.907-0.7,1.616-1.442,2.139c-0.128,0.067-0.301,0.169-0.393,0.279
							c-0.088,0.071-0.057,0.155,0.009,0.283c0.124,0.336,0.368,0.685,0.581,0.95c0.599,0.791,1.63,0.943,2.527,0.84
							c0.491-0.067,0.946-0.179,1.402-0.29c0.46-0.151,0.959-0.298,1.384-0.494c0.972-0.418,1.625-1.233,1.982-2.282
							c0.405-1.124,0.539-2.359,0.586-3.522c0.055-1.243-0.053-2.464-0.326-3.662c-0.241-1.114-0.646-2.206-1.271-3.121
							c1.145-0.157,2.321-0.593,3.213-1.382c0.985-0.9,2.192-3.468,2.345-4.499c0.153-1.031,0.133-1.96-0.049-2.504
							c-0.338-0.964-1.021-1.723-1.902-2.142c-0.075-0.048-0.195-0.061-0.27-0.11c-0.115-0.053-0.106-0.133-0.138-0.216
							c-0.093-0.252-0.231-0.468-0.368-0.685c-0.311-0.477-0.798-0.812-1.294-1.068c-0.496-0.256-1.085-0.4-1.651-0.382
							c-0.482-0.012-1.097,0.082-1.534,0.397c-0.216,0.138-0.309,0.248-0.544,0.182c-0.195-0.062-0.381-0.203-0.615-0.269
							c-0.505-0.176-1.022-0.232-1.553-0.169c-0.531,0.063-1.035,0.25-1.432,0.569c-0.398,0.319-0.728,0.767-0.98,1.223
							c-0.591,0.983-1.173,1.887-1.458,3.024s-0.221,2.394,0.1,3.517c-0.788-0.167-2.672-0.251-4.03,0.004
							C201.939-4.227,199.2-2.391,198.361-1.354z"/>
					</g>
				</g>
			</g>
			<path id="Clothes_17_" fill-rule="evenodd" clip-rule="evenodd" fill="#74A7D3" d="M69.874,86.987
				c-1.883,6.931-20.498,4.1-26.223,6.306c-2.637-25.172,2.118-47.797,3.122-47.974l9.067-1.599
				C57.482,50.095,70.77,83.627,69.874,86.987z"/>
		</g>
		<path id="Skin_28_" fill-rule="evenodd" clip-rule="evenodd" fill="#C79E84" d="M80.775,62.267l4.227-0.731
			c6.153-2.743,6.9-0.943,7.203-0.439c0.436,0.774-0.698,2.262-1.639,2.891c-1.768,1.147-2.981,1.332-5.757,1.184
			c-1.444-0.093-3.13,0.156-5.058,0.747L80.775,62.267z"/>
		<path fill-rule="evenodd" clip-rule="evenodd" fill="#74A7D3" d="M83.004,61.493l1.102,4.338c0,0-21.359,7.443-30.356,3.917
			c-9.493-3.721-11.211-14.515-4.535-20.454s6.15-0.983,6.15-0.983S53.743,64.263,83.004,61.493z"/>
	</g>
	<g id="humaaans_x2F_standing-1_1_">
		<g id="humaaan-11_1_" transform="translate(34.000000, 17.000000)">
			<path id="Hair-Back_3_" fill-rule="evenodd" clip-rule="evenodd" fill="#252728" d="M106.022,12.301l0.711-0.03
				c4.172-0.174,7.675,3.049,7.849,7.221l0.298,7.147c0.16,3.848-2.649,7.172-6.383,7.749c0.001,0.032,0.001,0.032,0.003,0.065
				l-10.154,0.423c-1.683-1.517-0.484-11.609,0.531-16.025C99.343,15.267,102.302,12.423,106.022,12.301z"/>
			
				<g id="Head_x2F_Front_x2F_Airy_7_" transform="translate(132.804269, 62.826718) rotate(-7.000000) translate(-132.804269, -62.826718) translate(61.952002, 8.590719)">
				<g id="Head_36_" transform="translate(56.316359, 32.329762)">
					<path fill-rule="evenodd" clip-rule="evenodd" fill="#805D41" d="M-0.835-5.732l-7.828-0.266l1.635-9.349
						c-2.141,1.181-4.26,1.736-5.222,1.453c-2.42-0.741-2.367-9.673-0.337-13.147s11.789-4.678,12.053,2.322
						c0.106,2.417-1.002,4.574-2.565,6.277L-0.835-5.732z"/>
				</g>
			</g>
			<g id="Bottom_x2F_Standing_x2F_Sweatpants_18_" transform="translate(0.000000, 203.685999)">
				<polygon id="Leg_37_" fill-rule="evenodd" clip-rule="evenodd" fill="#724B35" points="100.007,-136.71 94.368,-64.493 
					100.039,-64.493 105.647,-95.479 117.615,-136.71 				"/>
				<path id="Pant_33_" fill-rule="evenodd" clip-rule="evenodd" fill="#252728" d="M99.945-136.71
					c-4.512,15.007-7.081,36.03-6.485,67.956h8.271c7.676-31.111,13.065-53.763,16.167-67.956H99.945z"/>
				<g id="Accessories_x2F_Shoe_x2F_Flat-Simple_34_" transform="translate(185.635407, 207.536214)">
					<path id="Shoe_38_" fill-rule="evenodd" clip-rule="evenodd" fill="#252728" d="M-84.981-266.19h-6.83h-11.686l-0.439-1.567
						c0-0.031,0-0.031,0-0.063c-0.063-0.345,0.188-0.689,0.533-0.752l0,0c4.637-0.783,8.522-2.287,11.592-4.449
						c2.882,1.003,5.232,1.222,7.143,0.658l0.313,5.232L-84.981-266.19z"/>
				</g>
			</g>
			<g id="Bottom_x2F_Standing_x2F_Sweatpants_17_" transform="translate(0.000000, 203.685999)">
				<polygon id="Leg_36_" fill-rule="evenodd" clip-rule="evenodd" fill="#724B35" points="105.656,-135.96 111.885,-63.791 
					117.48,-64.717 117.953,-96.203 123.028,-138.835 				"/>
				<path id="Pant_32_" fill-rule="evenodd" clip-rule="evenodd" fill="#252728" d="M105.594-135.949
					c-2,15.543-1.102,36.703,4.699,68.103l8.16-1.351c2.493-31.947,4.11-55.175,4.853-69.684L105.594-135.949z"/>
				<g id="Accessories_x2F_Shoe_x2F_Flat-Simple_33_" transform="translate(185.635407, 207.536214)">
					<path id="Shoe_37_" fill-rule="evenodd" clip-rule="evenodd" fill="#252728" d="M-67.003-266.348l-6.83,0.052l-11.686,0.09
						l-0.451-1.563c0-0.031,0-0.031,0-0.063c-0.065-0.344,0.183-0.691,0.527-0.756l0,0c4.631-0.819,8.504-2.352,11.558-4.538
						c2.89,0.98,5.241,1.182,7.148,0.603l0.353,5.23L-67.003-266.348z"/>
				</g>
			</g>
			
				<g id="Body_x2F_Hoodie_7_" transform="translate(155.249818, 192.734499) rotate(-10.000000) translate(-155.249818, -192.734499) translate(21.880847, 95.214000)">
				<path id="Skin_27_" fill-rule="evenodd" clip-rule="evenodd" fill="#805D41" d="M128.63-13.359
					c0.317,1.002,3.269,4.389,5.391,6.407c0.825,0.797,0.321,1.574-0.084,1.731c-3.224,1.328-4.804-1.111-7.155-2.69
					c-2.548-1.737-2.91,1.949-4.95,0.61c0.921-1.408,2.946-3.974,2.498-5.948c-0.213-0.859-1.307-8.36-3.353-22.452l6.751,1.039
					C127.884-21.853,128.187-14.762,128.63-13.359z"/>
				<path id="Shirt_12_" fill-rule="evenodd" clip-rule="evenodd" fill="#EED380" d="M116.399-67.23l-7.294-0.015
					c-2.145,13.522-11.099,22.57-14.494,31.77c-0.313,0.775-0.759,2.386,0.355,2.562c5.26,0.835,13.491,2.141,24.693,3.918
					C120.968-44.839,120.776-56.828,116.399-67.23z"/>
				<path id="Coat-Front_12_" fill-rule="evenodd" clip-rule="evenodd" fill="#809443" d="M128.808-13.68l-5.291-0.84
					c-0.762-1.993-1.518-4.428-2.236-7.302l-19.433-3.083c-1.729-7.697,2.328-21.868,12.174-42.543l2.248,0.23
					c0.191-0.001,0.407,0.033,0.655,0.072c4.425,0.702,7.175-0.638,9.828,0.639c2.647,1.308,3.168,4.024-0.177,8.315
					c-0.76,0.99-1.703,1.538-2.773,1.685C130.189-43.978,131.856-29.692,128.808-13.68z"/>
			</g>
			<path id="Hair-Front_9_" fill-rule="evenodd" clip-rule="evenodd" fill="#252728" d="M108.661,24.338
				c1.067-0.044,1.905-0.922,1.861-1.989c-0.044-1.067-0.953-1.872-2.02-1.827c-0.485,0.02-0.899,0.199-1.211,0.472
				c-2.886-1.629-6.071-1.885-6.996-4.633c1.033-1.63,2.249-3.56,6.291-3.728c2.716-0.113,5.023,1.605,6.918,5.089l0.011,0.259
				c0.303,0.279,0.64,0.589,1.009,0.897c0.381,9.152,5.722,5.171,5.546,14.929l-10.154,0.423c-1.211-1.083-1.568-5.766-1.353-9.921
				C108.595,24.309,108.628,24.307,108.661,24.338z"/>
		</g>
	</g>
	<g>
		<g id="humaaans_x2F_standing-3_6_">
			<g id="humaaan-12_6_" transform="translate(24.000000, 10.000000)">
				
					<g id="Head_x2F_Front_x2F_Pony_7_" transform="translate(192.496667, 70.916479) rotate(15.000000) translate(-192.496667, -70.916479) translate(121.550000, 16.686230)">
					<g id="Head_35_" transform="translate(56.316359, 32.329762)">
						<path fill-rule="evenodd" clip-rule="evenodd" fill="#BF9580" d="M-36.178-6.964l-8.141,3.012l-2.247-10.275
							c-1.7,2.11-3.641,3.568-4.746,3.681c-2.793,0.256-6.454-8.94-5.862-13.343c0.625-4.415,10.129-9.745,13.337-2.676
							c1.123,2.435,0.892,5.112,0.003,7.514L-36.178-6.964z"/>
					</g>
					<path id="Hair_14_" fill-rule="evenodd" clip-rule="evenodd" fill="#252728" d="M5.321,8.493
						c1.572,4.685,1.687,7.305,0.31,7.873c-2.031,0.839-4.31,0.196-5.205,0.566c-0.654,0.27-0.164,1.068,0.534,1.488
						c0.55,0.356,2.511,0.13,2.849,0.949c0.338,0.819-1.303,0.747-1.112,1.209c0.323,0.783,0.685,2.342,1.993,1.802
						c1.342-0.554,4.957-2.63,4.773-4.93c-0.131-1.488-0.987-4.343-2.555-8.53C6.976,8.893,7.08,8.85,7.148,8.822
						c1.136-0.469,2.462,0.109,2.947,1.283c0.25,0.605,0.229,1.239,0.013,1.787c0.776,0.513,1.586,1.012,2.514,1.504
						c1.718-2.376,1.705-7.288-2.228-10.373C8.966,1.32,7.114,0.835,5.256,1.019C3.679,1.003,2.238,1.515,1.215,2.354
						C-1.003,3.52-2.775,5.085-3.203,5.803C-2.262,8.082-1.57,8.588,2.049,7.01C3.116,7.153,4.142,7.688,5.321,8.493z"/>
				</g>
				<g id="Bottom_x2F_Standing_x2F_Sweatpants_16_" transform="translate(0.000000, 211.706546)">
					<polygon id="Leg_35_" fill-rule="evenodd" clip-rule="evenodd" fill="#A58076" points="136.768,-146.357 130.518,-66.327 
						136.768,-66.327 143.017,-100.665 156.281,-146.357 					"/>
					<path id="Leg_34_" fill-rule="evenodd" clip-rule="evenodd" fill="#BF9580" d="M139.198-146.357
						c5.243,22.707,8.854,35.658,10.069,38.852c1.215,3.194,4.896,17.638,15.52,41.907h6.527
						c-8.02-25.311-9.201-39.755-9.409-41.907c-0.208-2.153-0.59-15.103,0.347-38.852H139.198z"/>
					<path id="Pant_31_" fill-rule="evenodd" clip-rule="evenodd" fill="#00466D" d="M136.663-146.357
						c-5,16.631-7.847,39.928-7.187,75.309h9.166c8.507-34.477,14.478-59.58,17.916-75.309H136.663z"/>
					<path id="Pant_30_" fill-rule="evenodd" clip-rule="evenodd" fill="#00466D" d="M137.775-146.357
						c5.208,28.505,12.847,51.803,23.471,75.69h9.756c-7.257-28.54-9.618-51.942-8.715-75.69H137.775z"/>
					<g id="Accessories_x2F_Shoe_x2F_Flat-Simple_32_" transform="translate(87.603226, 207.536214)">
						<path id="Shoe_36_" fill-rule="evenodd" clip-rule="evenodd" fill="#252728" d="M83.884-267.393h-7.534H63.399l-0.486-1.736
							c0-0.035,0-0.035,0-0.069c-0.069-0.382,0.208-0.764,0.59-0.833l0,0c5.139-0.868,9.444-2.535,12.847-4.93
							c3.194,1.111,5.798,1.354,7.916,0.729l0.347,5.798L83.884-267.393z"/>
					</g>
					<g id="Accessories_x2F_Shoe_x2F_Flat-Simple_31_" transform="translate(185.635407, 207.536214)">
						<path id="Shoe_35_" fill-rule="evenodd" clip-rule="evenodd" fill="#252728" d="M-48.186-267.393h-7.534h-12.951l-0.486-1.736
							c0-0.035,0-0.035,0-0.069c-0.069-0.382,0.208-0.764,0.59-0.833l0,0c5.139-0.868,9.444-2.535,12.847-4.93
							c3.194,1.111,5.798,1.354,7.916,0.729l0.347,5.798L-48.186-267.393z"/>
					</g>
				</g>
				
					<g id="Body_x2F_Pointing-Forward_6_" transform="translate(167.500000, 199.713318) rotate(10.000000) translate(-167.500000, -199.713318) translate(33.953333, 102.203160)">
					<path id="Clothes_14_" fill-rule="evenodd" clip-rule="evenodd" fill="#BD4764" d="M75.519-71.46l9.872-1.795
						c1.093-0.199,22.986,34.04,21.333,47.856c-6.357,3.485-24.642,9.844-29.189,3.471C75.349-25.024,76.217-64.318,75.519-71.46z"
						/>
				</g>
			</g>
		</g>
		<path fill-rule="evenodd" clip-rule="evenodd" fill="#BD4764" d="M174.539,43.049c5.931-15.209-34.855,12.055-23.586,17.558
			C162.222,66.11,170.331,53.841,174.539,43.049z"/>
		<path fill-rule="evenodd" clip-rule="evenodd" fill="#BF9580" d="M157.953,36.044c0,0-0.187-4.2,1.027-4.294
			c1.213-0.093,4.294-0.373,3.92,0.56c-0.373,0.933-2.987,6.161-2.987,6.161L157.953,36.044z"/>
		<path fill-rule="evenodd" clip-rule="evenodd" fill="#BD4764" d="M157.797,34.379l3.36,2.443c0,0-4.448,23.347-6.127,23.958
			c-1.68,0.611-6.344-2.602-5.868-4.265C151.555,48.135,157.797,34.379,157.797,34.379z"/>
	</g>
</g>
</svg>
