<?xml version="1.0" encoding="UTF-8"?>
<svg width="246px" height="247px" viewBox="0 0 246 247" version="1.1" xmlns="http://www.w3.org/2000/svg" xmlns:xlink="http://www.w3.org/1999/xlink">
    <!-- Generator: Sketch 63.1 (92452) - https://sketch.com -->
    <title>line circle</title>
    <desc>Created with Sketch.</desc>
    <defs>
        <polygon id="path-1" points="0.000275 0.331045 245.51175 0.331045 245.51175 245.849945 0.000275 245.849945"></polygon>
    </defs>
    <g id="Page-1" stroke="none" stroke-width="1" fill="none" fill-rule="evenodd" opacity="0.298572359">
        <g id="line-circle">
            <g id="Group-3" transform="translate(0.000000, 0.219450)">
                <mask id="mask-2" fill="white">
                    <use xlink:href="#path-1"></use>
                </mask>
                <g id="Clip-2"></g>
                <path d="M14.644025,171.071945 L14.747425,171.283695 C15.286425,172.504145 15.884825,173.787295 16.577825,175.205745 L16.658125,175.352045 C19.103425,180.309745 21.899625,185.098045 25.003275,189.648195 C25.895375,190.948395 26.723125,192.109995 27.531075,193.197345 C30.723825,197.535195 34.256475,201.701995 38.037175,205.591045 C39.088225,206.666295 40.088675,207.656845 41.091875,208.615495 C44.983675,212.331295 49.185125,215.828195 53.579625,219.008295 C54.715375,219.832745 55.922075,220.670945 57.168375,221.499245 C61.819175,224.606195 66.723525,227.400745 71.751625,229.806995 C73.244325,230.523645 74.607225,231.144045 75.920625,231.703945 C81.429425,234.081595 87.157125,236.050595 92.955225,237.557045 C94.698725,238.009145 96.309125,238.389195 97.877725,238.716995 C104.528875,240.146445 111.370875,241.001145 118.224425,241.259645 C119.781475,241.315195 121.308825,241.343795 122.760275,241.343795 C123.249775,241.349295 123.734875,241.346236 124.226575,241.336645 C133.057375,241.231045 141.839225,240.145895 150.332325,238.111995 C153.213775,237.421745 156.055625,236.627545 158.779225,235.750295 L159.124625,235.641395 C195.210125,223.999545 223.648975,195.560145 235.302925,159.463095 L235.302925,159.461995 L235.411825,159.117695 C236.287425,156.397945 237.082725,153.557195 237.772975,150.677395 C239.806875,142.149645 240.892025,133.364495 240.997625,124.568895 C241.005325,124.070595 241.005325,123.581095 241.005325,123.090495 C241.005325,121.648945 240.976725,120.123795 240.920625,118.559045 C240.662675,111.711545 239.808525,104.867895 238.380725,98.220045 C238.051275,96.645395 237.672325,95.041045 237.219125,93.303045 C235.721475,87.509895 233.754125,81.781645 231.369875,76.270645 C230.753325,74.823595 230.117525,73.424945 229.474025,72.102195 C227.053475,67.037245 224.260025,62.133995 221.165175,57.514545 C220.370425,56.307845 219.537725,55.103345 218.679175,53.919745 C215.498525,49.514245 212.000525,45.314995 208.279775,41.433645 C207.414075,40.514045 206.455425,39.543295 205.248725,38.364095 C201.362975,34.578445 197.200575,31.043045 192.881425,27.858545 C191.689025,26.980745 190.492775,26.135395 189.326225,25.348345 C184.815675,22.257345 180.029575,19.458395 175.086725,17.021895 L174.911825,16.927295 C174.883775,16.913545 174.857375,16.900345 174.833175,16.887695 C173.608875,16.283245 172.303175,15.674945 170.951825,15.077645 L170.653725,14.934645 C165.315425,12.566895 159.725225,10.573695 154.106975,9.040295 C152.487225,8.590945 150.857025,8.180645 149.253225,7.817095 C142.722525,6.317245 135.969075,5.372895 129.173275,5.006595 C127.082725,4.899895 125.143975,4.844895 123.253075,4.837195 L122.760275,4.837195 C114.306775,4.837195 105.879675,5.733145 97.712725,7.500845 C95.029825,8.071195 92.293025,8.764745 89.570525,9.562245 C51.213525,20.755295 20.430575,51.534945 9.232575,89.890845 C8.460925,92.522595 7.767925,95.263245 7.170075,98.040745 C5.402375,106.208795 4.506425,114.636445 4.506425,123.090495 L4.506425,123.593195 C4.514125,125.474745 4.569675,127.412945 4.676375,129.510645 C5.039375,136.254195 5.984825,143.008745 7.485775,149.580145 C7.903775,151.386345 8.303625,152.974195 8.707325,154.427845 C10.262175,160.098895 12.255925,165.690195 14.635225,171.052695 L14.644025,171.071945 Z M122.760275,245.849945 C121.255475,245.849945 119.674225,245.820795 118.059425,245.763045 C110.940225,245.494095 103.836975,244.606945 96.942725,243.125795 C95.315275,242.785345 93.637225,242.389895 91.822225,241.919095 C85.800825,240.354345 79.853675,238.310545 74.144125,235.845445 C72.777375,235.263545 71.354525,234.615095 69.802975,233.870945 C64.585675,231.372845 59.492675,228.471595 54.669175,225.249695 C53.376125,224.388395 52.117725,223.516095 50.934675,222.657545 C46.377925,219.359195 42.018625,215.731395 37.979425,211.873695 C36.938825,210.879845 35.902075,209.853545 34.810875,208.737045 C30.882225,204.696745 27.215375,200.370995 23.907675,195.876395 C23.072225,194.753295 22.211475,193.544395 21.283625,192.191945 C18.058425,187.463045 15.154425,182.491595 12.649725,177.410145 L12.565575,177.255045 C11.820325,175.732645 11.204325,174.414295 10.647175,173.154795 L10.322675,172.441445 C7.937325,167.007445 5.933125,161.353445 4.362875,155.626845 C3.943775,154.116545 3.527975,152.465995 3.094025,150.589945 C1.534775,143.763345 0.553575,136.752495 0.176275,129.746045 C0.065175,127.571345 0.007425,125.563845 0.000275,123.601445 L0.000275,123.090495 C0.000275,114.316345 0.930325,105.568045 2.765125,97.089795 C3.384975,94.208345 4.106025,91.359345 4.907375,88.625845 C10.650475,68.953995 21.389775,50.852945 35.962025,36.282895 C50.533175,21.712845 68.633675,10.977945 88.305525,5.237045 C91.134175,4.408195 93.981525,3.687145 96.767275,3.094245 C105.238925,1.261095 113.987225,0.331045 122.760275,0.331045 L123.261875,0.331045 C125.233625,0.338195 127.241125,0.395945 129.409225,0.507045 C136.468475,0.886545 143.479875,1.867745 150.255325,3.423695 C151.922375,3.800995 153.622425,4.229445 155.302675,4.695295 C161.129925,6.285895 166.935725,8.356095 172.550125,10.847045 L172.844925,10.988395 C174.194625,11.583495 175.570175,12.225345 176.861025,12.863345 L176.958925,12.914495 C177.022175,12.944745 177.089825,12.980495 177.159675,13.019545 C182.266425,15.541845 187.211475,18.435395 191.860075,21.621545 C193.065125,22.434995 194.312525,23.316095 195.554975,24.231295 C200.040225,27.537345 204.359925,31.206945 208.395825,35.138345 C209.651475,36.365395 210.651925,37.379045 211.547325,38.329995 C215.397325,42.346095 219.030625,46.708145 222.330075,51.278095 C223.225475,52.512295 224.097775,53.772895 224.919475,55.021395 C228.124325,59.805295 231.026125,64.898845 233.533025,70.145295 C234.202375,71.520845 234.870075,72.988795 235.510825,74.492495 C237.982525,80.205345 240.026875,86.156895 241.581175,92.170045 C242.051425,93.975695 242.446875,95.650445 242.788975,97.285595 C244.269025,104.175995 245.156175,111.281995 245.424025,118.393495 C245.482325,120.015995 245.512025,121.595045 245.512025,123.090495 C245.512025,123.605295 245.512025,124.118445 245.503775,124.631045 C245.394325,133.752245 244.268475,142.870695 242.155925,151.725695 C241.462375,154.617045 240.668725,157.468245 239.794225,160.207245 L239.702375,160.500945 C227.638125,198.254595 197.903475,227.989245 160.163025,240.041395 L159.821475,240.148645 C157.092925,241.017095 154.255475,241.806345 151.382275,242.494395 C142.563025,244.606395 133.446775,245.732795 124.285425,245.842795 C123.777225,245.849945 123.272325,245.849945 122.760275,245.849945 L122.760275,245.849945 Z" id="Fill-1" fill="#62B5E5" mask="url(#mask-2)"></path>
            </g>
            <path d="M175.8636,15.10267 L14.553,176.41382 C13.9095,175.09547 13.28195,173.76282 12.68575,172.41367 C12.6467,172.33502 12.61535,172.27232 12.5763,172.19367 L12.5763,172.18542 L171.63575,13.12597 L171.8629,13.23597 C173.21205,13.83162 174.5458,14.45147 175.8636,15.10267" id="Fill-4" fill="#62B5E5"></path>
            <path d="M194.218255,26.264865 L25.722455,194.760665 C24.835855,193.568265 23.981155,192.360465 23.141855,191.136715 L190.586605,23.699665 C191.818055,24.531265 193.026405,25.385965 194.218255,26.264865" id="Fill-6" fill="#62B5E5"></path>
            <path d="M209.906125,40.093845 L39.535375,210.464595 C38.476625,209.452595 37.441525,208.425195 36.421825,207.381295 L206.823925,36.971495 L209.906125,40.093845 Z" id="Fill-8" fill="#62B5E5"></path>
            <path d="M223.0371,56.479445 L55.9218,223.595295 C54.6821,222.771395 53.4589,221.924395 52.2588,221.053745 L220.50325,52.816445 C221.37445,54.016545 222.22145,55.240295 223.0371,56.479445" id="Fill-10" fill="#62B5E5"></path>
            <path d="M4.96749,97.78582 L97.23604,5.51727 C94.43544,6.11347 91.66674,6.81967 88.93709,7.61992 L7.06959,89.47917 L4.96749,97.78582 Z" id="Fill-12" fill="#62B5E5"></path>
            <path d="M129.294055,2.97638 L2.426105,129.84433 C2.324355,127.84398 2.261105,125.83593 2.253405,123.81193 L123.262205,2.80368 C125.285655,2.81138 127.293705,2.87408 129.294055,2.97638" id="Fill-14" fill="#62B5E5"></path>
            <path d="M154.7007,7.08631 L6.5362,155.25081 C6.08135,153.61126 5.6738,151.96401 5.2888,150.30136 L149.7507,5.83891 C151.4139,6.21566 153.06115,6.63146 154.7007,7.08631" id="Fill-16" fill="#62B5E5"></path>
            <path d="M14.67037,176.63349 L176.08327,15.22059 C176.01287,15.17384 175.93422,15.14249 175.86382,15.10289 C174.54602,14.45169 173.21227,13.83184 171.86312,13.23619 L12.68597,172.41334 C13.28217,173.76249 13.90972,175.09569 14.55267,176.41404 L14.67037,176.63349 Z" id="Fill-18" fill="#62B5E5"></path>
            <path d="M233.43793,75.59519 L75.03738,233.99574 C73.60188,233.38469 72.18233,232.73349 70.77818,232.05864 L231.50083,71.33654 C232.18283,72.74014 232.82633,74.16024 233.43793,75.59519" id="Fill-20" fill="#62B5E5"></path>
            <path d="M240.583915,97.96633 L97.416165,241.14178 C95.729865,240.78923 94.051265,240.38883 92.388065,239.95763 L239.399215,92.95418 C239.830965,94.60913 240.230815,96.28003 240.583915,97.96633" id="Fill-22" fill="#62B5E5"></path>
            <path d="M243.25873,123.31033 C243.25873,123.81193 243.25873,124.31408 243.25103,124.81568 L124.25798,243.80873 C123.75638,243.81698 123.26193,243.81698 122.76033,243.81698 C121.21483,243.81698 119.66933,243.78563 118.13978,243.73008 L243.17238,118.69748 C243.22738,120.22758 243.25873,121.76483 243.25873,123.31033" id="Fill-24" fill="#62B5E5"></path>
            <path d="M239.96412,151.422645 C239.26617,154.332695 238.46592,157.204245 237.55622,160.027945 L237.55622,160.035645 L159.47767,238.114195 L159.46942,238.114195 C156.64572,239.023895 153.77472,239.823595 150.85697,240.522095 L239.96412,151.422645 Z" id="Fill-26" fill="#62B5E5"></path>
        </g>
    </g>
</svg>