<?xml version="1.0" encoding="utf-8"?>
<!-- Generator: Adobe Illustrator 24.1.3, SVG Export Plug-In . SVG Version: 6.00 Build 0)  -->
<svg version="1.1" id="Layer_1" xmlns="http://www.w3.org/2000/svg" xmlns:xlink="http://www.w3.org/1999/xlink" x="0px" y="0px"
	 viewBox="0 0 424.545 361.53" enable-background="new 0 0 424.545 361.53" xml:space="preserve">
<g>
	<path fill="#25374A" d="M155.457,0c-17.466,0-33.492,7.983-46.277,23.169c-3.061,3.661-5.582,7.263-7.623,10.504
		C92.554,20.167,74.667,0,48.258,0C21.668,0,0,21.668,0,48.258s21.668,48.258,48.258,48.258c17.466,0,33.492-7.983,46.277-23.169
		c3.061-3.661,5.582-7.263,7.623-10.504c9.003,13.505,26.83,33.672,53.3,33.672c26.59,0,48.258-21.668,48.258-48.258
		S182.047,0,155.457,0z M48.258,82.891c-19.087,0-34.633-15.546-34.633-34.633s15.546-34.633,34.633-34.633
		c24.969,0,41.175,25.569,46.097,34.453l-0.12,0.36l0.18,0.36C89.973,57.681,75.148,82.891,48.258,82.891z M155.457,82.891
		c-24.969,0-41.175-25.569-46.097-34.453l0.12-0.36l-0.18-0.36c4.382-8.883,19.207-34.093,46.097-34.093
		c19.087,0,34.633,15.546,34.633,34.633C190.09,67.345,174.544,82.891,155.457,82.891z"/>
	<g>
		<rect x="202.618" y="51.788" fill="#4B4F54" width="73.287" height="16.612"/>
		<path fill="#4B4F54" d="M202.618,51.787v61.561h-16.612V68.399C186.006,59.224,193.444,51.787,202.618,51.787L202.618,51.787z"/>
		<path fill="#4B4F54" d="M292.516,68.399v44.949h-16.612V51.787l0,0C285.079,51.787,292.516,59.224,292.516,68.399z"/>
		<path fill="#629FCF" d="M84.837,153.655v-56.83c0-7.874,6.383-14.258,14.258-14.258h277.822c7.874,0,14.258,6.384,14.258,14.258
			v52.433"/>
		<rect x="84.837" y="118.111" fill="#4A8081" width="306.338" height="69.256"/>
		<path fill="#FFFFFF" d="M259.194,132.158h-42.376c-2.869,0-5.195-2.326-5.195-5.195V110.97c0-2.869,2.326-5.195,5.195-5.195
			h42.376c2.869,0,5.195,2.326,5.195,5.195v15.993C264.389,129.832,262.063,132.158,259.194,132.158z"/>
		<circle fill="#4A8080" cx="241.255" cy="208.825" r="8.267"/>
		<g>
			<path fill="#B1B1B1" d="M386.359,123.843c12.758-12.758,17.002-30.802,12.742-47.082c-0.416-1.588-2.418-2.115-3.579-0.954
				l-26.506,26.506c-3.683,3.683-9.654,3.683-13.337,0l-17.065-17.065c-3.683-3.683-3.683-9.654,0-13.337l26.507-26.507
				c1.159-1.159,0.637-3.16-0.949-3.575c-16.782-4.394-35.439,0.249-48.25,13.94c-13.185,14.092-16.344,34.261-9.737,51.314
				l-107.155,91.45c-13.649,11.648-14.47,32.458-1.782,45.146c12.688,12.688,33.498,11.867,45.146-1.782l91.399-107.095
				C351.378,141.705,372.148,138.055,386.359,123.843z"/>
		</g>
		<path fill="#629FCF" d="M391.175,187.367v102.268c0,7.874-6.384,14.258-14.258,14.258H99.095c-7.874,0-14.258-6.384-14.258-14.258
			V187.367"/>
	</g>
	<g>
		<g>
			<g>
				<path fill="#25374A" d="M409.693,206.986l-0.503-0.252l-2.014-5.035l0.252-0.503c6.294-14.349,6.041-14.853,4.783-15.86
					l-8.559-8.308c-0.252-0.252-1.007-0.503-1.511-0.503c-0.504,0-2.014,0-14.349,5.79l-0.503,0.252L382,180.553l-0.252-0.503
					c-5.79-14.602-6.546-14.602-8.056-14.602h-11.833c-1.511,0-2.014,0-7.552,14.602l-0.252,0.503l-5.035,2.014l-0.503-0.252
					c-8.559-3.524-13.343-5.287-14.853-5.287c-0.503,0-1.259,0.252-1.511,0.503l-8.559,8.308c-1.007,1.007-1.511,1.511,5.287,15.608
					l0.252,0.503l-2.014,5.035l-0.503,0.252c-15.105,5.79-15.105,6.294-15.105,7.805v11.832c0,1.511,0,2.014,15.105,7.552
					l0.503,0.252l2.014,5.035l-0.252,0.503c-6.294,14.349-6.042,14.853-4.783,15.86l8.559,8.308
					c0.252,0.252,1.007,0.503,1.511,0.503c0.503,0,2.014,0,14.349-5.79l0.503-0.252l5.287,2.014l0.252,0.503
					c5.79,14.602,6.546,14.602,8.056,14.602h11.832c1.511,0,2.014,0,7.552-14.602l0.252-0.503l5.035-2.014l0.503,0.252
					c8.559,3.524,13.343,5.287,14.602,5.287c0.503,0,1.259-0.252,1.511-0.503l8.559-8.308c1.007-1.007,1.511-1.511-5.287-15.608
					v-0.755l2.014-5.035h0.503c14.853-5.79,14.853-6.294,14.853-7.805v-11.832C424.545,213.029,424.545,212.273,409.693,206.986z
					 M368.153,239.714c-10.825,0-19.384-8.559-19.384-19.133c0-10.573,8.811-19.133,19.384-19.133
					c10.825,0,19.384,8.559,19.384,19.133S378.727,239.714,368.153,239.714z"/>
			</g>
		</g>
	</g>
	<g>
		<polygon id="Fill-10_15_" fill-rule="evenodd" clip-rule="evenodd" fill="#FFFFFF" points="170.068,361.53 283.637,303.705 
			170.068,247.961 		"/>
		<polygon id="Fill-10_13_" fill-rule="evenodd" clip-rule="evenodd" fill="#ABB0B2" fill-opacity="0.2" points="170.068,361.53 
			283.637,303.705 170.068,247.961 		"/>
		<polygon id="Fill-10_12_" fill-rule="evenodd" clip-rule="evenodd" fill="#FFCA7F" points="56.383,361.53 170.068,303.705 
			56.383,247.961 		"/>
	</g>
	<polygon fill="#809443" points="52.124,119.526 59.724,117.226 57.524,124.926 59.724,132.526 52.124,130.326 44.524,132.526 
		46.724,124.926 44.524,117.226 	"/>
	<polygon fill="#FFCA7F" points="237.654,10.179 250.854,6.279 247.054,19.479 250.854,32.679 237.654,28.779 224.454,32.679 
		228.354,19.479 224.454,6.279 	"/>
</g>
</svg>
