<?xml version="1.0" encoding="utf-8"?>
<!-- Generator: Adobe Illustrator 24.1.3, SVG Export Plug-In . SVG Version: 6.00 Build 0)  -->
<svg version="1.1" id="Layer_1" xmlns="http://www.w3.org/2000/svg" xmlns:xlink="http://www.w3.org/1999/xlink" x="0px" y="0px"
	 viewBox="0 0 510.956 346.723" enable-background="new 0 0 510.956 346.723" xml:space="preserve">
<g>
	<g>
		<polygon fill="#002F49" points="123.083,100.479 148.051,109.455 133.838,148.88 95.948,175.1 		"/>
	</g>
	<path fill="#629FCF" d="M491.227,223.994c0-35.175-28.492-63.667-63.667-63.667c-4.221,0-8.266,0.528-12.311,1.055
		c1.055-4.221,1.759-8.97,1.759-13.542c0-29.371-23.743-53.115-53.115-53.115c-13.191,0-24.974,4.749-34.296,12.487
		c-12.311-41.331-50.476-71.581-96.028-71.581c-55.401,0-100.601,45.024-100.601,100.601c0,4.221,0.176,8.442,0.879,12.663
		c-34.648,4.045-61.557,33.592-61.557,69.119c0,38.517,31.13,69.823,69.823,69.823h297.054
		C468.187,281.681,491.227,254.772,491.227,223.994z"/>
	<g>
		<polygon id="Fill-10_55_" fill-rule="evenodd" clip-rule="evenodd" fill="#FFCA7F" points="81.551,325.883 154.754,288.612 
			81.551,252.68 		"/>
		<polygon id="Fill-10_54_" fill-rule="evenodd" clip-rule="evenodd" fill="#FFFFFF" points="155.169,325.883 228.373,288.612 
			155.169,252.68 		"/>
		<polygon id="Fill-10_53_" fill-rule="evenodd" clip-rule="evenodd" fill="#E1E1E1" points="155.169,325.883 228.373,288.612 
			155.169,252.68 		"/>
	</g>
	<g>
		<rect x="214.671" y="110.71" fill="#FFFFFF" width="244.231" height="142.86"/>
		<rect x="214.671" y="90.78" fill="#002F49" width="244.231" height="19.93"/>
		<g>
			<rect x="385.391" y="125.216" fill="#E1C1CA" width="47.927" height="47.927"/>
			<rect x="385.391" y="125.216" fill="#C33963" width="47.927" height="7.503"/>
			<rect x="385.391" y="185.675" fill="#CADAE4" width="47.927" height="47.927"/>
			<rect x="385.391" y="185.675" fill="#629FCF" width="47.927" height="7.503"/>
			<g>
				<rect x="240.255" y="185.675" fill="#809443" width="47.927" height="47.927"/>
				
					<rect x="288.16" y="185.675" transform="matrix(-1 -1.224647e-16 1.224647e-16 -1 657.7206 419.277)" fill="#B7C79E" width="81.402" height="47.927"/>
				<g>
					<rect x="300.301" y="193.02" fill="#809443" width="57.119" height="4.967"/>
					<rect x="300.301" y="202.464" fill="#809443" width="41.607" height="4.967"/>
					<rect x="300.301" y="221.351" fill="#809443" width="41.607" height="4.967"/>
					<rect x="300.301" y="211.908" fill="#809443" width="48.584" height="4.967"/>
				</g>
				<path fill="#FFFFFF" d="M274.255,200.727c-3.244,0-6.218,1.487-8.606,4.311c-0.571,0.676-1.036,1.352-1.412,1.953
					c-1.667-2.508-5.002-6.263-9.898-6.263c-4.942,0-8.967,4.025-8.967,8.967c0,4.942,4.025,8.967,8.967,8.967
					c3.244,0,6.218-1.487,8.606-4.311c0.571-0.676,1.036-1.352,1.412-1.953c1.667,2.508,4.987,6.263,9.898,6.263
					c4.942,0,8.967-4.025,8.967-8.967C283.221,204.753,279.196,200.727,274.255,200.727z M254.338,216.123
					c-3.545,0-6.429-2.884-6.429-6.429c0-3.545,2.884-6.429,6.429-6.429c4.641,0,7.645,4.746,8.561,6.398l-0.015,0.06l0.03,0.06
					C262.088,211.437,259.34,216.123,254.338,216.123z M274.255,216.123c-4.641,0-7.645-4.746-8.561-6.399l0.015-0.06l-0.03-0.06
					c0.811-1.652,3.575-6.338,8.561-6.338c3.545,0,6.429,2.884,6.429,6.429C280.698,213.239,277.799,216.123,274.255,216.123z"/>
			</g>
			<g>
				<rect x="240.255" y="125.216" fill="#FFCA7F" width="47.927" height="47.927"/>
				
					<rect x="288.16" y="125.216" transform="matrix(-1 -1.224647e-16 1.224647e-16 -1 657.7206 298.3581)" fill="#FFDDB6" width="81.402" height="47.927"/>
				<g>
					<rect x="300.301" y="132.561" fill="#FFCA7F" width="57.119" height="4.967"/>
					<rect x="300.301" y="142.004" fill="#FFCA7F" width="41.607" height="4.967"/>
					<rect x="300.301" y="160.892" fill="#FFCA7F" width="41.607" height="4.967"/>
					<rect x="300.301" y="151.448" fill="#FFCA7F" width="48.584" height="4.967"/>
				</g>
				<g>
					<g>
						<g>
							<path fill="#FFFFFF" d="M273.337,146.257l-0.113-0.056l-0.478-1.097l0.056-0.112c1.434-3.206,1.322-3.318,1.097-3.543
								l-1.884-1.856c-0.056-0.056-0.197-0.141-0.337-0.141c-0.112,0-0.422,0-3.234,1.265l-0.112,0.056l-1.153-0.478l-0.056-0.112
								c-1.322-3.262-1.434-3.262-1.772-3.262h-2.672c-0.309,0-0.478,0-1.687,3.262l-0.056,0.112l-1.153,0.478l-0.112-0.056
								c-1.884-0.787-3.009-1.209-3.262-1.209c-0.112,0-0.253,0.056-0.337,0.141l-1.884,1.856c-0.253,0.225-0.337,0.337,1.153,3.487
								l0.056,0.112l-0.478,1.097l-0.112,0.056c-3.318,1.294-3.318,1.434-3.318,1.744v2.615c0,0.337,0,0.478,3.346,1.659
								l0.112,0.056l0.478,1.097l-0.056,0.112c-1.434,3.234-1.322,3.29-1.097,3.543l1.884,1.856
								c0.084,0.056,0.225,0.141,0.337,0.141s0.422,0,3.234-1.265l0.112-0.056l1.153,0.478l0.056,0.112
								c1.322,3.262,1.434,3.262,1.772,3.262h2.672c0.337,0,0.478,0,1.687-3.262l0.056-0.112l1.153-0.478l0.112,0.056
								c1.884,0.787,3.009,1.209,3.262,1.209c0.112,0,0.253-0.056,0.337-0.141l1.884-1.856c0.253-0.253,0.337-0.337-1.153-3.487
								l-0.056-0.112l0.478-1.097l0.112-0.056c3.346-1.294,3.346-1.434,3.346-1.772v-2.615
								C276.684,147.579,276.684,147.439,273.337,146.257z M264.085,153.513c-2.39,0-4.331-1.884-4.331-4.246
								c0-2.334,1.94-4.246,4.331-4.246s4.331,1.884,4.331,4.246S266.503,153.513,264.085,153.513z"/>
						</g>
					</g>
				</g>
			</g>
		</g>
	</g>
	<g>
		<g>
			<path fill="#002F49" d="M49.467,43.19c-0.04-0.014-0.078-0.035-0.118-0.05c-9.267-3.331-19.478,1.48-22.809,10.746
				s1.48,19.478,10.746,22.809c0.04,0.014,0.082,0.023,0.124,0.037L49.467,43.19z"/>
		</g>
		<g>
			<polygon fill="#C33963" points="117.644,115.631 21.255,117.095 62.711,1.782 136.104,64.283 			"/>
		</g>
		<g>
			<path fill="#002F49" d="M117.644,115.631l26.914,9.676c14.179,5.097,29.806-2.265,34.905-16.444l0,0
				c5.097-14.179-2.265-29.806-16.444-34.905l-26.914-9.676L117.644,115.631z"/>
		</g>
		<g>
			<g>
				
					<rect x="-2.67" y="30.155" transform="matrix(0.3383 -0.941 0.941 0.3383 -41.5817 29.9037)" fill="#002F49" width="6.287" height="28.731"/>
			</g>
			<g>
				
					<rect x="15.19" y="7.011" transform="matrix(0.9046 -0.4262 0.4262 0.9046 -7.3626 9.8523)" fill="#002F49" width="6.286" height="28.731"/>
			</g>
			<g>
				
					<rect x="-14.847" y="70.585" transform="matrix(0.9047 -0.4261 0.4261 0.9047 -31.4607 6.8232)" fill="#002F49" width="28.734" height="6.287"/>
			</g>
		</g>
	</g>
	<g>
		<polygon fill="#002F49" points="123.083,100.479 148.051,109.455 133.838,148.88 114.383,136.811 		"/>
	</g>
</g>
</svg>
