<?xml version="1.0" encoding="utf-8"?>
<!-- Generator: Adobe Illustrator 24.1.3, SVG Export Plug-In . SVG Version: 6.00 Build 0)  -->
<svg version="1.1" id="Layer_1" xmlns="http://www.w3.org/2000/svg" xmlns:xlink="http://www.w3.org/1999/xlink" x="0px" y="0px"
	 viewBox="0 0 404.406 338.4" enable-background="new 0 0 404.406 338.4" xml:space="preserve">
<g>
	<g>
		<g>
			<ellipse fill="#629FCF" cx="202.103" cy="169.2" rx="169.2" ry="169.2"/>
		</g>
	</g>
	<g>
		<path fill="#C7C7C7" d="M251.946,206.027v26.351c7.294,0,13.881,4.47,16.705,11.293v0.235c2.823,6.823,1.412,14.823-3.764,19.999
			l18.587,18.587c5.176-5.176,13.176-6.588,19.999-3.764h0.235c6.823,2.823,11.293,9.411,11.293,16.705h26.351
			c0-7.294,4.47-13.881,11.293-16.705h0.235c6.823-2.823,14.823-1.412,19.999,3.764l18.587-18.587
			c-5.176-5.176-6.588-13.176-3.764-19.999v-0.235c2.823-6.823,9.411-11.293,16.705-11.293v-26.351
			c-7.294,0-13.882-4.47-16.705-11.293v-0.235c-2.823-6.823-1.412-14.823,3.764-19.999l-18.587-18.587
			c-5.176,5.176-13.176,6.588-19.999,3.764h-0.235c-6.823-2.823-11.293-9.411-11.293-16.705h-26.351
			c0,7.294-4.47,13.881-11.293,16.705h-0.235c-6.823,2.823-14.823,1.412-19.999-3.764L264.886,174.5
			c5.176,5.176,6.588,13.176,3.764,19.999v0.235C265.827,201.322,259.24,206.027,251.946,206.027z M295.943,219.203
			c0-17.881,14.587-32.233,32.233-32.233s32.233,14.587,32.233,32.233s-14.587,32.233-32.233,32.233
			S295.943,236.849,295.943,219.203z"/>
	</g>
	<path fill="#25374A" d="M109.853,25.557c-12.342,0-23.667,5.641-32.701,16.372c-2.163,2.587-3.945,5.132-5.387,7.422
		c-6.362-9.543-19.002-23.794-37.664-23.794C15.311,25.557,0,40.868,0,59.658s15.311,34.101,34.101,34.101
		c12.343,0,23.667-5.641,32.701-16.372c2.163-2.587,3.945-5.132,5.387-7.422c6.362,9.543,18.959,23.794,37.664,23.794
		c18.789,0,34.101-15.311,34.101-34.101S128.642,25.557,109.853,25.557z M34.101,84.13c-13.488,0-24.473-10.985-24.473-24.473
		s10.985-24.473,24.473-24.473c17.644,0,29.096,18.068,32.574,24.346l-0.085,0.254l0.127,0.254
		C63.579,66.317,53.102,84.13,34.101,84.13z M109.853,84.13c-17.644,0-29.096-18.068-32.574-24.346l0.085-0.254l-0.127-0.254
		c3.096-6.277,13.573-24.091,32.574-24.091c13.488,0,24.473,10.985,24.473,24.473C134.325,73.145,123.34,84.13,109.853,84.13z"/>
	<g>
		<g>
			<g>
				<path fill="#FFFFFF" d="M279.225,312.843H124.981c-11.34,0-20.544-9.204-20.544-20.544V16.435
					C104.437,7.396,111.833,0,120.872,0h162.462c9.039,0,16.435,7.396,16.435,16.435v275.782
					C299.769,303.64,290.565,312.843,279.225,312.843z"/>
			</g>
		</g>
		<path fill="#002F49" d="M283.333,338.4H120.872c-9.039,0-16.435-7.396-16.435-16.435V145.78h195.332v176.103
			C299.769,331.004,292.373,338.4,283.333,338.4z"/>
		<g>
			
				<line fill="none" stroke="#FFFFFF" stroke-width="0.9423" stroke-miterlimit="10" x1="126.953" y1="189.744" x2="272.322" y2="189.744"/>
			<g>
				<text transform="matrix(1 0 0 1 127.4409 182.8256)" fill="#FFFFFF" font-family="'SFUIText-Heavy'" font-size="11.2716px">S</text>
				<text transform="matrix(1 0 0 1 149.3531 182.8256)" fill="#FFFFFF" font-family="'SFUIText-Heavy'" font-size="11.2716px">M</text>
				<text transform="matrix(1 0 0 1 174.5708 182.8256)" fill="#FFFFFF" font-family="'SFUIText-Heavy'" font-size="11.2716px">T</text>
				<text transform="matrix(1 0 0 1 196.2906 182.8256)" fill="#FFFFFF" font-family="'SFUIText-Heavy'" font-size="11.2716px">W</text>
				<text transform="matrix(1 0 0 1 222.0396 182.8256)" fill="#FFFFFF" font-family="'SFUIText-Heavy'" font-size="11.2716px">T</text>
				<text transform="matrix(1 0 0 1 246.1197 182.8256)" fill="#FFFFFF" font-family="'SFUIText-Heavy'" font-size="11.2716px">F</text>
				<text transform="matrix(1 0 0 1 268.9341 182.8256)" fill="#FFFFFF" font-family="'SFUIText-Heavy'" font-size="11.2716px">S</text>
			</g>
			<g>
				<text transform="matrix(1 0 0 1 127.4409 208.2094)" fill="#FFFFFF" font-family="'SFUIText-Light'" font-size="9.3929px">1</text>
				<text transform="matrix(1 0 0 1 151.8335 208.2094)" fill="#FFFFFF" font-family="'SFUIText-Light'" font-size="9.3929px">2</text>
				<text transform="matrix(1 0 0 1 175.479 208.2094)" fill="#FFFFFF" font-family="'SFUIText-Light'" font-size="9.3929px">3</text>
				<text transform="matrix(1 0 0 1 199.0982 208.2094)" fill="#FFFFFF" font-family="'SFUIText-Light'" font-size="9.3929px">4</text>
				<text transform="matrix(1 0 0 1 222.9546 208.2094)" fill="#FFFFFF" font-family="'SFUIText-Light'" font-size="9.3929px">5</text>
				<text transform="matrix(1 0 0 1 246.6197 208.2094)" fill="#FFFFFF" font-family="'SFUIText-Light'" font-size="9.3929px">6</text>
				<text transform="matrix(1 0 0 1 271.4351 208.2094)" fill="#FFFFFF" font-family="'SFUIText-Light'" font-size="9.3929px">7</text>
			</g>
			<g>
				<text transform="matrix(1 0 0 1 127.4409 229.3969)" fill="#FFFFFF" font-family="'SFUIText-Light'" font-size="9.3929px">8</text>
				<text transform="matrix(1 0 0 1 151.687 229.3969)" fill="#FFFFFF" font-family="'SFUIText-Light'" font-size="9.3929px">9</text>
				<text transform="matrix(1 0 0 1 173.3482 229.3969)" fill="#FFFFFF" font-family="'SFUIText-Light'" font-size="9.3929px">10</text>
				<text transform="matrix(1 0 0 1 197.9165 229.3969)" fill="#FFFFFF" font-family="'SFUIText-Light'" font-size="9.3929px">11</text>
				<text transform="matrix(1 0 0 1 220.937 229.3969)" fill="#FFFFFF" font-family="'SFUIText-Light'" font-size="9.3929px">12</text>
				<text transform="matrix(1 0 0 1 244.5757 229.3969)" fill="#FFFFFF" font-family="'SFUIText-Light'" font-size="9.3929px">13</text>
				<text transform="matrix(1 0 0 1 266.5542 229.3969)" fill="#FFFFFF" font-family="'SFUIText-Light'" font-size="9.3929px">14</text>
			</g>
			<g>
				<text transform="matrix(1 0 0 1 127.4409 250.5922)" fill="#FFFFFF" font-family="'SFUIText-Light'" font-size="9.3929px">15</text>
				<text transform="matrix(1 0 0 1 149.5884 250.5922)" fill="#FFFFFF" font-family="'SFUIText-Light'" font-size="9.3929px">16</text>
				<text transform="matrix(1 0 0 1 173.6206 250.5922)" fill="#FFFFFF" font-family="'SFUIText-Light'" font-size="9.3929px">17</text>
				<text transform="matrix(1 0 0 1 197.0367 250.5922)" fill="#FFFFFF" font-family="'SFUIText-Light'" font-size="9.3929px">18</text>
				<text transform="matrix(1 0 0 1 220.7886 250.5922)" fill="#FFFFFF" font-family="'SFUIText-Light'" font-size="9.3929px">19</text>
				<text transform="matrix(1 0 0 1 243.8286 250.5922)" fill="#FFFFFF" font-family="'SFUIText-Light'" font-size="9.3929px">20</text>
				<text transform="matrix(1 0 0 1 266.9644 250.5922)" fill="#FFFFFF" font-family="'SFUIText-Light'" font-size="9.3929px">21</text>
			</g>
			<g>
				<text transform="matrix(1 0 0 1 127.4409 271.7866)" fill="#FFFFFF" font-family="'SFUIText-Light'" font-size="9.3929px">22</text>
				<text transform="matrix(1 0 0 1 148.937 271.7866)" fill="#FFFFFF" font-family="'SFUIText-Light'" font-size="9.3929px">23</text>
				<text transform="matrix(1 0 0 1 172.5611 271.7866)" fill="#FFFFFF" font-family="'SFUIText-Light'" font-size="9.3929px">24</text>
				<text transform="matrix(1 0 0 1 196.4165 271.7866)" fill="#FFFFFF" font-family="'SFUIText-Light'" font-size="9.3929px">25</text>
				<text transform="matrix(1 0 0 1 220.0777 271.7866)" fill="#FFFFFF" font-family="'SFUIText-Light'" font-size="9.3929px">26</text>
				<text transform="matrix(1 0 0 1 244.1001 271.7866)" fill="#FFFFFF" font-family="'SFUIText-Light'" font-size="9.3929px">27</text>
				<text transform="matrix(1 0 0 1 265.2271 271.7866)" fill="#FFFFFF" font-family="'SFUIText-Light'" font-size="9.3929px">28</text>
			</g>
			<g>
				<text transform="matrix(1 0 0 1 127.4409 292.978)" fill="#FFFFFF" font-family="'SFUIText-Light'" font-size="9.3929px">29</text>
				<text transform="matrix(1 0 0 1 148.8208 292.978)" fill="#FFFFFF" font-family="'SFUIText-Light'" font-size="9.3929px">30</text>
				<text transform="matrix(1 0 0 1 173.3892 292.978)" fill="#FFFFFF" font-family="'SFUIText-Light'" font-size="9.3929px">31</text>
			</g>
		</g>
		<g>
			<g>
				<path fill="#002F49" d="M179.628,46.594c8.957,0,15.613,5.67,15.613,13.477c0,5.013-2.465,9.122-10.354,17.175l-10.519,10.683
					v0.575h21.612v6.574h-31.884v-5.341l16.024-16.682c6.328-6.574,7.889-9.122,7.889-12.573c0-4.355-3.698-7.56-8.628-7.56
					c-5.177,0-8.711,3.451-8.711,8.464v0.082h-6.985v-0.082C163.768,52.675,170.342,46.594,179.628,46.594z"/>
				<path fill="#002F49" d="M204.856,82.34c0-5.999,3.944-10.847,10.025-12.08v-0.493c-4.931-1.233-8.135-5.341-8.135-10.436
					c0-7.478,6.574-12.737,15.86-12.737c9.286,0,15.86,5.259,15.86,12.737c0,5.095-3.123,9.122-8.135,10.436v0.575
					c6.081,1.15,10.108,5.917,10.108,12.08c0,8.218-7.314,13.806-17.832,13.806C212.087,96.228,204.856,90.558,204.856,82.34z
					 M232.96,81.765c0-4.931-4.191-8.382-10.272-8.382s-10.272,3.451-10.272,8.382c0,4.931,4.191,8.3,10.272,8.3
					S232.96,86.695,232.96,81.765z M231.316,60.071c0-4.437-3.451-7.478-8.628-7.478s-8.628,3.041-8.628,7.478
					c0,4.355,3.451,7.314,8.628,7.314C227.783,67.384,231.316,64.426,231.316,60.071z"/>
			</g>
			<rect x="163.768" y="115.621" fill="#002F49" width="76.752" height="8.382"/>
			<g>
				<polygon fill="#629FCF" points="269.857,127.208 269.857,112.499 277.253,119.812 				"/>
				<polygon fill="#629FCF" points="134.349,112.499 134.349,127.208 126.953,119.812 				"/>
			</g>
		</g>
	</g>
	<polygon fill="#809443" points="363.552,66.964 371.151,64.664 368.951,72.364 371.151,79.964 363.552,77.764 355.951,79.964 
		358.151,72.364 355.951,64.664 	"/>
	<polygon fill="#FFCA7F" points="327.078,98.801 340.278,94.901 336.478,108.101 340.278,121.301 327.078,117.401 313.878,121.301 
		317.778,108.101 313.878,94.901 	"/>
	<polygon fill="#809443" points="71.977,101.169 79.577,98.869 77.377,106.569 79.577,114.169 71.977,111.969 64.377,114.169 
		66.577,106.569 64.377,98.869 	"/>
	<polygon fill="#FFCA7F" points="37.721,126.754 50.921,122.854 47.121,136.054 50.921,149.254 37.721,145.354 24.521,149.254 
		28.421,136.054 24.521,122.854 	"/>
</g>
</svg>
