<?xml version="1.0" encoding="utf-8"?>
<!-- Generator: Adobe Illustrator 24.1.3, SVG Export Plug-In . SVG Version: 6.00 Build 0)  -->
<svg version="1.1" id="Layer_1" xmlns="http://www.w3.org/2000/svg" xmlns:xlink="http://www.w3.org/1999/xlink" x="0px" y="0px"
	 viewBox="0 0 415.867 272.167" enable-background="new 0 0 415.867 272.167" xml:space="preserve">
<g>
	<g>
		<rect x="172.237" y="28.64" fill-rule="evenodd" clip-rule="evenodd" fill="#93C5E1" width="243.63" height="183.013"/>
	</g>
	<rect x="195.519" y="50.447" fill="#FFFFFF" width="196.53" height="139.4"/>
	<g id="Head_x2F_Front_x2F_Long_2_" transform="translate(82.000000, 0.000000)">
		<path id="Hair-Back_2_" fill-rule="evenodd" clip-rule="evenodd" fill="#252728" d="M207.412,15.793h2.1c12.4,0,22.4,10,22.4,22.4
			v21.7c0,11.6-8.7,21.1-19.9,22.3c0,0.1,0,0.1,0,0.2h-30.2c-4.8-4.6-0.1-34.4,3.5-47.6
			C186.912,23.993,196.212,15.793,207.412,15.793z"/>
		<g id="Head_5_" transform="translate(54.000000, 31.000000)">
			<path fill-rule="evenodd" clip-rule="evenodd" fill="#CFA68C" d="M174.912,65.093h-25l4.2-30c-6.8,4-13.4,6-16.5,5.2
				c-7.8-2-8.5-30.5-2.5-41.8s37-16.2,38.6,6.1c0.5,7.8-2.7,14.7-7.5,20.3L174.912,65.093z"/>
		</g>
		<path id="Hair-Front_2_" fill-rule="evenodd" clip-rule="evenodd" fill="#252728" d="M213.712,51.993c3.1,0,5.7-2.6,5.7-5.7
			s-2.5-5.7-5.7-5.7c-1.4,0-2.6,0.5-3.6,1.3c-8.4-5.1-17.8-6.4-20.2-14.7c3.2-4.8,7-10.4,19.1-10.4c8,0,14.7,5.4,19.9,16.1v0.8
			c0.9,0.8,1.9,1.8,2.9,2.8c0,27.5,16.2,16.2,14.5,45.5h-30.2c-3.4-3.4-3.9-17.5-2.7-29.9
			C213.512,52.093,213.612,52.093,213.712,51.993z"/>
	</g>
	<path fill-rule="evenodd" clip-rule="evenodd" fill="#629FCF" d="M376.612,189.793c-14.2-48.7-37.5-87.6-69.8-116.8h-1.8l0,0
		l-27.1,6.2c0,46.5-14.8,76.4-22.4,110.6H376.612z"/>
	<g>
		<g>
			<rect x="139.048" fill="#809443" width="110.881" height="75.1"/>
			<polygon fill="#809443" points="232.452,75.1 208.885,75.1 232.452,94.33 			"/>
		</g>
		<g>
			<circle fill="#FFFFFF" cx="168.982" cy="37.62" r="7.682"/>
			<circle fill="#FFFFFF" cx="194.489" cy="37.62" r="7.682"/>
			<circle fill="#FFFFFF" cx="219.995" cy="37.62" r="7.682"/>
		</g>
	</g>
	<path id="Shade_8_" fill-rule="evenodd" clip-rule="evenodd" fill="#4A8098" d="M328.712,189.793h-14.9c4.1-15.3,5.2-37.4,3.3-66.4
		C323.012,144.293,326.612,166.393,328.712,189.793z"/>
	<g>
		<path fill="#245D80" d="M198.52,272.148h-26.181v-5.508l9.402-9.504c2.783-2.852,4.602-4.829,5.456-5.93
			c0.854-1.102,1.469-2.122,1.845-3.061c0.375-0.939,0.564-1.913,0.564-2.921c0-1.503-0.414-2.621-1.242-3.356
			c-0.829-0.734-1.934-1.102-3.318-1.102c-1.452,0-2.861,0.333-4.227,0.999c-1.367,0.666-2.792,1.614-4.278,2.844l-4.304-5.098
			c1.845-1.571,3.373-2.681,4.585-3.33c1.213-0.649,2.536-1.148,3.971-1.499c1.435-0.35,3.04-0.525,4.816-0.525
			c2.34,0,4.406,0.427,6.199,1.281c1.793,0.854,3.185,2.05,4.176,3.586c0.99,1.537,1.486,3.296,1.486,5.277
			c0,1.725-0.303,3.343-0.909,4.855c-0.607,1.511-1.546,3.061-2.818,4.65c-1.273,1.588-3.514,3.852-6.725,6.789l-4.816,4.534v0.359
			h16.318V272.148z"/>
		<path fill="#245D80" d="M229.313,264.386h-4.509v7.762h-7.736v-7.762h-15.985v-5.508l16.421-24.183h7.3v23.542h4.509V264.386z
			 M217.068,258.238v-6.353c0-1.059,0.042-2.596,0.128-4.611c0.085-2.015,0.154-3.185,0.205-3.51h-0.205
			c-0.633,1.401-1.392,2.767-2.281,4.099l-6.865,10.375H217.068z"/>
		<path fill="#245D80" d="M240.098,257.521l-9.222-14.013h8.864l5.559,9.12l5.61-9.12h8.863l-9.325,14.013l9.76,14.628h-8.889
			l-6.02-9.812l-6.046,9.812h-8.864L240.098,257.521z"/>
		<path fill="#245D80" d="M266.279,272.148l14.064-30.741h-18.47v-6.66h26.872v4.97l-14.166,32.432H266.279z"/>
	</g>
	<path fill-rule="evenodd" clip-rule="evenodd" fill="#CFA68C" d="M214.267,116.019c-2.144-9.234-2.596-12.1-14.786-11.897
		c-12.189,0.203-21.857-1.282-10.683,7.251s20.153,2.027,23.404,10.153C215.452,129.652,214.267,116.019,214.267,116.019z"/>
	<path fill-rule="evenodd" clip-rule="evenodd" fill="#629FCF" d="M277.872,79.296c0,0-34.406,29.677-40.326,31.847
		c-5.92,2.17-23.54-8.386-23.54-8.386l-8.252,21.676c0,0,30.001,20.81,54.644,12.773S277.872,79.296,277.872,79.296z"/>
	<g>
		<rect x="0" y="99.146" fill-rule="evenodd" clip-rule="evenodd" fill="#CB6180" width="150.929" height="112.507"/>
	</g>
	<g>
		<rect x="14.353" y="114.382" fill="#FFFFFF" width="122.075" height="75.316"/>
		<g id="Head_x2F_Front_x2F_Short-Beard_2_" transform="translate(82.000000, 0.000000)">
			<g id="Head_3_" transform="translate(54.000000, 31.000000)">
				<path fill-rule="evenodd" clip-rule="evenodd" fill="#CFA68C" d="M-72.817,113.716h16.868l-2.811-20.272
					c4.439,2.811,9.026,4.143,11.098,3.551c5.179-1.332,5.771-20.716,1.628-28.262c-4.143-7.694-25.155-10.95-26.191,4.143
					c-0.444,5.327,1.776,9.914,5.031,13.761L-72.817,113.716z"/>
			</g>
			<path id="Hair_2_" fill-rule="evenodd" clip-rule="evenodd" fill="#252728" d="M0.271,100.325
				c7.546,0.148,8.434-1.184,8.434-5.771c-1.184-0.888-5.475-2.368-10.358-2.811c-2.515-0.74-5.475-0.592-8.286,0.592
				c-3.403,1.036-6.363,3.107-7.694,7.103c-4.735,8.138-1.184,16.573,3.699,19.532c1.332-1.628,2.367-2.959,3.403-4.439
				c-0.888-0.74-1.332-1.924-1.332-3.107c0-2.368,1.924-4.291,4.291-4.291c0.148,0,0.296,0,0.444,0
				c0.296,8.434,0.888,13.909,1.776,16.573c1.332,4.143,9.322,5.179,12.133,5.179c2.663,0,2.22-2.959,2.22-4.587
				c0-1.036-2.811,0.296-2.811-1.332c0-1.628,3.699-2.663,4.439-3.699c0.888-1.184,1.184-2.959-0.148-2.959
				c-1.924,0-5.475,2.663-9.766,2.663c-2.811,0-4.587-4.587-5.179-13.761C-2.836,102.989-1.505,101.213,0.271,100.325z"/>
		</g>
		<path fill-rule="evenodd" clip-rule="evenodd" fill="#809443" d="M119.559,189.847c-14.797-19.532-24.119-43.355-40.692-57.708
			l-6.067,1.036c-0.592,17.756,2.811,39.656,13.909,56.672H119.559z"/>
		<path fill-rule="evenodd" clip-rule="evenodd" fill="#CFD5DB" d="M47.942,189.699l49.422,0.148
			c-6.215-16.721-15.833-35.365-15.833-58.152l-15.537-2.368c-10.358,16.425-15.241,35.957-18.052,60.519V189.699z"/>
		<path fill-rule="evenodd" clip-rule="evenodd" fill="#809443" d="M84.638,189.847c-1.924-15.981-6.363-35.957-13.465-60.076
			l-4.883-0.296c-0.444-0.148-0.888-0.148-1.48-0.148c-9.618,0-15.093-3.847-21.16-1.924c-6.215,1.924-8.138,7.546-2.515,17.756
			c1.332,2.368,3.107,3.995,5.327,4.587c-8.73,11.986-15.241,25.451-19.384,40.1H84.638z"/>
	</g>
	<g>
		<circle fill="#629FCF" cx="77.981" cy="35.19" r="27.836"/>
		<g>
			<path fill="#245D80" d="M69.314,45.722V42.06c0-2.782,0.568-5.132,1.704-7.048c1.135-1.917,3.152-3.783,6.047-5.6
				c2.3-1.448,3.953-2.754,4.961-3.918c1.007-1.164,1.512-2.498,1.512-4.003c0-1.193-0.54-2.136-1.618-2.832
				c-1.079-0.695-2.485-1.044-4.216-1.044c-4.287,0-9.299,1.519-15.033,4.557l-5.92-11.584C63.82,6.556,71.202,4.54,78.896,4.54
				c6.331,0,11.3,1.391,14.906,4.174c3.605,2.783,5.409,6.573,5.409,11.371c0,3.436-0.803,6.409-2.406,8.922
				c-1.604,2.513-4.167,4.891-7.687,7.134c-2.981,1.931-4.848,3.343-5.6,4.238c-0.753,0.894-1.129,1.952-1.129,3.173v2.172
				L69.314,45.722L69.314,45.722z M67.483,60.628c0-2.612,0.759-4.628,2.278-6.047c1.519-1.42,3.754-2.129,6.708-2.129
				c2.839,0,5.018,0.717,6.537,2.151c1.519,1.434,2.278,3.443,2.278,6.026c0,2.584-0.788,4.586-2.364,6.005
				c-1.576,1.419-3.726,2.129-6.452,2.129c-2.811,0-5.011-0.703-6.601-2.108C68.277,65.249,67.483,63.241,67.483,60.628z"/>
		</g>
	</g>
	<g>
		<polygon id="Fill-10_6_" fill-rule="evenodd" clip-rule="evenodd" fill="#FFCA7F" points="75.964,272.167 113.446,253.074 
			75.964,234.648 		"/>
		<polygon id="Fill-10_5_" fill-rule="evenodd" clip-rule="evenodd" fill="#8BBDD9" points="113.446,272.167 150.929,253.074 
			113.446,234.648 		"/>
	</g>
</g>
</svg>
