<?xml version="1.0" encoding="utf-8"?>
<!-- Generator: Adobe Illustrator 24.0.0, SVG Export Plug-In . SVG Version: 6.00 Build 0)  -->
<svg version="1.1" id="Layer_1" xmlns="http://www.w3.org/2000/svg" xmlns:xlink="http://www.w3.org/1999/xlink" x="0px" y="0px"
	 viewBox="0 0 238.6 238.6" style="enable-background:new 0 0 238.6 238.6;" xml:space="preserve">
<style type="text/css">
	.st0{fill:#FFFFFF;}
	.st1{opacity:0.5;clip-path:url(#SVGID_2_);fill:#C4C4C4;enable-background:new    ;}
	.st2{opacity:0.25;clip-path:url(#SVGID_4_);}
	.st3{fill:none;stroke:#FFFFFF;stroke-width:175.8062;stroke-miterlimit:10;stroke-dasharray:25.5444,25.5444;}
	.st4{fill:#D93963;}
</style>
<g>
	<circle class="st0" cx="119.3" cy="119.3" r="119.3"/>
	<g>
		<g>
			<g>
				<g>
					<g>
						<defs>
							<circle id="SVGID_1_" cx="119.3" cy="119.3" r="119.3"/>
						</defs>
						<clipPath id="SVGID_2_">
							<use xlink:href="#SVGID_1_"  style="overflow:visible;"/>
						</clipPath>
						<circle class="st1" cx="119.3" cy="119.3" r="119.3"/>
					</g>
				</g>
				<g>
					<g>
						<defs>
							<circle id="SVGID_3_" cx="119.3" cy="119.3" r="119.3"/>
						</defs>
						<clipPath id="SVGID_4_">
							<use xlink:href="#SVGID_3_"  style="overflow:visible;"/>
						</clipPath>
						<g class="st2">
							<circle class="st3" cx="119.3" cy="119.3" r="81.3"/>
						</g>
					</g>
				</g>
			</g>
		</g>
		<g>
			<g>
				<path class="st0" d="M225.6,133.7c0-17.3-14-31.3-31.3-31.3c-2,0-4,0.2-6,0.6c0.6-2.1,0.9-4.4,0.9-6.7
					c0-14.5-11.7-26.2-26.2-26.2c-6.4,0-12.3,2.3-16.8,6.1c-6.1-20.4-25-35.3-47.4-35.3c-27.3,0-49.4,22.1-49.4,49.4
					c0,2.1,0.1,4.2,0.4,6.2c-17.1,2-30.3,16.5-30.3,34.1c0,19,15.4,34.3,34.3,34.3h146.1C214.1,162,225.6,148.7,225.6,133.7z"/>
			</g>
		</g>
		<g>
			<g>
				<g>
					<path class="st4" d="M160.3,129.8l-0.5-0.2l-2.1-4.9l0.2-0.5c6.3-14.2,5.8-14.7,4.8-15.7l-8.4-8.2c-0.3-0.3-0.9-0.6-1.5-0.6
						c-0.5,0-1.9,0-14.3,5.6l-0.5,0.2l-5.1-2.1l-0.2-0.5c-5.8-14.4-6.4-14.4-7.9-14.4H113c-1.4,0-2.1,0-7.5,14.4l-0.2,0.5l-5.1,2.1
						l-0.5-0.2c-8.4-3.5-13.3-5.3-14.5-5.3c-0.5,0-1.1,0.2-1.5,0.6l-8.4,8.2c-1.1,1-1.5,1.5,5.1,15.4l0.2,0.5l-2.1,4.9l-0.5,0.2
						c-14.7,5.7-14.7,6.3-14.7,7.7v11.6c0,1.5,0,2.1,14.8,7.4l0.5,0.2l2.1,4.9l-0.2,0.5c-6.3,14.3-5.9,14.6-4.8,15.7l8.4,8.2
						c0.4,0.3,1,0.6,1.5,0.6s1.9,0,14.3-5.6l0.5-0.2l5.1,2.1l0.2,0.5c5.8,14.4,6.4,14.4,7.9,14.4h11.8c1.5,0,2.1,0,7.5-14.4l0.2-0.5
						l5.1-2.1l0.5,0.2c8.4,3.5,13.3,5.3,14.5,5.3c0.5,0,1.1-0.2,1.5-0.6l8.4-8.2c1.1-1.1,1.5-1.5-5.1-15.4l-0.2-0.5l2.1-4.9l0.5-0.2
						c14.8-5.7,14.8-6.3,14.8-7.8v-11.6C175.1,135.7,175.1,135.1,160.3,129.8z M119.3,162c-10.6,0-19.2-8.4-19.2-18.8
						c0-10.4,8.6-18.8,19.2-18.8s19.2,8.4,19.2,18.8S129.9,162,119.3,162z"/>
				</g>
			</g>
		</g>
	</g>
</g>
</svg>
