<?xml version="1.0" encoding="utf-8"?>
<!-- Generator: Adobe Illustrator 24.1.0, SVG Export Plug-In . SVG Version: 6.00 Build 0)  -->
<svg version="1.1" id="Layer_1" xmlns="http://www.w3.org/2000/svg" xmlns:xlink="http://www.w3.org/1999/xlink" x="0px" y="0px"
	 viewBox="0 0 560.7 216" style="enable-background:new 0 0 560.7 216;" xml:space="preserve">
<style type="text/css">
	.st0{fill:#63B3E3;}
</style>
<path class="st0" d="M150.8,108.2c0,14.3-10.2,25.9-25,25.9c-14.7,0-25.2-11.9-25.2-26.2v-0.2c0-14.3,10.2-25.9,25-25.9
	c14.7,0,25.2,11.9,25.2,26.2V108.2z M169.9,108v-0.2c0-23.7-18.4-42.8-44.1-42.8c-17.4,0-31.6,8.9-38.9,22c1.4,1.2,2.7,2.4,4,3.8
	l2.3,2.5l-2.3,2.5l-9.3,10c0,0.7-0.1,1.4-0.1,2.1v0.2c0,10.1,3.4,19.4,9.3,26.8H62.3v-0.1c-10.2,0-16.8-8.1-16.8-18.3v-0.2
	c0-9.7,6.7-18,16-18c6.7,0,10.9,2.8,15,7.3l11.5-12.3c-6.2-6.9-13.9-11.1-26.4-11.1C41.5,82.2,27,97.8,27,116.6v0.2
	c0,18.4,13.9,33.4,33.1,34.1v0.1h67.1l0,0C152.1,150.2,169.9,131.1,169.9,108 M210.8,108.6v-0.2c0-9.7,6.9-17.6,16.4-17.6
	c5.6,0,10.1,2.4,14.4,6.4l7.9-9.1c-5.2-5.2-11.6-8.7-22.3-8.7c-17.4,0-29.5,13.2-29.5,29.2v0.2c0,16.2,12.4,29.1,29,29.1
	c10.9,0,17.4-3.9,23.2-10.1l-7.9-8c-4.4,4-8.4,6.6-14.9,6.6C217.5,126.4,210.8,118.3,210.8,108.6 M252.7,136.9H265V77.9h-12.3V136.9
	z M302.7,115.5c0,6.4-4.2,11.8-11.2,11.8c-6.8,0-11.4-5.6-11.4-12v-0.2c0-6.4,4.2-11.8,11.2-11.8c6.8,0,11.4,5.6,11.4,11.9V115.5z
	 M314.8,115.3v-0.2c0-12.4-9.9-22.4-23.3-22.4c-13.5,0-23.5,10.1-23.5,22.5v0.2c0,12.4,9.9,22.4,23.3,22.4
	C304.8,137.8,314.8,127.8,314.8,115.3 M344.2,136.9h12.3V93.6h-12.3v24.1c0,5.8-3,8.8-7.7,8.8c-4.7,0-7.4-3-7.4-8.8V93.6h-12.3v28
	c0,9.9,5.4,16.1,14.7,16.1c6.2,0,9.8-3.3,12.7-6.9V136.9z M392.4,115.3c0,7.2-4.8,12-10.5,12c-5.7,0-10.6-4.8-10.6-12v-0.2
	c0-7.3,4.8-12,10.6-12c5.7,0,10.5,4.8,10.5,12V115.3z M392.3,136.9h12.3V77.9h-12.3v21.3c-2.9-3.5-6.9-6.5-13.5-6.5
	c-10.2,0-19.7,7.9-19.7,22.4v0.2c0,14.5,9.6,22.4,19.7,22.4c6.4,0,10.5-3,13.5-7V136.9z M458.1,136.9V97.6l-15.9,24.1h-0.3
	l-15.7-23.9v39.1h-12.3V77.9h13.4l14.9,23.9l14.9-23.9h13.4v58.9H458.1z M523,131.9c-1.6,1.2-3.3,2.3-5.1,3.2
	c-1.9,0.9-3.9,1.6-6.1,2c-2.2,0.5-4.7,0.7-7.4,0.7c-4.1,0-8-0.8-11.5-2.3c-3.6-1.5-6.6-3.6-9.2-6.2c-2.6-2.6-4.6-5.7-6.1-9.2
	c-1.5-3.6-2.2-7.3-2.2-11.4v-0.2c0-4,0.7-7.8,2.2-11.3c1.5-3.5,3.5-6.6,6.1-9.3c2.6-2.7,5.7-4.8,9.3-6.3c3.6-1.5,7.6-2.3,11.9-2.3
	c2.6,0,5,0.2,7.2,0.6c2.2,0.4,4.2,1,5.9,1.8c1.8,0.8,3.4,1.7,4.9,2.7c1.5,1.1,2.9,2.3,4.2,3.6l-7.9,9.1c-2.2-2-4.5-3.6-6.7-4.7
	c-2.3-1.1-4.9-1.7-7.7-1.7c-2.4,0-4.6,0.5-6.6,1.4c-2,0.9-3.8,2.2-5.2,3.8c-1.5,1.6-2.6,3.5-3.4,5.6c-0.8,2.1-1.2,4.4-1.2,6.8v0.2
	c0,2.4,0.4,4.7,1.2,6.9c0.8,2.2,1.9,4,3.4,5.7c1.4,1.6,3.1,2.9,5.2,3.8c2,0.9,4.2,1.4,6.7,1.4c3.2,0,6-0.6,8.2-1.8
	c2.2-1.2,4.5-2.8,6.7-4.8l7.9,8C526.1,129.3,524.6,130.7,523,131.9z"/>
</svg>
