<?xml version="1.0" encoding="utf-8"?>
<!-- Generator: Adobe Illustrator 24.1.0, SVG Export Plug-In . SVG Version: 6.00 Build 0)  -->
<svg version="1.1" id="Layer_1" xmlns="http://www.w3.org/2000/svg" xmlns:xlink="http://www.w3.org/1999/xlink" x="0px" y="0px"
	 viewBox="0 0 359.172 250" enable-background="new 0 0 359.172 250" xml:space="preserve">
<g>
	<g>
		<rect fill="#E6E8E9" width="359.172" height="215.503"/>
		<rect fill="#62B5E5" width="359.172" height="47.769"/>
		<circle fill="#D93963" cx="25.649" cy="22.571" r="9.29"/>
		<circle fill="#FFE07F" cx="52.803" cy="22.571" r="9.29"/>
		<circle fill="#81AA43" cx="79.958" cy="22.571" r="9.29"/>
	</g>
	<g>
		<g>
			<g>
				<path fill="#4B4F54" d="M101.217,164.824v16.407c0,2.095,0,2.793,20.596,10.822h0.698l2.793,6.982l0,1.047
					c-9.425,19.549-8.727,20.247-7.331,21.643l11.869,11.52c0.349,0.349,1.396,0.698,2.095,0.698c1.745,0,8.378-2.444,20.247-7.331
					l0.698-0.349l6.982,2.793l0.349,0.698C167.892,250,168.59,250,170.684,250h16.407c2.094,0,3.142,0,11.171-20.247l0.349-0.698
					l7.331-2.793l0.698,0.349c17.105,8.029,19.2,8.029,19.898,8.029s1.745-0.349,2.094-0.698l11.869-11.52
					c1.745-1.396,2.094-2.095-6.633-21.992l-0.349-0.698l2.793-6.982l0.698-0.349c20.945-7.68,20.945-8.378,20.945-10.473v-16.407
					c0-2.094,0-2.793-20.945-10.822l-0.698-0.349l-2.793-6.982l0.349-0.698c9.425-19.549,8.727-20.247,7.331-21.643l-11.869-11.52
					c-0.349-0.349-1.396-0.698-2.095-0.698c-2.094,0-8.727,2.444-20.596,7.331l-0.698,0.349l-6.982-2.793l-0.349-0.698
					c-7.68-20.247-8.378-20.247-10.473-20.247h-16.407c-2.095,0-3.142,0-11.171,20.247l-0.349,0.698l-7.331,2.793l-0.698-0.349
					c-17.105-8.029-19.2-8.029-19.898-8.029s-1.745,0.349-2.094,0.698l-11.869,11.52c-1.745,1.396-2.095,2.095,6.633,21.992
					l0.349,0.698l-2.793,6.982l-0.698,0.349C101.217,161.682,101.217,162.729,101.217,164.824z M152.532,173.202
					c0-14.662,11.869-26.53,26.879-26.53c14.662,0,26.879,11.869,26.879,26.53c0,14.662-11.869,26.53-26.879,26.53
					C164.75,199.732,152.532,187.863,152.532,173.202z"/>
			</g>
		</g>
	</g>
</g>
</svg>
