<?xml version="1.0" encoding="utf-8"?>
<!-- Generator: Adobe Illustrator 24.1.0, SVG Export Plug-In . SVG Version: 6.00 Build 0)  -->
<svg version="1.1" id="Layer_1" xmlns="http://www.w3.org/2000/svg" xmlns:xlink="http://www.w3.org/1999/xlink" x="0px" y="0px"
	 viewBox="0 0 303.402 350" enable-background="new 0 0 303.402 350" xml:space="preserve">
<g>
	<circle fill="#C0E1F5" cx="151.701" cy="167.04" r="151.701"/>
	<g>
		<path fill="#4B4F54" d="M104.47,224.436v-19.96c0-15.162,3.093-27.967,9.284-38.411c6.187-10.445,17.175-20.617,32.957-30.521
			c12.533-7.891,21.545-15.007,27.039-21.353c5.49-6.343,8.239-13.614,8.239-21.817c0-6.499-2.941-11.641-8.82-15.435
			c-5.882-3.79-13.541-5.687-22.978-5.687c-23.365,0-50.676,8.279-81.929,24.835l-32.262-63.13C74.529,10.988,114.758,0,156.691,0
			c34.503,0,61.582,7.583,81.234,22.745c19.648,15.166,29.476,35.823,29.476,61.97c0,18.723-4.374,34.93-13.114,48.624
			c-8.744,13.694-22.709,26.655-41.893,38.876c-16.247,10.524-26.422,18.22-30.52,23.094c-4.102,4.874-6.151,10.64-6.151,17.291
			v11.837H104.47z M94.489,305.67c0-14.234,4.138-25.219,12.417-32.957c8.276-7.736,20.461-11.605,36.556-11.605
			c15.47,0,27.347,3.909,35.626,11.721c8.276,7.815,12.417,18.763,12.417,32.842c0,14.082-4.293,24.99-12.881,32.725
			C170.037,346.13,158.316,350,143.462,350c-15.318,0-27.311-3.829-35.975-11.489C98.819,330.852,94.489,319.907,94.489,305.67z"/>
	</g>
</g>
<g>
</g>
</svg>
