<?xml version="1.0" encoding="utf-8"?>
<!-- Generator: Adobe Illustrator 24.1.2, SVG Export Plug-In . SVG Version: 6.00 Build 0)  -->
<svg version="1.1" id="Layer_1" xmlns="http://www.w3.org/2000/svg" xmlns:xlink="http://www.w3.org/1999/xlink" x="0px" y="0px"
	 viewBox="0 0 164.602 164.602" enable-background="new 0 0 164.602 164.602" xml:space="preserve">
<g>
	<g>
		<circle fill="#C94764" cx="82.301" cy="82.301" r="82.301"/>
	</g>
	<g>
		<g>
			<g>
				<path fill="#FFFFFF" d="M107.598,73.971l-0.306-0.153l-1.223-3.057l0.153-0.306c3.821-8.712,3.668-9.018,2.904-9.63
					l-5.197-5.044c-0.153-0.153-0.611-0.306-0.917-0.306c-0.306,0-1.223,0-8.712,3.516l-0.306,0.153l-3.21-1.223l-0.153-0.306
					c-3.516-8.865-3.974-8.865-4.891-8.865h-7.184c-0.917,0-1.223,0-4.585,8.865l-0.153,0.306l-3.057,1.223l-0.306-0.153
					c-5.197-2.14-8.101-3.21-9.018-3.21c-0.306,0-0.764,0.153-0.917,0.306l-5.197,5.044c-0.611,0.611-0.917,0.917,3.21,9.476
					l0.153,0.306l-1.223,3.057l-0.306,0.153c-9.171,3.516-9.171,3.821-9.171,4.739v7.184c0,0.917,0,1.223,9.171,4.585l0.306,0.153
					l1.223,3.057l-0.153,0.306c-3.821,8.712-3.668,9.018-2.904,9.63l5.197,5.044c0.153,0.153,0.611,0.306,0.917,0.306
					c0.306,0,1.223,0,8.712-3.516l0.306-0.153l3.21,1.223l0.153,0.306c3.516,8.865,3.974,8.865,4.891,8.865h7.184
					c0.917,0,1.223,0,4.585-8.865l0.153-0.306l3.057-1.223l0.306,0.153c5.197,2.14,8.101,3.21,8.865,3.21
					c0.306,0,0.764-0.153,0.917-0.306l5.197-5.044c0.611-0.611,0.917-0.917-3.21-9.476v-0.459l1.223-3.057h0.306
					c9.018-3.516,9.018-3.821,9.018-4.739v-7.184C116.615,77.64,116.615,77.181,107.598,73.971z M82.377,93.841
					c-6.573,0-11.769-5.197-11.769-11.617c0-6.419,5.35-11.617,11.769-11.617c6.573,0,11.769,5.197,11.769,11.617
					S88.797,93.841,82.377,93.841z"/>
			</g>
		</g>
	</g>
	<g>
		<g>
			<g>
				<path fill="#FBE08D" d="M131.2,116.053c-0.87,0-1.751-0.227-2.553-0.705c-2.373-1.412-3.152-4.481-1.739-6.854
					c12.345-20.742,9.03-47.165-8.062-64.257C102.197,27.59,76.249,24,55.744,35.507c-2.409,1.35-5.456,0.494-6.807-1.914
					c-1.351-2.408-0.495-5.456,1.914-6.807c24.395-13.689,55.263-9.421,75.065,10.381c20.331,20.331,24.272,51.765,9.585,76.442
					C134.566,115.18,132.904,116.053,131.2,116.053z"/>
			</g>
			<g>
				<g>
					<polygon fill="#FBE08D" points="124.708,102.574 122.381,122.381 140.698,114.495 					"/>
				</g>
			</g>
		</g>
		<g>
			<g>
				<path fill="#FBE08D" d="M83.176,145.783c-16.293,0-32.439-6.297-44.489-18.347c-20.331-20.331-24.272-51.766-9.585-76.442
					c1.413-2.373,4.482-3.153,6.854-1.739c2.373,1.412,3.152,4.481,1.739,6.854c-12.345,20.741-9.03,47.165,8.062,64.257
					c16.648,16.648,42.595,20.238,63.101,8.731c2.408-1.352,5.456-0.495,6.807,1.914c1.351,2.408,0.495,5.456-1.914,6.807
					C104.201,143.176,93.658,145.783,83.176,145.783z"/>
			</g>
			<g>
				<g>
					<polygon fill="#FBE08D" points="39.895,62.029 42.222,42.222 23.904,50.108 					"/>
				</g>
			</g>
		</g>
	</g>
</g>
</svg>
