<?xml version="1.0" encoding="utf-8"?>
<!-- Generator: Adobe Illustrator 24.1.2, SVG Export Plug-In . SVG Version: 6.00 Build 0)  -->
<svg version="1.1" id="Layer_1" xmlns="http://www.w3.org/2000/svg" xmlns:xlink="http://www.w3.org/1999/xlink" x="0px" y="0px"
	 viewBox="0 0 164.602 164.602" enable-background="new 0 0 164.602 164.602" xml:space="preserve">
<g>
	<g>
		<g>
			<circle fill="#005D91" cx="82.301" cy="82.301" r="82.301"/>
		</g>
	</g>
	<g>
		<g>
			<g>
				<path fill="#B0DAF2" d="M120.602,60.622c-0.529,0-1.067-0.085-1.597-0.263L61.159,40.872c-2.617-0.881-4.024-3.718-3.142-6.334
					s3.718-4.023,6.334-3.142l57.846,19.486c2.617,0.881,4.024,3.718,3.142,6.334C124.637,59.304,122.689,60.622,120.602,60.622z"/>
			</g>
			<g>
				<g>
					<polygon fill="#B0DAF2" points="68.177,25.141 60.421,48.167 52.789,32.777 					"/>
				</g>
			</g>
		</g>
		<g>
			<path fill="#B0DAF2" d="M132.582,106.75c-0.359,0-0.722-0.039-1.087-0.12L30.943,84.337c-2.696-0.598-4.397-3.268-3.799-5.964
				c0.598-2.696,3.269-4.397,5.964-3.799L133.66,96.868c2.696,0.598,4.397,3.268,3.799,5.964
				C136.942,105.163,134.875,106.75,132.582,106.75z"/>
		</g>
		<g>
			<path fill="#B0DAF2" d="M98.478,133.547c-0.194,0-0.39-0.011-0.587-0.034l-53.377-6.246c-2.743-0.321-4.706-2.805-4.385-5.547
				c0.321-2.743,2.809-4.704,5.547-4.385l53.377,6.246c2.743,0.321,4.706,2.805,4.385,5.547
				C103.14,131.673,100.98,133.547,98.478,133.547z"/>
		</g>
		<g>
			<g>
				<path fill="#62B5E5" d="M32.022,84.457c-2.206,0-4.225-1.471-4.825-3.702c-0.718-2.667,0.862-5.41,3.529-6.127l88.577-23.835
					c2.666-0.718,5.41,0.862,6.127,3.529c0.718,2.667-0.862,5.41-3.529,6.127L33.324,84.284
					C32.889,84.401,32.452,84.457,32.022,84.457z"/>
			</g>
		</g>
	</g>
	<g>
		<g>
			<circle fill="#FADF8C" cx="82.301" cy="81.909" r="34.221"/>
			<circle fill="none" stroke="#FFFFFF" stroke-width="1.1307" stroke-miterlimit="10" cx="82.301" cy="81.909" r="27.271"/>
			<g>
				<path fill="#4B4F54" d="M83.917,94.091v3.811h-2.79v-3.777c-3.335-0.204-6.567-1.292-8.337-2.824l1.532-3.436
					c1.667,1.361,4.219,2.348,6.805,2.586v-6.806c-3.777-0.918-7.826-2.143-7.826-6.873c0-3.471,2.518-6.499,7.826-7.009v-3.845
					h2.79v3.777c2.518,0.136,5.07,0.884,6.908,2.076l-1.395,3.436c-1.803-1.055-3.709-1.633-5.513-1.838v6.874
					c3.777,0.918,7.894,2.109,7.894,6.839C91.812,90.552,89.26,93.547,83.917,94.091z M81.128,79.527v-6.056
					c-2.416,0.373-3.437,1.599-3.437,3.096C77.691,78.2,79.154,78.949,81.128,79.527z M87.456,87.388
					c0-1.668-1.497-2.45-3.539-3.029v6.022C86.401,90.008,87.456,88.85,87.456,87.388z"/>
			</g>
		</g>
	</g>
	
		<line fill="none" stroke="#62B5E5" stroke-width="10" stroke-linecap="round" stroke-miterlimit="10" x1="45.095" y1="122.301" x2="132.578" y2="101.749"/>
</g>
</svg>
