<?xml version="1.0" encoding="utf-8"?>
<!-- Generator: Adobe Illustrator 24.1.0, SVG Export Plug-In . SVG Version: 6.00 Build 0)  -->
<svg version="1.1" id="Layer_1" xmlns="http://www.w3.org/2000/svg" xmlns:xlink="http://www.w3.org/1999/xlink" x="0px" y="0px"
	 viewBox="0 0 359.363 327.478" enable-background="new 0 0 359.363 327.478" xml:space="preserve">
<g>
	<g>
		<path fill="#C1C6C8" d="M259.389,303.289H99.974c-2.784,0-4.592-2.932-3.342-5.419l22.212-69.027h121.675l22.212,69.027
			C263.981,300.357,262.173,303.289,259.389,303.289z"/>
	</g>
	<g>
		<g>
			<path fill="#FFFFFF" d="M341.192,229.082H18.171c-4.418,0-8-3.582-8-8V18.171c0-4.418,3.582-8,8-8h323.021c4.418,0,8,3.582,8,8
				v202.911C349.192,225.5,345.611,229.082,341.192,229.082z"/>
			<path fill="#C1C6C8" d="M340.357,239.252H19.007C8.527,239.252,0,230.726,0,220.246V19.006C0,8.526,8.527,0,19.007,0h321.35
				c10.48,0,19.007,8.526,19.007,19.006v201.24C359.363,230.726,350.837,239.252,340.357,239.252z M20.342,218.911h318.68V20.341
				H20.342V218.911z"/>
		</g>
		<g>
			<g>
				<path fill="#62B5E5" d="M40.919,168.317l25.534-36.937c5.194-7.514,15.537-9.316,22.967-4.003l3.588,2.566
					c8.911,6.373,21.446,2.353,24.989-8.013l12.399-36.275c5.043-14.753,25.908-14.753,30.951,0l6,17.553
					c4.813,14.08,24.401,14.94,30.428,1.336l5.203-11.743c5.19-11.714,21.223-13.181,28.454-2.604v0
					c7.598,11.115,24.622,8.8,28.977-3.94l5.801-16.971c5.329-15.59,27.761-14.408,31.422,1.656l22.189,97.375
					C319.821,168.317,41.697,167.539,40.919,168.317z"/>
			</g>
			<g>
				<path fill="#FFE07F" d="M40.2,169.275l20.749-60.701c4.862-14.224,24.891-14.471,30.101-0.37l9.938,26.893
					c4.302,11.641,19.655,14.146,27.433,4.475l8.051-10.011c5.351-6.653,14.988-7.923,21.879-2.882l18.75,13.714
					c2.737,2.002,6.04,3.081,9.431,3.081h23.861c3.391,0,6.694,1.079,9.431,3.081l17.755,12.986
					c7.282,5.326,17.527,3.569,22.619-3.879l16.664-24.376c0.212-0.31,0.433-0.611,0.663-0.901
					c6.689-8.467,20.09-6.678,24.948,2.957l17.828,35.361C320.3,168.702,40.2,168.128,40.2,169.275z"/>
			</g>
			<g>
				<path fill="#005D91" d="M320.204,168.7l-21.679-17.65c-29.737-21.871-43.838,19.76-67.213-11.478l-8.051-10.011
					c-5.351-6.653-14.988-7.923-21.879-2.882l-9.319,6.816c-8.865,6.484-19.564,9.979-30.547,9.979h-12.176
					c-3.391,0-6.694,1.079-9.431,3.081l-17.755,12.986c-7.282,5.326-12.361,6.043-24.016-3.741c0,0-12.651-10.284-12.95-10.648
					c-6.203-7.553-19.161-7.548-24.748,0c-1.342,1.812-2.744,3.427-4.26,5.096l-16.748,18.455
					C39.433,168.702,320.204,167.553,320.204,168.7z"/>
			</g>
		</g>
	</g>
	<g opacity="0.75">
		<circle fill="#FFFFFF" cx="239.099" cy="233.407" r="67.002"/>
	</g>
	<g>
		<path fill="#4B4F54" d="M239.099,311.503c-43.063,0-78.097-35.034-78.097-78.096s35.034-78.096,78.097-78.096
			c43.062,0,78.096,35.034,78.096,78.096S282.162,311.503,239.099,311.503z M239.099,177.499c-30.828,0-55.909,25.08-55.909,55.908
			s25.08,55.908,55.909,55.908c30.828,0,55.908-25.08,55.908-55.908S269.927,177.499,239.099,177.499z"/>
	</g>
	<g>
		<path fill="#4B4F54" d="M318.445,327.478c-2.839,0-5.679-1.083-7.845-3.249l-30.2-30.2c-4.333-4.333-4.333-11.357,0-15.69
			c4.333-4.333,11.357-4.332,15.69,0l30.2,30.2c4.333,4.333,4.333,11.357,0,15.69C324.124,326.395,321.285,327.478,318.445,327.478z
			"/>
	</g>
</g>
</svg>
