<?xml version="1.0" encoding="utf-8"?>
<!-- Generator: Adobe Illustrator 24.1.2, SVG Export Plug-In . SVG Version: 6.00 Build 0)  -->
<svg version="1.1" id="Layer_1" xmlns="http://www.w3.org/2000/svg" xmlns:xlink="http://www.w3.org/1999/xlink" x="0px" y="0px"
	 viewBox="0 0 164.602 164.602" enable-background="new 0 0 164.602 164.602" xml:space="preserve">
<g>
	<g>
		<g>
			<circle fill="#EED380" cx="82.301" cy="82.301" r="82.301"/>
		</g>
	</g>
	<g>
		<g>
			<g>
				<rect x="26.016" y="54.798" fill="#FFFFFF" width="112.57" height="65.846"/>
			</g>
			<g>
				<rect x="26.016" y="43.958" fill="#00466D" width="112.57" height="10.799"/>
			</g>
			<g>
				<circle fill="#C33963" cx="32.569" cy="49.358" r="2.553"/>
			</g>
			<g>
				<circle fill="#FFCA7F" cx="40.249" cy="49.358" r="2.553"/>
			</g>
			<g>
				<circle fill="#809443" cx="47.929" cy="49.358" r="2.553"/>
			</g>
		</g>
		<g>
			<g>
				<g>
					<g>
						<g>
							<path fill="#4B4F54" d="M98.511,80.267l-0.196-0.098l-0.784-1.959l0.098-0.196c2.449-5.583,2.351-5.779,1.861-6.171
								l-3.33-3.232c-0.098-0.098-0.392-0.196-0.588-0.196s-0.784,0-5.583,2.253l-0.196,0.098l-2.057-0.784l-0.098-0.196
								c-2.253-5.681-2.547-5.681-3.134-5.681h-4.604c-0.588,0-0.784,0-2.938,5.681l-0.098,0.196l-1.959,0.784l-0.196-0.098
								c-3.33-1.371-5.191-2.057-5.779-2.057c-0.196,0-0.49,0.098-0.588,0.196l-3.33,3.232c-0.392,0.392-0.588,0.588,2.057,6.073
								l0.098,0.196l-0.784,1.959l-0.196,0.098c-5.877,2.253-5.877,2.449-5.877,3.037v4.603c0,0.588,0,0.784,5.877,2.938
								l0.196,0.098L67.169,93l-0.098,0.196c-2.449,5.583-2.351,5.779-1.861,6.171l3.33,3.232c0.098,0.098,0.392,0.196,0.588,0.196
								c0.196,0,0.784,0,5.583-2.253l0.196-0.098l2.057,0.784l0.098,0.196c2.253,5.681,2.547,5.681,3.134,5.681h4.603
								c0.588,0,0.784,0,2.938-5.681l0.098-0.196l1.959-0.784l0.196,0.098c3.33,1.371,5.191,2.057,5.681,2.057
								c0.196,0,0.49-0.098,0.588-0.196l3.33-3.232c0.392-0.392,0.588-0.588-2.057-6.073v-0.294l0.784-1.959h0.196
								c5.779-2.253,5.779-2.449,5.779-3.037v-4.603C104.29,82.618,104.29,82.324,98.511,80.267z M82.35,93
								c-4.212,0-7.542-3.33-7.542-7.444c0-4.114,3.428-7.444,7.542-7.444c4.212,0,7.542,3.33,7.542,7.444S86.464,93,82.35,93z"/>
						</g>
					</g>
				</g>
			</g>
			<g>
				<g>
					<path fill="#629FCF" d="M47.154,92.239c0-1.287-0.485-2.27-1.454-2.951c-0.969-0.68-2.378-1.021-4.227-1.021v-5.303
						c1.864,0,3.276-0.325,4.238-0.976c0.961-0.651,1.442-1.583,1.442-2.796v-0.177v-7.056c0-2.263,0.717-3.857,2.152-4.782
						c1.435-0.924,3.957-1.387,7.566-1.387v4.992c-1.464,0.044-2.474,0.325-3.029,0.843c-0.555,0.518-0.832,1.28-0.832,2.285v6.635
						c-0.089,2.781-1.82,4.423-5.192,4.926v0.266c3.461,0.518,5.192,2.086,5.192,4.704v0.2v6.634c0,1.006,0.274,1.768,0.821,2.286
						c0.547,0.518,1.56,0.799,3.04,0.843v5.015c-3.609,0-6.132-0.462-7.566-1.387c-1.435-0.924-2.152-2.526-2.152-4.804V92.239z"/>
				</g>
				<g>
					<path fill="#629FCF" d="M117.448,99.229c0,1.657-0.303,2.907-0.91,3.75c-0.607,0.843-1.608,1.461-3.007,1.853
						c-1.398,0.392-3.332,0.588-5.802,0.588v-5.015c1.464-0.03,2.474-0.296,3.029-0.799c0.555-0.503,0.832-1.28,0.832-2.33v-6.634
						v-0.244c0-1.272,0.436-2.304,1.309-3.095c0.873-0.791,2.159-1.313,3.861-1.564v-0.266c-3.358-0.503-5.081-2.145-5.17-4.926
						v-6.635c0-1.035-0.274-1.805-0.821-2.308c-0.547-0.503-1.561-0.777-3.04-0.821V65.79c2.47,0,4.408,0.196,5.813,0.588
						c1.405,0.392,2.407,1.013,3.007,1.864c0.599,0.851,0.899,2.09,0.899,3.717v7.056v0.222c0,1.242,0.455,2.174,1.365,2.796
						c0.91,0.621,2.348,0.932,4.316,0.932v5.303c-1.849,0-3.258,0.303-4.227,0.91c-0.969,0.607-1.453,1.627-1.453,3.062V99.229z"/>
				</g>
			</g>
		</g>
	</g>
</g>
</svg>
