<?xml version="1.0" encoding="utf-8"?>
<!-- Generator: Adobe Illustrator 24.1.2, SVG Export Plug-In . SVG Version: 6.00 Build 0)  -->
<svg version="1.1" id="Layer_1" xmlns="http://www.w3.org/2000/svg" xmlns:xlink="http://www.w3.org/1999/xlink" x="0px" y="0px"
	 viewBox="0 0 164.602 164.602" enable-background="new 0 0 164.602 164.602" xml:space="preserve">
<g>
	<g>
		<g>
			<circle fill="#809B52" cx="82.301" cy="82.301" r="82.301"/>
		</g>
	</g>
	<g>
		<g>
			<g>
				<defs>
					<circle id="SVGID_331_" cx="82.301" cy="82.301" r="41.821"/>
				</defs>
				<clipPath id="SVGID_3_">
					<use xlink:href="#SVGID_331_"  overflow="visible"/>
				</clipPath>
				<rect x="40.48" y="40.48" clip-path="url(#SVGID_3_)" fill="#DFE1E1" width="22.274" height="83.642"/>
				<rect x="62.754" y="40.48" clip-path="url(#SVGID_3_)" fill="#DDDFE0" width="22.274" height="83.642"/>
				<rect x="85.028" y="40.48" clip-path="url(#SVGID_3_)" fill="#DDDFE0" width="2.292" height="83.642"/>
				<rect x="87.32" y="40.48" clip-path="url(#SVGID_3_)" fill="#DCDEDF" width="2.292" height="83.642"/>
				<rect x="89.612" y="40.48" clip-path="url(#SVGID_3_)" fill="#DBDDDE" width="2.292" height="83.642"/>
				<rect x="91.903" y="40.48" clip-path="url(#SVGID_3_)" fill="#DADCDD" width="2.292" height="83.642"/>
				<rect x="94.195" y="40.48" clip-path="url(#SVGID_3_)" fill="#D8DBDC" width="2.292" height="83.642"/>
				<rect x="96.487" y="40.48" clip-path="url(#SVGID_3_)" fill="#D7DADB" width="2.292" height="83.642"/>
				<rect x="98.779" y="40.48" clip-path="url(#SVGID_3_)" fill="#D6D9DA" width="2.292" height="83.642"/>
				<rect x="101.07" y="40.48" clip-path="url(#SVGID_3_)" fill="#D6D9DA" width="1.039" height="83.642"/>
				<rect x="102.11" y="40.48" clip-path="url(#SVGID_3_)" fill="#D5D8D9" width="1.039" height="83.642"/>
				<rect x="103.149" y="40.48" clip-path="url(#SVGID_3_)" fill="#D4D7D8" width="1.039" height="83.642"/>
				<rect x="104.189" y="40.48" clip-path="url(#SVGID_3_)" fill="#D3D6D7" width="1.039" height="83.642"/>
				<rect x="105.228" y="40.48" clip-path="url(#SVGID_3_)" fill="#D2D5D6" width="1.039" height="83.642"/>
				<rect x="106.268" y="40.48" clip-path="url(#SVGID_3_)" fill="#D1D4D5" width="1.039" height="83.642"/>
				<rect x="107.307" y="40.48" clip-path="url(#SVGID_3_)" fill="#CFD2D3" width="1.039" height="83.642"/>
				<rect x="108.346" y="40.48" clip-path="url(#SVGID_3_)" fill="#CED1D2" width="1.039" height="83.642"/>
				<rect x="109.386" y="40.48" clip-path="url(#SVGID_3_)" fill="#CDD0D1" width="1.039" height="83.642"/>
				<rect x="110.425" y="40.48" clip-path="url(#SVGID_3_)" fill="#CCCFD0" width="1.039" height="83.642"/>
				<rect x="111.465" y="40.48" clip-path="url(#SVGID_3_)" fill="#CBCECF" width="1.039" height="83.642"/>
				<rect x="112.504" y="40.48" clip-path="url(#SVGID_3_)" fill="#CBCECF" width="0.574" height="83.642"/>
				<rect x="113.078" y="40.48" clip-path="url(#SVGID_3_)" fill="#CACDCE" width="0.574" height="83.642"/>
				<rect x="113.652" y="40.48" clip-path="url(#SVGID_3_)" fill="#C9CCCD" width="0.574" height="83.642"/>
				<rect x="114.226" y="40.48" clip-path="url(#SVGID_3_)" fill="#C8CBCC" width="0.574" height="83.642"/>
				<rect x="114.8" y="40.48" clip-path="url(#SVGID_3_)" fill="#C7CACB" width="0.574" height="83.642"/>
				<rect x="115.374" y="40.48" clip-path="url(#SVGID_3_)" fill="#C6C9CA" width="0.574" height="83.642"/>
				<rect x="115.948" y="40.48" clip-path="url(#SVGID_3_)" fill="#C5C8C9" width="0.574" height="83.642"/>
				<rect x="116.522" y="40.48" clip-path="url(#SVGID_3_)" fill="#C4C7C8" width="0.574" height="83.642"/>
				<rect x="117.096" y="40.48" clip-path="url(#SVGID_3_)" fill="#C2C5C7" width="0.574" height="83.642"/>
				<rect x="117.67" y="40.48" clip-path="url(#SVGID_3_)" fill="#C1C4C6" width="0.574" height="83.642"/>
				<rect x="118.244" y="40.48" clip-path="url(#SVGID_3_)" fill="#C0C3C5" width="0.574" height="83.642"/>
				<rect x="118.818" y="40.48" clip-path="url(#SVGID_3_)" fill="#BFC2C4" width="0.574" height="83.642"/>
				<rect x="119.392" y="40.48" clip-path="url(#SVGID_3_)" fill="#BEC1C3" width="0.574" height="83.642"/>
				<rect x="119.966" y="40.48" clip-path="url(#SVGID_3_)" fill="#BDC0C2" width="0.574" height="83.642"/>
				<rect x="120.54" y="40.48" clip-path="url(#SVGID_3_)" fill="#BCBFC1" width="0.574" height="83.642"/>
				<rect x="121.114" y="40.48" clip-path="url(#SVGID_3_)" fill="#BBBEC0" width="0.574" height="83.642"/>
				<rect x="121.688" y="40.48" clip-path="url(#SVGID_3_)" fill="#BBBEC0" width="0.406" height="83.642"/>
				<rect x="122.094" y="40.48" clip-path="url(#SVGID_3_)" fill="#BABDBF" width="0.406" height="83.642"/>
				<rect x="122.499" y="40.48" clip-path="url(#SVGID_3_)" fill="#B9BCBE" width="0.406" height="83.642"/>
				<rect x="122.905" y="40.48" clip-path="url(#SVGID_3_)" fill="#B7BBBD" width="0.406" height="83.642"/>
				<rect x="123.311" y="40.48" clip-path="url(#SVGID_3_)" fill="#B6BABC" width="0.406" height="83.642"/>
				<rect x="123.716" y="40.48" clip-path="url(#SVGID_3_)" fill="#B5B9BB" width="0.406" height="83.642"/>
			</g>
		</g>
		<g>
			<path fill="#002F49" d="M82.301,140.663c-32.181,0-58.362-26.181-58.362-58.362S50.12,23.939,82.301,23.939
				s58.362,26.181,58.362,58.362S114.482,140.663,82.301,140.663z M82.301,29.939c-28.873,0-52.362,23.489-52.362,52.362
				s23.489,52.362,52.362,52.362s52.362-23.489,52.362-52.362S111.174,29.939,82.301,29.939z"/>
		</g>
		<g>
			<path fill="#002F49" d="M82.301,140.663c-24.714,0-44.821-26.181-44.821-58.362s20.106-58.362,44.821-58.362
				s44.821,26.181,44.821,58.362S107.015,140.663,82.301,140.663z M82.301,29.939c-21.406,0-38.821,23.489-38.821,52.362
				s17.415,52.362,38.821,52.362s38.821-23.489,38.821-52.362S103.707,29.939,82.301,29.939z"/>
		</g>
		<g>
			<path fill="#002F49" d="M82.301,140.663c-12.069,0-18.383-29.36-18.383-58.362s6.314-58.362,18.383-58.362
				s18.384,29.36,18.384,58.362S94.37,140.663,82.301,140.663z M82.301,29.939c-4.322,0-12.383,17.983-12.383,52.362
				s8.062,52.362,12.383,52.362s12.384-17.983,12.384-52.362S86.623,29.939,82.301,29.939z"/>
		</g>
	</g>
</g>
</svg>
