<?xml version="1.0" encoding="utf-8"?>
<!-- Generator: Adobe Illustrator 24.1.0, SVG Export Plug-In . SVG Version: 6.00 Build 0)  -->
<svg version="1.1" id="Layer_1" xmlns="http://www.w3.org/2000/svg" xmlns:xlink="http://www.w3.org/1999/xlink" x="0px" y="0px"
	 viewBox="0 0 400 400" style="enable-background:new 0 0 400 400;" xml:space="preserve">
<style type="text/css">
	.st0{fill:#FFFFFF;}
	.st1{fill:url(#SVGID_1_);}
	.st2{fill:#005D91;}
	.st3{fill:#62B5E5;}
	.st4{fill:none;stroke:#FFFFFF;stroke-width:4.7564;stroke-miterlimit:10;}
</style>
<g>
	<g>
		<circle class="st0" cx="202.237" cy="213.681" r="165.891"/>
		<radialGradient id="SVGID_1_" cx="202.2372" cy="213.6806" r="165.8913" gradientUnits="userSpaceOnUse">
			<stop  offset="0" style="stop-color:#FFFFFF;stop-opacity:0"/>
			<stop  offset="1" style="stop-color:#62B5E5;stop-opacity:0.3"/>
		</radialGradient>
		<circle class="st1" cx="202.237" cy="213.681" r="165.891"/>
	</g>
	<g>
		<path class="st2" d="M137.433,65.158c-63.45,0-111.378,36.951-114.887,87.701c-3.488,50.451,32.268,90.645,73.029,101.571
			c0,0-9.514-23.954-9.513-23.954c15.179,5.645,33.351,10.085,51.371,10.085c63.45,0,114.887-39.265,114.887-87.701
			C252.32,104.423,200.884,65.158,137.433,65.158z"/>
		<path class="st3" d="M262.513,171.462c63.45,0,111.378,36.951,114.887,87.701c3.488,50.451-24.745,84.082-73.029,101.571
			c0,0,9.514-23.954,9.513-23.954c-15.179,5.645-33.351,10.085-51.371,10.085c-63.451,0-114.887-39.265-114.887-87.701
			C147.626,210.727,199.062,171.462,262.513,171.462z"/>
		<circle class="st0" cx="97.417" cy="153.144" r="11.656"/>
		<circle class="st0" cx="139.116" cy="153.144" r="11.656"/>
		<circle class="st0" cx="180.815" cy="153.144" r="11.656"/>
		<circle class="st4" cx="220.959" cy="261.341" r="11.656"/>
		<circle class="st4" cx="262.658" cy="261.341" r="11.656"/>
		<circle class="st4" cx="304.356" cy="261.341" r="11.656"/>
	</g>
</g>
</svg>
