<svg clip-rule="evenodd" fill-rule="evenodd" viewBox="0 0 560 400" xmlns="http://www.w3.org/2000/svg"><path d="m168.156 206.869c7.819 0 19.131-1.612 19.131-10.912.023-.717-.042-1.436-.194-2.138l-4.656-20.225c-1.075-4.45-2.019-6.469-9.831-10.375-6.063-3.1-19.269-8.219-23.175-8.219-3.638 0-4.694 4.688-9.031 4.688-4.175 0-7.275-3.5-11.181-3.5-3.75 0-6.194 2.556-8.081 7.813 0 0-5.256 14.825-5.931 16.975-.107.395-.154.804-.137 1.212 0 5.762 22.688 24.656 53.087 24.656m20.331-7.113c1.081 5.119 1.081 5.656 1.081 6.331 0 8.75-9.837 13.606-22.769 13.606-29.225.019-54.825-17.106-54.825-28.425-.002-1.576.319-3.135.944-4.581-10.513.525-24.119 2.4-24.119 14.413 0 19.675 46.619 43.925 83.531 43.925 28.3 0 35.437-12.8 35.437-22.906 0-7.95-6.875-16.975-19.269-22.363" fill="#e00"/><path d="m188.488 199.732c1.081 5.119 1.081 5.656 1.081 6.331 0 8.75-9.837 13.606-22.769 13.606-29.225.019-54.825-17.106-54.825-28.425-.002-1.576.319-3.135.944-4.581l2.287-5.662c-.105.387-.151.787-.137 1.187 0 5.762 22.688 24.656 53.087 24.656 7.819 0 19.131-1.612 19.131-10.913.023-.717-.042-1.436-.194-2.137l1.394 5.937zm262.337 12.956c0 7.431 4.469 11.044 12.619 11.044 2.509-.062 5.003-.415 7.431-1.05v-8.619c-1.552.492-3.172.736-4.8.725-3.356 0-4.6-1.05-4.6-4.206v-13.206h9.725v-8.875h-9.725v-11.25l-10.625 2.3v8.95h-7.056v8.875h7.031v15.313zm-33.125.2c0-2.3 2.306-3.419 5.787-3.419 2.128.012 4.247.277 6.313.787v4.469c-2.036 1.112-4.324 1.678-6.644 1.644-3.413 0-5.456-1.312-5.456-3.481zm3.25 10.975c3.75 0 6.775-.788 9.6-2.694v2.106h10.513v-22.287c0-8.475-5.712-13.125-15.244-13.125-5.325 0-10.588 1.25-16.25 3.813l3.813 7.825c4.075-1.713 7.5-2.763 10.519-2.763 4.375 0 6.638 1.706 6.638 5.194v1.706c-2.576-.667-5.227-.999-7.888-.987-8.944 0-14.331 3.75-14.331 10.456 0 6.113 4.862 10.775 12.619 10.775l.013-.019zm-57.788-.569h11.306v-18.031h18.931v18.012h11.337v-46.013h-11.294v17.681h-18.931v-17.681h-11.306l-.044 46.031zm-43.038-17.437c0-5 3.944-8.813 9.138-8.813 2.701-.055 5.326.909 7.35 2.7v12.156c-1.98 1.871-4.627 2.875-7.35 2.787-5.125 0-9.138-3.812-9.138-8.806v-.025zm16.631 17.444h10.519v-48.338l-10.625 2.3v13.081c-2.704-1.533-5.766-2.327-8.875-2.3-10.119 0-18.075 7.819-18.075 17.813l-.001.219c0 9.686 7.97 17.656 17.656 17.656h.095c3.353.016 6.623-1.042 9.331-3.019zm-48.269-26.738c3.35 0 6.175 2.169 7.294 5.519h-14.5c1.05-3.456 3.681-5.519 7.206-5.519zm-17.919 9.375c0 10.125 8.281 18.012 18.925 18.012 5.85 0 10.125-1.581 14.531-5.262l-7.037-6.25c-1.644 1.712-4.075 2.631-6.963 2.631-3.709.104-7.118-2.096-8.55-5.519h24.781v-2.644c0-11.044-7.425-18.994-17.55-18.994l-.269-.002c-9.796 0-17.856 8.061-17.856 17.856l.001.152-.013.019zm-18.331-19.013c3.75 0 5.85 2.363 5.85 5.194s-2.1 5.194-5.85 5.194h-11.181v-10.388zm-22.5 36.35h11.306v-16.762h8.606l8.681 16.762h12.656l-10.125-18.406c5.253-2.136 8.698-7.279 8.675-12.95 0-8.281-6.506-14.656-16.25-14.656h-23.55v46.013z"/></svg>