<?xml version="1.0" encoding="utf-8"?>
<!-- Generator: Adobe Illustrator 24.0.0, SVG Export Plug-In . SVG Version: 6.00 Build 0)  -->
<svg version="1.1" id="Layer_1" xmlns="http://www.w3.org/2000/svg" xmlns:xlink="http://www.w3.org/1999/xlink" x="0px" y="0px"
	 viewBox="0 0 443.9 335" style="enable-background:new 0 0 443.9 335;" xml:space="preserve">
<style type="text/css">
	.st0{fill-rule:evenodd;clip-rule:evenodd;fill:#FFE07F;}
	.st1{fill-rule:evenodd;clip-rule:evenodd;fill:#FFFFFF;fill-opacity:0.5;}
	.st2{fill-rule:evenodd;clip-rule:evenodd;fill:#62B5E5;}
	.st3{fill:#FFFFFF;}
	.st4{fill:#A1D3EF;}
	.st5{fill:#002F49;}
	.st6{fill:#62B5E5;}
	.st7{fill-rule:evenodd;clip-rule:evenodd;fill:#A1D3EF;}
	.st8{fill-rule:evenodd;clip-rule:evenodd;fill:#FBFBFB;}
	.st9{fill:#4A88AC;}
	.st10{fill-rule:evenodd;clip-rule:evenodd;fill:#D93963;}
	.st11{fill:none;stroke:#002F49;stroke-width:14.4957;stroke-linecap:round;stroke-miterlimit:10;}
	.st12{fill:none;stroke:#002F49;stroke-width:8;stroke-linecap:round;stroke-miterlimit:10;}
	.st13{fill:#FFE07F;}
	.st14{fill:#81AA43;}
	.st15{fill:#D93963;}
	.st16{fill-rule:evenodd;clip-rule:evenodd;fill:#FFFFFF;}
	.st17{fill-rule:evenodd;clip-rule:evenodd;fill:#002F49;}
	.st18{fill:url(#SVGID_1_);}
	.st19{fill:#62B5E5;stroke:#FFFFFF;stroke-width:2.5;stroke-miterlimit:10;}
	.st20{opacity:0.3;}
	.st21{fill:none;stroke:#FFFFFF;stroke-width:0.6012;stroke-linejoin:round;stroke-miterlimit:10;}
</style>
<g>
	<g>
		<path class="st3" d="M378.2,129.2c-4.3,0-8.4,0.5-12.5,1.2c1.1-4.5,1.9-9.2,1.9-14c0-30.4-24.7-55.1-55.1-55.1
			c-13.5,0-25.8,4.8-35.4,12.9C264.4,31.3,224.6,0,177.6,0c-37.4,0-70.1,19.7-88.5,49.5l60.1,29.4l-74.6,38l0,0
			c-35.9,4.2-63.7,34.6-63.7,71.6c0,39.8,32.3,72.1,72.1,72.1h168.3v-37.5l74.6,36.6v-36.6v-74.6l74.6,36.6l-74.6,38l71.8,35.2
			c26.2-9.1,46.2-34.7,46.2-63.5C444,158.6,414.6,129.2,378.2,129.2z"/>
		<polygon class="st3" points="326,260.6 326,259.8 324.2,260.6 		"/>
	</g>
	<polygon id="Fill-10_15_" class="st0" points="74.6,79.7 149.2,41.7 74.6,5.1 	"/>
	<polygon id="Fill-10_14_" class="st2" points="0,79.7 74.6,41.7 0,5.1 	"/>
	<polygon id="Fill-10_13_" class="st8" points="176.7,297.9 251.3,260 176.7,223.4 	"/>
	<polygon id="Fill-10_12_" class="st0" points="251.3,335 326,297.1 251.3,260.5 	"/>
	<polygon id="Fill-10_6_" class="st7" points="176.7,297.9 251.3,260 176.7,223.4 	"/>
	<polygon id="Fill-10_5_" class="st2" points="326,335 400.6,297.1 326,260.5 	"/>
</g>
</svg>
