<?xml version="1.0" encoding="utf-8"?>
<!-- Generator: Adobe Illustrator 24.1.2, SVG Export Plug-In . SVG Version: 6.00 Build 0)  -->
<svg version="1.1" id="Layer_1" xmlns="http://www.w3.org/2000/svg" xmlns:xlink="http://www.w3.org/1999/xlink" x="0px" y="0px"
	 viewBox="0 0 389.078 338.4" enable-background="new 0 0 389.078 338.4" xml:space="preserve">
<g>
	<g>
		<circle fill="#FBFBFB" cx="211.313" cy="153.5" r="131.695"/>
	</g>
	<g>
		<path fill="#62B5E5" d="M211.313,307.001c-84.642,0-153.502-68.86-153.502-153.5S126.672,0,211.313,0
			c84.64,0,153.5,68.86,153.5,153.5S295.955,307.001,211.313,307.001z M211.313,43.611c-60.593,0-109.891,49.296-109.891,109.889
			s49.296,109.889,109.891,109.889c60.593,0,109.889-49.296,109.889-109.889S271.907,43.611,211.313,43.611z"/>
	</g>
	<g>
		<path fill="#62B5E5" d="M367.271,338.4c-5.58,0-11.162-2.129-15.42-6.386l-59.359-59.359c-8.517-8.517-8.517-22.323,0-30.839
			c8.517-8.517,22.323-8.515,30.839,0l59.359,59.359c8.517,8.517,8.517,22.323,0,30.839
			C378.433,336.271,372.853,338.4,367.271,338.4z"/>
	</g>
	<g>
		<defs>
			<circle id="SVGID_15_" cx="211.002" cy="153.559" r="109.708"/>
		</defs>
		<clipPath id="SVGID_2_">
			<use xlink:href="#SVGID_15_"  overflow="visible"/>
		</clipPath>
		<g clip-path="url(#SVGID_2_)">
			<polygon fill-rule="evenodd" clip-rule="evenodd" fill="#25374A" points="232.712,175.589 188.74,175.799 196.299,100.604 
				226.82,99.708 			"/>
			<g>
				<path fill="#25374A" d="M242.549,141.972c16.055,4.791,71.713,80.421,75.401,121.295h-40.26L242.549,141.972z"/>
				<path fill="#25374A" d="M143.762,263.267h-40.26c3.688-40.874,59.346-116.505,75.401-121.295L143.762,263.267z"/>
				<path fill-rule="evenodd" clip-rule="evenodd" fill="#25374A" d="M178.72,141.972h63.828c0,0,22.036,6.296,52.611,121.295
					H135.497C135.497,263.267,140.451,214.643,178.72,141.972z"/>
			</g>
		</g>
	</g>
	<g>
		<g>
			<g>
				<g>
					<g>
						<path fill-rule="evenodd" clip-rule="evenodd" fill="#25374A" d="M173.228,56.461c-1.009,31.067,12.331,70.732,38.67,70.387
							c26.725-2.068,37.142-33.533,33.636-71.269C241.034,7.135,174.616,13.728,173.228,56.461z"/>
						<g>
							<g>
								
									<ellipse transform="matrix(0.8835 -0.4684 0.4684 0.8835 -18.1687 91.5888)" fill-rule="evenodd" clip-rule="evenodd" fill="#25374A" cx="175.069" cy="82.325" rx="8.63" ry="11.117"/>
							</g>
							<g>
								
									<ellipse transform="matrix(0.4684 -0.8835 0.8835 0.4684 57.0699 259.4988)" fill-rule="evenodd" clip-rule="evenodd" fill="#25374A" cx="244.174" cy="82.325" rx="11.117" ry="8.63"/>
							</g>
						</g>
					</g>
				</g>
			</g>
		</g>
	</g>
	<g>
		<polygon id="Fill-10_9_" fill-rule="evenodd" clip-rule="evenodd" fill="#FFE07F" points="0,278.126 82.082,236.335 0,196.044 		
			"/>
		<polygon id="Fill-10_8_" fill-rule="evenodd" clip-rule="evenodd" fill="#FFFFFF" points="82.546,278.126 164.628,236.335 
			82.546,196.044 		"/>
		<polygon id="Fill-10_7_" fill-rule="evenodd" clip-rule="evenodd" fill="#DDDDDD" points="82.546,278.126 164.628,236.335 
			82.546,196.044 		"/>
	</g>
	<path fill="#25374A" d="M189.942,22.564c0,0,7.217-15.42,32.736-9.721c18.01,4.022,26.078,16.352,27.521,23.741
		c6.04,30.93-6.83,50.544-6.83,50.544l-25.342-54.171l-25.361,2.011L189.942,22.564z"/>
	<path fill="#25374A" d="M177.438,86.026c0,0-17.993-25.215-8.264-48.27c2.505-5.935,10.463-18.805,20.768-15.192l2.724,12.403
		c0,0-13.084,2.641-18.332,19.757L177.438,86.026z"/>
	<polygon fill="#81AA43" points="379.782,66.285 387.382,63.985 385.182,71.685 387.382,79.285 379.782,77.085 372.182,79.285 
		374.382,71.685 372.182,63.985 	"/>
	<polygon fill="#FFE07F" points="362.76,21.387 374.852,27.963 362.831,34.61 356.184,46.631 349.608,34.54 337.516,27.963 
		349.608,21.387 356.184,9.296 	"/>
</g>
</svg>
