<?xml version="1.0" encoding="utf-8"?>
<!-- Generator: Adobe Illustrator 24.1.0, SVG Export Plug-In . SVG Version: 6.00 Build 0)  -->
<svg version="1.1" id="Layer_1" xmlns="http://www.w3.org/2000/svg" xmlns:xlink="http://www.w3.org/1999/xlink" x="0px" y="0px"
	 viewBox="0 0 400 400" style="enable-background:new 0 0 400 400;" xml:space="preserve">
<style type="text/css">
	.st0{fill:#FFFFFF;}
	.st1{fill:url(#SVGID_1_);}
	.st2{fill:#4B4F54;}
	.st3{fill:#D93963;}
	.st4{fill:#62B5E5;}
	.st5{fill:#C1C6C8;}
</style>
<g>
	<circle class="st0" cx="200.062" cy="213.681" r="165.891"/>
	<radialGradient id="SVGID_1_" cx="200.0622" cy="213.6806" r="165.8913" gradientUnits="userSpaceOnUse">
		<stop  offset="0" style="stop-color:#FFFFFF;stop-opacity:0"/>
		<stop  offset="1" style="stop-color:#62B5E5;stop-opacity:0.3"/>
	</radialGradient>
	<circle class="st1" cx="200.062" cy="213.681" r="165.891"/>
	<g>
		<path class="st2" d="M101.597,28.649c6.262-4.77,12.887-9.579,22.771-2.851c26.876,18.295,7.909,64.267,14.973,71.952
			c0,0-25.142,20.495-39.544,8.671S101.597,28.649,101.597,28.649z"/>
		<path class="st3" d="M236.64,189.096c-3.201,16.803-14.193,44.033-11.793,92.041c2.4,48.008,93.615,19.203,93.615,19.203
			s25.604-67.238,5.601-83.627s-51.208-40.393-51.208-40.393L236.64,189.096z"/>
		<path class="st3" d="M63.324,93.753c-12.893,10.366-34.422,37.804-30.36,89.16s89.292-12.558,89.292-12.558
			s1.562-40.166-11.736-63.933C96.722,81.763,76.217,83.387,63.324,93.753z"/>
		<path class="st3" d="M146.412,163.216c13.261-21.473-19.321-56.928-42.3-63.365s-1.534,52.309-1.534,52.309L146.412,163.216z"/>
		<path class="st4" d="M272.369,106.422c-46.149,0-83.713,23.635-103.125,58.393c3.648,3.101,7.216,6.412,10.595,10.183l5.971,6.697
			l-6.108,6.576l-24.663,26.527c-0.1,1.866-0.152,3.751-0.152,5.644v0.634c0,26.833,8.98,51.453,24.55,70.863h-75.236
			c0-0.097,0-0.181,0-0.283c-27.11,0-44.421-21.559-44.421-48.343v-0.661c0-25.802,17.639-47.693,42.47-47.693
			c17.636,0,28.75,7.512,39.859,19.267l30.382-32.664c-16.337-18.297-36.92-29.402-69.913-29.402
			c-53.581,0-91.806,41.164-91.806,91.153v0.646c0,48.872,36.89,88.572,87.682,90.325v0.174h177.835l-0.029-0.112
			c65.691-2.223,112.968-52.633,112.968-113.904v-0.626C389.228,157.129,340.403,106.422,272.369,106.422z M338.522,221.076
			c0,37.784-27.097,68.647-66.153,68.647c-39.059,0-66.773-31.486-66.773-69.281v-0.626c0-37.799,27.09-68.672,66.147-68.672
			c39.063,0,66.779,31.5,66.779,69.298V221.076z"/>
		<path class="st3" d="M272.855,176.32c17.42,4.115,60.656,9.592,73.135,48.403s-10.725,74.017-48.331,75.617l-0.8-28.005
			c0,0,23.204-9.602,18.663-32.005C311.962,222.769,272.855,176.32,272.855,176.32z"/>
		<path class="st3" d="M190.704,99.851l59.163,82.757l8.024,57.111c0,0-77.437-85.242-82.268-119.269L190.704,99.851z"/>
		<path class="st0" d="M272.677,206.625h-1.508c-7.103,0-12.861-5.758-12.861-12.861v-23.611l36.176,2.944
			C294.484,173.097,290.173,206.625,272.677,206.625z"/>
		<path class="st5" d="M271.169,195.876c-8.11,0-18.38-5.855-12.861-12.861v-23.611l36.176,2.944
			C294.484,162.347,295.116,195.876,271.169,195.876z"/>
		<path class="st0" d="M267.218,191.123h-2.7c-5.91,0-11.446-1.748-16.202-4.796c-11.237-7.204-15.533-17.314-11.652-43.048
			s13.581-33.369,13.581-33.369h42.787l4.208,40.937c1.923,14.096-2.584,28.276-13.821,35.48
			C278.664,189.375,273.128,191.123,267.218,191.123z"/>
		<path class="st0" d="M175.623,120.45c-14.717-7.449-4.775-34.825-3.655-50.788c1.12-15.963,10.138-7.31,14.437,11.44
			s4.299,18.75,4.299,18.75L175.623,120.45z"/>
		<path class="st0" d="M159.454,118.554c14.915-4.608,9.995-31.729,11.489-46.799c1.495-15.07-8.295-8.432-15.288,8.376
			s-6.993,16.808-6.993,16.808L159.454,118.554z"/>
		<path class="st2" d="M292.927,180.966c10.366-0.384,19.562-16.955,18.194-47.669s1.704-39.16-9.046-34.553
			s-25.339-2.304-43.767-9.598s-32.249,0.7-27.642,14.363s51.237,29.98,63.819,19.614L292.927,180.966z"/>
		<path class="st0" d="M292.503,144.827c2.096-4.184,5.359-6.71,8.311-6.015c3.894,0.918,5.77,7.099,4.189,13.807
			c-1.581,6.707-6.019,11.401-9.914,10.483c-3.894-0.918-5.77-7.099-4.189-13.807C291.283,147.671,291.834,146.164,292.503,144.827"
			/>
		<path class="st0" d="M124.665,147.844c-3.188,6.947-11.548,18.981,0,20.752s23.201-3.853,21.599-12.46
			S128.055,140.456,124.665,147.844z"/>
		<path class="st0" d="M296.859,272.336c-15.66,2.82-37.22,3.87-36.806,16.302c0.414,12.432,37.606,11.703,37.606,11.703
			L296.859,272.336z"/>
		<path class="st3" d="M147.641,95.909c-14.95,12.078-53.122,38.654-75.512,15.966S42.338,134.04,42.338,134.04
			s14.332,57.083,72.949,15.636c38.103-26.942,45.349-31.793,45.349-31.793L147.641,95.909z"/>
		<path class="st0" d="M91.52,113.306l1.274,0.219c6,1.032,11.701-2.995,12.733-8.996l3.431-19.945l-30.987-2.77
			C77.971,81.815,76.74,110.764,91.52,113.306z"/>
		<path class="st5" d="M94.355,104.445c6.851,1.179,16.377-2.275,12.733-8.996l3.431-19.945l-30.987-2.77
			C79.533,72.734,74.126,100.965,94.355,104.445z"/>
		<path class="st0" d="M98.384,101.004l2.28,0.392c4.992,0.859,9.923,0.187,14.383-1.697c10.539-4.452,15.637-12.368,16.098-34.671
			c0.462-22.303-6.624-30.161-6.624-30.161l-36.144-6.217l-9.503,33.97c-3.672,11.628-1.926,24.261,6.52,31.979
			C88.969,97.865,93.392,100.145,98.384,101.004z"/>
		<path class="st2" d="M110.258,30.897c5.195,6.581-6.632,21.099-22.102,22.353s-8.49,41.763-3.665,49.334
			c0,0-36.056,0.858-38.146-13.576S78.424-9.435,110.258,30.897z"/>
		<path class="st2" d="M108.958,34.245c0.101,7.181,8.662,21.116,22.21,21.884c13.548,0.768-3.345-23.803-3.345-23.803
			l-17.565-1.428L108.958,34.245z"/>
		<path class="st2" d="M106.301,85.289c-4.509-0.642-8.404-2.857-11.217-6.008c0.16,5.8,4.474,10.814,10.412,11.659
			c5.938,0.845,11.48-2.765,13.252-8.291C115.168,84.89,110.81,85.93,106.301,85.289z"/>
		<path class="st2" d="M257.276,169.903c-4.509-0.642-8.404-2.857-11.217-6.008c0.16,5.8,4.474,10.814,10.412,11.659
			c5.938,0.845,11.48-2.765,13.252-8.291C266.144,169.504,261.785,170.544,257.276,169.903z"/>
	</g>
</g>
</svg>
