<?xml version="1.0" encoding="utf-8"?>
<!-- Generator: Adobe Illustrator 24.1.0, SVG Export Plug-In . SVG Version: 6.00 Build 0)  -->
<svg version="1.1" id="Layer_1" xmlns="http://www.w3.org/2000/svg" xmlns:xlink="http://www.w3.org/1999/xlink" x="0px" y="0px"
	 viewBox="0 0 400 400" style="enable-background:new 0 0 400 400;" xml:space="preserve">
<style type="text/css">
	.st0{fill:#FFFFFF;}
	.st1{fill:url(#SVGID_1_);}
	.st2{fill:none;stroke:#005D91;stroke-width:21.7491;stroke-linecap:round;stroke-miterlimit:10;}
	.st3{fill:none;stroke:#62B5E5;stroke-width:11.4634;stroke-linecap:round;stroke-miterlimit:10;}
	.st4{fill:none;stroke:#4B4F54;stroke-width:16.0488;stroke-linecap:round;stroke-miterlimit:10;}
	.st5{fill:#C1C6C8;}
</style>
<g>
	<g>
		<circle class="st0" cx="200" cy="213.681" r="165.891"/>
		<radialGradient id="SVGID_1_" cx="200" cy="213.6806" r="165.8913" gradientUnits="userSpaceOnUse">
			<stop  offset="0" style="stop-color:#FFFFFF;stop-opacity:0"/>
			<stop  offset="1" style="stop-color:#62B5E5;stop-opacity:0.3"/>
		</radialGradient>
		<circle class="st1" cx="200" cy="213.681" r="165.891"/>
	</g>
	<g>
		<g>
			<path class="st0" d="M275.244,332.291H59.526v-83.928h215.718c17.43,0,31.559,14.13,31.559,31.559v20.809
				C306.804,318.161,292.674,332.291,275.244,332.291z"/>
			<path class="st2" d="M59.526,248.363h206.867c22.318,0,40.41,18.788,40.41,41.964v0c0,23.176-18.092,41.964-40.41,41.964H59.526"
				/>
		</g>
		<g>
			<path class="st0" d="M308.427,234.976H104.578v-67.507h203.849c14.02,0,25.385,11.365,25.385,25.385v16.738
				C333.812,223.611,322.447,234.976,308.427,234.976z"/>
			<path class="st3" d="M104.578,167.469H296.35c20.69,0,37.462,15.112,37.462,33.753v0c0,18.642-16.772,33.753-37.462,33.753
				H104.578"/>
		</g>
		<g>
			<path class="st0" d="M275.458,155.133H91.008V87.626h184.45c14.02,0,25.385,11.365,25.385,25.385v16.738
				C300.842,143.768,289.477,155.133,275.458,155.133z"/>
			<path class="st4" d="M91.008,87.626h175.543c18.939,0,34.291,15.112,34.291,33.753v0c0,18.642-15.353,33.753-34.291,33.753
				H91.008"/>
		</g>
		<g>
			<polygon class="st5" points="91.008,102.916 224.766,103.49 91.008,104.063 			"/>
		</g>
		<g>
			<polygon class="st5" points="91.008,111.163 125.145,111.736 91.008,112.309 			"/>
		</g>
		<g>
			<polygon class="st5" points="91.008,135.904 125.145,136.476 91.008,137.05 			"/>
		</g>
		<g>
			<polygon class="st5" points="104.578,186.071 151.037,186.644 104.578,187.218 			"/>
		</g>
		<g>
			<polygon class="st5" points="104.578,194.318 116.435,194.891 104.578,195.464 			"/>
		</g>
		<g>
			<polygon class="st5" points="104.578,219.058 116.435,219.632 104.578,220.204 			"/>
		</g>
		<g>
			<polygon class="st5" points="59.526,272.319 162.283,272.892 59.526,273.465 			"/>
		</g>
		<g>
			<polygon class="st5" points="59.526,280.565 85.752,281.139 59.526,281.712 			"/>
		</g>
		<g>
			<polygon class="st5" points="59.526,305.306 85.752,305.879 59.526,306.452 			"/>
		</g>
	</g>
</g>
</svg>
