<?xml version="1.0" encoding="utf-8"?>
<!-- Generator: Adobe Illustrator 24.1.2, SVG Export Plug-In . SVG Version: 6.00 Build 0)  -->
<svg version="1.1" id="Layer_1" xmlns="http://www.w3.org/2000/svg" xmlns:xlink="http://www.w3.org/1999/xlink" x="0px" y="0px"
	 viewBox="0 0 164.602 164.602" enable-background="new 0 0 164.602 164.602" xml:space="preserve">
<g>
	<circle fill="#EFD481" cx="82.301" cy="82.301" r="82.301"/>
	<g>
		<path fill="#809B52" d="M67.476,84.516c-1.812,0.884-2.086,2.925-0.647,4.477c2.178,2.351,4.115,4.433,3.248,7.866
			c-1.055,4.176-5.505,6.978-9.639,5.783c-5.099-1.474-5.766-6.355-4.356-10.801c0.604-1.904-0.868-3.733-2.732-3.719l-10.196,2.603
			l-6.777,1.73l-0.238,0.061l1.401,5.489l10.388,40.677l-0.004,0.001l0.53,2.078l0.238-0.061l6.258-1.598l10.898-2.782
			c0.067,0.006,0.133,0.018,0.199,0.029l13.308-3.399c0.051-0.04,0.1-0.081,0.154-0.117l17.191-4.388l-0.061-0.239l0.131-0.038
			l-1.598-6.258l-2.783-10.897c0.15-1.736,1.894-3.045,3.707-2.47c4.446,1.409,9.327,0.742,10.8-4.357
			c1.195-4.135-1.425-8.72-5.601-9.774c-3.433-0.867-5.745,1.155-8.048,3.384c-1.326,1.283-3.397,0.956-4.347-0.443l-4.39-17.19
			l-7.065,1.804l0.001,0.004L67.476,84.516z"/>
		<path fill="#005D91" d="M100.479,59.742c-3.766,3.74-2.009,8.342,1.362,11.566c1.621,1.55,0.905,4.279-1.268,4.834L84.53,80.239
			L88.9,97.353c0.95,1.399,3.021,1.726,4.347,0.443c2.303-2.229,4.615-4.251,8.048-3.384c4.176,1.054,6.796,5.639,5.601,9.774
			c-1.473,5.099-6.354,5.766-10.8,4.357c-1.814-0.575-3.558,0.734-3.707,2.47l2.783,10.897l1.598,6.258l-0.131,0.038l0.061,0.239
			l-0.292,0.075l0.018,0.072l1.615-0.412l15.985-4.082l13.263-3.387l16.665-4.256l0.716-0.183l-0.061-0.238l-0.822-3.22
			l-0.909-3.557l-2.604-10.195l-3.607-14.126l-2.423-9.489l-1.894-7.418l-16.252,4.15c-2.125,0.543-4.043-1.413-3.461-3.528
			c0.85-3.09,1.514-6.089-0.894-8.685C108.812,56.807,103.532,56.71,100.479,59.742z"/>
		<path fill="#BD4764" d="M71.188,32.094L23.933,44.162l0.061,0.238l12.26,48.005L52.721,88.2c2.173-0.555,4.109,1.496,3.43,3.634
			c-1.412,4.446-0.747,9.327,4.351,10.803c4.134,1.197,8.72-1.42,9.777-5.596c0.869-3.433-1.151-5.746-3.379-8.05
			c-1.525-1.577-0.779-4.213,1.346-4.756l16.252-4.15l-4.318-16.907c-0.878-1.572-3.089-1.991-4.477-0.647
			c-2.303,2.229-4.615,4.251-8.048,3.384c-4.176-1.054-6.796-5.639-5.601-9.774c1.473-5.099,6.354-5.766,10.8-4.357
			c1.904,0.604,3.733-0.868,3.719-2.732l-2.604-10.195l-1.731-6.777l-0.061-0.238L71.188,32.094L71.188,32.094z"/>
	</g>
</g>
<g>
	<g>
		<defs>
			<rect id="SVGID_299_" x="-128.244" y="2708.746" width="1439.455" height="883.255"/>
		</defs>
		<clipPath id="SVGID_3_">
			<use xlink:href="#SVGID_299_"  overflow="visible"/>
		</clipPath>
		<g clip-path="url(#SVGID_3_)">
			
				<image overflow="visible" width="1440" height="6192" xlink:href="../Library/Containers/com.apple.mail/Data/Library/Mail Downloads/772F1B7A-6C1B-45B2-80CD-8408026097B7/cloudmigration-v1.png"  transform="matrix(1 0 0 1 -128.0686 -231.9054)">
			</image>
		</g>
	</g>
	<g>
		<defs>
			<rect id="SVGID_301_" x="-128.244" y="3562.207" width="1439.455" height="2202.033"/>
		</defs>
		<clipPath id="SVGID_5_">
			<use xlink:href="#SVGID_301_"  overflow="visible"/>
		</clipPath>
		<g clip-path="url(#SVGID_5_)">
			
				<image overflow="visible" width="1440" height="6192" xlink:href="../Library/Containers/com.apple.mail/Data/Library/Mail Downloads/772F1B7A-6C1B-45B2-80CD-8408026097B7/cloudmigration-v1.png"  transform="matrix(1 0 0 1 -128.0686 -424.5603)">
			</image>
		</g>
	</g>
</g>
</svg>
