<?xml version="1.0" encoding="utf-8"?>
<!-- Generator: Adobe Illustrator 24.1.2, SVG Export Plug-In . SVG Version: 6.00 Build 0)  -->
<svg version="1.1" id="Layer_1" xmlns="http://www.w3.org/2000/svg" xmlns:xlink="http://www.w3.org/1999/xlink" x="0px" y="0px"
	 viewBox="0 0 164.602 164.602" enable-background="new 0 0 164.602 164.602" xml:space="preserve">
<g>
	<circle fill="#BD4764" cx="82.301" cy="82.301" r="82.301"/>
	<g>
		<g>
			<path fill="#EED380" d="M111.742,99.033L111.742,99.033c0-3.563-2.513-6.649-6.013-7.381l-20.106-4.168
				c-6.235-1.304-12.757-0.127-18.134,3.277l-21.315,13.425l13.902,15.811h35.408c8.081,0,15.939-2.704,22.333-7.667l23.16-18.006
				c2.354-1.845,2.641-5.281,0.636-7.476l0,0c-1.591-1.75-4.199-2.195-6.299-1.018L111.742,99.033"/>
			<path fill="#809B52" d="M44.647,101.451l17.943,20.583c0.414,0.445,0.382,1.145-0.064,1.591l-15.27,15.27l-26.373-26.373
				l22.365-11.357C43.725,100.91,44.297,101.037,44.647,101.451z"/>
		</g>
		<g>
			
				<linearGradient id="SVGID_3_" gradientUnits="userSpaceOnUse" x1="57.8816" y1="2095.4609" x2="139.0694" y2="2095.4609" gradientTransform="matrix(1 0 0 -1 0 2147.6011)">
				<stop  offset="0" style="stop-color:#DFE1E1"/>
				<stop  offset="0.5326" style="stop-color:#DDDFE0"/>
				<stop  offset="0.7244" style="stop-color:#D6D9DA"/>
				<stop  offset="0.8611" style="stop-color:#CBCECF"/>
				<stop  offset="0.9709" style="stop-color:#BBBEC0"/>
				<stop  offset="1" style="stop-color:#B5B9BB"/>
			</linearGradient>
			<path fill="url(#SVGID_3_)" d="M139.069,64.261c0-6.808-5.536-12.344-12.344-12.344c-0.795,0-1.591,0.095-2.354,0.223
				c0.223-0.827,0.35-1.718,0.35-2.641c0-5.695-4.613-10.339-10.339-10.339c-2.513,0-4.836,0.923-6.649,2.418
				c-2.354-7.985-9.799-13.871-18.611-13.871c-10.753,0-19.47,8.717-19.47,19.47c0,0.827,0.064,1.654,0.159,2.45
				c-6.713,0.795-11.93,6.49-11.93,13.425c0,7.476,6.045,13.521,13.521,13.521h57.582C134.552,75.427,139.069,70.21,139.069,64.261z
				"/>
			<polygon fill="#74A7D3" points="56.641,32.734 64.149,30.539 61.954,38.047 64.149,45.586 56.641,43.36 49.133,45.586 
				51.328,38.047 49.133,30.539 			"/>
			<polygon fill="#FFFFFF" points="47.288,54.367 51.328,53.19 50.151,57.23 51.328,61.302 47.288,60.093 43.247,61.302 
				44.425,57.23 43.247,53.19 			"/>
			<g>
				<g>
					<g>
						<path fill="#005D91" d="M140.883,67.888l-0.095-0.032l-0.414-0.954l0.032-0.095c1.209-2.768,1.145-2.863,0.923-3.054
							l-1.622-1.591c-0.064-0.064-0.191-0.127-0.286-0.127c-0.095,0-0.382,0-2.768,1.082l-0.095,0.032l-0.986-0.414l-0.032-0.095
							c-1.145-2.8-1.241-2.8-1.527-2.8h-2.291c-0.286,0-0.414,0-1.463,2.8l-0.032,0.095l-0.986,0.414l-0.095-0.032
							c-1.622-0.7-2.577-1.05-2.831-1.05c-0.095,0-0.223,0.032-0.286,0.095l-1.622,1.591c-0.223,0.191-0.286,0.286,0.986,2.99
							l0.032,0.095l-0.414,0.954l-0.095,0.032c-2.863,1.113-2.863,1.209-2.863,1.495v2.259c0,0.286,0,0.414,2.863,1.432l0.095,0.032
							l0.414,0.954l-0.032,0.095c-1.209,2.768-1.145,2.831-0.923,3.054l1.622,1.591c0.064,0.064,0.191,0.127,0.286,0.127
							s0.382,0,2.768-1.082l0.095-0.032l0.986,0.414l0.032,0.095c1.145,2.8,1.241,2.8,1.527,2.8h2.291c0.286,0,0.414,0,1.463-2.8
							l0.032-0.095l0.986-0.414l0.095,0.032c1.622,0.7,2.577,1.05,2.831,1.05c0.095,0,0.223-0.032,0.286-0.095l1.622-1.591
							c0.191-0.191,0.286-0.286-0.986-2.99l-0.064-0.095l0.414-0.954l0.095-0.032c2.863-1.113,2.863-1.209,2.863-1.527v-2.259
							C143.746,69.033,143.746,68.906,140.883,67.888z M132.898,74.155c-2.068,0-3.722-1.654-3.722-3.659
							c0-2.004,1.686-3.659,3.722-3.659c2.068,0,3.722,1.654,3.722,3.659C136.62,72.501,134.934,74.155,132.898,74.155z"/>
					</g>
				</g>
			</g>
		</g>
	</g>
</g>
</svg>
