<?xml version="1.0" encoding="utf-8"?>
<!-- Generator: Adobe Illustrator 24.1.2, SVG Export Plug-In . SVG Version: 6.00 Build 0)  -->
<svg version="1.1" id="Layer_1" xmlns="http://www.w3.org/2000/svg" xmlns:xlink="http://www.w3.org/1999/xlink" x="0px" y="0px"
	 viewBox="0 0 164.602 164.602" enable-background="new 0 0 164.602 164.602" xml:space="preserve">
<g>
	<g>
		<g>
			<circle fill="#809B52" cx="82.301" cy="82.301" r="82.301"/>
		</g>
	</g>
	<g>
		<g>
			<path fill="#4B4F54" d="M100.059,127.645l-17.358-25.447c-0.192-0.281-0.607-0.281-0.799,0l-17.358,25.447
				c-0.219,0.321,0.011,0.756,0.4,0.756h34.716C100.048,128.401,100.278,127.966,100.059,127.645z"/>
		</g>
		<g>
			<path fill="#4B4F54" d="M145.382,106.152H19.221c-2.485,0-4.5-2.015-4.5-4.5s2.015-4.5,4.5-4.5h126.161
				c2.485,0,4.5,2.015,4.5,4.5S147.867,106.152,145.382,106.152z"/>
		</g>
		<g>
			<g>
				<g>
					<g>
						<circle fill="#EED380" cx="119.677" cy="68.034" r="23.408"/>
					</g>
					<g>
						<path fill="#FFFFFF" d="M119.678,87.253c-10.598,0-19.219-8.622-19.219-19.219s8.622-19.219,19.219-19.219
							c10.597,0,19.219,8.622,19.219,19.219S130.275,87.253,119.678,87.253z M119.678,49.945c-9.974,0-18.088,8.114-18.088,18.088
							s8.114,18.088,18.088,18.088c9.974,0,18.088-8.114,18.088-18.088S129.651,49.945,119.678,49.945z"/>
					</g>
				</g>
			</g>
			<g>
				<path fill="#BD4764" d="M125.176,58.976c-2.264,0-4.263,1.111-5.499,2.813c-1.235-1.702-3.235-2.813-5.499-2.813
					c-3.754,0-6.796,3.043-6.796,6.796c0,8.599,12.295,12.926,12.295,12.926s12.295-5.228,12.295-12.926
					C131.973,62.019,128.93,58.976,125.176,58.976z"/>
			</g>
		</g>
		<g>
			<g>
				<g>
					<g>
						<circle fill="#EED380" cx="44.925" cy="67.61" r="23.408"/>
					</g>
					<g>
						<path fill="#FFFFFF" d="M44.925,86.828c-10.598,0-19.219-8.622-19.219-19.219c0-10.598,8.622-19.219,19.219-19.219
							c10.597,0,19.219,8.622,19.219,19.219C64.144,78.207,55.522,86.828,44.925,86.828z M44.925,49.521
							c-9.974,0-18.088,8.114-18.088,18.088c0,9.974,8.114,18.088,18.088,18.088c9.974,0,18.088-8.114,18.088-18.088
							C63.013,57.636,54.899,49.521,44.925,49.521z"/>
					</g>
				</g>
			</g>
			<g>
				<g>
					<g>
						<g>
							<path fill="#005D91" d="M54.029,64.838l-0.11-0.055l-0.44-1.1l0.055-0.11c1.375-3.135,1.32-3.245,1.045-3.465l-1.87-1.815
								c-0.055-0.055-0.22-0.11-0.33-0.11s-0.44,0-3.135,1.265l-0.11,0.055l-1.155-0.44l-0.055-0.11
								c-1.265-3.19-1.43-3.19-1.76-3.19h-2.586c-0.33,0-0.44,0-1.65,3.19l-0.055,0.11l-1.1,0.44l-0.11-0.055
								c-1.87-0.77-2.915-1.155-3.245-1.155c-0.11,0-0.275,0.055-0.33,0.11l-1.87,1.815c-0.22,0.22-0.33,0.33,1.155,3.41l0.055,0.11
								l-0.44,1.1l-0.11,0.055c-3.3,1.265-3.3,1.375-3.3,1.705v2.585c0,0.33,0,0.44,3.3,1.65l0.11,0.055l0.44,1.1l-0.055,0.11
								c-1.375,3.135-1.32,3.245-1.045,3.465l1.87,1.815c0.055,0.055,0.22,0.11,0.33,0.11c0.11,0,0.44,0,3.135-1.265l0.11-0.055
								l1.155,0.44l0.055,0.11c1.265,3.19,1.43,3.19,1.76,3.19h2.585c0.33,0,0.44,0,1.65-3.19l0.055-0.11l1.1-0.44l0.11,0.055
								c1.87,0.77,2.915,1.155,3.19,1.155c0.11,0,0.275-0.055,0.33-0.11l1.87-1.815c0.22-0.22,0.33-0.33-1.155-3.41v-0.165l0.44-1.1
								h0.11c3.245-1.265,3.245-1.375,3.245-1.705v-2.585C57.274,66.158,57.274,65.993,54.029,64.838z M44.952,71.989
								c-2.365,0-4.235-1.87-4.235-4.181c0-2.31,1.925-4.181,4.235-4.181c2.365,0,4.235,1.87,4.235,4.181
								C49.188,70.119,47.263,71.989,44.952,71.989z"/>
						</g>
					</g>
				</g>
			</g>
		</g>
		<g>
			<path fill="#D9DBDC" d="M70.629,89.353c0,4.459-11.508,8.075-25.704,8.075s-25.704-3.615-25.704-8.075H70.629z"/>
		</g>
		<g>
			<path fill="#D9DBDC" d="M145.382,89.353c0,4.459-11.508,8.075-25.704,8.075s-25.704-3.615-25.704-8.075H145.382z"/>
		</g>
	</g>
</g>
</svg>
