<?xml version="1.0" encoding="utf-8"?>
<!-- Generator: Adobe Illustrator 24.1.2, SVG Export Plug-In . SVG Version: 6.00 Build 0)  -->
<svg version="1.1" id="Layer_1" xmlns="http://www.w3.org/2000/svg" xmlns:xlink="http://www.w3.org/1999/xlink" x="0px" y="0px"
	 viewBox="0 0 164.602 164.602" enable-background="new 0 0 164.602 164.602" xml:space="preserve">
<g>
	<circle fill="#809B52" cx="82.301" cy="82.301" r="82.301"/>
	<g>
		<defs>
			<circle id="SVGID_278_" cx="82.301" cy="82.301" r="82.301"/>
		</defs>
		<clipPath id="SVGID_3_">
			<use xlink:href="#SVGID_278_"  overflow="visible"/>
		</clipPath>
		<g clip-path="url(#SVGID_3_)">
			<path fill-rule="evenodd" clip-rule="evenodd" fill="#EFD481" d="M113.951,107.508c13.336-8.984,22.55-34.292,8.137-57.606
				c-4.133-11.462-12.75-17.461-22.661-20.027c-8.091-3.061-16.474-3.151-23.328-0.766c-13.62,1.809-25.695,6.515-29.259,9.404
				c0.355,8.941,1.623,13.676,8.706,15.485c-0.608,0.821-1.154,1.661-1.617,2.523c-2.248,4.259-3.993,9.801-5.233,15.977
				c-0.494,1.221-6.872,16.972-9.446,22.208c-2.06,4.192,2.753,5.2,7.219,5.445c0.458,17.919,4.565,34.039,12.413,36.131
				c5.906,1.509,18.653-2.33,31.39-9.976l-7.858,57.136l47.597-0.115l-16.473-76.284
				C113.677,107.198,113.81,107.352,113.951,107.508z"/>
			<g>
				<g>
					<g>
						<path fill="#005D91" d="M91.69,94.476l3.437,2.004c0.439,0.256,0.585,0.341,4.783-2.993l0.085-0.146l1.804,0.268l0.219,0.128
							c2.944,4.363,3.175,4.302,3.638,4.18l3.863-1.079c0.116-0.03,0.317-0.207,0.402-0.354c0.213-0.366,0.512-2.054,0.938-5.137
							l0.012-0.189l1.438-1.121l0.189,0.012c5.18,0.865,5.265,0.718,5.521,0.28l2.004-3.437c0.256-0.439,0.384-0.658-2.877-4.814
							l-0.104-0.158l0.311-1.877l0.158-0.104c3.772-2.602,4.028-3.041,4.113-3.188c0.085-0.146,0.14-0.408,0.11-0.524l-0.963-3.894
							c-0.079-0.536-0.183-0.695-5.417-1.297l-0.189-0.012l-1.121-1.438l0.012-0.189c0.95-5.326,0.804-5.411,0.365-5.667
							l-3.437-2.004c-0.439-0.256-0.585-0.341-4.826,3.066L106,64.895l-1.804-0.268l-0.104-0.158
							c-2.944-4.363-3.175-4.302-3.638-4.18l-3.863,1.079c-0.116,0.03-0.317,0.207-0.402,0.353c-0.256,0.439-0.554,2.127-0.98,5.21
							l-0.012,0.189l-1.438,1.121l-0.189-0.012c-5.18-0.865-5.265-0.718-5.521-0.28l-2.004,3.437
							c-0.256,0.439-0.384,0.658,2.877,4.814l0.104,0.158l-0.311,1.877l-0.158,0.104c-3.772,2.602-4.028,3.041-4.113,3.188
							c-0.085,0.146-0.14,0.408-0.11,0.524l0.963,3.894c0.079,0.536,0.183,0.695,5.417,1.297l0.189,0.012l1.121,1.438l-0.012,0.189
							C91.031,94.092,91.251,94.22,91.69,94.476z M99.714,84.749c-3.071-1.791-4.108-5.728-2.274-8.872
							c1.791-3.071,5.77-4.181,8.842-2.39s4.108,5.728,2.274,8.872C106.764,85.431,102.785,86.54,99.714,84.749z"/>
					</g>
				</g>
			</g>
			<g>
				<g>
					<g>
						<path fill="#809B52" d="M77.908,56.649l2.074,1.867c0.265,0.238,0.353,0.318,3.712-1.372l0.079-0.088l1.201,0.441l0.132,0.119
							c1.399,3.417,1.567,3.408,1.902,3.39l2.807-0.19c0.084-0.004,0.247-0.097,0.327-0.185c0.199-0.221,0.645-1.337,1.377-3.394
							l0.035-0.128l1.148-0.565l0.128,0.035c3.434,1.333,3.513,1.245,3.752,0.98l1.867-2.074c0.238-0.265,0.358-0.397-1.289-3.717
							l-0.049-0.124l0.481-1.245l0.124-0.049c2.962-1.249,3.2-1.514,3.28-1.602c0.079-0.088,0.155-0.26,0.15-0.344l-0.106-2.812
							c0.022-0.38-0.026-0.503-3.535-1.664l-0.128-0.035l-0.565-1.148l0.035-0.128c1.413-3.522,1.324-3.602,1.06-3.84l-2.074-1.867
							c-0.265-0.238-0.353-0.318-3.752,1.417l-0.124,0.049l-1.201-0.441l-0.049-0.124c-1.399-3.417-1.567-3.408-1.902-3.39
							L86,34.611c-0.084,0.004-0.247,0.097-0.327,0.185c-0.238,0.265-0.684,1.382-1.417,3.438l-0.035,0.128l-1.148,0.565
							l-0.128-0.035c-3.434-1.333-3.513-1.245-3.752-0.98l-1.867,2.074c-0.238,0.265-0.358,0.397,1.289,3.717l0.049,0.124
							l-0.481,1.245l-0.124,0.049c-2.962,1.249-3.2,1.514-3.28,1.602c-0.079,0.088-0.155,0.26-0.15,0.344l0.106,2.812
							c-0.022,0.38,0.026,0.503,3.535,1.664l0.128,0.035l0.565,1.148l-0.035,0.128C77.51,56.291,77.643,56.411,77.908,56.649z
							 M84.807,51.114c-1.854-1.669-2.004-4.52-0.295-6.418c1.669-1.854,4.56-2.048,6.413-0.379c1.854,1.669,2.004,4.52,0.295,6.418
							C89.552,52.589,86.661,52.783,84.807,51.114z"/>
					</g>
				</g>
			</g>
			<g>
				<g>
					<g>
						<path fill="#BD4764" d="M66.072,77.898l1.918,1.118c0.245,0.143,0.326,0.19,2.669-1.67l0.048-0.082l1.006,0.149l0.122,0.071
							c1.643,2.434,1.772,2.4,2.03,2.332l2.156-0.602c0.065-0.017,0.177-0.116,0.224-0.197c0.119-0.204,0.285-1.146,0.523-2.866
							l0.007-0.105l0.802-0.626l0.105,0.007c2.89,0.482,2.938,0.401,3.08,0.156l1.118-1.918c0.143-0.245,0.214-0.367-1.605-2.686
							l-0.058-0.088l0.173-1.047l0.088-0.058c2.104-1.452,2.247-1.697,2.295-1.779c0.048-0.082,0.078-0.228,0.061-0.292
							l-0.537-2.173c-0.044-0.299-0.102-0.388-3.023-0.724l-0.105-0.007l-0.626-0.802l0.007-0.105
							c0.53-2.972,0.448-3.019,0.204-3.162l-1.918-1.118c-0.245-0.143-0.326-0.19-2.693,1.711l-0.088,0.058l-1.006-0.149
							l-0.058-0.088c-1.643-2.434-1.772-2.4-2.03-2.332l-2.156,0.602c-0.065,0.017-0.177,0.116-0.224,0.197
							c-0.143,0.245-0.309,1.187-0.547,2.907l-0.007,0.105l-0.802,0.626l-0.105-0.007c-2.89-0.482-2.938-0.401-3.08-0.156
							l-1.118,1.918c-0.143,0.245-0.214,0.367,1.605,2.686l0.058,0.088l-0.173,1.047l-0.088,0.058
							c-2.104,1.452-2.247,1.697-2.295,1.779c-0.048,0.082-0.078,0.228-0.061,0.292l0.537,2.173
							c0.044,0.299,0.102,0.388,3.023,0.724l0.105,0.007l0.626,0.802l-0.007,0.105C65.704,77.683,65.827,77.755,66.072,77.898z
							 M70.549,72.471c-1.714-0.999-2.292-3.196-1.269-4.95c0.999-1.714,3.22-2.333,4.933-1.333c1.714,0.999,2.292,3.196,1.269,4.95
							C74.483,72.851,72.262,73.47,70.549,72.471z"/>
					</g>
				</g>
			</g>
		</g>
	</g>
</g>
</svg>
