<?xml version="1.0" encoding="utf-8"?>
<!-- Generator: Adobe Illustrator 24.1.2, SVG Export Plug-In . SVG Version: 6.00 Build 0)  -->
<svg version="1.1" id="Layer_1" xmlns="http://www.w3.org/2000/svg" xmlns:xlink="http://www.w3.org/1999/xlink" x="0px" y="0px"
	 viewBox="0 0 247.887 230.411" enable-background="new 0 0 247.887 230.411" xml:space="preserve">
<g>
	<g>
		<polygon id="Fill-10_209_" fill-rule="evenodd" clip-rule="evenodd" fill="#B5B9BB" fill-opacity="0.2" points="123.946,61.796 
			185.741,30.333 123.946,0 		"/>
		<polygon id="Fill-10_208_" fill-rule="evenodd" clip-rule="evenodd" fill="#FFFFFF" points="186.091,61.796 247.887,30.333 
			186.091,0 		"/>
		<polygon id="Fill-10_207_" fill-rule="evenodd" clip-rule="evenodd" fill="#74A7D3" points="186.091,61.796 247.887,30.333 
			186.091,0 		"/>
	</g>
	<g>
		<circle fill="#EED380" cx="126.692" cy="124.998" r="90.907"/>
		<circle fill="none" stroke="#FFFFFF" stroke-width="3.0038" stroke-miterlimit="10" cx="126.692" cy="124.998" r="72.444"/>
		<g>
			<path fill="#0E2F47" d="M130.985,157.358v10.124h-7.411v-10.035c-8.859-0.541-17.445-3.433-22.146-7.502l4.069-9.129
				c4.429,3.614,11.208,6.237,18.078,6.869v-18.079c-10.033-2.438-20.791-5.693-20.791-18.258c0-9.221,6.689-17.265,20.791-18.62
				V82.513h7.411v10.035c6.689,0.362,13.469,2.349,18.35,5.514l-3.707,9.129c-4.79-2.803-9.852-4.339-14.644-4.882v18.261
				c10.035,2.438,20.97,5.604,20.97,18.168C151.956,147.957,145.178,155.912,130.985,157.358z M123.574,118.67v-16.087
				c-6.417,0.992-9.13,4.247-9.13,8.224C114.444,115.145,118.331,117.134,123.574,118.67z M140.386,139.552
				c0-4.431-3.976-6.51-9.401-8.045v15.998C137.584,146.51,140.386,143.437,140.386,139.552z"/>
		</g>
	</g>
	<g>
		<polygon id="Fill-10_206_" fill-rule="evenodd" clip-rule="evenodd" fill="#0E2F47" points="0,230.411 61.796,198.948 0,168.615 
					"/>
		<polygon id="Fill-10_205_" fill-rule="evenodd" clip-rule="evenodd" fill="#FFFFFF" points="62.145,230.411 123.941,198.948 
			62.145,168.615 		"/>
		<polygon id="Fill-10_199_" fill-rule="evenodd" clip-rule="evenodd" fill="#74A7D3" points="62.145,230.411 123.941,198.948 
			62.145,168.615 		"/>
	</g>
</g>
</svg>
