<?xml version="1.0" encoding="utf-8"?>
<!-- Generator: Adobe Illustrator 24.1.2, SVG Export Plug-In . SVG Version: 6.00 Build 0)  -->
<svg version="1.1" id="Layer_1" xmlns="http://www.w3.org/2000/svg" xmlns:xlink="http://www.w3.org/1999/xlink" x="0px" y="0px"
	 viewBox="0 0 334.844 250.264" enable-background="new 0 0 334.844 250.264" xml:space="preserve">
<g>
	<g>
		<g>
			<path fill="#9DC5DF" d="M334.844,176.559H220.832V100.93h114.013V176.559z M234.606,162.785h86.465v-48.081h-86.465V162.785z"/>
		</g>
		<g>
			<g>
				<g>
					<g>
						<path fill="#74A7D3" d="M262.09,137.026v3.297c0,0.421,0,0.561,4.139,2.175h0.14l0.561,1.403v0.21
							c-1.894,3.928-1.754,4.068-1.473,4.349l2.385,2.315c0.07,0.07,0.281,0.14,0.421,0.14c0.35,0,1.684-0.491,4.069-1.473
							l0.14-0.07l1.403,0.561l0.07,0.14c1.544,4.068,1.684,4.068,2.105,4.068h3.297c0.421,0,0.631,0,2.245-4.068l0.07-0.14
							l1.473-0.561l0.14,0.07c3.438,1.613,3.858,1.613,3.999,1.613s0.35-0.07,0.421-0.14l2.385-2.315
							c0.35-0.281,0.421-0.421-1.333-4.42l-0.071-0.14l0.561-1.403l0.14-0.07c4.209-1.544,4.209-1.684,4.209-2.105v-3.297
							c0-0.421,0-0.561-4.209-2.175l-0.14-0.07l-0.561-1.403l0.071-0.14c1.894-3.928,1.754-4.068,1.473-4.349l-2.385-2.315
							c-0.07-0.07-0.281-0.14-0.421-0.14c-0.421,0-1.754,0.491-4.139,1.473l-0.14,0.07l-1.403-0.561l-0.07-0.14
							c-1.544-4.068-1.684-4.068-2.105-4.068h-3.297c-0.421,0-0.631,0-2.245,4.068l-0.07,0.14l-1.473,0.561l-0.14-0.07
							c-3.437-1.613-3.858-1.613-3.999-1.613s-0.35,0.07-0.421,0.14l-2.385,2.315c-0.35,0.281-0.421,0.421,1.333,4.42l0.07,0.14
							l-0.561,1.403l-0.14,0.07C262.09,136.394,262.09,136.605,262.09,137.026z M272.402,138.709c0-2.946,2.385-5.331,5.401-5.331
							c2.946,0,5.401,2.385,5.401,5.331c0,2.946-2.385,5.331-5.401,5.331C274.857,144.04,272.402,141.655,272.402,138.709z"/>
					</g>
				</g>
			</g>
		</g>
	</g>
	<g>
		<g>
			<path fill="#9DC5DF" d="M208.198,250.264H49.751V147.217h158.448V250.264z M63.525,236.49h130.9v-75.5h-130.9V236.49z"/>
		</g>
		<g>
			<g>
				<polygon fill="#809B52" points="126.531,229.659 98.917,202.044 127.973,172.988 154.18,174.396 155.588,200.603 				"/>
			</g>
			<g>
				<circle fill="#FFFFFF" cx="146.19" cy="182.386" r="2.954"/>
			</g>
			<g>
				<g>
					<path fill="#FFFFFF" d="M122.489,208.036l-2.297,2.297l-1.681-1.681l2.277-2.277c-1.887-2.132-3.179-4.737-3.323-6.727
						l2.994-1.148c0.185,1.825,1.128,3.957,2.543,5.66l4.102-4.102c-1.723-2.83-3.425-6.009-0.575-8.859
						c2.092-2.092,5.435-2.399,8.942,0.492l2.317-2.317l1.681,1.681l-2.277,2.277c1.435,1.6,2.523,3.589,2.912,5.415l-2.912,1.23
						c-0.451-1.723-1.251-3.22-2.215-4.43l-4.143,4.143c1.723,2.83,3.487,6.03,0.635,8.88
						C129.379,210.661,126.036,210.928,122.489,208.036z M129.585,197.577l3.65-3.65c-1.681-1.231-3.035-1.108-3.938-0.206
						C128.313,194.705,128.744,196.039,129.585,197.577z M128.661,206.129c1.006-1.005,0.575-2.379-0.307-3.958l-3.629,3.629
						C126.447,207.072,127.78,207.01,128.661,206.129z"/>
				</g>
			</g>
		</g>
	</g>
	<g>
		<g>
			<path fill="#9DC5DF" d="M208.198,133.747H0V0h208.198V133.747z M13.774,119.973h180.65V13.774H13.774V119.973z"/>
		</g>
		<g>
			<g>
				<path fill="#0E2F47" d="M83.583,44.759c-0.024-0.009-0.046-0.021-0.071-0.03c-5.537-1.99-11.639,0.884-13.629,6.421
					s0.884,11.639,6.421,13.629c0.024,0.009,0.049,0.014,0.074,0.022L83.583,44.759z"/>
			</g>
			<g>
				<polygon fill="#BD4764" points="124.322,88.046 66.726,88.921 91.497,20.016 135.353,57.364 				"/>
			</g>
			<g>
				
					<rect x="112.149" y="89.837" transform="matrix(0.3383 -0.941 0.941 0.3383 -6.4779 186.3153)" fill="#0E2F47" width="34.197" height="15.854"/>
			</g>
			<g>
				<path fill="#0E2F47" d="M124.322,88.046l16.082,5.782c8.473,3.046,17.811-1.353,20.857-9.826l0,0
					c3.046-8.473-1.353-17.811-9.826-20.857l-16.082-5.782L124.322,88.046z"/>
			</g>
			<g>
				<g>
					
						<rect x="52.429" y="36.97" transform="matrix(0.3383 -0.941 0.941 0.3383 -6.9333 81.2478)" fill="#0E2F47" width="3.757" height="17.168"/>
				</g>
				<g>
					
						<rect x="63.101" y="23.141" transform="matrix(0.9046 -0.4262 0.4262 0.9046 -7.3241 30.7207)" fill="#0E2F47" width="3.756" height="17.168"/>
				</g>
				<g>
					
						<rect x="45.153" y="61.129" transform="matrix(0.9047 -0.4261 0.4261 0.9047 -21.7246 28.903)" fill="#0E2F47" width="17.17" height="3.757"/>
				</g>
			</g>
		</g>
	</g>
</g>
</svg>
