<?xml version="1.0" encoding="utf-8"?>
<!-- Generator: Adobe Illustrator 24.1.2, SVG Export Plug-In . SVG Version: 6.00 Build 0)  -->
<svg version="1.1" id="Layer_1" xmlns="http://www.w3.org/2000/svg" xmlns:xlink="http://www.w3.org/1999/xlink" x="0px" y="0px"
	 viewBox="0 0 265.947 248.951" enable-background="new 0 0 265.947 248.951" xml:space="preserve">
<g>
	<g>
		<g>
			
				<linearGradient id="SVGID_3_" gradientUnits="userSpaceOnUse" x1="57.448" y1="2779.571" x2="215.4729" y2="2779.571" gradientTransform="matrix(1 0 0 -1 0 2873.2622)">
				<stop  offset="0" style="stop-color:#DFE1E1"/>
				<stop  offset="0.5326" style="stop-color:#DDDFE0"/>
				<stop  offset="0.7244" style="stop-color:#D6D9DA"/>
				<stop  offset="0.8611" style="stop-color:#CBCECF"/>
				<stop  offset="0.9709" style="stop-color:#BBBEC0"/>
				<stop  offset="1" style="stop-color:#B5B9BB"/>
			</linearGradient>
			<path fill="url(#SVGID_3_)" d="M201.031,124.528c0,0-0.001-0.001-0.004-0.001c9.089-12.869,14.446-28.561,14.446-45.514
				C215.474,35.374,180.099,0,136.462,0C92.823,0,57.448,35.374,57.448,79.014c0,16.952,5.358,32.644,14.445,45.514
				c-0.001,0-0.001,0.001-0.003,0.001c0.031,0.042,0.058,0.08,0.09,0.122c0.772,1.088,1.57,2.157,2.396,3.204
				c28.273,38.124,35.072,59.529,35.072,59.529h27.014h27.013c0,0,6.798-21.405,35.073-59.529c0.822-1.047,1.62-2.115,2.393-3.204
				C200.973,124.608,201.001,124.569,201.031,124.528z"/>
		</g>
		<g>
			<path fill="#4C4F54" d="M122.932,240.751l1.775,5.578c0.445,1.451,1.87,2.622,3.157,2.622h17.153c1.283,0,2.71-1.171,3.155-2.622
				l1.775-5.578H122.932z"/>
			<path fill="#4C4F54" d="M109.448,187.392c0,0,0.166,38.935,0.201,39.145c0.181,1.297,0.513,2.519,0.979,3.642
				c0.838,2.363,1.706,3.056,1.706,3.056c1.649,2.152,3.84,3.466,6.256,3.466h35.697c4.624,0,8.464-4.828,9.049-11.022l0.096-0.014
				v-38.272L109.448,187.392L109.448,187.392z"/>
		</g>
	</g>
	<g>
		<g>
			<g>
				<path fill="#74A7D3" d="M141.516,159.686v13.025c0,1.663,0,2.217,16.35,8.591h0.554l2.217,5.542v0.831
					c-7.483,15.519-6.928,16.074-5.82,17.182l9.422,9.145c0.277,0.277,1.108,0.554,1.663,0.554c1.386,0,6.651-1.94,16.074-5.82
					l0.554-0.277l5.542,2.217l0.277,0.554c6.097,16.074,6.651,16.074,8.314,16.074h13.025c1.663,0,2.494,0,8.868-16.074l0.277-0.554
					l5.82-2.217l0.554,0.277c13.579,6.374,15.242,6.374,15.796,6.374c0.554,0,1.386-0.277,1.663-0.554l9.422-9.145
					c1.386-1.109,1.663-1.663-5.266-17.459l-0.277-0.554l2.217-5.542l0.554-0.277c16.628-6.096,16.628-6.651,16.628-8.314V160.24
					c0-1.663,0-2.217-16.628-8.591l-0.554-0.277l-2.217-5.542l0.277-0.554c7.483-15.519,6.928-16.074,5.82-17.182l-9.422-9.145
					c-0.277-0.277-1.108-0.554-1.663-0.554c-1.663,0-6.928,1.94-16.35,5.82l-0.554,0.277l-5.542-2.217l-0.277-0.554
					c-6.097-16.074-6.651-16.074-8.314-16.074h-13.025c-1.663,0-2.494,0-8.868,16.074l-0.277,0.554l-5.82,2.217l-0.554-0.277
					c-13.579-6.374-15.242-6.374-15.796-6.374s-1.386,0.277-1.663,0.554l-9.422,9.145c-1.386,1.108-1.663,1.663,5.266,17.459
					l0.277,0.554l-2.217,5.542l-0.554,0.277C141.516,157.192,141.516,158.023,141.516,159.686z M182.254,166.337
					c0-11.64,9.422-21.062,21.339-21.062c11.64,0,21.339,9.422,21.339,21.062c0,11.64-9.422,21.062-21.339,21.062
					C191.953,187.398,182.254,177.976,182.254,166.337z"/>
			</g>
		</g>
	</g>
	<g>
		<polygon id="Fill-10_214_" fill-rule="evenodd" clip-rule="evenodd" fill="#EED380" points="0,80.65 57.158,51.548 0,23.491 		"/>
		<polygon id="Fill-10_213_" fill-rule="evenodd" clip-rule="evenodd" fill="#FFFFFF" points="57.482,80.65 114.641,51.548 
			57.482,23.491 		"/>
		<polygon id="Fill-10_211_" fill-rule="evenodd" clip-rule="evenodd" fill="#235D80" fill-opacity="0.5" points="57.482,80.65 
			114.641,51.548 57.482,23.491 		"/>
	</g>
</g>
</svg>
