<?xml version="1.0" encoding="utf-8"?>
<!-- Generator: Adobe Illustrator 24.1.2, SVG Export Plug-In . SVG Version: 6.00 Build 0)  -->
<svg version="1.1" id="Layer_1" xmlns="http://www.w3.org/2000/svg" xmlns:xlink="http://www.w3.org/1999/xlink" x="0px" y="0px"
	 viewBox="0 0 164.602 164.602" enable-background="new 0 0 164.602 164.602" xml:space="preserve">
<g>
	<g>
		<g>
			<circle fill="#74A7D3" cx="82.301" cy="82.301" r="82.301"/>
		</g>
	</g>
	<g>
		<g>
			<path fill="#BD4764" d="M102.559,26.194H62.043c-1.91,0-3.741,0.759-5.091,2.109L28.303,56.952
				c-1.35,1.35-2.109,3.182-2.109,5.091v40.516c0,1.91,0.759,3.741,2.109,5.091L56.952,136.3c1.35,1.35,3.182,2.109,5.091,2.109
				h40.516c1.91,0,3.741-0.759,5.091-2.109l28.649-28.649c1.35-1.35,2.109-3.182,2.109-5.091V62.043c0-1.91-0.759-3.741-2.109-5.091
				l-28.649-28.649C106.3,26.952,104.469,26.194,102.559,26.194z"/>
		</g>
		<g>
			<path fill="#FFFFFF" d="M102.559,141.409H62.043c-2.725,0-5.286-1.061-7.212-2.988l-28.649-28.649
				c-1.927-1.927-2.987-4.488-2.987-7.212V62.043c0-2.725,1.061-5.286,2.987-7.212l28.649-28.649
				c1.927-1.927,4.488-2.988,7.212-2.988h40.516c2.725,0,5.286,1.061,7.212,2.988l28.649,28.649
				c1.927,1.926,2.988,4.488,2.988,7.212v40.516c0,2.724-1.061,5.285-2.987,7.212l-28.65,28.649
				C107.846,140.347,105.284,141.409,102.559,141.409z M62.043,29.194c-1.122,0-2.177,0.437-2.97,1.23L30.423,59.073
				c-0.793,0.793-1.229,1.848-1.229,2.97v40.516c0,1.122,0.437,2.177,1.23,2.97l28.649,28.648c0.793,0.793,1.848,1.23,2.97,1.23
				h40.516c1.122,0,2.177-0.437,2.97-1.23l28.65-28.649c0.793-0.793,1.23-1.848,1.23-2.97V62.043c0-1.122-0.437-2.177-1.23-2.97
				l-28.649-28.649c-0.793-0.793-1.848-1.23-2.97-1.23H62.043z"/>
		</g>
	</g>
	<g>
		<path fill="#FFFFFF" d="M99.092,104.093c-1.28,0-2.559-0.488-3.536-1.464L61.974,69.046c-1.953-1.953-1.953-5.119,0-7.071
			c1.953-1.952,5.118-1.952,7.071,0l33.583,33.583c1.953,1.953,1.953,5.119,0,7.071C101.652,103.604,100.372,104.093,99.092,104.093
			z"/>
	</g>
	<g>
		<path fill="#FFFFFF" d="M65.51,104.093c-1.28,0-2.559-0.488-3.536-1.464c-1.953-1.953-1.953-5.119,0-7.071l33.583-33.583
			c1.953-1.952,5.118-1.952,7.071,0c1.953,1.953,1.953,5.119,0,7.071l-33.583,33.583C68.069,103.604,66.79,104.093,65.51,104.093z"
			/>
	</g>
</g>
</svg>
