<?xml version="1.0" encoding="utf-8"?>
<!-- Generator: Adobe Illustrator 24.1.2, SVG Export Plug-In . SVG Version: 6.00 Build 0)  -->
<svg version="1.1" id="Layer_1" xmlns="http://www.w3.org/2000/svg" xmlns:xlink="http://www.w3.org/1999/xlink" x="0px" y="0px"
	 viewBox="0 0 177.929 154.186" enable-background="new 0 0 177.929 154.186" xml:space="preserve">
<g>
	<linearGradient id="SVGID_3_" gradientUnits="userSpaceOnUse" x1="0" y1="105.3072" x2="162.3823" y2="105.3072">
		<stop  offset="0" style="stop-color:#DFE1E1"/>
		<stop  offset="0.5326" style="stop-color:#DDDFE0"/>
		<stop  offset="0.7244" style="stop-color:#D6D9DA"/>
		<stop  offset="0.8611" style="stop-color:#CBCECF"/>
		<stop  offset="0.9709" style="stop-color:#BBBEC0"/>
		<stop  offset="1" style="stop-color:#B5B9BB"/>
	</linearGradient>
	<path fill="url(#SVGID_3_)" d="M162.382,129.44c0-13.634-11.044-24.678-24.678-24.678c-1.636,0-3.204,0.205-4.772,0.409
		c0.409-1.636,0.682-3.477,0.682-5.249c0-11.384-9.203-20.588-20.588-20.588c-5.113,0-9.68,1.841-13.293,4.84
		c-4.772-16.02-19.565-27.745-37.221-27.745c-21.474,0-38.994,17.452-38.994,38.994c0,1.636,0.068,3.272,0.341,4.908
		C10.43,101.899,0,113.351,0,127.122c0,14.929,12.066,27.064,27.064,27.064h115.14C153.452,151.8,162.382,141.369,162.382,129.44z"
		/>
	<g>
		<g>
			<path fill="#EED380" d="M171.246,57.624c0,0,0,0-0.002,0c4.206-5.955,6.685-13.216,6.685-21.061
				C177.929,16.369,161.56,0,141.367,0c-20.194,0-36.563,16.369-36.563,36.563c0,7.844,2.479,15.106,6.684,21.061
				c-0.001,0-0.001,0-0.001,0c0.014,0.019,0.027,0.037,0.041,0.056c0.357,0.504,0.726,0.998,1.109,1.482
				c13.083,17.642,16.229,27.547,16.229,27.547h12.501h12.5c0,0,3.146-9.905,16.23-27.547c0.38-0.484,0.75-0.979,1.107-1.482
				C171.219,57.661,171.232,57.644,171.246,57.624z"/>
		</g>
		<g>
			<path fill="#00466D" d="M135.107,111.406l0.822,2.581c0.206,0.671,0.865,1.213,1.461,1.213h7.937c0.594,0,1.254-0.542,1.46-1.213
				l0.821-2.581H135.107z"/>
			<path fill="#00466D" d="M128.867,86.714c0,0,0.077,18.017,0.093,18.114c0.084,0.6,0.237,1.165,0.453,1.685
				c0.388,1.093,0.79,1.414,0.79,1.414c0.763,0.996,1.777,1.604,2.895,1.604h16.519c2.14,0,3.917-2.234,4.187-5.1l0.044-0.007
				v-17.71L128.867,86.714L128.867,86.714z"/>
		</g>
	</g>
	<g>
		<polygon id="Fill-10_222_" fill-rule="evenodd" clip-rule="evenodd" fill="#00466D" points="88.903,49.851 115.352,36.384 
			88.903,23.401 		"/>
		<polygon id="Fill-10_221_" fill-rule="evenodd" clip-rule="evenodd" fill="#FFFFFF" points="115.502,49.851 141.952,36.384 
			115.502,23.401 		"/>
		<polygon id="Fill-10_219_" opacity="0.5" fill-rule="evenodd" clip-rule="evenodd" fill="#235D80" points="115.502,49.851 
			141.952,36.384 115.502,23.401 		"/>
	</g>
	<g>
		<path id="Coat-Back_20_" fill-rule="evenodd" clip-rule="evenodd" fill="#BB4764" d="M69.918,50.749l3.281,0.103
			c5.514,8.224,6.78,25.058,10.956,28.189c3.948,2.961,6.899,1.707,14.843,0.631l3.005,6.146c-8.251,5.825-23.842,8.91-28.886,4.178
			C65.051,82.429,67.171,61.994,69.918,50.749z"/>
		<g>
			<g id="humaaans_x2F_sitting-1_6_">
				
					<g id="A-Human_x2F_Sitting_18_" transform="translate(190.000000, 200.500000) scale(-1, 1) translate(-190.000000, -200.500000) translate(40.000000, 24.000000)">
					<g id="Head_x2F_Front_x2F_Airy_8_" transform="translate(82.000000, 0.000000)">
						<g id="Head_39_" transform="translate(54.000000, 31.000000)">
							<path fill-rule="evenodd" clip-rule="evenodd" fill="#9E806C" d="M137.586-11.684c1.739-2.041,2.915-4.542,2.719-7.345
								c-0.566-8.075-11.808-6.299-13.994-2.223c-2.187,4.076-1.927,14.414,0.899,15.143c1.127,0.291,3.528-0.421,5.971-1.894
								l-1.534,10.851h9.056L137.586-11.684z"/>
						</g>
					</g>
					<g id="Bottom_x2F_Sitting_x2F_Sweat-Pants_8_" transform="translate(0.000000, 187.000000)">
						<path id="Skin_30_" fill-rule="evenodd" clip-rule="evenodd" fill="#9E806C" d="M220.975-61.794
							c4.019-24.623,7.364-40.926,9.281-45.887c1.266-3.278,10.843-2.894,9.742,3.702c-0.462,2.766-2.29,10.173-4.693,18.591
							c-1.403,4.916-4.9,14.234-9.735,24.935L220.975-61.794z M280.263-89.524c-1.697-0.233-21.526-2.312-35.513-4.325
							c-5.617-0.808-2.595-11.328,3.236-10.215c1.962,0.375,4.049,0.789,6.202,1.235c7.492,1.552,23.027,7.04,27.463,8.793
							C284.439-92.934,282.641-89.197,280.263-89.524z"/>
						<path id="Leg-Back_12_" fill-rule="evenodd" clip-rule="evenodd" fill="#252728" d="M244.407-106.959l23.994-12.215v-2.659
							h-2.854c-23.213,5.915-35.075,9.706-35.586,11.372c-0.006,0.018-0.01,0.036-0.015,0.054c-0.012,0.015-0.023,0.031-0.034,0.046
							c-4.6,6.327-7.356,37.215-8.26,39.528l8.815,1.315c3.372-12.505,14.161-21.215,13.874-36.192
							C244.42-106.149,244.439-106.565,244.407-106.959z"/>
						<path id="Leg-Front_12_" fill-rule="evenodd" clip-rule="evenodd" fill="#252728" d="M266.408-99.705
							c2.196-0.439,4.217-0.832,5.947-1.135c11.175-1.96,14.433-7.942,12.507-20.993h-20.589
							c-3.363,0.966-20.842,8.296-29.91,12.194c-6.002,2.58-4.11,11.882-0.711,14.302c0.019,0.149,0.08,0.25,0.189,0.294
							c18.284,7.578,32.748,3.602,37.58,4.872l2.235-7.05L266.408-99.705z"/>
						
							<g id="Accessories_x2F_Shoe_x2F_Flat-Sneaker_18_" transform="translate(143.959294, 93.331820) rotate(64.000000) translate(-143.959294, -93.331820) translate(113.459294, 73.331820)">
							<path id="shoe_18_" fill-rule="evenodd" clip-rule="evenodd" fill="#252728" d="M-79.217-185.021
								c0.628-1.026,1.163-1.712,1.604-2.056c0.536-0.419,1.388-0.941,2.557-1.566c0.486,0.622,4.854,6.212,13.103,16.771
								c-1.1,1.562-2.075,1.918-2.923,1.068c-0.849-0.849-1.562-1.548-2.139-2.097l-9.565-5.08c-0.184-0.098-0.254-0.326-0.156-0.51
								c0.002-0.003,0.003-0.006,0.005-0.009l0.824-1.451c-0.274-1.186-0.623-2.051-1.047-2.594c-0.345-0.442-1-0.912-1.964-1.412
								l0,0c-0.37-0.192-0.515-0.647-0.323-1.017C-79.236-184.99-79.227-185.006-79.217-185.021z"/>
						</g>
						<g id="Accessories_x2F_Shoe_x2F_Flat-Sneaker_17_" transform="translate(263.000000, 132.000000)">
							<path id="shoe_17_" fill-rule="evenodd" clip-rule="evenodd" fill="#252728" d="M-35.23-194.438
								c0.422,1.127,0.633,1.97,0.633,2.529c0,0.68-0.113,1.674-0.34,2.979c-0.789,0-7.884,0-21.283,0
								c-0.553-1.829-0.234-2.815,0.958-2.962c1.191-0.146,2.181-0.277,2.97-0.395l9.892-4.41c0.19-0.085,0.413,0.001,0.498,0.191
								c0.002,0.003,0.003,0.006,0.004,0.01l0.636,1.542c1.103,0.515,1.999,0.772,2.689,0.772c0.56,0,1.334-0.227,2.322-0.679l0,0
								c0.379-0.174,0.827-0.007,1,0.371C-35.243-194.471-35.236-194.455-35.23-194.438z"/>
						</g>
					</g>
					<g id="Body_x2F_Jacket-2_6_" transform="translate(22.000000, 82.000000)">
						<path id="Shirt_14_" fill-rule="evenodd" clip-rule="evenodd" fill="#FFFFFF" d="M263.759-13.437c-13.083,0-22.707,0-28.871,0
							c-1.319,0-1.071-1.905-0.88-2.866c2.201-11.094,10.793-23.053,10.793-38.845l8.328-1.306
							C260.017-45.376,262.399-31.736,263.759-13.437z"/>
						<path id="Coat-Front_14_" fill-rule="evenodd" clip-rule="evenodd" fill="#BB4764" d="M253.666-56.454h-0.095h-3.202
							c-7.476,25.485-9.537,42.465-6.183,50.941h25.989C269.763-11.715,267.022-42.105,253.666-56.454z"/>
					</g>
				</g>
			</g>
			<path id="hair_21_" fill-rule="evenodd" clip-rule="evenodd" fill="#252728" d="M81.064,27.851
				c-0.179-0.628-0.659-1.166-1.307-1.326c-0.157-0.039-0.319-0.055-0.481-0.048c-0.058,0.002-0.074,0.019-0.101-0.021
				c-0.02-0.03-0.021-0.103-0.029-0.139c-0.026-0.11-0.058-0.218-0.098-0.324c-0.136-0.361-0.363-0.68-0.638-0.948
				c-0.514-0.503-1.208-0.85-1.929-0.912c-0.395-0.034-0.786,0.03-1.16,0.158c-0.193,0.067-0.38,0.149-0.563,0.241
				c-0.055,0.027-0.233,0.162-0.288,0.154c-0.061-0.01-0.183-0.161-0.233-0.199c-0.612-0.47-1.368-0.654-2.13-0.648
				c-0.86,0.006-1.688,0.049-2.406,0.574c-0.152,0.111-0.296,0.233-0.434,0.361c-0.073,0.067-0.143,0.137-0.21,0.21
				c-0.04,0.044-0.08,0.089-0.117,0.135c-0.064,0.078-0.054,0.104-0.144,0.049c-0.345-0.21-0.745-0.308-1.148-0.258
				c-0.239,0.029-0.472,0.101-0.693,0.196c-0.075,0.032-0.25,0.161-0.33,0.162c-0.08,0.001-0.252-0.118-0.333-0.148
				c-0.443-0.164-0.92-0.204-1.386-0.128c-0.48,0.078-0.952,0.269-1.359,0.534c-0.196,0.127-0.366,0.268-0.503,0.458
				c-0.059,0.082-0.113,0.168-0.18,0.244c-0.039,0.044-0.117,0.09-0.138,0.146c0.013-0.034-0.525-0.241-0.576-0.254
				c-0.27-0.071-0.545-0.056-0.81,0.031c-0.498,0.164-0.926,0.531-1.277,0.908c-0.181,0.193-0.339,0.407-0.473,0.635
				c-0.064,0.109-0.123,0.221-0.177,0.336c-0.026,0.056-0.043,0.125-0.078,0.175c-0.044,0.065-0.074,0.066-0.154,0.094
				c-0.407,0.143-0.779,0.384-1.061,0.711c-0.286,0.33-0.472,0.737-0.55,1.165c-0.004,0.025-0.007,0.13-0.022,0.143
				c-0.02,0.019-0.102,0.01-0.133,0.014c-0.107,0.013-0.214,0.031-0.319,0.056c-0.194,0.046-0.382,0.113-0.561,0.201
				c-0.696,0.344-1.193,0.989-1.437,1.715c-0.256,0.762-0.251,1.635,0.055,2.383c0.049,0.121,0.108,0.238,0.177,0.349
				c0.042,0.068,0.056,0.068,0.029,0.14c-0.031,0.08-0.086,0.157-0.123,0.234c-0.119,0.254-0.201,0.522-0.254,0.797
				c-0.086,0.45-0.128,0.923-0.044,1.377c0.04,0.211,0.108,0.417,0.213,0.604c0.053,0.096,0.116,0.187,0.186,0.27
				c0.037,0.044,0.076,0.085,0.116,0.125c0.023,0.023,0.054,0.043,0.073,0.068c0.048,0.062,0.059,0.011,0.034,0.102
				c-0.035,0.127-0.114,0.253-0.162,0.377c-0.05,0.128-0.095,0.257-0.136,0.388c-0.083,0.265-0.154,0.534-0.198,0.808
				c-0.085,0.526-0.07,1.087,0.179,1.57c0.107,0.207,0.259,0.388,0.444,0.529c0.09,0.069,0.189,0.128,0.292,0.177
				c0.053,0.025,0.12,0.036,0.145,0.087c0.026,0.055-0.013,0.164-0.021,0.226c-0.077,0.535-0.115,1.097,0.044,1.622
				c0.147,0.483,0.469,0.91,0.888,1.192c0.813,0.548,1.908,0.517,2.762,0.078c0.222-0.114,0.431-0.256,0.617-0.424
				c0.473,0.637,1.446,0.617,2.138,0.435c0.861-0.226,1.552-0.825,1.951-1.612c0.545,0.663,1.687,0.448,2.065-0.271
				c0.092-0.176,0.147-0.37,0.174-0.566c0.014-0.103,0.005-0.207,0.016-0.31c0.014-0.13,0.101-0.257,0.151-0.384
				c0.098-0.245,0.158-0.499,0.161-0.764c0.001-0.138-0.016-0.273-0.029-0.41c-0.012-0.124,0.023-0.239,0.042-0.361
				c-0.221,0.036-0.49-0.023-0.698-0.087c-0.204-0.063-0.396-0.229-0.54-0.38c-0.335-0.351-0.539-0.811-0.679-1.269
				c-0.307-1.005-0.181-2.211,0.83-2.763c0.471-0.257,1.882-0.256,2.443-0.129c0.59,0.134,1.258,1.435,1.292,1.558
				c0.02,0.076,0.01,0.17,0.08,0.22c0.153,0.111,0.405-0.082,0.518-0.176c0.195-0.164,0.333-0.382,0.453-0.603
				c0.262-0.482,0.473-0.998,0.622-1.526c0.115-0.407,0.189-0.826,0.339-1.222c0.149-0.394,0.385-0.747,0.752-0.97
				c0.399-0.243,0.856-0.371,1.294-0.524c0.434-0.151,0.86-0.336,1.197-0.657c0.074-0.071,0.146-0.146,0.206-0.229
				c0.047-0.066,0.093-0.191,0.165-0.233c0.111-0.065,0.274,0.104,0.37,0.165c0.475,0.302,0.871,0.722,1.191,1.182
				c0.318,0.457,0.579,0.897,0.791,1.407c0.157,0.378,0.255,0.863,0.532,1.173c0.124,0.138,1.041,0.222,1.338,0.101
				c0.297-0.121,0.63-0.435,0.73-0.631c0.102-0.201,0.126-0.423,0.083-0.643c-0.026-0.13-0.078-0.251-0.107-0.378
				c-0.024-0.107-0.046-0.208-0.098-0.306c-0.099-0.186-0.267-0.319-0.471-0.375c0.212-0.195,0.387-0.429,0.508-0.69
				c0.126-0.271,0.233-0.601,0.263-0.898c0.025-0.242-0.013-0.492-0.146-0.7c-0.139-0.218-0.385-0.36-0.598-0.496
				c0.325-0.254,0.603-0.564,0.832-0.906C81.014,29.484,81.29,28.645,81.064,27.851z"/>
		</g>
		<polygon fill-rule="evenodd" clip-rule="evenodd" fill="#4B4F54" points="114.635,93.92 89.503,104.405 73.747,96.618 
			98.88,86.132 		"/>
		<path fill-rule="evenodd" clip-rule="evenodd" fill="#9E806C" d="M80.074,90.672c8.983,1.012,14.676,2.277,11.766,3.796
			c-2.91,1.518-13.031,2.91-13.284-0.127C78.303,91.305,80.074,90.672,80.074,90.672z"/>
		<polygon fill-rule="evenodd" clip-rule="evenodd" fill="#6E7277" points="114.635,93.92 89.503,104.405 89.503,80.844 
			114.635,70.359 		"/>
		<path id="Coat-Back_19_" fill-rule="evenodd" clip-rule="evenodd" fill="#BB4764" d="M64.119,51.007l2.922,1.556
			c1.395,9.802-0.923,24.562,1.478,29.196c2.27,4.381,8.517,6.684,16.14,9.164l-1.336,5.496c-9.962,1.664-25.346-2.328-27.835-8.782
			C51.51,77.319,56.761,59.943,64.119,51.007z"/>
	</g>
</g>
</svg>
