<?xml version="1.0" encoding="utf-8"?>
<!-- Generator: Adobe Illustrator 24.1.2, SVG Export Plug-In . SVG Version: 6.00 Build 0)  -->
<svg version="1.1" id="Layer_1" xmlns="http://www.w3.org/2000/svg" xmlns:xlink="http://www.w3.org/1999/xlink" x="0px" y="0px"
	 viewBox="0 0 202.235 145.559" enable-background="new 0 0 202.235 145.559" xml:space="preserve">
<g>
	<linearGradient id="SVGID_3_" gradientUnits="userSpaceOnUse" x1="0" y1="96.6808" x2="162.3823" y2="96.6808">
		<stop  offset="0" style="stop-color:#DFE1E1"/>
		<stop  offset="0.5326" style="stop-color:#DDDFE0"/>
		<stop  offset="0.7244" style="stop-color:#D6D9DA"/>
		<stop  offset="0.8611" style="stop-color:#CBCECF"/>
		<stop  offset="0.9709" style="stop-color:#BBBEC0"/>
		<stop  offset="1" style="stop-color:#B5B9BB"/>
	</linearGradient>
	<path fill="url(#SVGID_3_)" d="M162.382,120.813c0-13.634-11.044-24.678-24.678-24.678c-1.636,0-3.204,0.205-4.772,0.409
		c0.409-1.636,0.682-3.477,0.682-5.249c0-11.384-9.203-20.588-20.588-20.588c-5.113,0-9.68,1.841-13.293,4.84
		c-4.772-16.02-19.565-27.745-37.221-27.745c-21.474,0-38.994,17.452-38.994,38.994c0,1.636,0.068,3.272,0.341,4.908
		C10.43,93.272,0,104.725,0,118.495c0,14.929,12.066,27.064,27.064,27.064h115.14C153.452,143.173,162.382,132.743,162.382,120.813z
		"/>
	<g>
		<polygon id="Fill-10_236_" fill-rule="evenodd" clip-rule="evenodd" fill="#EED380" points="52.012,36.799 78.462,23.332 
			52.012,10.349 		"/>
		<polygon id="Fill-10_235_" fill-rule="evenodd" clip-rule="evenodd" fill="#FFFFFF" points="78.612,36.799 105.061,23.332 
			78.612,10.349 		"/>
		<polygon id="Fill-10_233_" opacity="0.5" fill-rule="evenodd" clip-rule="evenodd" fill="#235D80" points="78.612,36.799 
			105.061,23.332 78.612,10.349 		"/>
	</g>
	<g>
		<g>
			<g>
				<path fill="#BD4764" d="M187.703,79.948l-0.432-0.288l-2.014-4.748l0.288-0.432c6.187-13.813,5.611-14.244,4.748-15.252
					l-8.057-7.914c-0.288-0.288-0.863-0.576-1.439-0.576c-0.432,0-1.87,0-13.813,5.468l-0.432,0.288l-4.892-2.014l-0.288-0.432
					c-5.611-13.957-6.187-13.957-7.626-13.957h-11.511c-1.295,0-2.014,0-7.194,13.957l-0.288,0.432l-4.892,2.014l-0.432-0.288
					c-8.057-3.309-12.95-5.18-13.957-5.18c-0.432,0-1.151,0.288-1.439,0.576l-8.057,7.914c-1.151,1.007-1.439,1.439,4.892,14.964
					l0.288,0.432l-2.014,4.748l-0.432,0.288c-14.244,5.611-14.244,6.187-14.244,7.482v11.223c0,1.439,0,2.014,14.388,7.05
					l0.432,0.288l2.014,4.748l-0.288,0.432c-6.187,13.813-5.611,14.101-4.748,15.252l8.057,7.914
					c0.432,0.288,1.007,0.576,1.439,0.576s1.87,0,13.813-5.468l0.432-0.288l4.892,2.014l0.288,0.432
					c5.611,13.957,6.187,13.957,7.626,13.957h11.511c1.439,0,2.014,0,7.194-13.957l0.288-0.432l4.892-2.014l0.432,0.288
					c8.057,3.309,12.95,5.18,13.957,5.18c0.432,0,1.151-0.288,1.439-0.576l8.057-7.914c1.151-1.151,1.439-1.439-4.892-14.964
					l-0.288-0.432l2.014-4.748l0.432-0.288c14.388-5.611,14.388-6.187,14.388-7.626V86.855
					C202.091,85.56,202.091,84.984,187.703,79.948z M148.135,111.027c-10.216,0-18.561-8.057-18.561-18.273
					c0-10.072,8.345-18.273,18.561-18.273c10.216,0,18.561,8.057,18.561,18.273C166.696,102.97,158.495,111.027,148.135,111.027z"/>
			</g>
		</g>
	</g>
	<g>
		<path id="Coat-Back_18_" fill-rule="evenodd" clip-rule="evenodd" fill="#809443" d="M120.586,65.13
			c-5.089,4.774-20.816,1.662-29.139-4.214l3.032-6.2c8.014,1.086,10.991,2.35,14.973-0.636c4.212-3.159,10.981-21.364,16.543-29.66
			l3.309-0.103C132.075,35.659,128.722,57.497,120.586,65.13z"/>
		<g>
			<g id="Head_x2F_Front_x2F_Short-Beard_9_" transform="translate(82.000000, 0.000000)">
				<g id="Head_38_" transform="translate(54.000000, 31.000000)">
					<path fill-rule="evenodd" clip-rule="evenodd" fill="#9E806C" d="M-2.397-15.08c1.955-2.295,3.273-5.1,3.06-8.288
						c-0.638-9.095-13.303-7.098-15.768-2.508s-2.168,16.235,1.02,17.043c1.275,0.34,3.953-0.468,6.715-2.125l-1.743,12.24h10.2
						L-2.397-15.08z"/>
				</g>
				<path id="Hair_15_" fill-rule="evenodd" clip-rule="evenodd" fill="#252728" d="M46.333,8.4
					c-0.389,5.539-1.428,8.308-3.159,8.308c-2.553,0-4.717-1.644-5.842-1.644c-0.822,0-0.649,1.039-0.087,1.774
					c0.433,0.606,2.64,1.212,2.64,2.207c0,0.995-1.731,0.216-1.731,0.779c0,0.952-0.303,2.726,1.341,2.726
					c1.688,0,6.491-0.606,7.313-3.072c0.519-1.601,0.865-4.933,1.039-9.953c0.087,0,0.216,0,0.303,0
					c1.428,0,2.596,1.168,2.596,2.596c0,0.736-0.303,1.385-0.779,1.861c0.606,0.865,1.255,1.731,2.034,2.64
					c2.899-1.731,5.063-6.837,2.207-11.727c-0.779-2.38-2.553-3.678-4.63-4.284c-1.688-0.692-3.462-0.779-4.933-0.346
					c-2.899,0.26-5.496,1.125-6.275,1.688c0,2.769,0.519,3.592,5.106,3.505C44.559,6.063,45.424,7.058,46.333,8.4z"/>
			</g>
			<path id="Skin_29_" fill-rule="evenodd" clip-rule="evenodd" fill="#9F806C" d="M86.596,75.251
				c-3.06-4.123-7.835,0.511-7.835,3.954c0,9.01,4.367,46.198,4.834,48.918c0.425,2.678,6.018,3.647,6.273,0.29
				c0.425-5.355,1.233-20.435,0.425-29.105c-0.213-2.508-0.468-4.973-0.723-7.268c4.335,7.735,10.88,18.7,19.678,32.853l4.888-2.253
				c-3.825-12.665-7.013-21.591-9.435-26.818c-4.208-8.925-8.16-16.575-9.818-19.295C92.674,73.041,89.104,73.509,86.596,75.251z"/>
			<path id="Leg-Back_11_" fill-rule="evenodd" clip-rule="evenodd" fill="#252728" d="M113.797,115.67L97.009,75.889
				c-4.038-6.46-15.3,1.318-13.94,5.058c3.103,8.543,18.955,36.126,19.891,38.676L113.797,115.67z"/>
			<path id="Leg-Front_11_" fill-rule="evenodd" clip-rule="evenodd" fill="#252728" d="M75.504,80.394
				c0,11.263,4.93,37.783,4.93,40.291l11.985-0.425c-2.083-23.036-2.975-34.638-2.635-34.808c0.723-0.34,30.218,4.08,39.101,4.42
				c12.75,0.468,18.02-7.353,18.445-22.186h-24.693c-21.123,2.508-35.021,4.293-41.651,5.27
				C76.694,73.594,75.504,77.291,75.504,80.394z"/>
			<g id="Accessories_x2F_Shoe_x2F_Flat-Sneaker_16_" transform="translate(243.000000, 111.000000)">
				<path id="shoe_16_" fill-rule="evenodd" clip-rule="evenodd" fill="#252728" d="M-152.494,14.53
					c0.468,1.275,0.723,2.21,0.723,2.848c0,0.765-0.128,1.87-0.383,3.358c-0.893,0-8.883,0-23.971,0
					c-0.638-2.04-0.255-3.188,1.063-3.315c1.36-0.17,2.465-0.297,3.358-0.425l11.135-4.973c0.213-0.085,0.468,0,0.553,0.213l0,0
					l0.723,1.743c1.233,0.595,2.253,0.85,3.018,0.85c0.638,0,1.488-0.255,2.635-0.765l0,0c0.425-0.213,0.935,0,1.148,0.425
					C-152.494,14.488-152.494,14.53-152.494,14.53z"/>
			</g>
			<g id="Body_x2F_Hoodie_8_" transform="translate(22.000000, 82.000000)">
				<path id="Shirt_13_" fill-rule="evenodd" clip-rule="evenodd" fill="#D0D5DA" d="M125.33-10.616c-14.748,0-25.586,0-32.513,0
					c-1.488,0-1.19-2.125-0.978-3.23c2.465-12.495,12.155-25.968,12.155-43.734l6.994-1.111
					C118.724-46.196,123.8-31.229,125.33-10.616z"/>
				<path id="Coat-Front_13_" fill-rule="evenodd" clip-rule="evenodd" fill="#809443" d="M125.075-46.785
					c1.36-0.382,2.423-1.318,3.23-2.72c3.443-6.205,2.21-9.605-1.488-10.71c-3.698-1.105-6.928,1.19-12.75,1.19
					c-0.298,0-0.595,0-0.893,0.043l-2.933,0.17c-8.415,28.561-10.753,47.601-6.97,57.164h22.276
					C127.322-9.715,129.337-19.52,125.075-46.785z"/>
			</g>
			<g id="Accessories_x2F_Shoe_x2F_Flat-Sneaker_15_" transform="translate(243.000000, 111.000000)">
				<path id="shoe_15_" fill-rule="evenodd" clip-rule="evenodd" fill="#252728" d="M-128.911,8.525
					c0.98,0.94,1.62,1.668,1.901,2.24c0.336,0.687,0.707,1.736,1.132,3.184c-0.802,0.392-7.979,3.904-21.531,10.536
					c-1.469-1.552-1.63-2.751-0.503-3.445c1.147-0.75,2.083-1.351,2.829-1.858l7.816-9.361c0.154-0.17,0.42-0.205,0.59-0.052l0,0
					l1.415,1.248c1.369-0.007,2.397-0.227,3.084-0.563c0.573-0.28,1.224-0.883,2.031-1.845l0,0c0.288-0.378,0.84-0.411,1.218-0.123
					C-128.93,8.487-128.911,8.525-128.911,8.525z"/>
			</g>
		</g>
		<polygon fill-rule="evenodd" clip-rule="evenodd" fill="#4B4F54" points="78.704,69.088 104.056,79.666 119.95,71.81 
			94.597,61.233 		"/>
		<path fill-rule="evenodd" clip-rule="evenodd" fill="#9E806C" d="M113.567,65.812c-9.061,1.021-14.804,2.297-11.869,3.829
			c2.935,1.531,13.145,2.935,13.4-0.128C115.354,66.45,113.567,65.812,113.567,65.812z"/>
		<polygon fill-rule="evenodd" clip-rule="evenodd" fill="#6E7277" points="78.704,69.088 104.056,79.666 104.056,55.899 
			78.704,45.321 		"/>
		<path id="Coat-Back_17_" fill-rule="evenodd" clip-rule="evenodd" fill="#809443" d="M138.367,62.752
			c-2.511,6.51-18.029,10.537-28.078,8.859l-1.347-5.544c7.69-2.502,13.991-4.825,16.281-9.244
			c2.422-4.674,5.809-22.431,7.216-32.319l2.776-1.077C142.638,32.439,142.381,52.343,138.367,62.752z"/>
	</g>
</g>
</svg>
