<?xml version="1.0" encoding="utf-8"?>
<!-- Generator: Adobe Illustrator 24.1.2, SVG Export Plug-In . SVG Version: 6.00 Build 0)  -->
<svg version="1.1" id="Layer_1" xmlns="http://www.w3.org/2000/svg" xmlns:xlink="http://www.w3.org/1999/xlink" x="0px" y="0px"
	 viewBox="0 0 362.844 269.688" enable-background="new 0 0 362.844 269.688" xml:space="preserve">
<g>
	<g>
		<g>
			<g>
				<defs>
					<path id="SVGID_402_" d="M362.844,93.472c0-15.776-12.778-28.554-28.554-28.554c-1.893,0-3.707,0.237-5.522,0.473
						c0.473-1.893,0.789-4.023,0.789-6.074c0-13.173-10.649-23.821-23.822-23.821c-5.916,0-11.201,2.13-15.381,5.6
						c-5.522-18.537-22.638-32.104-43.068-32.104c-24.847,0-45.119,20.193-45.119,45.119c0,1.893,0.079,3.786,0.394,5.679
						c-15.539,1.814-27.608,15.066-27.608,31c0,17.275,13.962,31.315,31.315,31.315h133.227
						C352.511,119.344,362.844,107.276,362.844,93.472z"/>
				</defs>
				<clipPath id="SVGID_3_">
					<use xlink:href="#SVGID_402_"  overflow="visible"/>
				</clipPath>
				
					<rect x="174.954" y="8.992" clip-path="url(#SVGID_3_)" fill-rule="evenodd" clip-rule="evenodd" fill="#DEE0E0" width="50.035" height="113.113"/>
				
					<rect x="224.989" y="8.992" clip-path="url(#SVGID_3_)" fill-rule="evenodd" clip-rule="evenodd" fill="#DCDEDF" width="50.035" height="113.113"/>
				
					<rect x="275.024" y="8.992" clip-path="url(#SVGID_3_)" fill-rule="evenodd" clip-rule="evenodd" fill="#DCDEDF" width="5.148" height="113.113"/>
				
					<rect x="280.172" y="8.992" clip-path="url(#SVGID_3_)" fill-rule="evenodd" clip-rule="evenodd" fill="#DBDDDE" width="5.148" height="113.113"/>
				
					<rect x="285.321" y="8.992" clip-path="url(#SVGID_3_)" fill-rule="evenodd" clip-rule="evenodd" fill="#DADCDD" width="5.148" height="113.113"/>
				
					<rect x="290.469" y="8.992" clip-path="url(#SVGID_3_)" fill-rule="evenodd" clip-rule="evenodd" fill="#D9DBDC" width="5.148" height="113.113"/>
				
					<rect x="295.617" y="8.992" clip-path="url(#SVGID_3_)" fill-rule="evenodd" clip-rule="evenodd" fill="#D7DADB" width="5.148" height="113.113"/>
				
					<rect x="300.765" y="8.992" clip-path="url(#SVGID_3_)" fill-rule="evenodd" clip-rule="evenodd" fill="#D6D9DA" width="5.148" height="113.113"/>
				
					<rect x="305.913" y="8.992" clip-path="url(#SVGID_3_)" fill-rule="evenodd" clip-rule="evenodd" fill="#D5D8D9" width="5.148" height="113.113"/>
				
					<rect x="311.061" y="8.992" clip-path="url(#SVGID_3_)" fill-rule="evenodd" clip-rule="evenodd" fill="#D5D8D9" width="2.335" height="113.113"/>
				
					<rect x="313.396" y="8.992" clip-path="url(#SVGID_3_)" fill-rule="evenodd" clip-rule="evenodd" fill="#D4D7D8" width="2.335" height="113.113"/>
				
					<rect x="315.731" y="8.992" clip-path="url(#SVGID_3_)" fill-rule="evenodd" clip-rule="evenodd" fill="#D3D6D7" width="2.335" height="113.113"/>
				
					<rect x="318.066" y="8.992" clip-path="url(#SVGID_3_)" fill-rule="evenodd" clip-rule="evenodd" fill="#D2D5D6" width="2.335" height="113.113"/>
				
					<rect x="320.401" y="8.992" clip-path="url(#SVGID_3_)" fill-rule="evenodd" clip-rule="evenodd" fill="#D1D4D5" width="2.335" height="113.113"/>
				
					<rect x="322.736" y="8.992" clip-path="url(#SVGID_3_)" fill-rule="evenodd" clip-rule="evenodd" fill="#D0D3D4" width="2.335" height="113.113"/>
				
					<rect x="325.071" y="8.992" clip-path="url(#SVGID_3_)" fill-rule="evenodd" clip-rule="evenodd" fill="#CED1D2" width="2.335" height="113.113"/>
				
					<rect x="327.406" y="8.992" clip-path="url(#SVGID_3_)" fill-rule="evenodd" clip-rule="evenodd" fill="#CDD0D1" width="2.335" height="113.113"/>
				
					<rect x="329.741" y="8.992" clip-path="url(#SVGID_3_)" fill-rule="evenodd" clip-rule="evenodd" fill="#CCCFD0" width="2.335" height="113.113"/>
				
					<rect x="332.076" y="8.992" clip-path="url(#SVGID_3_)" fill-rule="evenodd" clip-rule="evenodd" fill="#CBCECF" width="2.335" height="113.113"/>
				
					<rect x="334.411" y="8.992" clip-path="url(#SVGID_3_)" fill-rule="evenodd" clip-rule="evenodd" fill="#CACDCE" width="2.335" height="113.113"/>
				
					<rect x="336.746" y="8.992" clip-path="url(#SVGID_3_)" fill-rule="evenodd" clip-rule="evenodd" fill="#CACDCE" width="1.289" height="113.113"/>
				
					<rect x="338.035" y="8.992" clip-path="url(#SVGID_3_)" fill-rule="evenodd" clip-rule="evenodd" fill="#C9CCCD" width="1.289" height="113.113"/>
				
					<rect x="339.325" y="8.992" clip-path="url(#SVGID_3_)" fill-rule="evenodd" clip-rule="evenodd" fill="#C8CBCC" width="1.289" height="113.113"/>
				
					<rect x="340.614" y="8.992" clip-path="url(#SVGID_3_)" fill-rule="evenodd" clip-rule="evenodd" fill="#C7CACB" width="1.289" height="113.113"/>
				
					<rect x="341.904" y="8.992" clip-path="url(#SVGID_3_)" fill-rule="evenodd" clip-rule="evenodd" fill="#C6C9CA" width="1.289" height="113.113"/>
				
					<rect x="343.193" y="8.992" clip-path="url(#SVGID_3_)" fill-rule="evenodd" clip-rule="evenodd" fill="#C5C8C9" width="1.289" height="113.113"/>
				
					<rect x="344.482" y="8.992" clip-path="url(#SVGID_3_)" fill-rule="evenodd" clip-rule="evenodd" fill="#C4C7C8" width="1.289" height="113.113"/>
				
					<rect x="345.772" y="8.992" clip-path="url(#SVGID_3_)" fill-rule="evenodd" clip-rule="evenodd" fill="#C3C6C7" width="1.289" height="113.113"/>
				
					<rect x="347.061" y="8.992" clip-path="url(#SVGID_3_)" fill-rule="evenodd" clip-rule="evenodd" fill="#C1C4C6" width="1.289" height="113.113"/>
				
					<rect x="348.351" y="8.992" clip-path="url(#SVGID_3_)" fill-rule="evenodd" clip-rule="evenodd" fill="#C0C3C5" width="1.289" height="113.113"/>
				
					<rect x="349.64" y="8.992" clip-path="url(#SVGID_3_)" fill-rule="evenodd" clip-rule="evenodd" fill="#BFC2C4" width="1.289" height="113.113"/>
				
					<rect x="350.929" y="8.992" clip-path="url(#SVGID_3_)" fill-rule="evenodd" clip-rule="evenodd" fill="#BEC1C3" width="1.289" height="113.113"/>
				
					<rect x="352.219" y="8.992" clip-path="url(#SVGID_3_)" fill-rule="evenodd" clip-rule="evenodd" fill="#BDC0C2" width="1.289" height="113.113"/>
				
					<rect x="353.508" y="8.992" clip-path="url(#SVGID_3_)" fill-rule="evenodd" clip-rule="evenodd" fill="#BCBFC1" width="1.289" height="113.113"/>
				
					<rect x="354.798" y="8.992" clip-path="url(#SVGID_3_)" fill-rule="evenodd" clip-rule="evenodd" fill="#BBBEC0" width="1.289" height="113.113"/>
				
					<rect x="356.087" y="8.992" clip-path="url(#SVGID_3_)" fill-rule="evenodd" clip-rule="evenodd" fill="#BABDBF" width="1.289" height="113.113"/>
				
					<rect x="357.376" y="8.992" clip-path="url(#SVGID_3_)" fill-rule="evenodd" clip-rule="evenodd" fill="#BABDBF" width="0.911" height="113.113"/>
				
					<rect x="358.288" y="8.992" clip-path="url(#SVGID_3_)" fill-rule="evenodd" clip-rule="evenodd" fill="#B9BCBE" width="0.911" height="113.113"/>
				
					<rect x="359.199" y="8.992" clip-path="url(#SVGID_3_)" fill-rule="evenodd" clip-rule="evenodd" fill="#B8BBBD" width="0.911" height="113.113"/>
				
					<rect x="360.11" y="8.992" clip-path="url(#SVGID_3_)" fill-rule="evenodd" clip-rule="evenodd" fill="#B6BABC" width="0.911" height="113.113"/>
				
					<rect x="361.021" y="8.992" clip-path="url(#SVGID_3_)" fill-rule="evenodd" clip-rule="evenodd" fill="#B5B9BB" width="0.911" height="113.113"/>
				
					<rect x="361.933" y="8.992" clip-path="url(#SVGID_3_)" fill-rule="evenodd" clip-rule="evenodd" fill="#B4B8BA" width="0.911" height="113.113"/>
			</g>
		</g>
		<g>
			<g>
				<defs>
					<path id="SVGID_404_" d="M189.862,227.409c0-15.776-12.778-28.554-28.554-28.554c-1.893,0-3.707,0.237-5.522,0.473
						c0.473-1.893,0.789-4.023,0.789-6.074c0-13.173-10.649-23.822-23.821-23.822c-5.916,0-11.201,2.13-15.381,5.6
						c-5.522-18.694-22.717-32.262-43.226-32.262c-24.847,0-45.119,20.193-45.119,45.119c0,1.893,0.079,3.786,0.394,5.679
						c-15.46,1.814-27.529,14.987-27.529,30.999c0,17.275,13.962,31.315,31.315,31.315h133.227
						C179.371,253.123,189.862,241.055,189.862,227.409z"/>
				</defs>
				<clipPath id="SVGID_5_">
					<use xlink:href="#SVGID_404_"  overflow="visible"/>
				</clipPath>
				
					<rect x="1.893" y="142.771" clip-path="url(#SVGID_5_)" fill-rule="evenodd" clip-rule="evenodd" fill="#DEE0E0" width="50.056" height="113.113"/>
				
					<rect x="51.949" y="142.771" clip-path="url(#SVGID_5_)" fill-rule="evenodd" clip-rule="evenodd" fill="#DCDEDF" width="50.056" height="113.113"/>
				
					<rect x="102.005" y="142.771" clip-path="url(#SVGID_5_)" fill-rule="evenodd" clip-rule="evenodd" fill="#DCDEDF" width="5.15" height="113.113"/>
				
					<rect x="107.156" y="142.771" clip-path="url(#SVGID_5_)" fill-rule="evenodd" clip-rule="evenodd" fill="#DBDDDE" width="5.15" height="113.113"/>
				
					<rect x="112.306" y="142.771" clip-path="url(#SVGID_5_)" fill-rule="evenodd" clip-rule="evenodd" fill="#DADCDD" width="5.15" height="113.113"/>
				
					<rect x="117.456" y="142.771" clip-path="url(#SVGID_5_)" fill-rule="evenodd" clip-rule="evenodd" fill="#D9DBDC" width="5.15" height="113.113"/>
				
					<rect x="122.607" y="142.771" clip-path="url(#SVGID_5_)" fill-rule="evenodd" clip-rule="evenodd" fill="#D7DADB" width="5.15" height="113.113"/>
				
					<rect x="127.757" y="142.771" clip-path="url(#SVGID_5_)" fill-rule="evenodd" clip-rule="evenodd" fill="#D6D9DA" width="5.15" height="113.113"/>
				
					<rect x="132.907" y="142.771" clip-path="url(#SVGID_5_)" fill-rule="evenodd" clip-rule="evenodd" fill="#D5D8D9" width="5.15" height="113.113"/>
				
					<rect x="138.058" y="142.771" clip-path="url(#SVGID_5_)" fill-rule="evenodd" clip-rule="evenodd" fill="#D5D8D9" width="2.336" height="113.113"/>
				
					<rect x="140.394" y="142.771" clip-path="url(#SVGID_5_)" fill-rule="evenodd" clip-rule="evenodd" fill="#D4D7D8" width="2.336" height="113.113"/>
				
					<rect x="142.73" y="142.771" clip-path="url(#SVGID_5_)" fill-rule="evenodd" clip-rule="evenodd" fill="#D3D6D7" width="2.336" height="113.113"/>
				
					<rect x="145.066" y="142.771" clip-path="url(#SVGID_5_)" fill-rule="evenodd" clip-rule="evenodd" fill="#D2D5D6" width="2.336" height="113.113"/>
				
					<rect x="147.402" y="142.771" clip-path="url(#SVGID_5_)" fill-rule="evenodd" clip-rule="evenodd" fill="#D1D4D5" width="2.336" height="113.113"/>
				
					<rect x="149.738" y="142.771" clip-path="url(#SVGID_5_)" fill-rule="evenodd" clip-rule="evenodd" fill="#D0D3D4" width="2.336" height="113.113"/>
				
					<rect x="152.073" y="142.771" clip-path="url(#SVGID_5_)" fill-rule="evenodd" clip-rule="evenodd" fill="#CED1D2" width="2.336" height="113.113"/>
				
					<rect x="154.409" y="142.771" clip-path="url(#SVGID_5_)" fill-rule="evenodd" clip-rule="evenodd" fill="#CDD0D1" width="2.336" height="113.113"/>
				
					<rect x="156.745" y="142.771" clip-path="url(#SVGID_5_)" fill-rule="evenodd" clip-rule="evenodd" fill="#CCCFD0" width="2.336" height="113.113"/>
				
					<rect x="159.081" y="142.771" clip-path="url(#SVGID_5_)" fill-rule="evenodd" clip-rule="evenodd" fill="#CBCECF" width="2.336" height="113.113"/>
				
					<rect x="161.417" y="142.771" clip-path="url(#SVGID_5_)" fill-rule="evenodd" clip-rule="evenodd" fill="#CACDCE" width="2.336" height="113.113"/>
				
					<rect x="163.753" y="142.771" clip-path="url(#SVGID_5_)" fill-rule="evenodd" clip-rule="evenodd" fill="#CACDCE" width="1.29" height="113.113"/>
				
					<rect x="165.043" y="142.771" clip-path="url(#SVGID_5_)" fill-rule="evenodd" clip-rule="evenodd" fill="#C9CCCD" width="1.29" height="113.113"/>
				
					<rect x="166.333" y="142.771" clip-path="url(#SVGID_5_)" fill-rule="evenodd" clip-rule="evenodd" fill="#C8CBCC" width="1.29" height="113.113"/>
				
					<rect x="167.623" y="142.771" clip-path="url(#SVGID_5_)" fill-rule="evenodd" clip-rule="evenodd" fill="#C7CACB" width="1.29" height="113.113"/>
				
					<rect x="168.913" y="142.771" clip-path="url(#SVGID_5_)" fill-rule="evenodd" clip-rule="evenodd" fill="#C6C9CA" width="1.29" height="113.113"/>
				
					<rect x="170.203" y="142.771" clip-path="url(#SVGID_5_)" fill-rule="evenodd" clip-rule="evenodd" fill="#C5C8C9" width="1.29" height="113.113"/>
				
					<rect x="171.493" y="142.771" clip-path="url(#SVGID_5_)" fill-rule="evenodd" clip-rule="evenodd" fill="#C4C7C8" width="1.29" height="113.113"/>
				
					<rect x="172.783" y="142.771" clip-path="url(#SVGID_5_)" fill-rule="evenodd" clip-rule="evenodd" fill="#C3C6C7" width="1.29" height="113.113"/>
				
					<rect x="174.073" y="142.771" clip-path="url(#SVGID_5_)" fill-rule="evenodd" clip-rule="evenodd" fill="#C1C4C6" width="1.29" height="113.113"/>
				
					<rect x="175.363" y="142.771" clip-path="url(#SVGID_5_)" fill-rule="evenodd" clip-rule="evenodd" fill="#C0C3C5" width="1.29" height="113.113"/>
				
					<rect x="176.653" y="142.771" clip-path="url(#SVGID_5_)" fill-rule="evenodd" clip-rule="evenodd" fill="#BFC2C4" width="1.29" height="113.113"/>
				
					<rect x="177.942" y="142.771" clip-path="url(#SVGID_5_)" fill-rule="evenodd" clip-rule="evenodd" fill="#BEC1C3" width="1.29" height="113.113"/>
				
					<rect x="179.232" y="142.771" clip-path="url(#SVGID_5_)" fill-rule="evenodd" clip-rule="evenodd" fill="#BDC0C2" width="1.29" height="113.113"/>
				
					<rect x="180.522" y="142.771" clip-path="url(#SVGID_5_)" fill-rule="evenodd" clip-rule="evenodd" fill="#BCBFC1" width="1.29" height="113.113"/>
				
					<rect x="181.812" y="142.771" clip-path="url(#SVGID_5_)" fill-rule="evenodd" clip-rule="evenodd" fill="#BBBEC0" width="1.29" height="113.113"/>
				
					<rect x="183.102" y="142.771" clip-path="url(#SVGID_5_)" fill-rule="evenodd" clip-rule="evenodd" fill="#BABDBF" width="1.29" height="113.113"/>
				
					<rect x="184.392" y="142.771" clip-path="url(#SVGID_5_)" fill-rule="evenodd" clip-rule="evenodd" fill="#BABDBF" width="0.912" height="113.113"/>
				
					<rect x="185.304" y="142.771" clip-path="url(#SVGID_5_)" fill-rule="evenodd" clip-rule="evenodd" fill="#B9BCBE" width="0.912" height="113.113"/>
				
					<rect x="186.215" y="142.771" clip-path="url(#SVGID_5_)" fill-rule="evenodd" clip-rule="evenodd" fill="#B8BBBD" width="0.912" height="113.113"/>
				
					<rect x="187.127" y="142.771" clip-path="url(#SVGID_5_)" fill-rule="evenodd" clip-rule="evenodd" fill="#B6BABC" width="0.912" height="113.113"/>
				
					<rect x="188.039" y="142.771" clip-path="url(#SVGID_5_)" fill-rule="evenodd" clip-rule="evenodd" fill="#B5B9BB" width="0.912" height="113.113"/>
				
					<rect x="188.95" y="142.771" clip-path="url(#SVGID_5_)" fill-rule="evenodd" clip-rule="evenodd" fill="#B4B8BA" width="0.912" height="113.113"/>
			</g>
		</g>
	</g>
	<g>
		<g>
			<path fill="#0E2F47" d="M111.377,79.983c-0.71-0.473-0.789-1.42-0.316-2.13l0,0c0.473-0.71,1.42-0.789,2.13-0.316l0,0
				c0.71,0.473,0.789,1.42,0.316,2.13l0,0c-0.316,0.394-0.71,0.631-1.183,0.631l0,0C111.929,80.299,111.614,80.22,111.377,79.983z
				 M103.332,73.91c-0.71-0.473-0.789-1.499-0.316-2.13l0,0c0.473-0.71,1.42-0.789,2.13-0.316l0,0c0.71,0.473,0.789,1.42,0.316,2.13
				l0,0c-0.316,0.394-0.71,0.631-1.183,0.631l0,0C103.963,74.225,103.647,74.146,103.332,73.91z M95.523,67.915
				c-0.71-0.473-0.789-1.42-0.316-2.13l0,0c0.473-0.71,1.42-0.789,2.13-0.316l0,0c0.71,0.473,0.789,1.499,0.316,2.13l0,0
				c-0.316,0.394-0.789,0.631-1.183,0.631l0,0C96.075,68.23,95.759,68.152,95.523,67.915z M87.477,61.841
				c-0.71-0.473-0.789-1.42-0.316-2.13l0,0c0.473-0.71,1.42-0.789,2.13-0.316l0,0c0.71,0.473,0.789,1.42,0.316,2.13l0,0
				c-0.316,0.394-0.789,0.631-1.183,0.631l0,0C88.108,62.157,87.792,62.078,87.477,61.841z M79.589,55.768
				c-0.71-0.473-0.789-1.42-0.316-2.13l0,0c0.473-0.71,1.42-0.789,2.13-0.316l0,0c0.71,0.473,0.789,1.42,0.316,2.13l0,0
				c-0.316,0.394-0.789,0.631-1.183,0.631l0,0C80.22,56.083,79.905,56.004,79.589,55.768z M71.622,49.773
				c-0.71-0.473-0.789-1.499-0.316-2.13l0,0c0.473-0.631,1.42-0.789,2.13-0.316l0,0c0.71,0.473,0.789,1.42,0.316,2.13l0,0
				c-0.316,0.394-0.789,0.631-1.183,0.631l0,0C72.253,50.088,71.938,50.009,71.622,49.773z"/>
		</g>
	</g>
	<g>
		<g>
			<path fill="#0E2F47" d="M264.008,125.023c-0.079-0.789,0.473-1.578,1.42-1.578l0,0c0.789-0.079,1.578,0.473,1.578,1.42l0,0
				c0.079,0.789-0.473,1.578-1.262,1.578l0,0c-0.079,0-0.079,0-0.079,0l0,0C264.718,126.443,264.087,125.812,264.008,125.023z
				 M273.868,124.156c-0.079-0.789,0.473-1.578,1.42-1.578l0,0c0.789-0.079,1.499,0.473,1.578,1.42l0,0
				c0.079,0.789-0.473,1.499-1.42,1.578l0,0h-0.079l0,0C274.657,125.418,273.947,124.945,273.868,124.156z M283.886,123.209
				c-0.079-0.789,0.473-1.578,1.42-1.578l0,0c0.789-0.079,1.499,0.473,1.578,1.42l0,0c0.079,0.789-0.473,1.578-1.42,1.578l0,0
				h-0.079l0,0C284.517,124.55,283.965,123.998,283.886,123.209z M293.825,122.342c-0.079-0.789,0.473-1.578,1.42-1.578l0,0
				c0.789-0.079,1.499,0.473,1.578,1.42l0,0c0.079,0.789-0.473,1.499-1.42,1.578l0,0h-0.079l0,0
				C294.535,123.604,293.825,123.13,293.825,122.342z"/>
		</g>
	</g>
	<g>
		<g>
			<path fill="#0E2F47" d="M333.028,180.002c-0.789-0.237-1.183-1.104-1.025-1.893l0,0c0.237-0.789,1.104-1.183,1.893-1.025l0,0
				c0.789,0.237,1.183,1.104,1.025,1.893l0,0c-0.237,0.71-0.789,1.104-1.42,1.104l0,0
				C333.343,180.081,333.264,180.002,333.028,180.002z M323.483,177.084c-0.789-0.237-1.183-1.104-1.025-1.893l0,0
				c0.237-0.789,1.104-1.183,1.893-1.025l0,0c0.789,0.237,1.183,1.104,1.025,1.893l0,0c-0.237,0.71-0.789,1.104-1.42,1.104l0,0
				C323.799,177.084,323.641,177.084,323.483,177.084z M314.018,174.244c-0.789-0.237-1.183-1.104-1.025-1.893l0,0
				c0.237-0.789,1.104-1.183,1.893-1.025l0,0c0.789,0.237,1.183,1.104,1.025,1.893l0,0c-0.237,0.631-0.789,1.104-1.42,1.104l0,0
				C314.254,174.244,314.097,174.244,314.018,174.244z M304.395,171.247c-0.789-0.237-1.183-1.104-1.025-1.893l0,0
				c0.237-0.789,1.104-1.183,1.893-1.025l0,0c0.789,0.237,1.183,1.104,1.025,1.893l0,0c-0.237,0.631-0.789,1.104-1.42,1.104l0,0
				C304.71,171.325,304.631,171.325,304.395,171.247z M294.929,168.328c-0.789-0.237-1.183-1.104-1.025-1.893l0,0
				c0.237-0.789,1.104-1.183,1.893-1.025l0,0c0.789,0.237,1.183,1.104,1.025,1.893l0,0c-0.237,0.71-0.789,1.104-1.42,1.104l0,0
				C295.245,168.407,295.008,168.407,294.929,168.328z M285.385,165.41c-0.789-0.237-1.183-1.104-1.025-1.893l0,0
				c0.237-0.789,1.104-1.183,1.893-1.025l0,0c0.789,0.237,1.183,1.104,1.025,1.893l0,0c-0.237,0.631-0.789,1.104-1.42,1.104l0,0
				C285.621,165.488,285.464,165.41,285.385,165.41z M275.761,162.57c-0.789-0.237-1.183-1.104-1.025-1.893l0,0
				c0.237-0.789,1.104-1.183,1.893-1.025l0,0c0.789,0.237,1.183,1.104,1.025,1.893l0,0c-0.237,0.631-0.789,1.104-1.42,1.104l0,0
				C276.077,162.57,275.998,162.57,275.761,162.57z M266.296,159.572c-0.789-0.237-1.183-1.104-1.025-1.893l0,0
				c0.237-0.789,1.104-1.183,1.893-1.025l0,0c0.789,0.237,1.183,1.104,1.025,1.893l0,0c-0.237,0.631-0.789,1.104-1.42,1.104l0,0
				C266.611,159.651,266.375,159.651,266.296,159.572z M256.752,156.654c-0.789-0.237-1.183-1.104-1.025-1.893l0,0
				c0.237-0.789,1.104-1.183,1.893-1.025l0,0c0.789,0.237,1.183,1.104,1.025,1.893l0,0c-0.237,0.631-0.789,1.104-1.42,1.104l0,0
				C256.988,156.733,256.83,156.733,256.752,156.654z"/>
		</g>
	</g>
	<g>
		<g>
			<path fill="#0E2F47" d="M272.922,220.231c-0.631-0.631-0.631-1.499-0.079-2.13l0,0c0.631-0.631,1.499-0.631,2.13-0.079l0,0
				c0.631,0.631,0.631,1.499,0,2.13l0,0c-0.316,0.316-0.71,0.473-1.104,0.473l0,0C273.553,220.625,273.158,220.467,272.922,220.231z
				 M265.665,213.289c-0.631-0.631-0.631-1.499-0.079-2.13l0,0c0.631-0.631,1.499-0.631,2.13-0.079l0,0
				c0.631,0.631,0.631,1.499,0.079,2.13l0,0c-0.316,0.316-0.71,0.473-1.104,0.473l0,0
				C266.296,213.684,265.902,213.605,265.665,213.289z M258.408,206.427c-0.631-0.631-0.631-1.499-0.079-2.13l0,0
				c0.631-0.631,1.499-0.631,2.13-0.079l0,0c0.631,0.631,0.631,1.499,0.079,2.13l0,0c-0.316,0.316-0.71,0.473-1.104,0.473l0,0
				C259.118,206.821,258.724,206.742,258.408,206.427z M251.151,199.643c-0.631-0.631-0.631-1.499-0.079-2.13l0,0
				c0.631-0.631,1.499-0.631,2.13-0.079l0,0c0.631,0.631,0.631,1.499,0.079,2.13l0,0c-0.316,0.316-0.71,0.473-1.104,0.473l0,0
				C251.861,200.037,251.467,199.88,251.151,199.643z M243.973,192.781c-0.631-0.631-0.631-1.499-0.079-2.13l0,0
				c0.631-0.631,1.499-0.631,2.13-0.079l0,0c0.631,0.631,0.631,1.499,0.079,2.13l0,0c-0.316,0.316-0.71,0.473-1.104,0.473l0,0
				C244.525,193.175,244.21,192.938,243.973,192.781z M235.139,184.419c-0.631-0.631-0.631-1.499,0-2.13l0,0
				c0.631-0.631,1.499-0.631,2.13-0.079l0,0c0.631,0.631,0.631,1.499,0.079,2.13l0,0c-0.316,0.316-0.71,0.473-1.104,0.473l0,0
				C235.849,184.814,235.454,184.656,235.139,184.419z"/>
		</g>
	</g>
	<g>
		<g>
			<path fill="#0E2F47" d="M100.65,119.029c-0.789-0.079-1.42-0.868-1.183-1.735l0,0c0.237-0.789,0.868-1.42,1.814-1.183l0,0
				c0.789,0.079,1.42,0.868,1.183,1.814l0,0c-0.079,0.71-0.789,1.183-1.499,1.183l0,0
				C100.886,119.029,100.808,119.029,100.65,119.029z M90.869,117.214c-0.789-0.079-1.262-0.868-1.183-1.735l0,0
				c0.079-0.789,0.868-1.42,1.735-1.183l0,0c0.789,0.079,1.42,0.868,1.183,1.814l0,0c-0.079,0.71-0.789,1.183-1.499,1.183l0,0
				C91.105,117.214,91.027,117.214,90.869,117.214z M81.009,115.4c-0.789-0.079-1.262-0.868-1.183-1.814l0,0
				c0.237-0.789,0.868-1.262,1.735-1.183l0,0c0.789,0.079,1.42,0.868,1.183,1.735l0,0c-0.079,0.71-0.789,1.183-1.499,1.183l0,0
				C81.246,115.4,81.088,115.4,81.009,115.4z M71.228,113.665c-0.789-0.079-1.42-0.868-1.183-1.814l0,0
				c0.237-0.789,0.868-1.42,1.814-1.183l0,0c0.789,0.237,1.262,0.868,1.183,1.814l0,0c-0.079,0.71-0.789,1.183-1.499,1.183l0,0
				C71.464,113.665,71.307,113.665,71.228,113.665z M61.447,111.851c-0.789-0.079-1.42-0.868-1.183-1.735l0,0
				c0.237-0.789,0.868-1.42,1.814-1.183l0,0c0.789,0.079,1.262,0.868,1.183,1.814l0,0c-0.079,0.71-0.789,1.183-1.499,1.183l0,0
				C61.683,111.851,61.526,111.851,61.447,111.851z"/>
		</g>
	</g>
	<g>
		<g>
			<path fill="#0E2F47" d="M33.918,172.114c-0.237-0.789,0.316-1.578,1.104-1.814l0,0c0.789-0.237,1.578,0.316,1.814,1.104l0,0
				c0.237,0.789-0.316,1.578-1.104,1.814l0,0c-0.079,0-0.316,0.079-0.394,0.079l0,0C34.707,173.219,34.155,172.824,33.918,172.114z
				 M43.462,169.511c-0.237-0.789,0.316-1.578,1.104-1.814l0,0c0.789-0.237,1.578,0.316,1.814,1.104l0,0
				c0.237,0.789-0.316,1.578-1.104,1.814l0,0c-0.079,0-0.316,0.079-0.394,0.079l0,0C44.33,170.694,43.699,170.221,43.462,169.511z
				 M53.165,166.987c-0.237-0.789,0.316-1.578,1.104-1.814l0,0c0.789-0.237,1.578,0.316,1.814,1.104l0,0
				c0.237,0.789-0.316,1.578-1.104,1.814l0,0c-0.079,0-0.316,0.079-0.394,0.079l0,0C53.953,168.091,53.401,167.618,53.165,166.987z
				 M62.867,164.463c-0.237-0.789,0.316-1.578,1.104-1.814l0,0c0.789-0.237,1.578,0.316,1.814,1.104l0,0
				c0.237,0.789-0.316,1.578-1.104,1.814l0,0c-0.079,0-0.316,0.079-0.394,0.079l0,0C63.655,165.488,62.946,165.015,62.867,164.463z
				 M72.411,161.86c-0.237-0.789,0.316-1.578,1.104-1.814l0,0c0.789-0.237,1.578,0.316,1.814,1.104l0,0
				c0.237,0.789-0.316,1.578-1.104,1.814l0,0c-0.079,0-0.316,0.079-0.394,0.079l0,0C73.2,162.964,72.648,162.57,72.411,161.86z
				 M82.113,159.257c-0.237-0.789,0.316-1.578,1.104-1.814l0,0c0.789-0.237,1.578,0.316,1.814,1.104l0,0
				c0.237,0.789-0.316,1.578-1.104,1.814l0,0c-0.079,0-0.316,0.079-0.394,0.079l0,0C82.902,160.361,82.35,159.967,82.113,159.257z
				 M101.36,154.051c-0.237-0.789,0.316-1.578,1.104-1.814l0,0c0.789-0.237,1.578,0.316,1.814,1.104l0,0
				c0.237,0.789-0.316,1.578-1.104,1.814l0,0c-0.079,0-0.316,0.079-0.394,0.079l0,0C102.148,155.234,101.596,154.761,101.36,154.051
				z"/>
		</g>
	</g>
	<g>
		<g>
			<circle fill-rule="evenodd" clip-rule="evenodd" fill="#74ADD9" cx="182.526" cy="132.438" r="71.622"/>
		</g>
		<g>
			<path fill="#0E2F47" d="M182.526,230.406c-54.02,0-97.968-43.948-97.968-97.968c0-54.02,43.948-97.968,97.968-97.968
				c54.02,0,97.968,43.948,97.968,97.968C280.495,186.458,236.546,230.406,182.526,230.406z M182.526,40.781
				c-50.54,0-91.657,41.117-91.657,91.657s41.117,91.658,91.657,91.658s91.658-41.118,91.658-91.658S233.066,40.781,182.526,40.781z
				"/>
		</g>
		<g>
			<path fill="#0E2F47" d="M182.526,230.406c-41.232,0-74.777-43.948-74.777-97.968c0-54.02,33.545-97.968,74.777-97.968
				s74.778,43.948,74.778,97.968C257.304,186.458,223.759,230.406,182.526,230.406z M182.526,40.781
				c-37.753,0-68.467,41.117-68.467,91.657s30.714,91.658,68.467,91.658s68.467-41.118,68.467-91.658S220.279,40.781,182.526,40.781
				z"/>
		</g>
		<g>
			<path fill="#0E2F47" d="M182.526,230.406c-19.162,0-29.501-50.476-29.501-97.968c0-47.492,10.339-97.968,29.501-97.968
				s29.501,50.476,29.501,97.968C212.027,179.931,201.688,230.406,182.526,230.406z M182.526,40.781
				c-4.116,0-10.373,6.688-15.589,25.459c-4.902,17.64-7.601,41.15-7.601,66.198s2.699,48.558,7.601,66.198
				c5.216,18.771,11.473,25.459,15.589,25.459s10.373-6.688,15.589-25.459c4.902-17.641,7.601-41.15,7.601-66.198
				s-2.699-48.558-7.601-66.198C192.899,47.469,186.642,40.781,182.526,40.781z"/>
		</g>
	</g>
	<g>
		<polygon fill="#F4D986" points="48.826,6.784 71.938,0 65.154,23.112 71.938,46.223 48.826,39.518 25.636,46.223 32.419,23.112 
			25.636,0 		"/>
	</g>
	<g>
		<polygon fill="#F4D986" points="302.896,230.169 325.929,223.386 319.303,246.576 325.929,269.688 302.896,262.904 
			279.784,269.688 286.568,246.576 279.784,223.386 		"/>
	</g>
	<g>
		<polygon fill="#FFFFFF" points="42.121,98.599 53.717,95.207 50.325,106.723 53.717,118.319 42.121,114.927 30.526,118.319 
			33.918,106.723 30.526,95.207 		"/>
	</g>
	<g>
		<polygon fill="#FFFFFF" points="351.328,176.216 362.844,172.824 359.452,184.419 362.844,195.936 351.328,192.544 
			339.811,195.936 343.124,184.419 339.811,172.824 		"/>
	</g>
	<g>
		<polygon fill="#82A152" points="42.121,98.599 53.717,95.207 50.325,106.723 53.717,118.319 42.121,114.927 30.526,118.319 
			33.918,106.723 30.526,95.207 		"/>
	</g>
	<g>
		<polygon fill="#82A152" points="351.328,176.216 362.844,172.824 359.452,184.419 362.844,195.936 351.328,192.544 
			339.811,195.936 343.124,184.419 339.811,172.824 		"/>
	</g>
	<g>
		<g>
			<g>
				<g>
					<path fill="#C34764" d="M332.16,108.38l-0.237-0.079l-0.789-1.972l0.079-0.237c2.524-5.679,2.366-5.916,1.893-6.31
						l-3.392-3.313c-0.079-0.079-0.394-0.237-0.631-0.237s-0.789,0-5.679,2.287l-0.237,0.079l-2.13-0.789l-0.079-0.237
						c-2.287-5.758-2.603-5.758-3.155-5.758h-4.812c-0.631,0-0.789,0-2.997,5.758l-0.079,0.237l-1.972,0.789l-0.237-0.079
						c-3.392-1.42-5.285-2.13-5.916-2.13c-0.237,0-0.473,0.079-0.631,0.237l-3.392,3.313c-0.394,0.394-0.631,0.631,2.13,6.153
						l0.079,0.237l-0.789,1.972l-0.237,0.079c-5.916,2.287-5.916,2.524-5.916,3.076v4.654c0,0.631,0,0.789,5.995,2.997l0.237,0.079
						l0.789,1.972l-0.079,0.237c-2.524,5.679-2.366,5.916-1.893,6.31l3.392,3.313c0.079,0.079,0.394,0.237,0.631,0.237
						s0.789,0,5.679-2.287l0.237-0.079l2.13,0.789l0.079,0.237c2.287,5.758,2.603,5.758,3.155,5.758h4.812
						c0.631,0,0.789,0,2.997-5.758l0.079-0.237l1.972-0.789l0.237,0.079c3.392,1.42,5.285,2.13,5.758,2.13
						c0.237,0,0.473-0.079,0.631-0.237l3.392-3.313c0.394-0.394,0.631-0.631-2.13-6.153l-0.079-0.237l0.789-1.972l0.237-0.079
						c5.916-2.287,5.916-2.524,5.916-3.076v-4.654C337.997,110.667,337.997,110.431,332.16,108.38z M315.674,121.237
						c-4.259,0-7.651-3.392-7.651-7.572s3.471-7.572,7.651-7.572c4.259,0,7.651,3.392,7.651,7.572S319.855,121.237,315.674,121.237z
						"/>
				</g>
			</g>
		</g>
	</g>
	<g>
		<g>
			<g>
				<g>
					<path fill="#C34764" d="M38.887,171.799l-0.237-0.079l-0.789-1.972l0.079-0.237c2.524-5.679,2.366-5.916,1.893-6.31
						l-3.392-3.313c-0.079-0.079-0.394-0.237-0.631-0.237s-0.789,0-5.679,2.287l-0.237,0.079l-2.13-0.789l-0.079-0.237
						c-2.287-5.758-2.603-5.758-3.155-5.758h-4.654c-0.631,0-0.789,0-2.997,5.758l-0.079,0.237l-1.972,0.789l-0.237-0.079
						c-3.392-1.42-5.285-2.13-5.916-2.13c-0.237,0-0.473,0.079-0.631,0.237l-3.392,3.313c-0.394,0.394-0.631,0.631,2.13,6.153
						l0.079,0.237l-0.789,1.972l-0.237,0.079C0,174.244,0,174.402,0,175.033v4.654c0,0.631,0,0.789,5.995,2.997l0.237,0.079
						l0.789,1.972l-0.079,0.237c-2.524,5.679-2.366,5.916-1.893,6.31l3.392,3.313c0.079,0.079,0.394,0.237,0.631,0.237
						s0.789,0,5.679-2.287l0.237-0.079l2.13,0.789l0.079,0.237c2.287,5.758,2.603,5.758,3.155,5.758h4.654
						c0.631,0,0.789,0,2.997-5.758l0.079-0.237l1.972-0.789l0.237,0.079c3.392,1.42,5.285,2.13,5.758,2.13
						c0.237,0,0.473-0.079,0.631-0.237l3.392-3.313c0.394-0.394,0.631-0.631-2.13-6.153v-0.316l0.789-1.972h0.237
						c5.916-2.287,5.916-2.524,5.916-3.076v-4.654C44.803,174.244,44.803,173.928,38.887,171.799z M22.481,184.814
						c-4.259,0-7.651-3.392-7.651-7.572c0-4.181,3.471-7.572,7.651-7.572c4.259,0,7.651,3.392,7.651,7.572
						C30.132,181.422,26.661,184.814,22.481,184.814z"/>
				</g>
			</g>
		</g>
	</g>
</g>
</svg>
