<?xml version="1.0" encoding="utf-8"?>
<!-- Generator: Adobe Illustrator 24.1.2, SVG Export Plug-In . SVG Version: 6.00 Build 0)  -->
<svg version="1.1" id="Layer_1" xmlns="http://www.w3.org/2000/svg" xmlns:xlink="http://www.w3.org/1999/xlink" x="0px" y="0px"
	 viewBox="0 0 362.844 256.296" enable-background="new 0 0 362.844 256.296" xml:space="preserve">
<g>
	<g>
		
			<linearGradient id="SVGID_3_" gradientUnits="userSpaceOnUse" x1="6.9405" y1="4336.6392" x2="329.0015" y2="4336.6392" gradientTransform="matrix(1 0 0 -1 0 4433.562)">
			<stop  offset="0" style="stop-color:#DEE0E0"/>
			<stop  offset="0.5326" style="stop-color:#DCDEDF"/>
			<stop  offset="0.7244" style="stop-color:#D5D8D9"/>
			<stop  offset="0.8611" style="stop-color:#CACDCE"/>
			<stop  offset="0.9709" style="stop-color:#BABDBF"/>
			<stop  offset="1" style="stop-color:#B4B8BA"/>
		</linearGradient>
		<path fill="url(#SVGID_3_)" d="M280.171,96.092c-3.231,0-6.277,0.369-9.323,0.923c0.831-3.323,1.385-6.831,1.385-10.431
			c0-22.615-18.369-40.985-40.984-40.985c-10.061,0-19.2,3.6-26.308,9.6C195.525,23.261,165.894,0,130.909,0
			c-27.785,0-52.154,14.677-65.815,36.831l44.677,21.877L54.294,86.954l0,0c-26.677,3.138-47.354,25.754-47.354,53.261
			c0,29.631,24,53.631,53.631,53.631l180.646-0.646v-27.231v-55.477l55.477,27.231l-55.477,28.246l53.446,26.215
			c19.477-6.738,34.338-25.846,34.338-47.261C329.094,117.969,307.217,96.092,280.171,96.092z"/>
	</g>
	<polygon id="Fill-10_229_" fill-rule="evenodd" clip-rule="evenodd" fill="#EDD280" points="37.359,104.256 92.836,76.01 
		37.359,48.779 	"/>
	<g>
		<g>
			<g id="Bottom_x2F_Standing_x2F_Sweatpants_21_" transform="translate(0.000000, 203.685999)">
				<polygon id="Leg_45_" fill-rule="evenodd" clip-rule="evenodd" fill="#C79E84" points="16.106,-34.815 29.511,11.365 
					35.792,46.07 42.143,46.07 35.827,-34.815 				"/>
				<path id="Leg_44_" fill-rule="evenodd" clip-rule="evenodd" fill="#C79E84" d="M10.07-34.815
					c0.947,24.002,0.561,37.091,0.351,39.267c-0.211,2.176-1.404,16.774-9.51,42.355h6.597C18.246,22.278,21.966,7.68,23.194,4.452
					c1.228-3.228,4.878-16.317,10.176-39.267H10.07z"/>
				<path id="Pant_39_" fill-rule="evenodd" clip-rule="evenodd" fill="#252728" d="M15.79-34.815
					c3.474,15.896,9.51,41.267,18.107,76.113h9.264c0.667-35.758-2.211-59.304-7.264-76.113H15.79z"/>
				<path id="Pant_38_" fill-rule="evenodd" clip-rule="evenodd" fill="#252728" d="M10.035-34.815
					c0.912,24.002-1.474,47.654-8.808,76.499h9.861C21.826,17.541,29.546-6.005,34.809-34.815H10.035z"/>
				<g id="Accessories_x2F_Shoe_x2F_Flat-Simple_40_" transform="translate(87.603226, 207.536214)">
					<path id="Shoe_46_" fill-rule="evenodd" clip-rule="evenodd" fill="#252728" d="M-87.603-155.979l0.351-5.86
						c2.141,0.632,4.772,0.386,8.001-0.737c3.439,2.421,7.79,4.106,12.984,4.983l0,0c0.386,0.07,0.667,0.456,0.597,0.842
						c0,0.035,0,0.035,0,0.07l-0.491,1.755h-13.089h-7.65L-87.603-155.979z"/>
				</g>
				<g id="Accessories_x2F_Shoe_x2F_Flat-Simple_39_" transform="translate(185.635407, 207.536214)">
					<path id="Shoe_45_" fill-rule="evenodd" clip-rule="evenodd" fill="#252728" d="M-151.235-155.979l0.351-5.86
						c2.141,0.632,4.772,0.386,8.001-0.737c3.439,2.421,7.79,4.106,12.984,4.983l0,0c0.386,0.07,0.667,0.456,0.597,0.842
						c0,0.035,0,0.035,0,0.07l-0.491,1.755h-13.089h-7.65L-151.235-155.979z"/>
				</g>
			</g>
			<g id="humaaans_x2F_sitting-7_11_">
				
					<g id="A-Human_x2F_Sitting_19_" transform="translate(190.000000, 200.500000) scale(-1, 1) translate(-190.000000, -200.500000) translate(40.000000, 24.000000)">
					<g id="Head_x2F_Front_x2F_Chongo_11_" transform="translate(82.000000, 0.000000)">
						<g id="Head_42_" transform="translate(54.000000, 31.000000)">
							<path fill-rule="evenodd" clip-rule="evenodd" fill="#C79E84" d="M191.329,74.018l-10.96-1.196l3.308-12.948
								c-3.163,1.457-6.134,2.011-7.464,1.496c-3.33-1.241-2.285-13.789,0.902-18.432c3.187-4.643,17.03-5.304,16.648,4.543
								c-0.145,3.45-1.89,6.309-4.26,8.546L191.329,74.018z"/>
						</g>
						<path id="hair_23_" fill-rule="evenodd" clip-rule="evenodd" fill="#FFCA7F" d="M230.377,72.657
							c-0.203,0.163-0.415,0.417-0.354,0.701c0.021,0.233,0.183,0.436,0.301,0.634c0.32,0.451,0.752,0.729,1.189,0.962
							c1.696,0.971,3.65,1.276,5.291,2.333c1.514,0.951,2.303,2.608,2.621,4.353c1.206-0.469,2.697-1,3.911-0.266
							c0.955,0.566,1.12,2.017,0.868,3.052c-0.206,1.04-0.803,1.853-1.654,2.453c-0.147,0.076-0.345,0.193-0.451,0.32
							c-0.101,0.081-0.066,0.178,0.011,0.325c0.143,0.385,0.423,0.785,0.667,1.089c0.687,0.907,1.869,1.082,2.899,0.963
							c0.563-0.077,1.085-0.205,1.607-0.333c0.527-0.174,1.1-0.342,1.587-0.566c1.115-0.479,1.864-1.414,2.273-2.617
							c0.464-1.289,0.619-2.705,0.672-4.039c0.063-1.426-0.061-2.826-0.374-4.2c-0.276-1.278-0.741-2.53-1.458-3.579
							c1.314-0.18,2.662-0.68,3.685-1.585c1.129-1.032,2.513-3.977,2.689-5.159c0.175-1.182,0.153-2.248-0.056-2.871
							c-0.388-1.105-1.171-1.976-2.181-2.456c-0.086-0.056-0.223-0.071-0.31-0.126c-0.132-0.061-0.122-0.152-0.158-0.248
							c-0.107-0.289-0.265-0.537-0.423-0.786c-0.356-0.547-0.915-0.932-1.484-1.225c-0.569-0.293-1.244-0.459-1.893-0.438
							c-0.553-0.014-1.258,0.094-1.759,0.455c-0.248,0.158-0.355,0.285-0.624,0.209c-0.223-0.071-0.437-0.232-0.706-0.308
							c-0.579-0.202-1.172-0.267-1.781-0.194c-0.609,0.072-1.187,0.286-1.642,0.653c-0.456,0.366-0.835,0.879-1.123,1.402
							c-0.678,1.127-1.345,2.164-1.672,3.468c-0.327,1.304-0.253,2.745,0.114,4.033c-0.903-0.191-3.065-0.288-4.621,0.004
							C234.479,69.361,231.338,71.468,230.377,72.657z"/>
					</g>
				</g>
			</g>
			<path id="Clothes_20_" fill-rule="evenodd" clip-rule="evenodd" fill="#00466D" d="M39.361,170.443
				c-2.16,7.949-23.507,4.701-30.072,7.232c-3.024-28.867,2.429-54.814,3.58-55.017l10.398-1.833
				C25.15,128.135,40.388,166.589,39.361,170.443z"/>
		</g>
		<path id="Skin_35_" fill-rule="evenodd" clip-rule="evenodd" fill="#C79E84" d="M43.58,100.453l0.38-4.904
			c-1.606-1.761-2.183-3.012-1.723-3.717c0.106-0.709,1.915,1.833,2.393,0.654c0.463-1.156,0.23-4.873,0.876-5.067
			c0.984-0.266,2.318,1.415,2.751,2.638c0.775,2.288,0.639,3.69-0.31,6.733c-0.511,1.578-0.71,3.523-0.597,5.833L43.58,100.453z"/>
		<path fill-rule="evenodd" clip-rule="evenodd" fill="#00466D" d="M43.348,97.756h5.133c0,0,2.243,25.842-4.216,34.847
			c-6.816,9.501-19.299,8.363-24.015-0.733c-4.716-9.096,3.018-11.045,3.018-11.045S38.167,131.062,43.348,97.756z"/>
	</g>
	<g id="humaaans_x2F_standing-23_3_">
		<g id="humaaan-8_3_" transform="translate(34.000000, 18.000000)">
			<g id="Head_x2F_Front_x2F_Curly_4_" transform="translate(85.439497, 0.000000)">
				<g id="Head_41_" transform="translate(56.316359, 32.329762)">
					<path fill-rule="evenodd" clip-rule="evenodd" fill="#9F806C" d="M4.096,42.916c-2.083-2.431-3.516-5.469-3.255-8.811
						c0.694-9.679,14.149-7.552,16.797-2.648c2.604,4.904,2.3,17.274-1.085,18.186c-1.345,0.347-4.253-0.521-7.161-2.257
						l1.823,13.021H0.363L4.096,42.916z"/>
				</g>
				<path id="hair_22_" fill-rule="evenodd" clip-rule="evenodd" fill="#252728" d="M78.764,57.004
					c-0.217-0.781-0.825-1.476-1.649-1.649c-0.217-0.043-0.391-0.087-0.608-0.043c-0.087,0-0.087,0.043-0.13-0.043
					c-0.043-0.043-0.043-0.13-0.043-0.174c-0.043-0.13-0.087-0.26-0.13-0.391c-0.174-0.434-0.477-0.868-0.825-1.172
					c-0.651-0.651-1.519-1.085-2.431-1.128c-0.477-0.043-0.998,0.043-1.476,0.217c-0.26,0.087-0.477,0.174-0.694,0.304
					c-0.087,0.043-0.304,0.217-0.347,0.174c-0.087,0-0.217-0.217-0.304-0.26c-0.781-0.608-1.736-0.825-2.691-0.825
					c-1.085,0-2.127,0.043-3.038,0.738c-0.174,0.13-0.391,0.304-0.564,0.434c-0.087,0.087-0.174,0.174-0.26,0.26
					c-0.043,0.043-0.087,0.13-0.13,0.174c-0.087,0.087-0.087,0.13-0.174,0.043c-0.434-0.26-0.955-0.391-1.432-0.304
					c-0.304,0.043-0.608,0.13-0.868,0.26c-0.087,0.043-0.304,0.217-0.434,0.217c-0.087,0-0.304-0.13-0.434-0.174
					c-0.564-0.217-1.172-0.26-1.736-0.174c-0.608,0.087-1.215,0.347-1.693,0.651c-0.26,0.174-0.477,0.347-0.651,0.564
					c-0.087,0.087-0.13,0.217-0.217,0.304c-0.043,0.043-0.13,0.13-0.174,0.174c0-0.043-0.651-0.304-0.738-0.304
					c-0.347-0.087-0.694-0.087-0.998,0.043c-0.608,0.217-1.172,0.651-1.606,1.128c-0.217,0.26-0.434,0.521-0.608,0.781
					c-0.087,0.13-0.174,0.26-0.217,0.434c-0.043,0.087-0.043,0.174-0.087,0.217c-0.043,0.087-0.087,0.087-0.174,0.13
					c-0.521,0.174-0.998,0.477-1.345,0.911c-0.347,0.434-0.608,0.911-0.694,1.476c0,0.043,0,0.174-0.043,0.174
					c-0.043,0.043-0.13,0-0.174,0c-0.13,0-0.26,0.043-0.391,0.087c-0.26,0.043-0.477,0.13-0.694,0.26
					c-0.868,0.434-1.519,1.259-1.823,2.17c-0.304,0.955-0.304,2.04,0.087,2.995c0.043,0.174,0.13,0.304,0.217,0.434
					c0.043,0.087,0.087,0.087,0.043,0.174c-0.043,0.087-0.13,0.217-0.174,0.304c-0.13,0.304-0.26,0.651-0.304,0.998
					c-0.087,0.564-0.174,1.172-0.043,1.736c0.043,0.26,0.13,0.521,0.26,0.781c0.087,0.13,0.13,0.217,0.217,0.347
					c0.043,0.043,0.087,0.087,0.13,0.174c0.043,0.043,0.087,0.043,0.087,0.087c0.043,0.087,0.087,0,0.043,0.13
					c-0.043,0.174-0.13,0.304-0.217,0.477c-0.043,0.174-0.13,0.304-0.174,0.477c-0.087,0.347-0.174,0.651-0.26,0.998
					c-0.087,0.651-0.087,1.389,0.217,1.997c0.13,0.26,0.347,0.477,0.564,0.651c0.13,0.087,0.217,0.174,0.347,0.217
					c0.087,0.043,0.13,0.043,0.174,0.13c0.043,0.087,0,0.217-0.043,0.304c-0.087,0.694-0.13,1.389,0.043,2.04
					c0.174,0.608,0.608,1.128,1.128,1.519c1.042,0.694,2.387,0.651,3.472,0.087c0.26-0.13,0.521-0.304,0.781-0.521
					c0.608,0.781,1.823,0.781,2.691,0.564c1.085-0.304,1.953-1.042,2.474-2.04c0.694,0.825,2.127,0.564,2.604-0.347
					c0.13-0.217,0.174-0.477,0.217-0.694c0-0.13,0-0.26,0-0.391c0-0.174,0.13-0.304,0.174-0.477c0.13-0.304,0.217-0.608,0.217-0.955
					c0-0.174,0-0.347-0.043-0.521c0-0.174,0.043-0.304,0.043-0.434c-0.26,0.043-0.608-0.043-0.868-0.13
					c-0.26-0.087-0.477-0.304-0.694-0.477c-0.434-0.434-0.694-1.042-0.868-1.606c-0.391-1.259-0.217-2.778,1.042-3.472
					c0.608-0.304,2.387-0.304,3.082-0.174c0.738,0.174,1.562,1.823,1.606,1.953c0.043,0.087,0,0.217,0.087,0.26
					c0.174,0.13,0.521-0.087,0.651-0.217c0.26-0.217,0.434-0.477,0.564-0.738c0.347-0.608,0.608-1.259,0.781-1.91
					c0.13-0.521,0.217-1.042,0.434-1.519c0.174-0.477,0.477-0.955,0.955-1.215c0.521-0.304,1.085-0.477,1.649-0.651
					c0.564-0.174,1.085-0.434,1.519-0.825c0.087-0.087,0.174-0.174,0.26-0.304c0.043-0.087,0.13-0.26,0.217-0.304
					c0.13-0.087,0.347,0.13,0.477,0.217c0.608,0.391,1.085,0.911,1.519,1.476c0.391,0.564,0.738,1.128,0.998,1.78
					c0.217,0.477,0.304,1.085,0.651,1.476c0.174,0.174,1.302,0.26,1.693,0.13s0.781-0.564,0.911-0.781
					c0.13-0.26,0.174-0.521,0.087-0.825c-0.043-0.174-0.087-0.304-0.13-0.477c-0.043-0.13-0.043-0.26-0.13-0.391
					c-0.13-0.217-0.347-0.391-0.608-0.477c0.26-0.26,0.477-0.521,0.651-0.868c0.174-0.347,0.304-0.738,0.347-1.128
					c0.043-0.304,0-0.608-0.174-0.868c-0.174-0.26-0.477-0.434-0.738-0.608c0.391-0.304,0.738-0.694,1.042-1.128
					C78.721,59.044,79.068,58.002,78.764,57.004z"/>
			</g>
			<g id="Bottom_x2F_Standing_x2F_Skinny-Jeans-Walk_3_" transform="translate(0.000000, 194.763541)">
				<polygon id="Leg_43_" fill-rule="evenodd" clip-rule="evenodd" fill="#252728" points="138.536,-64.642 160.324,-7.047 
					175.558,35.4 184.282,35.4 163.275,-64.642 				"/>
				<path id="Leg_42_" fill-rule="evenodd" clip-rule="evenodd" fill="#252728" d="M133.154-64.642
					c-0.217,19.748-0.087,46.354-0.608,47.612c-0.347,0.825-11.805,10.156-34.288,28.081l4.47,7.639
					c26.692-17.231,40.755-26.996,42.1-29.253c2.04-3.429,12.326-35.113,17.708-53.993h-29.383V-64.642z"/>
				
					<g id="Accessories_x2F_Shoe_x2F_Flat-Pointy_6_" transform="translate(58.923598, 197.107258) rotate(50.000000) translate(-58.923598, -197.107258) translate(27.115284, 176.249347)">
					<path id="Shoe_44_" fill-rule="evenodd" clip-rule="evenodd" fill="#252728" d="M-86.608-119.548l0.434-9.505h9.505
						c4.514,3.168,10.373,5.729,17.665,7.682v1.823L-86.608-119.548L-86.608-119.548z"/>
				</g>
				<g id="Accessories_x2F_Shoe_x2F_Flat-Pointy_5_" transform="translate(216.922274, 207.536214)">
					<path id="Shoe_43_" fill-rule="evenodd" clip-rule="evenodd" fill="#252728" d="M-42.179-164.004l0.434-9.505h9.505
						c4.514,3.168,10.373,5.729,17.665,7.682v1.823H-42.179z"/>
				</g>
			</g>
			<path id="Shirt_15_" fill-rule="evenodd" clip-rule="evenodd" fill="#FFFFFF" d="M130.33,137.635c16.401,0,28.453,0,36.155,0
				c1.631,0-12.414-32.44-12.414-52.239l-10.421-1.631C134.997,97.629,132.052,114.71,130.33,137.635z"/>
			<g>
				<path id="Coat-Front_16_" fill-rule="evenodd" clip-rule="evenodd" fill="#BB4764" d="M143.276,82.657
					c0.347,0,0.651,0,0.911,0.043l3.125,0.174c8.984,30.425,11.458,50.694,7.422,60.85h-27.213
					c-1.606,3.776-3.168,6.944-4.644,9.505h-7.422C114.761,130.66,137.07,82.657,143.276,82.657z"/>
			</g>
			<g id="Body_x2F_Hoodie_9_" transform="translate(22.922792, 85.404334)">
				<path id="Shade_3_" opacity="0.1" fill-rule="evenodd" clip-rule="evenodd" d="M110.545,42.738
					c0.868,7.161,2.257,12.37,4.167,15.625h-10.113C106.465,53.979,108.461,48.771,110.545,42.738z"/>
				<polygon id="Fill-10_228_" fill-rule="evenodd" clip-rule="evenodd" fill="#FFFFFF" points="76.852,97.465 132.329,69.219 
					76.852,41.988 				"/>
				<polygon id="Fill-10_226_" opacity="0.5" fill-rule="evenodd" clip-rule="evenodd" fill="#235D80" points="76.852,97.465 
					132.329,69.219 76.852,41.988 				"/>
				<path id="Skin_32_" fill-rule="evenodd" clip-rule="evenodd" fill="#9F806C" d="M98.566,39.353l9.462,0.043
					c-5.859,18.837-8.984,28.863-9.462,29.991c-1.042,2.604,1.172,6.554,2.127,8.68c-3.082,1.389-2.778-3.733-6.641-1.91
					c-3.559,1.649-6.25,4.644-10.373,2.127c-0.521-0.304-1.042-1.476,0.26-2.387c3.342-2.3,8.116-6.293,8.767-7.595
					C93.574,66.479,95.527,56.844,98.566,39.353z"/>
				<path fill-rule="evenodd" clip-rule="evenodd" fill="#BB4764" d="M124.39-2.531l-3.125-0.174
					c-0.26-0.043-0.564-0.041-0.911-0.043c-11-0.08-28.515,48.003-27.821,70.572h7.422c1.476-2.561,3.038-5.729,4.644-9.505h0.018
					c1.861-4.375,3.851-9.568,5.928-15.581c0.864,7.131,2.245,12.324,4.142,15.581h17.125
					C135.848,48.163,133.374,27.894,124.39-2.531z"/>
			</g>
		</g>
	</g>
	<g id="humaaans_x2F_standing-3_7_">
		<g id="humaaan-12_7_" transform="translate(24.000000, 10.000000)">
			
				<g id="Head_x2F_Front_x2F_Pony_8_" transform="translate(192.496667, 70.916479) rotate(15.000000) translate(-192.496667, -70.916479) translate(121.550000, 16.686230)">
				<g id="Head_40_" transform="translate(56.316359, 32.329762)">
					<path fill-rule="evenodd" clip-rule="evenodd" fill="#BF9580" d="M132.997,22.982l-9.118,5.265l-4.786-11.827
						c-1.601,2.87-3.624,5.01-4.923,5.371c-3.287,0.877-9.544-9.371-9.735-14.756c-0.155-5.406,10.12-13.721,15.4-5.925
						c1.84,2.682,2.111,5.93,1.539,8.984L132.997,22.982z"/>
				</g>
				<path id="Hair_16_" fill-rule="evenodd" clip-rule="evenodd" fill="#252728" d="M168.149,38.165
					c2.837,5.281,3.509,8.389,1.979,9.351c-2.257,1.418-5.114,1.115-6.108,1.74c-0.727,0.457,0.023,1.31,0.942,1.67
					c0.73,0.314,3.029-0.358,3.601,0.552c0.572,0.91-1.406,1.159-1.083,1.673c0.547,0.87,1.298,2.661,2.751,1.748
					c1.492-0.937,5.39-4.158,4.7-6.87c-0.46-1.752-2.068-4.991-4.798-9.677c0.077-0.048,0.191-0.12,0.268-0.168
					c1.262-0.793,2.966-0.373,3.786,0.932c0.422,0.673,0.527,1.434,0.38,2.134c1.033,0.455,2.103,0.886,3.314,1.284
					c1.569-3.192,0.549-9.062-4.784-11.948c-2.055-1.744-4.369-1.946-6.553-1.346c-1.889,0.304-3.508,1.21-4.56,2.422
					c-2.414,1.847-4.212,4.08-4.577,5.027c1.59,2.532,2.522,2.996,6.527,0.37C165.239,37.014,166.575,37.444,168.149,38.165z"/>
			</g>
			<g id="Bottom_x2F_Standing_x2F_Sweatpants_20_" transform="translate(0.000000, 211.706546)">
				<polygon id="Leg_41_" fill-rule="evenodd" clip-rule="evenodd" fill="#A58076" points="295.844,-70.338 288.263,26.74 
					295.844,26.74 303.425,-14.913 319.514,-70.338 				"/>
				<path id="Leg_40_" fill-rule="evenodd" clip-rule="evenodd" fill="#BF9580" d="M298.793-70.338
					c6.36,27.544,10.74,43.254,12.214,47.128c1.474,3.875,5.938,21.395,18.826,50.835h7.918
					c-9.729-30.703-11.161-48.223-11.414-50.835c-0.253-2.611-0.716-18.321,0.421-47.128H298.793z"/>
				<path id="Pant_37_" fill-rule="evenodd" clip-rule="evenodd" fill="#252728" d="M295.718-70.338
					C289.653-50.164,286.2-21.904,287,21.012h11.119c10.319-41.822,17.563-72.272,21.732-91.351H295.718z"/>
				<path id="Pant_36_" fill-rule="evenodd" clip-rule="evenodd" fill="#252728" d="M297.066-70.338
					c6.317,34.578,15.583,62.838,28.471,91.814h11.835c-8.802-34.62-11.666-63.006-10.571-91.814H297.066z"/>
				<g id="Accessories_x2F_Shoe_x2F_Flat-Simple_38_" transform="translate(87.603226, 207.536214)">
					<path id="Shoe_42_" fill-rule="evenodd" clip-rule="evenodd" fill="#252728" d="M250.356-172.947h-9.139h-15.709l-0.59-2.106
						c0-0.042,0-0.042,0-0.084c-0.084-0.463,0.253-0.927,0.716-1.011l0,0c6.233-1.053,11.456-3.074,15.583-5.981
						c3.875,1.348,7.033,1.643,9.603,0.884l0.421,7.033L250.356-172.947z"/>
				</g>
				<g id="Accessories_x2F_Shoe_x2F_Flat-Simple_37_" transform="translate(185.635407, 207.536214)">
					<path id="Shoe_41_" fill-rule="evenodd" clip-rule="evenodd" fill="#252728" d="M111.036-172.947h-9.139H86.188l-0.59-2.106
						c0-0.042,0-0.042,0-0.084c-0.084-0.463,0.253-0.927,0.716-1.011l0,0c6.233-1.053,11.456-3.074,15.583-5.981
						c3.875,1.348,7.033,1.643,9.603,0.884l0.421,7.033L111.036-172.947z"/>
				</g>
			</g>
			
				<g id="Body_x2F_Pointing-Forward_7_" transform="translate(167.500000, 199.713318) rotate(10.000000) translate(-167.500000, -199.713318) translate(33.953333, 102.203160)">
				<path fill-rule="evenodd" clip-rule="evenodd" fill="#BF9580" d="M235.531-5.295l-14.088,2.194
					c-5.571,2.304-8.423,3.027-8.489,2.118c-0.074-1.33,1.725-1.555,1.811-2.474s-2.327-2.032-4.635-3.012
					c-2.308-0.979-1.148-1.614-0.369-1.847c2.963-0.169,6.405,0.142,10.235,0.952l17.155-2.773L235.531-5.295z"/>
				<path id="Sleeve_3_" fill-rule="evenodd" clip-rule="evenodd" fill="#809443" d="M244.291-7.331
					c-4.812,4.289-13.214,5.767-20.547,5.183l-2.013-7.012c8.916-1.196,15.086-4.923,19.197-8.344
					C246.093-17.073,248.101-10.718,244.291-7.331z"/>
				<g>
					<polygon id="Fill-10_225_" fill-rule="evenodd" clip-rule="evenodd" fill="#00466D" points="179.831,35.344 229.56,-2.106 
						170.197,-19.29 					"/>
					<polygon id="Fill-10_223_" opacity="0.5" fill-rule="evenodd" clip-rule="evenodd" fill="#00466D" points="179.831,35.344 
						229.56,-2.106 170.197,-19.29 					"/>
				</g>
				<path id="Skin_31_" fill-rule="evenodd" clip-rule="evenodd" fill="#BF9580" d="M219.805,16.014
					c-3.451-0.985-6.459-1.369-9.025-1.152c-4.933,0.361-7.099,0.074-10.284-1.904c-1.695-1.086-3.765-3.694-3.017-5.087
					c0.521-0.907,6.056,0.754,7.967,0.462c1.95-0.306-1.253-3.936-0.145-3.846c1.227-0.447,2.915,0.866,5.01,3.913l7.546,1.153
					L219.805,16.014z"/>
				<path id="Clothes_19_" fill-rule="evenodd" clip-rule="evenodd" fill="#809443" d="M238.116-25.296l11.438-4.163
					c1.266-0.461,34.439,36.005,35.286,52.862c-6.889,5.465-27.453,16.805-34.191,10.114c-3.247-3.255-5.356-7.328-6.761-11.926
					c-7.656,2.607-17.785,3.47-30.595,1.769c-1.231-2.644-1.478-7.754-0.699-15.343c14.173-0.094,23.654-1.752,28.507-5.042
					C240.499-6.802,240.41-16.898,238.116-25.296z"/>
			</g>
		</g>
	</g>
</g>
</svg>
