<?xml version="1.0" encoding="utf-8"?>
<!-- Generator: Adobe Illustrator 24.1.2, SVG Export Plug-In . SVG Version: 6.00 Build 0)  -->
<svg version="1.1" id="Layer_1" xmlns="http://www.w3.org/2000/svg" xmlns:xlink="http://www.w3.org/1999/xlink" x="0px" y="0px"
	 viewBox="0 0 480.069 314.185" enable-background="new 0 0 480.069 314.185" xml:space="preserve">
<g>
	<g>
		<g>
			<rect x="198.827" y="33.062" fill-rule="evenodd" clip-rule="evenodd" fill="#93C5E1" width="281.242" height="211.267"/>
		</g>
		<rect x="225.703" y="58.235" fill="#FFFFFF" width="226.871" height="160.921"/>
		<g id="Head_x2F_Front_x2F_Short-Beard_11_" transform="translate(82.000000, 0.000000)">
			<g id="Head_46_" transform="translate(54.000000, 31.000000)">
				<path fill-rule="evenodd" clip-rule="evenodd" fill="#9C8067" d="M218.152,72.131l-27.652,3.278l0.756-33.686
					c-6.928,5.381-14.001,8.423-17.547,7.944c-8.892-1.201-13.427-32.674-8.226-45.91s38.881-22.729,43.534,1.723
					c1.615,8.487-1.073,16.549-5.643,23.41L218.152,72.131z"/>
			</g>
			<path id="Hair_18_" fill-rule="evenodd" clip-rule="evenodd" fill="#252728" d="M231.856,34.011
				c-12.385,1.667-14.101-0.385-14.99-7.883c1.834-1.672,8.619-4.925,16.457-6.543c3.903-1.635,8.714-1.985,13.553-0.603
				c5.882,0.94,11.113,3.846,14.014,10.104c9.276,12.377,4.685,27.816-2.631,33.475c-2.391-2.236-4.121-5.338-6.027-7.45
				c1.16-1.437,1.762-3.322,1.528-5.299c-0.462-3.897-3.995-6.681-7.892-6.219c-0.285,0.034-0.564,0.084-0.835,0.15
				c1.201,13.749,1.597,23.275,0.671,27.801c-1.435,7.015-14.537,9.83-19.085,10.37c-4.494,0.533-4.249-4.433-4.556-7.022
				c-0.186-1.566,4.737-0.078,4.424-2.717c-0.313-2.639-6.431-3.578-7.849-5.136c-1.719-1.889-2.546-4.613-0.321-4.877
				c3.051-0.362,9.473,3.354,16.427,2.529c4.636-0.549,6.602-8.413,5.898-23.59C237.768,37.755,235.095,35.26,231.856,34.011z"/>
		</g>
		<path fill-rule="evenodd" clip-rule="evenodd" fill="#629FCF" d="M434.753,219.094c-16.392-56.218-43.289-101.124-80.576-134.832
			H352.1l0,0l-31.284,7.157c0,53.679-17.085,88.195-25.858,127.675H434.753z"/>
		<g>
			<g>
				<rect x="160.515" fill="#809443" width="127.999" height="86.694"/>
				<polygon fill="#809443" points="268.339,86.694 241.133,86.694 268.339,108.893 				"/>
			</g>
			<g>
				<circle fill="#FFFFFF" cx="195.07" cy="43.428" r="8.868"/>
				<circle fill="#FFFFFF" cx="224.514" cy="43.428" r="8.868"/>
				<circle fill="#FFFFFF" cx="253.958" cy="43.428" r="8.868"/>
			</g>
		</g>
		<path id="Shade_7_" fill-rule="evenodd" clip-rule="evenodd" fill="#4A8098" d="M379.459,219.094h-17.2
			c4.733-17.662,6.003-43.174,3.809-76.651C372.879,166.57,377.034,192.081,379.459,219.094z"/>
		<g>
			<path fill="#FFFFFF" d="M229.168,314.163h-30.223v-6.358l10.853-10.971c3.213-3.292,5.313-5.575,6.299-6.846
				c0.986-1.272,1.695-2.45,2.129-3.534c0.433-1.084,0.651-2.208,0.651-3.371c0-1.735-0.478-3.026-1.434-3.874
				c-0.957-0.848-2.233-1.272-3.83-1.272c-1.676,0-3.302,0.385-4.879,1.153c-1.577,0.769-3.223,1.863-4.939,3.283l-4.968-5.885
				c2.129-1.814,3.893-3.095,5.293-3.844c1.4-0.749,2.928-1.326,4.584-1.73c1.656-0.404,3.509-0.606,5.56-0.606
				c2.701,0,5.087,0.493,7.157,1.479c2.07,0.986,3.677,2.366,4.82,4.14c1.143,1.774,1.715,3.805,1.715,6.092
				c0,1.991-0.35,3.859-1.05,5.604c-0.7,1.745-1.785,3.534-3.253,5.367c-1.469,1.833-4.056,4.446-7.763,7.837l-5.56,5.234v0.414
				h18.838V314.163z"/>
			<path fill="#FFFFFF" d="M264.715,305.203h-5.205v8.96h-8.93v-8.96h-18.453v-6.358l18.956-27.916h8.427v27.177h5.205V305.203z
				 M250.579,298.105v-7.334c0-1.222,0.049-2.997,0.148-5.323c0.098-2.326,0.177-3.677,0.236-4.051h-0.236
				c-0.73,1.617-1.607,3.194-2.633,4.732l-7.925,11.977H250.579z"/>
			<path fill="#FFFFFF" d="M277.164,297.277l-10.646-16.176h10.232l6.417,10.528l6.476-10.528h10.232l-10.764,16.176l11.267,16.886
				h-10.262l-6.949-11.326l-6.979,11.326h-10.232L277.164,297.277z"/>
			<path fill="#FFFFFF" d="M307.387,314.163l16.235-35.487h-21.322v-7.689h31.021v5.737l-16.353,37.439H307.387z"/>
		</g>
		<path fill-rule="evenodd" clip-rule="evenodd" fill="#9C8067" d="M247.345,133.93c-2.475-10.659-2.997-13.968-17.068-13.734
			c-14.071,0.235-25.231-1.48-12.332,8.37c12.899,9.85,23.264,2.34,27.017,11.721C248.714,149.668,247.345,133.93,247.345,133.93z"
			/>
		<path fill-rule="evenodd" clip-rule="evenodd" fill="#629FCF" d="M320.77,91.538c0,0-39.718,34.258-46.551,36.764
			c-6.834,2.506-27.174-9.68-27.174-9.68l-9.526,25.022c0,0,34.632,24.022,63.08,14.745
			C329.045,149.111,320.77,91.538,320.77,91.538z"/>
		<g>
			<rect x="0" y="114.453" fill-rule="evenodd" clip-rule="evenodd" fill="#CB6180" width="174.229" height="129.876"/>
		</g>
		<g>
			<rect x="16.569" y="132.041" fill="#FFFFFF" width="140.921" height="86.944"/>
		</g>
		<g>
			<circle fill="#629FCF" cx="90.019" cy="40.623" r="32.134"/>
			<g>
				<path fill="#FFFFFF" d="M80.015,52.781v-4.228c0-3.212,0.655-5.924,1.967-8.136c1.311-2.212,3.638-4.367,6.981-6.465
					c2.655-1.671,4.564-3.179,5.727-4.523c1.163-1.344,1.745-2.884,1.745-4.621c0-1.377-0.623-2.466-1.868-3.269
					c-1.246-0.803-2.868-1.205-4.867-1.205c-4.949,0-10.734,1.754-17.354,5.261l-6.834-13.372C73.673,7.568,82.194,5.24,91.076,5.24
					c7.308,0,13.044,1.606,17.207,4.818c4.162,3.212,6.244,7.588,6.244,13.127c0,3.966-0.927,7.399-2.778,10.3
					c-1.852,2.901-4.81,5.646-8.874,8.235c-3.441,2.229-5.597,3.859-6.465,4.892c-0.869,1.032-1.303,2.254-1.303,3.663v2.507
					L80.015,52.781L80.015,52.781z M77.901,69.988c0-3.015,0.877-5.342,2.63-6.981c1.753-1.639,4.334-2.458,7.743-2.458
					c3.277,0,5.793,0.828,7.546,2.483c1.753,1.655,2.63,3.974,2.63,6.957c0,2.983-0.909,5.293-2.728,6.932
					c-1.819,1.638-4.302,2.458-7.448,2.458c-3.245,0-5.785-0.811-7.62-2.434C78.818,75.322,77.901,73.004,77.901,69.988z"/>
			</g>
		</g>
		<g>
			<polygon id="Fill-10_220_" fill-rule="evenodd" clip-rule="evenodd" fill="#FFCA7F" points="87.691,314.185 130.96,292.144 
				87.691,270.873 			"/>
			<polygon id="Fill-10_218_" fill-rule="evenodd" clip-rule="evenodd" fill="#8BBDD9" points="130.96,314.185 174.229,292.144 
				130.96,270.873 			"/>
		</g>
	</g>
	<path fill="#809B52" d="M111.792,161.3c7.639,2.279,29.72,38.266,31.475,57.715H124.11L111.792,161.3z"/>
	<g>
		<path id="Hair-Front_11_" fill-rule="evenodd" clip-rule="evenodd" fill="#252728" d="M78.469,129.573
			c2.281,14.535,14.604,30.522,10.797,34.74l-47.513,2.99c-4.164-34.43,14.267-23.407,13.852-54.794
			c-0.181-13.679,15.97-24.364,25.473-24.963c14.254-0.897,19.17,5.452,23.355,10.842c-2.246,10.009-13.27,12.166-22.762,18.914
			c-1.224-0.873-2.744-1.346-4.361-1.244c-3.739,0.235-6.579,3.457-6.344,7.196s3.457,6.579,7.196,6.344
			C78.265,129.593,78.367,129.584,78.469,129.573z"/>
		<path id="Hair-Front_10_" fill-rule="evenodd" clip-rule="evenodd" fill="#252728" d="M97.918,128.349
			c-0.441,14.706-10.662,32.112-6.356,35.82l47.513-2.99c-0.186-34.681-17.09-21.434-20.613-52.624
			c-1.536-13.594-18.899-22.17-28.401-21.572c-14.254,0.897-18.335,7.813-21.811,13.685c3.483,9.648,14.691,10.406,24.954,15.911
			c1.105-1.019,2.554-1.68,4.171-1.781c3.739-0.235,6.961,2.605,7.196,6.344c0.235,3.739-2.605,6.961-6.344,7.196
			C98.123,128.343,98.021,128.347,97.918,128.349z"/>
		<g>
			<polygon fill-rule="evenodd" clip-rule="evenodd" fill="#958076" points="104.793,178.765 79.82,178.765 82.613,136.073 
				102,136.073 			"/>
			<path fill-rule="evenodd" clip-rule="evenodd" fill="#CAA891" d="M66.109,114.286c1.893,17.552,15.974,45.754,28.273,43.27
				c12.626-2.55,17.281-28.549,12.321-49.493C100.335,81.176,63.505,90.144,66.109,114.286z"/>
			<g>
				<circle fill-rule="evenodd" clip-rule="evenodd" fill="#CAA891" cx="108.908" cy="125.197" r="6.314"/>
			</g>
		</g>
		<path fill-rule="evenodd" clip-rule="evenodd" fill="#252728" d="M85.402,101.154c-0.306,8.249-12.225,10.518-16.202,26.94
			l-8.413-20.473l8.787-13.047l15.888-5.325L85.402,101.154z"/>
		<path fill-rule="evenodd" clip-rule="evenodd" fill="#252728" d="M85.402,101.154c1.311,6.067,12.39,4.188,17.309,9.107
			c4.919,4.919,5.649,8.546,5.649,8.546l4.715-16.7l-12.218-9.123l-16.399-3.367l-4.127,2.824L85.402,101.154z"/>
		<path fill-rule="evenodd" clip-rule="evenodd" fill="#809B52" d="M72.616,161.3h39.176c0,0,6.083,2.996,20.631,57.715H56.452
			C56.452,219.014,54.407,195.878,72.616,161.3z"/>
	</g>
	<path fill="#72803E" d="M31.304,224.802c0,0,8.177,3.6,25.733-13.704c7.412-7.305,6.68-26.315,6.68-26.315L31.304,224.802z"/>
	<g>
		<path fill-rule="evenodd" clip-rule="evenodd" fill="#CAA891" d="M65.252,158.251c-0.599-5.222-0.995-10.467-1.185-15.72
			c-0.061-1.679-0.093-3.406,0.49-4.982c0.488-1.317,1.375-2.441,2.249-3.541c0.162-0.204,0.341-0.42,0.591-0.493
			c0.55-0.161,1.009,0.424,1.285,0.927c2.839,5.161,5.677,10.323,8.516,15.484c0.367,0.668,0.747,1.417,0.572,2.159
			c-0.165,0.7-0.778,1.189-1.352,1.622c-2.77,2.088-5.607,4.21-8.905,5.283c-0.908,0.296-1.981,0.484-2.756-0.075
			c-0.525-0.379-0.787-1.019-0.977-1.638"/>
	</g>
	<path fill-rule="evenodd" clip-rule="evenodd" fill="#809B52" d="M62.842,151.588c-5.901,6.04-13.212,16.608-19.887,29.313
		c-11.374,21.651-16.591,41.306-11.652,43.9c4.939,2.595,18.164-12.853,29.538-34.504c6.675-12.706,11.228-24.722,12.853-33.008
		L62.842,151.588z"/>
</g>
</svg>
