<?xml version="1.0" encoding="utf-8"?>
<!-- Generator: Adobe Illustrator 24.1.2, SVG Export Plug-In . SVG Version: 6.00 Build 0)  -->
<svg version="1.1" id="Layer_1" xmlns="http://www.w3.org/2000/svg" xmlns:xlink="http://www.w3.org/1999/xlink" x="0px" y="0px"
	 viewBox="0 0 164.602 164.602" enable-background="new 0 0 164.602 164.602" xml:space="preserve">
<g>
	<g>
		<circle fill="#74A7D3" cx="82.301" cy="82.301" r="82.301"/>
	</g>
	<g>
		<g>
			<circle fill="#FFFFFF" cx="83.449" cy="80.33" r="50.114"/>
			<path fill="#005D91" d="M83.449,134.944c-30.114,0-54.614-24.5-54.614-54.614s24.5-54.614,54.614-54.614
				s54.614,24.5,54.614,54.614S113.563,134.944,83.449,134.944z M83.449,34.716c-25.151,0-45.614,20.462-45.614,45.614
				s20.462,45.614,45.614,45.614s45.614-20.462,45.614-45.614S108.6,34.716,83.449,34.716z"/>
		</g>
		<g>
			<g>
				<circle fill="#EED380" cx="51.316" cy="114.11" r="24.276"/>
			</g>
			<g>
				<path fill="#FFFFFF" d="M51.316,133.857c-10.888,0-19.747-8.858-19.747-19.747s8.858-19.746,19.747-19.746
					s19.747,8.858,19.747,19.746S62.204,133.857,51.316,133.857z M51.316,95.166c-10.446,0-18.944,8.499-18.944,18.944
					c0,10.446,8.498,18.945,18.944,18.945s18.944-8.499,18.944-18.945C70.26,103.664,61.762,95.166,51.316,95.166z"/>
			</g>
			<g>
				<g>
					<path fill="#4B4F54" d="M52.462,122.752v2.703h-1.979v-2.68c-2.366-0.144-4.659-0.917-5.914-2.003l1.087-2.438
						c1.183,0.965,2.993,1.665,4.828,1.834v-4.828c-2.679-0.651-5.552-1.52-5.552-4.876c0-2.462,1.786-4.611,5.552-4.972v-2.728
						h1.979v2.68c1.786,0.097,3.597,0.627,4.9,1.473l-0.99,2.438c-1.279-0.749-2.631-1.159-3.911-1.304v4.876
						c2.68,0.651,5.6,1.496,5.6,4.852C58.063,120.241,56.252,122.365,52.462,122.752z M50.483,112.42v-4.296
						c-1.714,0.265-2.438,1.134-2.438,2.196C48.045,111.479,49.083,112.01,50.483,112.42z M54.973,117.997
						c0-1.183-1.062-1.738-2.51-2.148v4.272C54.224,119.855,54.973,119.034,54.973,117.997z"/>
				</g>
			</g>
		</g>
		<g>
			<path fill="#4B4F54" d="M83.471,86.609c-0.835,0-1.636-0.47-2.018-1.274L67.338,55.666c-0.53-1.114-0.057-2.446,1.057-2.976
				c1.114-0.531,2.446-0.057,2.976,1.057l14.115,29.668c0.53,1.114,0.057,2.446-1.057,2.976
				C84.12,86.539,83.793,86.609,83.471,86.609z"/>
		</g>
		<g>
			<path fill="#4B4F54" d="M83.471,86.609c-0.833,0-1.633-0.469-2.016-1.271c-0.532-1.113-0.061-2.446,1.052-2.978l16.516-7.895
				c1.113-0.531,2.446-0.061,2.978,1.052c0.532,1.113,0.061,2.446-1.052,2.978L84.433,86.39
				C84.122,86.539,83.794,86.609,83.471,86.609z"/>
		</g>
	</g>
</g>
</svg>
