<?xml version="1.0" encoding="utf-8"?>
<!-- Generator: Adobe Illustrator 24.1.0, SVG Export Plug-In . SVG Version: 6.00 Build 0)  -->
<svg version="1.1" id="Layer_1" xmlns="http://www.w3.org/2000/svg" xmlns:xlink="http://www.w3.org/1999/xlink" x="0px" y="0px"
	 viewBox="0 0 423.587 366.239" enable-background="new 0 0 423.587 366.239" xml:space="preserve">
<g>
	<g>
		<defs>
			<circle id="SVGID_4_" cx="183.119" cy="183.119" r="183.119"/>
		</defs>
		<use xlink:href="#SVGID_4_"  overflow="visible" fill-rule="evenodd" clip-rule="evenodd" fill="#62B5E5"/>
		<clipPath id="SVGID_2_">
			<use xlink:href="#SVGID_4_"  overflow="visible"/>
		</clipPath>
		<g clip-path="url(#SVGID_2_)">
			<g id="humaaans_x2F_sitting-1_4_">
				
					<g id="A-Human_x2F_Sitting_4_" transform="translate(190.000000, 200.500000) scale(-1, 1) translate(-190.000000, -200.500000) translate(40.000000, 24.000000)">
					<g id="Head_x2F_Front_x2F_Airy_4_" transform="translate(82.000000, 0.000000)">
						<g id="Head_11_" transform="translate(54.000000, 31.000000)">
							<path fill-rule="evenodd" clip-rule="evenodd" fill="#B28B67" d="M119.876,37.797c7.636-8.963,12.804-19.948,11.941-32.256
								c-2.488-35.464-51.856-27.663-61.459-9.763s-8.462,63.302,3.949,66.501c4.949,1.276,15.493-1.849,26.225-8.318l-6.736,47.653
								h39.772L119.876,37.797z"/>
						</g>
					</g>
					<g id="Bottom_x2F_Sitting_x2F_Sweat-Pants_4_" transform="translate(0.000000, 187.000000)">
						<path id="Skin_9_" fill-rule="evenodd" clip-rule="evenodd" fill="#B28B67" d="M24.829,346.828
							c17.652-108.138,32.342-179.731,40.757-201.521c5.56-14.397,47.622-12.71,42.783,16.258
							c-2.029,12.148-10.058,44.677-20.611,81.644c-6.164,21.59-21.519,62.511-42.752,109.505L24.829,346.828z M285.202,225.049
							c-7.452-1.025-94.535-10.154-155.961-18.994c-24.665-3.55-11.397-49.751,14.213-44.862c8.616,1.645,17.78,3.465,27.235,5.424
							c32.904,6.817,101.126,30.915,120.607,38.616C303.539,210.072,295.646,226.485,285.202,225.049z"/>
						<path id="Leg-Back_4_" fill-rule="evenodd" clip-rule="evenodd" fill="#252728" d="M127.735,148.479L233.11,94.837V83.16
							h-12.532c-101.945,25.977-154.039,42.625-156.282,49.944c-0.024,0.079-0.046,0.158-0.066,0.237
							c-0.051,0.067-0.102,0.135-0.151,0.203c-20.203,27.785-32.303,163.436-36.274,173.593l38.714,5.776
							c14.809-54.915,62.19-93.172,60.931-158.943C127.789,152.04,127.875,150.21,127.735,148.479z"/>
						<path id="Leg-Front_4_" fill-rule="evenodd" clip-rule="evenodd" fill="#252728" d="M224.355,180.337
							c9.642-1.93,18.52-3.653,26.118-4.985c49.074-8.608,63.385-34.877,54.924-92.192h-90.419
							c-14.77,4.243-91.529,36.433-131.355,53.554c-26.359,11.332-18.05,52.181-3.123,62.812c0.081,0.652,0.35,1.095,0.828,1.293
							c80.297,33.28,143.82,15.818,165.04,21.398l9.815-30.962L224.355,180.337z"/>
					</g>
					<g id="Body_x2F_Jacket-2_4_" transform="translate(22.000000, 82.000000)">
						<path id="Skin_8_" fill-rule="evenodd" clip-rule="evenodd" fill="#B28B67" d="M99.16,169.018L44.78,132.36
							c-14.481-3.289-26.643-7.616-36.486-12.982c-2.354-1.977-5.266-6.057,4.179-5.712c9.445,0.345,19.395,0.283,20.565-2.981
							c1.17-3.264-4.683-6.875-2.231-11.314c1.634-2.959,10.198,3.951,25.69,20.732l53.177,19.583L99.16,169.018z"/>
						<path id="Coat-Back_4_" fill-rule="evenodd" clip-rule="evenodd" fill="#D93963" d="M224.873,22.993l-14.33-2.458
							c-31.212,30.277-43.948,103.016-64.749,112.644c-19.666,9.103-47.544,0.294-80.681-11.6l-10.148,22.674
							c30.108,32.573,94.25,60.093,120.25,44.382C216.783,163.517,226.379,73.805,224.873,22.993z"/>
						<path id="Shirt_4_" fill-rule="evenodd" clip-rule="evenodd" fill="#DDE3E9" d="M287.34,203.074c-57.457,0-99.721,0-126.792,0
							c-5.794,0-4.702-8.366-3.865-12.588c9.666-48.722,47.399-101.241,47.399-170.595l36.573-5.735
							C270.905,62.809,281.366,122.709,287.34,203.074z"/>
						<path id="Coat-Front_4_" fill-rule="evenodd" clip-rule="evenodd" fill="#D93963" d="M304.364,230.688
							c2.234-102.742-10.423-180.915-61.35-216.531h-0.418h-14.063c-32.833,111.92-41.884,225.465-27.154,262.69L304.364,230.688z"
							/>
					</g>
				</g>
			</g>
		</g>
	</g>
	
		<linearGradient id="SVGID_3_" gradientUnits="userSpaceOnUse" x1="-1892.4685" y1="7422.895" x2="-1768.0177" y2="7547.3462" gradientTransform="matrix(-1 0 0 -1 -1512.7991 7619.7075)">
		<stop  offset="0" style="stop-color:#C1C6C8"/>
		<stop  offset="0.165" style="stop-color:#CACED0"/>
		<stop  offset="0.6789" style="stop-color:#E1E4E5"/>
		<stop  offset="1" style="stop-color:#EAECED"/>
	</linearGradient>
	<path fill="url(#SVGID_3_)" d="M200.79,140.811c0-18.695,15.145-33.84,33.84-33.84c2.248,0,4.378,0.237,6.508,0.592
		c-0.592-2.248-0.947-4.733-0.947-7.218c0-15.618,12.66-28.279,28.279-28.279c6.981,0,13.252,2.485,18.221,6.626
		c6.508-22.126,26.977-38.217,51.233-38.217c29.462,0,53.481,23.901,53.481,53.481c0,2.248-0.118,4.496-0.473,6.744
		c18.34,2.13,32.656,17.748,32.656,36.798c0,20.469-16.565,37.153-37.153,37.153H228.477
		C213.213,171.338,200.79,157.021,200.79,140.811z"/>
	<path id="hair_7_" fill-rule="evenodd" clip-rule="evenodd" fill="#252728" d="M148.459,24.878
		c-0.785-2.759-2.896-5.122-5.742-5.822c-0.69-0.17-1.403-0.239-2.113-0.21c-0.255,0.01-0.326,0.084-0.445-0.094
		c-0.088-0.132-0.09-0.455-0.127-0.61c-0.113-0.483-0.254-0.959-0.429-1.423c-0.595-1.583-1.596-2.984-2.802-4.165
		c-2.256-2.208-5.304-3.732-8.471-4.008c-1.733-0.151-3.454,0.131-5.093,0.695c-0.848,0.292-1.671,0.655-2.472,1.057
		c-0.241,0.121-1.024,0.713-1.266,0.675c-0.267-0.042-0.805-0.707-1.022-0.874c-2.687-2.062-6.006-2.872-9.353-2.848
		c-3.778,0.028-7.416,0.217-10.567,2.52c-0.667,0.488-1.302,1.021-1.907,1.584c-0.318,0.296-0.627,0.603-0.921,0.923
		c-0.178,0.193-0.35,0.39-0.517,0.593c-0.282,0.344-0.237,0.457-0.632,0.217c-1.516-0.921-3.274-1.352-5.044-1.135
		c-1.051,0.129-2.074,0.445-3.044,0.86c-0.331,0.141-1.096,0.705-1.448,0.711c-0.35,0.005-1.104-0.517-1.464-0.65
		c-1.945-0.718-4.041-0.895-6.085-0.563c-2.108,0.342-4.18,1.183-5.966,2.346c-0.859,0.559-1.609,1.179-2.211,2.01
		c-0.26,0.359-0.495,0.739-0.79,1.072c-0.173,0.195-0.514,0.395-0.607,0.642c0.055-0.148-2.306-1.058-2.529-1.116
		c-1.187-0.31-2.396-0.247-3.558,0.135c-2.186,0.719-4.066,2.332-5.61,3.986c-0.793,0.849-1.488,1.789-2.077,2.789
		c-0.282,0.479-0.541,0.972-0.777,1.475c-0.115,0.244-0.19,0.549-0.341,0.769c-0.194,0.283-0.325,0.288-0.677,0.412
		c-1.789,0.627-3.42,1.687-4.661,3.121c-1.256,1.45-2.071,3.236-2.413,5.117c-0.02,0.111-0.032,0.57-0.097,0.63
		c-0.089,0.083-0.449,0.046-0.585,0.062c-0.471,0.055-0.939,0.138-1.401,0.247c-0.851,0.201-1.679,0.498-2.463,0.886
		c-3.055,1.511-5.239,4.345-6.308,7.533c-1.122,3.346-1.102,7.179,0.239,10.463c0.217,0.53,0.474,1.045,0.777,1.532
		c0.186,0.299,0.246,0.3,0.125,0.613c-0.135,0.349-0.38,0.688-0.54,1.029c-0.521,1.113-0.885,2.293-1.116,3.498
		c-0.378,1.977-0.565,4.055-0.192,6.047c0.173,0.925,0.474,1.829,0.934,2.653c0.234,0.42,0.509,0.818,0.818,1.187
		c0.161,0.191,0.332,0.374,0.51,0.549c0.102,0.1,0.236,0.188,0.323,0.299c0.212,0.272,0.257,0.048,0.147,0.448
		c-0.153,0.559-0.499,1.111-0.712,1.655c-0.219,0.561-0.416,1.129-0.597,1.703c-0.366,1.162-0.676,2.346-0.869,3.549
		c-0.372,2.311-0.306,4.774,0.787,6.895c0.467,0.907,1.138,1.703,1.951,2.322c0.398,0.303,0.829,0.564,1.282,0.778
		c0.232,0.11,0.529,0.158,0.635,0.382c0.114,0.242-0.055,0.722-0.094,0.992c-0.336,2.351-0.505,4.819,0.194,7.122
		c0.644,2.122,2.061,3.995,3.9,5.235c3.569,2.406,8.38,2.27,12.13,0.344c0.977-0.502,1.892-1.126,2.708-1.861
		c2.077,2.796,6.352,2.708,9.388,1.911c3.782-0.993,6.818-3.623,8.566-7.078c2.391,2.911,7.409,1.966,9.067-1.191
		c0.406-0.773,0.647-1.625,0.765-2.487c0.062-0.453,0.023-0.91,0.069-1.36c0.06-0.573,0.443-1.13,0.663-1.684
		c0.428-1.079,0.694-2.193,0.706-3.357c0.006-0.608-0.071-1.2-0.129-1.802c-0.052-0.542,0.098-1.048,0.184-1.583
		c-0.97,0.16-2.152-0.102-3.066-0.383c-0.897-0.276-1.737-1.003-2.37-1.667c-1.47-1.542-2.368-3.563-2.982-5.574
		c-1.348-4.415-0.795-9.712,3.645-12.135c2.069-1.129,8.266-1.125,10.73-0.567c2.591,0.587,5.528,6.303,5.672,6.84
		c0.089,0.333,0.044,0.744,0.35,0.966c0.671,0.487,1.779-0.358,2.274-0.776c0.855-0.72,1.464-1.678,1.992-2.65
		c1.15-2.116,2.078-4.385,2.733-6.702c0.505-1.786,0.828-3.628,1.488-5.368c0.657-1.732,1.692-3.28,3.302-4.261
		c1.751-1.067,3.759-1.629,5.681-2.3c1.906-0.665,3.778-1.477,5.255-2.887c0.325-0.31,0.64-0.64,0.902-1.005
		c0.206-0.288,0.41-0.84,0.725-1.023c0.489-0.284,1.202,0.455,1.625,0.723c2.086,1.325,3.825,3.172,5.229,5.19
		c1.396,2.007,2.541,3.938,3.471,6.179c0.69,1.662,1.121,3.791,2.335,5.153c0.542,0.608,4.57,0.976,5.875,0.445
		c1.305-0.531,2.767-1.91,3.205-2.774c0.448-0.884,0.555-1.856,0.364-2.824c-0.113-0.57-0.343-1.102-0.469-1.661
		c-0.106-0.47-0.202-0.914-0.431-1.345c-0.434-0.816-1.174-1.402-2.068-1.648c0.93-0.857,1.7-1.882,2.233-3.029
		c0.554-1.191,1.023-2.639,1.156-3.946c0.108-1.062-0.059-2.161-0.64-3.074c-0.61-0.957-1.69-1.581-2.624-2.178
		c1.427-1.117,2.649-2.475,3.653-3.978C148.243,32.05,149.451,28.364,148.459,24.878z"/>
</g>
</svg>
