<?xml version="1.0" encoding="utf-8"?>
<!-- Generator: Adobe Illustrator 24.1.0, SVG Export Plug-In . SVG Version: 6.00 Build 0)  -->
<svg version="1.1" id="Layer_1" xmlns="http://www.w3.org/2000/svg" xmlns:xlink="http://www.w3.org/1999/xlink" x="0px" y="0px"
	 viewBox="0 0 344.319 388.805" enable-background="new 0 0 344.319 388.805" xml:space="preserve">
<g>
	<g>
		<rect x="146.235" y="79.063" fill="#4B4F54" width="73.287" height="16.612"/>
		<path fill="#4B4F54" d="M146.235,79.062v61.561h-16.612V95.674C129.623,86.499,137.061,79.062,146.235,79.062L146.235,79.062z"/>
		<path fill="#4B4F54" d="M236.133,95.674v44.949h-16.612V79.062l0,0C228.696,79.062,236.133,86.499,236.133,95.674z"/>
		<path fill="#62B5E5" d="M28.454,180.93V124.1c0-7.874,6.383-14.258,14.258-14.258h277.822c7.874,0,14.258,6.384,14.258,14.258
			v52.433"/>
		<rect x="28.454" y="145.386" fill="#4A8097" width="306.338" height="69.256"/>
		<path fill="#FFFFFF" d="M202.811,159.433h-42.376c-2.869,0-5.195-2.326-5.195-5.195v-15.993c0-2.869,2.326-5.195,5.195-5.195
			h42.376c2.869,0,5.195,2.326,5.195,5.195v15.993C208.006,157.107,205.68,159.433,202.811,159.433z"/>
		<circle fill="#4A808D" cx="184.872" cy="236.1" r="8.267"/>
		<g>
			<path fill="#C7C7C7" d="M329.976,151.118c12.758-12.758,17.002-30.802,12.742-47.082c-0.416-1.588-2.418-2.115-3.579-0.954
				l-26.506,26.506c-3.683,3.683-9.654,3.683-13.337,0l-17.065-17.065c-3.683-3.683-3.683-9.654,0-13.337l26.507-26.507
				c1.159-1.159,0.637-3.16-0.949-3.575c-16.782-4.394-35.439,0.249-48.25,13.94c-13.185,14.092-16.344,34.261-9.737,51.314
				l-107.155,91.45c-13.649,11.648-14.47,32.458-1.782,45.146c12.688,12.688,33.498,11.867,45.146-1.782l91.399-107.095
				C294.995,168.98,315.765,165.33,329.976,151.118z"/>
		</g>
		<path fill="#62B5E5" d="M334.792,214.642V316.91c0,7.874-6.384,14.258-14.258,14.258H42.712c-7.874,0-14.258-6.384-14.258-14.258
			V214.642"/>
	</g>
	<g>
		<g>
			<g>
				<path fill="#D93963" d="M114.099,36.234l-0.439-0.22l-1.757-4.392l0.22-0.439c5.49-12.517,5.27-12.956,4.172-13.835
					l-7.466-7.247c-0.22-0.22-0.878-0.439-1.318-0.439s-1.757,0-12.517,5.051l-0.439,0.22l-4.612-1.757l-0.22-0.439
					C84.672,0,84.013,0,82.696,0H72.374c-1.318,0-1.757,0-6.588,12.737l-0.22,0.439l-4.392,1.757l-0.439-0.22
					c-7.466-3.074-11.639-4.612-12.956-4.612c-0.439,0-1.098,0.22-1.318,0.439l-7.466,7.247c-0.878,0.878-1.318,1.318,4.612,13.615
					l0.22,0.439l-1.757,4.392l-0.439,0.22c-13.176,5.051-13.176,5.49-13.176,6.808v10.321c0,1.318,0,1.757,13.176,6.588l0.439,0.22
					l1.757,4.392l-0.22,0.439c-5.49,12.517-5.27,12.956-4.172,13.835l7.466,7.247c0.22,0.22,0.878,0.439,1.318,0.439
					c0.439,0,1.757,0,12.517-5.051l0.439-0.22l4.612,1.757l0.22,0.439c5.051,12.737,5.71,12.737,7.027,12.737h10.321
					c1.318,0,1.757,0,6.588-12.737l0.22-0.439l4.392-1.757l0.439,0.22c7.466,3.074,11.639,4.612,12.737,4.612
					c0.439,0,1.098-0.22,1.318-0.439l7.466-7.247c0.878-0.878,1.318-1.318-4.612-13.615l0-0.659l1.757-4.392h0.439
					c12.956-5.051,12.956-5.49,12.956-6.808V42.822C127.055,41.505,127.055,40.846,114.099,36.234z M77.864,64.782
					c-9.443,0-16.909-7.466-16.909-16.69c0-9.223,7.686-16.69,16.909-16.69c9.443,0,16.909,7.466,16.909,16.69
					S87.088,64.782,77.864,64.782z"/>
			</g>
		</g>
	</g>
	<g>
		<polygon id="Fill-10_22_" fill-rule="evenodd" clip-rule="evenodd" fill="#FFFFFF" points="113.685,388.805 227.254,330.98 
			113.685,275.236 		"/>
		<polygon id="Fill-10_23_" fill-rule="evenodd" clip-rule="evenodd" fill="#C1C6C8" fill-opacity="0.2" points="113.685,388.805 
			227.254,330.98 113.685,275.236 		"/>
		<polygon id="Fill-10_21_" fill-rule="evenodd" clip-rule="evenodd" fill="#FFE07F" points="0,388.805 113.685,330.98 0,275.236 		
			"/>
	</g>
</g>
</svg>
