<?xml version="1.0" encoding="utf-8"?>
<!-- Generator: Adobe Illustrator 24.1.0, SVG Export Plug-In . SVG Version: 6.00 Build 0)  -->
<svg version="1.1" id="Layer_1" xmlns="http://www.w3.org/2000/svg" xmlns:xlink="http://www.w3.org/1999/xlink" x="0px" y="0px"
	 viewBox="0 0 371.176 300" enable-background="new 0 0 371.176 300" xml:space="preserve">
<g>
	<path fill="#005D91" d="M65.46,94.905c-0.096-1.699-0.156-3.407-0.156-5.13v0C65.304,40.194,105.497,0,155.079,0h0
		c39.786,0,73.505,25.891,85.284,61.736c5.155-2.719,11.024-4.264,17.256-4.264c20.464,0,37.053,16.589,37.053,37.053h0.15
		c40.291,0,72.953,32.662,72.953,72.953v0c0,40.291-32.662,72.953-72.953,72.953H72.953C32.662,240.43,0,207.768,0,167.477v0
		C0,129.716,28.689,98.657,65.46,94.905z"/>
	<path fill="#C0E1F5" d="M176.089,206.092c-0.062-1.096-0.1-2.199-0.1-3.311v0c0-31.995,25.937-57.932,57.932-57.932h0
		c25.674,0,47.434,16.708,55.035,39.839c3.326-1.754,7.114-2.752,11.136-2.752c13.206,0,23.911,10.705,23.911,23.911h0.097
		c26,0,47.077,21.077,47.077,47.077v0c0,26-21.077,47.077-47.077,47.077H180.924c-26,0-47.077-21.077-47.077-47.077v0
		C133.847,228.555,152.361,208.513,176.089,206.092z"/>
</g>
<g>
	<g>
		<g>
			<g>
				<defs>
					<circle id="SVGID_41_" cx="-17.91" cy="-609.477" r="47.598"/>
				</defs>
				<clipPath id="SVGID_1_">
					<use xlink:href="#SVGID_41_"  overflow="visible"/>
				</clipPath>
			</g>
		</g>
	</g>
</g>
</svg>
