<?xml version="1.0" encoding="utf-8"?>
<!-- Generator: Adobe Illustrator 24.1.0, SVG Export Plug-In . SVG Version: 6.00 Build 0)  -->
<svg version="1.1" id="Layer_1" xmlns="http://www.w3.org/2000/svg" xmlns:xlink="http://www.w3.org/1999/xlink" x="0px" y="0px"
	 viewBox="0 0 283.412 363.348" enable-background="new 0 0 283.412 363.348" xml:space="preserve">
<g>
	<g>
		<path fill="#4B4F54" d="M229.225,229.902l-175.213-0.095l0.095-176.488C54.125,23.913,78.054,0,107.456,0c0.011,0,0.02,0,0.03,0
			l68.516,0.037c29.417,0.016,53.336,23.961,53.32,53.377L229.225,229.902z M80.723,203.125l121.82,0.066L202.625,53.4
			c0.008-14.696-11.941-26.658-26.638-26.667l-68.516-0.037c-0.005,0-0.011,0-0.016,0c-14.689,0-26.644,11.946-26.651,26.638
			L80.723,203.125z"/>
	</g>
	<g>
		<path fill="#D93963" d="M253.876,351.927l-224.646-0.122c-11.749-0.006-20.959-10.094-19.9-21.795l15.934-176.007
			c0.933-10.305,9.575-18.195,19.922-18.19l192.969,0.105c10.347,0.006,18.98,7.905,19.902,18.211l15.743,176.025
			C274.846,341.856,265.624,351.933,253.876,351.927z"/>
	</g>
	<g>
		<circle fill="#FFFFFF" cx="141.633" cy="203.838" r="22.075"/>
	</g>
	<g>
		<polygon fill="#FFFFFF" points="157.686,268.821 125.509,268.803 133.173,207.998 150.088,208.007 		"/>
	</g>
	<g>
		<rect x="0.018" y="298.402" fill="#A32B4A" width="283.377" height="64.869"/>
	</g>
</g>
<g>
</g>
</svg>
