<?xml version="1.0" encoding="utf-8"?>
<!-- Generator: Adobe Illustrator 24.1.0, SVG Export Plug-In . SVG Version: 6.00 Build 0)  -->
<svg version="1.1" id="Layer_1" xmlns="http://www.w3.org/2000/svg" xmlns:xlink="http://www.w3.org/1999/xlink" x="0px" y="0px"
	 viewBox="0 0 305.46 350" enable-background="new 0 0 305.46 350" xml:space="preserve">
<g>
	<g>
		<circle fill="#FFE07F" cx="152.73" cy="165.799" r="152.73"/>
	</g>
	<g>
		<path fill="#4B4F54" d="M191.567,222.663h-77.673L101.89,0H203.57L191.567,222.663z M102.831,305.044
			c0-14.277,4.237-25.38,12.71-33.305c8.473-7.922,20.79-11.886,36.954-11.886c16.005,0,28.127,3.965,36.365,11.886
			c8.238,7.926,12.356,19.028,12.356,33.305c0,14.122-4.277,25.148-12.827,33.07C179.835,346.035,167.871,350,152.495,350
			c-15.535,0-27.697-3.965-36.483-11.887C107.222,330.192,102.831,319.166,102.831,305.044z"/>
	</g>
</g>
<g>
	<g>
		<g>
			<g>
				<defs>
					<circle id="SVGID_41_" cx="413.023" cy="-584.477" r="47.598"/>
				</defs>
				<clipPath id="SVGID_1_">
					<use xlink:href="#SVGID_41_"  overflow="visible"/>
				</clipPath>
			</g>
		</g>
	</g>
</g>
</svg>
